<svg width="32" height="32" viewBox="0 0 32 32" fill="none" xmlns="http://www.w3.org/2000/svg">
<path d="M16 2.66675C8.63613 2.66675 2.66669 8.63619 2.66669 16.0001C2.66669 23.364 8.63613 29.3334 16 29.3334C23.3639 29.3334 29.3334 23.364 29.3334 16.0001C29.3334 8.63619 23.3639 2.66675 16 2.66675ZM12.7361 21.5265H10.0361V12.8376H12.7361V21.5265ZM11.3695 11.7709C10.5167 11.7709 9.9653 11.1667 9.9653 10.4195C9.9653 9.65703 10.5334 9.07091 11.4042 9.07091C12.275 9.07091 12.8084 9.65703 12.825 10.4195C12.825 11.1667 12.275 11.7709 11.3695 11.7709ZM22.5972 21.5265H19.8972V16.7112C19.8972 15.5904 19.5056 14.8292 18.5292 14.8292C17.7834 14.8292 17.3403 15.3445 17.1445 15.8404C17.0722 16.0167 17.0542 16.2667 17.0542 16.5154V21.5251H14.3528V15.6084C14.3528 14.5237 14.3181 13.6167 14.282 12.8362H16.6278L16.7514 14.0431H16.8056C17.1611 13.4765 18.032 12.6404 19.4889 12.6404C21.2653 12.6404 22.5972 13.8306 22.5972 16.389V21.5265Z" fill="#E63946"/>
</svg>
