<svg width="28" height="28" viewBox="0 0 28 28" fill="none" xmlns="http://www.w3.org/2000/svg">
<path d="M14 0.666626C6.63691 0.666626 0.666672 6.63686 0.666672 14C0.666672 21.3631 6.63691 27.3333 14 27.3333C21.3631 27.3333 27.3333 21.3631 27.3333 14C27.3333 6.63686 21.3631 0.666626 14 0.666626ZM20.4077 10.7172C20.4167 10.8571 20.4167 11.0029 20.4167 11.1458C20.4167 15.5148 17.0893 20.5476 11.0089 20.5476C9.13393 20.5476 7.39584 20.0029 5.93155 19.0654C6.19941 19.0952 6.45536 19.1071 6.72917 19.1071C8.27679 19.1071 9.69941 18.5833 10.8333 17.6964C9.38096 17.6666 8.16072 16.7142 7.74405 15.4047C8.25298 15.4791 8.71132 15.4791 9.23512 15.3452C8.48729 15.1933 7.81511 14.7871 7.33279 14.1957C6.85047 13.6044 6.58776 12.8643 6.58929 12.1012V12.0595C7.02679 12.3065 7.54167 12.4583 8.08036 12.4791C7.62751 12.1773 7.25613 11.7684 6.99915 11.2887C6.74216 10.809 6.60752 10.2733 6.60715 9.72913C6.60715 9.11306 6.76786 8.55056 7.05655 8.06246C7.88662 9.08429 8.92242 9.92003 10.0966 10.5153C11.2708 11.1106 12.5572 11.4522 13.872 11.5178C13.4048 9.27079 15.0833 7.45234 17.1012 7.45234C18.0536 7.45234 18.9107 7.85115 19.5149 8.49401C20.2619 8.35413 20.9762 8.07436 21.6131 7.69936C21.3661 8.46425 20.8482 9.11008 20.1607 9.51782C20.8274 9.44639 21.4702 9.26186 22.0655 9.00294C21.6161 9.66365 21.0536 10.25 20.4077 10.7172Z" fill="#E63946"/>
</svg>
