<svg width="12" height="9" viewBox="0 0 12 9" fill="none" xmlns="http://www.w3.org/2000/svg">
<path d="M10.6875 0.219934C10.7557 0.1503 10.8371 0.0949814 10.927 0.0572166C11.0168 0.0194519 11.1132 0 11.2107 0C11.3081 0 11.4046 0.0194519 11.4944 0.0572166C11.5842 0.0949814 11.6656 0.1503 11.7338 0.219934C12.0196 0.508934 12.0236 0.975934 11.7438 1.26993L5.8349 8.25993C5.76782 8.33366 5.68641 8.3929 5.59565 8.43406C5.50489 8.47521 5.4067 8.4974 5.30708 8.49927C5.20746 8.50115 5.1085 8.48266 5.01626 8.44495C4.92403 8.40723 4.84045 8.35108 4.77064 8.27993L1.17514 4.63393C1.03648 4.49242 0.958801 4.30213 0.958801 4.10393C0.958801 3.90574 1.03648 3.71545 1.17514 3.57393C1.24334 3.5043 1.32474 3.44898 1.41456 3.41122C1.50439 3.37345 1.60085 3.354 1.69828 3.354C1.79571 3.354 1.89217 3.37345 1.98199 3.41122C2.07182 3.44898 2.15322 3.5043 2.22142 3.57393L5.2713 6.66693L10.6675 0.241934C10.6738 0.234206 10.6804 0.226859 10.6875 0.219934Z" fill="#04DF00"/>
</svg>
