<svg width="404" height="508" viewBox="0 0 404 508" fill="none" xmlns="http://www.w3.org/2000/svg">
<g clip-path="url(#clip0_1_431)">
<path d="M73.9249 318.102H188.451V445.023H73.9249V318.102Z" fill="#FDEA6B"/>
<path fill-rule="evenodd" clip-rule="evenodd" d="M221.855 193.96C209.509 185.499 178.516 181.695 165.34 189.841C152.326 198.021 150.907 211.249 144.843 223.418C139.121 220.99 129.672 224.468 128.013 229.246C125.956 231.499 125.864 237.831 124.445 240.86C62.7098 249.704 53.3373 293.018 45.9066 342.192C36.0764 392.092 13.7609 441.882 23.4486 493.229C22.1863 494.873 21.191 496.471 20.2708 498.368C18.0658 501.745 20.906 506.524 25.3535 506.339C31.1103 505.884 36.8101 505.263 42.5939 505.069C58.6274 504.568 74.6755 504.628 90.715 504.811L92.9022 504.837C173.737 505.742 254.567 507.527 335.405 508C338.338 508.004 339.774 505.637 339.382 503.302C338.594 498.601 337.862 493.898 337.098 489.194C356.219 493.739 376.545 494.883 395.611 489.672C396.945 488.449 392.504 489.112 391.799 488.927C409.346 478.136 404.106 455.404 402.552 439.031C392.886 382.929 389.479 320.856 352.136 272.983C335.981 253.446 312.296 237.978 285.081 234.497L284.326 234.404C276.368 233.449 267.499 233.142 260.541 229.246C252.716 223.624 249.381 213.236 241.148 213.139C238.43 213.106 234.732 216.201 230.752 218.303C230.455 213.68 227.687 209.779 227.076 206.195L227.026 205.889C226.389 201.71 227.262 197.951 221.855 193.96ZM89.1807 343.675C106.53 332.828 151.347 338.278 152.373 338.885C154.632 340.223 155.604 340.341 156.826 342.077C158.032 342.221 159.238 342.371 160.442 342.525C162.858 343.235 161.068 345.909 158.277 344.955C159.955 351.469 155.016 356.102 153.049 362.543C152.411 364.634 153.026 368.395 153.049 370.531C152.859 373.256 149.512 376.473 150.07 379.207C152.053 388.923 162.814 398.402 158.277 407.825C155.271 413.147 146.231 415.861 140.221 417.67C127.769 421.971 106.072 417.508 98.8364 407.825C94.9773 402.66 90.5064 389.631 88.2054 385.59L87.6953 379.18C86.4376 363.244 85.3188 346.089 89.1807 343.675Z" fill="#D08B5B"/>
<path fill-rule="evenodd" clip-rule="evenodd" d="M241.79 213.168L236.825 215.91L207.99 228.738C202.399 230.147 199.604 231.835 199.604 233.803V253.839C199.604 256.521 194.358 262.598 183.866 272.07L174.173 263.374L174.39 262.236C175.313 257.33 175.774 254.048 175.774 252.39C175.774 250.608 166.291 243.841 147.325 232.089L139.027 225.059L139.912 222.638C134.796 222.855 129.248 225.691 128.013 229.246C125.956 231.5 125.864 237.831 124.445 240.861C62.7098 249.704 53.3373 293.019 45.9066 342.193C36.0764 392.092 13.7609 441.883 23.4486 493.23C22.1863 494.873 21.191 496.471 20.2708 498.369C18.0658 501.745 20.906 506.525 25.3535 506.34C31.1103 505.884 36.8101 505.263 42.5939 505.069C58.6274 504.568 74.6755 504.628 90.715 504.811L92.9022 504.837C173.737 505.743 254.567 507.527 335.405 508.001C338.338 508.004 339.774 505.637 339.382 503.302C338.594 498.601 337.862 493.898 337.098 489.195C356.219 493.74 376.545 494.883 395.611 489.673C396.945 488.45 392.504 489.113 391.799 488.927C409.346 478.136 404.106 455.405 402.552 439.032C392.886 382.93 389.479 320.856 352.136 272.983C335.981 253.446 312.296 237.978 285.081 234.498L284.326 234.405L283.565 234.316C275.807 233.427 267.278 233.019 260.541 229.246C252.922 223.773 249.56 213.781 241.79 213.168ZM172.696 330.775C175.524 330.775 181.317 334.727 190.073 342.633L190.844 342.954C201.429 347.378 208.441 351.216 211.881 354.468L212.003 354.585C215.478 357.94 222.359 366.86 232.646 381.347L247.542 389.275H253.179L257.192 415.471L247.542 434.175L225.685 427.55L190.073 419.102L169.637 400.444L158.11 396.961C159.508 400.598 160.015 404.216 158.277 407.826C155.271 413.148 146.231 415.862 140.221 417.671C127.769 421.972 106.072 417.509 98.8364 407.826C94.9773 402.661 90.5064 389.632 88.2054 385.591L87.5454 377.263C86.356 361.896 85.4733 345.993 89.1807 343.675C106.53 332.829 151.347 338.278 152.373 338.886C154.632 340.223 155.604 340.341 156.826 342.078L157.459 342.154L153.902 337.813L155.161 337.208C164.147 332.919 169.992 330.775 172.696 330.775ZM158.277 344.955C159.884 351.192 155.425 355.704 153.316 361.729L158.704 352.447L158.704 345.076C158.565 345.045 158.422 345.005 158.277 344.955Z" fill="#9DDADB"/>
<path fill-rule="evenodd" clip-rule="evenodd" d="M244.171 212.199C242.973 211.244 241.201 212.444 241.962 213.733C243.672 216.631 245.427 219.377 247.722 221.939C249.114 223.492 250.605 224.961 252.116 226.414C248.238 229.432 244.913 233.18 241.773 236.693C237.758 241.185 233.961 245.867 229.454 249.978C225.008 254.032 220.093 256.866 214.15 258.755L212.949 259.131C206.979 261.017 200.598 263.564 197.232 268.652C196.569 269.655 197.905 270.894 199.028 270.268C204.876 267.01 211.747 266.354 218.113 264.201C224.262 262.121 229.622 258.92 234.358 254.835C239.086 250.757 243.056 246.116 247.197 241.574C251.292 237.083 255.701 233.247 260.544 229.447C268.019 233.972 276.551 235.941 285.226 237.875L286.173 238.086C294.859 240.021 303.498 242.269 311.647 245.639C318.832 248.61 325.898 252.158 331.751 256.993C337.963 262.124 342.798 268.677 347.224 275.085C357.123 289.423 364.083 305.13 370.209 321.029C376.582 337.566 381.912 354.433 386.215 371.502C388.404 380.184 390.181 388.927 391.642 397.732C392.345 401.973 392.97 406.222 393.518 410.481C394.104 415.029 394.238 419.708 395.789 424.081C396.453 425.955 398.023 426.733 399.594 426.667L399.913 430.258C400.336 435.046 400.73 439.835 400.863 444.653C401.084 452.663 400.984 460.65 400.344 468.644L400.253 469.734C399.75 475.568 398.626 482.123 393.751 486.394C388.703 490.819 380.94 492.21 374.136 492.289C358.289 492.475 343.034 485.737 329.011 479.825C314.569 473.737 300.521 466.979 286.81 459.65C279.828 455.918 272.921 452.061 266.101 448.092C262.755 446.143 259.432 444.162 256.135 442.149C254.246 440.996 252.456 439.731 250.533 438.708C251.475 437.919 251.896 436.678 251.107 435.594C256.665 431.252 258.979 423.503 259.249 417.233C259.468 412.172 258.64 407.125 257.987 402.112C257.658 399.584 257.25 397.06 256.828 394.543C256.661 393.549 256.533 392.485 256.338 391.436C271.348 398.859 286.779 405.47 302.618 411.343C310.737 414.353 318.959 417.06 327.296 419.54L328.985 420.041C336.884 422.367 344.972 424.565 353.138 425.896C353.574 425.967 353.929 425.387 353.463 425.202C345.505 422.042 337.272 419.376 329.194 416.466L327.867 415.98C328.019 415.972 328.177 415.953 328.343 415.918C333.08 414.889 337.78 413.303 342.426 411.968C346.738 410.729 351.582 409.951 355.613 408.08C355.923 407.936 355.749 407.549 355.447 407.53C350.917 407.247 345.999 408.436 341.558 409.135L339.889 409.398C337.094 409.841 334.237 410.318 331.456 410.94C331.355 410.101 330.835 409.259 330.094 408.765C321.944 403.334 322.771 392.363 321.9 384.272L321.253 378.266C320.116 367.755 318.913 357.244 317.086 346.811C316.988 346.254 316.031 346.414 316.027 346.94C315.932 359.873 317.017 372.746 317.561 385.659L317.645 387.777C317.946 395.744 318.181 404.018 323.757 410.149C322.978 409.739 321.924 409.739 321.292 410.415C320.516 411.246 320.068 412.179 320.082 413.095C315.043 411.194 310.026 409.243 305.034 407.253C288.984 400.854 273.271 393.693 257.973 385.944C256.326 385.11 254.761 385.766 253.947 386.865L253.83 386.85C253.81 386.848 253.79 386.846 253.77 386.846L253.653 386.841C253.649 386.841 253.644 386.841 253.64 386.841C251.487 385.777 248.553 386.535 246.705 388.088C246.651 388.135 246.604 388.185 246.556 388.235C244.216 387.29 242.032 386.014 240.049 384.397C235.992 381.088 232.556 376.996 229.56 372.893C224.044 365.336 219.357 356.933 211.905 350.713C205.85 345.659 198.344 342.512 190.468 340.537C190.501 340.33 190.413 340.109 190.254 339.963C189.85 339.59 189.561 339.46 189.039 339.687C188.997 339.705 188.972 339.73 188.955 339.757L188.187 338.576C187.767 337.935 187.336 337.289 187.187 337.119C186.293 336.106 185.373 335.1 184.439 334.116C182.855 332.45 181.05 330.805 178.96 329.649C174.384 327.119 169.573 328.551 164.869 329.934C162.026 330.769 159.193 331.632 156.355 332.481L156.063 332.567C153.947 333.178 151.471 333.714 150.524 335.731C150.15 336.529 150.092 337.358 150.266 338.162C130.17 333.563 107.849 335.676 88.2379 341.075C87.4852 341.282 86.7336 341.839 86.575 342.571C84.328 352.941 83.3273 363.576 84.344 374.123C85.2212 383.227 87.4627 392.149 91.6867 400.484L91.9268 400.954C95.8965 408.679 102.188 418.201 111.797 420.622C117.599 422.084 124.015 421.222 129.933 420.954C135.684 420.693 141.562 420.656 147.258 419.842C152.331 419.117 156.776 417.071 159.912 413.359C162.616 410.156 164.04 406.285 165.207 402.435C165.741 402.588 166.272 402.75 166.794 402.934C168.998 403.709 170.866 404.959 172.554 406.431C176.119 409.538 178.885 413.312 182.615 416.277C185.992 418.961 189.84 421.048 193.967 422.653C202.52 425.979 211.695 427.308 220.741 429.071L221.372 429.194C228.183 430.539 235.135 432.191 241.146 435.382C241.263 436.321 241.739 437.205 242.501 437.784C241.441 438.68 240.992 440.099 241.924 441.43C244.526 445.147 249.009 447.262 253.033 449.639L253.295 449.794C257.254 452.156 261.247 454.471 265.273 456.739C273.458 461.351 281.813 465.708 290.286 469.874C303.915 476.575 317.836 482.895 332.009 488.628C331.159 492.394 331.469 496.278 330.83 500.07L330.732 500.611C330.459 502.018 330.828 503.195 331.905 504.115L332.019 504.209L332.017 504.196L332.118 504.279L332.152 504.305L332.14 504.297C332.265 504.399 332.393 504.494 332.523 504.576L332.689 504.672C333.727 505.24 335.062 505.233 336.124 504.732L336.246 504.672L336.45 504.567C337.853 503.841 338.821 502.041 338.239 500.611C336.808 497.097 336.267 493.346 334.946 489.809L335.994 490.23L337.376 490.772C352.318 496.587 368.916 501.484 385.197 497.52C392.39 495.768 399.114 492.062 402.713 486.021C406.255 480.078 406.756 473.176 406.944 466.564C407.176 458.404 406.69 450.119 405.494 442.029C404.691 436.599 403.721 431.065 402.223 425.691C402.993 425.079 403.559 424.202 403.709 423.116C404.416 417.983 403.179 412.646 402.422 407.539C401.682 402.554 400.865 397.578 399.941 392.617C398.075 382.599 395.907 372.602 393.383 362.701C388.891 345.08 382.959 327.772 375.817 310.878L375.192 309.407C368.593 293.965 360.952 278.853 350.312 265.288C345.222 258.798 339.842 252.913 332.65 248.237C325.913 243.855 318.313 240.7 310.47 238.288C302.619 235.875 294.549 234.258 286.337 233.252C277.997 232.23 269.193 231.604 261.413 228.525C262.397 226.937 261.552 224.794 259.896 223.809C254.322 220.494 249.167 216.183 244.171 212.199ZM65.728 356.322C65.4944 356.003 64.9398 356.205 65.0423 356.582C67.7534 366.578 70.2985 376.594 71.9604 386.78C74.9603 405.166 74.4085 423.791 74.1633 442.313L74.1509 443.271C74.0248 453.247 73.8498 463.224 73.4832 473.196C73.2982 478.236 72.9321 483.326 73.1311 488.368C73.2397 491.104 74.0499 493.691 74.3369 496.394C74.5885 498.758 74.3644 501.157 74.2389 503.524C74.1549 505.097 76.7354 505.03 76.911 503.524L77.1354 501.575C77.427 499.11 77.7875 496.659 78.6854 494.299C79.7651 491.46 80.2833 488.672 80.6578 485.692C81.2316 481.125 81.4867 476.512 81.7082 471.913L81.8596 468.732C82.7843 449.512 82.7519 430.201 81.2549 411.001L81.1455 409.63C79.6631 391.481 77.091 371.872 65.728 356.322ZM123.518 241.937C124.227 241.675 123.979 240.712 123.194 240.879L121.768 241.186C111.319 243.438 101.059 245.879 91.3052 250.07C81.5455 254.264 73.2826 260.525 66.7172 268.224C53.9543 283.189 48.6506 301.377 44.4636 319.547C39.8106 339.738 35.5741 360.002 30.8806 380.187L30.009 383.947C25.666 402.746 21.5656 421.556 18.5443 440.578L18.3273 441.958C15.2805 461.519 13.4479 481.757 16.7724 501.369C17.4301 505.249 24.6047 504.283 24.3241 500.449C23.5139 489.367 22.9338 478.343 23.4944 467.236C24.0555 456.127 25.2133 445.066 26.9392 434.055C28.3916 424.787 30.5567 415.636 32.4727 406.442L32.773 404.99C34.3774 397.171 36.0313 389.359 37.6817 381.547L40.1479 369.85C43.8442 352.337 47.6129 334.808 51.8713 317.404L52.124 316.38C56.2914 299.636 62.4352 282.097 74.9355 268.801C87.6209 255.307 105.78 248.511 123.518 241.937ZM169.612 419.535C169.307 418.924 168.24 418.991 167.912 419.535C166.626 421.67 166.484 424.394 166.241 426.804L166.215 427.052C165.906 429.992 165.632 432.943 165.465 435.893C165.147 441.491 164.995 447.082 165.015 452.688C165.035 458.433 165.163 464.171 165.507 469.907L165.601 471.444C165.915 476.429 166.442 481.989 169.074 486.347C170.03 487.931 172.633 487.466 173.187 485.863C175.002 480.617 174.07 474.397 173.604 469.024L173.243 464.832C172.885 460.639 172.543 456.444 172.272 452.246C171.901 446.503 171.595 440.755 171.301 435.009C171.205 433.142 171.102 431.275 170.992 429.409L170.824 426.61C170.681 424.269 170.693 421.7 169.612 419.535ZM373.732 426.97L372.929 426.272C370.462 424.099 367.344 420.753 363.697 420.96C362.243 421.043 361.316 422.13 361.617 423.417C362.262 426.17 365.382 427.598 367.628 429.279C370.088 431.119 372.407 433.087 374.722 435.073C376.775 436.834 378.75 438.645 380.677 440.513L381.398 441.216C382.089 441.894 387.008 445.899 386.476 446.938L386.447 446.985C386.299 447.183 386.546 447.457 386.792 447.387C388.916 446.783 388.783 445.145 387.98 443.484C386.437 440.294 383.734 437.343 381.374 434.619C379.021 431.901 376.473 429.37 373.732 426.97ZM161.914 346.968C163.557 343.474 169.609 343.547 173.045 343.756C181.696 344.282 191.058 346.252 198.756 349.892C206.737 353.665 212.113 359.71 216.923 366.395L217.148 366.709C221.837 373.268 226.353 381.032 233.694 385.542C237.434 387.839 241.8 389.937 246.337 390.846C246.649 391.339 247.153 391.729 247.815 391.871L248.122 391.934C249.415 392.191 251.422 392.475 253.156 392.305C253.145 393.068 253.154 393.826 253.132 394.549C253.071 396.622 253.045 398.703 253.045 400.777C253.044 405.123 253.304 409.477 253.102 413.822C252.924 417.665 252.32 421.68 250.27 425.116C248.766 427.636 246.781 429.304 244.385 430.897C238.491 427.664 231.826 425.693 225.061 424.212C216.88 422.42 208.504 421.224 200.509 418.795C196.661 417.625 192.962 416.094 189.61 414.015C186.053 411.808 183.336 408.821 180.54 405.899L180.103 405.446C177.25 402.501 174.137 399.683 170.105 398.087C166.633 396.711 162.056 396.466 159.02 394.338C157.432 393.225 157.299 391.609 157.132 389.955C159.077 390.205 161.135 389.804 163.073 389.6L164.077 389.493C165.91 389.298 167.7 389.082 169.504 388.662C169.839 388.585 169.839 388.13 169.504 388.052C167.372 387.557 165.259 387.346 163.073 387.115L162.56 387.057C160.582 386.824 158.504 386.472 156.564 386.864C156.216 385.672 155.713 384.534 155.008 383.394C154.018 381.793 152.145 379.978 151.892 378.108C151.817 377.55 151.961 376.891 152.254 376.397L152.355 376.229C152.478 376.03 152.623 375.831 152.836 375.707C152.86 375.731 152.91 375.76 153.019 375.79C154.511 376.213 155.814 375.556 156.505 374.542C159.439 374.87 162.641 374.76 165.393 374.869L168.175 374.99C171.148 375.113 174.255 375.167 177.049 374.626C177.439 374.551 177.557 373.967 177.166 373.816C173.732 372.494 169.566 372.073 165.889 371.565C163.836 371.281 161.767 371.065 159.708 370.815C158.337 370.649 156.881 370.374 155.461 370.308C151.898 366.317 153.818 360.021 158.775 358.303C160.581 359.017 162.205 358.602 164.178 358.449C166.147 358.297 168.122 358.194 170.099 358.201C174.062 358.217 178.261 359.155 182.185 358.751C182.823 358.685 183.416 357.921 182.781 357.455C179.778 355.249 175.473 354.53 171.66 354.06L170.87 353.964C169.592 353.814 168.037 353.594 166.425 353.463C166.06 352.823 165.406 352.339 164.424 352.219C164.132 352.183 163.838 352.161 163.545 352.139L163.549 352.113C161.153 352.009 161.257 348.366 161.914 346.968ZM325.985 415.121C326.028 415.18 326.074 415.236 326.123 415.29L326.2 415.369L325.805 415.225L325.985 415.121ZM120.094 339.16C130.181 338.185 140.283 338.391 150.4 338.652C151.209 341.034 154.026 343.064 156.755 343.141C154.617 346.068 154.397 350.031 155.896 353.136C152.713 354.276 149.972 356.324 148.307 359.24C145.999 363.283 146.301 367.782 148.583 371.519C146.636 373.105 145.487 375.681 145.602 378.108C145.73 380.815 147.523 383.128 149.013 385.369C150.623 387.793 150.677 389.928 151.172 392.642C151.895 396.616 154.873 399.025 158.704 400.53L158.501 401.251C157.513 404.712 156.284 408.363 153.461 410.893C149.829 414.148 144.195 414.118 139.396 414.324L139.165 414.334C134.771 414.532 130.379 414.764 125.987 414.988L122.693 415.153C117.636 415.404 112.779 415.434 108.651 412.425C101.91 407.514 97.2899 399.386 94.3653 392.191C88.2269 377.088 88.1534 360.514 90.971 344.785C100.421 342.044 110.225 340.114 120.094 339.16ZM203.982 364.216L203.908 364.221C201.831 364.435 200.404 365.948 199.896 367.744C199.158 370.353 199.52 372.712 197.744 375.068C195.917 377.49 194.794 379.43 194.528 382.422C194.419 383.654 194.469 384.882 194.165 386.087L193.944 386.932C193.709 387.832 193.517 388.699 193.634 389.666C193.74 390.548 194.218 391.235 195.2 391.517C198.402 392.439 200.875 390.316 201.702 387.63C202.417 385.31 201.463 382.546 202.471 380.368C203.03 379.16 204.06 378.15 204.642 376.935C205.219 375.73 205.508 374.471 205.601 373.161C205.776 370.684 203.342 367.708 204.7 365.463C204.989 364.984 204.662 364.202 203.982 364.216ZM246.518 338.653C244.349 338.257 241.889 337.348 239.751 338.103C238.652 338.492 238.108 339.698 239.037 340.537C240.65 341.991 242.993 342.072 245.165 342.415L245.356 342.446C247.924 342.874 250.497 343.279 253.073 343.664C257.919 344.386 262.777 345.025 267.653 345.568C272.66 346.125 277.681 346.622 282.709 346.995L284.656 347.139C288.903 347.445 293.322 347.675 297.49 347.09C298.095 347.005 297.998 346.211 297.49 346.072C292.924 344.829 287.916 344.495 283.196 343.969C278.178 343.409 273.168 342.817 268.172 342.115C263.183 341.413 258.201 340.661 253.237 339.829C250.994 339.454 248.754 339.062 246.518 338.653ZM168.273 334.66C170.176 334.054 172.269 333.156 174.331 333.456C177.887 333.975 181.052 337.093 183.866 339.146L182.453 338.899C175.222 337.648 165.646 336.3 159.575 340.438C159.56 340.414 159.548 340.39 159.53 340.366C159.04 339.697 158.473 339.174 157.853 338.601C157.794 338.551 157.737 338.499 157.68 338.446L157.346 338.126L158.111 337.887C159.748 337.367 161.689 336.694 161.995 336.596L162.017 336.589C164.105 335.952 166.195 335.323 168.273 334.66ZM227.687 198.254C227.985 194.81 222.028 194.838 221.733 198.254C221.089 205.712 222.954 213.099 226.968 219.637C226.998 219.685 227.03 219.727 227.061 219.772C224.55 220.948 222.011 222.076 219.416 223.084C216.096 224.374 212.713 225.549 209.27 226.545C206.155 227.447 202.317 227.803 199.699 229.68C194.177 233.637 196.252 241.849 197.314 247.172L197.48 248.012C198.008 250.751 198.391 253.562 197.108 256.191C195.737 258.999 192.966 261.082 190.494 263.091L189.995 263.498C187.805 265.294 185.303 267.475 183.696 269.909C182.23 267.181 180.231 264.951 178.118 262.441C176.61 260.65 177.683 260.059 178.766 258.31C179.809 256.625 180.318 254.83 179.992 252.909C179.39 249.36 176.239 246.797 173.102 244.871C169.398 242.598 165.264 240.914 161.434 238.799C153.565 234.454 145.902 229.486 138.998 223.968C138.808 223.816 138.478 224.016 138.63 224.224C144.084 231.689 150.479 238.14 158.338 243.616C161.525 245.836 164.873 247.678 168.243 249.614L169.212 250.173C170.565 250.962 172.253 252.017 172.864 253.36C173.48 254.71 172.167 255.73 171.461 256.849C169.217 260.402 170.299 263.717 172.959 266.731L173.083 266.87C175.727 269.801 177.73 272.528 178.689 276.273C180.748 284.319 177.88 292.7 174.878 300.254L174.759 300.551C173.135 304.623 171.409 308.664 169.999 312.801L169.61 313.945C168.332 317.751 167.285 321.505 168.719 325.417C169.207 326.748 171.224 327.063 172.062 325.81C175.017 321.393 175.753 316.078 177.606 311.222C179.411 306.489 181.484 301.841 183.228 297.089C185.474 290.97 186.976 284.384 186.161 277.966C186.185 277.928 186.211 277.893 186.231 277.854L186.803 276.728C188.362 273.681 189.867 271.021 192.702 268.592C195.658 266.058 198.868 263.816 201.194 260.749C206.248 254.087 203.122 246.677 202.512 239.393L202.442 238.5C202.331 236.987 202.27 234.932 203.368 233.885C204.603 232.707 207.499 232.406 209.137 231.885C213.371 230.536 217.543 228.965 221.517 227.078C225.3 225.283 228.964 223.299 232.376 220.975L234.106 219.804C236.834 217.951 239.663 215.928 241.492 213.406C241.703 213.116 241.344 212.647 240.962 212.786C237.909 213.901 235.12 215.674 232.264 217.217C232.22 217.123 232.168 217.028 232.11 216.933C228.576 211.177 227.123 204.801 227.687 198.254ZM130.174 237.688C128.957 234.686 123.414 234.918 123.635 238.484C123.805 241.224 125.097 243.697 126.279 246.185L126.405 246.452C127.625 249.044 129.035 251.477 130.721 253.853C133.943 258.394 137.718 262.608 141.749 266.586C145.404 270.192 150.201 272.397 155.729 272.03C158.058 271.876 160.409 271.342 162.45 270.296C164.874 269.052 167.506 265.316 170.599 266.221C170.898 266.308 171.177 265.914 170.919 265.727C167.348 263.14 163.296 267.152 159.878 268.119C154.727 269.575 149.441 267.965 146.126 264.217C142.665 260.305 139.479 255.924 136.57 251.664C135.093 249.501 133.745 247.256 132.581 244.942C131.406 242.607 131.139 240.069 130.174 237.688ZM138.476 219.216C138.626 218.801 138.054 218.407 137.649 218.644C135.303 220.018 133.27 221.834 131.106 223.426C128.705 225.192 126.287 226.922 123.831 228.626C120.25 231.11 124.403 235.682 127.555 232.969C131.868 229.257 136.591 224.404 138.476 219.216ZM151.356 204.687C150.403 201.38 144.766 202.744 145.588 206.013L145.615 206.112C147.171 211.512 144.955 217.009 140.224 220.509L140.05 220.636C137.057 222.792 141.297 226.56 144.26 224.425C150.729 219.766 153.42 211.851 151.356 204.687Z" fill="black"/>
<path fill-rule="evenodd" clip-rule="evenodd" d="M102.928 50.9656C104.036 48.4429 105.996 45.2722 109.273 45.1457C111.807 38.1583 118.108 31.0422 126.872 31.2312C152.598 7.50599 184.985 8.62442 218.846 13.6468C236.71 16.6348 254.849 22.4858 268.173 34.032C284.131 47.6252 290.345 71.3436 277.848 88.5324C288.649 93.7519 288.858 106.138 284.239 115.076C289.791 118.538 290.129 126.942 283.877 129.583C284.209 130.811 283.974 132.08 283.341 133.171C286.44 135.498 290.475 137.217 293.81 138.695C295.284 139.348 296.134 140.414 296.488 141.616C307.439 148.096 334.746 163.93 334.421 176.533C334.582 183.107 329.174 187.434 322.602 189.157C326.513 196.207 329.48 204.441 325.737 212.045C324.703 214.343 316.951 221.096 316.561 221.22C315.879 221.748 304.759 217.143 299.354 214.795C298.306 220.943 291.016 224.164 284.732 222.057C278.774 220.438 275.112 215.889 271.354 211.751C266.366 221.564 251.69 221.677 242.205 217.446C233.686 213.897 227.211 207.393 223.604 199.555C204.449 208.011 182.038 210.476 161.228 207.098C159.892 209.23 156.936 210.661 154.302 209.837C143.236 206.837 131.001 206.668 121.62 199.794C102.068 187.138 100.421 163.804 101.785 143.914C102.994 124.082 101.936 104.086 105.933 84.4683C104.198 78.6925 101.313 73.5864 98.6428 68.1603C95.7423 62.4704 95.8031 54.0122 102.928 50.9656Z" fill="#D08B5B"/>
<path fill-rule="evenodd" clip-rule="evenodd" d="M191.694 11.6011L190.934 11.6038C189.678 11.6112 188.423 11.6336 187.172 11.6708C180.559 11.8671 173.663 12.6407 165.899 13.9649L164.718 14.1695C162.787 14.5104 161.057 14.8526 158.298 15.4339L152.822 16.5977C150.033 17.1837 147.981 17.5891 146.088 17.9152L145.84 17.9575C136.111 22.1629 129.675 25.649 126.533 28.4158L126.063 28.8331L125.863 29.0136L123.814 29.0719L123.794 29.3052L123.776 29.3076C121.742 29.593 119.901 30.5434 118.19 32.0229L118.007 32.1834L117.831 32.3424C116.497 33.5656 115.434 34.8691 113.969 36.9349L113.637 37.4069L113.041 38.2591L112.559 38.9434C112.245 39.391 111.944 39.8338 111.655 40.2725L111.37 40.7099L111.165 41.0314L105.874 43.8147C105.112 44.2157 104.418 44.7347 103.783 45.3563L103.612 45.5283L103.443 45.7054L102.001 47.2523L102.292 47.5251L102.151 47.6918L101.9 48.0027L101.654 48.3178L101.415 48.637L101.312 48.7773L101.157 49.0802L101.081 49.2315L101.021 49.356L100.84 49.4398L100.473 50.0379C98.5653 53.1414 97.5381 56.666 97.4685 60.2879C97.4205 62.7861 97.7623 65.055 98.5736 67.2437C99.135 68.757 99.8873 69.9462 101.188 71.5835L102.216 72.8548L102.426 73.1171L102.676 73.4363C102.716 73.4875 102.755 73.5379 102.793 73.5879C104.465 75.7709 118.749 79.903 127.528 80.1028L127.793 80.1076L128.13 80.1106C128.968 80.1139 129.778 80.0868 130.558 80.028C133.935 79.7733 137.093 79.1324 140.761 78.0843L141.522 77.8625L145.564 76.6381C145.692 76.5997 145.796 76.569 145.868 76.5484L146.237 76.4443C147.127 76.1981 147.774 76.0566 148.215 76.0053L148.305 75.9955L148.314 76.1462L148.317 76.2883L148.316 76.4039C148.29 78.0814 149.42 79.3043 151.172 80.0835C152.288 80.5798 153.726 80.9342 155.531 81.2002L155.819 81.2415C158.769 81.6525 162.287 81.828 168.172 81.9483C168.396 81.9529 168.622 81.9503 168.85 81.9409C170.113 81.8888 171.106 81.6945 172.952 81.2166L173.825 80.9907L174.298 80.8728C175.176 80.6589 175.665 80.5735 176.127 80.5502L176.261 80.5451L176.395 80.5431C176.949 80.5424 177.35 80.6538 177.745 80.9252L177.947 81.0708L180.66 83.1207C181.013 83.3859 181.33 83.6211 181.562 83.7879L181.656 83.8551C185.38 86.4882 188.931 87.9924 193.113 88.1354L193.393 88.143L193.685 88.1459C193.897 88.1463 194.11 88.1428 194.324 88.1355C196.086 88.075 197.914 87.4862 200.411 86.3508L200.928 86.1121L201.29 85.9417C201.475 85.854 201.668 85.7617 201.877 85.6608L203.74 84.762L204.692 84.3135C205.829 83.7861 206.463 83.5315 206.89 83.4266L206.96 83.41L207 83.4447C207.988 84.3146 208.835 85.4093 209.747 86.9205L209.885 87.1503L210.084 87.4928L211.38 89.8189L211.625 90.2516C212.587 91.9306 213.348 93.0037 214.343 93.9452C215.788 95.3116 217.539 96.1044 219.683 96.2317L219.898 96.2422L220.154 96.2478C221.164 96.2567 222.234 96.1169 223.394 95.8263L223.664 95.7565L223.926 95.6839C225.655 95.1916 228.387 95.4981 230.557 96.5368C232.914 97.665 234.212 99.3863 234.155 101.586C234.126 102.679 233.987 103.85 233.742 105.12L233.672 105.469C233.351 107.038 232.915 108.613 232.243 110.713L230.798 115.107L230.635 115.62L230.472 116.148C230.237 116.916 230.05 117.586 229.896 118.216C229.307 120.626 229.208 122.436 229.799 123.978C232.405 130.777 236.926 134.388 242.072 134.541L242.25 134.545L242.47 134.545C246.424 134.507 250.007 132.183 249.963 129.173C249.959 128.858 249.893 128.564 249.777 128.298L249.724 128.186L249.699 128.138L249.739 128.048C250.955 125.425 253.765 123.51 257.065 123.134L257.252 123.115L257.437 123.099C257.618 123.085 257.799 123.075 257.97 123.07L258.138 123.066L258.339 123.064C262.737 123.07 267.089 125.711 270.512 130.03C271.226 130.931 271.889 131.914 272.484 132.953L272.68 133.301L273.632 135.057L274.275 136.756C277.817 146.108 276.024 155.894 269.109 160.953L268.898 161.105C266.407 162.867 263.477 163.938 260.35 164.226C259.99 164.259 259.628 164.28 259.279 164.288L259.02 164.292L258.723 164.292C257.704 164.28 256.729 164.165 255.854 163.952C255.14 163.778 254.643 163.567 254.297 163.298C254.206 163.228 254.133 163.164 254.069 163.1L254.016 163.043L253.996 163.018L249.271 163.65C248.467 168.252 246.145 173.02 242.367 178.488L242.129 178.83L241.714 179.42L241.292 180.01C236.847 186.175 231.89 191.367 226.441 195.351L226.061 195.627L225.55 195.992L225.081 196.323C224.171 196.96 223.412 197.456 222.653 197.899L222.463 198.008L220.671 199.032L221.503 200.792C223.444 204.898 226.122 208.63 229.424 211.808L229.735 212.105L232.03 214.239L233.794 212.212C233.808 212.197 233.847 212.178 233.894 212.17L233.926 212.166H233.944L233.968 212.169L233.997 212.175L234.025 212.187C235.346 212.833 236.072 213.327 237.114 214.293L237.266 214.434L237.442 214.602L237.684 214.829C238.767 215.83 239.925 216.683 241.186 217.392C244.1 219.03 247.334 219.94 250.683 220.022L250.998 220.027L251.314 220.027C251.428 220.026 251.541 220.024 251.655 220.022C258.643 219.847 264.904 215.81 267.982 209.893C268.104 209.658 268.216 209.581 268.423 209.566L268.482 209.563L268.556 209.562C269.069 209.565 269.698 209.841 270.049 210.211L270.111 210.281L271.29 211.709L271.741 212.247C275.943 217.223 279.393 219.944 284.027 220.77C284.392 220.835 284.778 220.875 285.188 220.891L285.436 220.901H285.582C287.575 220.905 289.871 220.385 291.661 219.468C294.029 218.255 295.493 216.39 295.307 214.078L295.293 213.93L295.261 213.683C295.106 212.449 296.201 211.778 297.039 212.384L297.096 212.427L297.165 212.484C300.618 215.404 304.589 217.644 308.865 219.027L309.244 219.147L309.806 219.32C312.503 220.14 314.405 220.547 316.407 220.579C318.141 220.606 319.582 220.042 320.624 218.959C321.319 218.236 321.744 217.432 322.168 216.26L322.239 216.061L322.394 215.605L322.49 215.309C323.731 211.371 323.758 207.161 322.783 202.516C322.056 199.046 320.897 195.693 318.949 190.995L318.571 190.089L317.791 188.241C317.712 188.056 318.181 187.408 318.471 187.336L318.505 187.33L318.77 187.355C318.956 187.371 319.143 187.382 319.334 187.389L319.626 187.395H319.817C326.145 187.337 330.978 181.741 330.935 175.813C330.885 170.26 327.788 165.485 321.875 159.817L321.362 159.329L320.806 158.81L320.257 158.303C315.003 153.479 309.632 149.267 304.039 145.656L303.576 145.358L303.06 145.03C301.177 143.838 299.345 142.758 296.811 141.337L295.319 140.506L289.273 134.072C289.128 133.998 288.985 133.924 288.844 133.85L288.768 131.618L282.942 131.726C284.42 131.042 285.645 130.212 286.64 129.149C289.946 125.613 289.531 120.701 285.511 118.288L285.369 118.205L283.675 117.261L282.288 118.358C281.08 119.314 279.799 119.947 278.463 120.24L278.251 120.283L277.206 120.483L277.002 120.78L276.885 120.626C276.885 120.611 276.889 120.596 276.894 120.581L276.905 120.559L276.927 120.528L277.058 120.382L277.204 120.226C277.669 119.732 278.191 119.254 279.139 118.431L279.804 117.854L280.322 117.4C281.68 116.197 282.404 115.451 283.173 114.416C285.087 111.84 286.168 108.936 286.213 105.987C286.307 99.8534 282.077 94.0545 275.809 91.4078C275.589 91.3152 275.427 90.6564 275.691 90.221C281.76 80.1778 283.444 68.1391 280.395 56.9402C277.551 46.4916 270.473 37.269 260.341 30.2043C242.946 18.0756 218.817 11.8212 193.215 11.6058L192.439 11.6011H191.694Z" fill="#ECDCBF"/>
<path fill-rule="evenodd" clip-rule="evenodd" d="M284.714 135.144C283.561 134.883 282.943 136.28 283.921 136.841C290.131 140.403 296.546 143.585 302.546 147.461C308.252 151.146 313.522 155.343 318.436 159.856L318.981 160.358C323.424 164.481 328.345 169.725 328.395 175.806C328.433 180.532 324.392 185.692 318.754 185.071C316.63 184.837 314.678 187.267 315.419 189.019L316.199 190.866C319.336 198.339 322.527 206.807 320.05 214.67L319.959 214.95C319.359 216.75 318.727 218.341 316.41 218.305C314.26 218.271 312.022 217.617 310.009 216.993C305.831 215.697 302.045 213.536 298.832 210.819C295.99 208.415 292.358 210.857 292.741 213.912L292.755 214.009C293.278 217.437 287.223 219.029 284.47 218.539C279.035 217.569 275.16 212.658 272.073 208.914C270.589 207.115 266.986 206.406 265.682 208.914C263.099 213.88 257.775 217.592 251.546 217.748C248.31 217.829 245.206 216.998 242.466 215.458C241.347 214.829 240.347 214.081 239.43 213.234L239.202 213.02C237.845 211.722 236.908 211.032 235.174 210.185C233.466 209.35 231.256 210.385 231.267 212.206C231.281 214.566 232.047 216.134 233.851 217.845C235.344 219.263 237.118 220.507 238.982 221.501C242.729 223.497 247.184 224.621 251.546 224.491C258.422 224.286 264.985 221.195 269.239 216.388C273.583 221.072 278.972 225.376 285.974 225.26C291.216 225.174 296.101 222.713 298.442 218.9C301.746 220.954 305.373 222.56 309.252 223.61L309.598 223.702C315.09 225.143 321.409 225.716 324.944 220.799C328.263 216.183 328.511 209.791 327.75 204.515C327.071 199.802 325.463 195.326 323.616 190.911C328.872 189.495 332.952 185.043 334.353 180.243C336.473 172.985 332.361 165.946 327.276 160.554C321.753 154.696 314.802 149.741 307.799 145.404C300.814 141.079 292.989 137.015 284.714 135.144ZM105.118 78.3754C105.105 78.1737 104.739 78.1031 104.705 78.3245C102.292 94.1122 100.895 109.868 99.7391 125.764C99.1527 133.817 98.487 141.862 97.7583 149.906C97.0592 157.619 95.8954 165.537 96.1584 173.281C96.5701 185.408 103.1 195.268 113.807 202.364C124.066 209.164 136.793 212.526 149.28 213.947C156.531 214.772 163.884 214.811 171.144 214.036C174.914 213.634 178.68 213.098 182.373 212.293L183.97 211.933C186.878 211.263 190.125 210.354 190.54 207.247C190.741 205.743 189.855 204.633 188.424 203.878C186.558 202.893 184.418 203.473 182.495 203.921C179.255 204.677 175.98 205.326 172.668 205.775C165.555 206.74 158.243 206.797 151.094 206.129C139.067 205.005 126.381 201.487 117.109 194.222C113.079 191.065 109.575 187.219 107.732 182.649C105.362 176.773 105.713 170.364 105.793 164.211C105.977 149.906 105.815 135.6 106.035 121.293C106.257 106.942 106.064 92.7048 105.118 78.3754ZM226.057 11.5192C212.004 8.25081 197.742 7.40152 183.308 8.38538C169.695 9.31253 154.188 12.0593 143.07 19.6102C142.53 19.9766 142.853 20.6702 143.521 20.5743C150.954 19.5058 158.199 17.5624 165.6 16.2765C172.719 15.0397 179.966 14.1112 187.214 13.8961C211.729 13.1674 239.007 18.1772 258.774 31.9607C268.043 38.4233 275.117 47.1134 277.932 57.4529C280.819 68.058 279.257 79.5268 273.46 89.1202C272.625 90.5014 272.969 92.6866 274.711 93.422C279.996 95.6535 283.76 100.597 283.678 105.932C283.639 108.519 282.65 111.001 281.06 113.139C279.379 115.401 276.821 116.983 274.941 119.096C274.201 119.927 274.172 121.073 274.759 121.839C273.659 122.273 272.473 122.506 271.391 123.019C270.474 123.455 270.448 124.813 271.391 125.242C273.777 126.325 276.356 125.175 277.966 123.428C278.253 123.117 278.502 122.792 278.729 122.461C280.657 122.092 282.385 121.219 283.893 120.026C286.768 121.578 287.162 125.034 284.692 127.674C283.431 129.022 281.64 129.855 279.829 130.453L279.611 130.523C277.849 131.088 276.235 131.403 275.09 132.674C274.335 131.255 273.469 129.917 272.502 128.697C268.989 124.266 263.59 120.334 257.182 120.833C252.163 121.223 247.815 124.464 246.786 128.935C246.711 129.265 247.263 129.524 247.428 129.179C249.836 124.115 257.455 123.929 261.994 126.568C267.331 129.671 270.248 135.52 271.418 140.967C272.57 146.333 271.904 152.859 267.451 156.941C265.629 158.611 263.15 159.766 260.563 160.07C259.299 160.219 258.183 160.072 256.974 159.853L256.172 159.702C255.616 159.598 255.064 159.514 254.48 159.561L253.612 159.666L253.118 159.874C252.69 160.048 252.728 160 253.234 159.731C251.758 159.623 250.994 160.606 250.914 161.685C250.867 161.712 250.821 161.741 250.783 161.783C245.181 167.966 241.021 175.074 235.076 181.054L233.336 182.806C228.861 187.295 223.754 192.161 217.676 194.489L216.952 194.759C215.184 195.433 213.408 196.355 213.183 198.277C212.981 199.999 214.486 201.295 216.221 201.697C220.173 202.611 224.677 199.444 227.571 197.366C233.794 192.899 239.025 187.204 243.344 181.213L243.771 180.616C247.322 175.615 250.659 169.912 251.696 163.977L251.883 164.25C251.897 164.269 251.908 164.284 251.915 164.293C252.126 164.552 252.359 164.771 252.63 164.981C253.356 165.546 254.243 165.877 255.164 166.101C256.892 166.522 258.787 166.605 260.563 166.441C264.172 166.108 267.545 164.869 270.398 162.852C279.083 156.709 280.109 145.278 276.596 136.004C279.479 136.625 282.762 134.876 285.013 133.376C287.594 131.656 289.722 129.173 290.231 126.252C290.736 123.354 288.687 119.515 285.648 118.397C288.801 114.982 290.637 110.136 290.827 106.256C291.156 99.507 287.18 93.1276 281.076 89.4451C286.816 78.3503 287.922 65.4787 284.057 53.6984C276.387 30.322 250.694 17.2496 226.057 11.5192ZM247.926 189.129L247.854 188.924C247.242 187.116 246.453 183.52 243.458 184.889C240.597 186.196 242.424 190.067 243.424 191.951C244.621 194.205 246.689 196.013 249.466 196.497C251.724 196.891 254.205 196.385 255.785 194.811C256.245 194.352 256.505 193.849 256.778 193.294C256.885 193.078 256.933 192.93 256.953 192.833C256.979 192.939 257.052 193.097 257.241 193.282C258.502 194.524 259.692 195.97 260.607 197.44C260.824 197.787 261.506 197.544 261.334 197.163C260.268 194.813 260.447 191.179 258.072 189.479C255.979 187.98 254.012 189.16 252.905 190.905L252.848 190.996C251.23 193.646 248.651 191.129 247.926 189.129ZM270.697 180.637L270.479 180.363C268.24 177.604 264.465 174.286 260.688 176.852C259.487 177.668 259.442 179.029 260.688 179.839L261.159 180.143C262.81 181.198 264.453 182.194 265.665 183.707C266.982 185.352 268.164 187.094 269.935 188.384C273.067 190.666 278.128 191.116 280.845 188.04L281.112 187.735C281.34 187.471 281.6 187.153 281.812 186.836L281.977 187.042C281.993 187.062 282.008 187.082 282.022 187.101L282.06 187.153C283.177 188.762 284.588 190.088 286.345 191.134C289.685 193.121 293.448 193.397 297.227 192.345C297.596 192.242 297.497 191.795 297.139 191.765C292.662 191.388 288.3 188.52 286.479 184.826L286.273 184.411C285.536 182.942 284.711 181.546 282.89 180.969C281.118 180.407 279.258 181 278.042 182.209C277.026 183.22 276.765 185.228 274.932 184.785C272.924 184.3 271.795 182.033 270.697 180.637ZM283.52 156.098C282.529 155.418 280.976 156.147 280.703 157.132C279.466 161.59 284.604 166.844 289.542 166.982C290.813 167.017 292.035 166.74 293.161 166.209C294.035 165.798 295.068 164.747 296.027 164.572C297.265 164.348 298.362 165.835 299.234 166.598C300.315 167.546 301.385 168.425 302.597 169.233C303.081 169.555 303.832 169.013 303.628 168.518L303.218 167.533C301.734 164.026 299.179 158.906 294.396 160.362C292.053 161.074 290.29 163.479 287.822 161.575C285.847 160.051 285.662 157.565 283.52 156.098ZM262.421 138.149C257.963 133.534 247.483 135.972 245.496 141.586C245.057 142.826 245.515 144.438 246.589 145.316C248.004 146.472 250.022 146.822 251.74 145.915C253.218 145.135 253.825 143.859 254.911 142.764C256.505 141.159 258.672 140.268 260.905 139.63C261.464 139.895 261.983 140.243 262.449 140.662C262.688 140.877 263.139 140.583 262.927 140.33C262.64 139.986 262.288 139.662 261.888 139.364L262.081 139.313C262.669 139.165 262.796 138.538 262.421 138.149ZM233.447 87.1941C232.448 87.1955 231.284 88.0416 231.412 89.0295L231.45 89.3038C231.738 91.1846 232.408 92.2496 234.496 93.1234C236.267 93.8638 238.127 94.2729 240.069 94.4349C240.803 94.4961 241.581 94.4997 242.369 94.4471L242.535 95.3104C242.864 97.0371 243.169 98.765 243.227 100.525C243.333 103.787 241.983 106.476 240.536 109.389C237.756 114.984 237.444 120.57 240.47 126.157C240.912 126.974 242.166 127.64 243.177 127.557C244.488 127.45 245.121 127.108 245.884 126.157C246.524 125.358 246.378 124.23 245.934 123.395L245.884 123.303C244.359 120.639 243.878 117.629 244.657 114.701C245.388 111.949 247.046 109.475 247.786 106.732C248.992 102.263 247.708 97.8294 245.198 93.9952C247.092 93.5033 248.844 92.6265 250.013 91.2893L250.008 91.2875C250.454 90.8577 250.21 89.9598 249.427 90.0138L248.542 90.0783C246.009 90.2693 243.677 90.4679 241.116 89.8311C239.802 89.5043 238.669 88.9595 237.542 88.2999L237.3 88.1568C235.89 87.3116 235.108 87.1923 233.447 87.1941ZM227.385 54.1619C221.035 53.8365 215.613 57.6158 212.978 62.6467C210.115 68.1086 211.316 74.3756 213.843 79.7494L214.561 81.2534C215.818 83.8592 217.467 86.9581 220.041 88.3563C222.931 89.9271 225.43 88.1056 224.578 85.2103C224.07 83.486 222.695 82.1561 221.582 80.7329C220.544 79.4039 219.576 78.0284 218.726 76.5936C217.062 73.7797 215.82 70.6445 215.834 67.4206C215.857 61.5364 220.168 54.7929 227.385 54.8793C227.9 54.8847 227.892 54.1876 227.385 54.1619ZM195.269 44.6673C195.665 44.3964 195.311 43.7937 194.868 44.048C187.505 48.2715 182.007 56.205 180.9 63.9989C180.285 68.3232 180.754 72.9446 182.797 76.9354C183.968 79.2254 185.978 81.4114 188.789 82.0392C191.373 82.6158 194.036 81.2849 194.838 79.0102C195.149 78.1276 194.614 77.2045 193.806 76.7225C191.186 75.1603 189.077 73.189 187.842 70.5371C186.558 67.78 186.046 64.854 186.031 61.88C185.993 54.9151 189.075 48.9124 195.269 44.6673ZM105.319 47.686C105.659 47.3453 105.231 46.843 104.78 47.0564C99.4562 49.5813 96.0736 54.4178 95.1044 59.7147C94.1547 64.9005 95.4323 71.9603 99.8834 75.7108C102.395 77.8279 106.895 75.0123 104.807 72.2853C103.334 70.3621 101.743 68.7783 100.9 66.5059C100.148 64.4783 99.8824 62.4336 99.9233 60.3029C100.013 55.6546 101.854 51.1516 105.319 47.686ZM170.404 41.1922C161.309 40.8016 155.797 50.1654 154.534 57.1447C153.755 61.4568 154.341 65.8982 156.981 69.6383L157.137 69.856C159.315 72.8438 163.276 76.2838 167.543 74.8691C169.349 74.2709 169.83 72.526 168.616 71.2023C166.76 69.1761 163.89 68.3502 162.145 66.1867C160.186 63.7603 159.544 60.7205 159.658 57.7698L159.673 57.4439C159.977 52.0163 162.847 41.5988 170.404 41.7832C170.828 41.7931 170.823 41.2098 170.404 41.1922ZM141.955 39.6364C133.157 38.6224 127.8 47.956 126.148 54.3858C125.116 58.4054 124.89 62.8895 126.21 66.879L126.308 67.1632C127.383 70.1406 130.553 75.2422 134.691 73.7206C135.825 73.3038 136.983 72.1683 136.44 70.9441C135.746 69.3791 134.746 68.9732 133.412 67.9718C132.385 67.2008 131.668 66.094 131.14 65.004C129.734 62.0987 129.42 58.7047 129.613 55.574L129.639 55.2035C130.136 49.0884 133.813 39.9752 141.955 40.1428C142.327 40.1504 142.301 39.676 141.955 39.6364ZM125.849 30.8617C120.952 29.1802 116.941 33.4024 114.126 36.4156C110.6 40.1913 107.402 44.2586 105.594 48.9587C103.983 53.1467 103.7 57.8031 105.151 62.0662C105.869 64.1771 106.988 66.1345 108.515 67.8574L108.71 68.0747C110.299 69.8224 111.834 70.8964 114.437 70.2707C115.497 70.0155 115.944 69.0708 115.761 68.1679C115.369 66.2389 114.267 65.7379 112.839 64.3913C111.58 63.2036 110.645 61.7408 110.017 60.2029C108.722 57.0304 108.654 53.5931 109.524 50.3247C110.497 46.6657 112.413 43.2869 114.629 40.1207L115.107 39.4425C117.455 36.095 120.802 30.94 125.755 31.4832C126.18 31.53 126.185 30.9769 125.849 30.8617Z" fill="black"/>
<path fill-rule="evenodd" clip-rule="evenodd" d="M143.469 169.286C142.702 168.086 140.935 166.973 139.319 167.144C132.078 167.908 132.09 175.809 134.886 180.421C137.365 184.511 142.496 186.912 147.631 186.561C153.026 186.193 157.622 183.338 159.645 178.796C160.983 175.792 161.601 170.246 158.043 168.227C157.976 168.19 157.867 168.199 157.815 168.254C156.109 170.04 156.042 172.722 154.548 174.711C153.158 176.561 151 178.088 148.471 178.324C146.583 178.5 144.672 177.887 143.934 176.362C143.534 175.536 143.58 175.088 143.73 174.52L143.866 174.027C144.339 172.298 144.552 170.981 143.469 169.286ZM141.533 134.637C137.756 136.703 132.002 141.52 136.065 146.642C140.847 151.157 147.732 145.98 151.125 143.638C154.271 141.823 157.806 146.491 154.887 148.61C130.37 164.945 120.42 135.177 139.623 132.208C141.737 131.881 142.522 133.998 141.533 134.637ZM181.413 120.471C179.095 117.341 173.804 117.802 172.527 121.516C171.836 123.528 172.791 125.336 172.741 127.346C172.7 129.043 172.823 130.934 173.402 132.578C174.72 136.326 178.466 138.973 182.897 138.863C187.314 138.754 191.205 136.238 193.055 132.695C194.911 129.138 194.518 125.457 193.163 121.84C193.098 121.666 192.845 121.582 192.692 121.728C191.09 123.26 189.917 124.878 188.704 126.594L187.46 128.352C186.51 129.676 185.128 131.368 183.354 131.261L183.088 131.238C182.594 131.2 182.67 131.288 182.29 130.683C182.114 130.403 182.146 129.883 182.061 129.552L182.031 129.441L182.047 129.381C182.085 129.221 182.122 128.919 182.152 128.396L182.159 128.28C182.287 125.833 183.056 122.689 181.413 120.471ZM122.654 122.555C123.07 118.552 116.817 117.663 114.738 120.625C113.653 122.169 113.338 124.11 113.098 125.948L112.986 126.821C112.74 128.709 112.642 130.673 113.553 132.434C114.987 135.208 118.106 136.674 121.471 136.442C124.684 136.22 127.616 134.543 129.161 131.998C130.539 129.727 131.909 125.293 130.236 122.924C130.135 122.78 129.932 122.762 129.794 122.873C128.213 124.136 127.955 126.44 127.015 128.086C126.045 129.784 124.574 131.438 122.345 131.696C120.213 131.943 119.398 130.895 119.942 129.065C120.644 126.703 122.39 125.096 122.654 122.555ZM179.724 96.6727L178.702 96.3202C175.198 95.1291 170.387 93.7522 167.539 96.3163C165.781 97.8974 165.447 100.227 166.701 102.156C168.221 104.493 170.947 104.551 173.579 104.895C176.574 105.287 179.619 106.031 182.406 107.092C185.547 108.288 188.461 109.779 191.316 111.444C194.03 113.026 196.734 115.611 199.982 116.099C200.114 116.119 200.265 116.067 200.299 115.936C201.037 113.078 198.987 110.266 197.158 108.036C194.944 105.337 192.262 103.121 189.265 101.134C186.371 99.2166 183.066 97.8308 179.724 96.6727ZM116.076 106.834L115.764 106.785C113.639 106.466 111.714 106.54 110.112 108.054C108.89 109.209 108.419 110.707 109.002 112.234C109.539 113.644 110.742 115.075 112.487 115.37C118.377 116.368 124.902 116.203 130.823 115.448C133.531 115.102 136.264 114.679 138.903 114.012L140.117 113.695C142.319 113.129 144.841 112.538 146.441 111.08C147.016 110.556 146.684 109.806 145.996 109.564C143.204 108.58 139.378 109.103 136.401 109.026C132.939 108.937 129.47 108.703 126.024 108.382C122.656 108.067 119.398 107.382 116.076 106.834Z" fill="black"/>
<path fill-rule="evenodd" clip-rule="evenodd" d="M97.7967 136.759C102.388 141.921 120.36 147.65 129.925 141.43C139.491 135.21 143.271 130.876 144.549 123.104C144.686 122.275 146.351 121.724 147.055 122.312C150.996 125.607 153.547 129.803 156.075 134.01C158.926 138.755 161.734 143.529 166.915 146.741C176.091 151.167 192.692 151.798 197.596 149.845C206.991 146.105 214.423 138.105 216.113 127.096C217.259 123.841 218.334 121.871 219.338 121.186C220.766 120.212 228.644 119.344 229.507 119.2C245.06 116.603 264.731 114.947 278.583 124.084C280.458 125.104 286.876 128.935 286.972 127.993C287.038 124.303 282.391 115.951 271.823 111.976C258.754 107.062 239.327 106.774 228.072 107.859C227.506 107.913 225.577 107.487 225.441 107.434C208.39 100.79 188.771 102.555 170.527 105.347C167.913 105.803 144.509 111.019 135.2 107.859C119.808 102.204 103.398 98.1075 86.777 99.7192C86.638 99.7327 84.5397 111.194 86.1742 111.976C87.475 112.599 89.6884 114.193 90.4747 115.066C91.1776 115.846 91.6206 116.816 91.5813 118.159C91.2652 125.932 93.7295 132.186 97.7967 136.759ZM161.08 129.823C159.129 127.283 158.513 121.575 159.33 117.412C159.744 115.303 160.547 113.625 161.555 112.79C162.225 112.235 162.99 111.973 163.824 112.012C164.281 112.033 164.776 112.15 165.3 112.405C172.399 108.949 180.998 107.705 189.149 108.063C195.638 108.062 200.267 109.44 203.407 111.586C207.185 114.168 208.887 117.879 208.985 121.904C209.102 126.68 206.922 131.905 203.346 136.039C199.923 139.996 195.24 142.93 190.161 143.607C184.394 144.637 178.517 143.64 173.408 141.203C168.168 138.702 163.741 134.686 161.08 129.823ZM104.178 132.518C100.889 129.02 98.702 124.47 98.3691 119.961C98.0662 115.858 99.2871 111.794 102.663 108.435C105.723 106.071 111.131 106.032 116.819 107.348C124.175 109.05 131.784 112.854 134.321 115.311C134.919 115.593 135.473 116.084 135.956 117.137L135.96 117.513C136.728 120.702 136.272 123.939 134.943 126.924C133.499 130.168 131.023 133.112 128.003 135.359C123.991 138.333 119.803 139.243 115.884 138.763C111.444 138.219 107.315 135.854 104.178 132.518Z" fill="white"/>
<path fill-rule="evenodd" clip-rule="evenodd" d="M135.729 106.595C120.143 100.869 103.483 96.7411 86.616 98.3767C85.2212 97.8991 83.4898 98.3015 82.8717 100.077C76.8638 116.547 90.2613 111.967 90.0813 118.124C88.677 152.646 140.236 158.541 146.033 123.301L146.14 123.358C154.481 130.363 156.238 141.761 166.063 147.852C185.884 160.898 213.982 150.562 217.591 127.338L217.669 127.024C218.881 122.284 220.329 121.109 226.304 121.132L227.247 120.964C242.77 118.211 263.442 115.738 277.739 125.203C280.849 126.831 280.995 131.015 283.622 132.833C286.501 133.336 288.274 130.22 288.47 128.064C288.926 106.567 246.181 105.02 227.038 106.865C226.672 106.524 225.891 106.567 225.628 106.991C208.315 100.245 188.811 101.179 170.273 104.016C158.79 106.016 147.449 110.573 135.729 106.595ZM88.1679 102.345C97.5205 101.925 106.171 102.385 115.351 104.408C120.19 105.459 123.902 106.787 128.533 108.384C157.419 119.901 160.751 99.4294 225.499 107.454C224.662 110.683 224.508 113.88 224.463 116.913C211.242 116.434 214.355 127.795 209.402 135.774L209.249 136.015C202.031 147.658 184.997 153.088 171.256 145.366C159.792 139.353 158.674 124.102 147.261 118.049C137.367 117.699 141.319 129.716 135.935 134.655C128.356 143.756 112.247 145.029 102.744 136.468C98.2851 132.349 95.9156 127.119 95.7846 121.501C95.536 117.911 96.2202 114.263 93.2045 111.738C91.0905 109.805 87.3347 110.45 86.9036 107.529C86.6295 105.802 87.4277 103.928 88.1679 102.345ZM189.811 107.051C180.52 106.639 170.69 108.091 162.713 112.191C156.808 107.962 155.361 124.769 159.281 129.63C164.927 140.028 178.074 146.864 190.732 144.594C210.48 142.019 224.239 107.02 189.811 107.051ZM163.28 113.318L163.785 113.252C172.344 112.077 195.646 106.632 204.634 115.225C213.356 129.479 191.228 153.42 168.2 134.35C161.791 128.478 159.307 121.358 163.28 113.318ZM136.159 115.14C131.727 110.417 109.14 100.852 101.266 106.99C86.8966 121.483 109.685 150.798 128.773 136.515C135.13 131.741 139.312 124.135 137.482 116.77L137.479 116.461C137.475 116.349 137.452 116.375 137.319 116.235C137.083 115.678 136.659 115.323 136.159 115.14ZM101.467 123.924C96.6208 100.27 116.875 109.262 133.509 115.576C132.616 116.31 132.62 117.312 132.876 118.136C134.631 135.687 110.927 145.633 101.467 123.924ZM227.374 108.015C234.312 110.129 280.203 106.347 284.442 125.707C279.967 119.182 270.699 116.593 262.367 115.188C251.034 113.276 239.763 114.383 228.589 116.394L228.358 114.313C228.11 112.106 227.849 110.041 227.374 108.015Z" fill="black"/>
</g>
<defs>
<clipPath id="clip0_1_431">
<rect width="619" height="505" fill="white" transform="translate(-212 3)"/>
</clipPath>
</defs>
</svg>
