<svg width="416" height="511" viewBox="0 0 416 511" fill="none" xmlns="http://www.w3.org/2000/svg">
<path fill-rule="evenodd" clip-rule="evenodd" d="M69.5525 299.614C76.4267 271.022 100.806 248.836 133.594 237.784C139.896 234.654 146.006 221.226 154.476 218.767C155.834 218.373 153.691 221.51 154.476 221.697C157.277 222.366 160.416 222.435 163.509 220.022C169.036 215.709 170.77 203.108 174.131 197.413C191.856 167.376 236.11 179.128 242.039 212.333C246.173 214.699 252.017 216.783 256.517 218.689C261.151 220.652 265.227 225.406 270.002 227.106C274.263 228.622 281.283 227.548 285.577 228.87C305.323 234.951 322.048 242.625 335.16 258.172C337.923 261.451 341.038 265.482 343.552 268.795C356.514 281.895 365.517 296.578 373.809 312.331C397.009 358.569 403.319 409.765 408.98 459.583C408.851 468.3 415.44 492.471 405.695 496.65C406.278 497.18 406.067 498.244 404.986 498.235C380.278 498.016 355.627 499.957 331.302 503.732C319.566 505.553 307.892 508.05 295.937 508.461C271.121 508.31 246.394 504.66 221.61 508.114C191.816 508.114 155.608 507.352 122.462 506.233C91.4846 505.188 60.341 507.549 29.7472 502.924C27.3255 502.588 26.1429 499.995 26.6505 498.137C30.2399 486.654 32.002 474.836 34.0161 463.084C33.6149 455.546 34.3325 447.677 37.5089 440.656C45.8079 393.258 56.4498 346.169 69.5525 299.614Z" fill="#FFDBB4"/>
<path fill-rule="evenodd" clip-rule="evenodd" d="M154.476 221.871C153.69 221.684 155.834 218.546 154.476 218.94C146.006 221.4 139.896 234.828 133.594 237.957C100.806 249.01 76.4266 271.196 69.5524 299.787C56.4496 346.343 45.8077 393.432 37.5087 440.829C34.3323 447.85 33.6148 455.72 34.0159 463.258L33.6997 465.114C31.8113 476.253 30.0509 487.432 26.6504 498.31C26.1428 500.168 27.3254 502.761 29.747 503.098C59.9932 507.67 90.7768 505.414 121.406 506.373L127.79 506.583C159.451 507.605 193.405 508.288 221.61 508.288C246.394 504.833 271.121 508.484 295.937 508.634C307.892 508.224 319.565 505.727 331.302 503.905C355.627 500.131 380.278 498.19 404.986 498.409C406.067 498.418 406.278 497.353 405.695 496.823C415.44 492.644 408.851 468.474 408.98 459.757L408.468 455.27C402.925 406.871 396.312 357.355 373.809 312.504L373.135 311.229C365.027 295.959 356.163 281.714 343.552 268.968L342.78 267.954C340.418 264.857 337.647 261.297 335.16 258.345C322.048 242.798 305.323 235.125 285.576 229.044C281.283 227.722 274.263 228.796 270.002 227.279C265.536 225.69 261.681 221.428 257.41 219.277L257.41 235.32L195.605 288.77L160.551 241.582L156.986 222.255C156.127 222.208 155.287 222.065 154.476 221.871Z" fill="#8FA7DF"/>
<path fill-rule="evenodd" clip-rule="evenodd" d="M79.5497 361.915C80.2034 364.701 81.1196 367.488 82.3378 370.128C83.5115 372.675 85.2795 374.958 86.4973 377.475C86.6607 377.814 86.9281 378.071 87.2505 378.266L87.15 378.951L87.0573 379.636C86.4499 384.257 85.7668 388.865 85.1752 393.485L84.8878 395.797C83.7245 405.444 81.8872 415.043 80.4609 424.665C79.0644 434.086 77.6426 443.508 76.1227 452.916C74.5529 462.616 72.9533 472.303 71.0863 481.963C70.2981 486.043 69.4754 490.12 68.6184 494.193L67.9565 497.311C61.1422 498.75 59.2801 507.089 66.2182 510.167C69.3673 511.558 73.4134 511.223 76.0089 509.037C78.706 506.758 78.8179 502.649 79.4439 499.562L80.0469 496.694C84.5591 475.128 88.4752 453.314 90.306 431.443C90.7765 425.796 91.1727 420.144 91.4302 414.487C91.6749 409.166 91.558 403.846 91.6516 398.526L91.6827 397.074C91.8259 391.401 91.7075 385.736 91.5391 380.062C91.5193 379.371 91.4846 378.679 91.445 377.984C91.6724 377.749 91.8363 377.471 91.9051 377.201L91.9948 376.845C92.2176 375.927 91.965 374.853 91.1623 374.197C90.8161 370.332 90.3605 366.471 90.2367 362.61C90.2268 362.293 89.7068 362.302 89.6766 362.61C89.3844 365.897 88.8005 369.193 88.2162 372.484C84.4574 369.832 81.6792 365.458 80.04 361.797C79.9211 361.532 79.4799 361.628 79.5497 361.915ZM168.483 208.258C167.859 210.762 166.625 213.01 164.971 215.102C164.184 216.102 163.288 217.032 162.213 217.81C161.291 218.475 160.242 218.91 159.261 219.488C157.835 219.292 156.345 219.767 155.344 220.688L155.502 219.341C155.552 218.906 154.73 218.819 154.636 219.24C150.303 238.423 146.352 257.618 142.931 276.94L141.432 285.472L140.021 293.483C137.679 306.831 135.413 320.174 133.707 333.619C131.434 351.563 129.523 369.554 128.127 387.57C126.725 405.713 125.863 423.869 125.249 442.047C125.096 446.63 124.932 451.208 124.774 455.79L123.716 450.311C122.66 444.832 121.625 439.347 120.738 433.843C117.553 414.144 115.008 394.305 113.765 374.436C112.625 356.254 113.007 337.711 118.276 319.998C119.604 315.542 121.228 311.155 123.189 306.881C125.091 302.725 127.685 298.873 129.731 294.778C132.108 290.012 132.821 285.517 131.598 280.387C130.528 275.917 128.651 271.713 128.315 267.113C127.685 258.574 130.85 250.305 135.322 242.831C136.501 240.862 137.744 238.918 139.041 236.992C142.968 231.171 147.396 225.562 151.991 220.184C152.239 219.897 151.714 219.58 151.446 219.815C147.257 223.449 142.676 227.023 138.907 230.992C137.075 232.923 135.288 234.892 133.594 236.914C115.012 239.64 99.0464 249.8 88.1321 263.218C75.7465 278.443 69.4818 296.769 64.846 314.816C59.6907 334.872 55.3427 355.111 50.7123 375.266C45.919 396.122 41.1499 416.978 36.3264 437.83C33.9295 448.181 31.5321 458.534 29.1407 468.89C27.9274 474.133 26.6542 479.363 25.3225 484.589C24.6386 487.268 23.9057 489.941 23.2718 492.628C22.5592 495.659 23.2228 497.597 25.5598 499.824C26.4219 500.65 27.7838 500.637 28.8535 500.198L29.1879 500.059L29.5111 499.922C30.8347 499.351 31.8724 498.76 32.696 497.489C33.6027 496.093 33.7463 494.546 34.0578 492.994C34.6328 490.137 35.2018 487.281 35.7763 484.42C36.6346 480.142 37.5679 475.876 38.5178 471.611L43.2838 450.297C44.5546 444.614 45.8274 438.932 47.1075 433.252C51.6785 412.939 56.2544 392.631 60.8297 372.323C65.2229 352.823 69.1104 333.189 74.1117 313.803L74.3961 312.71L74.6853 311.62C79.1575 294.907 85.4061 278.741 96.744 264.578C105.47 253.687 117.588 243.962 131.861 239.04C130.855 240.31 129.889 241.605 128.968 242.927C123.184 251.222 118.96 261.07 119.95 270.948C120.435 275.774 122.525 280.517 122.327 285.382C122.144 289.704 119.098 293.499 116.993 297.26C112.215 305.782 108.758 314.838 106.529 324.128C102.057 342.784 102.072 361.98 103.613 380.918C105.287 401.505 108.466 422.087 112.086 442.473C113.943 452.929 116.414 463.299 118.306 473.738C119.242 478.885 120.515 484.02 121.629 489.141L122.16 491.588C122.458 492.946 122.766 494.3 123.122 495.639L123.342 496.441V496.584C123.352 497.572 123.66 498.389 124.155 499.041C124.833 500.949 125.675 502.811 126.794 504.598C127.368 505.511 128.201 506.023 129.107 506.211C130.018 508.041 132.083 509.449 134.549 509.441L166.982 509.332C185.82 509.267 204.659 509.158 223.497 509.067C228.251 509.045 233 508.967 237.749 508.858C242.201 508.75 246.47 508.28 250.873 507.793C255.845 507.245 258.539 504.154 257.796 499.793C257.633 498.832 257.455 497.876 257.286 496.92C258.277 497.206 259.455 497.072 260.252 496.389L261 495.747C262.036 494.847 262.963 493.963 263.62 492.763C264.298 491.528 264.849 490.224 265.448 488.963C266.74 486.25 267.998 483.529 269.222 480.794C271.672 475.324 274.124 469.833 276.402 464.307C280.913 453.364 284.905 442.255 288.376 431.021C294.567 410.979 299.044 390.549 301.867 369.936L302.542 365.024L302.738 363.572C303.808 355.583 304.709 347.47 304.284 339.498C304.021 334.506 303.14 329.477 301.015 324.815C299.054 320.516 296.028 316.838 293.151 312.994L292.822 312.551L292.491 312.096C289.974 308.605 287.972 304.956 287.872 300.717C287.77 296.414 289.198 292.228 290.794 288.2L291.192 287.207L291.459 286.549C294.855 278.225 298.719 270.019 297.444 260.961C295.562 247.622 286.351 236.871 274.763 228.579C285.069 230.371 295.27 233.909 304.273 238.397C314.906 243.701 324.479 250.701 332.734 258.6C348.334 273.53 359.472 291.443 368.588 309.938C378.132 329.294 385.209 349.576 390.542 370.123C395.905 390.788 399.495 411.783 401.947 432.861C403.17 443.352 404.131 453.868 404.928 464.39C405.334 469.781 405.641 475.181 406.116 480.563C406.592 485.942 406.805 491.402 408.301 496.637C408.999 499.076 413.709 499.324 414.213 496.637C415.333 490.636 415.02 484.431 414.708 478.355L414.679 477.803C414.372 471.751 413.971 465.703 413.496 459.655C412.525 447.295 411.228 434.952 409.534 422.648C403.596 379.458 392.646 336.494 371.168 297.069C361.056 278.5 348.076 260.457 330.02 247.049C321.423 240.67 311.732 235.579 301.287 231.892C291.947 228.593 282.458 227.032 272.534 227.036C267.557 223.688 262.214 220.771 256.876 218.279C256.554 218.128 256.217 218.493 256.484 218.728C256.622 218.845 256.757 218.966 256.895 219.08C256.291 219.115 255.667 219.362 255.108 219.88C253.146 221.684 251.492 223.94 250.012 226.283C247.758 228.753 245.609 231.305 243.36 233.748C239.761 237.661 236.076 241.518 232.346 245.344C226.083 251.774 219.616 258.082 212.872 264.136L211.745 265.143C208.249 268.252 204.708 271.973 200.573 274.434L200.352 274.563C198.608 275.561 197.371 275.742 195.883 274.252C194.531 272.896 193.405 271.322 192.248 269.826L191.981 269.483C186.073 261.948 180.595 254.135 175.638 246.092C173.379 242.432 171.229 238.718 169.19 234.963L168.581 233.836C167.472 231.766 166.268 229.736 165.353 227.605C165.14 227.106 164.932 226.606 164.729 226.11C167.849 224.314 170.265 220.428 171.141 217.384C172.053 214.223 171.592 210.98 169.968 208.089C169.661 207.545 168.631 207.68 168.483 208.258ZM322.393 336.702C322.825 348.72 323.087 360.75 323.731 372.758L323.953 376.857C322.949 377.84 322.359 378.975 322.83 380.532C323.012 381.127 323.553 381.666 324.226 381.866L324.436 385.678C325.392 402.827 326.512 419.941 328.56 437.047C331.12 458.456 334.081 479.828 337.037 501.198C337.458 504.224 339.856 506.623 343.585 506.18C347.358 505.732 348.888 502.849 348.393 499.845C346.447 488.059 344.575 476.263 342.935 464.438L341.068 450.965C338.727 434.123 336.331 417.284 333.571 400.496C332.417 393.479 331.218 386.466 330.015 379.453L330.436 378.975C332.155 377.014 333.933 375.097 335.691 373.167C339.068 369.445 342.401 365.753 345.496 361.858C345.65 361.662 345.337 361.375 345.115 361.524C340.777 364.337 336.671 367.345 332.541 370.402L328.925 373.088C326.846 360.971 324.785 348.85 322.949 336.702C322.904 336.398 322.384 336.376 322.393 336.702ZM259.99 221.697C262.6 223.857 265.269 225.971 267.899 228.119L268.863 228.909L269.822 229.703C274.444 233.551 278.872 237.557 282.562 242.157C289.337 250.605 293.373 260.904 290.556 271.217C288.218 279.76 282.855 287.504 281.414 296.26C280.691 300.647 281.042 305.056 282.924 309.198C284.846 313.425 287.916 317.046 290.675 320.859C296.667 329.146 297.484 338.242 296.889 347.841C296.265 357.867 294.953 367.897 293.334 377.832C290.056 397.962 285.113 417.883 278.571 437.391C275.297 447.16 271.43 456.721 267.582 466.32C265.666 471.099 263.432 475.764 261.13 480.407C259.916 482.85 258.673 485.28 257.41 487.706C257.876 484.281 257.876 480.763 258.104 477.359C258.431 472.481 258.847 467.612 259.228 462.738C260.005 452.847 260.698 442.947 261.317 433.047C263.511 397.744 265.126 362.41 265.007 327.051C264.947 309.368 264.536 291.686 263.67 274.021C263.263 265.703 262.476 257.392 261.765 249.085L261.614 247.305C260.985 239.849 260.233 232.375 258.941 224.984C259.323 224.226 259.655 223.459 259.902 222.671L259.99 222.375L259.926 222.384C259.985 222.153 260.005 221.923 259.99 221.697ZM237.417 191.315C237.364 191.111 237.032 191.128 236.972 191.315C235.501 195.663 236.021 200.445 237.289 204.819C237.972 207.189 238.943 209.489 240.116 211.706L240.527 212.482C241.533 214.37 242.665 216.316 244.624 217.493C245.44 217.984 246.902 218.014 247.719 217.493L248.135 217.215C248.204 217.168 248.272 217.12 248.338 217.071C249.1 216.51 249.477 215.271 249.125 214.454C248.219 212.345 246.163 210.797 244.742 208.919C243.484 207.25 242.37 205.489 241.444 203.658C239.448 199.698 238.552 195.493 237.417 191.315Z" fill="black"/>
<path fill-rule="evenodd" clip-rule="evenodd" d="M246.283 26.7979L242.014 31.2636C244.378 32.7289 246.609 34.2012 248.707 35.6806L248.709 35.6761C238.988 30.0962 228.222 26.7979 216.592 26.7979C194.192 26.7979 148.691 43.7265 138.406 55.9371C133.301 61.9968 123.816 80.5996 118.895 100.824C114.942 117.074 109.062 162.983 114.942 180.234C122.467 202.312 147.226 222.717 172.756 222.717C198.286 222.717 237.921 206.502 266.13 170.967C267.42 169.342 282.232 167.459 292.799 161.36L290.025 188.25L287.916 203.892L288.382 205.005C295.95 223.012 301.947 232.406 306.373 233.188C310.89 233.985 320.088 227.472 333.968 213.646L335.742 207.097C340.246 190.391 342.499 181.424 342.499 180.195L342.496 179.971C342.429 177.144 341.322 161.14 341.299 156.834L341.299 92.286C326.372 48.6272 312.127 26.7979 298.564 26.7979H246.283Z" fill="#FFDBB4"/>
<path fill-rule="evenodd" clip-rule="evenodd" d="M281.653 11.9297C277.264 10.4341 272.179 10.7167 268.013 12.9688C259.834 12.6601 251.7 16.8687 247.436 23.012C247.347 23.0989 247.252 23.1859 247.168 23.2728L246.264 24.1995C245.409 25.0845 244.506 26.0599 243.791 27.0671C247.294 27.1375 250.212 28.3935 252.249 30.9304C253.702 32.7406 250.373 34.4607 248.887 32.7486L248.835 32.686C247.612 31.163 245.766 30.5731 243.71 30.5422C243.12 30.5335 242.673 30.3348 242.356 30.0418C242.23 30.4457 242.118 30.8539 242.014 31.2639C231.665 27.7227 220.509 26.7849 209.397 27.6249C209.884 28.3188 210.291 29.0622 210.605 29.8435C210.96 30.7291 210.202 31.7461 209.224 31.9826C208.166 32.2382 207.21 31.6929 206.828 30.8503L206.793 30.7678C206.366 29.7035 205.668 28.7901 204.732 28.0818C199.501 28.7057 194.308 29.6979 189.241 30.977C183.151 32.5156 177.118 34.3934 171.219 36.5433C172.218 36.8881 173.081 37.4707 173.686 38.4433C174.892 40.3846 171.575 42.1235 170.317 40.2675L170.272 40.1989C170.149 39.9998 170.039 39.8802 169.959 39.812L169.931 39.7889L169.757 39.7184L169.432 39.6367L169.308 39.6098C169.198 39.5881 169.153 39.5894 168.864 39.5754C168.479 39.5563 168.094 39.558 167.709 39.5576C166.804 39.5571 166.226 39.1132 165.965 38.5454C163.054 39.7015 160.179 40.9188 157.356 42.194L156.685 42.4997C147.97 46.5055 139.715 51.7661 134.925 59.5066C134.608 60.0239 134.51 60.5891 134.589 61.1283C133.566 62.2065 132.578 63.3195 131.629 64.4499C128.733 67.9107 126.613 71.8453 124.607 75.7452C120.569 83.5885 117.851 91.6448 115.731 100.045C113.68 108.14 112.025 116.322 110.487 124.505C108.783 133.596 107.365 142.765 107.068 151.986C106.544 168.425 110.196 184.959 120.688 198.798C130.047 211.146 144.141 220.95 160.855 224.089C177.855 227.28 195.843 224.167 209.24 214.202C211.4 212.598 211.103 209.359 209.24 207.715C207.13 205.863 204.017 206.12 201.867 207.715C189.251 217.102 170.887 218.55 155.685 213.767C141.631 209.341 130.621 199.133 123.865 187.668C115.622 173.686 114.233 157.625 115.499 142.156C116.19 133.661 117.629 125.235 119.111 116.822L120.006 111.758C120.983 106.273 122.008 100.796 123.346 95.3664L123.659 94.1015C125.294 87.5543 127.209 80.8393 130.171 74.6844C131.723 71.454 133.59 68.3411 135.503 65.2673C135.874 64.6716 136.255 64.0673 136.645 63.4586C137.169 63.6195 137.767 63.6456 138.394 63.4717C143.796 61.9934 149.345 61.0022 154.993 60.6717C157.567 60.5204 160.144 60.497 162.718 60.5852C167.125 60.3596 171.654 60.7004 175.852 61.8891C176.263 61.5791 176.679 61.2756 177.095 60.9722C177.207 60.9643 177.32 60.9539 177.432 60.9343C178.503 60.7491 179.256 60.0796 179.71 59.234C179.734 59.1892 179.755 59.1444 179.775 59.0996C180.312 58.7383 180.854 58.3827 181.401 58.0318C182.733 58.3357 183.9 57.3605 184.214 56.2919C184.511 56.1158 184.812 55.9454 185.112 55.7728C185.347 55.8232 185.58 55.8649 185.807 55.8797C186.788 55.9419 187.735 55.8097 188.605 55.398C189.705 54.8767 190.408 54.0359 190.879 53.0807C192.543 53.1707 194.228 52.6955 195.715 51.8363C196.923 51.1394 197.848 50.1773 198.768 49.2169C209.975 44.8192 222.158 42.2227 234.369 41.5575C235.572 41.761 236.766 42.0032 237.946 42.2849C238.225 42.3518 238.621 42.4831 239.077 42.6405C236.355 42.351 233.597 42.3223 230.801 42.6766C217.53 44.3648 207.194 53.1063 198.299 61.3578C196.182 60.9817 194.044 63.3925 196.002 64.989L211.271 77.4369C210.896 78.829 212.711 80.2012 214.301 79.8668C216.966 79.3034 219.636 78.7556 222.308 78.2169C225.096 79.4034 228.6 79.2003 231.128 77.4804C231.246 77.4004 231.501 77.2726 231.723 77.1456C231.931 77.2965 232.21 77.4478 232.321 77.5121C233.22 78.0356 234.315 78.1895 235.365 78.0425C236.445 77.8917 237.42 77.4095 238.261 76.8091C238.796 76.4266 240.043 74.8308 240.737 74.7133L240.805 74.7066C240.342 74.7183 241.83 75.9352 242.23 76.187C243.163 76.7726 244.194 77.0804 245.355 76.9682C247.378 76.7724 249.118 75.1502 250.107 73.6524L250.182 73.5375L250.213 73.4662L250.239 73.5433C250.244 73.5569 250.25 73.5715 250.256 73.5879C250.405 73.9405 250.87 74.3413 251.186 74.5879C252.088 75.2891 253.204 75.5974 254.396 75.4144C255.404 75.2599 256.253 74.7236 256.935 74.0747L257.041 73.9714C257.243 73.7711 258.572 72.2001 258.362 71.8236L258.338 71.7919L258.404 71.7797C259.212 71.9545 259.891 71.7792 260.388 71.4127C263.162 70.878 265.901 70.2549 268.551 69.4628C268.759 69.9758 268.962 70.4888 269.159 71.0062C267.712 71.7932 266.373 72.9149 265.142 73.7148C262.809 75.2278 260.477 76.7408 258.149 78.2582L248.927 84.2432L247.872 83.9941C246.525 83.6758 245.369 84.366 244.874 85.421L244.833 85.5123C244.637 85.9745 244.401 86.4019 244.123 86.811C241.818 86.7301 239.866 87.9753 239.235 89.7613C238.665 89.75 238.09 89.7692 237.502 89.8261C235.891 89.9817 234.806 91.0339 235.098 92.4787L235.12 92.5778L235.159 92.7386C234.225 93.0873 233.548 93.7608 233.398 94.779C233.148 95.1099 232.946 95.4699 232.817 95.8707C232.144 97.9507 233.454 100.522 234.152 102.514L234.206 102.671C234.654 103.98 235.118 105.283 235.587 106.586L236.755 109.82C239.995 118.834 243.154 128.337 240.532 137.787C239.973 139.787 242.879 140.691 244.139 139.126C247.194 135.337 250.495 131.766 253.961 128.338L254.129 128.315C256.556 127.885 257.498 126.377 258.612 124.84C259.268 125.01 259.974 125.05 260.656 124.934C261.643 124.767 262.528 124.271 263.226 123.644C263.818 123.113 264.36 121.75 265.059 121.413C265.934 120.99 267.692 121.594 268.737 121.458C269.586 121.348 270.379 121.092 271.149 120.77C272.563 122.466 273.501 124.459 273.73 126.609C273.82 127.426 274.097 128.118 274.497 128.692C273.024 128.644 271.547 128.735 270.088 128.974C264.692 129.857 260.822 132.787 258.648 137.152C258.555 137.343 258.836 137.5 258.965 137.317C262.191 132.948 269.214 132.726 274.314 134.265C279.73 135.9 282.77 140.096 283.851 144.882C285.037 150.13 283.516 155.786 280.268 160.256C278.762 162.334 276.705 164.23 273.973 164.995C270.726 165.903 267.727 164.277 264.401 165.117C262.137 165.686 261.139 167.612 261.549 169.538C261.712 170.295 262.014 170.956 262.419 171.529C261.223 173.616 260.116 175.764 258.708 177.738C256.533 180.786 253.904 183.307 251.038 185.851C248.078 188.477 245.063 191.051 241.896 193.485C238.861 195.82 235.382 197.481 232.199 199.62C229.966 201.12 228.859 203.224 229.961 205.633C230.87 207.624 233.935 209.32 236.415 208.42C241.164 206.698 245.32 203.768 249.105 200.75C252.614 197.95 255.669 194.603 257.976 190.968C260.154 187.541 261.758 183.65 263.111 179.901L263.279 179.434C263.917 177.651 264.588 175.647 265.023 173.625C267.627 174.877 271.161 175.06 273.948 174.721C278.45 174.177 282.557 172.182 285.66 169.273C287.107 167.92 288.385 166.376 289.489 164.702C289.389 165.721 289.329 166.706 289.265 167.603C286.685 170.089 285.65 173.677 286.566 176.951C284.407 178.905 283.802 181.84 284.929 184.338C282.566 186.399 282.655 189.68 283.677 192.66C280.884 195.406 280.619 199.685 282.8 202.784L282.866 203.006C280.664 206.248 281.16 210.437 283.919 213.3C282.035 216.516 282.327 220.841 287.036 222.088C288.752 222.543 290.416 222.155 291.66 221.309C290.524 226.282 290.015 231.331 291.531 236.328C292.134 238.31 294.338 239.758 296.656 239.758C298.593 239.758 300.002 238.901 300.975 237.641C300.861 240.149 301.034 242.671 301.642 245.214C302.009 246.75 303.628 247.948 305.347 248.319C304.727 248.934 304.48 249.824 305.074 250.751C307.595 254.677 313.686 253.048 314.098 249.287C315.818 248.158 316.618 246.303 316.949 244.299C317.431 241.377 317.606 238.502 318.152 235.617L318.361 235.789L318.469 235.871L318.504 236.08C318.817 237.506 319.731 238.504 320.918 239.1C320.66 241.588 321.137 244.121 322.931 246.01C324.126 247.269 326.162 247.765 327.907 247.492C328.016 247.497 328.128 247.496 328.245 247.483C332.197 247.021 334.484 243.723 333.443 240.696C335.035 238.981 335.705 236.804 335.234 234.652C338.313 232.859 338.25 228.919 337.184 225.754C340.412 223.513 341.626 219.323 340.004 215.993C342.913 212.814 343.318 208.385 341.341 204.765C344.542 202.452 344.524 197.986 341.349 195.62C343.04 192.667 344.059 189.129 342.37 186.427C343.562 185.27 344.216 183.62 344.078 182.027C343.876 179.686 342.116 178.068 339.932 176.991L339.78 176.258C339.267 176.314 338.721 176.188 338.239 175.781C337.762 175.378 337.271 175.054 336.764 174.786C336.189 174.779 335.694 174.554 335.347 174.208C334.395 173.923 333.371 173.798 332.236 173.786C329.784 173.763 329.698 170.537 331.98 170.328C332.34 170.009 332.836 169.807 333.374 169.807L333.796 169.809C334.781 169.817 335.776 169.87 336.69 170.215C337.284 170.439 337.742 170.776 338.077 171.188C338.14 171.811 338.526 172.433 339.36 172.946C340.324 173.539 341.643 173.608 342.675 173.072C344.119 172.321 344.134 171.148 343.967 169.873C343.603 167.085 345.425 164.46 344.991 161.608C344.799 160.346 344.322 159.257 343.543 158.378C345.185 156.216 345.474 153.426 344.211 151.054C346.843 148.562 347.298 144.721 345.62 141.723C345.595 141.65 345.577 141.576 345.55 141.504C345.361 140.995 345.099 140.535 344.811 140.096C346.285 137.85 346.274 135.093 344.776 132.857C347.045 130.53 347.117 126.827 345.099 124.32C345.087 124.113 345.063 123.905 345.042 123.697C345.968 121.582 345.746 119.177 344.571 117.21C344.99 116.36 345.314 115.445 345.52 114.47C346.049 111.957 345.777 109.514 344.987 107.062C344.859 106.675 344.715 106.288 344.562 105.901C344.536 104.221 344.464 102.549 344.368 100.88C344.744 99.4672 344.804 97.9146 344.812 96.4731L344.815 95.5384C344.833 93.1597 345.022 89.6769 343.312 87.6549C344.41 85.4706 343.959 82.7185 342.127 80.9872C343.413 79.0416 343.682 76.6526 342.39 74.494C342.183 74.1466 341.942 73.8231 341.678 73.517C341.785 71.5401 341.312 69.5015 340.114 67.5368C339.337 66.2577 338.175 65.1503 336.793 64.2643C336.817 64.0021 336.831 63.7403 336.826 63.4825C336.802 62.3321 336.512 61.1769 336.024 60.0992C336.9 58.7835 337.306 57.3005 336.793 55.7023C336.22 53.8937 334.712 52.3372 332.83 51.459C332.678 49.7538 332.375 48.0586 331.943 46.3861C333.099 44.1196 332.178 41.1284 329.564 39.7932C329.905 37.982 329.597 36.1038 328.099 34.689C327.531 34.1529 326.862 33.7464 326.142 33.4769C326.489 31.6556 326.097 29.7609 324.666 28.2779C323.497 27.0671 321.764 26.3314 320.001 26.2232C319.322 23.0554 315.882 20.6868 312.252 20.8755C311.799 19.4808 310.715 18.2647 309.034 17.6482C308.603 17.4904 308.168 17.3865 307.735 17.3286C304.784 14.7096 300.39 12.9344 296.586 12.0253C292.771 11.1171 288.903 11.0292 285.627 12.0851L285.389 12.1645L285.122 12.134C283.965 12.021 282.809 11.9558 281.653 11.9297ZM310.646 226.591C311.665 226.312 312.802 226.922 313.078 227.806C313.37 228.74 312.72 229.665 311.697 229.945C310.423 230.295 309.084 230.382 307.756 230.383C306.688 230.384 305.779 229.583 305.779 228.644C305.779 227.7 306.684 226.906 307.756 226.905C308.836 226.904 309.634 226.869 310.646 226.591ZM319.711 208.123C321.235 208.124 322.541 208.444 323.671 209.383C324.424 210.01 324.443 211.22 323.671 211.843C322.891 212.472 321.76 212.509 320.96 211.91L320.806 211.788C320.787 211.773 320.773 211.762 320.761 211.752C320.697 211.715 320.632 211.678 320.564 211.647L320.693 211.721C320.791 211.783 320.563 211.681 320.436 211.633L320.396 211.619L320.383 211.616L320.28 211.609C320.091 211.6 319.901 211.601 319.711 211.601C318.677 211.6 317.687 210.802 317.734 209.862C317.783 208.92 318.603 208.122 319.711 208.123ZM290.961 197.089C288.821 195.935 290.732 192.982 292.878 194.046L292.956 194.086C294.056 194.68 295.409 194.599 296.655 194.6C299.199 194.601 299.203 198.079 296.655 198.078L296.234 198.076C294.407 198.064 292.559 197.952 290.961 197.089ZM307.8 184.394C309.416 184.127 311.227 183.888 312.928 184.051L313.211 184.082H313.734C314.189 184.082 314.629 184.243 314.982 184.496C315.542 184.7 316.071 184.974 316.555 185.342C318.481 186.811 315.674 189.262 313.759 187.802C313.653 187.721 313.529 187.654 313.392 187.599L313.287 187.56H311.172C310.98 187.56 310.793 187.525 310.61 187.474C309.924 187.557 309.284 187.676 308.851 187.748C306.364 188.16 305.299 184.808 307.8 184.394ZM309.605 151.013C312.704 149.748 316.135 149.757 319.001 151.513C321.05 152.768 319.147 155.729 317.08 154.56L317.006 154.516C316.749 154.359 316.485 154.227 316.218 154.108C314.763 154.478 313.299 154.495 311.892 154.04L311.709 153.978L311.6 154.016C309.307 154.951 307.297 151.954 309.605 151.013ZM275.864 145.563C278.994 145.254 279.019 140.904 275.864 141.215C269.202 141.873 263.157 144.478 258.73 148.953C256.67 151.034 260.062 154.078 262.159 152.09L262.224 152.027C265.744 148.469 270.495 146.092 275.864 145.563ZM310.93 123.228C311.626 123.161 312.321 123.127 313.004 123.156C314.646 123.226 316.645 124.189 315.925 125.93C315.347 127.325 313.453 127.38 312.518 126.636C312.129 126.645 311.741 126.667 311.354 126.702C310.322 126.795 309.299 126.969 308.282 127.145C305.796 127.575 304.732 124.223 307.231 123.791L308.335 123.598C308.708 123.534 309.083 123.472 309.461 123.414C309.687 123.316 309.929 123.249 310.187 123.232L310.318 123.228H310.93ZM330.572 96.2438L330.804 96.2161C334.142 95.8403 339.501 96.1861 339.906 99.9245C340.13 101.995 336.73 102.125 336.059 100.355C333.594 99.9636 331.108 99.8889 328.66 100.126C327.726 99.2915 327.719 97.6868 329.274 97.2863C329.493 96.7672 329.951 96.3225 330.572 96.2438ZM254.268 89.9296C255.039 89.3066 256.304 89.224 257.063 89.9296C257.501 90.3357 257.866 90.787 258.155 91.2835L258.347 91.6187C258.38 91.6744 258.413 91.7297 258.448 91.7843C258.513 91.8856 258.585 91.9821 258.656 92.0804L258.704 92.1215C258.722 92.1383 258.745 92.1587 258.771 92.1834C259.482 92.8447 259.573 93.9956 258.771 94.6429C258 95.266 256.735 95.3486 255.976 94.6429C255.539 94.2369 255.173 93.786 254.884 93.2891L254.692 92.9541C254.659 92.8985 254.626 92.8433 254.591 92.7886C254.527 92.6869 254.453 92.5904 254.383 92.4921L254.305 92.423C254.293 92.4128 254.281 92.4015 254.268 92.3891C253.556 91.7282 253.467 90.577 254.268 89.9296ZM294.803 85.4006C297.589 83.6641 300.901 83.5833 303.461 85.6723C305.309 87.1802 302.594 89.5961 300.731 88.1833L300.665 88.1318C300.598 88.0762 300.529 88.0275 300.461 87.981C300.127 88.2314 299.702 88.3901 299.217 88.3905C299.09 88.3908 298.963 88.3905 298.837 88.3929L298.647 88.3988L298.545 88.4062L298.532 88.4083L298.444 88.4416C298.281 88.5061 298.057 88.6057 298.364 88.4362C298.296 88.4679 298.231 88.5053 298.166 88.5418L298.053 88.6327C297.307 89.2527 296.018 89.3344 295.278 88.6488C293.968 88.2592 293.273 86.354 294.803 85.4006ZM267.573 79.703L267.522 79.689C265.08 79.0756 266.118 75.7187 268.573 76.3348C271.178 76.9891 272.422 79.1216 272.943 81.3059C273.162 82.2246 272.636 83.1859 271.562 83.4454C270.581 83.6824 269.351 83.1541 269.13 82.2307C268.976 81.5813 268.797 81.0304 268.515 80.5191L268.344 80.2272C268.265 80.0942 268.237 80.0721 267.967 79.8651C267.922 79.8303 267.716 79.7461 267.573 79.703ZM308.938 62.1856L309.32 62.109C311.7 61.6504 314.858 61.411 316.294 63.486C317.604 65.3764 314.3 67.0972 312.94 65.3103C312.919 65.3097 312.895 65.3099 312.867 65.3119L312.823 65.3164L312.213 65.2729C311.453 65.2681 310.726 65.3864 309.99 65.5399C307.516 66.0551 306.46 62.7021 308.938 62.1856ZM223.526 48.8147C221.725 47.23 224.519 44.7696 226.321 46.3556C227.746 47.6091 229.12 48.8712 230.046 50.4638C230.532 51.2994 230.294 52.3507 229.337 52.8433C228.454 53.2976 227.121 53.0585 226.632 52.2194C225.83 50.839 224.817 49.9512 223.526 48.8147ZM246.255 44.6548C248.035 45.5817 249.187 47.1087 249.886 48.876C250.237 49.7629 249.486 50.7781 248.505 51.0151C247.451 51.2699 246.488 50.7266 246.109 49.8829L246.074 49.8003C245.887 49.3277 245.587 48.7695 245.217 48.3482C244.901 47.9886 244.409 47.6286 244.039 47.5091C243.148 47.2213 242.516 46.5109 242.598 45.6813C244.064 46.1269 245.424 45.5909 246.255 44.6548ZM299.527 37.0898C301.322 35.6238 303.731 35.4294 305.907 36.3168C306.876 36.7116 307.119 37.9407 306.616 38.6963C306.035 39.5706 304.884 39.7167 303.912 39.3202C304.162 39.4219 303.711 39.2876 303.516 39.2385C303.491 39.2486 303.165 39.2356 303.052 39.237L302.917 39.2445C302.916 39.2453 302.949 39.2448 303.017 39.2428C302.922 39.2616 302.828 39.2842 302.736 39.3101L302.618 39.346C302.677 39.3351 302.41 39.4882 302.336 39.5391L302.322 39.5489C300.459 41.0701 297.657 38.6163 299.527 37.0898Z" fill="black"/>
<path fill-rule="evenodd" clip-rule="evenodd" d="M160.977 178.104C160.217 176.944 158.468 175.87 156.867 176.035C149.697 176.773 149.709 184.405 152.478 188.861C154.933 192.811 160.013 195.13 165.098 194.792C170.44 194.436 174.992 191.678 176.995 187.291C178.32 184.389 178.932 179.031 175.408 177.081C175.343 177.045 175.235 177.054 175.183 177.107C173.493 178.832 173.427 181.423 171.947 183.344C170.572 185.131 168.434 186.607 165.93 186.835C164.06 187.005 162.169 186.413 161.437 184.939C161.041 184.142 161.086 183.709 161.235 183.16L161.37 182.683C161.839 181.013 162.049 179.742 160.977 178.104ZM159.06 144.633C155.32 146.629 149.622 151.282 153.645 156.23C158.381 160.592 165.199 155.59 168.558 153.328C171.674 151.575 175.174 156.084 172.283 158.131C148.006 173.911 138.153 145.155 157.168 142.287C159.262 141.971 160.04 144.016 159.06 144.633ZM198.551 130.949C196.255 127.926 191.016 128.371 189.751 131.959C189.066 133.902 190.012 135.649 189.963 137.59C189.922 139.229 190.045 141.056 190.617 142.644C191.922 146.265 195.632 148.822 200.02 148.716C204.394 148.61 208.246 146.18 210.078 142.757C211.916 139.321 211.527 135.765 210.185 132.271C210.12 132.103 209.87 132.022 209.719 132.163C208.132 133.643 206.971 135.206 205.77 136.863L204.538 138.562C203.597 139.841 202.229 141.475 200.472 141.372L200.208 141.35C199.72 141.313 199.795 141.398 199.418 140.814C199.244 140.543 199.276 140.041 199.191 139.721L199.162 139.614L199.178 139.556C199.215 139.401 199.252 139.11 199.282 138.604L199.288 138.493C199.416 136.129 200.177 133.091 198.551 130.949ZM140.366 132.962C140.777 129.095 134.585 128.236 132.526 131.098C131.452 132.59 131.14 134.464 130.902 136.24L130.791 137.083C130.548 138.906 130.451 140.804 131.353 142.505C132.773 145.185 135.862 146.601 139.194 146.377C142.376 146.162 145.279 144.542 146.809 142.084C148.173 139.89 149.53 135.607 147.873 133.318C147.773 133.18 147.573 133.162 147.435 133.269C145.869 134.489 145.614 136.715 144.683 138.305C143.723 139.945 142.267 141.543 140.06 141.792C137.948 142.031 137.141 141.018 137.68 139.251C138.375 136.969 140.104 135.417 140.366 132.962ZM196.878 107.96L195.865 107.619C192.396 106.469 187.632 105.139 184.811 107.616C183.071 109.143 182.74 111.393 183.982 113.257C185.487 115.514 188.186 115.57 190.793 115.903C193.758 116.281 196.773 117 199.534 118.025C202.643 119.18 205.529 120.62 208.356 122.229C211.043 123.757 213.721 126.255 216.938 126.725C217.069 126.745 217.218 126.695 217.252 126.569C217.983 123.808 215.953 121.091 214.141 118.937C211.949 116.329 209.293 114.189 206.325 112.27C203.46 110.417 200.187 109.079 196.878 107.96ZM133.852 117.776L133.543 117.728C131.439 117.42 129.532 117.491 127.946 118.954C126.736 120.07 126.269 121.517 126.846 122.992C127.379 124.354 128.569 125.737 130.297 126.022C136.13 126.985 142.592 126.826 148.454 126.097C151.136 125.763 153.843 125.354 156.455 124.71L157.657 124.404C159.838 123.857 162.335 123.285 163.919 121.877C164.489 121.371 164.161 120.647 163.479 120.412C160.715 119.462 156.926 119.968 153.978 119.893C150.549 119.807 147.115 119.582 143.702 119.271C140.368 118.966 137.141 118.305 133.852 117.776Z" fill="black"/>
</svg>
