<svg width="2037" height="238" viewBox="0 0 2037 238" fill="none" xmlns="http://www.w3.org/2000/svg">
<path d="M55 212C165.833 212 140.5 28 245 28" stroke="#6A3834" stroke-width="2.5"/>
<path d="M545 212C655.833 212 630.5 28 735 28" stroke="#6A3834" stroke-width="2.5"/>
<path d="M1035 212C1145.83 212 1120.5 28 1225 28" stroke="#6A3834" stroke-width="2.5"/>
<path d="M980 212C869.167 212 894.5 28 790 28" stroke="#6A3834" stroke-width="2.5"/>
<path d="M490 212C379.167 212 404.5 28 300 28" stroke="#6A3834" stroke-width="2.5"/>
<path d="M1525 212C1635.83 212 1610.5 28 1715 28" stroke="#6A3834" stroke-width="2.5"/>
<path d="M1960 212C1849.17 212 1874.5 28 1770 28" stroke="#6A3834" stroke-width="2.5"/>
<path d="M1470 212C1359.17 212 1384.5 28 1280 28" stroke="#6A3834" stroke-width="2.5"/>
<path d="M75.4592 65.0544C75.7203 69.7429 77.7365 73.6827 81.0579 76.8359C83.397 79.0547 86.1379 80.8649 88.7346 82.809C89.1607 83.0943 89.6647 83.2406 90.1773 83.228C94.986 83.1215 99.647 82.3933 103.999 80.2638C110.868 76.9045 114.269 71.1067 115.334 63.7528C115.538 62.4412 115.644 61.1164 115.653 59.789C115.653 58.7964 116.058 58.3704 116.917 58.0166C117.589 57.767 118.169 57.3189 118.58 56.7319C119.126 55.7908 118.559 54.9529 117.872 54.2213C113.836 49.9381 109.333 46.3212 103.848 44.0336C103.666 43.9425 103.49 43.8417 103.319 43.7314C103.637 42.6193 104.192 41.5892 104.946 40.7122C105.701 39.8352 106.636 39.1322 107.688 38.6513C109.681 37.7827 111.723 37.0281 113.802 36.3912C115.203 35.9241 115.846 35.1684 115.584 34.0383C115.323 32.9083 114.314 32.3896 112.916 32.8018C110.936 33.3353 108.993 33.9986 107.101 34.7872C103.374 36.453 101.715 38.3111 99.702 42.5634C97.4728 42.2715 95.2368 41.8044 93.0007 41.722C89.5419 41.5915 86.0727 41.674 82.6139 41.7701C80.8278 41.8217 79.9416 43.144 80.8346 44.6691C82.0986 46.833 81.6007 48.3751 80.2233 50.3192C77.1526 54.6814 75.1638 59.5278 75.4592 65.0544ZM113.585 55.3787C110.738 56.3198 108.145 56.1756 105.775 54.101C105.253 53.6442 104.208 53.3006 103.638 53.517C103.068 53.7334 102.735 54.6952 102.364 55.3684C102.274 55.6537 102.235 55.9523 102.247 56.2511C101.739 60.1908 98.8948 63.5123 95.333 64.2989C93.2309 60.7336 92.2794 57.0857 94.3609 53.1323C94.5223 52.8296 94.6447 52.5075 94.725 52.174C94.8017 51.9268 94.8216 51.6655 94.7831 51.4095C94.7446 51.1536 94.6488 50.9098 94.5028 50.6961C94.3568 50.4824 94.1645 50.3044 93.9401 50.1755C93.7156 50.0466 93.4649 49.9701 93.2067 49.9517C92.4889 49.8487 91.7573 49.835 91.036 49.7354C88.3741 49.361 86.5261 47.8736 85.2277 45.4109C94.512 43.5733 109.361 48.8079 113.585 55.3787ZM84.5373 50.7417C85.377 51.3197 86.2461 51.854 87.1409 52.3424C88.0512 52.7957 89.0403 53.0808 90.1017 53.4793C88.5079 59.0677 90.4006 63.4882 92.8942 67.4863C93.4335 68.3484 94.1719 68.6885 95.1921 68.3862C100.131 66.9333 103.803 64.1065 105.404 59.0127C105.452 58.8616 105.579 58.7346 105.503 58.8513L112.029 59.9022C111.95 60.7919 111.868 61.891 111.744 62.9936C110.862 70.8661 106.41 76.142 98.7917 78.3059C97.6445 78.6322 96.4389 78.7593 95.2917 79.0925C91.8569 80.0885 88.9236 79.2814 86.4059 76.7775C85.8907 76.2691 85.2862 75.8466 84.7503 75.3554C77.3484 68.5065 77.2556 57.8311 84.5408 50.7417H84.5373ZM131.488 84.3649C130.22 77.7667 122.097 74.9672 116.776 79.7313C114.028 82.1872 111.143 84.4818 108.316 86.8449L99.3859 94.312C96.9335 91.1074 93.6224 90.3895 89.8681 90.4616C83.342 90.5819 76.84 90.5338 70.3277 90.4616C69.323 90.4145 68.3513 90.0886 67.5214 89.5204C64.9178 87.7515 62.1391 86.4532 58.9929 86.2403C47.7164 85.4674 37.9239 88.9641 29.9895 97.0221C26.6028 100.457 23.7073 104.376 20.6194 108.106C20.1351 108.69 19.6989 108.968 18.902 108.848C17.164 108.59 15.7111 109.226 14.533 110.517C13.7258 111.404 12.9426 112.314 12.0805 113.145C11.7611 113.445 11.3372 113.609 10.8989 113.602C10.0889 113.492 9.26432 113.575 8.49289 113.846C7.72146 114.116 7.02518 114.566 6.4612 115.158C4.87776 116.724 3.33552 118.332 1.72117 119.87C1.15373 120.392 0.706319 121.031 0.409811 121.743C0.113303 122.454 -0.0252404 123.222 0.00377449 123.992C0.044992 130.889 0.0208847 137.79 0.0243195 144.687C0.0243195 148.046 1.71309 149.728 5.09063 149.732C14.3886 149.732 23.6901 149.691 32.9881 149.753C36.7663 149.777 39.0333 147.493 41.0598 144.827C41.3172 144.461 41.4992 144.047 41.5953 143.609C41.6914 143.172 41.6997 142.72 41.6197 142.279C41.18 140.561 41.9631 139.555 43.0554 138.538C43.5161 138.089 43.9518 137.614 44.3606 137.116C44.899 136.527 45.2798 135.811 45.4678 135.036C45.6557 134.26 45.6447 133.449 45.4357 132.679C45.2297 131.896 45.4941 131.5 45.9784 131.023C47.9019 129.127 49.8529 127.245 51.6905 125.284C52.9579 123.91 54.3971 123.391 56.2485 123.398C68.545 123.443 80.845 123.398 93.145 123.443C96.8339 123.443 99.8497 122.237 102.436 119.578C110.68 111.106 118.97 102.672 127.307 94.2776C129.258 92.3061 131.051 90.2967 131.69 87.5077V84.6809C131.625 84.5675 131.508 84.4748 131.488 84.3649ZM36.4812 143.546C35.1314 144.92 33.62 145.408 31.6725 145.384C23.1062 145.281 14.5432 145.339 5.97684 145.339H4.41055V141.324C4.41055 135.715 4.38311 130.106 4.44493 124.494C4.48847 123.802 4.76307 123.145 5.22464 122.628C6.48177 121.23 7.89004 119.97 9.18152 118.599C9.84444 117.895 10.3253 117.82 11.0878 118.51C19.5489 126.135 28.0214 133.743 36.5053 141.334C37.6216 142.337 37.5357 142.475 36.4812 143.546ZM40.4758 134.898C39.758 135.554 39.1397 136.32 38.415 137.116L15.1752 116.308C16.058 115.34 16.8926 114.395 17.7685 113.475C18.3971 112.805 18.8332 113.375 19.2695 113.77L31.2191 124.504C34.2795 127.252 37.309 130.034 40.4106 132.747C41.3311 133.534 41.3483 134.101 40.4758 134.898ZM125.71 89.6167C121.735 93.6377 117.769 97.669 113.812 101.711C108.945 106.66 104.05 111.582 99.2314 116.573C98.4912 117.377 97.5866 118.012 96.579 118.435C95.5714 118.858 94.4845 119.06 93.3922 119.025C81.0545 118.991 68.7133 119.049 56.3721 118.984C53.2121 118.967 50.636 119.949 48.472 122.268C46.4936 124.394 44.3847 126.39 42.2517 128.547L23.3878 111.579C28.904 105.053 33.4895 97.74 41.5475 93.8964C46.9264 91.3272 52.5389 90.1456 58.4811 90.5784C60.8084 90.7389 63.0302 91.6106 64.8457 93.0755C66.5048 94.4047 68.3423 94.9166 70.4444 94.9029C77.314 94.8617 84.1527 94.8823 91.0085 94.9029C91.7351 94.8705 92.463 94.9269 93.1759 95.0711C94.2046 95.3223 95.1081 95.9362 95.7208 96.7999C96.3334 97.6637 96.614 98.7194 96.5111 99.7733C96.2706 101.992 94.5051 103.62 92.1248 103.651C88.3122 103.703 84.4996 103.668 80.687 103.668C76.6133 103.668 72.5431 103.668 68.4728 103.668C66.8344 103.668 65.8556 104.5 65.8521 105.832C65.8487 107.165 66.8586 108.041 68.4592 108.044C76.342 108.044 84.2282 108.082 92.1111 108.044C96.8854 108.017 100.489 104.651 100.901 99.8867C100.918 99.4905 101.021 99.1028 101.204 98.7509C101.386 98.399 101.644 98.0914 101.959 97.8498C107.959 92.8728 113.908 87.8341 119.919 82.8674C122.694 80.5729 126.514 81.9022 127.201 85.3438C127.562 87.0338 126.899 88.4145 125.71 89.6167ZM25.7578 70.9211C31.5729 74.72 37.9204 77.0041 44.9686 76.8461C51.5668 76.7018 57.0144 72.8102 58.9104 66.9779C59.1165 66.3356 59.3123 65.6933 59.5149 65.0476V61.6953C58.1926 55.9042 54.1669 52.6584 48.9701 50.5151C47.9843 50.1064 47.0123 49.6529 46.0093 49.2819C41.0014 47.4305 37.3468 44.0954 34.7948 39.4206C33.6628 37.3084 32.3686 35.2872 30.9238 33.3754C28.6877 30.4695 25.7715 28.4225 22.0345 28.0172C15.7488 27.3303 9.74136 31.8504 8.11327 38.3456C7.10687 42.354 7.708 46.2696 9.01322 50.0891C12.0633 59.0573 17.9334 65.817 25.7509 70.9211H25.7578ZM28.6911 43.1645C28.753 41.9108 29.2957 40.6779 29.6185 39.4379L30.2162 39.3862C33.5307 46.9428 39.284 51.7344 47.2459 54.1181C46.0603 55.3806 44.44 56.1466 42.7119 56.2615C35.7599 57.0206 28.3442 50.1268 28.6843 43.1645H28.6911ZM12.2247 38.9604C13.3651 35.1547 16.7655 32.2797 20.3377 32.0908C23.3672 31.9225 25.4899 33.5678 27.5164 35.6321C21.3029 43.0307 25.6617 53.6269 33.493 58.0612C37.8758 60.5446 42.4921 61.3929 47.2321 59.1363C48.6301 58.4699 49.8185 57.3708 51.1581 56.4297C56.5301 59.521 56.8357 66.3906 51.632 70.4471C48.6919 72.7381 45.2228 73.2706 41.7502 72.6351C27.3001 69.98 17.607 61.5579 12.5751 47.8119C11.4893 44.9802 11.3638 41.8703 12.2178 38.9604H12.2247ZM50.6738 32.3724C53.7102 37.5246 58.5188 40.3755 64.2549 41.4231C71.6397 42.773 78.1624 40.2896 83.9191 35.8416C88.8789 32.0049 92.5439 27.155 93.8388 20.835C94.1479 19.334 94.2441 17.7883 94.4364 16.2633C94.3639 12.204 93.1833 8.24185 91.0223 4.80488C87.0379 -1.522 78.1349 -1.63189 74.0681 4.66064C72.6049 6.92074 71.3375 9.31132 70.0391 11.6745C69.5112 12.7085 68.7392 13.5981 67.79 14.2667C66.8408 14.9352 65.743 15.3623 64.5916 15.5111C62.3521 15.8546 60.1263 16.3388 57.9005 16.751C50.5569 18.1352 46.8818 25.9323 50.6841 32.3897L50.6738 32.3724ZM73.6147 12.8835C74.8718 15.7344 73.862 18.6849 71.255 20.2614C68.9949 21.6354 66.3502 21.2747 64.674 19.231C68.8438 18.8257 71.6981 16.5621 73.625 12.9006L73.6147 12.8835ZM57.3029 20.7216C58.0242 20.4675 58.8005 20.3782 59.5458 20.1824C60.2087 20.0073 60.6072 20.1824 61.0228 20.7904C63.8702 24.8675 69.1873 25.9838 73.285 23.418C77.5372 20.756 79.2856 14.9753 76.761 10.8501C75.7752 9.23579 76.074 8.19492 76.9842 6.93435C77.1079 6.76261 77.2075 6.57032 77.3277 6.39514C80.0756 2.66153 85.3171 2.80926 87.8382 6.68714C89.6099 9.39073 90.5738 12.5435 90.6169 15.7756C90.7234 21.443 88.4771 26.1555 84.6404 30.2017C80.1099 35.0104 74.5524 37.5659 69.0018 38.1017C62.5787 38.1017 56.8323 35.1616 54.1532 30.9951C51.6321 27.0761 53.109 22.2123 57.3132 20.7387L57.3029 20.7216Z" fill="#6A3834"/>
<path d="M249.683 112.438C250.066 112.469 250.451 112.469 250.833 112.438C252.867 112.472 253.956 111.335 253.331 109.848C252.898 108.817 252.032 108.611 251.022 108.608C249.927 108.608 248.838 108.608 248.275 109.783C248.152 110.047 248.092 110.335 248.1 110.626C248.108 110.917 248.183 111.203 248.319 111.46C248.456 111.717 248.65 111.939 248.886 112.109C249.123 112.279 249.396 112.391 249.683 112.438ZM251.177 226.576C249.116 226.535 248.247 227.022 248.144 228.293C248.031 229.667 248.968 230.423 250.81 230.423C252.565 230.423 253.557 229.681 253.492 228.403C253.444 227.276 252.602 226.59 251.177 226.59V226.576ZM263.92 226.596C263.326 226.555 262.728 226.596 262.131 226.596C261.574 226.596 261.018 226.572 260.465 226.596C259.362 226.648 258.699 227.259 258.603 228.331C258.507 229.403 259.094 230.234 260.149 230.347C261.504 230.499 262.872 230.494 264.226 230.33C265.273 230.203 265.823 229.375 265.699 228.269C265.586 227.232 264.951 226.669 263.92 226.59V226.596ZM284.982 112.469C285.535 112.503 286.092 112.469 286.648 112.469C287.204 112.469 287.843 112.5 288.441 112.469C288.679 112.474 288.916 112.432 289.137 112.345C289.359 112.257 289.56 112.127 289.731 111.96C289.901 111.794 290.036 111.595 290.129 111.376C290.221 111.156 290.268 110.921 290.268 110.682C290.305 110.445 290.291 110.203 290.228 109.972C290.165 109.74 290.054 109.524 289.903 109.338C289.751 109.152 289.562 109 289.349 108.891C289.135 108.783 288.9 108.72 288.661 108.707C287.343 108.568 286.015 108.568 284.697 108.707C283.646 108.824 283.048 109.604 283.138 110.71C283.227 111.816 283.893 112.396 284.982 112.469ZM272.693 112.469C273.246 112.503 273.802 112.469 274.358 112.469C274.915 112.469 275.557 112.503 276.151 112.469C277.244 112.396 277.903 111.782 277.986 110.703C278.068 109.625 277.46 108.824 276.409 108.711C275.091 108.572 273.763 108.572 272.445 108.711C272.205 108.725 271.971 108.79 271.758 108.9C271.545 109.01 271.357 109.164 271.207 109.351C271.056 109.539 270.947 109.756 270.886 109.988C270.825 110.22 270.813 110.463 270.851 110.7C270.934 111.754 271.587 112.4 272.693 112.465V112.469ZM260.403 112.469C260.956 112.506 261.512 112.469 262.069 112.469C262.708 112.469 263.353 112.517 263.989 112.469C264.443 112.463 264.876 112.281 265.197 111.96C265.518 111.639 265.701 111.205 265.706 110.751C265.792 109.645 265.212 108.862 264.164 108.742C262.849 108.603 261.522 108.603 260.207 108.742C259.149 108.848 258.534 109.625 258.6 110.713C258.665 111.802 259.3 112.39 260.393 112.465L260.403 112.469ZM321.515 141.321C321.53 140.892 321.516 140.463 321.473 140.036C321.451 139.601 321.264 139.191 320.95 138.889C320.636 138.586 320.219 138.415 319.783 138.408C318.753 138.322 318.028 138.803 317.781 139.816C317.676 140.362 317.637 140.917 317.664 141.472C317.664 170.908 317.664 200.343 317.664 229.777V231.398H300.834V222.08H302.421C303.877 222.08 305.337 222.114 306.79 222.032C307.892 221.97 308.507 221.231 308.507 220.163C308.535 219.704 308.382 219.252 308.082 218.904C307.782 218.556 307.358 218.338 306.9 218.298C306.433 218.237 305.962 218.214 305.491 218.229C303.963 218.229 302.434 218.229 300.827 218.229V213.946C300.971 213.87 301.047 213.798 301.122 213.798C301.978 213.781 302.84 213.781 303.692 213.764C305.065 213.733 305.952 212.981 305.938 211.837C305.924 210.693 305.038 209.948 303.65 209.914C302.723 209.893 301.792 209.914 300.837 209.914V205.232C302.637 205.232 304.341 205.232 306.048 205.232C307.617 205.232 308.555 204.466 308.531 203.257C308.507 202.048 307.628 201.392 306.106 201.382C304.361 201.382 302.616 201.382 300.83 201.382V196.896C301.809 196.896 302.702 196.896 303.578 196.896C305.01 196.868 305.869 196.185 305.917 195.058C305.965 193.932 305.062 193.1 303.595 193.052C302.675 193.025 301.751 193.052 300.848 193.052V188.322C302.836 188.322 304.725 188.436 306.587 188.261C306.96 188.19 307.312 188.033 307.614 187.804C307.917 187.574 308.163 187.278 308.332 186.938C308.531 186.413 308.136 185.472 307.71 184.953C307.411 184.589 306.632 184.51 306.058 184.493C304.317 184.438 302.572 184.472 300.841 184.472V179.794H302.342C302.857 179.794 303.372 179.818 303.884 179.794C305.079 179.722 305.907 178.942 305.945 177.898C305.969 176.792 305.131 175.995 303.843 175.957C302.871 175.926 301.895 175.957 300.837 175.957V171.492C302.486 171.492 304.059 171.492 305.646 171.492C306.201 171.521 306.758 171.462 307.295 171.317C307.715 171.195 308.073 170.92 308.299 170.546C308.525 170.171 308.602 169.726 308.514 169.297C308.477 168.839 308.264 168.413 307.919 168.109C307.575 167.804 307.125 167.646 306.666 167.666C304.749 167.635 302.829 167.666 300.827 167.666V162.898C301.82 162.898 302.75 162.898 303.678 162.898C305.072 162.878 305.945 162.136 305.941 160.992C305.938 159.848 305.059 159.089 303.678 159.051C302.747 159.027 301.813 159.051 300.841 159.051V154.596C302.678 154.596 304.427 154.613 306.175 154.596C307.642 154.579 308.555 153.796 308.538 152.625C308.521 151.454 307.631 150.753 306.134 150.746C304.389 150.746 302.644 150.746 300.851 150.746V146.023H302.318C302.833 146.023 303.348 146.044 303.86 146.006C305.151 145.917 305.979 145.12 305.952 144.034C305.924 142.949 305.083 142.214 303.767 142.176C302.805 142.149 301.84 142.176 300.872 142.176V137.68C302.857 137.68 304.743 137.783 306.608 137.625C306.963 137.558 307.3 137.415 307.596 137.207C307.892 136.999 308.141 136.731 308.325 136.419C308.565 135.966 308.377 135.011 308.019 134.582C307.662 134.152 306.848 133.895 306.219 133.867C304.437 133.775 302.651 133.836 300.861 133.836V129.144H302.355C302.829 129.144 303.3 129.144 303.771 129.144C305.117 129.083 306.003 128.252 305.948 127.121C305.893 125.991 305.065 125.322 303.733 125.298C302.774 125.298 301.813 125.298 300.878 125.298V120.832C302.534 120.832 304.073 120.832 305.612 120.832C306.082 120.848 306.552 120.817 307.016 120.74C307.47 120.648 307.874 120.393 308.151 120.023C308.428 119.652 308.559 119.193 308.52 118.732C308.48 118.271 308.271 117.841 307.935 117.524C307.598 117.207 307.156 117.025 306.694 117.013C304.773 116.968 302.853 117.013 300.854 117.013V107.681H317.661V109.295C317.661 116.451 317.661 123.606 317.661 130.762C317.661 132.325 318.461 133.259 319.67 133.211C320.879 133.163 321.508 132.305 321.508 130.756C321.508 122.572 321.508 114.387 321.508 106.203C321.508 104.455 320.879 103.744 319.292 103.741C312.565 103.727 305.837 103.727 299.109 103.741C297.667 103.741 296.994 104.428 296.911 105.846C296.88 106.316 296.88 106.788 296.911 107.258C296.97 108.062 296.843 108.663 296.059 109.192C295.832 109.357 295.648 109.575 295.523 109.826C295.398 110.078 295.335 110.356 295.341 110.637C295.346 110.918 295.419 111.193 295.554 111.44C295.689 111.686 295.881 111.897 296.114 112.053C296.884 112.548 296.911 113.128 296.911 113.873C296.911 124.501 296.911 135.127 296.911 145.752V225.058C296.911 225.858 296.983 226.566 296.059 227.119C295.135 227.672 295.084 229.306 296.039 229.866C296.994 230.426 296.939 231.22 296.901 232.054C296.846 233.322 296.901 234.531 298.058 235.365H320.158C321.398 234.761 321.532 233.686 321.532 232.453C321.513 202.064 321.513 171.681 321.532 141.304L321.515 141.321ZM252.541 171.341C252.184 171.108 251.768 170.981 251.342 170.977C250.952 170.987 250.571 171.095 250.234 171.291C249.897 171.487 249.614 171.764 249.412 172.097C247.522 174.948 246.794 177.991 247.244 181.147C247.487 182.669 247.806 184.178 248.199 185.667C248.752 187.859 248.319 189.672 246.883 191.218C246.351 191.785 245.836 192.4 245.338 192.99L245.276 193.066L244.764 193.674C242.601 196.175 241.432 199.384 241.477 202.69C241.477 202.78 241.477 202.914 241.494 203.061C241.505 203.486 241.54 203.911 241.597 204.332C241.81 205.706 242.868 206.596 244.053 206.445C245.365 206.276 246.142 205.249 245.99 203.889C245.647 200.763 246.557 198.122 248.786 195.81C249.13 195.467 249.473 195.051 249.796 194.667L250.098 194.306C251.472 192.692 252.87 190.73 252.805 188.381C252.715 186.295 252.414 184.224 251.909 182.198C251.246 179.299 251.648 176.771 253.135 174.477C253.308 174.218 253.428 173.926 253.487 173.62C253.546 173.314 253.543 172.999 253.478 172.694C253.422 172.415 253.31 172.149 253.149 171.914C252.987 171.678 252.781 171.478 252.541 171.324V171.341ZM276.117 226.59C275.008 226.545 273.895 226.548 272.785 226.59C272.289 226.575 271.806 226.756 271.441 227.093C271.076 227.43 270.857 227.897 270.831 228.393C270.776 229.423 271.569 230.303 272.734 230.409C273.283 230.461 273.843 230.409 274.4 230.409C274.997 230.44 275.595 230.44 276.193 230.409C276.691 230.387 277.16 230.169 277.499 229.803C277.838 229.437 278.019 228.953 278.003 228.455C278.005 228.207 277.957 227.962 277.863 227.734C277.768 227.505 277.629 227.298 277.453 227.124C277.278 226.95 277.069 226.814 276.839 226.722C276.61 226.63 276.364 226.585 276.117 226.59ZM288.444 226.59C287.891 226.555 287.335 226.59 286.779 226.59C286.222 226.59 285.58 226.559 284.986 226.59C283.893 226.651 283.244 227.249 283.134 228.338C283.101 228.584 283.119 228.834 283.188 229.072C283.256 229.311 283.373 229.533 283.531 229.724C283.689 229.915 283.885 230.072 284.106 230.184C284.327 230.296 284.57 230.361 284.817 230.375C286.095 230.485 287.381 230.478 288.657 230.354C288.896 230.338 289.129 230.274 289.342 230.164C289.555 230.054 289.743 229.902 289.894 229.716C290.045 229.53 290.156 229.315 290.221 229.085C290.285 228.854 290.301 228.613 290.268 228.376C290.268 228.138 290.221 227.902 290.129 227.683C290.037 227.464 289.902 227.265 289.732 227.099C289.562 226.933 289.361 226.802 289.14 226.714C288.919 226.627 288.682 226.585 288.444 226.59ZM256.535 153.264C254.155 152.323 254.21 150.238 254.231 149.551C254.248 148.991 254.275 148.431 254.303 147.871V147.83C254.351 146.858 254.406 145.855 254.382 144.879C254.265 139.933 250.298 135.581 245.355 134.973C244.057 134.809 242.951 135.585 242.765 136.763C242.672 137.347 242.814 137.944 243.159 138.424C243.505 138.905 244.026 139.228 244.61 139.325C248.23 140.084 250.03 142.345 249.954 146.04C249.954 146.384 249.954 146.727 249.954 147.071V148.417H249.786C249.786 148.998 249.769 149.599 249.786 150.179C249.968 153.703 251.888 156.431 254.794 157.293C255.202 157.424 255.64 157.437 256.055 157.328C256.469 157.219 256.845 156.993 257.135 156.678C257.426 156.362 257.621 155.97 257.696 155.548C257.771 155.125 257.723 154.69 257.559 154.294C257.464 154.064 257.325 153.855 257.15 153.678C256.974 153.502 256.765 153.362 256.535 153.267V153.264ZM276.825 174.075C276.884 173.356 276.945 172.642 277.007 171.932V164.42C276.948 163.846 276.893 163.276 276.835 162.702V162.558C276.708 161.222 276.574 159.841 276.402 158.481C274.956 146.947 271.556 137.601 266.008 129.904C262.038 124.408 257.59 120.719 252.414 118.665C251.139 118.201 249.831 117.835 248.501 117.569C247.869 117.428 247.23 117.284 246.598 117.119L246.087 116.992L245.932 116.954H242.841L242.71 116.989C242.505 117.049 242.296 117.096 242.085 117.13C233.615 118.387 227.659 123.147 224.42 131.274C224.314 131.539 224.217 131.803 224.118 132.085L223.946 132.545C223.08 134.785 222.802 137.209 223.139 139.586C223.204 140.053 223.246 140.523 223.262 140.994C223.687 144.76 225.089 148.349 227.329 151.405C231.887 157.694 232.797 167.494 231.98 172.169C231.956 172.832 231.719 177.293 229.998 180.852C229.326 182.507 228.506 184.098 227.549 185.606C225.282 188.958 223.894 192.087 223.183 195.457V195.646C223.063 198.297 222.775 204.511 225.931 209.546C226.206 209.927 226.508 210.36 226.807 210.793C226.892 210.902 226.968 211.017 227.037 211.136L227.109 211.243C232.873 219.692 244.194 222.77 254.038 218.562C259.998 216.017 264.765 211.525 268.612 204.823C272.734 197.645 275.21 189.35 276.395 178.719C276.564 177.183 276.698 175.604 276.825 174.079V174.075ZM267.348 197.346C264.714 203.69 261.557 208.148 257.415 211.37C253.427 214.461 249.254 216.048 245.018 216.048C242.963 216.04 240.922 215.692 238.98 215.018C236.55 214.186 234.344 212.806 232.532 210.985C230.721 209.164 229.352 206.952 228.531 204.518C227.667 202.023 227.387 199.362 227.714 196.742C228.04 194.122 228.964 191.611 230.414 189.405C237.685 178.283 238.716 166.175 233.481 153.418C232.794 151.735 231.733 150.124 230.709 148.565L230.386 148.067C228.88 145.781 227.945 143.166 227.66 140.444C227.375 137.721 227.748 134.97 228.748 132.421C229.701 129.885 231.249 127.615 233.262 125.803C235.276 123.99 237.695 122.687 240.316 122.004C245.163 120.722 249.82 121.66 254.557 124.824C259.293 127.987 263.144 132.651 266.28 139.013C269.512 145.57 271.432 152.724 272.157 160.882C272.339 162.943 272.438 165.004 272.538 167.03V167.147C272.583 168.037 272.627 168.93 272.679 169.819V169.885C272.146 181.288 270.501 189.758 267.348 197.349V197.346Z" fill="#6A3834"/>
<path d="M525.255 124.058C522.743 123.825 520.311 123.049 518.128 121.784C516.812 121.036 515.627 121.3 515.036 122.403C514.446 123.505 514.868 124.618 516.166 125.377C518.817 126.945 521.793 127.885 524.863 128.125C526.516 128.245 527.47 127.623 527.611 126.335C527.752 125.047 526.89 124.206 525.255 124.058ZM555.035 119.593C554.272 120.084 553.661 120.338 553.238 120.771C551.433 122.607 549.249 124.027 546.839 124.934C545.424 125.477 544.868 126.573 545.328 127.727C545.788 128.881 546.897 129.279 548.227 128.798C551.3 127.694 554.068 125.876 556.302 123.495C556.934 122.808 557.332 121.99 556.776 121.169C556.36 120.544 555.656 120.136 555.024 119.583L555.035 119.593ZM580.452 131.477H561.729C564.205 128.73 566.788 126.112 569.035 123.234C571.552 120.015 571.937 116.316 570.24 112.565C568.544 108.815 565.542 106.726 561.451 106.383C557.521 106.067 554.365 107.636 552.002 110.793C551.699 111.198 551.435 111.631 551.016 112.249C550.937 110.934 550.947 109.845 550.786 108.777C550.383 106.048 549.228 103.485 547.451 101.375C543.408 96.4194 537.825 92.958 531.589 91.5411C526.801 90.4041 522.016 89.2432 517.228 88.1063C515.407 87.6735 514.106 88.6558 514.387 90.4281C515.363 96.5146 516.366 102.598 517.516 108.65C517.86 110.46 518.725 112.167 519.454 114.207C518.622 113.52 517.966 112.995 517.345 112.438C513.869 109.347 509.908 108.529 505.666 110.415C501.424 112.301 499.37 115.78 499.405 120.452C499.405 120.661 499.384 120.871 499.367 121.204L494.933 121.626C495.795 118.8 496.732 116.014 497.467 113.18C497.811 111.872 497.811 110.463 497.862 109.096C497.917 107.245 497.024 106.489 495.135 106.582C491.098 106.756 487.159 107.877 483.636 109.855C483.488 109.941 483.334 110.016 483.175 110.079C483.107 110.103 483.014 110.061 482.832 110.037C482.945 108.258 483.041 106.469 483.175 104.682C483.265 103.57 483.062 102.622 481.952 102.103C480.843 101.584 479.998 102.161 479.236 102.951C475.244 107.073 471.247 111.195 467.245 115.317C463.037 119.644 461.519 124.735 462.9 130.646C462.951 130.866 462.986 131.096 463.051 131.457H453.358C451.541 131.529 451.026 132.144 451.022 134.098C451.022 137.055 451.067 140.013 451.002 142.967C450.974 144.148 451.287 145.055 452.307 145.673H461.581C462.367 144.986 463.085 144.231 462.611 143.049C462.137 141.868 461.124 141.792 460.045 141.813C458.383 141.84 456.717 141.813 454.893 141.813V135.397H578.745V141.84H471.047C470.618 141.84 470.13 141.713 469.776 141.878C469.158 142.163 468.316 142.527 468.138 143.053C467.935 143.64 468.337 144.454 468.533 145.151C468.595 145.361 468.852 145.515 469.021 145.694H582.661V132.566C582.386 132.238 582.047 131.971 581.664 131.782C581.28 131.592 580.862 131.485 580.435 131.467L580.452 131.477ZM518.894 92.7226C523.613 93.8801 528.089 94.8419 532.482 96.0922C537.26 97.4489 541.179 100.231 544.325 104.085C546.358 106.579 547.248 109.471 546.688 112.607C546.001 116.385 545.002 118.563 541.313 119.167C540.636 119.273 539.943 119.142 539.351 118.796C537.04 117.194 534.214 116.513 531.427 116.886C530.067 117.041 528.696 117.075 527.33 116.986C527.045 116.965 526.767 116.886 526.514 116.754C526.261 116.622 526.037 116.441 525.856 116.22C524.663 114.502 523.583 112.707 522.624 110.848C520.907 107.375 520.659 103.522 520.017 99.7742C519.629 97.5003 519.292 95.2266 518.894 92.7226ZM482.468 116.055C482.509 115.769 482.654 115.508 482.877 115.323C485.968 112.864 489.686 111.317 493.61 110.858C493.305 115.062 491.769 118.655 489.399 121.932C489.254 122.079 489.059 122.166 488.853 122.176C486.644 122.392 484.436 122.591 482.035 122.815C482.183 120.39 482.32 118.216 482.468 116.045V116.055ZM490.175 131.196C490.01 131.339 489.81 131.437 489.595 131.477H467.894C467.705 131.392 467.539 131.263 467.411 131.1C467.282 130.938 467.195 130.746 467.155 130.543C465.799 126.167 466.582 122.231 469.635 118.834C471.638 116.608 473.781 114.506 475.883 112.37C476.739 111.497 477.656 110.683 478.631 109.759C478.631 110.24 478.652 110.649 478.631 111.054C478.367 115.543 478.078 120.029 477.838 124.515C477.735 126.435 478.525 127.218 480.431 127.077C482.949 126.895 485.459 126.638 487.987 126.411L495.544 125.724C493.572 127.727 491.907 129.475 490.175 131.192V131.196ZM495.671 131.477L501.191 126.411L507.542 131.477H495.671ZM529.751 131.477H517.403L517.327 131.45C513.144 129.856 509.218 127.792 505.752 124.924C504.725 124.049 503.997 122.874 503.674 121.565C503.35 120.255 503.445 118.876 503.947 117.624C504.449 116.371 505.331 115.308 506.47 114.584C507.609 113.86 508.946 113.512 510.293 113.589C512.11 113.668 513.515 114.537 514.83 115.715C519.711 120.088 525.423 121.791 531.915 120.964C532.71 120.914 533.507 120.914 534.302 120.964L534.464 121.255C530.967 123.756 529.456 127.173 529.755 131.467L529.751 131.477ZM553.472 131.477H534.027C533.34 127.675 535.59 124.264 539.265 123.77C546.211 122.825 551.456 119.408 555.172 113.465C555.623 112.72 556.223 112.075 556.934 111.572C557.645 111.068 558.451 110.716 559.304 110.537C560.157 110.359 561.037 110.358 561.891 110.534C562.744 110.711 563.552 111.061 564.264 111.562C567.331 113.671 567.987 117.766 565.71 120.836C562.742 124.89 559.022 128.335 554.753 130.983C554.36 131.221 553.927 131.385 553.475 131.467L553.472 131.477ZM494.685 68.3631C494.925 68.4199 495.174 68.4282 495.418 68.3878C495.661 68.3473 495.894 68.2587 496.103 68.1273C496.311 67.9959 496.492 67.8242 496.634 67.6223C496.775 67.4204 496.876 67.1925 496.928 66.9515C497.177 66.0492 497.366 65.1312 497.491 64.2036C497.646 63.0118 496.691 61.9846 495.115 62.0259C494.826 62.3006 494.084 62.7128 493.833 63.3139C493.484 64.2735 493.269 65.2768 493.195 66.2954C493.067 67.3808 493.655 68.0883 494.685 68.3631ZM491.422 84.3074C491.862 84.438 492.335 84.3929 492.742 84.1814C493.149 83.97 493.458 83.6088 493.603 83.174C493.793 82.6152 493.933 82.0404 494.019 81.4566C494.091 80.0827 493.473 79.1862 492.446 79.0522C491.977 78.9581 491.49 79.0538 491.092 79.3186C490.694 79.5833 490.418 79.9953 490.323 80.4639C490.122 81.0714 489.995 81.7011 489.945 82.3392C489.892 82.7946 490.016 83.2529 490.292 83.6192C490.568 83.9856 490.973 84.232 491.426 84.3074H491.422ZM496.829 59.9204C498.151 59.8963 499.044 58.5155 499.027 56.5302C499.022 56.0117 498.815 55.5157 498.449 55.1484C498.083 54.7811 497.587 54.5719 497.069 54.5656C495.75 54.5828 494.874 55.9566 494.902 57.966C494.895 58.2219 494.941 58.4764 495.035 58.7143C495.13 58.9523 495.271 59.1686 495.452 59.3503C495.632 59.532 495.847 59.6752 496.085 59.7714C496.322 59.8676 496.576 59.9149 496.832 59.9101L496.829 59.9204ZM492.968 76.8607C494.046 77.0393 494.84 76.5722 495.166 75.5589C495.406 74.68 495.6 73.7892 495.747 72.8901C495.812 71.5677 495.201 70.7365 494.177 70.5476C493.687 70.4683 493.186 70.5813 492.778 70.8629C492.369 71.1445 492.085 71.573 491.986 72.0589C491.757 72.9224 491.579 73.7987 491.453 74.6831C491.37 75.1722 491.482 75.6744 491.765 76.0817C492.048 76.4889 492.48 76.7687 492.968 76.8607ZM534.577 107.733C535.607 109.089 536.387 110.639 537.376 112.033C537.794 112.533 538.272 112.981 538.798 113.366C540.677 113.407 541.814 111.906 541.185 110.618C539.332 106.789 536.756 103.356 533.598 100.506C532.757 99.7399 531.537 99.9528 530.833 100.787C530.129 101.622 530.146 102.653 530.946 103.583C532.162 104.964 533.474 106.269 534.587 107.733H534.577ZM541.223 79.0624C540.169 79.2411 539.616 79.952 539.619 81.2263C539.705 81.8455 539.837 82.4575 540.014 83.0571C540.159 83.4957 540.459 83.8667 540.857 84.1006C541.256 84.3345 541.726 84.4156 542.179 84.3285C542.633 84.2415 543.04 83.9922 543.323 83.6275C543.607 83.2627 543.748 82.8073 543.72 82.3461C543.676 81.664 543.537 80.9913 543.308 80.3471C543.197 79.9053 542.919 79.524 542.531 79.2842C542.144 79.0443 541.679 78.9648 541.234 79.0624H541.223ZM537.723 62.0705C536.672 62.2937 536.071 63.0323 536.178 64.1005C536.29 65.1155 536.499 66.1173 536.803 67.0922C536.854 67.3134 536.949 67.5223 537.082 67.7065C537.215 67.8908 537.383 68.0467 537.577 68.1655C537.77 68.2844 537.986 68.3638 538.21 68.3988C538.434 68.4339 538.664 68.4241 538.884 68.37C539.945 68.1948 540.478 67.4769 540.509 66.2026C540.344 65.2152 540.123 64.238 539.846 63.2762C539.787 63.0581 539.685 62.8539 539.547 62.6752C539.408 62.4966 539.236 62.347 539.04 62.235C538.844 62.123 538.627 62.0509 538.403 62.0227C538.179 61.9944 537.951 62.0106 537.734 62.0705H537.723ZM541.642 72.0795C541.299 71.3719 540.574 70.8532 540.244 70.4926C538.675 70.5544 537.816 71.4371 537.922 72.5535C538.011 73.5702 538.204 74.575 538.499 75.552C538.809 76.5825 539.616 77.0359 540.691 76.8573C541.179 76.7661 541.612 76.4867 541.896 76.0793C542.18 75.6719 542.292 75.1693 542.209 74.6797C542.085 73.8004 542.03 72.8558 541.653 72.0795H541.642ZM580.455 0.000382336C575.269 0.0312955 570.086 0.000402462 564.903 0.0210112C563.422 0.0210112 562.735 0.735441 562.677 2.24675C562.646 3.00584 562.677 3.76495 562.677 4.67173H561.169C554.741 4.67173 548.315 4.67173 541.89 4.67173C541.421 4.64788 540.951 4.69415 540.495 4.80909C540.072 4.91231 539.703 5.17035 539.461 5.53211C539.219 5.89386 539.121 6.33324 539.186 6.76363C539.197 7.19771 539.368 7.61255 539.665 7.92925C539.962 8.24595 540.365 8.44238 540.797 8.48103C541.224 8.52807 541.653 8.54066 542.082 8.51876H562.553V21.3098H525.832C523.826 21.3098 523.249 21.8972 523.242 23.9134C523.242 25.782 523.242 27.647 523.242 29.4881H510.441C510.441 25.4556 510.441 21.5194 510.441 17.5866C510.441 12.0909 514.03 8.52563 519.553 8.51876C523.623 8.51876 527.694 8.51876 531.764 8.51876C533.138 8.51876 534.024 7.72529 534.01 6.58837C533.996 5.45146 533.134 4.68556 531.85 4.68213C527.35 4.68213 522.847 4.56178 518.354 4.72322C512.361 4.93618 507.428 9.32939 506.817 15.3231C506.384 19.5204 506.635 23.7899 506.58 28.0318C506.58 28.5264 506.58 29.0244 506.58 29.4675C506.444 29.5172 506.304 29.5551 506.161 29.5808L501.919 29.6015C499.992 29.6015 499.343 30.2403 499.343 32.1157C499.343 37.2999 499.343 42.4843 499.343 47.6685C499.343 49.4202 500.002 50.1106 501.727 50.1106C511.802 50.1106 521.87 50.1106 531.932 50.1106C533.667 50.1106 534.336 49.4237 534.336 47.6823C534.336 42.498 534.336 37.3137 534.336 32.1294C534.336 30.2472 533.684 29.6152 531.771 29.6015C530.242 29.6015 528.717 29.6015 527.182 29.6015V25.253H562.694C562.694 25.9159 562.694 26.5034 562.694 27.0941C562.694 29.2512 563.288 29.842 565.442 29.842C570.282 29.842 575.125 29.8111 579.964 29.8626C581.146 29.8626 582.053 29.5775 582.671 28.5539V1.30218C582.118 0.546527 581.507 -0.0167916 580.469 0.000382336H580.455ZM530.428 33.5515V46.1641H503.293V33.5515H530.428ZM578.721 25.8816H566.63V3.92305H578.721V25.8816ZM522.39 54.5621C521.04 54.6823 520.47 55.8124 520.731 57.8561C520.907 59.2301 521.703 60.0132 522.857 59.917C524.012 59.8208 524.63 58.9586 524.575 57.5298C524.503 55.4689 523.747 54.4418 522.397 54.5621H522.39ZM536.129 54.6239C535.679 54.7048 535.277 54.954 535.004 55.3208C534.731 55.6876 534.608 56.1446 534.659 56.599C534.71 57.2809 534.851 57.9531 535.078 58.5979C535.19 59.0419 535.471 59.4245 535.862 59.6634C536.252 59.9023 536.721 59.9786 537.167 59.8758C538.225 59.6903 538.767 58.9689 538.757 57.6259C538.664 56.9895 538.514 56.363 538.307 55.754C538.164 55.3219 537.859 54.9623 537.456 54.7514C537.052 54.5405 536.583 54.4948 536.147 54.6239H536.129ZM507.621 72.1414C507.456 72.976 507.425 73.8347 507.332 74.6831C507.305 75.8956 507.954 76.7818 509.008 76.8848C510.063 76.9879 510.867 76.4554 511.1 75.4147C511.298 74.4538 511.401 73.476 511.409 72.4951C511.405 72.0222 511.226 71.5678 510.905 71.22C510.585 70.8721 510.147 70.6558 509.676 70.613C509.205 70.5702 508.735 70.704 508.357 70.9883C507.979 71.2727 507.72 71.6872 507.631 72.1516L507.621 72.1414ZM508.383 64.2001C508.304 64.918 508.212 65.6393 508.191 66.3606C508.149 66.858 508.304 67.352 508.622 67.737C508.939 68.1221 509.395 68.3676 509.891 68.4215C510.135 68.4522 510.383 68.4344 510.62 68.3691C510.857 68.3038 511.078 68.1922 511.272 68.0409C511.466 67.8896 511.628 67.7016 511.749 67.4875C511.869 67.2734 511.947 67.0374 511.976 66.7933C512.117 66.0411 512.172 65.2718 512.265 64.5127C512.295 63.0358 511.622 62.1084 510.441 62.0569C509.352 61.9813 508.555 62.8057 508.397 64.1899L508.383 64.2001ZM506.601 82.5591C506.596 82.7969 506.639 83.0331 506.728 83.2536C506.817 83.4742 506.95 83.6745 507.119 83.8423C507.287 84.0102 507.488 84.142 507.709 84.2302C507.93 84.3184 508.166 84.3611 508.404 84.3555C509.506 84.4036 510.162 83.7921 510.386 82.7411C510.489 82.243 510.506 81.7107 510.585 80.9997C510.611 80.5349 510.462 80.0772 510.167 79.7172C509.872 79.3572 509.452 79.1211 508.991 79.0556C508.771 78.9956 508.542 78.9799 508.316 79.0095C508.09 79.039 507.873 79.113 507.676 79.2275C507.479 79.3419 507.307 79.4944 507.169 79.6759C507.032 79.8575 506.932 80.0647 506.875 80.2853C506.649 81.0172 506.561 81.7846 506.614 82.5487L506.601 82.5591ZM512.859 58.2888C512.915 57.9951 512.95 57.6979 512.965 57.3993C513.061 55.5651 512.409 54.6239 511.189 54.5689C510.039 54.5209 509.259 55.383 509.129 56.8599C509.101 57.2034 509.074 57.5469 509.074 57.8904C509.074 59.0376 509.737 59.831 510.76 59.9512C511.784 60.0714 512.625 59.4052 512.89 58.2786L512.859 58.2888ZM524.042 70.5305C523.795 70.5384 523.552 70.5955 523.327 70.6987C523.102 70.8019 522.9 70.949 522.732 71.1314C522.565 71.3138 522.436 71.5278 522.352 71.7608C522.269 71.9938 522.233 72.2411 522.246 72.4882C522.273 73.3834 522.357 74.276 522.497 75.1606C522.539 75.6557 522.773 76.1148 523.149 76.4396C523.525 76.7643 524.014 76.9291 524.51 76.8986C525.578 76.8402 526.313 75.9987 526.327 74.7312C526.241 73.9275 526.203 73.0138 526.035 72.1483C525.978 71.6741 525.741 71.2401 525.373 70.9367C525.004 70.6333 524.532 70.484 524.056 70.5201L524.042 70.5305ZM524.808 79.0316C523.74 79.1415 523.136 79.8627 523.091 80.9378C523.092 81.4924 523.146 82.0457 523.252 82.59C523.428 83.7647 524.283 84.4689 525.358 84.3624C526.364 84.2628 527.075 83.435 527.075 82.1675C527.026 81.6247 526.949 81.0848 526.845 80.5497C526.629 79.4712 525.883 78.9147 524.822 79.0212L524.808 79.0316ZM523.507 62.0569C522.174 61.8439 521.339 62.943 521.405 64.7153C521.472 65.4781 521.577 66.237 521.721 66.9892C521.776 67.2521 521.89 67.4994 522.052 67.7136C522.215 67.9277 522.422 68.1034 522.66 68.2281C522.899 68.3528 523.161 68.4233 523.43 68.4347C523.699 68.4462 523.966 68.3982 524.214 68.2943C526.189 67.3944 525.269 65.6701 525.245 64.2378C525.255 63.0975 524.729 62.2388 523.538 62.0465L523.507 62.0569Z" fill="#6A3834"/>
<path d="M735.914 222.368C734.787 222.368 734.018 223.23 733.987 224.621C733.956 226.074 733.987 227.527 733.987 228.98C733.987 230.433 733.96 231.8 733.987 233.208C734.015 234.617 734.818 235.434 735.966 235.396C737.113 235.359 737.803 234.551 737.817 233.219C737.851 230.354 737.851 227.492 737.817 224.632C737.81 223.234 737.037 222.372 735.914 222.368ZM787.817 118.321C788.879 118.349 789.576 117.748 789.751 116.656C789.797 116.314 789.816 115.97 789.806 115.625C789.806 112.592 789.778 109.556 789.806 106.523C789.823 105.383 789.559 104.438 788.624 103.737H787.082C786.718 104.287 786.052 104.823 786.052 105.379C785.955 109.137 785.962 112.898 786.017 116.656C786.035 117.707 786.821 118.294 787.817 118.321ZM760.991 202.151C778.712 202.838 793.739 188.635 794.47 170.551C795.188 152.848 780.999 137.769 762.922 137.017C745.15 136.282 730.02 150.509 729.312 168.617C728.615 186.392 742.852 201.464 760.991 202.151ZM759.961 196.93C759.961 197.305 759.913 197.679 759.875 198.194C753.473 197.748 747.987 195.378 742.955 191.167C743.763 190.39 744.474 189.721 745.164 189.03C749.437 184.764 753.696 180.484 757.993 176.239C758.316 175.923 758.992 175.604 759.315 175.737C759.638 175.871 759.937 176.565 759.94 177.015C759.975 183.655 759.964 190.291 759.958 196.93H759.961ZM763.911 198.201C763.877 197.655 763.832 197.239 763.832 196.827C763.832 190.273 763.815 183.72 763.853 177.17C763.853 176.672 764.227 176.177 764.426 175.679C764.914 175.885 765.522 175.968 765.872 176.315C770.564 180.947 775.234 185.603 779.883 190.284C780.151 190.552 780.401 190.837 780.766 191.225C775.83 195.395 770.331 197.734 763.908 198.201H763.911ZM783.561 188.432C783.201 188.089 782.916 187.859 782.651 187.594C777.955 182.902 773.266 178.208 768.586 173.512C768.263 173.185 767.923 172.533 768.043 172.196C768.163 171.86 768.864 171.561 769.311 171.561C775.988 171.519 782.668 171.53 789.349 171.537C789.693 171.537 790.015 171.578 790.517 171.612C790.07 178.022 787.694 183.521 783.572 188.432H783.561ZM783.561 150.722C787.714 155.63 790.088 161.15 790.534 167.666H788.995C782.524 167.666 776.053 167.666 769.585 167.635C769.053 167.635 768.524 167.233 767.995 167.02C768.211 166.536 768.314 165.935 768.682 165.581C773.291 160.921 777.922 156.28 782.572 151.66C782.84 151.364 783.156 151.086 783.551 150.722H783.561ZM763.842 141.682C763.842 141.517 763.88 141.338 763.932 140.95C770.341 141.417 775.843 143.756 780.717 147.885C780.546 148.131 780.36 148.368 780.161 148.592C775.352 153.401 770.532 158.21 765.701 163.019C765.533 163.171 765.335 163.285 765.119 163.353C764.903 163.42 764.675 163.44 764.45 163.41C764.172 163.341 763.863 162.723 763.86 162.38C763.818 155.472 763.829 148.579 763.832 141.682H763.842ZM761.888 166.831C762.434 166.831 762.967 166.994 763.42 167.298C763.873 167.602 764.225 168.034 764.431 168.539C764.638 169.045 764.689 169.6 764.579 170.134C764.468 170.669 764.201 171.158 763.812 171.54C763.423 171.922 762.928 172.18 762.392 172.28C761.855 172.38 761.301 172.318 760.8 172.102C760.299 171.887 759.874 171.526 759.578 171.068C759.282 170.609 759.13 170.073 759.14 169.527C759.165 168.813 759.463 168.136 759.972 167.635C760.481 167.133 761.163 166.845 761.878 166.831H761.888ZM759.899 140.946C759.927 141.517 759.968 141.977 759.971 142.423C759.971 148.932 759.971 155.441 759.947 161.95C759.95 162.497 759.745 163.025 759.374 163.427C758.625 164.066 758.254 163.18 757.852 162.778C753.272 158.221 748.693 153.654 744.113 149.077C743.708 148.724 743.283 148.396 742.839 148.094C747.939 143.777 753.435 141.42 759.889 140.946H759.899ZM740.293 150.66C742.031 152.412 743.656 154.05 745.284 155.682C748.647 159.044 752.023 162.397 755.358 165.787C755.509 165.955 755.622 166.154 755.688 166.37C755.755 166.586 755.773 166.813 755.743 167.037C755.671 167.319 755.056 167.635 754.713 167.638C747.812 167.673 740.912 167.662 734.011 167.655C733.846 167.655 733.668 167.618 733.297 167.573C733.688 161.181 736.069 155.675 740.293 150.66ZM734.688 171.526C741.241 171.526 747.792 171.509 754.342 171.547C754.836 171.547 755.327 171.935 755.819 172.141C755.602 172.625 755.496 173.223 755.132 173.58C750.526 178.238 745.882 182.854 741.248 187.491C740.953 187.787 740.637 188.061 740.242 188.432C736.141 183.733 733.685 177.824 733.249 171.602C733.767 171.571 734.228 171.526 734.674 171.526H734.688ZM790.675 140.5C790.184 139.95 789.899 139.245 789.871 138.508C789.799 134.266 789.851 130.02 789.823 125.778C789.823 124.315 789.112 123.535 787.92 123.525C786.728 123.515 786.021 124.281 785.99 125.741C785.959 127.2 785.99 128.739 785.99 130.24C785.99 132.239 785.99 134.242 785.99 136.423C784.719 135.626 783.685 134.881 782.555 134.304C781.707 133.864 781.48 133.304 781.483 132.38C781.521 123.724 781.483 115.069 781.525 106.413C781.525 105.231 781.257 104.314 780.188 103.73H778.904C777.915 104.383 777.612 105.297 777.626 106.478C777.681 110.157 777.647 113.832 777.647 117.638C776.481 117.306 775.261 117.212 774.059 117.361C772.856 117.509 771.696 117.898 770.647 118.504C771.334 115.539 770.55 113.197 768.359 111.397C767.361 110.576 766.209 109.961 764.97 109.589C763.732 109.217 762.432 109.095 761.146 109.23C755.582 109.676 752.676 112.984 753.102 118.39C750.931 117.325 748.715 116.934 746.194 117.683V115.605C746.194 112.565 746.157 109.522 746.212 106.478C746.236 105.31 745.92 104.397 744.937 103.73H743.653C742.584 104.314 742.313 105.228 742.316 106.41C742.354 115.055 742.316 123.7 742.358 132.346C742.358 133.266 742.138 133.83 741.279 134.266C740.18 134.822 739.17 135.557 737.844 136.378V134.778C737.844 125.404 737.844 116.03 737.862 106.657C737.862 105.479 737.666 104.476 736.694 103.73H735.141C734.152 104.466 733.956 105.475 733.96 106.65C733.987 117.191 733.96 127.733 733.994 138.274C733.998 139.159 733.651 140.009 733.029 140.637C731.078 142.904 729.209 145.247 727.413 147.637C727.253 147.843 727.139 148.08 727.079 148.333C727.018 148.586 727.013 148.849 727.063 149.105C727.113 149.36 727.218 149.601 727.369 149.813C727.521 150.024 727.716 150.201 727.942 150.33C728.794 150.863 729.862 150.639 730.559 149.774C730.748 149.54 730.903 149.279 731.074 149.035C740.132 136.364 752.425 130.855 767.827 133.07C788.181 135.993 802.305 156.297 798.273 176.418C794.257 196.477 775.871 209.258 755.63 206.067C738.603 203.377 725.173 187.938 724.851 170.716C724.744 166.34 725.384 161.979 726.743 157.818C727.049 156.898 727.142 155.936 726.252 155.39C725.716 155.063 724.799 154.909 724.27 155.149C723.741 155.39 723.24 156.18 723.058 156.805C718.361 172.632 721.704 186.536 733.087 198.517C733.38 198.786 733.612 199.116 733.767 199.483C733.921 199.849 733.995 200.245 733.984 200.643C733.946 205.187 733.963 209.728 733.984 214.272C733.96 214.785 733.999 215.298 734.1 215.801C734.348 216.756 735.038 217.209 736.014 217.175C736.425 217.18 736.825 217.037 737.14 216.772C737.456 216.508 737.665 216.139 737.731 215.732C737.81 215.268 737.841 214.798 737.824 214.327C737.824 210.941 737.824 207.557 737.824 204.171C737.824 203.738 737.862 203.302 737.889 202.745C739.126 203.525 740.139 204.253 741.235 204.806C742.079 205.242 742.327 205.788 742.323 206.723C742.286 215.292 742.303 223.862 742.303 232.432C742.284 232.861 742.294 233.29 742.334 233.717C742.373 233.992 742.47 234.255 742.62 234.489C742.77 234.723 742.969 234.922 743.202 235.073C743.436 235.223 743.699 235.322 743.974 235.362C744.249 235.402 744.53 235.382 744.796 235.304C745.498 235.117 746.233 235.09 746.947 235.225C751.412 236.289 755.458 232.133 754.221 227.716C753.273 224.323 750.364 222.77 746.232 223.509V207.365C756.672 211.487 767.108 211.487 777.54 207.365V223.509C777.145 223.43 776.822 223.351 776.51 223.302C775.278 223.08 774.007 223.241 772.869 223.763C771.732 224.286 770.782 225.145 770.149 226.225C769.539 227.268 769.256 228.469 769.335 229.674C769.415 230.879 769.854 232.032 770.595 232.985C772.144 235.012 774.689 235.784 777.272 235.091C777.784 234.987 778.314 235.028 778.804 235.207C779.694 235.503 780.522 235.389 780.982 234.641C781.307 234.053 781.469 233.389 781.453 232.717C781.48 224.017 781.452 215.32 781.49 206.613C781.49 206.125 781.645 205.438 781.981 205.191C783.177 204.315 784.485 203.587 785.949 202.68V232.363C785.949 234.424 786.581 235.383 787.917 235.348C789.253 235.314 789.806 234.4 789.806 232.405C789.806 221.819 789.806 211.236 789.84 200.65C789.849 199.911 790.122 199.199 790.61 198.644C806.856 182.37 806.877 156.802 790.647 140.5H790.675ZM752.264 129.715C749.403 129.746 746.253 126.661 746.212 123.79C746.187 122.031 747.149 121.087 748.904 121.145C751.831 121.238 754.826 124.353 754.768 127.242C754.719 128.76 753.768 129.701 752.236 129.715H752.264ZM765.367 125.699C765.227 126.651 765.336 127.64 765.336 128.684H758.828C758.5 126.772 758.172 124.837 757.842 122.879C760.557 123.898 763.557 123.857 766.243 122.763C765.883 123.848 765.484 124.755 765.34 125.699H765.367ZM766.109 118.301C765.137 119.218 763.65 119.737 761.967 119.747L761.812 120.09C760.476 119.51 759.016 119.115 757.831 118.308C756.372 117.312 756.457 115.653 757.776 114.475C759.879 112.589 764.028 112.599 766.092 114.492C767.322 115.656 767.329 117.13 766.082 118.301H766.109ZM771.495 129.715C770.032 129.67 769.118 128.76 769.074 127.293C768.981 124.308 772.165 121.086 775.143 121.135C776.75 121.162 777.636 122.09 777.63 123.742C777.588 126.658 774.36 129.79 771.468 129.715H771.495ZM748.434 227.132C748.721 227.129 749.006 227.184 749.273 227.293C749.539 227.402 749.78 227.563 749.984 227.766C750.187 227.97 750.347 228.211 750.456 228.478C750.564 228.744 750.618 229.029 750.615 229.317C750.613 229.896 750.385 230.452 749.981 230.868C749.577 231.283 749.027 231.525 748.448 231.543C748.15 231.546 747.854 231.49 747.578 231.376C747.303 231.263 747.053 231.094 746.844 230.881C746.636 230.668 746.472 230.416 746.364 230.138C746.256 229.86 746.205 229.563 746.215 229.265C746.216 228.98 746.274 228.699 746.386 228.437C746.497 228.175 746.659 227.938 746.863 227.739C747.067 227.541 747.309 227.385 747.574 227.28C747.839 227.176 748.122 227.126 748.406 227.132H748.434ZM775.418 231.543C775.12 231.538 774.826 231.474 774.553 231.354C774.281 231.234 774.035 231.06 773.831 230.843C773.627 230.626 773.468 230.371 773.365 230.091C773.262 229.812 773.216 229.515 773.23 229.217C773.261 228.642 773.516 228.101 773.941 227.712C774.367 227.322 774.928 227.115 775.504 227.135C776.08 227.155 776.625 227.4 777.023 227.818C777.42 228.235 777.638 228.792 777.63 229.368C777.618 229.953 777.376 230.509 776.957 230.916C776.537 231.323 775.974 231.548 775.39 231.543H775.418ZM761.953 214.657C760.745 214.651 759.563 215.004 758.556 215.671C757.55 216.338 756.764 217.29 756.299 218.404C755.834 219.519 755.71 220.747 755.945 221.932C756.179 223.116 756.76 224.205 757.614 225.059C758.468 225.913 759.556 226.494 760.741 226.728C761.926 226.962 763.154 226.839 764.268 226.374C765.383 225.909 766.334 225.123 767.002 224.116C767.669 223.11 768.022 221.927 768.016 220.719C767.993 219.115 767.345 217.583 766.208 216.45C765.071 215.317 763.537 214.674 761.933 214.657H761.953ZM761.981 222.973C761.54 222.985 761.106 222.866 760.733 222.631C760.36 222.395 760.066 222.054 759.887 221.651C759.709 221.248 759.654 220.801 759.73 220.367C759.806 219.933 760.01 219.531 760.315 219.213C760.62 218.895 761.013 218.675 761.443 218.58C761.874 218.486 762.323 218.522 762.733 218.683C763.143 218.845 763.496 219.125 763.747 219.487C763.998 219.85 764.135 220.279 764.141 220.719C764.137 221.305 763.907 221.866 763.5 222.285C763.092 222.705 762.538 222.951 761.953 222.973H761.981Z" fill="#6A3834"/>
<path d="M1035.65 100.633C1036.06 100.633 1036.46 100.512 1036.8 100.285C1037.14 100.057 1037.4 99.7342 1037.56 99.3565C1037.71 98.9787 1037.75 98.5632 1037.67 98.1628C1037.59 97.7625 1037.39 97.3955 1037.1 97.1081C1036.81 96.8207 1036.44 96.6259 1036.04 96.5488C1035.64 96.4716 1035.23 96.5154 1034.85 96.6745C1034.47 96.8337 1034.15 97.1011 1033.93 97.4427C1033.7 97.7843 1033.59 98.1847 1033.59 98.5932C1033.6 99.1362 1033.82 99.6552 1034.2 100.037C1034.59 100.419 1035.11 100.633 1035.65 100.633ZM1025.33 94.4508C1025.74 94.4563 1026.14 94.34 1026.48 94.1169C1026.82 93.8938 1027.09 93.5739 1027.25 93.1978C1027.41 92.8218 1027.46 92.4066 1027.38 92.005C1027.3 91.6035 1027.11 91.2337 1026.82 90.9427C1026.53 90.6518 1026.17 90.4528 1025.77 90.371C1025.37 90.2892 1024.95 90.3284 1024.57 90.4835C1024.19 90.6387 1023.87 90.9028 1023.64 91.2423C1023.42 91.5817 1023.29 91.9812 1023.29 92.3899C1023.29 92.9336 1023.5 93.4563 1023.88 93.8442C1024.26 94.2321 1024.78 94.454 1025.33 94.4612V94.4508ZM1046.01 90.3291C1046.42 90.3193 1046.82 90.1884 1047.15 89.9529C1047.48 89.7174 1047.74 89.388 1047.89 89.0065C1048.03 88.625 1048.06 88.2086 1047.97 87.8103C1047.88 87.412 1047.67 87.0498 1047.38 86.7695C1047.08 86.4892 1046.7 86.3036 1046.3 86.2362C1045.9 86.1688 1045.49 86.2226 1045.11 86.391C1044.74 86.5593 1044.43 86.8347 1044.21 87.1817C1044 87.5288 1043.89 87.932 1043.9 88.3403C1043.92 88.8863 1044.15 89.4047 1044.54 89.7815C1044.94 90.1582 1045.47 90.3626 1046.01 90.3497V90.3291ZM1012.91 94.4508C1013.32 94.4657 1013.73 94.3588 1014.07 94.1437C1014.42 93.9286 1014.7 93.6151 1014.87 93.2429C1015.03 92.8708 1015.09 92.4568 1015.02 92.0537C1014.95 91.6505 1014.77 91.2764 1014.49 90.9788C1014.21 90.6812 1013.85 90.4736 1013.45 90.3824C1013.05 90.2912 1012.63 90.3205 1012.25 90.4666C1011.87 90.6127 1011.54 90.8691 1011.3 91.203C1011.07 91.5369 1010.94 91.9332 1010.93 92.3418C1010.91 92.8856 1011.11 93.4137 1011.48 93.8106C1011.86 94.2076 1012.37 94.4415 1012.91 94.4612V94.4508ZM1065.91 78.0084C1063.08 78.0084 1060.25 78.0084 1057.41 78.0084C1057.04 78.0084 1056.68 77.9604 1056.26 77.933C1056.26 75.4702 1056.3 73.1242 1056.26 70.7645C1056.18 67.4259 1056.3 64.0563 1055.87 60.7624C1054.84 52.9997 1051.4 46.3363 1045.83 40.8406C1045.24 40.2567 1045.11 39.7758 1045.49 39.0717C1046.13 37.9142 1046.68 36.6982 1047.38 35.575C1049.57 32.1375 1052.23 29.023 1055.28 26.3217C1056.03 25.6348 1056.49 24.8551 1056.08 23.8213C1055.67 22.7874 1054.87 22.468 1053.82 22.4817C1049.23 22.5401 1044.77 23.2546 1040.53 25.0785C1040.05 25.2845 1039.57 25.5078 1039.1 25.7242C1041.13 22.1572 1043.75 18.9553 1046.84 16.251C1047.64 15.5297 1048.31 14.7535 1047.87 13.5857C1047.43 12.4178 1046.41 12.1808 1045.25 12.2117C1040.44 12.3114 1035.79 13.1631 1031.41 15.2137C1030.92 13.3451 1030.54 11.4972 1029.94 9.718C1028.71 6.05995 1026.66 2.98235 1023.38 0.760043C1021.85 -0.270394 1020.55 -0.242896 1019.03 0.780672C1015.19 3.37737 1013.13 7.12132 1011.94 11.4492C1011.59 12.6651 1011.37 13.9119 1011.07 15.2274C1006.47 13.0635 1001.69 12.2495 996.746 12.2049C995.747 12.2049 994.988 12.5483 994.593 13.51C994.198 14.4718 994.545 15.2515 995.256 15.9144C996.155 16.7731 997.121 17.5768 997.928 18.5145C999.865 20.7608 1001.72 23.0725 1003.61 25.36L1003.3 25.6727C1002.95 25.5318 1002.61 25.4048 1002.27 25.2502C997.852 23.2408 993.184 22.5023 988.372 22.4817C987.94 22.4489 987.509 22.5565 987.143 22.7887C986.778 23.0208 986.496 23.3649 986.342 23.7698C985.957 24.6766 986.243 25.4425 986.902 26.102C987.208 26.4043 987.537 26.6756 987.847 26.9745C991.525 30.4986 994.761 34.3488 996.925 39.0167C997.285 39.7998 997.189 40.2774 996.557 40.8922C993.137 44.22 990.458 48.2322 988.695 52.6666C987.042 56.7961 986.178 61.1988 986.146 65.6467L978.624 68.5663C979.129 64.5751 979.6 60.5118 981.527 56.7781C981.791 56.2664 982.145 55.5519 981.97 55.126C981.688 54.4024 981.16 53.8015 980.479 53.4292C980.268 53.3364 980.041 53.2876 979.81 53.2863C979.58 53.285 979.352 53.3312 979.14 53.4217C978.928 53.5122 978.737 53.6451 978.578 53.8125C978.42 53.9798 978.298 54.1777 978.219 54.3943C977.278 56.675 976.285 58.966 975.667 61.3428C974.98 63.9361 974.719 66.6291 974.248 69.401C974.007 69.3385 973.77 69.2581 973.541 69.1605C973.163 68.9613 972.799 68.7346 972.431 68.5148C966.293 64.8602 960.018 64.5303 953.952 68.391C946.739 72.973 944.469 80.0041 945.101 88.1617C945.314 90.9301 945.887 93.6574 946.251 96.4258C947.089 102.773 948.872 108.815 952.166 114.342C956.721 121.981 965.071 125.096 973.183 122.077C974.963 121.376 976.946 121.397 978.71 122.135C985.037 124.492 990.766 123.166 995.832 118.838C996.519 118.244 996.99 118.168 997.821 118.542C1005.9 122.207 1014.37 123.901 1023.24 123.049C1039.95 121.445 1053.03 113.62 1062.4 99.7472C1066.26 94.1319 1068.41 87.5199 1068.6 80.7083C1068.66 78.7333 1067.93 78.0223 1065.91 78.0188V78.0084ZM1055.92 82.199C1053.56 92.7369 1047.29 100.256 1038.28 105.631C1026.65 112.569 1013.21 112.277 1003.1 107.16C1005.31 99.0088 1006.9 90.7756 1006.72 82.199H1055.92ZM1012.89 68.0544L1021.14 59.0279L1029.11 67.7522L1021.38 76.2464L1012.89 68.0544ZM1016.48 78.0153C1013.29 78.0153 1009.67 78.0325 1006.05 77.9845C1005.76 77.9845 1005.4 77.5654 1005.21 77.2562C1004.96 76.8085 1004.75 76.3422 1004.57 75.8617L1009.64 70.4314L1016.48 78.0153ZM1032.87 70.3798L1039.69 77.9605H1025.94L1032.87 70.3798ZM1024.93 56.2971L1032.89 47.6622L1040.96 56.4793L1032.99 65.1109L1024.93 56.2971ZM1032.95 42.1561L1026.71 35.3347C1029.74 35.7743 1033.09 36.9834 1036.23 38.7249L1032.95 42.1561ZM1029.24 45.2268L1021.38 53.7177L1013.38 44.9109L1021.2 36.396L1029.24 45.2268ZM1009.6 42.321L1006.33 38.687C1009.3 36.9919 1012.56 35.8426 1015.94 35.2934L1009.6 42.321ZM1009.6 47.7239L1017.55 56.4414L1009.46 65.1624L1001.51 56.4174C1003.97 53.7898 1006.7 50.86 1009.62 47.7206L1009.6 47.7239ZM1006.4 67.5323L1002.14 72.063C999.175 68.7484 995.596 66.6461 991.598 65.9729L997.78 59.1927L1006.4 67.5323ZM1049.02 77.9157C1049.96 76.9127 1050.92 75.8961 1052.11 74.6493V77.9157H1049.02ZM1051.03 69.9779L1044.48 76.3014C1041.73 73.2926 1039.08 70.3832 1036.55 67.6044L1044.45 59.1619C1045.38 60.0412 1046.12 60.728 1046.85 61.4287C1048.24 62.7683 1049.62 64.1102 1051 65.4543C1052.63 67.0309 1052.65 68.4221 1051.04 69.9746L1051.03 69.9779ZM1050 54.2775L1051.68 59.9312L1051.33 60.1271L1047.91 56.2423L1050 54.2775ZM1047.89 50.1214L1044.63 53.6283L1036.46 44.7185L1039.87 41.1223C1043.12 43.5595 1045.85 46.6172 1047.9 50.118L1047.89 50.1214ZM1045.68 27.651C1046.56 27.414 1047.47 27.256 1048.3 27.0739L1041.52 37.0727C1039.94 36.1762 1038.16 35.1801 1036.37 34.1565C1035.39 33.5966 1035.93 33.03 1036.45 32.5491C1039.12 30.1139 1042.24 28.5751 1045.69 27.6477L1045.68 27.651ZM1040.45 16.7318C1036.38 21.5027 1033.04 26.229 1031.9 32.2467L1026.63 31.1546C1026.42 31.1099 1026.21 31.0617 1026 31.0308C1023.91 30.7354 1023.07 28.97 1024.18 27.1427C1027.84 21.1421 1033.31 17.9684 1040.46 16.7285L1040.45 16.7318ZM1019.02 6.29009C1021.25 3.76552 1021.18 3.79647 1023.36 6.24548C1026.09 9.33679 1026.88 13.1905 1027.32 17.1405C1027.31 17.2829 1027.28 17.4229 1027.22 17.5526C1027.16 17.6823 1027.08 17.7991 1026.97 17.8963C1025.02 19.8472 1023.04 21.7776 1021.2 23.5912C1019.39 21.8016 1017.48 19.9262 1015.59 18.0199C1015.31 17.7769 1015.14 17.4391 1015.11 17.0753C1015.55 13.1596 1016.35 9.33675 1019.03 6.29009H1019.02ZM1002.1 16.8864C1010.33 17.7555 1017.43 23.4812 1019.83 30.5329L1010.53 32.1471C1009.4 26.2839 1006.05 21.4787 1002.11 16.8829L1002.1 16.8864ZM994.139 27.1083C997.712 27.6162 1001.11 28.9601 1004.07 31.0308C1004.81 31.5467 1005.51 32.121 1006.15 32.7482C1006.7 33.2806 1006.75 33.8165 1005.92 34.263C1004.19 35.1904 1002.49 36.1831 1000.9 37.0796L994.139 27.1083ZM1002.48 41.1703C1003.73 42.5648 1004.95 43.9183 1005.97 45.0655L997.983 53.6525L994.654 49.9359C996.665 46.5272 999.328 43.5476 1002.49 41.167L1002.48 41.1703ZM992.463 54.0337L994.524 56.3419L990.952 60.1202L990.742 60.0479C991.292 58.1553 991.831 56.2594 992.463 54.0337ZM995.915 112.343C993.294 116.773 989.306 119.264 984.02 119.095C982.439 119.008 980.885 118.646 979.428 118.024C978.314 117.524 977.107 117.267 975.886 117.271C974.665 117.274 973.46 117.538 972.349 118.044C968.296 119.793 964.322 119.501 960.537 117.182C958.215 115.757 956.532 113.748 955.22 111.378C952.286 106.081 950.885 100.342 950.133 94.3993C949.858 92.2354 949.408 90.0886 949.222 87.9178C948.697 81.718 950.174 76.2395 955.426 72.341C959.891 69.0436 965.593 69.0127 970.281 71.9976C971.425 72.7223 972.71 73.2203 974.059 73.8798C973.987 75.0545 973.905 76.3667 973.805 77.9536C972.795 77.4178 971.916 77.0125 971.102 76.5007C969.938 75.7691 968.856 75.8137 968.114 76.7308C967.372 77.6479 967.53 78.881 968.591 79.7844C972.273 82.9238 979.613 82.9031 983.227 79.7431C984.233 78.8638 984.415 77.7269 983.697 76.7892C982.98 75.8515 981.874 75.7587 980.723 76.4732C979.909 76.9781 979.036 77.3937 977.951 77.9776C978.044 76.4182 978.109 75.1886 978.205 73.9623C978.216 73.8616 978.248 73.7644 978.3 73.6777C978.353 73.591 978.423 73.517 978.507 73.4609C980.256 72.5781 981.984 71.6266 983.79 70.8675C991.659 67.5632 999.69 72.585 1001.91 80.3029C1002.88 83.6759 1002.85 87.0592 1002.2 90.4699C1001.32 95.0863 1000.69 99.7644 999.494 104.298C998.749 107.098 997.406 109.828 995.915 112.346V112.343ZM1059.46 96.687C1050.95 109.849 1038.85 117.296 1023.21 118.927C1015.37 119.741 1007.84 118.34 1000.6 115.279C1000.21 115.118 999.834 114.936 999.412 114.723L1001.37 111.061C1013.54 116.43 1025.72 116.595 1037.64 110.618C1049.46 104.693 1057.34 95.4366 1060.15 82.199H1064.37C1063.99 87.3666 1062.3 92.3529 1059.47 96.6903L1059.46 96.687ZM1019.19 106.799C1019.59 106.794 1019.99 106.668 1020.33 106.436C1020.67 106.205 1020.93 105.878 1021.08 105.499C1021.23 105.119 1021.26 104.703 1021.18 104.304C1021.09 103.904 1020.89 103.539 1020.59 103.255C1020.3 102.972 1019.93 102.782 1019.52 102.71C1019.12 102.637 1018.71 102.687 1018.33 102.851C1017.96 103.015 1017.64 103.286 1017.42 103.631C1017.2 103.976 1017.09 104.378 1017.1 104.786C1017.11 105.331 1017.34 105.849 1017.73 106.227C1018.12 106.605 1018.65 106.812 1019.2 106.802L1019.19 106.799Z" fill="#6A3834"/>
<path d="M1322.4 140.243H1285.45V174.969H1291.83C1290.52 176.645 1289.19 178.15 1288.1 179.816C1287.51 180.709 1286.93 181.004 1285.91 180.997C1277.04 180.963 1268.18 180.977 1259.31 180.977H1257.71V168.993H1253.55V180.863H1234.31V169.006H1230.16V181.014H1198.39V201.936C1193.54 200.033 1189.82 200.782 1187.12 204.117C1185.99 205.542 1185.34 207.286 1185.26 209.102C1185.18 210.917 1185.68 212.711 1186.68 214.229C1189.08 217.894 1192.54 218.739 1198.33 217.08V220.803H1182V235.442H1193.79C1193.73 234.127 1193.67 232.815 1193.61 231.382H1294.17V235.442H1305.96V220.789H1289.75C1289.08 218.316 1289.28 217.753 1291.19 216.516C1295.32 213.83 1299.45 211.134 1303.61 208.472C1304.13 208.115 1304.72 207.88 1305.35 207.785C1314.23 206.882 1320.65 200.888 1322.18 192.016C1322.23 191.847 1322.31 191.685 1322.4 191.535V187.149C1322.2 186.314 1322.01 185.476 1321.79 184.648C1320.9 181.277 1319.07 178.227 1316.52 175.852C1316.22 175.577 1316.01 175.218 1315.91 174.822H1322.4L1322.4 140.243ZM1197.62 211.498C1197.13 213.126 1195.23 214.201 1193.39 213.975C1192.33 213.858 1191.35 213.374 1190.61 212.607C1189.87 211.84 1189.42 210.838 1189.35 209.776C1189.27 208.714 1189.57 207.659 1190.19 206.794C1190.81 205.929 1191.72 205.31 1192.75 205.044C1194.62 204.577 1197.09 205.439 1197.73 207.425H1193.98V211.488L1197.62 211.498ZM1189.42 231.207H1186.17V224.945H1189.42V231.207ZM1202.64 185.205H1285.32V220.642H1202.64V185.205ZM1298.51 224.956H1301.76V231.248H1298.51V224.956ZM1294.19 224.99V227.013H1193.73V224.98L1294.19 224.99ZM1289.59 212.625V201.142C1291.92 203.819 1294.91 205.833 1298.27 206.982L1289.59 212.625ZM1318.27 188.884C1318.32 190.793 1317.99 192.694 1317.3 194.475C1316.61 196.257 1315.58 197.885 1314.25 199.264C1312.93 200.644 1311.35 201.749 1309.6 202.515C1307.85 203.282 1305.97 203.694 1304.06 203.729C1296.43 203.924 1289.67 197.457 1289.5 189.787C1289.45 187.877 1289.78 185.977 1290.47 184.196C1291.16 182.414 1292.19 180.787 1293.51 179.407C1294.83 178.027 1296.41 176.922 1298.16 176.156C1299.91 175.39 1301.8 174.977 1303.7 174.942C1311.36 174.777 1318.07 181.203 1318.27 188.894V188.884ZM1318.22 170.72H1289.59V144.42H1318.22V170.72ZM1206.95 136.936C1213.22 143.142 1219.43 149.397 1225.69 155.611C1226.01 155.892 1226.26 156.242 1226.42 156.635C1226.59 157.028 1226.66 157.452 1226.64 157.878C1226.58 160.371 1226.62 162.869 1226.62 165.362H1261.31C1261.31 162.879 1261.36 160.502 1261.29 158.132C1261.25 157.64 1261.33 157.147 1261.52 156.69C1261.7 156.233 1261.99 155.824 1262.36 155.494C1268.59 149.311 1274.77 143.098 1281 136.919C1281.34 136.62 1281.61 136.249 1281.79 135.833C1281.96 135.417 1282.05 134.967 1282.03 134.514C1281.97 130.358 1282 126.199 1282 122.039V118.079H1206.02C1205.99 118.618 1205.95 119.109 1205.95 119.594C1205.95 124.529 1205.97 129.465 1205.93 134.401C1205.9 134.875 1205.97 135.349 1206.15 135.789C1206.33 136.23 1206.6 136.625 1206.95 136.946V136.936ZM1257.1 161.278H1230.81V157.881H1257.09L1257.1 161.278ZM1210.17 122.238H1277.78C1277.81 122.712 1277.86 123.193 1277.86 123.671C1277.86 126.779 1277.91 129.888 1277.82 132.993C1277.8 133.737 1277.51 134.448 1277.02 135.005C1271.11 140.989 1265.17 146.934 1259.18 152.842C1258.67 153.318 1258.01 153.599 1257.31 153.636C1248.4 153.686 1239.5 153.686 1230.59 153.636C1230.02 153.648 1229.46 153.459 1229.02 153.103C1223.82 147.965 1218.65 142.799 1213.5 137.606C1213.41 137.479 1213.34 137.343 1213.28 137.2H1243.88V133.079H1210.17V122.238ZM1298.67 168.285C1299.87 168.272 1301.04 167.903 1302.03 167.225C1303.03 166.547 1303.8 165.59 1304.25 164.475C1304.7 163.36 1304.8 162.136 1304.56 160.959C1304.31 159.782 1303.73 158.704 1302.87 157.86C1302.01 157.017 1300.92 156.446 1299.74 156.221C1298.56 155.995 1297.34 156.124 1296.23 156.592C1295.13 157.06 1294.18 157.845 1293.52 158.849C1292.86 159.853 1292.51 161.031 1292.51 162.233C1292.53 163.85 1293.19 165.394 1294.34 166.528C1295.49 167.662 1297.05 168.293 1298.67 168.285ZM1298.62 160.237C1299.14 160.244 1299.63 160.457 1299.99 160.829C1300.36 161.201 1300.56 161.702 1300.55 162.221C1300.54 162.74 1300.33 163.236 1299.96 163.598C1299.59 163.96 1299.09 164.16 1298.57 164.153C1298.05 164.146 1297.55 163.933 1297.19 163.561C1296.83 163.189 1296.63 162.689 1296.63 162.169C1296.64 161.65 1296.85 161.155 1297.23 160.793C1297.6 160.43 1298.1 160.231 1298.62 160.237ZM1251.06 178.528V167.962H1236.92V178.514L1251.06 178.528ZM1241.05 172.057H1246.92V174.43H1241.05L1241.05 172.057ZM1260.83 124.756H1237.2V128.692H1260.83V124.756ZM1245.35 114.38H1249.24V110.392H1245.35V114.38ZM1255.93 114.38V110.423H1252.19V114.38H1255.93ZM1227.24 113.548C1227.16 111.676 1227.27 109.602 1229.49 108.489C1231.7 107.376 1233.41 108.75 1235.33 109.787C1236.38 106.438 1237.9 103.515 1240.77 101.544C1243.64 99.5721 1246.89 98.6173 1250.39 99.3661C1258.18 101.035 1261.21 106.39 1261.25 113.572L1268.73 115.932L1270.99 112.995C1270.19 112.515 1269.56 112.061 1268.87 111.724C1268.01 111.293 1267.13 110.93 1266.22 110.639C1265.47 110.416 1265.16 110.089 1265.03 109.265C1263.85 102.189 1258.4 96.5942 1251.53 95.3027C1248.12 94.6505 1244.59 95.0579 1241.42 96.4702C1238.24 97.8824 1235.58 100.232 1233.78 103.203C1233.63 103.521 1233.37 103.78 1233.06 103.939C1232.74 104.098 1232.38 104.148 1232.03 104.082C1228.11 103.783 1225.12 105.727 1223.65 109.337C1223.39 109.815 1222.97 110.189 1222.47 110.395C1220.67 111.216 1218.84 111.955 1216.85 112.799L1219.21 115.867L1227.24 113.548ZM1267.67 124.746H1263.75V128.672H1267.68L1267.67 124.746ZM1274.49 124.725H1270.62V128.689H1274.49L1274.49 124.725ZM1238.45 114.38H1242.38V110.45H1238.45V114.38ZM1276.82 200.222H1280.78V196.265H1276.82V200.222ZM1258.49 197.845C1257.17 197.882 1255.91 198.435 1254.98 199.387C1254.06 200.339 1253.54 201.615 1253.54 202.942C1253.55 204.269 1254.07 205.543 1254.99 206.492C1255.92 207.441 1257.18 207.99 1258.51 208.022C1259.19 208.039 1259.87 207.919 1260.5 207.67C1261.13 207.421 1261.71 207.048 1262.19 206.573C1262.68 206.098 1263.06 205.53 1263.33 204.904C1263.59 204.277 1263.72 203.604 1263.72 202.925C1263.72 202.245 1263.59 201.573 1263.32 200.947C1263.05 200.321 1262.67 199.755 1262.18 199.282C1261.69 198.808 1261.11 198.437 1260.48 198.19C1259.85 197.944 1259.17 197.826 1258.49 197.845ZM1258.62 203.832C1258.28 203.832 1257.96 203.31 1257.63 203.018C1257.95 202.674 1258.22 202.121 1258.61 202.035C1258.9 201.967 1259.32 202.478 1259.95 202.911C1259.34 203.341 1258.97 203.832 1258.62 203.821V203.832ZM1315.22 146.941H1311.26V150.878H1315.22V146.941ZM1258.15 191.446C1248.42 192.27 1238.73 193.586 1229.03 194.74C1227.41 194.932 1225.71 195.111 1224.24 195.75C1220.86 197.227 1219.2 200.744 1219.82 204.46C1220.39 207.895 1223.25 210.488 1227.17 210.945C1237.19 212.12 1247.22 213.265 1257.24 214.38C1264.15 215.139 1269.9 210.062 1270.11 203.114C1270.17 196.34 1264.69 190.883 1258.15 191.436V191.446ZM1227.76 206.868C1226.98 206.884 1226.21 206.669 1225.56 206.249C1224.9 205.829 1224.38 205.224 1224.07 204.51C1223.76 203.796 1223.66 203.005 1223.8 202.238C1223.94 201.471 1224.3 200.762 1224.84 200.201C1225.38 199.64 1226.08 199.252 1226.84 199.086C1227.6 198.921 1228.4 198.985 1229.12 199.271C1229.85 199.557 1230.47 200.051 1230.91 200.692C1231.36 201.333 1231.6 202.091 1231.61 202.87C1231.61 203.905 1231.21 204.899 1230.49 205.643C1229.77 206.387 1228.79 206.822 1227.76 206.858V206.868ZM1234.63 207.665C1235 206.075 1235.63 204.519 1235.66 202.956C1235.68 201.393 1235.04 199.899 1234.66 198.219L1248.8 196.598C1246.44 200.912 1246.42 205.037 1248.86 209.307L1234.63 207.665ZM1258.64 210.413C1254.59 210.488 1251.1 207.03 1251.08 202.942C1251.06 198.855 1254.55 195.386 1258.6 195.454C1260.56 195.494 1262.42 196.298 1263.79 197.695C1265.16 199.091 1265.93 200.969 1265.93 202.925C1265.93 204.882 1265.17 206.761 1263.8 208.161C1262.44 209.56 1260.58 210.369 1258.62 210.413H1258.64ZM1308.33 146.917H1304.4V150.854H1308.33V146.917ZM1309.11 186.857L1313.29 183.079L1310.02 179.723C1308.74 181.169 1307.43 182.632 1305.87 184.377V178.143H1301.82V184.01L1301.44 184.243L1297.81 180.121L1294.18 183.062C1295.72 184.487 1297.1 185.775 1298.74 187.304H1292.64V191.47H1298.48L1298.59 191.789L1294.33 195.719L1297.68 198.91L1301.88 194.445V200.528H1306.04V194.664L1306.43 194.441L1310.24 198.546L1313.52 195.643L1309 191.425H1315.11V187.231H1309.27C1309.22 187.104 1309.17 186.974 1309.12 186.854L1309.11 186.857ZM1276.82 215.987H1280.75V203.152H1276.82V215.987ZM1207.59 218.066H1211.51V214.116H1207.59V218.066ZM1214.41 218.048H1218.35V214.133H1214.41V218.048ZM1280.77 189.416H1276.83V193.407H1280.77V189.416ZM1301.53 146.91H1292.55V150.86H1301.53V146.91ZM1225.71 204.91H1229.64V200.936H1225.71V204.91ZM1221.27 218.031H1224.99V214.085H1221.27V218.031Z" fill="#6A3834"/>
<path d="M1448.21 71.976C1448.21 72.4361 1448.4 72.8766 1448.72 73.202C1449.05 73.5273 1449.49 73.7113 1449.95 73.714C1450.96 73.7964 1451.8 73.2641 1451.9 72.244C1452.04 70.7589 1452.04 69.2638 1451.9 67.7787C1451.8 66.7689 1451 66.2433 1449.96 66.3086C1449.73 66.3031 1449.51 66.3428 1449.3 66.4251C1449.08 66.5075 1448.89 66.6309 1448.73 66.7884C1448.56 66.9459 1448.43 67.1342 1448.34 67.3425C1448.25 67.5508 1448.2 67.775 1448.2 68.002C1448.14 68.6408 1448.2 69.2865 1448.2 69.9288C1448.2 70.5712 1448.16 71.2959 1448.21 71.976ZM1449.03 32.737C1449.84 32.742 1450.63 32.5877 1451.38 32.2828C1452.12 31.978 1452.79 31.5287 1453.36 30.9611C1453.93 30.3934 1454.38 29.7187 1454.69 28.9758C1454.99 28.233 1455.15 27.4368 1455.15 26.6334C1455.14 25.8341 1454.98 25.0439 1454.66 24.3078C1454.35 23.5718 1453.9 22.9045 1453.33 22.3437C1452.76 21.783 1452.09 21.34 1451.34 21.0399C1450.6 20.7399 1449.81 20.5887 1449.01 20.595C1448.21 20.6013 1447.42 20.765 1446.69 21.0767C1445.95 21.3884 1445.28 21.842 1444.72 22.4117C1444.16 22.9813 1443.72 23.6559 1443.42 24.3967C1443.12 25.1376 1442.97 25.9302 1442.97 26.7295C1442.98 28.3289 1443.63 29.8594 1444.76 30.9856C1445.9 32.1117 1447.43 32.7416 1449.03 32.737ZM1449.1 24.4591C1449.68 24.486 1450.22 24.7318 1450.63 25.1469C1451.03 25.562 1451.27 26.1154 1451.28 26.6951C1451.27 27.2749 1451.03 27.8273 1450.62 28.2342C1450.2 28.6411 1449.65 28.8703 1449.07 28.8729C1448.78 28.8806 1448.49 28.8308 1448.23 28.7266C1447.96 28.6224 1447.71 28.4658 1447.51 28.2659C1447.3 28.066 1447.13 27.8268 1447.02 27.5623C1446.91 27.2979 1446.85 27.0137 1446.85 26.7261C1446.84 26.428 1446.89 26.1314 1447 25.8543C1447.12 25.5773 1447.28 25.3254 1447.49 25.1137C1447.7 24.902 1447.95 24.735 1448.23 24.6225C1448.5 24.51 1448.8 24.4544 1449.1 24.4591ZM1439.94 67.7752C1439.8 69.2603 1439.8 70.7553 1439.94 72.2404C1440.04 73.2709 1440.89 73.7862 1441.9 73.7038C1442.36 73.6984 1442.8 73.513 1443.12 73.1874C1443.45 72.8617 1443.63 72.4218 1443.63 71.9622C1443.68 71.3233 1443.63 70.6777 1443.63 70.0353C1443.63 69.393 1443.68 68.6614 1443.63 67.9745C1443.63 67.7475 1443.58 67.5235 1443.49 67.3154C1443.4 67.1072 1443.27 66.9191 1443.1 66.7619C1442.94 66.6047 1442.75 66.4816 1442.54 66.3996C1442.32 66.3177 1442.1 66.2786 1441.87 66.2846C1440.84 66.2399 1440.04 66.762 1439.94 67.7752ZM1494.86 46.4795C1498.63 46.5894 1502.44 42.7013 1502.23 38.923C1502.19 37.8226 1501.77 36.7693 1501.05 35.9417C1500.32 35.1141 1499.33 34.5632 1498.25 34.3823C1494.39 33.6335 1490.1 37.374 1490.08 41.5026C1490.07 44.3294 1492.07 46.4143 1494.86 46.4933V46.4795ZM1497.22 38.1468C1498.08 38.1846 1498.44 38.6517 1498.35 39.4932C1498.19 40.8671 1496.63 42.4129 1495.25 42.5674C1494.42 42.6602 1493.93 42.3407 1493.94 41.4374C1493.95 39.9776 1495.75 38.164 1497.22 38.1606V38.1468ZM1562.02 65.6937C1561.11 62.7897 1559.3 60.2479 1556.86 58.4317C1554.42 56.6155 1551.46 55.6179 1548.42 55.5817C1546.7 55.5474 1545.01 55.5817 1543.16 55.5817V54.0842C1543.16 48.5885 1543.16 43.1135 1543.16 37.6316C1543.16 36.1065 1542.28 35.2066 1541.03 35.3646C1539.91 35.5054 1539.31 36.3401 1539.31 37.824C1539.31 43.1822 1539.31 48.5381 1539.31 53.8918V55.4958H1518.81V25.2697H1539.31C1539.31 26.1937 1539.29 27.1245 1539.31 28.0519C1539.36 29.3606 1540.12 30.1472 1541.26 30.1403C1542.4 30.1334 1543.15 29.3469 1543.15 28.021C1543.17 23.7344 1543.17 19.4489 1543.15 15.1646C1543.15 13.6807 1542.47 13.0075 1540.9 13.0041C1532.98 12.988 1525.05 12.988 1517.12 13.0041C1515.56 13.0041 1514.89 13.7323 1514.88 15.3398C1514.88 18.2079 1514.88 21.0793 1514.88 23.9508C1514.88 33.9346 1514.88 43.9184 1514.88 53.9022V55.489H1510.26V15.9718C1510.26 13.4438 1509.83 13.0178 1507.25 13.0178H1485.01C1482.48 13.0178 1481.98 13.5022 1481.98 15.9924V55.4925H1469.24V38.1193H1474.47C1477.02 38.1193 1477.5 37.6453 1477.5 35.1551C1477.5 24.3928 1477.51 13.6384 1477.52 2.89207C1477.52 1.70706 1477.32 0.697262 1476.28 0H1447.48C1447.25 0.240435 1446.88 0.446563 1446.81 0.728216C1446.65 1.39457 1446.33 2.29099 1446.62 2.73408C1446.86 3.04118 1447.15 3.29568 1447.49 3.48091C1447.83 3.66615 1448.2 3.77793 1448.59 3.80913C1453.64 3.89843 1458.7 3.85726 1463.75 3.85726H1465.21V80.436H1434.94V3.87102C1436.09 3.87102 1437.27 3.84697 1438.45 3.87102C1439.53 3.89849 1440.56 3.81268 1441.03 2.64486C1441.49 1.47703 1440.82 0.711008 1440.02 0.00687629H1432.31C1431.2 0.645747 1431 1.64176 1431 2.84393C1431.02 37.8925 1431.03 72.9424 1431.02 107.993V128.818C1431.02 131.137 1431.55 131.656 1433.91 131.659H1439.95C1442.78 131.659 1443.17 131.278 1443.17 128.509C1443.17 114.367 1443.17 100.226 1443.17 86.0861V84.3687H1514.82C1515.29 84.3905 1515.76 84.3813 1516.23 84.3412C1516.66 84.3085 1517.07 84.1186 1517.38 83.807C1517.68 83.4954 1517.86 83.0835 1517.89 82.648C1517.96 82.2164 1517.86 81.7738 1517.62 81.4081C1517.38 81.0423 1517.02 80.78 1516.59 80.673C1516.05 80.5418 1515.5 80.4896 1514.94 80.5183C1500.2 80.5183 1485.46 80.5183 1470.72 80.5183H1469.26V76.0977H1547.15C1547.62 76.0977 1548.1 76.1149 1548.57 76.0977C1550.04 76.0233 1551.43 75.422 1552.5 74.404C1553.56 73.3859 1554.22 72.0194 1554.36 70.5541C1554.49 69.1771 1554.14 67.7965 1553.37 66.6479C1552.6 65.4992 1551.45 64.6534 1550.13 64.2546C1549.22 64.0256 1548.28 63.9251 1547.34 63.9559C1521.88 63.9421 1496.42 63.9421 1470.96 63.9559H1469.25V59.4425H1547.39C1547.82 59.4425 1548.25 59.4425 1548.67 59.4425C1551.38 59.5538 1553.94 60.6975 1555.83 62.6383C1557.72 64.5791 1558.79 67.1696 1558.83 69.8774C1558.85 71.2524 1558.59 72.6179 1558.09 73.8956C1557.58 75.1734 1556.82 76.3383 1555.86 77.3235C1554.9 78.3088 1553.76 79.0952 1552.49 79.6375C1551.23 80.1798 1549.87 80.4674 1548.5 80.4839C1540.94 80.5458 1533.41 80.5011 1525.87 80.5046C1523.98 80.5046 1523.1 81.1057 1523.08 82.4075C1523.05 83.7093 1523.95 84.3585 1525.79 84.3585C1528.28 84.3585 1530.77 84.3585 1533.25 84.3585C1533.62 84.3585 1533.99 84.4066 1534.4 84.4375V86.093C1534.4 100.407 1534.4 114.719 1534.4 129.028C1534.4 131.023 1535.02 131.642 1537 131.645C1539.19 131.645 1541.37 131.645 1543.56 131.645C1546.09 131.645 1546.56 131.185 1546.56 128.66C1546.56 114.438 1546.56 100.212 1546.56 85.9831V84.3481C1547.31 84.3481 1547.89 84.3481 1548.48 84.3481C1551.5 84.3158 1554.44 83.3286 1556.86 81.5276C1559.29 79.7267 1561.08 77.2045 1561.99 74.322C1562.26 73.4736 1562.45 72.6045 1562.68 71.7321V68.1325C1562.47 67.339 1562.27 66.5146 1562 65.7075L1562.02 65.6937ZM1518.81 16.9197H1539.25V21.2063H1518.81V16.9197ZM1439.19 127.76H1434.95V84.4821H1439.19V127.76ZM1469.21 3.94313H1473.55V34.1968H1469.21V3.94313ZM1470.64 67.789H1547.47C1547.9 67.7726 1548.33 67.798 1548.75 67.8646C1549.23 67.9392 1549.65 68.1762 1549.97 68.5345C1550.28 68.8928 1550.46 69.3497 1550.47 69.8259C1550.54 70.2781 1550.45 70.7401 1550.21 71.1325C1549.98 71.5249 1549.62 71.8231 1549.18 71.976C1548.62 72.1635 1548.02 72.2484 1547.43 72.2267C1521.81 72.2267 1496.2 72.2267 1470.59 72.2267H1469.19V67.844C1469.72 67.8302 1470.18 67.789 1470.64 67.789ZM1485.91 16.9987H1506.31V21.2373H1485.91V16.9987ZM1506.32 55.5062H1485.94V25.2422H1506.32V55.5062ZM1542.67 127.705H1538.37V84.4581H1542.67V127.705ZM1523 42.1792C1523.12 43.3849 1523.7 44.4998 1524.61 45.3003C1525.52 46.1009 1526.7 46.5282 1527.91 46.4968C1531.55 46.4693 1535.08 42.9418 1535.12 39.2837C1535.17 38.0942 1534.78 36.9288 1534.01 36.0183C1533.24 35.1079 1532.16 34.519 1530.98 34.3685C1526.87 33.7159 1522.47 38.0128 1523 42.1792H1523ZM1527.6 42.6154C1527.43 42.3749 1526.91 41.98 1526.87 41.5335C1526.7 40.0668 1528.68 38.0471 1530.16 38.2085C1530.41 38.287 1530.64 38.4273 1530.82 38.6167C1531.01 38.8062 1531.15 39.039 1531.22 39.294C1531.35 40.7194 1529.44 42.5776 1527.6 42.6154H1527.6ZM1456.5 71.9314C1456.52 72.4286 1456.74 72.8968 1457.11 73.234C1457.47 73.5711 1457.96 73.7499 1458.45 73.7313C1459.52 73.6454 1460.23 73.0442 1460.3 71.9622C1460.39 70.6448 1460.39 69.3227 1460.3 68.0053C1460.22 66.9405 1459.53 66.3223 1458.43 66.2879C1458.18 66.2778 1457.94 66.317 1457.71 66.403C1457.47 66.489 1457.26 66.62 1457.08 66.7886C1456.91 66.9572 1456.76 67.1599 1456.66 67.3848C1456.56 67.6096 1456.51 67.8521 1456.5 68.0981C1456.46 68.6889 1456.5 69.29 1456.5 69.8842C1456.48 70.5712 1456.44 71.2547 1456.49 71.9314H1456.5Z" fill="#6A3834"/>
<path d="M1703.6 210.514C1702.4 210.52 1701.23 210.88 1700.24 211.549C1699.24 212.218 1698.47 213.166 1698.01 214.274C1697.56 215.382 1697.44 216.601 1697.67 217.776C1697.91 218.951 1698.49 220.031 1699.33 220.879C1700.18 221.726 1701.26 222.305 1702.43 222.541C1703.61 222.777 1704.83 222.66 1705.94 222.205C1707.04 221.75 1707.99 220.976 1708.66 219.983C1709.33 218.989 1709.7 217.82 1709.7 216.621C1709.71 215.819 1709.55 215.024 1709.25 214.282C1708.94 213.54 1708.49 212.865 1707.92 212.297C1707.36 211.73 1706.68 211.28 1705.94 210.974C1705.2 210.668 1704.4 210.512 1703.6 210.514ZM1703.72 218.789C1703.42 218.806 1703.12 218.76 1702.84 218.656C1702.56 218.552 1702.31 218.391 1702.1 218.184C1701.88 217.976 1701.71 217.726 1701.6 217.45C1701.49 217.175 1701.43 216.878 1701.44 216.58C1701.46 216.011 1701.7 215.472 1702.11 215.075C1702.51 214.678 1703.06 214.454 1703.63 214.451C1704.2 214.447 1704.75 214.664 1705.16 215.056C1705.57 215.448 1705.82 215.984 1705.84 216.553C1705.85 216.84 1705.81 217.127 1705.71 217.396C1705.6 217.665 1705.45 217.911 1705.25 218.119C1705.05 218.328 1704.82 218.494 1704.55 218.609C1704.29 218.724 1704.01 218.785 1703.72 218.789ZM1716.46 186.045C1725.2 185.829 1733.61 177.218 1733.6 168.486C1733.6 161.685 1728.25 157.017 1721.5 157.897C1713.88 158.889 1707.31 164.935 1705.7 172.44C1704.02 180.113 1708.87 186.234 1716.46 186.045ZM1722.64 161.658C1726.97 161.569 1729.77 164.316 1729.74 168.637C1729.7 175.215 1722.87 182.126 1716.31 182.225C1711.94 182.291 1709.1 179.453 1709.18 175.115C1709.32 168.596 1716.14 161.782 1722.65 161.644L1722.64 161.658ZM1777.94 222.67C1779.14 222.669 1780.32 222.314 1781.31 221.648C1782.31 220.981 1783.09 220.035 1783.55 218.928C1784.01 217.82 1784.13 216.601 1783.9 215.424C1783.67 214.248 1783.09 213.166 1782.25 212.315C1781.4 211.465 1780.32 210.884 1779.15 210.646C1777.97 210.408 1776.75 210.523 1775.64 210.977C1774.53 211.43 1773.58 212.203 1772.91 213.196C1772.24 214.19 1771.88 215.36 1771.87 216.56C1771.86 217.36 1772.01 218.154 1772.32 218.896C1772.62 219.637 1773.06 220.311 1773.63 220.878C1774.19 221.446 1774.87 221.895 1775.61 222.2C1776.35 222.505 1777.14 222.66 1777.94 222.656L1777.94 222.67ZM1777.93 214.389C1778.51 214.401 1779.06 214.636 1779.47 215.044C1779.88 215.453 1780.12 216.004 1780.14 216.584C1780.14 216.871 1780.09 217.156 1779.99 217.424C1779.88 217.691 1779.72 217.935 1779.52 218.141C1779.33 218.348 1779.09 218.513 1778.82 218.627C1778.56 218.741 1778.28 218.802 1777.99 218.806C1777.7 218.821 1777.41 218.778 1777.14 218.679C1776.87 218.581 1776.63 218.429 1776.42 218.233C1776.21 218.037 1776.04 217.8 1775.92 217.538C1775.8 217.275 1775.74 216.991 1775.74 216.704C1775.72 216.406 1775.76 216.107 1775.87 215.827C1775.97 215.547 1776.13 215.29 1776.33 215.072C1776.54 214.855 1776.78 214.681 1777.06 214.561C1777.33 214.441 1777.63 214.378 1777.92 214.375L1777.93 214.389ZM1719.42 195.659C1724.11 195.672 1728.7 194.292 1732.61 191.694C1736.52 189.096 1739.57 185.396 1741.38 181.064C1743.18 176.732 1743.66 171.961 1742.75 167.356C1741.85 162.751 1739.59 158.519 1736.28 155.195C1732.97 151.872 1728.74 149.606 1724.14 148.685C1719.54 147.765 1714.76 148.23 1710.43 150.023C1706.09 151.815 1702.38 154.855 1699.77 158.756C1697.16 162.657 1695.77 167.245 1695.77 171.938C1695.77 178.216 1698.25 184.238 1702.69 188.683C1707.12 193.128 1713.14 195.631 1719.42 195.645L1719.42 195.659ZM1719.55 152.082C1723.48 152.094 1727.31 153.271 1730.57 155.465C1733.83 157.659 1736.37 160.77 1737.86 164.405C1739.35 168.04 1739.73 172.036 1738.95 175.887C1738.17 179.738 1736.26 183.27 1733.47 186.038C1730.68 188.806 1727.14 190.684 1723.28 191.435C1719.42 192.186 1715.43 191.777 1711.81 190.258C1708.18 188.739 1705.09 186.18 1702.92 182.904C1700.75 179.627 1699.61 175.781 1699.62 171.852C1699.63 169.245 1700.15 166.665 1701.16 164.259C1702.16 161.854 1703.63 159.67 1705.48 157.832C1707.33 155.995 1709.53 154.54 1711.94 153.551C1714.35 152.562 1716.94 152.058 1719.54 152.068L1719.55 152.082ZM1769.09 186.677C1768.04 186.742 1767.43 187.508 1767.45 188.621C1767.48 189.679 1768.21 190.397 1769.35 190.448C1770.21 190.486 1771.07 190.448 1771.92 190.448C1772.76 190.448 1773.71 190.483 1774.6 190.448C1774.84 190.455 1775.08 190.414 1775.3 190.328C1775.52 190.242 1775.72 190.112 1775.89 189.946C1776.06 189.78 1776.2 189.581 1776.29 189.362C1776.39 189.143 1776.43 188.907 1776.43 188.669C1776.51 187.594 1775.89 186.763 1774.84 186.691C1772.92 186.562 1771 186.558 1769.09 186.677ZM1715.02 177.403C1715.87 178.09 1716.84 178.045 1717.55 177.238C1718.1 176.616 1718.39 175.768 1718.88 175.081C1719.24 174.576 1719.67 173.968 1720.21 173.762C1721.58 173.233 1722.69 172.447 1723.36 171.107C1723.75 170.31 1724.14 169.506 1724.49 168.703C1725.04 167.411 1724.06 165.979 1722.46 166.03C1721.18 166.257 1720.55 167.36 1720.17 168.624C1720.09 169.008 1719.89 169.36 1719.61 169.637C1719.33 169.915 1718.98 170.107 1718.59 170.19C1717.89 170.385 1717.24 170.744 1716.7 171.236C1716.16 171.728 1715.74 172.34 1715.48 173.024C1715.21 173.645 1714.95 174.27 1714.63 174.868C1714.09 175.85 1714.19 176.716 1715.04 177.403H1715.02ZM1805.09 190.112C1806.27 190.503 1807.04 189.847 1807.63 188.892V162.156C1807.57 162.094 1807.48 162.039 1807.46 161.967C1805.38 153.339 1800.19 149.234 1791.35 149.234H1762.93C1762.93 144.81 1762.93 140.613 1762.93 136.416C1762.93 134.173 1762.38 133.627 1760.13 133.627C1742.6 133.627 1725.08 133.627 1707.56 133.627C1707.13 133.596 1706.7 133.619 1706.28 133.695C1705.3 133.949 1704.72 134.588 1704.77 135.643C1704.82 136.697 1705.43 137.288 1706.44 137.453C1706.86 137.496 1707.29 137.506 1707.72 137.48H1758.97V206.276C1758.86 206.312 1758.75 206.338 1758.63 206.355C1745.82 206.355 1733.01 206.348 1720.2 206.334C1719.94 206.3 1719.69 206.216 1719.47 206.086C1719.24 205.955 1719.05 205.782 1718.89 205.575C1711.03 195.157 1696.25 195.171 1688.37 205.623C1688.16 205.912 1687.83 206.31 1687.55 206.31C1685 206.365 1682.45 206.344 1679.94 206.344V137.484H1681.41C1686.68 137.484 1691.94 137.518 1697.21 137.443C1697.6 137.431 1697.98 137.341 1698.33 137.179C1698.69 137.016 1699 136.785 1699.27 136.498C1700.25 135.186 1699.09 133.637 1697.19 133.633C1690.94 133.62 1684.68 133.62 1678.42 133.633C1676.65 133.633 1676 134.32 1676 136.172C1676 162.778 1676 189.386 1676 215.996C1676 217.892 1676.63 218.5 1678.56 218.507C1680.65 218.507 1682.74 218.507 1684.81 218.507C1686.48 229.701 1695.44 235.293 1703.2 235.41C1707.35 235.526 1711.42 234.238 1714.74 231.755C1719.16 228.475 1721.64 224.03 1722.39 218.507H1744.81C1745.2 218.507 1745.59 218.507 1745.97 218.507C1747.11 218.425 1747.86 217.69 1747.89 216.659C1747.89 216.16 1747.7 215.679 1747.36 215.313C1747.02 214.948 1746.56 214.725 1746.06 214.691C1745.68 214.659 1745.29 214.651 1744.91 214.667H1722.44C1722.1 213.077 1721.79 211.713 1721.48 210.325H1760.09C1759.75 211.813 1759.44 213.211 1759.11 214.67C1757.81 214.67 1756.57 214.646 1755.33 214.67C1753.9 214.701 1753.09 215.416 1753.08 216.594C1753.07 217.772 1753.86 218.493 1755.3 218.514C1756.57 218.535 1757.85 218.514 1759.1 218.514C1760.75 229.711 1769.75 235.31 1777.5 235.417C1781.65 235.531 1785.71 234.24 1789.04 231.752C1793.45 228.471 1795.93 224.027 1796.68 218.514C1799.54 218.514 1802.32 218.473 1805.1 218.535C1806.25 218.559 1807.09 218.191 1807.64 217.181V196.614C1806.95 195.81 1806.27 195.061 1805.05 195.532C1803.83 196.002 1803.77 196.985 1803.78 198.07C1803.8 200.766 1803.78 203.463 1803.78 206.228C1803.53 206.295 1803.29 206.342 1803.04 206.369C1800.21 206.369 1797.38 206.399 1794.56 206.348C1794.32 206.34 1794.08 206.284 1793.86 206.182C1793.65 206.081 1793.45 205.936 1793.29 205.757C1786.12 195.631 1771.27 195.109 1763.41 204.641C1763.29 204.743 1763.15 204.832 1763.01 204.905V153.095H1764.42C1773.58 153.095 1782.75 153.095 1791.92 153.095C1799.19 153.095 1803.76 157.715 1803.77 164.993C1803.77 172.574 1803.77 180.158 1803.77 187.738C1803.78 188.824 1804.01 189.748 1805.11 190.112H1805.09ZM1684.84 214.571H1679.9V210.332H1685.78C1685.49 211.72 1685.18 213.125 1684.86 214.574L1684.84 214.571ZM1703.52 231.559C1699.63 231.423 1695.96 229.78 1693.26 226.977C1690.57 224.174 1689.07 220.432 1689.09 216.545C1689.11 212.658 1690.65 208.931 1693.37 206.155C1696.09 203.38 1699.78 201.773 1703.67 201.677C1711.91 201.708 1718.66 208.484 1718.6 216.687C1718.55 220.65 1716.94 224.434 1714.12 227.218C1711.3 230.003 1707.5 231.564 1703.53 231.563L1703.52 231.559ZM1803.72 210.315V214.571H1796.71L1795.73 210.315H1803.72ZM1777.87 201.666C1780.82 201.662 1783.71 202.534 1786.17 204.172C1788.63 205.809 1790.55 208.139 1791.68 210.866C1792.82 213.594 1793.12 216.597 1792.55 219.497C1791.98 222.396 1790.57 225.062 1788.48 227.157C1786.4 229.252 1783.74 230.682 1780.85 231.267C1777.95 231.852 1774.94 231.565 1772.21 230.443C1769.48 229.322 1767.14 227.415 1765.49 224.964C1763.84 222.513 1762.95 219.628 1762.94 216.673C1762.93 212.703 1764.5 208.892 1767.3 206.079C1770.11 203.266 1773.91 201.68 1777.88 201.67L1777.87 201.666ZM1796.72 182.188C1798.67 182.188 1799.33 181.521 1799.33 179.546C1799.33 174.738 1799.35 169.95 1799.33 165.151C1799.31 160.5 1796.32 157.536 1791.66 157.529C1784.46 157.529 1777.27 157.529 1770.07 157.529C1768.01 157.529 1767.43 158.117 1767.43 160.226C1767.43 166.653 1767.43 173.081 1767.43 179.508C1767.43 181.569 1768.04 182.184 1770.11 182.188C1774.52 182.188 1778.93 182.188 1783.34 182.188C1787.81 182.19 1792.27 182.191 1796.73 182.191L1796.72 182.188ZM1771.35 161.383H1772.62C1778.9 161.383 1785.19 161.383 1791.48 161.383C1794.23 161.383 1795.47 162.609 1795.48 165.378C1795.48 169.273 1795.48 173.165 1795.48 177.056C1795.48 177.431 1795.44 177.805 1795.41 178.251H1771.35V161.383Z" fill="#6A3834"/>
<path d="M1994.47 81.5213C1999.68 74.9952 1995.6 66.9201 1989.13 65.2336C1986.98 64.6737 1984.86 64.0212 1982.72 63.427C1981.63 63.1639 1980.63 62.6281 1979.81 61.8702C1978.98 61.1124 1978.37 60.1574 1978.02 59.0956C1977.26 57.0072 1976.37 54.9738 1975.53 52.913C1972.44 45.4388 1963.67 43.9998 1958.35 50.0965C1952.44 56.8665 1951.49 67.1674 1955.97 75.1876C1960 82.3698 1965.93 87.0376 1973.97 88.9576C1975.37 89.3011 1976.84 89.3424 1978.02 89.4901C1984.83 89.1329 1990.34 86.6873 1994.47 81.5213ZM1983.21 85.0043C1978.05 86.4606 1973.14 85.5744 1968.61 82.9434C1961.58 78.856 1957.38 72.8519 1956.83 65.7865C1956.88 59.968 1958.27 55.8772 1961.29 52.3909C1964.58 48.5748 1970.08 49.4541 1972.03 54.1083C1972.86 56.0798 1973.73 58.0411 1974.42 60.0608C1975.79 64.0417 1978.6 66.2777 1982.58 67.2738C1984.7 67.7746 1986.79 68.3891 1988.85 69.1148C1993.16 70.7154 1994.5 75.7441 1991.6 79.3369C1989.47 82.0653 1986.53 84.0494 1983.21 85.0043ZM2033.73 8.23317H1979.14C1979.14 6.21008 1979.14 4.33131 1979.14 2.45592C1979.14 0.769433 1978.39 0.0103044 1976.71 0.0103044C1968.74 -0.00343479 1960.77 -0.00343479 1952.8 0.0103044C1951.1 0.0103044 1950.36 0.759109 1950.34 2.43529C1950.32 4.31412 1950.34 6.19299 1950.34 8.23669C1947.09 8.23669 1944.01 8.23669 1940.93 8.23669C1938.59 8.23669 1938 8.83433 1938 11.2215V120.489C1938 122.849 1938.6 123.446 1940.96 123.446H2033.79C2036.17 123.446 2036.77 122.849 2036.77 120.506V11.2317C2036.76 8.79991 2036.18 8.23317 2033.73 8.23317ZM2027.83 12.4099C2025.93 13.6739 2024.3 14.7731 2022.64 15.8447C2022.55 15.8835 2022.45 15.9002 2022.35 15.8937C2022.25 15.8871 2022.15 15.8575 2022.06 15.807C2020.43 14.7456 2018.82 13.6636 2016.94 12.4099H2027.83ZM1971.02 4.19394H1974.98V8.17833H1971.02V4.19394ZM1962.78 4.19394H1966.76V8.16458H1962.76L1962.78 4.19394ZM1954.53 4.19394H1958.5V8.18856H1954.53V4.19394ZM1942.19 12.4718H2007.89V27.4509C2002.19 30.0793 1995.92 31.2028 1989.66 30.7139C1984.73 30.3361 1980.11 28.9106 1975.66 26.7879C1965 21.7021 1954.11 21.2087 1943 25.3075C1942.76 25.3968 1942.51 25.4415 1942.19 25.5274V12.4718ZM2007.93 119.294H1942.1V117.882C1942.1 89.0893 1942.1 60.2966 1942.08 31.5039C1942.08 30.4391 1942.39 29.9583 1943.39 29.5633C1953.56 25.5033 1963.64 25.7026 1973.53 30.3911C1979.91 33.4171 1986.53 35.1689 1993.61 34.9559C1997.94 34.833 2002.22 34.0094 2006.29 32.5172C2006.8 32.3283 2007.32 32.1737 2007.91 31.9676L2007.93 119.294ZM2012.12 14.1892C2013.52 15.1063 2014.79 15.9271 2016.05 16.7755C2017.47 17.7304 2019.39 18.4277 2020.12 19.7672C2020.86 21.1068 2020.32 23.0269 2020.32 24.6962C2020.32 53.2828 2020.33 81.8695 2020.35 110.456C2020.35 111.689 2019.98 112.376 2018.95 113.008C2016.7 114.382 2014.53 115.917 2012.12 117.521V14.1892ZM2017 119.235C2018.79 118.04 2020.36 116.972 2021.96 115.955C2022.1 115.892 2022.26 115.861 2022.41 115.865C2022.57 115.87 2022.72 115.908 2022.86 115.979C2024.44 116.982 2025.98 118.04 2027.78 119.235H2017ZM2032.6 117.477C2029.91 115.694 2027.35 114.008 2024.81 112.29C2024.61 112.093 2024.48 111.83 2024.45 111.548C2024.42 111.205 2024.42 110.861 2024.45 110.518C2024.45 80.7336 2024.44 50.9506 2024.42 21.1686C2024.42 19.9905 2024.79 19.3311 2025.77 18.7266C2028.04 17.3114 2030.23 15.7761 2032.61 14.1961L2032.6 117.477ZM1999.36 100.821C1996.74 100.804 1994.12 100.821 1991.51 100.821C1988.9 100.821 1986.28 100.821 1983.67 100.821C1981.98 100.821 1981.24 101.574 1981.23 103.257C1981.21 105.744 1981.21 108.229 1981.23 110.714C1981.23 112.393 1981.99 113.149 1983.67 113.152C1988.89 113.166 1994.12 113.166 1999.35 113.152C2001.03 113.152 2001.78 112.393 2001.79 110.717C2001.81 108.23 2001.81 105.745 2001.79 103.26C2001.76 101.574 2001.01 100.828 1999.34 100.818L1999.36 100.821ZM1997.58 108.955H1985.4V104.995H1997.58V108.955ZM1964.3 109.048C1959.8 109.048 1955.3 109.048 1950.8 109.048C1949.26 109.048 1948.35 109.793 1948.31 111.04C1948.27 112.287 1949.22 113.145 1950.81 113.156C1953.04 113.156 1955.27 113.156 1957.5 113.156C1959.72 113.156 1962.04 113.156 1964.31 113.156C1965.85 113.156 1966.77 112.397 1966.81 111.164C1966.85 109.931 1965.87 109.048 1964.28 109.044L1964.3 109.048ZM1964.34 100.804C1959.8 100.804 1955.26 100.804 1950.71 100.804C1949.21 100.804 1948.31 101.632 1948.31 102.865C1948.31 104.098 1949.24 104.881 1950.77 104.892C1953 104.892 1955.24 104.892 1957.46 104.892C1959.68 104.892 1962 104.892 1964.27 104.892C1965.87 104.892 1966.82 104.091 1966.81 102.807C1966.79 101.522 1965.85 100.818 1964.32 100.815L1964.34 100.804ZM1965.21 56.1898C1964.26 55.5268 1963.21 55.8188 1962.4 57.0072C1960.59 59.6692 1959.79 62.6403 1959.74 66.4873C1959.84 67.2017 1959.98 68.5482 1960.23 69.9049C1960.48 71.2617 1961.36 71.8422 1962.47 71.6223C1963.5 71.4094 1963.92 70.5335 1963.86 69.218C1963.76 67.2258 1963.53 65.1958 1963.81 63.2448C1964.01 61.785 1964.84 60.3872 1965.52 59.027C1966.13 57.8008 1966.1 56.8287 1965.19 56.2002L1965.21 56.1898Z" fill="#6A3834"/>
<circle cx="27.5" cy="210.5" r="27.5" fill="#6A3834"/>
<path d="M31.4967 193.88C31.2087 193.688 30.5847 193.448 30.2487 193.448C29.0007 193.448 28.1847 194.408 28.1847 194.408L21.4647 207.464C21.2247 207.944 21.0807 208.472 21.0807 208.856C21.0807 210.056 22.3287 210.2 23.0487 210.2C23.1447 210.2 23.2887 210.2 23.3847 210.152C23.9607 209.768 28.2807 201.32 28.5207 200.888C28.5207 201.08 27.5127 220.376 27.5127 225.224C27.5127 225.464 27.5607 225.656 27.5607 225.848C27.6567 226.616 27.8487 227.096 28.7127 227.096C29.8647 227.096 31.3047 226.04 31.3047 226.04C31.3047 226.04 31.7847 206.6 31.7847 198.008C31.7847 195.464 31.7367 194.072 31.4967 193.88Z" fill="#D0F4A5"/>
<circle cx="272.5" cy="27.5" r="27.5" fill="#6A3834"/>
<path d="M267.047 19.856C267.383 20.288 267.815 20.48 268.247 20.48C270.215 20.48 270.119 18.32 270.119 18.32C270.311 14.288 271.751 13.808 272.423 13.808C274.055 13.808 274.487 15.488 274.487 17.216C274.487 20.72 272.711 25.856 269.399 32.192C268.343 34.208 265.127 39.536 265.127 41.504C265.271 42.848 266.375 43.712 267.431 43.712C267.767 43.712 269.303 43.712 270.599 43.664C272.807 43.616 275.447 43.568 276.695 43.568C277.511 43.568 278.375 43.04 278.375 41.744C278.375 40.496 277.703 40.208 276.599 40.208H276.215C275.639 40.208 274.343 40.16 269.543 40.16L273.815 31.232C274.775 29.456 278.231 22.736 278.231 17.024C278.231 11.744 274.871 10.496 272.807 10.496C267.527 10.496 266.711 14.768 266.711 17.504C266.711 18.608 266.951 19.664 267.047 19.856Z" fill="#D0F4A5"/>
<circle cx="762.5" cy="27.5" r="27.5" fill="#6A3834"/>
<path d="M763.176 14.912L763.992 12.464C763.8 11.408 763.128 10.832 762.024 10.832C761.832 10.832 761.688 10.832 761.112 10.976C760.632 12.32 757.896 19.52 754.488 29.6L754.296 30.704C754.296 32.672 755.016 32.672 757.128 32.672H759.576C760.92 32.672 762.408 32.72 763.512 32.72C763.416 36.464 763.32 39.584 763.32 43.232C763.56 44.336 764.04 44.336 764.568 44.336C766.68 44.336 766.776 43.04 766.824 41.552C766.872 38.624 767.016 35.6 767.064 32.672H768.264C769.368 32.672 769.944 32.576 770.472 32C770.808 31.616 771 31.184 771 30.848C771 29.888 770.232 29.648 769.512 29.648H767.304V19.28C766.776 19.088 766.488 18.992 766.296 18.992C765.192 18.992 764.376 19.52 764.136 20.912C763.752 22.976 763.704 24.8 763.656 26.624C763.656 27.488 763.704 28.4 763.656 29.312H758.184C759.288 26.432 761.448 19.856 763.176 14.912Z" fill="#D0F4A5"/>
<circle cx="1252.5" cy="27.5" r="27.5" fill="#6A3834"/>
<path d="M1258.89 16.448C1258.89 14.24 1258.12 10.496 1253.37 10.496C1247.22 10.496 1246.5 16.64 1246.5 23.936V31.952C1246.5 37.808 1247.13 43.712 1252.12 43.712C1259.22 43.712 1259.51 37.76 1259.51 32.432C1259.51 25.664 1257.11 23.264 1253.22 23.264C1252.31 23.264 1251.35 23.408 1250.25 23.84V23.024C1250.25 21.056 1250.53 13.376 1253.46 13.04C1253.46 13.04 1255.33 13.376 1255.33 16.592V17.36C1255.33 17.36 1256.63 18.512 1257.59 18.512C1258.74 18.512 1258.89 17.168 1258.89 16.448ZM1252.98 25.952C1255.53 26.192 1255.62 29.312 1255.62 33.776C1255.62 35.792 1255.29 41.12 1252.74 41.12C1251.01 41.12 1250.05 36.944 1250.05 29.936C1250.05 29.168 1250.05 28.208 1250.1 27.248C1250.92 26.576 1251.83 26 1252.98 25.952Z" fill="#D0F4A5"/>
<circle cx="1742.5" cy="27.5" r="27.5" fill="#6A3834"/>
<path d="M1743.58 10.544C1739.46 10.544 1736.91 13.136 1736.91 18.512C1736.91 22.064 1737.73 24.32 1739.22 25.472C1737.25 27.104 1736.43 29.888 1736.43 32.912C1736.43 38.528 1737.06 43.808 1742.34 43.808C1749.54 43.808 1749.58 37.664 1749.58 32.048C1749.58 29.456 1748.67 27.008 1747.04 25.52C1748.72 24.416 1749.49 22.16 1749.49 18.272C1749.49 13.856 1747.71 10.544 1743.58 10.544ZM1745.79 17.984V19.52C1745.74 20.864 1745.22 24.128 1743.15 24.128C1741.76 24.128 1740.75 22.64 1740.75 18.272C1740.75 14.432 1741.9 13.232 1743.54 13.232C1745.46 13.232 1745.79 15.872 1745.79 17.984ZM1742.67 41.216C1740.46 41.216 1740.32 36.464 1740.32 32.384C1740.32 28.208 1741.66 26.864 1743.1 26.864C1745.41 26.864 1745.84 30.416 1745.84 32.912C1745.84 38.576 1744.74 41.216 1742.67 41.216Z" fill="#D0F4A5"/>
<circle cx="517.5" cy="210.5" r="27.5" fill="#6A3834"/>
<path d="M512.357 200.456C512.549 200.744 512.837 200.888 513.221 200.888C513.845 200.888 515.525 200.312 515.525 199.4C515.525 198.2 515.957 195.944 517.541 195.944C518.885 195.944 519.365 198.008 519.365 199.832C519.365 205.16 517.973 206.072 517.157 206.504C516.965 206.552 516.677 206.552 516.389 206.552C515.429 206.552 514.517 206.6 514.517 208.136C514.517 209.048 514.805 209.576 515.813 209.576C519.077 209.576 519.797 212.696 519.797 215.672V216.584C519.797 219.8 519.317 224.408 517.013 224.408C515.189 224.408 515.189 222.728 515.189 221.192C515.189 220.04 515.141 218.84 514.469 218.312C514.133 218.024 513.749 217.88 513.365 217.88C512.213 217.88 511.253 218.984 511.253 218.984C511.253 225.176 512.789 227.096 517.109 227.096C522.485 227.096 523.589 222.296 523.589 214.616C523.589 210.248 521.669 208.616 520.373 208.04C522.197 206.84 522.965 203.72 522.965 200.792C522.965 197.384 522.245 193.208 517.829 193.208C513.125 193.208 512.117 196.664 512.117 198.728C512.117 199.544 512.309 200.312 512.357 200.456Z" fill="#D0F4A5"/>
<circle cx="1007.5" cy="210.5" r="27.5" fill="#6A3834"/>
<path d="M1004.48 207.32H1005.39C1010 207.32 1010.29 209 1010.29 214.424V217.352C1010.29 220.904 1010.05 224.216 1007.51 224.216C1005.44 224.216 1004.96 222.296 1004.96 220.664C1004.96 218.072 1004.96 217.688 1003.38 217.688C1001.89 217.688 1001.6 219.176 1001.6 219.176C1001.65 223.448 1002.32 227.096 1007.41 227.096C1013.84 227.096 1013.99 222.344 1013.99 213.224C1013.99 206.648 1011.11 205.496 1010.24 205.064C1009.14 204.536 1007.79 204.296 1006.98 204.248H1006.16V197.336C1006.16 197.48 1007.84 197.48 1009.86 197.48H1011.68C1012.31 197.48 1013.22 196.712 1013.22 195.8C1013.22 194.024 1010.53 194.12 1009.47 194.12C1006.45 194.12 1004.05 194.216 1003.43 194.504C1002.85 194.84 1002.85 196.04 1002.85 196.04L1002.9 205.784C1002.9 207.224 1003.71 207.32 1004.48 207.32Z" fill="#D0F4A5"/>
<circle cx="1497.5" cy="210.5" r="27.5" fill="#6A3834"/>
<path d="M1493.21 194.168L1492.87 194.36C1492.87 194.36 1492.15 195.272 1492.15 196.136C1492.15 196.712 1492.58 197.288 1493.45 197.48C1493.83 197.576 1494.69 197.576 1495.65 197.576C1498.15 197.576 1499.73 197.624 1500.41 197.624L1493.25 225.128C1493.16 225.416 1493.11 225.752 1493.11 225.8C1493.11 226.616 1493.64 226.856 1494.74 226.856C1495.61 226.856 1496.57 226.76 1497 225.56L1504.15 196.232C1504.15 196.232 1503.72 194.12 1502.09 194.12C1501.37 194.12 1500.74 194.168 1500.12 194.168H1493.21Z" fill="#D0F4A5"/>
<circle cx="1987.5" cy="210.5" r="27.5" fill="#6A3834"/>
<path d="M1981.94 220.808C1981.94 223.016 1982.66 226.712 1987.51 226.712C1993.6 226.712 1994.32 220.568 1994.32 213.32V205.304C1994.32 199.448 1993.7 193.496 1988.71 193.496C1981.6 193.496 1981.31 199.496 1981.31 204.824C1981.31 211.544 1983.71 213.992 1987.65 213.992C1988.51 213.992 1989.52 213.848 1990.53 213.416V214.232C1990.53 216.248 1990.53 224.216 1987.55 224.216C1987.27 224.216 1985.49 224.168 1985.49 220.664V219.848C1985.49 219.848 1984.19 218.696 1983.28 218.696C1982.08 218.696 1981.94 220.088 1981.94 220.808ZM1987.89 211.304C1985.3 211.256 1985.2 207.944 1985.2 203.48C1985.2 201.464 1985.54 196.136 1988.13 196.136C1989.81 196.136 1990.72 200.312 1990.72 207.32C1990.72 208.184 1990.72 209.048 1990.67 210.056C1989.95 210.824 1988.95 211.304 1987.89 211.304Z" fill="#D0F4A5"/>
</svg>
