<svg width="18" height="19" viewBox="0 0 18 19" fill="none" xmlns="http://www.w3.org/2000/svg">
<path d="M11.8698 7.6315H13.0089V5.64755C12.8123 5.62052 12.1365 5.55969 11.3493 5.55969C9.70697 5.55969 8.58191 6.59273 8.58191 8.49141V10.2388H6.76954V12.4567H8.58191V18.0373H10.804V12.4572H12.543L12.8191 10.2393H10.8034V8.71133C10.804 8.07029 10.9766 7.6315 11.8698 7.6315Z" fill="black"/>
<path d="M13.3784 0.962677H5.54772C2.99914 0.962677 0.925781 3.03604 0.925781 5.58462V13.4155C0.925781 15.9639 2.99914 18.0373 5.54772 18.0373H13.3786C15.927 18.0373 18.0004 15.9639 18.0004 13.4155V5.58462C18.0004 3.03604 15.927 0.962677 13.3784 0.962677ZM16.9994 13.4155C16.9994 15.412 15.3751 17.0363 13.3784 17.0363H5.54772C3.55109 17.0363 1.92677 15.412 1.92677 13.4155V5.58462C1.92677 3.58799 3.55109 1.96366 5.54772 1.96366H13.3786C15.3751 1.96366 16.9994 3.58799 16.9994 5.58462V13.4155Z" fill="black"/>
</svg>
