<svg width="26" height="25" viewBox="0 0 26 25" fill="none" xmlns="http://www.w3.org/2000/svg">
<path d="M16.9148 9.76423H18.5826V6.85942C18.2949 6.81984 17.3053 6.73077 16.1528 6.73077C13.7481 6.73077 12.1009 8.24331 12.1009 11.0233V13.5817H9.44727V16.8291H12.1009V25H15.3543V16.8299H17.9006L18.3048 13.5825H15.3536V11.3453C15.3543 10.4067 15.607 9.76423 16.9148 9.76423Z" fill="white"/>
<path d="M19.1233 0H7.65789C3.92636 0 0.890625 3.03573 0.890625 6.76726V18.2329C0.890625 21.9642 3.92636 25 7.65789 25H19.1235C22.8548 25 25.8906 21.9642 25.8906 18.2329V6.76726C25.8906 3.03573 22.8548 0 19.1233 0ZM24.425 18.2329C24.425 21.1561 22.0467 23.5343 19.1233 23.5343H7.65789C4.7345 23.5343 2.35623 21.1561 2.35623 18.2329V6.76726C2.35623 3.84387 4.7345 1.4656 7.65789 1.4656H19.1235C22.0467 1.4656 24.425 3.84387 24.425 6.76726V18.2329Z" fill="white"/>
</svg>
