<svg width="17" height="17" viewBox="0 0 17 17" fill="none" xmlns="http://www.w3.org/2000/svg">
<path d="M16.6482 8.36891L8.92415 0.675224C8.86853 0.619678 8.80248 0.575611 8.72976 0.545544C8.65703 0.515476 8.57908 0.5 8.50035 0.5C8.42162 0.5 8.34367 0.515476 8.27095 0.545544C8.19823 0.575611 8.13217 0.619678 8.07655 0.675224L0.35254 8.36891C0.127515 8.59322 0 8.8979 0 9.21567C0 9.8755 0.538187 10.412 1.20014 10.412H2.01398V15.9019C2.01398 16.2327 2.28214 16.5 2.61405 16.5H7.30021V12.313H9.40045V16.5H14.3867C14.7186 16.5 14.9867 16.2327 14.9867 15.9019V10.412H15.8006C16.1194 10.412 16.425 10.2867 16.65 10.0606C17.117 9.59325 17.117 8.83622 16.6482 8.36891Z" fill="white"/>
</svg>
