<svg width="25" height="25" viewBox="0 0 25 25" fill="none" xmlns="http://www.w3.org/2000/svg">
<path d="M18.153 0.0546265H6.73768C3.02246 0.0546265 0 3.07709 0 6.79231V18.2078C0 21.9228 3.02246 24.9453 6.73768 24.9453H18.1532C21.8682 24.9453 24.8907 21.9228 24.8907 18.2078V6.79231C24.8907 3.07709 21.8682 0.0546265 18.153 0.0546265ZM23.4315 18.2078C23.4315 21.1182 21.0636 23.4861 18.153 23.4861H6.73768C3.82707 23.4861 1.4592 21.1182 1.4592 18.2078V6.79231C1.4592 3.8817 3.82707 1.51382 6.73768 1.51382H18.1532C21.0636 1.51382 23.4315 3.8817 23.4315 6.79231V18.2078Z" fill="white"/>
<path d="M12.4455 5.69409C8.69268 5.69409 5.63965 8.74713 5.63965 12.4999C5.63965 16.2528 8.69268 19.3058 12.4455 19.3058C16.1983 19.3058 19.2514 16.2528 19.2514 12.4999C19.2514 8.74713 16.1983 5.69409 12.4455 5.69409ZM12.4455 17.8466C9.49748 17.8466 7.09885 15.4482 7.09885 12.4999C7.09885 9.55193 9.49748 7.15329 12.4455 7.15329C15.3937 7.15329 17.7922 9.55193 17.7922 12.4999C17.7922 15.4482 15.3937 17.8466 12.4455 17.8466Z" fill="white"/>
<path d="M19.4134 3.27704C18.3044 3.27704 17.4023 4.17926 17.4023 5.28809C17.4023 6.39711 18.3044 7.29933 19.4134 7.29933C20.5224 7.29933 21.4246 6.39711 21.4246 5.28809C21.4246 4.17907 20.5224 3.27704 19.4134 3.27704ZM19.4134 5.83994C19.1092 5.83994 18.8615 5.59231 18.8615 5.28809C18.8615 4.98368 19.1092 4.73624 19.4134 4.73624C19.7178 4.73624 19.9654 4.98368 19.9654 5.28809C19.9654 5.59231 19.7178 5.83994 19.4134 5.83994Z" fill="white"/>
</svg>
