<svg width="17" height="18" viewBox="0 0 17 18" fill="none" xmlns="http://www.w3.org/2000/svg">
<g clip-path="url(#clip0_3_66)">
<path d="M12.3982 0.962677H4.60174C2.0643 0.962677 0 3.02697 0 5.56441V13.361C0 15.8983 2.0643 17.9626 4.60174 17.9626H12.3984C14.9357 17.9626 17 15.8983 17 13.361V5.56441C17 3.02697 14.9357 0.962677 12.3982 0.962677V0.962677ZM16.0034 13.361C16.0034 15.3488 14.3861 16.966 12.3982 16.966H4.60174C2.61383 16.966 0.996611 15.3488 0.996611 13.361V5.56441C0.996611 3.57651 2.61383 1.95929 4.60174 1.95929H12.3984C14.3861 1.95929 16.0034 3.57651 16.0034 5.56441V13.361Z" fill="black"/>
<path d="M8.49986 4.81436C5.93674 4.81436 3.85156 6.89954 3.85156 9.46266C3.85156 12.0258 5.93674 14.111 8.49986 14.111C11.063 14.111 13.1482 12.0258 13.1482 9.46266C13.1482 6.89954 11.063 4.81436 8.49986 4.81436ZM8.49986 13.1143C6.48641 13.1143 4.84817 11.4762 4.84817 9.46266C4.84817 7.44921 6.48641 5.81097 8.49986 5.81097C10.5134 5.81097 12.1515 7.44921 12.1515 9.46266C12.1515 11.4762 10.5134 13.1143 8.49986 13.1143Z" fill="black"/>
<path d="M13.2593 3.16354C12.5018 3.16354 11.8857 3.77975 11.8857 4.53706C11.8857 5.29451 12.5018 5.91071 13.2593 5.91071C14.0167 5.91071 14.6329 5.29451 14.6329 4.53706C14.6329 3.77962 14.0167 3.16354 13.2593 3.16354ZM13.2593 4.91397C13.0515 4.91397 12.8824 4.74484 12.8824 4.53706C12.8824 4.32915 13.0515 4.16015 13.2593 4.16015C13.4672 4.16015 13.6363 4.32915 13.6363 4.53706C13.6363 4.74484 13.4672 4.91397 13.2593 4.91397Z" fill="black"/>
</g>
<defs>
<clipPath id="clip0_3_66">
<rect width="17" height="17" fill="white" transform="translate(0 0.962677)"/>
</clipPath>
</defs>
</svg>
