<svg width="10" height="14" viewBox="0 0 10 14" fill="none" xmlns="http://www.w3.org/2000/svg">
<path d="M5.02565 6.8983C4.49394 6.8983 3.96213 6.69589 3.55742 6.29108C2.74779 5.48155 2.74779 4.16425 3.55742 3.35461C3.94952 2.9624 4.47098 2.74643 5.02565 2.74643C5.58032 2.74643 6.10167 2.96251 6.49388 3.35461C7.30351 4.16425 7.30351 5.48155 6.49388 6.29108C6.08907 6.69589 5.55736 6.8983 5.02565 6.8983ZM5.02565 3.56834C4.70425 3.56834 4.38286 3.69064 4.13815 3.93535C3.64874 4.42476 3.64874 5.22104 4.13815 5.71045C4.37517 5.94746 4.69037 6.07799 5.02565 6.07799C5.36093 6.07799 5.67613 5.94746 5.91315 5.71045C6.40256 5.22104 6.40256 4.42476 5.91315 3.93535C5.66844 3.69064 5.34705 3.56834 5.02565 3.56834Z" fill="black"/>
<path d="M5.0313 14L4.71375 13.627C4.52789 13.4086 0.160156 8.23891 0.160156 4.86633C0.160156 2.18301 2.34317 0 5.02649 0C7.70981 0 9.89282 2.18301 9.89282 4.86633C9.89282 8.07303 5.52893 13.3972 5.34319 13.6222L5.0313 14ZM5.02649 0.821274C2.79605 0.821274 0.98143 2.63589 0.98143 4.86633C0.98143 6.11987 1.7289 7.93396 3.14308 10.1126C3.87698 11.2432 4.61601 12.2007 5.022 12.7074C5.42863 12.1868 6.17471 11.1978 6.91321 10.0457C8.32526 7.84317 9.07155 6.05205 9.07155 4.86633C9.07155 2.63589 7.25693 0.821274 5.02649 0.821274Z" fill="black"/>
</svg>
