<svg width="13" height="13" viewBox="0 0 13 13" fill="none" xmlns="http://www.w3.org/2000/svg">
<g clip-path="url(#clip0_103_442)">
<path d="M9.17382 7.54057C8.77868 8.34141 8.24328 9.13923 7.69582 9.85561C7.17648 10.531 6.62117 11.1779 6.03231 11.7936C5.44343 11.1779 4.88813 10.531 4.3688 9.85561C3.82134 9.13923 3.28594 8.34141 2.8908 7.54057C2.49114 6.73144 2.2619 5.97359 2.2619 5.32357C2.2619 4.32359 2.65913 3.36457 3.36622 2.65748C4.07331 1.95039 5.03233 1.55316 6.03231 1.55316C7.03229 1.55316 7.99131 1.95039 8.6984 2.65748C9.40549 3.36457 9.80272 4.32359 9.80272 5.32357C9.80272 5.97359 9.57273 6.73144 9.17382 7.54057ZM6.03231 12.8644C6.03231 12.8644 10.5568 8.57668 10.5568 5.32357C10.5568 4.1236 10.0801 2.97277 9.23161 2.12427C8.3831 1.27576 7.23228 0.799072 6.03231 0.799072C4.83234 0.799072 3.68151 1.27576 2.83301 2.12427C1.9845 2.97277 1.50781 4.1236 1.50781 5.32357C1.50781 8.57668 6.03231 12.8644 6.03231 12.8644Z" fill="white"/>
<path d="M6.03276 6.83169C5.63277 6.83169 5.24916 6.6728 4.96632 6.38996C4.68349 6.10713 4.52459 5.72352 4.52459 5.32353C4.52459 4.92354 4.68349 4.53993 4.96632 4.25709C5.24916 3.97426 5.63277 3.81536 6.03276 3.81536C6.43275 3.81536 6.81635 3.97426 7.09919 4.25709C7.38203 4.53993 7.54092 4.92354 7.54092 5.32353C7.54092 5.72352 7.38203 6.10713 7.09919 6.38996C6.81635 6.6728 6.43275 6.83169 6.03276 6.83169ZM6.03276 7.58578C6.63274 7.58578 7.20815 7.34743 7.63241 6.92318C8.05666 6.49893 8.29501 5.92351 8.29501 5.32353C8.29501 4.72354 8.05666 4.14813 7.63241 3.72388C7.20815 3.29962 6.63274 3.06128 6.03276 3.06128C5.43277 3.06128 4.85736 3.29962 4.43311 3.72388C4.00885 4.14813 3.77051 4.72354 3.77051 5.32353C3.77051 5.92351 4.00885 6.49893 4.43311 6.92318C4.85736 7.34743 5.43277 7.58578 6.03276 7.58578Z" fill="white"/>
</g>
<defs>
<clipPath id="clip0_103_442">
<rect width="12.0653" height="12.0653" fill="white" transform="translate(0 0.799072)"/>
</clipPath>
</defs>
</svg>
