<svg width="24" height="25" viewBox="0 0 24 25" fill="none" xmlns="http://www.w3.org/2000/svg">
<path d="M18.9777 15.3714C18.4857 14.8591 17.8922 14.5852 17.2632 14.5852C16.6392 14.5852 16.0406 14.854 15.5283 15.3664L13.9253 16.9643C13.7934 16.8933 13.6615 16.8273 13.5347 16.7614C13.3521 16.6701 13.1796 16.5838 13.0325 16.4925C11.5309 15.5388 10.1664 14.296 8.8576 12.6879C8.22351 11.8865 7.7974 11.2118 7.48796 10.527C7.90393 10.1465 8.28946 9.75082 8.66484 9.37037C8.80688 9.22833 8.94892 9.08122 9.09095 8.93918C10.1562 7.87391 10.1562 6.49412 9.09095 5.42884L7.70609 4.04398C7.54884 3.88672 7.38651 3.7244 7.23432 3.56207C6.92996 3.24756 6.61038 2.9229 6.28065 2.61854C5.78859 2.13155 5.20015 1.87284 4.58128 1.87284C3.9624 1.87284 3.36382 2.13155 2.85654 2.61854C2.85147 2.62361 2.85147 2.62361 2.8464 2.62868L1.12166 4.36864C0.472348 5.01795 0.102038 5.8093 0.0208736 6.72746C-0.100872 8.20871 0.335384 9.5885 0.670186 10.4914C1.49197 12.7082 2.71958 14.7627 4.55084 16.9643C6.77271 19.6173 9.44604 21.7124 12.4998 23.1885C13.6666 23.7415 15.2239 24.3959 16.9639 24.5075C17.0704 24.5125 17.182 24.5176 17.2834 24.5176C18.4552 24.5176 19.4394 24.0966 20.2104 23.2596C20.2155 23.2494 20.2256 23.2443 20.2307 23.2342C20.4945 22.9146 20.7989 22.6255 21.1184 22.316C21.3366 22.108 21.5598 21.8899 21.7779 21.6616C22.2801 21.1391 22.5439 20.5304 22.5439 19.9065C22.5439 19.2774 22.275 18.6738 21.7627 18.1665L18.9777 15.3714ZM20.7938 20.713C20.7887 20.7181 20.7887 20.713 20.7938 20.713C20.596 20.9261 20.393 21.1189 20.1749 21.3319C19.8452 21.6464 19.5104 21.9762 19.1959 22.3465C18.6835 22.8943 18.0799 23.153 17.2885 23.153C17.2124 23.153 17.1313 23.153 17.0552 23.148C15.5486 23.0516 14.1485 22.4631 13.0984 21.9609C10.2272 20.571 7.70609 18.5977 5.61105 16.0968C3.88124 14.0119 2.72465 12.0843 1.95866 10.0146C1.4869 8.75149 1.31443 7.76738 1.39052 6.83907C1.44124 6.24555 1.66952 5.7535 2.09056 5.33246L3.82036 3.60265C4.06893 3.3693 4.33271 3.24248 4.59142 3.24248C4.91101 3.24248 5.16972 3.43525 5.33204 3.59758C5.33712 3.60265 5.34219 3.60772 5.34726 3.6128C5.6567 3.90194 5.95092 4.20123 6.26036 4.52082C6.41761 4.68315 6.57994 4.84547 6.74227 5.01287L8.12713 6.39774C8.66484 6.93545 8.66484 7.43258 8.12713 7.97029C7.98002 8.1174 7.83798 8.26451 7.69087 8.40654C7.26476 8.8428 6.85894 9.24862 6.41761 9.6443C6.40747 9.65444 6.39732 9.65951 6.39225 9.66966C5.95599 10.1059 6.03716 10.532 6.12847 10.8212C6.13354 10.8364 6.13861 10.8516 6.14368 10.8668C6.50385 11.7393 7.01112 12.5611 7.78218 13.5402L7.78726 13.5452C9.18734 15.27 10.6635 16.6143 12.2919 17.644C12.4998 17.7759 12.7129 17.8824 12.9158 17.9839C13.0984 18.0752 13.2709 18.1614 13.418 18.2528C13.4383 18.2629 13.4586 18.2781 13.4789 18.2883C13.6514 18.3745 13.8137 18.4151 13.9811 18.4151C14.4021 18.4151 14.6659 18.1513 14.7521 18.0651L16.487 16.3302C16.6595 16.1577 16.9334 15.9497 17.253 15.9497C17.5675 15.9497 17.8262 16.1476 17.9835 16.32C17.9886 16.3251 17.9886 16.3251 17.9936 16.3302L20.7887 19.1253C21.3112 19.6427 21.3112 20.1753 20.7938 20.713Z" fill="white"/>
<path d="M12.973 6.19929C14.3021 6.42249 15.5094 7.05151 16.4732 8.01533C17.437 8.97915 18.061 10.1865 18.2893 11.5155C18.3451 11.8503 18.6342 12.0837 18.9639 12.0837C19.0045 12.0837 19.04 12.0786 19.0806 12.0735C19.456 12.0127 19.7046 11.6576 19.6437 11.2822C19.3698 9.67412 18.6089 8.2081 17.4472 7.04644C16.2855 5.88478 14.8195 5.12386 13.2114 4.84993C12.8361 4.78906 12.486 5.03763 12.4201 5.40794C12.3542 5.77825 12.5976 6.13841 12.973 6.19929Z" fill="white"/>
<path d="M23.9899 11.0847C23.5384 8.43676 22.2905 6.0272 20.373 4.1097C18.4555 2.1922 16.046 0.944307 13.398 0.492832C13.0277 0.426886 12.6776 0.680524 12.6117 1.05083C12.5508 1.42622 12.7994 1.77624 13.1748 1.84218C15.5387 2.24293 17.6946 3.36401 19.4092 5.07353C21.1238 6.78812 22.2398 8.94404 22.6405 11.3079C22.6963 11.6427 22.9855 11.8761 23.3152 11.8761C23.3558 11.8761 23.3913 11.871 23.4319 11.8659C23.8022 11.8101 24.0558 11.455 23.9899 11.0847Z" fill="white"/>
</svg>
