<svg width="14" height="14" viewBox="0 0 14 14" fill="none" xmlns="http://www.w3.org/2000/svg">
<path d="M10.281 8.06602C10.0145 7.78846 9.69294 7.64006 9.35217 7.64006C9.01416 7.64006 8.68988 7.78571 8.41232 8.06327L7.54391 8.92893C7.47246 8.89046 7.40101 8.85473 7.3323 8.819C7.23337 8.76954 7.13994 8.72282 7.06024 8.67335C6.2468 8.15671 5.50755 7.48342 4.79854 6.61226C4.45502 6.17806 4.22418 5.81256 4.05654 5.44156C4.28189 5.23545 4.49075 5.0211 4.69411 4.81499C4.77106 4.73804 4.848 4.65835 4.92495 4.5814C5.50206 4.00429 5.50206 3.2568 4.92495 2.6797L4.17471 1.92946C4.08952 1.84427 4.00158 1.75633 3.91914 1.66839C3.75425 1.49801 3.58112 1.32213 3.40249 1.15724C3.13592 0.89342 2.81714 0.753265 2.48187 0.753265C2.1466 0.753265 1.82232 0.89342 1.54751 1.15724C1.54476 1.15999 1.54476 1.15999 1.54201 1.16274L0.607651 2.10534C0.255891 2.4571 0.0552781 2.88581 0.0113081 3.38322C-0.0546468 4.18567 0.181692 4.93316 0.363068 5.42233C0.808263 6.62325 1.47331 7.73624 2.46538 8.92893C3.66906 10.3662 5.11732 11.5012 6.77169 12.3009C7.40376 12.6004 8.24743 12.9549 9.19004 13.0154C9.24775 13.0181 9.3082 13.0209 9.36317 13.0209C9.99798 13.0209 10.5311 12.7928 10.9488 12.3393C10.9516 12.3339 10.9571 12.3311 10.9598 12.3256C11.1027 12.1525 11.2676 11.9958 11.4407 11.8282C11.5589 11.7155 11.6798 11.5974 11.798 11.4737C12.0701 11.1906 12.213 10.8609 12.213 10.5228C12.213 10.1821 12.0673 9.85505 11.7898 9.58023L10.281 8.06602ZM11.2649 10.9598C11.2621 10.9598 11.2621 10.9625 11.2649 10.9598C11.1577 11.0752 11.0478 11.1796 10.9296 11.2951C10.751 11.4654 10.5696 11.6441 10.3992 11.8447C10.1216 12.1415 9.79462 12.2816 9.36592 12.2816C9.32469 12.2816 9.28072 12.2816 9.2395 12.2789C8.42331 12.2267 7.66483 11.9079 7.09597 11.6358C5.54053 10.8828 4.17471 9.81382 3.03974 8.459C2.10263 7.32952 1.47606 6.28524 1.06109 5.164C0.805515 4.47972 0.712079 3.94658 0.753301 3.44368C0.780782 3.12215 0.904448 2.85558 1.13254 2.62748L2.06965 1.69038C2.20431 1.56396 2.34721 1.49526 2.48737 1.49526C2.6605 1.49526 2.80065 1.59969 2.88859 1.68763C2.89134 1.69038 2.89409 1.69312 2.89684 1.69587C3.06447 1.85251 3.22386 2.01465 3.3915 2.18779C3.47669 2.27573 3.56463 2.36367 3.65257 2.45435L4.40281 3.20459C4.69411 3.49589 4.69411 3.76521 4.40281 4.05651C4.32311 4.1362 4.24616 4.2159 4.16647 4.29285C3.93563 4.52919 3.71578 4.74904 3.47669 4.96339C3.47119 4.96888 3.4657 4.97163 3.46295 4.97713C3.22661 5.21347 3.27058 5.44431 3.32005 5.60095C3.32279 5.6092 3.32554 5.61744 3.32829 5.62569C3.52341 6.09836 3.79822 6.54356 4.21593 7.07395L4.21868 7.07669C4.97716 8.01106 5.77687 8.73931 6.65902 9.29718C6.77169 9.36863 6.88711 9.42634 6.99703 9.4813C7.09597 9.53077 7.1894 9.57749 7.2691 9.62695C7.28009 9.63245 7.29108 9.64069 7.30208 9.64619C7.39551 9.69291 7.48345 9.71489 7.57414 9.71489C7.80223 9.71489 7.94514 9.57199 7.99185 9.52527L8.93171 8.58541C9.02515 8.49198 9.17355 8.3793 9.34668 8.3793C9.51706 8.3793 9.65722 8.48648 9.74241 8.57992C9.74516 8.58267 9.74516 8.58267 9.7479 8.58541L11.2621 10.0996C11.5452 10.3799 11.5452 10.6685 11.2649 10.9598Z" fill="black"/>
<path d="M7.02803 3.09708C7.74804 3.218 8.40209 3.55877 8.92424 4.08091C9.44638 4.60305 9.7844 5.25711 9.90807 5.97711C9.93829 6.15849 10.0949 6.2849 10.2736 6.2849C10.2956 6.2849 10.3148 6.28216 10.3368 6.27941C10.5401 6.24643 10.6748 6.05406 10.6418 5.8507C10.4934 4.97955 10.0812 4.18534 9.45188 3.55602C8.82256 2.9267 8.02835 2.51448 7.1572 2.36608C6.95383 2.3331 6.76421 2.46776 6.72849 2.66837C6.69276 2.86899 6.82467 3.0641 7.02803 3.09708Z" fill="black"/>
<path d="M12.9971 5.74374C12.7525 4.30922 12.0765 3.00386 11.0377 1.96507C9.99893 0.926277 8.69357 0.250239 7.25905 0.00565604C7.05844 -0.0300695 6.86881 0.107337 6.83309 0.30795C6.80011 0.511311 6.93477 0.700931 7.13813 0.736657C8.41876 0.953758 9.58671 1.56109 10.5156 2.48721C11.4444 3.41608 12.049 4.58403 12.2661 5.86465C12.2964 6.04603 12.453 6.17244 12.6316 6.17244C12.6536 6.17244 12.6728 6.16969 12.6948 6.16695C12.8954 6.13672 13.0329 5.94435 12.9971 5.74374Z" fill="black"/>
</svg>
