<svg width="16" height="17" viewBox="0 0 16 17" fill="none" xmlns="http://www.w3.org/2000/svg">
<path d="M15.9023 15.4597L11.2545 10.8118C12.136 9.72342 12.6667 8.3398 12.6667 6.83336C12.6667 3.34116 9.82552 0.5 6.33332 0.5C2.84113 0.5 0 3.34116 0 6.83336C0 10.3256 2.84116 13.1667 6.33336 13.1667C7.8398 13.1667 9.22342 12.636 10.3118 11.7545L14.9597 16.4024C15.0899 16.5325 15.3009 16.5325 15.4311 16.4024L15.9024 15.9311C16.0325 15.8009 16.0325 15.5898 15.9023 15.4597ZM6.33336 11.8334C3.57619 11.8334 1.33335 9.59052 1.33335 6.83336C1.33335 4.0762 3.57619 1.83335 6.33336 1.83335C9.09052 1.83335 11.3334 4.0762 11.3334 6.83336C11.3334 9.59052 9.09052 11.8334 6.33336 11.8334Z" fill="white"/>
</svg>
