<svg width="37" height="49" viewBox="0 0 37 49" fill="none" xmlns="http://www.w3.org/2000/svg">
<path d="M31.2584 27.3787C29.6536 30.6311 27.4793 33.8713 25.2559 36.7806C23.1467 39.5234 20.8915 42.1508 18.5 44.6512C16.1084 42.1508 13.8532 39.5235 11.7441 36.7806C9.52075 33.8713 7.34638 30.6311 5.74163 27.3787C4.1185 24.0927 3.1875 21.0149 3.1875 18.375C3.1875 14.3139 4.80078 10.4191 7.67243 7.54743C10.5441 4.67578 14.4389 3.0625 18.5 3.0625C22.5611 3.0625 26.4559 4.67578 29.3276 7.54743C32.1992 10.4191 33.8125 14.3139 33.8125 18.375C33.8125 21.0149 32.8784 24.0927 31.2584 27.3787ZM18.5 49C18.5 49 36.875 31.5866 36.875 18.375C36.875 13.5016 34.9391 8.82789 31.4931 5.38191C28.0471 1.93593 23.3734 0 18.5 0C13.6266 0 8.95289 1.93593 5.50691 5.38191C2.06093 8.82789 0.125 13.5016 0.125 18.375C0.125 31.5866 18.5 49 18.5 49Z" fill="black"/>
<path d="M18.5 24.5C16.8755 24.5 15.3176 23.8547 14.169 22.706C13.0203 21.5574 12.375 19.9995 12.375 18.375C12.375 16.7505 13.0203 15.1926 14.169 14.044C15.3176 12.8953 16.8755 12.25 18.5 12.25C20.1245 12.25 21.6824 12.8953 22.831 14.044C23.9797 15.1926 24.625 16.7505 24.625 18.375C24.625 19.9995 23.9797 21.5574 22.831 22.706C21.6824 23.8547 20.1245 24.5 18.5 24.5ZM18.5 27.5625C20.9367 27.5625 23.2736 26.5945 24.9965 24.8715C26.7195 23.1486 27.6875 20.8117 27.6875 18.375C27.6875 15.9383 26.7195 13.6014 24.9965 11.8785C23.2736 10.1555 20.9367 9.1875 18.5 9.1875C16.0633 9.1875 13.7264 10.1555 12.0035 11.8785C10.2805 13.6014 9.3125 15.9383 9.3125 18.375C9.3125 20.8117 10.2805 23.1486 12.0035 24.8715C13.7264 26.5945 16.0633 27.5625 18.5 27.5625Z" fill="black"/>
</svg>
