<svg width="14" height="14" viewBox="0 0 14 14" fill="none" xmlns="http://www.w3.org/2000/svg">
<path d="M10.3748 8.46789C10.1058 8.17652 9.78137 8.02073 9.4375 8.02073C9.09639 8.02073 8.76916 8.17363 8.48906 8.465L7.61273 9.37373C7.54063 9.33335 7.46853 9.29584 7.3992 9.25834C7.29936 9.20641 7.20508 9.15737 7.12465 9.10544C6.30379 8.56309 5.5578 7.8563 4.84231 6.94179C4.49567 6.48598 4.26272 6.1023 4.09355 5.71284C4.32095 5.49647 4.53172 5.27146 4.73693 5.05509C4.81458 4.97431 4.89223 4.89065 4.96988 4.80988C5.55225 4.20406 5.55225 3.41937 4.96988 2.81355L4.2128 2.02598C4.12683 1.93655 4.03809 1.84424 3.95489 1.75192C3.7885 1.57306 3.61379 1.38843 3.43353 1.21533C3.16453 0.938388 2.84284 0.79126 2.50451 0.79126C2.16618 0.79126 1.83895 0.938388 1.56163 1.21533C1.55885 1.21822 1.55885 1.21822 1.55608 1.2211L0.613194 2.21061C0.258226 2.57988 0.0557824 3.02992 0.0114113 3.55208C-0.0551454 4.39446 0.183349 5.17914 0.36638 5.69265C0.815637 6.95333 1.48675 8.1217 2.48787 9.37373C3.70253 10.8825 5.164 12.074 6.83347 12.9135C7.4713 13.2279 8.32267 13.6001 9.27388 13.6635C9.33212 13.6664 9.39313 13.6693 9.44859 13.6693C10.0892 13.6693 10.6272 13.4299 11.0487 12.9539C11.0515 12.9481 11.057 12.9452 11.0598 12.9394C11.204 12.7577 11.3704 12.5932 11.5451 12.4173C11.6644 12.299 11.7864 12.1749 11.9056 12.0451C12.1802 11.748 12.3244 11.4018 12.3244 11.047C12.3244 10.6892 12.1774 10.3459 11.8973 10.0574L10.3748 8.46789ZM11.3676 11.5056C11.3649 11.5056 11.3649 11.5085 11.3676 11.5056C11.2595 11.6268 11.1486 11.7364 11.0293 11.8576C10.8491 12.0365 10.666 12.224 10.4941 12.4346C10.214 12.7461 9.88398 12.8933 9.45136 12.8933C9.40976 12.8933 9.36539 12.8933 9.3238 12.8904C8.50016 12.8356 7.73476 12.5009 7.1607 12.2153C5.59108 11.4249 4.2128 10.3027 3.06747 8.88042C2.12181 7.69474 1.48952 6.59849 1.07077 5.42147C0.812864 4.70314 0.718576 4.14347 0.760174 3.61554C0.787906 3.27801 0.912699 2.99818 1.14287 2.75874L2.08853 1.775C2.22442 1.6423 2.36863 1.57017 2.51006 1.57017C2.68477 1.57017 2.8262 1.6798 2.91495 1.77211C2.91772 1.775 2.92049 1.77788 2.92326 1.78077C3.09243 1.94521 3.25327 2.11541 3.42244 2.29716C3.50841 2.38948 3.59715 2.48179 3.68589 2.57699L4.44297 3.36456C4.73693 3.67036 4.73693 3.95307 4.44297 4.25887C4.36255 4.34253 4.2849 4.42619 4.20448 4.50697C3.97153 4.75506 3.74968 4.98585 3.50841 5.21087C3.50286 5.21664 3.49732 5.21953 3.49454 5.2253C3.25605 5.4734 3.30042 5.71572 3.35034 5.88016C3.35311 5.88882 3.35588 5.89747 3.35866 5.90613C3.55555 6.40232 3.83287 6.86967 4.2544 7.42645L4.25717 7.42934C5.02257 8.41019 5.82957 9.17468 6.71977 9.76031C6.83347 9.83531 6.94994 9.8959 7.06087 9.95359C7.1607 10.0055 7.25499 10.0546 7.33542 10.1065C7.34651 10.1123 7.3576 10.1209 7.36869 10.1267C7.46298 10.1757 7.55172 10.1988 7.64324 10.1988C7.87341 10.1988 8.01762 10.0488 8.06477 9.99975L9.0132 9.01313C9.10749 8.91504 9.25724 8.79676 9.43195 8.79676C9.60389 8.79676 9.74532 8.90927 9.83129 9.00736C9.83406 9.01024 9.83406 9.01024 9.83684 9.01313L11.3649 10.6027C11.6505 10.8969 11.6505 11.1999 11.3676 11.5056Z" fill="black"/>
<path d="M7.09332 3.25062C7.8199 3.37755 8.47993 3.73527 9.00684 4.2834C9.53375 4.83152 9.87486 5.51812 9.99965 6.27395C10.0302 6.46436 10.1882 6.59706 10.3685 6.59706C10.3907 6.59706 10.4101 6.59417 10.4323 6.59129C10.6375 6.55667 10.7734 6.35473 10.7401 6.14125C10.5903 5.22675 10.1744 4.39302 9.5393 3.73239C8.90423 3.07175 8.10277 2.63902 7.22366 2.48324C7.01845 2.44862 6.82709 2.58998 6.79104 2.80058C6.75499 3.01117 6.8881 3.216 7.09332 3.25062Z" fill="black"/>
<path d="M13.1159 6.02954C12.8691 4.52364 12.1869 3.15333 11.1386 2.06285C10.0904 0.972367 8.77309 0.26269 7.32548 0.00593748C7.12304 -0.0315658 6.93169 0.112678 6.89563 0.323273C6.86236 0.536753 6.99824 0.735808 7.20346 0.773312C8.49577 1.00122 9.67438 1.63877 10.6117 2.61097C11.5491 3.58606 12.1592 4.81212 12.3782 6.15647C12.4088 6.34687 12.5668 6.47958 12.7471 6.47958C12.7693 6.47958 12.7887 6.47669 12.8109 6.47381C13.0133 6.44207 13.152 6.24013 13.1159 6.02954Z" fill="black"/>
</svg>
