<svg width="200" height="118" viewBox="0 0 200 118" fill="none" xmlns="http://www.w3.org/2000/svg">
<g clip-path="url(#clip0_624_57)">
<path d="M99.7243 102.009C100.906 106.557 104.631 114.221 109.561 115.401C111.059 115.761 113.31 115.663 115.56 113.128C118.68 109.612 118.278 105.443 114.454 101.69C113.684 100.944 112.852 100.262 111.969 99.6527C107.731 96.6923 101.981 94.7428 100.065 96.5068C99.7097 96.8363 98.6358 97.8235 99.7243 102.009ZM113.829 104.874C115.54 107.199 115.484 109.331 113.634 111.417C112.066 113.181 110.568 113.443 108.769 112.262L108.611 112.151C104.406 109.214 101.351 100.224 101.851 98.4146C103.362 98.0534 110.611 100.507 113.829 104.874Z" fill="#6A3834"/>
</g>
<g clip-path="url(#clip1_624_57)">
<path d="M144.53 71.2394C148.98 71.3159 156.92 69.863 159.249 65.6642C159.958 64.389 160.44 62.3092 158.698 59.6125C156.282 55.8719 152.376 55.1805 147.98 57.7165C147.103 58.2302 146.27 58.8157 145.489 59.4667C141.711 62.5822 138.472 67.3347 139.595 69.531C139.806 69.9388 140.434 71.1695 144.53 71.2394ZM150.727 59.0961C153.283 58.1246 155.214 58.7172 156.647 60.9356C157.86 62.8141 157.718 64.2479 156.183 65.5894L156.042 65.7058C152.294 68.7969 143.314 69.302 141.79 68.3856C141.844 66.9149 145.924 60.9233 150.727 59.0961Z" fill="#6A3834"/>
</g>
<g clip-path="url(#clip2_624_57)">
<path d="M188.003 91.0968C187.921 88.2244 189.561 86.2633 192.146 85.1551C192.538 85.0043 192.961 84.959 193.376 85.0239C195.792 85.3484 197.722 86.4843 198.934 88.6559C199.57 89.8334 199.746 91.2054 199.427 92.5051C199.108 93.8049 198.317 94.9396 197.208 95.6887C193.755 97.9811 190.234 96.1548 188.653 93.7035C188.152 92.9543 188.017 92.288 188.003 91.0968ZM194.066 94.3284C194.29 94.3154 194.512 94.2889 194.732 94.249C196.289 93.9037 197.494 92.2707 197.229 90.8448C197.044 89.9469 196.571 89.1339 195.881 88.5294C195.192 87.9249 194.324 87.562 193.41 87.4959C192.847 87.4637 192.29 87.6299 191.836 87.9654C190.548 88.8976 189.944 90.648 190.434 92.0532C190.866 93.334 192.388 94.3215 194.066 94.3284Z" fill="#6A3834"/>
</g>
<g clip-path="url(#clip3_624_57)">
<path d="M69.8856 5.06981C70.2869 5.80233 70.7198 6.5204 71.0751 7.27342C71.7006 8.54707 71.9099 9.98516 71.6733 11.3842C71.4367 12.7833 70.7662 14.0726 69.7568 15.0698C69.2633 15.5439 68.6907 15.9279 68.0647 16.2043C64.8021 17.6631 59.69 16.2061 58.106 11.8563C56.9957 8.81768 58.4834 4.69872 62.1846 3.28249C63.549 2.76061 65.0355 2.64591 66.4638 2.95229C67.8518 3.23831 69.0972 3.7738 69.8856 5.06981ZM67.9317 7.05411C67.0684 5.44584 65.5906 5.14724 63.8879 5.45304C63.5145 5.52455 63.1486 5.63117 62.7952 5.7715C61.0288 6.4941 59.7519 9.01244 60.4773 10.7011C61.5255 13.1436 62.9357 14.0983 65.3496 14.1588C66.1535 14.1699 66.9399 13.9239 67.5942 13.4567C68.2485 12.9895 68.7365 12.3255 68.9871 11.5616C69.5539 9.88146 69.0699 8.43143 67.9317 7.05411Z" fill="#6A3834"/>
<path d="M30.5796 70.103C27.8204 72.085 25.3907 72.8682 22.6797 72.6017C21.0772 72.4831 19.5008 72.1307 18.0004 71.5556C13.8386 69.8545 12.2698 66.3771 13.1291 62.1081C13.4662 60.4555 14.1173 58.8828 15.047 57.4755C15.6242 56.5675 16.2316 55.6934 16.7755 54.7537C18.0572 52.5863 19.2867 50.3874 20.5782 48.2268C21.3986 46.8517 22.2175 45.4682 23.168 44.1841C24.6448 42.1815 27.4567 41.5164 30.0184 42.3871C30.391 42.4849 30.7334 42.6739 31.0145 42.9372C31.2957 43.2006 31.5068 43.5298 31.6287 43.8952C31.7642 44.3319 31.9895 44.7433 32.0948 45.1838C32.842 48.3009 33.5781 51.4201 34.3032 54.5412C34.7243 56.4036 34.8935 58.3141 34.8063 60.2216C34.7218 62.6772 34.0504 65.0769 32.848 67.2197C32.1006 68.535 31.2313 69.6823 30.5796 70.103ZM30.439 49.6376C29.1883 49.3142 28.2224 49.1116 27.2834 48.813C27.0264 48.7242 26.8124 48.5417 26.6841 48.3019C26.5558 48.0622 26.5228 47.7828 26.5916 47.5198C26.6398 47.2549 26.7808 47.0158 26.9893 46.8455C27.1979 46.6752 27.4603 46.5848 27.7295 46.5906C28.3273 46.6123 28.9207 46.6846 29.4907 46.7321C29.6287 46.4382 29.67 46.108 29.6087 45.7891C29.5473 45.4702 29.3865 45.1789 29.1492 44.9572C28.748 44.5319 28.1866 44.5583 27.6425 44.5952C26.3023 44.6985 25.3679 45.4838 24.6272 46.4821C24.0021 47.3508 23.449 48.2691 22.9735 49.2278C21.4172 52.2093 19.7028 55.1055 17.8377 57.9041C17.1766 58.9327 16.5983 60.0121 16.1084 61.1324C15.5465 62.3994 15.3461 63.7972 15.5292 65.1711C15.5789 65.8216 15.7813 66.4513 16.1198 67.009C16.4583 67.5667 16.9236 68.0367 17.4777 68.381C19.2859 69.5586 21.4112 70.1544 23.5679 70.0882C26.9143 70.0126 29.4144 68.5144 30.8929 65.4612C31.7524 63.6605 32.2047 61.6926 32.2176 59.6973C32.297 56.1868 31.3635 52.8873 30.439 49.6376Z" fill="#6A3834"/>
<path d="M61.1479 45.155C63.2226 43.7131 65.5698 43.1338 68.0633 43.087C70.7444 43.0398 73.4193 43.36 76.0134 44.0388C79.1229 44.8462 82.213 45.7155 85.2948 46.6241C86.3177 46.9306 87.3057 47.3435 88.2425 47.8561C89.329 48.447 90.1523 49.4265 90.5474 50.5985C91.2197 52.4549 90.8367 54.2659 89.349 55.5772C88.4238 56.3959 87.2777 56.9233 86.0541 57.0934C82.6372 57.5767 79.3836 58.7404 76.1451 59.8927C72.878 61.0511 69.3347 61.182 65.991 60.2677C64.2074 59.8147 62.5398 58.9898 61.0974 57.847C59.6778 56.7208 58.6718 55.1555 58.237 53.3963C57.8023 51.6372 57.9633 49.7835 58.6948 48.1256C59.1993 46.9138 60.0533 45.8796 61.1479 45.155ZM84.1165 54.8066C83.7826 54.1508 83.499 53.6934 83.312 53.2011C83.2287 52.9456 83.2307 52.67 83.3178 52.4159C83.405 52.1617 83.5724 51.9428 83.795 51.7922C84.0296 51.6629 84.3011 51.6166 84.5654 51.661C84.8297 51.7053 85.0712 51.8377 85.2508 52.0365C85.5082 52.3151 85.7053 52.6391 85.9597 52.9199C86.1502 53.1564 86.3719 53.366 86.6187 53.543C86.7753 53.6548 86.9653 53.7098 87.1574 53.699C87.3495 53.6882 87.5322 53.6122 87.6752 53.4835C88.365 52.9065 88.5312 52.1619 88.1346 51.4542C87.7692 50.6897 87.1424 50.0811 86.3675 49.7383C85.7163 49.5015 85.0936 49.2149 84.4387 49.0235C82.0919 48.3499 79.7286 47.736 77.3877 47.039C74.7488 46.2659 72.0306 45.7948 69.2854 45.6347C67.22 45.4865 65.1519 45.8855 63.2899 46.7915C60.9397 47.9308 59.8246 51.1211 61.0061 53.4584C61.7205 55.0017 62.9521 56.2465 64.4876 56.9773C66.0891 57.6991 67.8035 58.1379 69.5547 58.2744C71.8988 58.4869 74.1193 57.9465 76.2705 57.1511C78.8213 56.1682 81.4445 55.3843 84.1165 54.8066Z" fill="#6A3834"/>
<path d="M60.9113 91.3776C59.1962 92.7853 57.2621 93.9025 55.1858 94.6848C53.6991 95.2768 52.204 95.8515 50.7043 96.4201C48.9084 97.071 47.0344 97.4817 45.1308 97.6414C41.8335 97.9637 38.9585 97.0599 36.5353 94.7185C35.7309 93.9403 35.2898 92.992 34.8336 92.0362C33.9905 90.2308 33.6274 88.2384 33.7792 86.2517C34.037 82.2757 37.2111 79.371 40.6508 78.6673C42.2356 78.3903 43.8541 78.3643 45.447 78.59C49.5504 79.0618 53.6038 79.8973 57.5593 81.0868C58.5843 81.3866 59.6214 81.6774 60.6203 82.0867C61.3996 82.3875 62.1397 82.7816 62.8243 83.2604C65.0658 84.8785 65.2682 87.7036 63.274 89.5718C62.519 90.2152 61.7303 90.818 60.9113 91.3776ZM56.4235 91.331C56.3011 90.8141 56.2134 90.2897 56.161 89.7611C56.1604 89.5893 56.2005 89.4198 56.2778 89.2664C56.3552 89.113 56.4677 88.9801 56.6061 88.8784C56.7446 88.7767 56.9052 88.7092 57.0747 88.6813C57.2442 88.6534 57.4179 88.666 57.5817 88.7179C57.7278 88.7474 57.8679 88.8016 57.9957 88.8783C59.0975 89.6686 59.9863 89.2676 60.8013 88.3929C61.0105 88.1689 61.2121 87.9412 61.4282 87.7263C62.2434 86.927 62.2947 86.0989 61.164 85.2265C60.6062 84.8242 59.9852 84.5178 59.3267 84.3198C54.4117 82.6368 49.3142 81.5438 44.1413 81.0639C43.229 80.9733 42.3088 81.0002 41.4033 81.1438C38.5909 81.6391 36.3059 83.7171 36.3118 86.9836C36.2939 88.0525 36.4574 89.1168 36.7952 90.1311C37.8261 93.102 39.8904 94.7923 43.018 95.066C44.0827 95.1434 45.1529 95.0888 46.2041 94.9033C49.7815 94.3131 53.0539 92.8611 56.4355 91.3219L56.4235 91.331Z" fill="#6A3834"/>
<path d="M39.8564 84.3388C42.1345 83.0601 44.3999 82.6607 46.8081 83.4157C47.6028 83.6671 48.0045 84.2999 47.8177 84.9609C47.7184 85.2511 47.5226 85.4985 47.2628 85.6618C47.0031 85.825 46.6952 85.8942 46.3907 85.8577C46.0879 85.826 45.7896 85.7438 45.4883 85.6827C44.7406 85.5131 43.9641 85.5165 43.218 85.6927C42.4718 85.8688 41.7758 86.2131 41.1829 86.6991C40.9487 86.8948 40.6979 87.0697 40.4334 87.2219C40.2245 87.3207 39.9893 87.3496 39.7627 87.3043C39.5361 87.2589 39.3301 87.1418 39.1753 86.9702C38.9642 86.6649 38.8549 86.3007 38.863 85.9296C38.9097 85.6102 39.0221 85.3039 39.1931 85.0302C39.3641 84.7564 39.5899 84.521 39.8564 84.3388Z" fill="#6A3834"/>
</g>
<defs>
<clipPath id="clip0_624_57">
<rect width="22.3464" height="14.7494" fill="white" transform="translate(112.319 117.889) rotate(-145.064)"/>
</clipPath>
<clipPath id="clip1_624_57">
<rect width="21.1674" height="13.9712" fill="white" transform="translate(162.22 63.7793) rotate(140.489)"/>
</clipPath>
<clipPath id="clip2_624_57">
<rect width="11.5762" height="11.742" fill="white" transform="translate(188 85)"/>
</clipPath>
<clipPath id="clip3_624_57">
<rect width="69.8705" height="82.7767" fill="white" transform="translate(66.085) rotate(52.9733)"/>
</clipPath>
</defs>
</svg>
