<svg width="49" height="37" viewBox="0 0 49 37" fill="none" xmlns="http://www.w3.org/2000/svg">
<g clip-path="url(#clip0_624_50)">
<path d="M17.1711 28.6708C13.9791 26.0454 7.36688 22.5177 3.24862 24.2259C1.99676 24.7438 0.44531 25.9778 0.155078 28.9447C-0.248225 33.0595 2.1931 35.8178 6.85391 36.5119C7.78834 36.6447 8.73215 36.7 9.67569 36.6773C14.2218 36.5932 19.3215 35.0079 19.773 32.7623C19.8554 32.3443 20.1093 31.0866 17.1711 28.6708ZM5.65337 33.9228C3.23355 33.1532 2.1713 31.6071 2.41006 29.1665C2.61326 27.1006 3.54412 26.1398 5.43464 26.0505L5.60459 26.0473C10.115 25.9639 16.9364 30.7815 17.5158 32.328C16.6272 33.3662 10.2006 35.3671 5.65337 33.9228Z" fill="#6A3834"/>
</g>
<g clip-path="url(#clip1_624_50)">
<path d="M31.0967 7.25751C31.2866 11.3861 33.0981 18.6583 37.1256 20.5708C38.3488 21.1532 40.3044 21.478 42.7013 19.7056C46.0261 17.2479 46.4379 13.5875 43.8303 9.66257C43.3028 8.87994 42.7115 8.14223 42.0624 7.45703C38.954 4.13862 34.3602 1.41508 32.3907 2.58456C32.0251 2.80351 30.9215 3.4577 31.0967 7.25751ZM42.7127 12.2885C43.7628 14.6005 43.3268 16.425 41.355 17.883C39.6853 19.1164 38.3483 19.0691 37.0153 17.7256L36.8991 17.6015C33.8151 14.3092 32.8209 6.01749 33.5807 4.55114C34.9468 4.5152 40.7381 7.94531 42.7127 12.2885Z" fill="#6A3834"/>
</g>
<defs>
<clipPath id="clip0_624_50">
<rect width="19.6545" height="12.9727" fill="white" transform="translate(0 23.8818) rotate(-1.05973)"/>
</clipPath>
<clipPath id="clip1_624_50">
<rect width="19.6545" height="12.9727" fill="white" transform="translate(39.0464 23.2129) rotate(-133.129)"/>
</clipPath>
</defs>
</svg>
