<svg width="34" height="34" viewBox="0 0 34 34" fill="none" xmlns="http://www.w3.org/2000/svg">
<g clip-path="url(#clip0_2_101)">
<path d="M25.8528 18.9975C24.7393 21.2542 23.2305 23.5025 21.6877 25.5212C20.2243 27.4244 18.6594 29.2475 17 30.9825C15.3406 29.2475 13.7757 27.4245 12.3123 25.5212C10.7695 23.5025 9.26075 21.2542 8.14725 18.9975C7.021 16.7174 6.375 14.5817 6.375 12.75C6.375 9.93207 7.49442 7.22956 9.48699 5.23699C11.4796 3.24442 14.1821 2.125 17 2.125C19.8179 2.125 22.5204 3.24442 24.513 5.23699C26.5056 7.22956 27.625 9.93207 27.625 12.75C27.625 14.5817 26.9769 16.7174 25.8528 18.9975ZM17 34C17 34 29.75 21.9172 29.75 12.75C29.75 9.36849 28.4067 6.12548 26.0156 3.73439C23.6245 1.3433 20.3815 0 17 0C13.6185 0 10.3755 1.3433 7.98439 3.73439C5.5933 6.12548 4.25 9.36849 4.25 12.75C4.25 21.9172 17 34 17 34Z" fill="black"/>
<path d="M17 17C15.8728 17 14.7918 16.5522 13.9948 15.7552C13.1978 14.9582 12.75 13.8772 12.75 12.75C12.75 11.6228 13.1978 10.5418 13.9948 9.7448C14.7918 8.94777 15.8728 8.5 17 8.5C18.1272 8.5 19.2082 8.94777 20.0052 9.7448C20.8022 10.5418 21.25 11.6228 21.25 12.75C21.25 13.8772 20.8022 14.9582 20.0052 15.7552C19.2082 16.5522 18.1272 17 17 17ZM17 19.125C18.6908 19.125 20.3123 18.4534 21.5078 17.2578C22.7034 16.0623 23.375 14.4408 23.375 12.75C23.375 11.0592 22.7034 9.43774 21.5078 8.24219C20.3123 7.04665 18.6908 6.375 17 6.375C15.3092 6.375 13.6877 7.04665 12.4922 8.24219C11.2967 9.43774 10.625 11.0592 10.625 12.75C10.625 14.4408 11.2967 16.0623 12.4922 17.2578C13.6877 18.4534 15.3092 19.125 17 19.125Z" fill="black"/>
</g>
<defs>
<clipPath id="clip0_2_101">
<rect width="34" height="34" fill="white"/>
</clipPath>
</defs>
</svg>
