<?xml version="1.0" encoding="utf-8"?>
<!-- Generator: Adobe Illustrator 26.0.3, SVG Export Plug-In . SVG Version: 6.00 Build 0)  -->
<svg version="1.1" id="Layer_1" xmlns="http://www.w3.org/2000/svg" xmlns:xlink="http://www.w3.org/1999/xlink" x="0px" y="0px"
	 viewBox="0 0 272.4 292.5" style="enable-background:new 0 0 272.4 292.5;" xml:space="preserve">
<style type="text/css">
	.st0{clip-path:url(#SVGID_00000182505459396741696090000014117135608221605770_);fill:none;stroke:#6A3834;stroke-width:2.5;}
	.st1{clip-path:url(#SVGID_00000034789520950901713490000012963684183655636377_);fill:none;stroke:#6A3834;stroke-width:2.5;}
	.st2{clip-path:url(#SVGID_00000041976763461825968010000009069499869052846721_);fill:none;stroke:#6A3834;stroke-width:2.5;}
	.st3{clip-path:url(#SVGID_00000089575961776331610690000001897252399347831961_);fill:none;stroke:#6A3834;stroke-width:2.5;}
	.st4{clip-path:url(#SVGID_00000116230118929485240420000002252746645673238949_);fill:none;stroke:#6A3834;stroke-width:2.5;}
	.st5{clip-path:url(#SVGID_00000041976954431911819900000000105830714339988097_);fill:none;stroke:#6A3834;stroke-width:2.5;}
	.st6{clip-path:url(#SVGID_00000172424215860751858550000009048127958637622699_);fill:none;stroke:#6A3834;stroke-width:2.5;}
	.st7{clip-path:url(#SVGID_00000013893541545795260400000012638408968562639531_);fill:none;stroke:#6A3834;stroke-width:2.5;}
	.st8{clip-path:url(#SVGID_00000093142081880913107070000013668168592439655304_);fill:#6A3834;}
	.st9{clip-path:url(#SVGID_00000021079297719734689680000007471814393357909397_);fill:#6A3834;}
	.st10{clip-path:url(#SVGID_00000082331925003852233290000007913206037260148633_);fill:#6A3834;}
	.st11{clip-path:url(#SVGID_00000155825528908555998450000001713077226121401519_);fill:#6A3834;}
	.st12{clip-path:url(#SVGID_00000103953168026347732400000012726034008049342357_);fill:#6A3834;}
	.st13{clip-path:url(#SVGID_00000030453101534919568230000010523536193517384623_);fill:#6A3834;}
	.st14{clip-path:url(#SVGID_00000163787033835213629010000008280045527826067618_);fill:#6A3834;}
	.st15{clip-path:url(#SVGID_00000081630972910063534520000009500311525650188932_);fill:#6A3834;}
	.st16{clip-path:url(#SVGID_00000021098721570012388400000008669350417870437517_);fill:#6A3834;}
	.st17{clip-path:url(#SVGID_00000082326150279815175730000004295944261701910914_);fill:#6A3834;}
	.st18{clip-path:url(#SVGID_00000041279386932065083730000017863660376447334065_);fill:#D0F4A5;}
	.st19{clip-path:url(#SVGID_00000148648284921932031940000009064295434989680045_);fill:#6A3834;}
	.st20{clip-path:url(#SVGID_00000146474163409781263790000009138912603894012803_);fill:#D0F4A5;}
	.st21{clip-path:url(#SVGID_00000058567221458174418950000017861308523241240723_);fill:#6A3834;}
	.st22{clip-path:url(#SVGID_00000062906018810611128840000017183414635843421875_);fill:#D0F4A5;}
	.st23{clip-path:url(#SVGID_00000103959444586499377420000008192993993097018242_);fill:#6A3834;}
	.st24{clip-path:url(#SVGID_00000049928768399015765440000001240382842707466904_);fill:#D0F4A5;}
	.st25{clip-path:url(#SVGID_00000169557698840095330170000015719279489346178434_);fill:#6A3834;}
	.st26{clip-path:url(#SVGID_00000029004138718547100830000004957084307005758082_);fill:#D0F4A5;}
	.st27{clip-path:url(#SVGID_00000006710213084272681080000006590364572401469866_);fill:#6A3834;}
	.st28{clip-path:url(#SVGID_00000115505306874897229030000001357892772973990816_);fill:#D0F4A5;}
	.st29{clip-path:url(#SVGID_00000036954178071628957310000003428258086003195029_);fill:#6A3834;}
	.st30{clip-path:url(#SVGID_00000042722899357059182980000008876553708986462647_);fill:#D0F4A5;}
	.st31{clip-path:url(#SVGID_00000088134053110482049210000006707003262818871452_);fill:#6A3834;}
	.st32{clip-path:url(#SVGID_00000175308799237510726990000003795471430132116371_);fill:#D0F4A5;}
	.st33{clip-path:url(#SVGID_00000003075939365398662030000013519318386375744648_);fill:#6A3834;}
	.st34{clip-path:url(#SVGID_00000167384093456130818700000003479038762058934704_);fill:#D0F4A5;}
</style>
<g>
	<g>
		<defs>
			<rect id="SVGID_1_" x="0" y="0" width="272.4" height="292.5"/>
		</defs>
		<clipPath id="SVGID_00000164514506932961669280000015895002693033960851_">
			<use xlink:href="#SVGID_1_"  style="overflow:visible;"/>
		</clipPath>
	</g>
	<g>
		<defs>
			<rect id="SVGID_00000130618990501290896890000001520221952258256011_" x="0" y="0" width="272.4" height="292.5"/>
		</defs>
		<clipPath id="SVGID_00000011029425926584700870000017550573972519857282_">
			<use xlink:href="#SVGID_00000130618990501290896890000001520221952258256011_"  style="overflow:visible;"/>
		</clipPath>
		
			<path style="clip-path:url(#SVGID_00000011029425926584700870000017550573972519857282_);fill:none;stroke:#6A3834;stroke-width:2.5;" d="
			M-135.2,250c110.8,0,85.5-184,190-184"/>
	</g>
	<g>
		<defs>
			<rect id="SVGID_00000140714580303576547030000012039665064284015532_" x="0" y="0" width="272.4" height="292.5"/>
		</defs>
		<clipPath id="SVGID_00000034772643545251946340000016670215310746089632_">
			<use xlink:href="#SVGID_00000140714580303576547030000012039665064284015532_"  style="overflow:visible;"/>
		</clipPath>
		
			<path style="clip-path:url(#SVGID_00000034772643545251946340000016670215310746089632_);fill:none;stroke:#6A3834;stroke-width:2.5;" d="
			M354.8,250c110.8,0,85.5-184,190-184"/>
	</g>
	<g>
		<defs>
			<rect id="SVGID_00000088820267502384619090000004742458857835795862_" x="0" y="0" width="272.4" height="292.5"/>
		</defs>
		<clipPath id="SVGID_00000084517882338230498710000005979821961514559364_">
			<use xlink:href="#SVGID_00000088820267502384619090000004742458857835795862_"  style="overflow:visible;"/>
		</clipPath>
		
			<path style="clip-path:url(#SVGID_00000084517882338230498710000005979821961514559364_);fill:none;stroke:#6A3834;stroke-width:2.5;" d="
			M844.8,250c110.8,0,85.5-184,190-184"/>
	</g>
	<g>
		<defs>
			<rect id="SVGID_00000123442013587165614360000007475284003988562319_" x="0" y="0" width="272.4" height="292.5"/>
		</defs>
		<clipPath id="SVGID_00000103245765960335610340000011696579784693150611_">
			<use xlink:href="#SVGID_00000123442013587165614360000007475284003988562319_"  style="overflow:visible;"/>
		</clipPath>
		
			<path style="clip-path:url(#SVGID_00000103245765960335610340000011696579784693150611_);fill:none;stroke:#6A3834;stroke-width:2.5;" d="
			M789.8,250c-110.8,0-85.5-184-190-184"/>
	</g>
	<g>
		<defs>
			<rect id="SVGID_00000023257929100156757480000010791251869341341598_" x="0" y="0" width="272.4" height="292.5"/>
		</defs>
		<clipPath id="SVGID_00000037689135384218274080000017777549506175897534_">
			<use xlink:href="#SVGID_00000023257929100156757480000010791251869341341598_"  style="overflow:visible;"/>
		</clipPath>
		
			<path style="clip-path:url(#SVGID_00000037689135384218274080000017777549506175897534_);fill:none;stroke:#6A3834;stroke-width:2.5;" d="
			M299.8,250c-110.8,0-85.5-184-190-184"/>
	</g>
	<g>
		<defs>
			<rect id="SVGID_00000129906612831323427350000010026448012681946779_" x="0" y="0" width="272.4" height="292.5"/>
		</defs>
		<clipPath id="SVGID_00000081629097383185782130000008592848593915391654_">
			<use xlink:href="#SVGID_00000129906612831323427350000010026448012681946779_"  style="overflow:visible;"/>
		</clipPath>
		
			<path style="clip-path:url(#SVGID_00000081629097383185782130000008592848593915391654_);fill:none;stroke:#6A3834;stroke-width:2.5;" d="
			M1334.8,250c110.8,0,85.5-184,190-184"/>
	</g>
	<g>
		<defs>
			<rect id="SVGID_00000140726796793620823990000006139318773500048275_" x="0" y="0" width="272.4" height="292.5"/>
		</defs>
		<clipPath id="SVGID_00000111160606809007794240000016143469894344991893_">
			<use xlink:href="#SVGID_00000140726796793620823990000006139318773500048275_"  style="overflow:visible;"/>
		</clipPath>
		
			<path style="clip-path:url(#SVGID_00000111160606809007794240000016143469894344991893_);fill:none;stroke:#6A3834;stroke-width:2.5;" d="
			M1769.8,250c-110.8,0-85.5-184-190-184"/>
	</g>
	<g>
		<defs>
			<rect id="SVGID_00000144319392595594691040000016982191797239963804_" x="0" y="0" width="272.4" height="292.5"/>
		</defs>
		<clipPath id="SVGID_00000025421510785774315420000000155280009560888723_">
			<use xlink:href="#SVGID_00000144319392595594691040000016982191797239963804_"  style="overflow:visible;"/>
		</clipPath>
		
			<path style="clip-path:url(#SVGID_00000025421510785774315420000000155280009560888723_);fill:none;stroke:#6A3834;stroke-width:2.5;" d="
			M1279.8,250c-110.8,0-85.5-184-190-184"/>
	</g>
	<g>
		<defs>
			<rect id="SVGID_00000134224710414133916000000001247838404104400783_" x="0" y="0" width="272.4" height="292.5"/>
		</defs>
		<clipPath id="SVGID_00000087386777174727982060000011972658714178783617_">
			<use xlink:href="#SVGID_00000134224710414133916000000001247838404104400783_"  style="overflow:visible;"/>
		</clipPath>
		<path style="clip-path:url(#SVGID_00000087386777174727982060000011972658714178783617_);fill:#6A3834;" d="M-114.7,103.1
			c0.3,4.7,2.3,8.6,5.6,11.8c2.3,2.2,5.1,4,7.7,6c0.4,0.3,0.9,0.4,1.4,0.4c4.8-0.1,9.5-0.8,13.8-3c6.9-3.4,10.3-9.2,11.3-16.5
			c0.2-1.3,0.3-2.6,0.3-4c0-1,0.4-1.4,1.3-1.8c0.7-0.2,1.3-0.7,1.7-1.3c0.5-0.9,0-1.8-0.7-2.5c-4-4.3-8.5-7.9-14-10.2
			c-0.2-0.1-0.4-0.2-0.5-0.3c0.3-1.1,0.9-2.1,1.6-3c0.8-0.9,1.7-1.6,2.7-2.1c2-0.9,4-1.6,6.1-2.3c1.4-0.5,2-1.2,1.8-2.4
			c-0.3-1.1-1.3-1.6-2.7-1.2c-2,0.5-3.9,1.2-5.8,2c-3.7,1.7-5.4,3.5-7.4,7.8c-2.2-0.3-4.5-0.8-6.7-0.8c-3.5-0.1-6.9,0-10.4,0
			c-1.8,0.1-2.7,1.4-1.8,2.9c1.3,2.2,0.8,3.7-0.6,5.7C-113,92.7-115,97.5-114.7,103.1z M-76.6,93.4c-2.8,0.9-5.4,0.8-7.8-1.3
			c-0.5-0.5-1.6-0.8-2.1-0.6c-0.6,0.2-0.9,1.2-1.3,1.9c-0.1,0.3-0.1,0.6-0.1,0.9c-0.5,3.9-3.4,7.3-6.9,8c-2.1-3.6-3.1-7.2-1-11.2
			c0.2-0.3,0.3-0.6,0.4-1c0.1-0.2,0.1-0.5,0.1-0.8s-0.1-0.5-0.3-0.7c-0.1-0.2-0.3-0.4-0.6-0.5c-0.2-0.1-0.5-0.2-0.7-0.2
			c-0.7-0.1-1.4-0.1-2.2-0.2c-2.7-0.4-4.5-1.9-5.8-4.3C-95.7,81.6-80.8,86.8-76.6,93.4z M-105.6,88.8c0.8,0.6,1.7,1.1,2.6,1.6
			s1.9,0.7,3,1.1c-1.6,5.6,0.3,10,2.8,14c0.5,0.9,1.3,1.2,2.3,0.9c4.9-1.5,8.6-4.3,10.2-9.4c0-0.2,0.2-0.3,0.1-0.2l6.5,1.1
			c-0.1,0.9-0.2,2-0.3,3.1c-0.9,7.9-5.3,13.1-13,15.3c-1.1,0.3-2.4,0.5-3.5,0.8c-3.4,1-6.4,0.2-8.9-2.3c-0.5-0.5-1.1-0.9-1.7-1.4
			C-112.8,106.5-112.9,95.8-105.6,88.8L-105.6,88.8z M-58.7,122.4c-1.3-6.6-9.4-9.4-14.7-4.6c-2.7,2.5-5.6,4.8-8.5,7.1l-8.9,7.5
			c-2.5-3.2-5.8-3.9-9.5-3.9c-6.5,0.1-13,0.1-19.5,0c-1,0-2-0.4-2.8-0.9c-2.6-1.8-5.4-3.1-8.5-3.3c-11.3-0.8-21.1,2.7-29,10.8
			c-3.4,3.4-6.3,7.4-9.4,11.1c-0.5,0.6-0.9,0.9-1.7,0.7c-1.7-0.3-3.2,0.4-4.4,1.7c-0.8,0.9-1.6,1.8-2.5,2.6
			c-0.3,0.3-0.7,0.5-1.2,0.5c-0.8-0.1-1.6,0-2.4,0.2c-0.8,0.3-1.5,0.7-2,1.3c-1.6,1.6-3.1,3.2-4.7,4.7c-0.6,0.5-1,1.2-1.3,1.9
			s-0.4,1.5-0.4,2.2c0,6.9,0,13.8,0,20.7c0,3.4,1.7,5,5.1,5c9.3,0,18.6,0,27.9,0c3.8,0,6-2.3,8.1-4.9c0.3-0.4,0.4-0.8,0.5-1.2
			s0.1-0.9,0-1.3c-0.4-1.7,0.3-2.7,1.4-3.7c0.5-0.4,0.9-0.9,1.3-1.4c0.5-0.6,0.9-1.3,1.1-2.1c0.2-0.8,0.2-1.6,0-2.4
			c-0.2-0.8,0.1-1.2,0.5-1.7c1.9-1.9,3.9-3.8,5.7-5.7c1.3-1.4,2.7-1.9,4.6-1.9c12.3,0,24.6,0,36.9,0c3.7,0,6.7-1.2,9.3-3.9
			c8.2-8.5,16.5-16.9,24.9-25.3c2-2,3.7-4,4.4-6.8v-2.8C-58.6,122.6-58.7,122.5-58.7,122.4z M-153.7,181.6c-1.3,1.4-2.9,1.9-4.8,1.8
			c-8.6-0.1-17.1,0-25.7,0h-1.6v-4c0-5.6,0-11.2,0-16.8c0-0.7,0.3-1.3,0.8-1.9c1.3-1.4,2.7-2.7,4-4c0.7-0.7,1.1-0.8,1.9-0.1
			c8.5,7.6,16.9,15.2,25.4,22.8C-152.6,180.3-152.6,180.5-153.7,181.6z M-149.7,172.9c-0.7,0.7-1.3,1.4-2.1,2.2l-23.2-20.8
			c0.9-1,1.7-1.9,2.6-2.8c0.6-0.7,1.1-0.1,1.5,0.3l11.9,10.7c3.1,2.7,6.1,5.5,9.2,8.2C-148.9,171.5-148.8,172.1-149.7,172.9z
			 M-64.5,127.6c-4,4-7.9,8.1-11.9,12.1c-4.9,4.9-9.8,9.9-14.6,14.9c-0.7,0.8-1.6,1.4-2.7,1.9c-1,0.4-2.1,0.6-3.2,0.6
			c-12.3,0-24.7,0-37,0c-3.2,0-5.7,1-7.9,3.3c-2,2.1-4.1,4.1-6.2,6.3l-18.9-17c5.5-6.5,10.1-13.8,18.2-17.7c5.4-2.6,11-3.8,16.9-3.3
			c2.3,0.2,4.5,1,6.4,2.5c1.7,1.3,3.5,1.8,5.6,1.8c6.9,0,13.7,0,20.6,0c0.7,0,1.5,0,2.2,0.2c1,0.3,1.9,0.9,2.5,1.7
			c0.6,0.9,0.9,1.9,0.8,3c-0.2,2.2-2,3.8-4.4,3.9c-3.8,0.1-7.6,0-11.4,0c-4.1,0-8.1,0-12.2,0c-1.6,0-2.6,0.8-2.6,2.2
			c0,1.3,1,2.2,2.6,2.2c7.9,0,15.8,0,23.7,0c4.8,0,8.4-3.4,8.8-8.2c0-0.4,0.1-0.8,0.3-1.1c0.2-0.4,0.4-0.7,0.8-0.9
			c6-5,11.9-10,18-15c2.8-2.3,6.6-1,7.3,2.5C-62.6,125-63.3,126.4-64.5,127.6z M-164.4,108.9c5.8,3.8,12.2,6.1,19.2,5.9
			c6.6-0.1,12-4,13.9-9.9c0.2-0.6,0.4-1.3,0.6-1.9v-3.4c-1.3-5.8-5.3-9-10.5-11.2c-1-0.4-2-0.9-3-1.2c-5-1.9-8.7-5.2-11.2-9.9
			c-1.1-2.1-2.4-4.1-3.9-6c-2.2-2.9-5.2-5-8.9-5.4c-6.3-0.7-12.3,3.8-13.9,10.3c-1,4-0.4,7.9,0.9,11.7
			C-178.1,97.1-172.2,103.8-164.4,108.9L-164.4,108.9z M-161.5,81.2c0.1-1.3,0.6-2.5,0.9-3.7l0.6-0.1c3.3,7.6,9.1,12.3,17,14.7
			c-1.2,1.3-2.8,2-4.5,2.1C-154.4,95-161.8,88.1-161.5,81.2L-161.5,81.2z M-178,77c1.1-3.8,4.5-6.7,8.1-6.9c3-0.2,5.2,1.5,7.2,3.5
			c-6.2,7.4-1.9,18,6,22.4c4.4,2.5,9,3.3,13.7,1.1c1.4-0.7,2.6-1.8,3.9-2.7c5.4,3.1,5.7,10,0.5,14c-2.9,2.3-6.4,2.8-9.9,2.2
			c-14.5-2.7-24.1-11.1-29.2-24.8C-178.7,83-178.8,79.9-178,77L-178,77z M-139.5,70.4c3,5.2,7.8,8,13.6,9.1
			c7.4,1.3,13.9-1.1,19.7-5.6c5-3.8,8.6-8.7,9.9-15c0.3-1.5,0.4-3,0.6-4.6c-0.1-4.1-1.3-8-3.4-11.5c-4-6.3-12.9-6.4-17-0.1
			c-1.5,2.3-2.7,4.7-4,7c-0.5,1-1.3,1.9-2.2,2.6c-0.9,0.7-2,1.1-3.2,1.2c-2.2,0.3-4.5,0.8-6.7,1.2
			C-139.6,56.1-143.3,63.9-139.5,70.4L-139.5,70.4z M-116.6,50.9c1.3,2.9,0.2,5.8-2.4,7.4c-2.3,1.4-4.9,1-6.6-1
			C-121.3,56.8-118.5,54.6-116.6,50.9L-116.6,50.9z M-132.9,58.7c0.7-0.3,1.5-0.3,2.2-0.5s1.1,0,1.5,0.6c2.8,4.1,8.2,5.2,12.3,2.6
			c4.3-2.7,6-8.4,3.5-12.6c-1-1.6-0.7-2.7,0.2-3.9c0.1-0.2,0.2-0.4,0.3-0.5c2.7-3.7,8-3.6,10.5,0.3c1.8,2.7,2.7,5.9,2.8,9.1
			c0.1,5.7-2.1,10.4-6,14.4c-4.5,4.8-10.1,7.4-15.6,7.9c-6.4,0-12.2-2.9-14.8-7.1C-138.6,65.1-137.1,60.2-132.9,58.7L-132.9,58.7z"
			/>
	</g>
	<g>
		<defs>
			<rect id="SVGID_00000056406695512990299610000009761351637296327862_" x="0" y="0" width="272.4" height="292.5"/>
		</defs>
		<clipPath id="SVGID_00000030453843384302317050000001889870875423372975_">
			<use xlink:href="#SVGID_00000056406695512990299610000009761351637296327862_"  style="overflow:visible;"/>
		</clipPath>
		<path style="clip-path:url(#SVGID_00000030453843384302317050000001889870875423372975_);fill:#6A3834;" d="M59.5,150.5
			c0.4,0,0.8,0,1.1,0c2,0,3.1-1.1,2.5-2.6c-0.4-1-1.3-1.2-2.3-1.2c-1.1,0-2.2,0-2.7,1.2c-0.1,0.3-0.2,0.6-0.2,0.8s0.1,0.6,0.2,0.8
			c0.1,0.3,0.3,0.5,0.6,0.6C58.9,150.3,59.2,150.4,59.5,150.5z M61,264.6c-2.1,0-2.9,0.4-3,1.7c-0.1,1.4,0.8,2.1,2.7,2.1
			c1.8,0,2.7-0.7,2.7-2C63.3,265.3,62.4,264.6,61,264.6L61,264.6z M73.7,264.6c-0.6,0-1.2,0-1.8,0c-0.6,0-1.1,0-1.7,0
			c-1.1,0.1-1.8,0.7-1.9,1.7c-0.1,1.1,0.5,1.9,1.5,2c1.4,0.2,2.7,0.1,4.1,0c1-0.1,1.6-1,1.5-2.1C75.4,265.2,74.8,264.7,73.7,264.6
			L73.7,264.6z M94.8,150.5c0.6,0,1.1,0,1.7,0s1.2,0,1.8,0c0.2,0,0.5,0,0.7-0.1s0.4-0.2,0.6-0.4s0.3-0.4,0.4-0.6
			c0.1-0.2,0.1-0.5,0.1-0.7s0-0.5,0-0.7c-0.1-0.2-0.2-0.4-0.3-0.6c-0.2-0.2-0.3-0.3-0.6-0.4c-0.2-0.1-0.4-0.2-0.7-0.2
			c-1.3-0.1-2.6-0.1-4,0c-1.1,0.1-1.6,0.9-1.6,2C93,149.8,93.7,150.4,94.8,150.5z M82.5,150.5c0.6,0,1.1,0,1.7,0s1.2,0,1.8,0
			c1.1-0.1,1.8-0.7,1.8-1.8c0.1-1.1-0.5-1.9-1.6-2c-1.3-0.1-2.6-0.1-4,0c-0.2,0-0.5,0.1-0.7,0.2c-0.2,0.1-0.4,0.3-0.6,0.5
			s-0.3,0.4-0.3,0.6c-0.1,0.2-0.1,0.5,0,0.7C80.8,149.8,81.4,150.4,82.5,150.5L82.5,150.5z M70.2,150.5c0.6,0,1.1,0,1.7,0
			s1.3,0,1.9,0c0.5,0,0.9-0.2,1.2-0.5c0.3-0.3,0.5-0.8,0.5-1.2c0.1-1.1-0.5-1.9-1.5-2c-1.3-0.1-2.6-0.1-4,0c-1.1,0.1-1.7,0.9-1.6,2
			C68.5,149.8,69.1,150.4,70.2,150.5L70.2,150.5z M131.3,179.3c0-0.4,0-0.9,0-1.3c0-0.4-0.2-0.8-0.5-1.1s-0.7-0.5-1.2-0.5
			c-1-0.1-1.8,0.4-2,1.4c-0.1,0.5-0.1,1.1-0.1,1.7c0,29.4,0,58.9,0,88.3v1.6h-16.8v-9.3h1.6c1.5,0,2.9,0,4.4,0
			c1.1-0.1,1.7-0.8,1.7-1.9c0-0.5-0.1-0.9-0.4-1.3c-0.3-0.3-0.7-0.6-1.2-0.6c-0.5-0.1-0.9-0.1-1.4-0.1c-1.5,0-3.1,0-4.7,0V252
			c0.1-0.1,0.2-0.1,0.3-0.1c0.9,0,1.7,0,2.6,0c1.4,0,2.3-0.8,2.2-1.9c0-1.1-0.9-1.9-2.3-1.9c-0.9,0-1.9,0-2.8,0v-4.7
			c1.8,0,3.5,0,5.2,0c1.6,0,2.5-0.8,2.5-2s-0.9-1.9-2.4-1.9c-1.7,0-3.5,0-5.3,0V235c1,0,1.9,0,2.7,0c1.4,0,2.3-0.7,2.3-1.8
			s-0.9-2-2.3-2c-0.9,0-1.8,0-2.7,0v-4.7c2,0,3.9,0.1,5.7-0.1c0.4-0.1,0.7-0.2,1-0.5c0.3-0.2,0.5-0.5,0.7-0.9c0.2-0.5-0.2-1.5-0.6-2
			c-0.3-0.4-1.1-0.4-1.7-0.5c-1.7-0.1-3.5,0-5.2,0v-4.7h1.5c0.5,0,1,0,1.5,0c1.2-0.1,2-0.9,2.1-1.9c0-1.1-0.8-1.9-2.1-1.9
			c-1,0-1.9,0-3,0v-4.5c1.6,0,3.2,0,4.8,0c0.6,0,1.1,0,1.6-0.2c0.4-0.1,0.8-0.4,1-0.8c0.2-0.4,0.3-0.8,0.2-1.2
			c0-0.5-0.2-0.9-0.6-1.2c-0.3-0.3-0.8-0.5-1.3-0.4c-1.9,0-3.8,0-5.8,0v-4.8c1,0,1.9,0,2.9,0c1.4,0,2.3-0.8,2.3-1.9
			c0-1.1-0.9-1.9-2.3-1.9c-0.9,0-1.9,0-2.8,0v-4.5c1.8,0,3.6,0,5.3,0c1.5,0,2.4-0.8,2.4-2s-0.9-1.9-2.4-1.9c-1.7,0-3.5,0-5.3,0V184
			h1.5c0.5,0,1,0,1.5,0c1.3-0.1,2.1-0.9,2.1-2s-0.9-1.8-2.2-1.9c-1,0-1.9,0-2.9,0v-4.5c2,0,3.9,0.1,5.7-0.1c0.4-0.1,0.7-0.2,1-0.4
			s0.5-0.5,0.7-0.8c0.2-0.5,0.1-1.4-0.3-1.8c-0.4-0.4-1.2-0.7-1.8-0.7c-1.8-0.1-3.6,0-5.4,0v-4.7h1.5c0.5,0,0.9,0,1.4,0
			c1.3-0.1,2.2-0.9,2.2-2c-0.1-1.1-0.9-1.8-2.2-1.8c-1,0-1.9,0-2.9,0v-4.5c1.7,0,3.2,0,4.7,0c0.5,0,0.9,0,1.4-0.1s0.9-0.3,1.1-0.7
			c0.3-0.4,0.4-0.8,0.4-1.3s-0.2-0.9-0.6-1.2c-0.3-0.3-0.8-0.5-1.2-0.5c-1.9,0-3.8,0-5.8,0v-9.3h16.8v1.6c0,7.2,0,14.3,0,21.5
			c0,1.6,0.8,2.5,2,2.4c1.2,0,1.8-0.9,1.8-2.5c0-8.2,0-16.4,0-24.6c0-1.7-0.6-2.5-2.2-2.5c-6.7,0-13.5,0-20.2,0
			c-1.4,0-2.1,0.7-2.2,2.1c0,0.5,0,0.9,0,1.4c0.1,0.8-0.1,1.4-0.9,1.9c-0.2,0.2-0.4,0.4-0.5,0.6c-0.1,0.3-0.2,0.5-0.2,0.8
			s0.1,0.6,0.2,0.8s0.3,0.5,0.6,0.6c0.8,0.5,0.8,1.1,0.8,1.8c0,10.6,0,21.3,0,31.9v79.3c0,0.8,0.1,1.5-0.9,2.1c-0.9,0.6-1,2.2,0,2.7
			s0.9,1.4,0.9,2.2c-0.1,1.3,0,2.5,1.2,3.3H130c1.2-0.6,1.4-1.7,1.4-2.9C131.3,240.1,131.3,209.7,131.3,179.3L131.3,179.3z
			 M62.4,209.4c-0.4-0.2-0.8-0.4-1.2-0.4s-0.8,0.1-1.1,0.3s-0.6,0.5-0.8,0.8c-1.9,2.9-2.6,5.9-2.2,9.1c0.2,1.5,0.6,3,1,4.5
			c0.6,2.2,0.1,4-1.3,5.6c-0.5,0.6-1,1.2-1.5,1.8l-0.1,0.1l-0.5,0.6c-2.2,2.5-3.3,5.7-3.3,9c0,0.1,0,0.2,0,0.4c0,0.4,0,0.8,0.1,1.3
			c0.2,1.4,1.3,2.3,2.5,2.1c1.3-0.2,2.1-1.2,1.9-2.6c-0.3-3.1,0.6-5.8,2.8-8.1c0.3-0.3,0.7-0.8,1-1.1l0.3-0.4
			c1.4-1.6,2.8-3.6,2.7-5.9c-0.1-2.1-0.4-4.2-0.9-6.2c-0.7-2.9-0.3-5.4,1.2-7.7c0.2-0.3,0.3-0.6,0.4-0.9s0.1-0.6,0-0.9
			c-0.1-0.3-0.2-0.5-0.3-0.8C62.8,209.7,62.6,209.5,62.4,209.4L62.4,209.4z M85.9,264.6c-1.1,0-2.2,0-3.3,0c-0.5,0-1,0.2-1.3,0.5
			c-0.4,0.3-0.6,0.8-0.6,1.3c-0.1,1,0.7,1.9,1.9,2c0.5,0.1,1.1,0,1.7,0s1.2,0,1.8,0c0.5,0,1-0.2,1.3-0.6s0.5-0.9,0.5-1.3
			c0-0.2,0-0.5-0.1-0.7s-0.2-0.4-0.4-0.6c-0.2-0.2-0.4-0.3-0.6-0.4C86.4,264.6,86.2,264.6,85.9,264.6L85.9,264.6z M98.3,264.6
			c-0.6,0-1.1,0-1.7,0s-1.2,0-1.8,0c-1.1,0.1-1.7,0.7-1.9,1.7c0,0.2,0,0.5,0.1,0.7s0.2,0.5,0.3,0.7c0.2,0.2,0.4,0.3,0.6,0.5
			c0.2,0.1,0.5,0.2,0.7,0.2c1.3,0.1,2.6,0.1,3.8,0c0.2,0,0.5-0.1,0.7-0.2s0.4-0.3,0.6-0.4s0.3-0.4,0.3-0.6c0.1-0.2,0.1-0.5,0-0.7
			c0-0.2,0-0.5-0.1-0.7s-0.2-0.4-0.4-0.6c-0.2-0.2-0.4-0.3-0.6-0.4C98.7,264.6,98.5,264.6,98.3,264.6L98.3,264.6z M66.4,191.3
			c-2.4-0.9-2.3-3-2.3-3.7c0-0.6,0-1.1,0.1-1.7l0,0c0-1,0.1-2,0.1-3c-0.1-4.9-4.1-9.3-9-9.9c-1.3-0.2-2.4,0.6-2.6,1.8
			c-0.1,0.6,0,1.2,0.4,1.7c0.3,0.5,0.9,0.8,1.5,0.9c3.6,0.8,5.4,3,5.3,6.7c0,0.3,0,0.7,0,1v1.3h-0.2c0,0.6,0,1.2,0,1.8
			c0.2,3.5,2.1,6.3,5,7.1c0.4,0.1,0.8,0.1,1.3,0c0.4-0.1,0.8-0.3,1.1-0.7c0.3-0.3,0.5-0.7,0.6-1.1c0.1-0.4,0-0.9-0.1-1.3
			c-0.1-0.2-0.2-0.4-0.4-0.6C66.8,191.5,66.6,191.4,66.4,191.3L66.4,191.3z M86.6,212.1c0.1-0.7,0.1-1.4,0.2-2.1v-7.5
			c-0.1-0.6-0.1-1.1-0.2-1.7v-0.1c-0.1-1.3-0.3-2.7-0.4-4.1c-1.4-11.5-4.8-20.9-10.4-28.6c-4-5.5-8.4-9.2-13.6-11.2
			c-1.3-0.5-2.6-0.8-3.9-1.1c-0.6-0.1-1.3-0.3-1.9-0.4l-0.5-0.1h-0.2h-3.1h-0.1c-0.2,0.1-0.4,0.1-0.6,0.1c-8.5,1.3-14.4,6-17.7,14.1
			c-0.1,0.3-0.2,0.5-0.3,0.8l-0.2,0.5c-0.9,2.2-1.1,4.7-0.8,7c0.1,0.5,0.1,0.9,0.1,1.4c0.4,3.8,1.8,7.4,4.1,10.4
			c4.6,6.3,5.5,16.1,4.7,20.8c0,0.7-0.3,5.1-2,8.7c-0.7,1.7-1.5,3.2-2.4,4.8c-2.3,3.4-3.7,6.5-4.4,9.9v0.2
			c-0.1,2.7-0.4,8.9,2.7,13.9c0.3,0.4,0.6,0.8,0.9,1.2c0.1,0.1,0.2,0.2,0.2,0.3l0.1,0.1c5.8,8.4,17.1,11.5,26.9,7.3
			c6-2.5,10.7-7,14.6-13.7c4.1-7.2,6.6-15.5,7.8-26.1C86.4,215.2,86.5,213.6,86.6,212.1L86.6,212.1z M77.2,235.4
			c-2.6,6.3-5.8,10.8-9.9,14c-4,3.1-8.2,4.7-12.4,4.7c-2.1,0-4.1-0.4-6-1c-2.4-0.8-4.6-2.2-6.4-4c-1.8-1.8-3.2-4-4-6.5
			c-0.9-2.5-1.1-5.2-0.8-7.8s1.2-5.1,2.7-7.3c7.3-11.1,8.3-23.2,3.1-36c-0.7-1.7-1.7-3.3-2.8-4.9l-0.3-0.5c-1.5-2.3-2.4-4.9-2.7-7.6
			c-0.3-2.7,0.1-5.5,1.1-8s2.5-4.8,4.5-6.6s4.4-3.1,7.1-3.8c4.8-1.3,9.5-0.3,14.2,2.8c4.7,3.2,8.6,7.8,11.7,14.2
			c3.2,6.6,5.2,13.7,5.9,21.9c0.2,2.1,0.3,4.1,0.4,6.1v0.1c0,0.9,0.1,1.8,0.1,2.7v0.1C82,219.3,80.3,227.8,77.2,235.4L77.2,235.4z"
			/>
	</g>
	<g>
		<defs>
			<rect id="SVGID_00000042003171873902716590000000955724562833414567_" x="0" y="0" width="272.4" height="292.5"/>
		</defs>
		<clipPath id="SVGID_00000135692384875481715690000007412678399077895852_">
			<use xlink:href="#SVGID_00000042003171873902716590000000955724562833414567_"  style="overflow:visible;"/>
		</clipPath>
		<path style="clip-path:url(#SVGID_00000135692384875481715690000007412678399077895852_);fill:#6A3834;" d="M335.1,162.1
			c-2.5-0.2-4.9-1-7.1-2.3c-1.3-0.7-2.5-0.5-3.1,0.6s-0.2,2.2,1.1,3c2.7,1.6,5.6,2.5,8.7,2.7c1.7,0.1,2.6-0.5,2.7-1.8
			C337.6,163.1,336.7,162.2,335.1,162.1z M364.9,157.6c-0.8,0.5-1.4,0.7-1.8,1.2c-1.8,1.8-4,3.3-6.4,4.2c-1.4,0.5-2,1.6-1.5,2.8
			s1.6,1.6,2.9,1.1c3.1-1.1,5.8-2.9,8.1-5.3c0.6-0.7,1-1.5,0.5-2.3C366.2,158.6,365.5,158.1,364.9,157.6L364.9,157.6z M390.3,169.5
			h-18.7c2.5-2.7,5.1-5.4,7.3-8.2c2.5-3.2,2.9-6.9,1.2-10.7c-1.7-3.8-4.7-5.8-8.8-6.2c-3.9-0.3-7.1,1.3-9.4,4.4
			c-0.3,0.4-0.6,0.8-1,1.5c-0.1-1.3-0.1-2.4-0.2-3.5c-0.4-2.7-1.6-5.3-3.3-7.4c-4-5-9.6-8.4-15.9-9.8c-4.8-1.1-9.6-2.3-14.4-3.4
			c-1.8-0.4-3.1,0.5-2.8,2.3c1,6.1,2,12.2,3.1,18.2c0.3,1.8,1.2,3.5,1.9,5.6c-0.8-0.7-1.5-1.2-2.1-1.8c-3.5-3.1-7.4-3.9-11.7-2
			s-6.3,5.4-6.3,10c0,0.2,0,0.4,0,0.8l-4.4,0.4c0.9-2.8,1.8-5.6,2.5-8.4c0.3-1.3,0.3-2.7,0.4-4.1c0.1-1.9-0.8-2.6-2.7-2.5
			c-4,0.2-8,1.3-11.5,3.3c-0.1,0.1-0.3,0.2-0.5,0.2c-0.1,0-0.2,0-0.3,0c0.1-1.8,0.2-3.6,0.3-5.4c0.1-1.1-0.1-2.1-1.2-2.6
			s-2,0.1-2.7,0.8c-4,4.1-8,8.2-12,12.4c-4.2,4.3-5.7,9.4-4.3,15.3c0.1,0.2,0.1,0.4,0.2,0.8h-9.7c-1.8,0.1-2.3,0.7-2.3,2.6
			c0,3,0,5.9,0,8.9c0,1.2,0.3,2.1,1.3,2.7h9.3c0.8-0.7,1.5-1.4,1-2.6c-0.5-1.2-1.5-1.3-2.6-1.2c-1.7,0-3.3,0-5.2,0v-6.4h123.9v6.4
			H280.9c-0.4,0-0.9-0.1-1.3,0c-0.6,0.3-1.5,0.6-1.6,1.2c-0.2,0.6,0.2,1.4,0.4,2.1c0.1,0.2,0.3,0.4,0.5,0.5h113.6v-13.1
			c-0.3-0.3-0.6-0.6-1-0.8C391.1,169.6,390.7,169.5,390.3,169.5L390.3,169.5z M328.7,130.7c4.7,1.2,9.2,2.1,13.6,3.4
			c4.8,1.4,8.7,4.1,11.8,8c2,2.5,2.9,5.4,2.4,8.5c-0.7,3.8-1.7,6-5.4,6.6c-0.7,0.1-1.4,0-2-0.4c-2.3-1.6-5.1-2.3-7.9-1.9
			c-1.4,0.2-2.7,0.2-4.1,0.1c-0.3,0-0.6-0.1-0.8-0.2c-0.3-0.1-0.5-0.3-0.7-0.5c-1.2-1.7-2.3-3.5-3.2-5.4c-1.7-3.5-2-7.3-2.6-11.1
			C329.4,135.5,329.1,133.2,328.7,130.7z M292.3,154.1c0-0.3,0.2-0.5,0.4-0.7c3.1-2.5,6.8-4,10.7-4.5c-0.3,4.2-1.8,7.8-4.2,11.1
			c-0.1,0.1-0.3,0.2-0.5,0.2c-2.2,0.2-4.4,0.4-6.8,0.6C292,158.4,292.1,156.2,292.3,154.1L292.3,154.1z M300,169.2
			c-0.2,0.1-0.4,0.2-0.6,0.3h-21.7c-0.2-0.1-0.4-0.2-0.5-0.4s-0.2-0.4-0.3-0.6c-1.4-4.4-0.6-8.3,2.5-11.7c2-2.2,4.1-4.3,6.2-6.5
			c0.9-0.9,1.8-1.7,2.7-2.6c0,0.5,0,0.9,0,1.3c-0.3,4.5-0.6,9-0.8,13.5c-0.1,1.9,0.7,2.7,2.6,2.6c2.5-0.2,5-0.4,7.6-0.7l7.6-0.7
			C303.4,165.7,301.7,167.5,300,169.2L300,169.2z M305.5,169.5l5.5-5.1l6.4,5.1H305.5z M339.6,169.5h-12.3h-0.1
			c-4.2-1.6-8.1-3.7-11.6-6.5c-1-0.9-1.8-2.1-2.1-3.4c-0.3-1.3-0.2-2.7,0.3-3.9c0.5-1.3,1.4-2.3,2.5-3s2.5-1.1,3.8-1
			c1.8,0.1,3.2,0.9,4.5,2.1c4.9,4.4,10.6,6.1,17.1,5.2c0.8,0,1.6,0,2.4,0l0.2,0.3C340.8,161.8,339.3,165.2,339.6,169.5L339.6,169.5z
			 M363.3,169.5h-19.4c-0.7-3.8,1.6-7.2,5.2-7.7c6.9-0.9,12.2-4.4,15.9-10.3c0.5-0.7,1.1-1.4,1.8-1.9c0.7-0.5,1.5-0.9,2.4-1
			c0.9-0.2,1.7-0.2,2.6,0s1.7,0.5,2.4,1c3.1,2.1,3.7,6.2,1.4,9.3c-3,4.1-6.7,7.5-11,10.1C364.2,169.2,363.7,169.4,363.3,169.5
			L363.3,169.5z M304.5,106.4c0.2,0.1,0.5,0.1,0.7,0c0.2,0,0.5-0.1,0.7-0.3c0.2-0.1,0.4-0.3,0.5-0.5s0.2-0.4,0.3-0.7
			c0.2-0.9,0.4-1.8,0.6-2.7c0.2-1.2-0.8-2.2-2.4-2.2c-0.3,0.3-1,0.7-1.3,1.3c-0.3,1-0.6,2-0.6,3
			C302.9,105.4,303.5,106.1,304.5,106.4z M301.2,122.3c0.4,0.1,0.9,0.1,1.3-0.1s0.7-0.6,0.9-1c0.2-0.6,0.3-1.1,0.4-1.7
			c0.1-1.4-0.5-2.3-1.6-2.4c-0.5-0.1-1,0-1.4,0.3s-0.7,0.7-0.8,1.1c-0.2,0.6-0.3,1.2-0.4,1.9c-0.1,0.5,0.1,0.9,0.3,1.3
			C300.4,122,300.8,122.2,301.2,122.3L301.2,122.3z M306.6,97.9c1.3,0,2.2-1.4,2.2-3.4c0-0.5-0.2-1-0.6-1.4s-0.9-0.6-1.4-0.6
			c-1.3,0-2.2,1.4-2.2,3.4c0,0.3,0,0.5,0.1,0.7s0.2,0.5,0.4,0.6c0.2,0.2,0.4,0.3,0.6,0.4C306.1,97.9,306.4,97.9,306.6,97.9
			L306.6,97.9z M302.8,114.9c1.1,0.2,1.9-0.3,2.2-1.3c0.2-0.9,0.4-1.8,0.6-2.7c0.1-1.3-0.5-2.2-1.6-2.3c-0.5-0.1-1,0-1.4,0.3
			s-0.7,0.7-0.8,1.2c-0.2,0.9-0.4,1.7-0.5,2.6c-0.1,0.5,0,1,0.3,1.4S302.3,114.8,302.8,114.9L302.8,114.9z M344.4,145.7
			c1,1.4,1.8,2.9,2.8,4.3c0.4,0.5,0.9,0.9,1.4,1.3c1.9,0,3-1.5,2.4-2.7c-1.9-3.8-4.4-7.3-7.6-10.1c-0.8-0.8-2.1-0.6-2.8,0.3
			c-0.7,0.8-0.7,1.9,0.1,2.8C342,143,343.3,144.3,344.4,145.7L344.4,145.7z M351,117.1c-1.1,0.2-1.6,0.9-1.6,2.2
			c0.1,0.6,0.2,1.2,0.4,1.8c0.1,0.4,0.4,0.8,0.8,1s0.9,0.3,1.3,0.2c0.5-0.1,0.9-0.3,1.1-0.7c0.3-0.4,0.4-0.8,0.4-1.3
			c0-0.7-0.2-1.4-0.4-2c-0.1-0.4-0.4-0.8-0.8-1.1C352,117.1,351.5,117,351,117.1L351,117.1z M347.5,100.1c-1.1,0.2-1.7,1-1.5,2
			c0.1,1,0.3,2,0.6,3c0.1,0.2,0.1,0.4,0.3,0.6c0.1,0.2,0.3,0.3,0.5,0.5c0.2,0.1,0.4,0.2,0.6,0.2s0.5,0,0.7,0
			c1.1-0.2,1.6-0.9,1.6-2.2c-0.2-1-0.4-2-0.7-2.9c-0.1-0.2-0.2-0.4-0.3-0.6c-0.1-0.2-0.3-0.3-0.5-0.4s-0.4-0.2-0.6-0.2
			C348,100,347.8,100,347.5,100.1L347.5,100.1z M351.5,110.1c-0.3-0.7-1.1-1.2-1.4-1.6c-1.6,0.1-2.4,0.9-2.3,2.1c0.1,1,0.3,2,0.6,3
			c0.3,1,1.1,1.5,2.2,1.3c0.5-0.1,0.9-0.4,1.2-0.8s0.4-0.9,0.3-1.4C351.9,111.8,351.8,110.9,351.5,110.1L351.5,110.1z M390.3,38
			c-5.2,0-10.4,0-15.6,0c-1.5,0-2.2,0.7-2.2,2.2c0,0.8,0,1.5,0,2.4H371c-6.4,0-12.9,0-19.3,0c-0.5,0-0.9,0-1.4,0.1
			c-0.4,0.1-0.8,0.4-1,0.7c-0.2,0.4-0.3,0.8-0.3,1.2s0.2,0.8,0.5,1.2s0.7,0.5,1.1,0.6c0.4,0,0.9,0.1,1.3,0h20.5v12.8h-36.7
			c-2,0-2.6,0.6-2.6,2.6c0,1.9,0,3.7,0,5.6h-12.8c0-4,0-8,0-11.9c0-5.5,3.6-9.1,9.1-9.1c4.1,0,8.1,0,12.2,0c1.4,0,2.3-0.8,2.2-1.9
			c0-1.1-0.9-1.9-2.2-1.9c-4.5,0-9-0.1-13.5,0c-6,0.2-10.9,4.6-11.5,10.6c-0.4,4.2-0.2,8.5-0.2,12.7c0,0.5,0,1,0,1.4
			c-0.1,0-0.3,0.1-0.4,0.1h-4.2c-1.9,0-2.6,0.6-2.6,2.5c0,5.2,0,10.4,0,15.6c0,1.8,0.7,2.4,2.4,2.4c10.1,0,20.1,0,30.2,0
			c1.7,0,2.4-0.7,2.4-2.4c0-5.2,0-10.4,0-15.6c0-1.9-0.7-2.5-2.6-2.5c-1.5,0-3.1,0-4.6,0v-4.3h35.5c0,0.7,0,1.3,0,1.8
			c0,2.2,0.6,2.7,2.7,2.7c4.8,0,9.7,0,14.5,0c1.2,0,2.1-0.3,2.7-1.3v-27C391.9,38.6,391.3,38,390.3,38L390.3,38z M340.2,71.6v12.6
			h-27.1V71.6H340.2z M388.5,63.9h-12.1v-22h12.1V63.9z M332.2,92.6c-1.4,0.1-1.9,1.3-1.7,3.3c0.2,1.4,1,2.2,2.1,2.1
			c1.2-0.1,1.8-1,1.7-2.4C334.3,93.5,333.6,92.5,332.2,92.6L332.2,92.6z M345.9,92.6c-0.5,0.1-0.9,0.3-1.1,0.7
			c-0.3,0.4-0.4,0.8-0.3,1.3c0.1,0.7,0.2,1.4,0.4,2c0.1,0.4,0.4,0.8,0.8,1.1c0.4,0.2,0.9,0.3,1.3,0.2c1.1-0.2,1.6-0.9,1.6-2.2
			c-0.1-0.6-0.2-1.3-0.5-1.9c-0.1-0.4-0.4-0.8-0.9-1C346.9,92.6,346.4,92.5,345.9,92.6L345.9,92.6z M317.4,110.2
			c-0.2,0.8-0.2,1.7-0.3,2.5c0,1.2,0.6,2.1,1.7,2.2s1.9-0.4,2.1-1.5c0.2-1,0.3-1.9,0.3-2.9c0-0.5-0.2-0.9-0.5-1.3
			c-0.3-0.3-0.8-0.6-1.2-0.6c-0.5,0-0.9,0.1-1.3,0.4C317.8,109.3,317.5,109.7,317.4,110.2L317.4,110.2z M318.2,102.2
			c-0.1,0.7-0.2,1.4-0.2,2.2c0,0.5,0.1,1,0.4,1.4s0.8,0.6,1.3,0.7c0.2,0,0.5,0,0.7-0.1s0.5-0.2,0.7-0.3c0.2-0.2,0.4-0.3,0.5-0.6
			c0.1-0.2,0.2-0.5,0.2-0.7c0.1-0.8,0.2-1.5,0.3-2.3c0-1.5-0.6-2.4-1.8-2.5C319.2,100,318.4,100.8,318.2,102.2L318.2,102.2z
			 M316.4,120.6c0,0.2,0,0.5,0.1,0.7s0.2,0.4,0.4,0.6c0.2,0.2,0.4,0.3,0.6,0.4s0.5,0.1,0.7,0.1c1.1,0,1.8-0.6,2-1.6
			c0.1-0.5,0.1-1,0.2-1.7c0-0.5-0.1-0.9-0.4-1.3s-0.7-0.6-1.2-0.7c-0.2-0.1-0.4-0.1-0.7,0c-0.2,0-0.4,0.1-0.6,0.2s-0.4,0.3-0.5,0.4
			c-0.1,0.2-0.2,0.4-0.3,0.6C316.5,119,316.4,119.8,316.4,120.6L316.4,120.6z M322.7,96.3c0.1-0.3,0.1-0.6,0.1-0.9
			c0.1-1.8-0.6-2.8-1.8-2.8c-1.2,0-1.9,0.8-2.1,2.3c0,0.3-0.1,0.7-0.1,1c0,1.1,0.7,1.9,1.7,2.1C321.6,98.1,322.4,97.4,322.7,96.3
			L322.7,96.3z M333.9,108.5c-0.2,0-0.5,0.1-0.7,0.2s-0.4,0.3-0.6,0.4c-0.2,0.2-0.3,0.4-0.4,0.6s-0.1,0.5-0.1,0.7
			c0,0.9,0.1,1.8,0.3,2.7c0,0.5,0.3,1,0.7,1.3c0.4,0.3,0.9,0.5,1.4,0.5c1.1-0.1,1.8-0.9,1.8-2.2c-0.1-0.8-0.1-1.7-0.3-2.6
			c-0.1-0.5-0.3-0.9-0.7-1.2C334.8,108.6,334.3,108.5,333.9,108.5L333.9,108.5z M334.6,117c-1.1,0.1-1.7,0.8-1.7,1.9
			c0,0.6,0.1,1.1,0.2,1.7c0.2,1.2,1,1.9,2.1,1.8c1-0.1,1.7-0.9,1.7-2.2c0-0.5-0.1-1.1-0.2-1.6C336.4,117.5,335.7,116.9,334.6,117
			L334.6,117z M333.3,100.1c-1.3-0.2-2.2,0.9-2.1,2.7c0.1,0.8,0.2,1.5,0.3,2.3c0.1,0.3,0.2,0.5,0.3,0.7c0.2,0.2,0.4,0.4,0.6,0.5
			s0.5,0.2,0.8,0.2s0.5,0,0.8-0.1c2-0.9,1.1-2.6,1-4.1C335.1,101.1,334.5,100.3,333.3,100.1L333.3,100.1z"/>
	</g>
	<g>
		<defs>
			<rect id="SVGID_00000017481067497963133210000017872938674487604616_" x="0" y="0" width="272.4" height="292.5"/>
		</defs>
		<clipPath id="SVGID_00000114762893856190787030000011511349411314804107_">
			<use xlink:href="#SVGID_00000017481067497963133210000017872938674487604616_"  style="overflow:visible;"/>
		</clipPath>
		<path style="clip-path:url(#SVGID_00000114762893856190787030000011511349411314804107_);fill:#6A3834;" d="M545.7,260.4
			c-1.1,0-1.9,0.9-1.9,2.3c0,1.5,0,2.9,0,4.4s0,2.8,0,4.2c0,1.4,0.8,2.2,2,2.2c1.1,0,1.8-0.8,1.9-2.2c0-2.9,0-5.7,0-8.6
			C547.6,261.2,546.9,260.4,545.7,260.4z M597.6,156.3c1.1,0,1.8-0.6,1.9-1.7c0-0.3,0.1-0.7,0.1-1c0-3,0-6.1,0-9.1
			c0-1.1-0.2-2.1-1.2-2.8h-1.5c-0.4,0.6-1,1.1-1,1.6c-0.1,3.8-0.1,7.5,0,11.3C595.9,155.7,596.6,156.3,597.6,156.3z M570.8,240.2
			c17.7,0.7,32.7-13.5,33.5-31.6c0.7-17.7-13.5-32.8-31.5-33.5c-17.8-0.7-32.9,13.5-33.6,31.6C538.4,224.4,552.7,239.5,570.8,240.2z
			 M569.8,234.9c0,0.4,0,0.7-0.1,1.3c-6.4-0.4-11.9-2.8-16.9-7c0.8-0.8,1.5-1.4,2.2-2.1c4.3-4.3,8.5-8.5,12.8-12.8
			c0.3-0.3,1-0.6,1.3-0.5s0.6,0.8,0.6,1.3C569.8,221.7,569.8,228.3,569.8,234.9L569.8,234.9z M573.7,236.2c0-0.5-0.1-1-0.1-1.4
			c0-6.6,0-13.1,0-19.7c0-0.5,0.4-1,0.6-1.5c0.5,0.2,1.1,0.3,1.4,0.6c4.7,4.6,9.4,9.3,14,14c0.3,0.3,0.5,0.6,0.9,0.9
			C585.6,233.4,580.1,235.7,573.7,236.2L573.7,236.2z M593.4,226.4c-0.4-0.3-0.6-0.6-0.9-0.8c-4.7-4.7-9.4-9.4-14.1-14.1
			c-0.3-0.3-0.7-1-0.5-1.3c0.1-0.3,0.8-0.6,1.3-0.6c6.7,0,13.4,0,20,0c0.3,0,0.7,0,1.2,0.1C599.9,216,597.5,221.5,593.4,226.4
			L593.4,226.4z M593.4,188.7c4.2,4.9,6.5,10.4,7,16.9h-1.5c-6.5,0-12.9,0-19.4,0c-0.5,0-1.1-0.4-1.6-0.6c0.2-0.5,0.3-1.1,0.7-1.4
			c4.6-4.7,9.2-9.3,13.9-13.9C592.7,189.4,593,189.1,593.4,188.7L593.4,188.7z M573.7,179.7c0-0.2,0-0.3,0.1-0.7
			c6.4,0.5,11.9,2.8,16.8,6.9c-0.2,0.2-0.4,0.5-0.6,0.7c-4.8,4.8-9.6,9.6-14.5,14.4c-0.2,0.2-0.4,0.3-0.6,0.3
			c-0.2,0.1-0.4,0.1-0.7,0.1c-0.3-0.1-0.6-0.7-0.6-1C573.6,193.5,573.6,186.6,573.7,179.7L573.7,179.7z M571.7,204.8
			c0.5,0,1.1,0.2,1.5,0.5s0.8,0.7,1,1.2s0.3,1.1,0.1,1.6c-0.1,0.5-0.4,1-0.8,1.4c-0.4,0.4-0.9,0.6-1.4,0.7c-0.5,0.1-1.1,0-1.6-0.2
			s-0.9-0.6-1.2-1c-0.3-0.5-0.4-1-0.4-1.5c0-0.7,0.3-1.4,0.8-1.9C570.3,205.1,571,204.9,571.7,204.8L571.7,204.8z M569.7,179
			c0,0.6,0.1,1,0.1,1.5c0,6.5,0,13,0,19.5c0,0.5-0.2,1.1-0.6,1.5c-0.7,0.6-1.1-0.2-1.5-0.6c-4.6-4.6-9.2-9.1-13.7-13.7
			c-0.4-0.4-0.8-0.7-1.3-1C557.8,181.8,563.3,179.4,569.7,179L569.7,179z M550.1,188.7c1.7,1.8,3.4,3.4,5,5
			c3.4,3.4,6.7,6.7,10.1,10.1c0.2,0.2,0.3,0.4,0.3,0.6c0.1,0.2,0.1,0.4,0.1,0.7c-0.1,0.3-0.7,0.6-1,0.6c-6.9,0-13.8,0-20.7,0
			c-0.2,0-0.3,0-0.7-0.1C543.5,199.2,545.9,193.7,550.1,188.7z M544.5,209.5c6.6,0,13.1,0,19.7,0c0.5,0,1,0.4,1.5,0.6
			c-0.2,0.5-0.3,1.1-0.7,1.4c-4.6,4.7-9.2,9.3-13.9,13.9c-0.3,0.3-0.6,0.6-1,0.9c-4.1-4.7-6.6-10.6-7-16.8
			C543.6,209.6,544,209.5,544.5,209.5L544.5,209.5z M600.5,178.5c-0.5-0.6-0.8-1.3-0.8-2c-0.1-4.2,0-8.5,0-12.7
			c0-1.5-0.7-2.2-1.9-2.3c-1.2,0-1.9,0.8-1.9,2.2c0,1.5,0,3,0,4.5c0,2,0,4,0,6.2c-1.3-0.8-2.3-1.5-3.4-2.1c-0.8-0.4-1.1-1-1.1-1.9
			c0-8.7,0-17.3,0-26c0-1.2-0.3-2.1-1.3-2.7h-1.3c-1,0.7-1.3,1.6-1.3,2.7c0.1,3.7,0,7.4,0,11.2c-1.2-0.3-2.4-0.4-3.6-0.3
			c-1.2,0.1-2.4,0.5-3.4,1.1c0.7-3-0.1-5.3-2.3-7.1c-1-0.8-2.2-1.4-3.4-1.8c-1.2-0.4-2.5-0.5-3.8-0.4c-5.6,0.4-8.5,3.8-8,9.2
			c-2.2-1.1-4.4-1.5-6.9-0.7v-2.1c0-3,0-6.1,0-9.1c0-1.2-0.3-2.1-1.3-2.7h-1.3c-1.1,0.6-1.3,1.5-1.3,2.7c0,8.6,0,17.3,0,25.9
			c0,0.9-0.2,1.5-1.1,1.9c-1.1,0.6-2.1,1.3-3.4,2.1v-1.6c0-9.4,0-18.7,0-28.1c0-1.2-0.2-2.2-1.2-2.9H545c-1,0.7-1.2,1.7-1.2,2.9
			c0,10.5,0,21.1,0,31.6c0,0.9-0.3,1.7-1,2.4c-2,2.3-3.8,4.6-5.6,7c-0.2,0.2-0.3,0.4-0.3,0.7c-0.1,0.3-0.1,0.5,0,0.8
			c0,0.3,0.2,0.5,0.3,0.7c0.2,0.2,0.3,0.4,0.6,0.5c0.9,0.5,1.9,0.3,2.6-0.6c0.2-0.2,0.3-0.5,0.5-0.7c9.1-12.7,21.4-18.2,36.8-16
			c20.4,2.9,34.5,23.2,30.4,43.3c-4,20.1-22.4,32.8-42.6,29.6c-17-2.7-30.5-18.1-30.8-35.4c-0.1-4.4,0.5-8.7,1.9-12.9
			c0.3-0.9,0.4-1.9-0.5-2.4c-0.5-0.3-1.5-0.5-2-0.2c-0.5,0.2-1,1-1.2,1.7c-4.7,15.8-1.4,29.7,10,41.7c0.3,0.3,0.5,0.6,0.7,1
			s0.2,0.8,0.2,1.2c0,4.5,0,9.1,0,13.6c0,0.5,0,1,0.1,1.5c0.2,1,0.9,1.4,1.9,1.4c0.4,0,0.8-0.1,1.1-0.4c0.3-0.3,0.5-0.6,0.6-1
			c0.1-0.5,0.1-0.9,0.1-1.4c0-3.4,0-6.8,0-10.2c0-0.4,0-0.9,0.1-1.4c1.2,0.8,2.2,1.5,3.3,2.1c0.8,0.4,1.1,1,1.1,1.9
			c0,8.6,0,17.1,0,25.7c0,0.4,0,0.9,0,1.3c0,0.3,0.1,0.5,0.3,0.8s0.3,0.4,0.6,0.6c0.2,0.2,0.5,0.2,0.8,0.3c0.3,0,0.6,0,0.8-0.1
			c0.7-0.2,1.4-0.2,2.2-0.1c4.5,1.1,8.5-3.1,7.3-7.5c-0.9-3.4-3.9-4.9-8-4.2v-16.1c10.4,4.1,20.9,4.1,31.3,0v16.1
			c-0.4-0.1-0.7-0.2-1-0.2c-1.2-0.2-2.5-0.1-3.6,0.5c-1.1,0.5-2.1,1.4-2.7,2.5c-0.6,1-0.9,2.2-0.8,3.4c0.1,1.2,0.5,2.4,1.3,3.3
			c1.5,2,4.1,2.8,6.7,2.1c0.5-0.1,1-0.1,1.5,0.1c0.9,0.3,1.7,0.2,2.2-0.6c0.3-0.6,0.5-1.3,0.5-1.9c0-8.7,0-17.4,0-26.1
			c0-0.5,0.2-1.2,0.5-1.4c1.2-0.9,2.5-1.6,4-2.5v29.7c0,2.1,0.6,3,2,3c1.3,0,1.9-0.9,1.9-2.9c0-10.6,0-21.2,0-31.8
			c0-0.7,0.3-1.5,0.8-2C616.7,220.4,616.7,194.8,600.5,178.5L600.5,178.5z M562.1,167.7c-2.9,0-6-3.1-6.1-5.9c0-1.8,0.9-2.7,2.7-2.6
			c2.9,0.1,5.9,3.2,5.9,6.1C564.5,166.8,563.6,167.7,562.1,167.7L562.1,167.7z M575.2,163.7c-0.1,1,0,1.9,0,3h-6.5
			c-0.3-1.9-0.7-3.8-1-5.8c2.7,1,5.7,1,8.4-0.1C575.7,161.9,575.3,162.8,575.2,163.7L575.2,163.7z M575.9,156.3
			c-1,0.9-2.5,1.4-4.1,1.4l-0.2,0.3c-1.3-0.6-2.8-1-4-1.8c-1.5-1-1.4-2.7-0.1-3.8c2.1-1.9,6.3-1.9,8.3,0
			C577.1,153.7,577.1,155.1,575.9,156.3L575.9,156.3z M581.3,167.7c-1.5,0-2.4-1-2.4-2.4c-0.1-3,3.1-6.2,6.1-6.2
			c1.6,0,2.5,1,2.5,2.6C587.4,164.7,584.2,167.8,581.3,167.7L581.3,167.7z M558.3,265.1c0.3,0,0.6,0.1,0.8,0.2
			c0.3,0.1,0.5,0.3,0.7,0.5s0.4,0.4,0.5,0.7c0.1,0.3,0.2,0.6,0.2,0.8c0,0.6-0.2,1.1-0.6,1.6c-0.4,0.4-1,0.7-1.5,0.7
			c-0.3,0-0.6-0.1-0.9-0.2c-0.3-0.1-0.5-0.3-0.7-0.5s-0.4-0.5-0.5-0.7c-0.1-0.3-0.2-0.6-0.1-0.9c0-0.3,0.1-0.6,0.2-0.8
			c0.1-0.3,0.3-0.5,0.5-0.7s0.4-0.4,0.7-0.5C557.7,265.2,557.9,265.1,558.3,265.1L558.3,265.1z M585.2,269.6c-0.3,0-0.6-0.1-0.9-0.2
			c-0.3-0.1-0.5-0.3-0.7-0.5s-0.4-0.5-0.5-0.8s-0.1-0.6-0.1-0.9c0-0.6,0.3-1.1,0.7-1.5s1-0.6,1.6-0.6s1.1,0.3,1.5,0.7
			c0.4,0.4,0.6,1,0.6,1.6s-0.3,1.1-0.7,1.5C586.4,269.3,585.8,269.6,585.2,269.6L585.2,269.6z M571.8,252.7c-1.2,0-2.4,0.3-3.4,1
			s-1.8,1.6-2.3,2.7c-0.5,1.1-0.6,2.3-0.4,3.5c0.2,1.2,0.8,2.3,1.7,3.1c0.9,0.9,1.9,1.4,3.1,1.7c1.2,0.2,2.4,0.1,3.5-0.4
			s2.1-1.3,2.7-2.3c0.7-1,1-2.2,1-3.4c0-1.6-0.7-3.1-1.8-4.3C574.9,253.3,573.4,252.7,571.8,252.7L571.8,252.7z M571.8,261
			c-0.4,0-0.9-0.1-1.2-0.3c-0.4-0.2-0.7-0.6-0.8-1c-0.2-0.4-0.2-0.9-0.2-1.3c0.1-0.4,0.3-0.8,0.6-1.2s0.7-0.5,1.1-0.6
			c0.4-0.1,0.9-0.1,1.3,0.1c0.4,0.2,0.8,0.4,1,0.8c0.3,0.4,0.4,0.8,0.4,1.2c0,0.6-0.2,1.1-0.6,1.6C572.9,260.7,572.4,261,571.8,261
			L571.8,261z"/>
	</g>
	<g>
		<defs>
			<rect id="SVGID_00000067922853984407277680000015660040406972290460_" x="0" y="0" width="272.4" height="292.5"/>
		</defs>
		<clipPath id="SVGID_00000046297057229445442130000010116610718897872525_">
			<use xlink:href="#SVGID_00000067922853984407277680000015660040406972290460_"  style="overflow:visible;"/>
		</clipPath>
		<path style="clip-path:url(#SVGID_00000046297057229445442130000010116610718897872525_);fill:#6A3834;" d="M845.5,138.6
			c0.4,0,0.8-0.1,1.2-0.3c0.3-0.2,0.6-0.6,0.8-0.9c0.1-0.4,0.2-0.8,0.1-1.2c-0.1-0.4-0.3-0.8-0.6-1.1s-0.7-0.5-1.1-0.6
			c-0.4-0.1-0.8,0-1.2,0.1c-0.4,0.2-0.7,0.4-0.9,0.8c-0.2,0.3-0.3,0.7-0.3,1.2s0.2,1.1,0.6,1.4C844.4,138.4,844.9,138.6,845.5,138.6
			z M835.1,132.5c0.4,0,0.8-0.1,1.2-0.3s0.6-0.5,0.8-0.9s0.2-0.8,0.1-1.2c-0.1-0.4-0.3-0.8-0.6-1.1s-0.6-0.5-1-0.6s-0.8,0-1.2,0.1
			c-0.4,0.2-0.7,0.4-0.9,0.8c-0.2,0.3-0.3,0.7-0.3,1.1c0,0.5,0.2,1.1,0.6,1.5C834.1,132.2,834.6,132.5,835.1,132.5L835.1,132.5z
			 M855.8,128.3c0.4,0,0.8-0.1,1.1-0.4c0.3-0.2,0.6-0.6,0.7-0.9c0.1-0.4,0.2-0.8,0.1-1.2c-0.1-0.4-0.3-0.8-0.6-1
			c-0.3-0.3-0.7-0.5-1.1-0.5c-0.4-0.1-0.8,0-1.2,0.2s-0.7,0.4-0.9,0.8c-0.2,0.3-0.3,0.8-0.3,1.2c0,0.5,0.2,1.1,0.6,1.4
			C854.8,128.2,855.3,128.4,855.8,128.3L855.8,128.3z M822.7,132.5c0.4,0,0.8-0.1,1.2-0.3s0.6-0.5,0.8-0.9s0.2-0.8,0.2-1.2
			c-0.1-0.4-0.2-0.8-0.5-1.1s-0.6-0.5-1-0.6s-0.8-0.1-1.2,0.1s-0.7,0.4-0.9,0.7s-0.4,0.7-0.4,1.1c0,0.5,0.2,1.1,0.5,1.5
			C821.7,132.2,822.2,132.5,822.7,132.5L822.7,132.5z M875.7,116c-2.8,0-5.7,0-8.5,0c-0.4,0-0.7,0-1.2-0.1c0-2.5,0-4.8,0-7.2
			c-0.1-3.3,0-6.7-0.4-10c-1-7.8-4.5-14.4-10-19.9c-0.6-0.6-0.7-1.1-0.3-1.8c0.6-1.2,1.2-2.4,1.9-3.5c2.2-3.4,4.8-6.6,7.9-9.3
			c0.8-0.7,1.2-1.5,0.8-2.5s-1.2-1.4-2.3-1.3c-4.6,0.1-9,0.8-13.3,2.6c-0.5,0.2-1,0.4-1.4,0.6c2-3.6,4.7-6.8,7.7-9.5
			c0.8-0.7,1.5-1.5,1-2.7c-0.4-1.2-1.5-1.4-2.6-1.4c-4.8,0.1-9.5,1-13.8,3c-0.5-1.9-0.9-3.7-1.5-5.5c-1.2-3.7-3.3-6.7-6.6-9
			c-1.5-1-2.8-1-4.3,0c-3.8,2.6-5.9,6.3-7.1,10.7c-0.3,1.2-0.6,2.5-0.9,3.8c-4.6-2.2-9.4-3-14.3-3c-1,0-1.8,0.3-2.2,1.3
			s0,1.7,0.7,2.4c0.9,0.9,1.9,1.7,2.7,2.6c1.9,2.2,3.8,4.6,5.7,6.8l-0.3,0.3c-0.4-0.1-0.7-0.3-1-0.4c-4.4-2-9.1-2.7-13.9-2.8
			c-0.4,0-0.9,0.1-1.2,0.3c-0.4,0.2-0.6,0.6-0.8,1c-0.4,0.9-0.1,1.7,0.6,2.3c0.3,0.3,0.6,0.6,0.9,0.9c3.7,3.5,6.9,7.4,9.1,12
			c0.4,0.8,0.3,1.3-0.4,1.9c-3.4,3.3-6.1,7.3-7.9,11.8c-1.7,4.1-2.5,8.5-2.5,13l-7.5,2.9c0.5-4,1-8.1,2.9-11.8
			c0.3-0.5,0.6-1.2,0.4-1.7c-0.3-0.7-0.8-1.3-1.5-1.7c-0.2-0.1-0.4-0.1-0.7-0.1c-0.2,0-0.5,0-0.7,0.1s-0.4,0.2-0.6,0.4
			c-0.2,0.2-0.3,0.4-0.4,0.6c-0.9,2.3-1.9,4.6-2.5,6.9c-0.7,2.6-1,5.3-1.4,8.1c-0.2-0.1-0.5-0.1-0.7-0.2c-0.4-0.2-0.7-0.4-1.1-0.6
			c-6.1-3.7-12.4-4-18.5-0.1c-7.2,4.6-9.5,11.6-8.9,19.8c0.2,2.8,0.8,5.5,1.1,8.3c0.8,6.3,2.6,12.4,5.9,17.9
			c4.6,7.6,12.9,10.8,21,7.7c1.8-0.7,3.8-0.7,5.5,0.1c6.3,2.4,12.1,1,17.1-3.3c0.7-0.6,1.2-0.7,2-0.3c8.1,3.7,16.6,5.4,25.4,4.5
			c16.7-1.6,29.8-9.4,39.2-23.3c3.9-5.6,6-12.2,6.2-19C878.5,116.7,877.7,116,875.7,116L875.7,116z M865.7,120.2
			c-2.4,10.5-8.6,18.1-17.6,23.4c-11.6,6.9-25.1,6.6-35.2,1.5c2.2-8.2,3.8-16.4,3.6-25h49.2V120.2z M822.7,106.1l8.2-9l8,8.7
			l-7.7,8.5L822.7,106.1z M826.3,116c-3.2,0-6.8,0-10.4,0c-0.3,0-0.7-0.4-0.8-0.7c-0.2-0.4-0.5-0.9-0.6-1.4l5.1-5.4L826.3,116z
			 M842.7,108.4l6.8,7.6h-13.8L842.7,108.4z M834.7,94.3l8-8.6l8.1,8.8l-8,8.6L834.7,94.3z M842.8,80.2l-6.2-6.8
			c3,0.4,6.4,1.6,9.5,3.4L842.8,80.2z M839.1,83.2l-7.9,8.5l-8-8.8l7.8-8.5L839.1,83.2z M819.4,80.3l-3.3-3.6c3-1.7,6.2-2.8,9.6-3.4
			L819.4,80.3z M819.4,85.7l8,8.7l-8.1,8.7l-7.9-8.7C813.8,91.8,816.5,88.9,819.4,85.7L819.4,85.7z M816.2,105.5l-4.3,4.5
			c-3-3.3-6.5-5.4-10.5-6.1l6.2-6.8L816.2,105.5z M858.8,115.9c0.9-1,1.9-2,3.1-3.3v3.3H858.8z M860.8,108l-6.6,6.3
			c-2.8-3-5.4-5.9-7.9-8.7l7.9-8.4c0.9,0.9,1.7,1.6,2.4,2.3c1.4,1.3,2.8,2.7,4.2,4C862.4,105,862.5,106.4,860.8,108L860.8,108z
			 M859.8,92.3l1.7,5.7l-0.4,0.2l-3.4-3.9L859.8,92.3z M857.7,88.1l-3.3,3.5l-8.2-8.9l3.4-3.6C852.9,81.6,855.7,84.6,857.7,88.1
			L857.7,88.1z M855.5,65.7c0.9-0.2,1.8-0.4,2.6-0.6l-6.8,10c-1.6-0.9-3.4-1.9-5.2-2.9c-1-0.6-0.4-1.1,0.1-1.6
			C848.9,68.1,852.1,66.6,855.5,65.7L855.5,65.7z M850.3,54.7c-4.1,4.8-7.4,9.5-8.5,15.5l-5.3-1.1c-0.2,0-0.4-0.1-0.6-0.1
			c-2.1-0.3-2.9-2.1-1.8-3.9C837.7,59.2,843.1,56,850.3,54.7L850.3,54.7z M828.8,44.3c2.2-2.5,2.2-2.5,4.3,0c2.7,3.1,3.5,6.9,4,10.9
			c0,0.1,0,0.3-0.1,0.4c-0.1,0.1-0.1,0.2-0.2,0.3c-1.9,2-3.9,3.9-5.8,5.7c-1.8-1.8-3.7-3.7-5.6-5.6c-0.3-0.2-0.4-0.6-0.5-0.9
			C825.4,51.2,826.2,47.3,828.8,44.3L828.8,44.3z M811.9,54.9c8.2,0.9,15.3,6.6,17.7,13.6l-9.3,1.6
			C819.2,64.3,815.9,59.5,811.9,54.9L811.9,54.9z M804,65.1c3.6,0.5,7,1.9,9.9,3.9c0.7,0.5,1.4,1.1,2.1,1.7c0.5,0.5,0.6,1.1-0.2,1.5
			c-1.7,0.9-3.4,1.9-5,2.8L804,65.1z M812.3,79.2c1.2,1.4,2.5,2.7,3.5,3.9l-8,8.6l-3.3-3.7C806.5,84.5,809.1,81.6,812.3,79.2
			L812.3,79.2z M802.3,92l2.1,2.3l-3.6,3.8l-0.2-0.1C801.1,96.2,801.6,94.3,802.3,92z M805.7,150.4c-2.6,4.4-6.6,6.9-11.9,6.8
			c-1.6-0.1-3.1-0.4-4.6-1.1c-1.1-0.5-2.3-0.8-3.5-0.8s-2.4,0.3-3.5,0.8c-4,1.7-8,1.5-11.8-0.9c-2.3-1.4-4-3.4-5.3-5.8
			c-2.9-5.3-4.3-11-5.1-17c-0.3-2.2-0.7-4.3-0.9-6.5c-0.5-6.2,1-11.7,6.2-15.6c4.5-3.3,10.2-3.3,14.9-0.3c1.1,0.7,2.4,1.2,3.8,1.9
			c-0.1,1.2-0.2,2.5-0.2,4.1c-1-0.5-1.9-0.9-2.7-1.5c-1.2-0.7-2.2-0.7-3,0.2c-0.7,0.9-0.6,2.2,0.5,3.1c3.7,3.1,11,3.1,14.6,0
			c1-0.9,1.2-2,0.5-3s-1.8-1-3-0.3c-0.8,0.5-1.7,0.9-2.8,1.5c0.1-1.6,0.2-2.8,0.3-4c0-0.1,0-0.2,0.1-0.3c0-0.1,0.1-0.2,0.2-0.2
			c1.8-0.9,3.5-1.8,5.3-2.6c7.9-3.3,15.9,1.7,18.1,9.4c1,3.4,0.9,6.8,0.3,10.2c-0.9,4.6-1.5,9.3-2.7,13.8
			C808.6,145.1,807.2,147.8,805.7,150.4L805.7,150.4z M869.3,134.7c-8.5,13.2-20.6,20.6-36.2,22.2c-7.8,0.8-15.4-0.6-22.6-3.6
			c-0.4-0.2-0.8-0.3-1.2-0.6l2-3.7c12.2,5.4,24.3,5.5,36.3-0.4c11.8-5.9,19.7-15.2,22.5-28.4h4.2
			C873.8,125.4,872.1,130.4,869.3,134.7L869.3,134.7z M829,144.8c0.4,0,0.8-0.1,1.1-0.4c0.3-0.2,0.6-0.6,0.8-0.9
			c0.2-0.4,0.2-0.8,0.1-1.2c-0.1-0.4-0.3-0.8-0.6-1c-0.3-0.3-0.7-0.5-1.1-0.5c-0.4-0.1-0.8,0-1.2,0.1c-0.4,0.2-0.7,0.4-0.9,0.8
			c-0.2,0.3-0.3,0.7-0.3,1.2s0.2,1.1,0.6,1.4C827.9,144.6,828.5,144.8,829,144.8L829,144.8z"/>
	</g>
	<g>
		<defs>
			<rect id="SVGID_00000032632716597037399180000015529113028185656461_" x="0" y="0" width="272.4" height="292.5"/>
		</defs>
		<clipPath id="SVGID_00000144328964389463399260000011272771584171679115_">
			<use xlink:href="#SVGID_00000032632716597037399180000015529113028185656461_"  style="overflow:visible;"/>
		</clipPath>
		<path style="clip-path:url(#SVGID_00000144328964389463399260000011272771584171679115_);fill:#6A3834;" d="M1132.2,178.3h-37V213
			h6.4c-1.3,1.7-2.6,3.2-3.7,4.8c-0.6,0.9-1.2,1.2-2.2,1.2c-8.9,0-17.7,0-26.6,0h-1.6v-12h-4.2v11.9h-19.2V207h-4.2v12h-31.8v20.9
			c-4.8-1.9-8.6-1.2-11.3,2.2c-1.1,1.4-1.8,3.2-1.9,5c-0.1,1.8,0.4,3.6,1.4,5.1c2.4,3.7,5.9,4.5,11.6,2.9v3.7h-16.3v14.6h11.8
			c-0.1-1.3-0.1-2.6-0.2-4.1H1104v4.1h11.8v-14.7h-16.2c-0.7-2.5-0.5-3,1.4-4.3c4.1-2.7,8.3-5.4,12.4-8c0.5-0.4,1.1-0.6,1.7-0.7
			c8.9-0.9,15.3-6.9,16.8-15.8c0-0.2,0.1-0.3,0.2-0.5V225c-0.2-0.8-0.4-1.7-0.6-2.5c-0.9-3.4-2.7-6.4-5.3-8.8
			c-0.3-0.3-0.5-0.6-0.6-1h6.5L1132.2,178.3L1132.2,178.3z M1007.4,249.5c-0.5,1.6-2.4,2.7-4.2,2.5c-1.1-0.1-2-0.6-2.8-1.4
			s-1.2-1.8-1.3-2.8c-0.1-1.1,0.2-2.1,0.8-3s1.5-1.5,2.6-1.8c1.9-0.5,4.3,0.4,5,2.4h-3.8v4.1H1007.4z M999.2,269.2H996V263h3.2
			V269.2z M1012.5,223.2h82.7v35.4h-82.7L1012.5,223.2L1012.5,223.2z M1108.3,263h3.2v6.3h-3.2V263z M1104,263v2h-100.5v-2H1104z
			 M1099.4,250.6v-11.5c2.3,2.7,5.3,4.7,8.7,5.8L1099.4,250.6z M1128.1,226.9c0,1.9-0.3,3.8-1,5.6s-1.7,3.4-3.1,4.8
			c-1.3,1.4-2.9,2.5-4.7,3.3c-1.8,0.8-3.6,1.2-5.5,1.2c-7.6,0.2-14.4-6.3-14.6-13.9c-0.1-1.9,0.3-3.8,1-5.6s1.7-3.4,3-4.8
			c1.3-1.4,2.9-2.5,4.7-3.3c1.8-0.8,3.6-1.2,5.5-1.2C1121.2,212.8,1127.9,219.2,1128.1,226.9L1128.1,226.9z M1128,208.7h-28.6v-26.3
			h28.6V208.7z M1016.8,174.9c6.3,6.2,12.5,12.5,18.7,18.7c0.3,0.3,0.6,0.6,0.7,1c0.2,0.4,0.2,0.8,0.2,1.2c-0.1,2.5,0,5,0,7.5h34.7
			c0-2.5,0-4.9,0-7.2c0-0.5,0-1,0.2-1.4c0.2-0.5,0.5-0.9,0.8-1.2c6.2-6.2,12.4-12.4,18.6-18.6c0.3-0.3,0.6-0.7,0.8-1.1
			c0.2-0.4,0.3-0.9,0.2-1.3c-0.1-4.2,0-8.3,0-12.5v-4h-76c0,0.5-0.1,1-0.1,1.5c0,4.9,0,9.9,0,14.8c0,0.5,0,0.9,0.2,1.4
			C1016.1,174.2,1016.4,174.6,1016.8,174.9L1016.8,174.9z M1066.9,199.3h-26.3v-3.4h26.3V199.3z M1020,160.3h67.6
			c0,0.5,0.1,1,0.1,1.4c0,3.1,0.1,6.2,0,9.3c0,0.7-0.3,1.5-0.8,2c-5.9,6-11.8,11.9-17.8,17.8c-0.5,0.5-1.2,0.8-1.9,0.8
			c-8.9,0.1-17.8,0.1-26.7,0c-0.6,0-1.1-0.2-1.6-0.5c-5.2-5.1-10.4-10.3-15.5-15.5c-0.1-0.1-0.2-0.3-0.2-0.4h30.6v-4.1H1020V160.3z
			 M1108.5,206.3c1.2,0,2.4-0.4,3.4-1.1c1-0.7,1.8-1.6,2.2-2.8c0.4-1.1,0.6-2.3,0.3-3.5c-0.2-1.2-0.8-2.3-1.7-3.1
			c-0.9-0.8-1.9-1.4-3.1-1.6c-1.2-0.2-2.4-0.1-3.5,0.4s-2,1.3-2.7,2.3s-1,2.2-1,3.4c0,1.6,0.7,3.2,1.8,4.3
			S1106.9,206.3,1108.5,206.3L1108.5,206.3z M1108.4,198.2c0.5,0,1,0.2,1.4,0.6c0.4,0.4,0.6,0.9,0.6,1.4s-0.2,1-0.6,1.4
			s-0.9,0.6-1.4,0.6s-1-0.2-1.4-0.6c-0.4-0.4-0.6-0.9-0.6-1.4s0.2-1,0.6-1.4C1107.4,198.4,1107.9,198.2,1108.4,198.2L1108.4,198.2z
			 M1060.9,216.5V206h-14.1v10.6L1060.9,216.5z M1050.9,210.1h5.9v2.4h-5.9V210.1z M1070.6,162.8H1047v3.9h23.6V162.8z
			 M1055.2,152.4h3.9v-4h-3.9V152.4z M1065.7,152.4v-4h-3.7v4H1065.7z M1037.1,151.6c-0.1-1.9,0-3.9,2.2-5.1
			c2.2-1.1,3.9,0.3,5.8,1.3c1.1-3.3,2.6-6.3,5.4-8.2c2.9-2,6.1-2.9,9.6-2.2c7.8,1.7,10.8,7,10.9,14.2l7.5,2.4l2.3-2.9
			c-0.8-0.5-1.4-0.9-2.1-1.3c-0.9-0.4-1.7-0.8-2.7-1.1c-0.8-0.2-1.1-0.6-1.2-1.4c-1.2-7.1-6.6-12.7-13.5-14
			c-3.4-0.7-6.9-0.2-10.1,1.2s-5.8,3.8-7.6,6.7c-0.2,0.3-0.4,0.6-0.7,0.7c-0.3,0.2-0.7,0.2-1,0.1c-3.9-0.3-6.9,1.6-8.4,5.3
			c-0.3,0.5-0.7,0.9-1.2,1.1c-1.8,0.8-3.6,1.6-5.6,2.4l2.4,3.1L1037.1,151.6z M1077.5,162.8h-3.9v3.9h3.9V162.8z M1084.3,162.7h-3.9
			v4h3.9V162.7z M1048.3,152.4h3.9v-3.9h-3.9V152.4z M1086.6,238.2h4v-4h-4V238.2z M1068.3,235.9c-1.3,0-2.6,0.6-3.5,1.5
			c-0.9,1-1.4,2.2-1.4,3.6c0,1.3,0.5,2.6,1.4,3.6c0.9,0.9,2.2,1.5,3.5,1.5c0.7,0,1.4-0.1,2-0.4c0.6-0.2,1.2-0.6,1.7-1.1
			s0.9-1,1.1-1.7c0.3-0.6,0.4-1.3,0.4-2s-0.1-1.4-0.4-2s-0.6-1.2-1.1-1.7s-1.1-0.8-1.7-1.1C1069.7,236,1069,235.8,1068.3,235.9
			L1068.3,235.9z M1068.4,241.8c-0.3,0-0.7-0.5-1-0.8c0.3-0.3,0.6-0.9,1-1c0.3-0.1,0.7,0.4,1.3,0.9
			C1069.2,241.4,1068.8,241.8,1068.4,241.8L1068.4,241.8z M1125,185h-4v3.9h4V185z M1068,229.5c-9.7,0.8-19.4,2.1-29.1,3.3
			c-1.6,0.2-3.3,0.4-4.8,1c-3.4,1.5-5,5-4.4,8.7c0.6,3.4,3.4,6,7.4,6.5c10,1.2,20,2.3,30.1,3.4c6.9,0.8,12.7-4.3,12.9-11.3
			C1080,234.4,1074.5,228.9,1068,229.5L1068,229.5z M1037.6,244.9c-0.8,0-1.6-0.2-2.2-0.6c-0.7-0.4-1.2-1-1.5-1.7s-0.4-1.5-0.3-2.3
			s0.5-1.5,1-2c0.5-0.6,1.2-0.9,2-1.1c0.8-0.2,1.6-0.1,2.3,0.2c0.7,0.3,1.3,0.8,1.8,1.4c0.4,0.6,0.7,1.4,0.7,2.2c0,1-0.4,2-1.1,2.8
			C1039.6,244.4,1038.6,244.8,1037.6,244.9L1037.6,244.9z M1044.4,245.7c0.4-1.6,1-3.1,1-4.7c0-1.6-0.6-3.1-1-4.7l14.1-1.6
			c-2.4,4.3-2.4,8.4,0.1,12.7L1044.4,245.7z M1068.5,248.4c-4.1,0.1-7.5-3.4-7.6-7.5c0-4.1,3.5-7.6,7.5-7.5c2,0,3.8,0.8,5.2,2.2
			c1.4,1.4,2.1,3.3,2.1,5.2c0,2-0.8,3.8-2.1,5.2C1072.3,247.6,1070.4,248.4,1068.5,248.4L1068.5,248.4z M1118.1,184.9h-3.9v3.9h3.9
			V184.9z M1118.9,224.9l4.2-3.8l-3.3-3.4c-1.3,1.4-2.6,2.9-4.2,4.7v-6.2h-4.1v5.9l-0.4,0.2l-3.6-4.1l-3.6,2.9
			c1.5,1.4,2.9,2.7,4.6,4.2h-6.1v4.2h5.8l0.1,0.3l-4.3,3.9l3.4,3.2l4.2-4.5v6.1h4.2v-5.9l0.4-0.2l3.8,4.1l3.3-2.9l-4.5-4.2h6.1v-4.2
			h-5.8C1119,225.1,1119,225,1118.9,224.9L1118.9,224.9z M1086.6,254h3.9v-12.8h-3.9V254z M1017.4,256.1h3.9v-3.9h-3.9V256.1z
			 M1024.2,256.1h3.9v-3.9h-3.9V256.1z M1090.6,227.4h-3.9v4h3.9V227.4z M1111.3,184.9h-9v3.9h9V184.9z M1035.5,242.9h3.9v-4h-3.9
			V242.9z M1031.1,256h3.7v-3.9h-3.7V256z"/>
	</g>
	<g>
		<defs>
			<rect id="SVGID_00000114035106261359874310000004636956203742312864_" x="0" y="0" width="272.4" height="292.5"/>
		</defs>
		<clipPath id="SVGID_00000139276906907353343310000010121695029163933584_">
			<use xlink:href="#SVGID_00000114035106261359874310000004636956203742312864_"  style="overflow:visible;"/>
		</clipPath>
		<path style="clip-path:url(#SVGID_00000139276906907353343310000010121695029163933584_);fill:#6A3834;" d="M1258,110
			c0,0.5,0.2,0.9,0.5,1.2c0.3,0.3,0.8,0.5,1.2,0.5c1,0.1,1.9-0.4,2-1.5c0.1-1.5,0.1-3,0-4.5c-0.1-1-0.9-1.5-1.9-1.5
			c-0.2,0-0.4,0-0.7,0.1c-0.2,0.1-0.4,0.2-0.6,0.4c-0.2,0.2-0.3,0.3-0.4,0.6c-0.1,0.2-0.1,0.4-0.1,0.7c-0.1,0.6,0,1.3,0,1.9
			C1258,108.6,1258,109.3,1258,110z M1258.8,70.7c0.8,0,1.6-0.1,2.3-0.5c0.7-0.3,1.4-0.8,2-1.3c0.6-0.6,1-1.2,1.3-2
			c0.3-0.7,0.5-1.5,0.5-2.3c0-0.8-0.2-1.6-0.5-2.3s-0.8-1.4-1.3-2c-0.6-0.6-1.2-1-2-1.3c-0.7-0.3-1.5-0.5-2.3-0.4
			c-0.8,0-1.6,0.2-2.3,0.5c-0.7,0.3-1.4,0.8-2,1.3c-0.6,0.6-1,1.2-1.3,2c-0.3,0.7-0.5,1.5-0.5,2.3c0,1.6,0.7,3.1,1.8,4.3
			C1255.7,70.1,1257.2,70.8,1258.8,70.7L1258.8,70.7z M1258.9,62.5c0.6,0,1.1,0.3,1.5,0.7s0.6,1,0.7,1.5c0,0.6-0.2,1.1-0.7,1.5
			c-0.4,0.4-1,0.6-1.6,0.6c-0.3,0-0.6,0-0.8-0.1c-0.3-0.1-0.5-0.3-0.7-0.5s-0.4-0.4-0.5-0.7c-0.1-0.3-0.2-0.5-0.2-0.8s0-0.6,0.2-0.9
			c0.1-0.3,0.3-0.5,0.5-0.7s0.5-0.4,0.7-0.5C1258.3,62.5,1258.6,62.5,1258.9,62.5z M1249.8,105.8c-0.1,1.5-0.1,3,0,4.5
			c0.1,1,1,1.5,2,1.5c0.5,0,0.9-0.2,1.2-0.5c0.3-0.3,0.5-0.8,0.5-1.2c0.1-0.6,0-1.3,0-1.9s0.1-1.4,0-2.1c0-0.2-0.1-0.5-0.1-0.7
			c-0.1-0.2-0.2-0.4-0.4-0.6c-0.2-0.2-0.3-0.3-0.6-0.4c-0.2-0.1-0.4-0.1-0.7-0.1C1250.7,104.3,1249.9,104.8,1249.8,105.8z
			 M1304.7,84.5c3.8,0.1,7.6-3.8,7.4-7.6c0-1.1-0.5-2.2-1.2-3s-1.7-1.4-2.8-1.6c-3.9-0.7-8.2,3-8.2,7.1
			C1299.9,82.3,1301.9,84.4,1304.7,84.5L1304.7,84.5z M1307,76.2c0.9,0,1.2,0.5,1.1,1.3c-0.2,1.4-1.7,2.9-3.1,3.1
			c-0.8,0.1-1.3-0.2-1.3-1.1C1303.8,78,1305.6,76.2,1307,76.2L1307,76.2z M1371.8,103.7c-0.9-2.9-2.7-5.4-5.2-7.3
			c-2.4-1.8-5.4-2.8-8.4-2.8c-1.7,0-3.4,0-5.3,0v-1.5c0-5.5,0-11,0-16.5c0-1.5-0.9-2.4-2.1-2.3c-1.1,0.1-1.7,1-1.7,2.5
			c0,5.4,0,10.7,0,16.1v1.6h-20.5V63.3h20.5c0,0.9,0,1.9,0,2.8c0,1.3,0.8,2.1,1.9,2.1s1.9-0.8,1.9-2.1c0-4.3,0-8.6,0-12.9
			c0-1.5-0.7-2.2-2.2-2.2c-7.9,0-15.8,0-23.8,0c-1.6,0-2.2,0.7-2.2,2.3c0,2.9,0,5.7,0,8.6c0,10,0,20,0,30v1.6h-4.6V54
			c0-2.5-0.4-3-3-3h-22.2c-2.5,0-3,0.5-3,3v39.5h-12.7V76.1h5.2c2.6,0,3-0.5,3-3c0-10.8,0-21.5,0-32.3c0-1.2-0.2-2.2-1.2-2.9h-28.8
			c-0.2,0.2-0.6,0.4-0.7,0.7c-0.2,0.7-0.5,1.6-0.2,2c0.2,0.3,0.5,0.6,0.9,0.7c0.3,0.2,0.7,0.3,1.1,0.3c5.1,0.1,10.1,0,15.2,0h1.5
			v76.6h-30.3V41.9c1.2,0,2.3,0,3.5,0c1.1,0,2.1-0.1,2.6-1.2c0.5-1.2-0.2-1.9-1-2.6h-7.7c-1.1,0.6-1.3,1.6-1.3,2.8
			c0,35,0,70.1,0,105.1v20.8c0,2.3,0.5,2.8,2.9,2.8h6c2.8,0,3.2-0.4,3.2-3.1c0-14.1,0-28.3,0-42.4v-1.7h71.6c0.5,0,0.9,0,1.4,0
			c0.4,0,0.8-0.2,1.2-0.5c0.3-0.3,0.5-0.7,0.5-1.2c0.1-0.4,0-0.9-0.3-1.2c-0.2-0.4-0.6-0.6-1-0.7c-0.5-0.1-1.1-0.2-1.7-0.2
			c-14.7,0-29.5,0-44.2,0h-1.5v-4.4h77.9c0.5,0,0.9,0,1.4,0c1.5-0.1,2.9-0.7,3.9-1.7c1.1-1,1.7-2.4,1.9-3.8c0.1-1.4-0.2-2.8-1-3.9
			s-1.9-2-3.2-2.4c-0.9-0.2-1.8-0.3-2.8-0.3c-25.5,0-50.9,0-76.4,0h-1.7v-4.5h78.1c0.4,0,0.9,0,1.3,0c2.7,0.1,5.3,1.3,7.2,3.2
			c1.9,1.9,3,4.5,3,7.2c0,1.4-0.2,2.7-0.7,4s-1.3,2.4-2.2,3.4c-1,1-2.1,1.8-3.4,2.3s-2.6,0.8-4,0.8c-7.6,0.1-15.1,0-22.6,0
			c-1.9,0-2.8,0.6-2.8,1.9s0.9,2,2.7,2c2.5,0,5,0,7.5,0c0.4,0,0.7,0,1.2,0.1v1.7c0,14.3,0,28.6,0,42.9c0,2,0.6,2.6,2.6,2.6
			c2.2,0,4.4,0,6.6,0c2.5,0,3-0.5,3-3c0-14.2,0-28.4,0-42.7v-1.6c0.8,0,1.3,0,1.9,0c3,0,6-1,8.4-2.8s4.2-4.3,5.1-7.2
			c0.3-0.8,0.5-1.7,0.7-2.6v-3.6C1372.3,105.4,1372.1,104.5,1371.8,103.7L1371.8,103.7z M1328.6,54.9h20.4v4.3h-20.4V54.9z
			 M1249,165.8h-4.2v-43.3h4.2V165.8z M1279,42h4.3v30.3h-4.3V42z M1280.5,105.8h76.8c0.4,0,0.9,0,1.3,0.1c0.5,0.1,0.9,0.3,1.2,0.7
			c0.3,0.4,0.5,0.8,0.5,1.3c0.1,0.5,0,0.9-0.3,1.3c-0.2,0.4-0.6,0.7-1,0.8c-0.6,0.2-1.2,0.3-1.8,0.3c-25.6,0-51.2,0-76.8,0h-1.4
			v-4.4C1279.5,105.8,1280,105.8,1280.5,105.8z M1295.7,55h20.4v4.2h-20.4V55z M1316.1,93.5h-20.4V63.3h20.4V93.5z M1352.5,165.7
			h-4.3v-43.2h4.3V165.7z M1332.8,80.2c0.1,1.2,0.7,2.3,1.6,3.1c0.9,0.8,2.1,1.2,3.3,1.2c3.6,0,7.2-3.6,7.2-7.2
			c0.1-1.2-0.3-2.4-1.1-3.3c-0.8-0.9-1.8-1.5-3-1.6C1336.7,71.7,1332.3,76,1332.8,80.2L1332.8,80.2z M1337.4,80.6
			c-0.2-0.2-0.7-0.6-0.7-1.1c-0.2-1.5,1.8-3.5,3.3-3.3c0.2,0.1,0.5,0.2,0.7,0.4c0.2,0.2,0.3,0.4,0.4,0.7
			C1341.2,78.7,1339.3,80.6,1337.4,80.6L1337.4,80.6z M1266.3,109.9c0,0.5,0.2,1,0.6,1.3s0.8,0.5,1.3,0.5c1.1-0.1,1.8-0.7,1.9-1.8
			c0.1-1.3,0.1-2.6,0-4c-0.1-1.1-0.8-1.7-1.9-1.7c-0.2,0-0.5,0-0.7,0.1s-0.4,0.2-0.6,0.4c-0.2,0.2-0.3,0.4-0.4,0.6s-0.2,0.5-0.2,0.7
			c0,0.6,0,1.2,0,1.8C1266.3,108.6,1266.3,109.3,1266.3,109.9L1266.3,109.9z"/>
	</g>
	<g>
		<defs>
			<rect id="SVGID_00000033360671139446696960000005085369891197930922_" x="0" y="0" width="272.4" height="292.5"/>
		</defs>
		<clipPath id="SVGID_00000176045264300650682130000010449886830539887290_">
			<use xlink:href="#SVGID_00000033360671139446696960000005085369891197930922_"  style="overflow:visible;"/>
		</clipPath>
		<path style="clip-path:url(#SVGID_00000176045264300650682130000010449886830539887290_);fill:#6A3834;" d="M1513.4,248.5
			c-1.2,0-2.4,0.4-3.4,1c-1,0.7-1.8,1.6-2.2,2.7c-0.4,1.1-0.6,2.3-0.3,3.5c0.2,1.2,0.8,2.3,1.7,3.1c0.9,0.8,1.9,1.4,3.1,1.7
			c1.2,0.2,2.4,0.1,3.5-0.3c1.1-0.5,2.1-1.2,2.7-2.2c0.7-1,1-2.2,1-3.4c0-0.8-0.1-1.6-0.4-2.3s-0.8-1.4-1.3-2c-0.6-0.6-1.2-1-2-1.3
			C1515,248.7,1514.2,248.5,1513.4,248.5L1513.4,248.5z M1513.5,256.8c-0.3,0-0.6,0-0.9-0.1s-0.5-0.3-0.7-0.5
			c-0.2-0.2-0.4-0.5-0.5-0.7c-0.1-0.3-0.2-0.6-0.2-0.9c0-0.6,0.3-1.1,0.7-1.5c0.4-0.4,1-0.6,1.5-0.6c0.6,0,1.1,0.2,1.5,0.6
			c0.4,0.4,0.7,0.9,0.7,1.5c0,0.3,0,0.6-0.1,0.8c-0.1,0.3-0.3,0.5-0.5,0.7s-0.4,0.4-0.7,0.5C1514.1,256.7,1513.8,256.8,1513.5,256.8
			L1513.5,256.8z M1526.3,224.1c8.7-0.2,17.2-8.8,17.1-17.6c0-6.8-5.3-11.5-12.1-10.6c-7.6,1-14.2,7-15.8,14.5
			C1513.8,218.1,1518.7,224.2,1526.3,224.1L1526.3,224.1z M1532.5,199.7c4.3-0.1,7.1,2.7,7.1,7c0,6.6-6.9,13.5-13.4,13.6
			c-4.4,0.1-7.2-2.8-7.1-7.1C1519.1,206.6,1526,199.8,1532.5,199.7L1532.5,199.7z M1587.8,260.7c1.2,0,2.4-0.4,3.4-1
			c1-0.7,1.8-1.6,2.2-2.7c0.5-1.1,0.6-2.3,0.3-3.5c-0.2-1.2-0.8-2.3-1.7-3.1c-0.8-0.9-1.9-1.4-3.1-1.7c-1.2-0.2-2.4-0.1-3.5,0.3
			c-1.1,0.5-2.1,1.2-2.7,2.2c-0.7,1-1,2.2-1,3.4c0,0.8,0.1,1.6,0.4,2.3s0.7,1.4,1.3,2c0.6,0.6,1.2,1,2,1.3S1587,260.7,1587.8,260.7
			L1587.8,260.7z M1587.7,252.4c0.6,0,1.1,0.2,1.5,0.7c0.4,0.4,0.7,1,0.7,1.5c0,0.3-0.1,0.6-0.2,0.8c-0.1,0.3-0.3,0.5-0.5,0.7
			s-0.4,0.4-0.7,0.5c-0.3,0.1-0.5,0.2-0.8,0.2s-0.6,0-0.8-0.1c-0.3-0.1-0.5-0.2-0.7-0.4c-0.2-0.2-0.4-0.4-0.5-0.7s-0.2-0.5-0.2-0.8
			s0-0.6,0.1-0.9c0.1-0.3,0.3-0.5,0.5-0.8c0.2-0.2,0.5-0.4,0.7-0.5C1587.1,252.5,1587.4,252.4,1587.7,252.4L1587.7,252.4z
			 M1529.2,233.7c4.7,0,9.3-1.4,13.2-4s7-6.3,8.8-10.6s2.3-9.1,1.4-13.7c-0.9-4.6-3.2-8.8-6.5-12.2c-3.3-3.3-7.5-5.6-12.1-6.5
			s-9.4-0.5-13.7,1.3c-4.3,1.8-8.1,4.8-10.7,8.7s-4,8.5-4,13.2c0,6.3,2.5,12.3,6.9,16.7C1516.9,231.1,1523,233.6,1529.2,233.7
			L1529.2,233.7z M1529.4,190.1c3.9,0,7.8,1.2,11,3.4c3.3,2.2,5.8,5.3,7.3,8.9s1.9,7.6,1.1,11.5s-2.7,7.4-5.5,10.2
			s-6.3,4.6-10.2,5.4c-3.9,0.8-7.8,0.3-11.5-1.2c-3.6-1.5-6.7-4.1-8.9-7.4c-2.2-3.3-3.3-7.1-3.3-11.1c0-2.6,0.5-5.2,1.5-7.6
			c1-2.4,2.5-4.6,4.3-6.4c1.8-1.8,4.1-3.3,6.5-4.3C1524.2,190.6,1526.8,190.1,1529.4,190.1L1529.4,190.1z M1578.9,224.7
			c-1,0.1-1.7,0.8-1.6,1.9c0,1.1,0.8,1.8,1.9,1.8c0.9,0,1.7,0,2.6,0c0.8,0,1.8,0,2.7,0c0.2,0,0.5,0,0.7-0.1s0.4-0.2,0.6-0.4
			s0.3-0.4,0.4-0.6c0.1-0.2,0.1-0.5,0.1-0.7c0.1-1.1-0.5-1.9-1.6-2C1582.7,224.6,1580.8,224.6,1578.9,224.7z M1524.8,215.4
			c0.8,0.7,1.8,0.6,2.5-0.2c0.5-0.6,0.8-1.5,1.3-2.2c0.4-0.5,0.8-1.1,1.3-1.3c1.4-0.5,2.5-1.3,3.2-2.7c0.4-0.8,0.8-1.6,1.1-2.4
			c0.6-1.3-0.4-2.7-2-2.7c-1.3,0.2-1.9,1.3-2.3,2.6c-0.1,0.4-0.3,0.7-0.6,1c-0.3,0.3-0.6,0.5-1,0.6c-0.7,0.2-1.3,0.6-1.9,1
			c-0.5,0.5-1,1.1-1.2,1.8c-0.3,0.6-0.5,1.2-0.8,1.8C1523.9,213.9,1524,214.7,1524.8,215.4L1524.8,215.4z M1614.9,228.1
			c1.2,0.4,2-0.3,2.5-1.2v-26.7c-0.1-0.1-0.2-0.1-0.2-0.2c-2.1-8.6-7.3-12.7-16.1-12.7h-28.4c0-4.4,0-8.6,0-12.8
			c0-2.2-0.6-2.8-2.8-2.8c-17.5,0-35.1,0-52.6,0c-0.4,0-0.9,0-1.3,0.1c-1,0.3-1.6,0.9-1.5,1.9c0,1.1,0.7,1.6,1.7,1.8
			c0.4,0,0.9,0.1,1.3,0h51.2v68.8c-0.1,0-0.2,0.1-0.3,0.1c-12.8,0-25.6,0-38.4,0c-0.3,0-0.5-0.1-0.7-0.2c-0.2-0.1-0.4-0.3-0.6-0.5
			c-7.9-10.4-22.6-10.4-30.5,0c-0.2,0.3-0.5,0.7-0.8,0.7c-2.6,0.1-5.1,0-7.6,0v-68.9h1.5c5.3,0,10.5,0,15.8,0c0.4,0,0.8-0.1,1.1-0.3
			c0.4-0.2,0.7-0.4,0.9-0.7c1-1.3-0.2-2.9-2.1-2.9c-6.2,0-12.5,0-18.8,0c-1.8,0-2.4,0.7-2.4,2.5c0,26.6,0,53.2,0,79.8
			c0,1.9,0.6,2.5,2.6,2.5c2.1,0,4.2,0,6.2,0c1.7,11.2,10.6,16.8,18.4,16.9c4.2,0.1,8.2-1.2,11.5-3.7c4.4-3.3,6.9-7.7,7.7-13.2h22.4
			c0.4,0,0.8,0,1.2,0c1.1-0.1,1.9-0.8,1.9-1.8c0-0.5-0.2-1-0.5-1.3c-0.3-0.4-0.8-0.6-1.3-0.6c-0.4,0-0.8,0-1.2,0h-22.5
			c-0.3-1.6-0.6-3-1-4.3h38.6c-0.3,1.5-0.7,2.9-1,4.3c-1.3,0-2.5,0-3.8,0c-1.4,0-2.2,0.7-2.2,1.9s0.8,1.9,2.2,1.9c1.3,0,2.5,0,3.8,0
			c1.7,11.2,10.7,16.8,18.4,16.9c4.2,0.1,8.2-1.2,11.5-3.7c4.4-3.3,6.9-7.7,7.6-13.2c2.9,0,5.6,0,8.4,0c1.2,0,2-0.3,2.5-1.4v-20.6
			c-0.7-0.8-1.4-1.6-2.6-1.1s-1.3,1.5-1.3,2.5c0,2.7,0,5.4,0,8.2c-0.2,0.1-0.5,0.1-0.7,0.1c-2.8,0-5.7,0-8.5,0
			c-0.2,0-0.5-0.1-0.7-0.2c-0.2-0.1-0.4-0.2-0.6-0.4c-7.2-10.1-22-10.6-29.9-1.1c-0.1,0.1-0.3,0.2-0.4,0.3V191h1.4
			c9.2,0,18.3,0,27.5,0c7.3,0,11.8,4.6,11.8,11.9c0,7.6,0,15.2,0,22.7C1613.6,226.8,1613.8,227.8,1614.9,228.1L1614.9,228.1z
			 M1494.7,252.6h-4.9v-4.2h5.9C1495.3,249.7,1495,251.1,1494.7,252.6L1494.7,252.6z M1513.3,269.6c-3.9-0.1-7.6-1.8-10.3-4.6
			c-2.7-2.8-4.2-6.5-4.2-10.4s1.6-7.6,4.3-10.4c2.7-2.8,6.4-4.4,10.3-4.5c8.2,0,15,6.8,14.9,15c0,4-1.7,7.7-4.5,10.5
			C1521.1,268,1517.3,269.6,1513.3,269.6L1513.3,269.6z M1613.5,248.3v4.3h-7l-1-4.3H1613.5z M1587.7,239.7c2.9,0,5.8,0.9,8.3,2.5
			s4.4,4,5.5,6.7s1.4,5.7,0.9,8.6c-0.6,2.9-2,5.6-4.1,7.7s-4.7,3.5-7.6,4.1s-5.9,0.3-8.6-0.8c-2.7-1.1-5.1-3-6.7-5.5
			c-1.7-2.5-2.5-5.3-2.6-8.3c0-4,1.6-7.8,4.4-10.6C1579.9,241.3,1583.7,239.7,1587.7,239.7L1587.7,239.7z M1606.5,220.2
			c2,0,2.6-0.7,2.6-2.6c0-4.8,0-9.6,0-14.4c0-4.7-3-7.6-7.7-7.6c-7.2,0-14.4,0-21.6,0c-2.1,0-2.6,0.6-2.6,2.7c0,6.4,0,12.9,0,19.3
			c0,2.1,0.6,2.7,2.7,2.7c4.4,0,8.8,0,13.2,0C1597.6,220.2,1602.1,220.2,1606.5,220.2L1606.5,220.2z M1581.2,199.4h1.3
			c6.3,0,12.6,0,18.9,0c2.8,0,4,1.2,4,4c0,3.9,0,7.8,0,11.7c0,0.4,0,0.7-0.1,1.2h-24.1L1581.2,199.4L1581.2,199.4z"/>
	</g>
	<g>
		<defs>
			<rect id="SVGID_00000063625962771173396600000009668753848436095660_" x="0" y="0" width="272.4" height="292.5"/>
		</defs>
		<clipPath id="SVGID_00000060012124342018028780000002256506399889530045_">
			<use xlink:href="#SVGID_00000063625962771173396600000009668753848436095660_"  style="overflow:visible;"/>
		</clipPath>
		<path style="clip-path:url(#SVGID_00000060012124342018028780000002256506399889530045_);fill:#6A3834;" d="M1804.3,119.5
			c5.2-6.5,1.1-14.6-5.3-16.3c-2.2-0.6-4.3-1.2-6.4-1.8c-1.1-0.3-2.1-0.8-2.9-1.6c-0.8-0.8-1.4-1.7-1.8-2.8
			c-0.8-2.1-1.7-4.1-2.5-6.2c-3.1-7.5-11.9-8.9-17.2-2.8c-5.9,6.8-6.9,17.1-2.4,25.1c4,7.2,10,11.8,18,13.8c1.4,0.3,2.9,0.4,4.1,0.5
			C1794.6,127.1,1800.2,124.7,1804.3,119.5z M1793,123c-5.2,1.5-10.1,0.6-14.6-2.1c-7-4.1-11.2-10.1-11.8-17.2
			c0.1-5.8,1.4-9.9,4.5-13.4c3.3-3.8,8.8-2.9,10.7,1.7c0.8,2,1.7,3.9,2.4,6c1.4,4,4.2,6.2,8.2,7.2c2.1,0.5,4.2,1.1,6.3,1.8
			c4.3,1.6,5.7,6.6,2.8,10.2C1799.3,120.1,1796.3,122.1,1793,123L1793,123z M1843.5,46.2H1789c0-2,0-3.9,0-5.8
			c0-1.7-0.8-2.4-2.4-2.4c-8,0-15.9,0-23.9,0c-1.7,0-2.4,0.7-2.5,2.4c0,1.9,0,3.8,0,5.8c-3.2,0-6.3,0-9.4,0c-2.3,0-2.9,0.6-2.9,3
			v109.3c0,2.4,0.6,3,3,3h92.8c2.4,0,3-0.6,3-2.9V49.2C1846.6,46.8,1846,46.2,1843.5,46.2z M1837.6,50.4c-1.9,1.3-3.5,2.4-5.2,3.4
			c-0.1,0-0.2,0.1-0.3,0c-0.1,0-0.2,0-0.3-0.1c-1.6-1.1-3.2-2.1-5.1-3.4L1837.6,50.4L1837.6,50.4z M1780.8,42.2h4v4h-4V42.2z
			 M1772.6,42.2h4v4h-4V42.2z M1764.3,42.2h4v4h-4V42.2z M1752,50.5h65.7v15c-5.7,2.6-12,3.8-18.2,3.3c-4.9-0.4-9.6-1.8-14-3.9
			c-10.7-5.1-21.6-5.6-32.7-1.5c-0.2,0.1-0.5,0.1-0.8,0.2V50.5z M1817.7,157.3h-65.8v-1.4c0-28.8,0-57.6,0-86.4
			c0-1.1,0.3-1.5,1.3-1.9c10.2-4.1,20.2-3.9,30.1,0.8c6.4,3,13,4.8,20.1,4.6c4.3-0.1,8.6-0.9,12.7-2.4c0.5-0.2,1-0.3,1.6-0.5
			L1817.7,157.3z M1821.9,52.2c1.4,0.9,2.7,1.7,3.9,2.6c1.4,1,3.3,1.7,4.1,3c0.7,1.3,0.2,3.3,0.2,4.9c0,28.6,0,57.2,0,85.8
			c0,1.2-0.4,1.9-1.4,2.6c-2.2,1.4-4.4,2.9-6.8,4.5L1821.9,52.2L1821.9,52.2z M1826.8,157.2c1.8-1.2,3.4-2.3,5-3.3
			c0.1-0.1,0.3-0.1,0.4-0.1c0.2,0,0.3,0,0.5,0.1c1.6,1,3.1,2.1,4.9,3.3H1826.8z M1842.4,155.5c-2.7-1.8-5.2-3.5-7.8-5.2
			c-0.2-0.2-0.3-0.5-0.4-0.7c0-0.3,0-0.7,0-1c0-29.8,0-59.6,0-89.3c0-1.2,0.4-1.8,1.4-2.4c2.3-1.4,4.5-3,6.8-4.5V155.5z
			 M1809.2,138.8c-2.6,0-5.2,0-7.8,0s-5.2,0-7.8,0c-1.7,0-2.4,0.8-2.4,2.4c0,2.5,0,5,0,7.5c0,1.7,0.8,2.4,2.4,2.4
			c5.2,0,10.4,0,15.7,0c1.7,0,2.4-0.8,2.4-2.4c0-2.5,0-5,0-7.5C1811.6,139.6,1810.8,138.8,1809.2,138.8L1809.2,138.8z M1807.4,147
			h-12.2v-4h12.2V147z M1774.1,147.1c-4.5,0-9,0-13.5,0c-1.5,0-2.5,0.7-2.5,2c0,1.2,0.9,2.1,2.5,2.1c2.2,0,4.5,0,6.7,0s4.5,0,6.8,0
			c1.5,0,2.5-0.8,2.5-2C1776.7,147.9,1775.7,147.1,1774.1,147.1L1774.1,147.1z M1774.2,138.8c-4.5,0-9.1,0-13.6,0
			c-1.5,0-2.4,0.8-2.4,2.1c0,1.2,0.9,2,2.5,2c2.2,0,4.5,0,6.7,0s4.5,0,6.8,0c1.6,0,2.5-0.8,2.5-2.1
			C1776.6,139.5,1775.7,138.8,1774.2,138.8L1774.2,138.8z M1775,94.2c-0.9-0.7-2-0.4-2.8,0.8c-1.8,2.7-2.6,5.6-2.7,9.5
			c0.1,0.7,0.2,2.1,0.5,3.4c0.2,1.4,1.1,1.9,2.2,1.7c1-0.2,1.5-1.1,1.4-2.4c-0.1-2-0.3-4,0-6c0.2-1.5,1-2.9,1.7-4.2
			C1775.9,95.8,1775.9,94.8,1775,94.2L1775,94.2z"/>
	</g>
	<g>
		<defs>
			<rect id="SVGID_00000136398044334541126150000008878763902094631078_" x="0" y="0" width="272.4" height="292.5"/>
		</defs>
		<clipPath id="SVGID_00000023978114207259128280000004738472572819485337_">
			<use xlink:href="#SVGID_00000136398044334541126150000008878763902094631078_"  style="overflow:visible;"/>
		</clipPath>
		
			<circle style="clip-path:url(#SVGID_00000023978114207259128280000004738472572819485337_);fill:#6A3834;" cx="-162.7" cy="248.5" r="27.5"/>
	</g>
	<g>
		<defs>
			<rect id="SVGID_00000069391412136369625080000017750062433002168205_" x="0" y="0" width="272.4" height="292.5"/>
		</defs>
		<clipPath id="SVGID_00000085944509173384873010000014700959672741003175_">
			<use xlink:href="#SVGID_00000069391412136369625080000017750062433002168205_"  style="overflow:visible;"/>
		</clipPath>
		<path style="clip-path:url(#SVGID_00000085944509173384873010000014700959672741003175_);fill:#D0F4A5;" d="M-158.7,231.9
			c-0.3-0.2-0.9-0.4-1.2-0.4c-1.2,0-2.1,1-2.1,1l-6.7,13.1c-0.2,0.5-0.4,1-0.4,1.4c0,1.2,1.2,1.3,2,1.3c0.1,0,0.2,0,0.3,0
			c0.6-0.4,4.9-8.8,5.1-9.3c0,0.2-1,19.5-1,24.3c0,0.2,0,0.4,0,0.6c0.1,0.8,0.3,1.2,1.2,1.2c1.2,0,2.6-1.1,2.6-1.1s0.5-19.4,0.5-28
			C-158.4,233.5-158.4,232.1-158.7,231.9z"/>
	</g>
	<g>
		<defs>
			<rect id="SVGID_00000004537169266492331180000005544723212554109372_" x="0" y="0" width="272.4" height="292.5"/>
		</defs>
		<clipPath id="SVGID_00000170959133749311978020000008313529282717273476_">
			<use xlink:href="#SVGID_00000004537169266492331180000005544723212554109372_"  style="overflow:visible;"/>
		</clipPath>
		
			<circle style="clip-path:url(#SVGID_00000170959133749311978020000008313529282717273476_);fill:#6A3834;" cx="82.3" cy="65.5" r="27.5"/>
	</g>
	<g>
		<defs>
			<rect id="SVGID_00000033339304086905003820000005543448916020478342_" x="0" y="0" width="272.4" height="292.5"/>
		</defs>
		<clipPath id="SVGID_00000003799815212131202980000016510519757064191679_">
			<use xlink:href="#SVGID_00000033339304086905003820000005543448916020478342_"  style="overflow:visible;"/>
		</clipPath>
		<path style="clip-path:url(#SVGID_00000003799815212131202980000016510519757064191679_);fill:#D0F4A5;" d="M76.9,57.9
			c0.3,0.4,0.8,0.6,1.2,0.6c2,0,1.9-2.2,1.9-2.2c0.2-4,1.6-4.5,2.3-4.5c1.6,0,2.1,1.7,2.1,3.4c0,3.5-1.8,8.6-5.1,15
			c-1.1,2-4.3,7.3-4.3,9.3c0.1,1.3,1.2,2.2,2.3,2.2c0.3,0,1.9,0,3.2,0c2.2,0,4.8-0.1,6.1-0.1c0.8,0,1.7-0.5,1.7-1.8
			c0-1.2-0.7-1.5-1.8-1.5H86c-0.6,0-1.9,0-6.7,0l4.3-8.9c1-1.8,4.4-8.5,4.4-14.2c0-5.3-3.4-6.5-5.4-6.5c-5.3,0-6.1,4.3-6.1,7
			C76.5,56.6,76.8,57.7,76.9,57.9z"/>
	</g>
	<g>
		<defs>
			<rect id="SVGID_00000080194299587908497720000007786608960555431580_" x="0" y="0" width="272.4" height="292.5"/>
		</defs>
		<clipPath id="SVGID_00000005989172199684668290000001616518040647020222_">
			<use xlink:href="#SVGID_00000080194299587908497720000007786608960555431580_"  style="overflow:visible;"/>
		</clipPath>
		
			<circle style="clip-path:url(#SVGID_00000005989172199684668290000001616518040647020222_);fill:#6A3834;" cx="572.3" cy="65.5" r="27.5"/>
	</g>
	<g>
		<defs>
			<rect id="SVGID_00000075866073305296295240000017889414986089204154_" x="0" y="0" width="272.4" height="292.5"/>
		</defs>
		<clipPath id="SVGID_00000118375899203076386950000005602903489646551485_">
			<use xlink:href="#SVGID_00000075866073305296295240000017889414986089204154_"  style="overflow:visible;"/>
		</clipPath>
		<path style="clip-path:url(#SVGID_00000118375899203076386950000005602903489646551485_);fill:#D0F4A5;" d="M573,52.9l0.8-2.4
			c-0.2-1.1-0.9-1.6-2-1.6c-0.2,0-0.3,0-0.9,0.1c-0.5,1.3-3.2,8.5-6.6,18.6l-0.2,1.1c0,2,0.7,2,2.8,2h2.4c1.3,0,2.8,0,3.9,0
			c-0.1,3.7-0.2,6.9-0.2,10.5c0.2,1.1,0.7,1.1,1.2,1.1c2.1,0,2.2-1.3,2.3-2.8c0-2.9,0.2-6,0.2-8.9h1.2c1.1,0,1.7-0.1,2.2-0.7
			c0.3-0.4,0.5-0.8,0.5-1.2c0-1-0.8-1.2-1.5-1.2h-2.2V57.3c-0.5-0.2-0.8-0.3-1-0.3c-1.1,0-1.9,0.5-2.2,1.9c-0.4,2.1-0.4,3.9-0.5,5.7
			c0,0.9,0,1.8,0,2.7H568C569.1,64.4,571.3,57.9,573,52.9z"/>
	</g>
	<g>
		<defs>
			<rect id="SVGID_00000017504215621197363860000013731807367426137021_" x="0" y="0" width="272.4" height="292.5"/>
		</defs>
		<clipPath id="SVGID_00000149343024240135226460000002503595940335926415_">
			<use xlink:href="#SVGID_00000017504215621197363860000013731807367426137021_"  style="overflow:visible;"/>
		</clipPath>
		
			<circle style="clip-path:url(#SVGID_00000149343024240135226460000002503595940335926415_);fill:#6A3834;" cx="1062.3" cy="65.5" r="27.5"/>
	</g>
	<g>
		<defs>
			<rect id="SVGID_00000163045829195940306380000006465083546481025974_" x="0" y="0" width="272.4" height="292.5"/>
		</defs>
		<clipPath id="SVGID_00000162333074918621281630000000145256822690623640_">
			<use xlink:href="#SVGID_00000163045829195940306380000006465083546481025974_"  style="overflow:visible;"/>
		</clipPath>
		<path style="clip-path:url(#SVGID_00000162333074918621281630000000145256822690623640_);fill:#D0F4A5;" d="M1068.7,54.5
			c0-2.2-0.8-6-5.5-6c-6.2,0-6.9,6.1-6.9,13.4v8c0,5.9,0.6,11.8,5.6,11.8c7.1,0,7.4-6,7.4-11.3c0-6.8-2.4-9.2-6.3-9.2
			c-0.9,0-1.9,0.1-3,0.6V61c0-2,0.3-9.6,3.2-10c0,0,1.9,0.3,1.9,3.6v0.8c0,0,1.3,1.2,2.3,1.2C1068.6,56.5,1068.7,55.2,1068.7,54.5z
			 M1062.8,64c2.6,0.2,2.6,3.4,2.6,7.8c0,2-0.3,7.3-2.9,7.3c-1.7,0-2.7-4.2-2.7-11.2c0-0.8,0-1.7,0-2.7
			C1060.7,64.6,1061.6,64,1062.8,64z"/>
	</g>
	<g>
		<defs>
			<rect id="SVGID_00000092421111692847178080000015946473137031672245_" x="0" y="0" width="272.4" height="292.5"/>
		</defs>
		<clipPath id="SVGID_00000169552053142802165210000012482753474268146870_">
			<use xlink:href="#SVGID_00000092421111692847178080000015946473137031672245_"  style="overflow:visible;"/>
		</clipPath>
		
			<circle style="clip-path:url(#SVGID_00000169552053142802165210000012482753474268146870_);fill:#6A3834;" cx="1552.3" cy="65.5" r="27.5"/>
	</g>
	<g>
		<defs>
			<rect id="SVGID_00000128442793968415581110000003344971215603353740_" x="0" y="0" width="272.4" height="292.5"/>
		</defs>
		<clipPath id="SVGID_00000147196549114037579300000008877580640499794353_">
			<use xlink:href="#SVGID_00000128442793968415581110000003344971215603353740_"  style="overflow:visible;"/>
		</clipPath>
		<path style="clip-path:url(#SVGID_00000147196549114037579300000008877580640499794353_);fill:#D0F4A5;" d="M1553.4,48.6
			c-4.1,0-6.7,2.6-6.7,8c0,3.6,0.8,5.8,2.3,7c-2,1.6-2.8,4.4-2.8,7.4c0,5.6,0.6,10.9,5.9,10.9c7.2,0,7.2-6.1,7.2-11.8
			c0-2.6-0.9-5-2.5-6.5c1.7-1.1,2.4-3.4,2.4-7.2C1559.3,51.9,1557.5,48.6,1553.4,48.6z M1555.6,56v1.5c-0.1,1.3-0.6,4.6-2.6,4.6
			c-1.4,0-2.4-1.5-2.4-5.9c0-3.8,1.2-5,2.8-5C1555.3,51.2,1555.6,53.9,1555.6,56z M1552.5,79.2c-2.2,0-2.4-4.8-2.4-8.8
			c0-4.2,1.3-5.5,2.8-5.5c2.3,0,2.7,3.6,2.7,6C1555.7,76.6,1554.6,79.2,1552.5,79.2z"/>
	</g>
	<g>
		<defs>
			<rect id="SVGID_00000079458633282046347410000017268928956604606349_" x="0" y="0" width="272.4" height="292.5"/>
		</defs>
		<clipPath id="SVGID_00000031910285405752113760000017737048274977140634_">
			<use xlink:href="#SVGID_00000079458633282046347410000017268928956604606349_"  style="overflow:visible;"/>
		</clipPath>
		
			<circle style="clip-path:url(#SVGID_00000031910285405752113760000017737048274977140634_);fill:#6A3834;" cx="327.3" cy="248.5" r="27.5"/>
	</g>
	<g>
		<defs>
			<rect id="SVGID_00000060004773811414492880000008057974039065663875_" x="0" y="0" width="272.4" height="292.5"/>
		</defs>
		<clipPath id="SVGID_00000036946810503101356100000002217756180164327847_">
			<use xlink:href="#SVGID_00000060004773811414492880000008057974039065663875_"  style="overflow:visible;"/>
		</clipPath>
		<path style="clip-path:url(#SVGID_00000036946810503101356100000002217756180164327847_);fill:#D0F4A5;" d="M322.2,238.5
			c0.2,0.3,0.5,0.4,0.9,0.4c0.6,0,2.3-0.6,2.3-1.5c0-1.2,0.4-3.5,2-3.5c1.3,0,1.8,2.1,1.8,3.9c0,5.3-1.4,6.2-2.2,6.7
			c-0.2,0-0.5,0-0.8,0c-1,0-1.9,0-1.9,1.6c0,0.9,0.3,1.4,1.3,1.4c3.3,0,4,3.1,4,6.1v0.9c0,3.2-0.5,7.8-2.8,7.8
			c-1.8,0-1.8-1.7-1.8-3.2c0-1.2,0-2.4-0.7-2.9c-0.3-0.3-0.7-0.4-1.1-0.4c-1.2,0-2.1,1.1-2.1,1.1c0,6.2,1.5,8.1,5.9,8.1
			c5.4,0,6.5-4.8,6.5-12.5c0-4.4-1.9-6-3.2-6.6c1.8-1.2,2.6-4.3,2.6-7.2c0-3.4-0.7-7.6-5.1-7.6c-4.7,0-5.7,3.5-5.7,5.5
			C321.9,237.6,322.1,238.3,322.2,238.5z"/>
	</g>
	<g>
		<defs>
			<rect id="SVGID_00000089576543945868255680000009863897569916962221_" x="0" y="0" width="272.4" height="292.5"/>
		</defs>
		<clipPath id="SVGID_00000092414355522899391870000016773946045591241894_">
			<use xlink:href="#SVGID_00000089576543945868255680000009863897569916962221_"  style="overflow:visible;"/>
		</clipPath>
		
			<circle style="clip-path:url(#SVGID_00000092414355522899391870000016773946045591241894_);fill:#6A3834;" cx="817.3" cy="248.5" r="27.5"/>
	</g>
	<g>
		<defs>
			<rect id="SVGID_00000021819276861131672540000016680307314743970997_" x="0" y="0" width="272.4" height="292.5"/>
		</defs>
		<clipPath id="SVGID_00000172424153436109939420000011448984229528594344_">
			<use xlink:href="#SVGID_00000021819276861131672540000016680307314743970997_"  style="overflow:visible;"/>
		</clipPath>
		<path style="clip-path:url(#SVGID_00000172424153436109939420000011448984229528594344_);fill:#D0F4A5;" d="M814.3,245.3h0.9
			c4.6,0,4.9,1.7,4.9,7.1v2.9c0,3.6-0.2,6.9-2.8,6.9c-2.1,0-2.6-1.9-2.6-3.6c0-2.6,0-3-1.6-3c-1.5,0-1.8,1.5-1.8,1.5
			c0.1,4.3,0.7,7.9,5.8,7.9c6.4,0,6.6-4.8,6.6-13.9c0-6.6-2.9-7.7-3.8-8.2c-1.1-0.5-2.4-0.8-3.3-0.8H816v-6.9c0,0.1,1.7,0.1,3.7,0.1
			h1.8c0.6,0,1.5-0.8,1.5-1.7c0-1.8-2.7-1.7-3.8-1.7c-3,0-5.4,0.1-6,0.4c-0.6,0.3-0.6,1.5-0.6,1.5l0.1,9.7
			C812.7,245.2,813.5,245.3,814.3,245.3z"/>
	</g>
	<g>
		<defs>
			<rect id="SVGID_00000075136240719216376380000014773257631524731017_" x="0" y="0" width="272.4" height="292.5"/>
		</defs>
		<clipPath id="SVGID_00000016057454026074869000000008142024040430461109_">
			<use xlink:href="#SVGID_00000075136240719216376380000014773257631524731017_"  style="overflow:visible;"/>
		</clipPath>
		
			<circle style="clip-path:url(#SVGID_00000016057454026074869000000008142024040430461109_);fill:#6A3834;" cx="1307.3" cy="248.5" r="27.5"/>
	</g>
	<g>
		<defs>
			<rect id="SVGID_00000180331667432552519560000006527769645276297860_" x="0" y="0" width="272.4" height="292.5"/>
		</defs>
		<clipPath id="SVGID_00000152235557533038135320000010869200084107100544_">
			<use xlink:href="#SVGID_00000180331667432552519560000006527769645276297860_"  style="overflow:visible;"/>
		</clipPath>
		<path style="clip-path:url(#SVGID_00000152235557533038135320000010869200084107100544_);fill:#D0F4A5;" d="M1303,232.2l-0.3,0.2
			c0,0-0.7,0.9-0.7,1.8c0,0.6,0.4,1.2,1.3,1.3c0.4,0.1,1.2,0.1,2.2,0.1c2.5,0,4.1,0,4.8,0l-7.2,27.5c-0.1,0.3-0.1,0.6-0.1,0.7
			c0,0.8,0.5,1.1,1.6,1.1c0.9,0,1.8-0.1,2.3-1.3l7.2-29.3c0,0-0.4-2.1-2.1-2.1c-0.7,0-1.3,0-2,0L1303,232.2L1303,232.2z"/>
	</g>
	<g>
		<defs>
			<rect id="SVGID_00000127752380669409589640000001844934504777354901_" x="0" y="0" width="272.4" height="292.5"/>
		</defs>
		<clipPath id="SVGID_00000063621805597172130600000010110284723273473952_">
			<use xlink:href="#SVGID_00000127752380669409589640000001844934504777354901_"  style="overflow:visible;"/>
		</clipPath>
		
			<circle style="clip-path:url(#SVGID_00000063621805597172130600000010110284723273473952_);fill:#6A3834;" cx="1797.3" cy="248.5" r="27.5"/>
	</g>
	<g>
		<defs>
			<rect id="SVGID_00000047739425567325237120000011170587105145812366_" x="0" y="0" width="272.4" height="292.5"/>
		</defs>
		<clipPath id="SVGID_00000029008189008964433220000004838927837274055309_">
			<use xlink:href="#SVGID_00000047739425567325237120000011170587105145812366_"  style="overflow:visible;"/>
		</clipPath>
		<path style="clip-path:url(#SVGID_00000029008189008964433220000004838927837274055309_);fill:#D0F4A5;" d="M1791.8,258.8
			c0,2.2,0.7,5.9,5.6,5.9c6.1,0,6.8-6.1,6.8-13.4v-8c0-5.9-0.6-11.8-5.6-11.8c-7.1,0-7.4,6-7.4,11.3c0,6.7,2.4,9.2,6.3,9.2
			c0.9,0,1.9-0.1,2.9-0.6v0.8c0,2,0,10-3,10c-0.3,0-2.1,0-2.1-3.6v-0.8c0,0-1.3-1.2-2.2-1.2C1791.9,256.7,1791.8,258.1,1791.8,258.8
			z M1797.7,249.3c-2.6,0-2.7-3.4-2.7-7.8c0-2,0.3-7.3,2.9-7.3c1.7,0,2.6,4.2,2.6,11.2c0,0.9,0,1.7,0,2.7
			C1799.8,248.8,1798.8,249.3,1797.7,249.3z"/>
	</g>
</g>
</svg>
