<?xml version="1.0" encoding="utf-8"?>
<!-- Generator: Adobe Illustrator 26.0.3, SVG Export Plug-In . SVG Version: 6.00 Build 0)  -->
<svg version="1.1" id="Layer_1" xmlns="http://www.w3.org/2000/svg" xmlns:xlink="http://www.w3.org/1999/xlink" x="0px" y="0px"
	 viewBox="0 0 272.4 292.5" style="enable-background:new 0 0 272.4 292.5;" xml:space="preserve">
<style type="text/css">
	.st0{clip-path:url(#SVGID_00000183226296638043958810000007777621571001290662_);fill:none;stroke:#6A3834;stroke-width:2.5;}
	.st1{clip-path:url(#SVGID_00000042729005935936888810000010126487620450380675_);fill:none;stroke:#6A3834;stroke-width:2.5;}
	.st2{clip-path:url(#SVGID_00000025424300393497466770000008429894147898662786_);fill:none;stroke:#6A3834;stroke-width:2.5;}
	.st3{clip-path:url(#SVGID_00000039816376907280809170000006450622226034796714_);fill:none;stroke:#6A3834;stroke-width:2.5;}
	.st4{clip-path:url(#SVGID_00000173162088979432516480000008538768642435861939_);fill:none;stroke:#6A3834;stroke-width:2.5;}
	.st5{clip-path:url(#SVGID_00000149358038794260938180000008444795697597556902_);fill:none;stroke:#6A3834;stroke-width:2.5;}
	.st6{clip-path:url(#SVGID_00000176017832403729059260000009889807213699266467_);fill:none;stroke:#6A3834;stroke-width:2.5;}
	.st7{clip-path:url(#SVGID_00000027574273879018256740000003629029527005213594_);fill:none;stroke:#6A3834;stroke-width:2.5;}
	.st8{clip-path:url(#SVGID_00000119797688687713473550000010244163164812948896_);fill:#6A3834;}
	.st9{clip-path:url(#SVGID_00000152265558152016794850000004044046088290223492_);fill:#6A3834;}
	.st10{clip-path:url(#SVGID_00000176728775132554176520000006794909266294031518_);fill:#6A3834;}
	.st11{clip-path:url(#SVGID_00000058560749829759130450000013760013190546860173_);fill:#6A3834;}
	.st12{clip-path:url(#SVGID_00000047755607889627652770000005713171830472000444_);fill:#6A3834;}
	.st13{clip-path:url(#SVGID_00000127743880538809172380000005266762474277369769_);fill:#6A3834;}
	.st14{clip-path:url(#SVGID_00000055675945531176829820000001640491460953000343_);fill:#6A3834;}
	.st15{clip-path:url(#SVGID_00000091720669851696075190000017946975754737997750_);fill:#6A3834;}
	.st16{clip-path:url(#SVGID_00000133499244596945108830000008099121092960226181_);fill:#6A3834;}
	.st17{clip-path:url(#SVGID_00000012465622207198817330000014332248529571279020_);fill:#6A3834;}
	.st18{clip-path:url(#SVGID_00000147179881225450317920000000369255133773679764_);fill:#D0F4A5;}
	.st19{clip-path:url(#SVGID_00000119080539153506174990000014107421393911666879_);fill:#6A3834;}
	.st20{clip-path:url(#SVGID_00000085962051038787471400000016969706694031911588_);fill:#D0F4A5;}
	.st21{clip-path:url(#SVGID_00000138539709111704002710000012782967010307578017_);fill:#6A3834;}
	.st22{clip-path:url(#SVGID_00000050657627667929761750000006969352168305245346_);fill:#D0F4A5;}
	.st23{clip-path:url(#SVGID_00000154392665006470466360000017532613452063009976_);fill:#6A3834;}
	.st24{clip-path:url(#SVGID_00000171687411515145639210000011951567128436070307_);fill:#D0F4A5;}
	.st25{clip-path:url(#SVGID_00000034785328120640321300000014347542664175654305_);fill:#6A3834;}
	.st26{clip-path:url(#SVGID_00000150076717704367726150000004012660673980222371_);fill:#D0F4A5;}
	.st27{clip-path:url(#SVGID_00000101061960242146390470000006077405742548865973_);fill:#6A3834;}
	.st28{clip-path:url(#SVGID_00000127722463940420183410000018237188398048080013_);fill:#D0F4A5;}
	.st29{clip-path:url(#SVGID_00000116931850176234321740000011169483463381731745_);fill:#6A3834;}
	.st30{clip-path:url(#SVGID_00000032640565231857875150000007370762418731473537_);fill:#D0F4A5;}
	.st31{clip-path:url(#SVGID_00000065052695057046606760000007984822020180684693_);fill:#6A3834;}
	.st32{clip-path:url(#SVGID_00000066500484242998865310000013309853647115935875_);fill:#D0F4A5;}
	.st33{clip-path:url(#SVGID_00000155829361269782503120000017214191210853757099_);fill:#6A3834;}
	.st34{clip-path:url(#SVGID_00000155826876451520898040000000932347937779866811_);fill:#D0F4A5;}
</style>
<g>
	<g>
		<defs>
			<rect id="SVGID_1_" width="272.4" height="292.5"/>
		</defs>
		<clipPath id="SVGID_00000114792749580747920490000003100350781000873121_">
			<use xlink:href="#SVGID_1_"  style="overflow:visible;"/>
		</clipPath>
	</g>
	<g>
		<defs>
			<rect id="SVGID_00000002352741183523440420000010156036572815477137_" width="272.4" height="292.5"/>
		</defs>
		<clipPath id="SVGID_00000075844207049461459890000013733927352613113498_">
			<use xlink:href="#SVGID_00000002352741183523440420000010156036572815477137_"  style="overflow:visible;"/>
		</clipPath>
		
			<path style="clip-path:url(#SVGID_00000075844207049461459890000013733927352613113498_);fill:none;stroke:#6A3834;stroke-width:2.5;" d="
			M-407.5,250c110.8,0,85.5-184,190-184"/>
	</g>
	<g>
		<defs>
			<rect id="SVGID_00000124151123344045465440000008395142854186914442_" width="272.4" height="292.5"/>
		</defs>
		<clipPath id="SVGID_00000065787133497614357360000004173402308932911794_">
			<use xlink:href="#SVGID_00000124151123344045465440000008395142854186914442_"  style="overflow:visible;"/>
		</clipPath>
		
			<path style="clip-path:url(#SVGID_00000065787133497614357360000004173402308932911794_);fill:none;stroke:#6A3834;stroke-width:2.5;" d="
			M82.5,250c110.8,0,85.5-184,190-184"/>
	</g>
	<g>
		<defs>
			<rect id="SVGID_00000132084849725122755620000016483087076758314153_" width="272.4" height="292.5"/>
		</defs>
		<clipPath id="SVGID_00000106840575742724547800000005055617702497066380_">
			<use xlink:href="#SVGID_00000132084849725122755620000016483087076758314153_"  style="overflow:visible;"/>
		</clipPath>
		
			<path style="clip-path:url(#SVGID_00000106840575742724547800000005055617702497066380_);fill:none;stroke:#6A3834;stroke-width:2.5;" d="
			M572.5,250c110.8,0,85.5-184,190-184"/>
	</g>
	<g>
		<defs>
			<rect id="SVGID_00000134943415982727801090000001450731043013526184_" width="272.4" height="292.5"/>
		</defs>
		<clipPath id="SVGID_00000114053404318922563850000007667311450599888807_">
			<use xlink:href="#SVGID_00000134943415982727801090000001450731043013526184_"  style="overflow:visible;"/>
		</clipPath>
		
			<path style="clip-path:url(#SVGID_00000114053404318922563850000007667311450599888807_);fill:none;stroke:#6A3834;stroke-width:2.5;" d="
			M517.5,250c-110.8,0-85.5-184-190-184"/>
	</g>
	<g>
		<defs>
			<rect id="SVGID_00000101065277953494762390000008320849577183122104_" width="272.4" height="292.5"/>
		</defs>
		<clipPath id="SVGID_00000024723028931315131870000008872499365541888925_">
			<use xlink:href="#SVGID_00000101065277953494762390000008320849577183122104_"  style="overflow:visible;"/>
		</clipPath>
		
			<path style="clip-path:url(#SVGID_00000024723028931315131870000008872499365541888925_);fill:none;stroke:#6A3834;stroke-width:2.5;" d="
			M27.5,250C-83.4,250-58,66-162.5,66"/>
	</g>
	<g>
		<defs>
			<rect id="SVGID_00000177476998429530888830000009150431908622626968_" width="272.4" height="292.5"/>
		</defs>
		<clipPath id="SVGID_00000135664752852091282100000010629765816246809263_">
			<use xlink:href="#SVGID_00000177476998429530888830000009150431908622626968_"  style="overflow:visible;"/>
		</clipPath>
		
			<path style="clip-path:url(#SVGID_00000135664752852091282100000010629765816246809263_);fill:none;stroke:#6A3834;stroke-width:2.5;" d="
			M1062.5,250c110.8,0,85.5-184,190-184"/>
	</g>
	<g>
		<defs>
			<rect id="SVGID_00000091720869954704336850000017499093216679756981_" width="272.4" height="292.5"/>
		</defs>
		<clipPath id="SVGID_00000008108950160214643750000014060497574296409226_">
			<use xlink:href="#SVGID_00000091720869954704336850000017499093216679756981_"  style="overflow:visible;"/>
		</clipPath>
		
			<path style="clip-path:url(#SVGID_00000008108950160214643750000014060497574296409226_);fill:none;stroke:#6A3834;stroke-width:2.5;" d="
			M1497.5,250c-110.8,0-85.5-184-190-184"/>
	</g>
	<g>
		<defs>
			<rect id="SVGID_00000119815681255934441960000004823171548955425946_" width="272.4" height="292.5"/>
		</defs>
		<clipPath id="SVGID_00000120526912936194084800000016454634019938707878_">
			<use xlink:href="#SVGID_00000119815681255934441960000004823171548955425946_"  style="overflow:visible;"/>
		</clipPath>
		
			<path style="clip-path:url(#SVGID_00000120526912936194084800000016454634019938707878_);fill:none;stroke:#6A3834;stroke-width:2.5;" d="
			M1007.5,250c-110.8,0-85.5-184-190-184"/>
	</g>
	<g>
		<defs>
			<rect id="SVGID_00000096762435483288668990000016393615767860028812_" width="272.4" height="292.5"/>
		</defs>
		<clipPath id="SVGID_00000043447075392832010950000010012158215520066974_">
			<use xlink:href="#SVGID_00000096762435483288668990000016393615767860028812_"  style="overflow:visible;"/>
		</clipPath>
		<path style="clip-path:url(#SVGID_00000043447075392832010950000010012158215520066974_);fill:#6A3834;" d="M-387.1,103.1
			c0.3,4.7,2.3,8.6,5.6,11.8c2.3,2.2,5.1,4,7.7,6c0.4,0.3,0.9,0.4,1.4,0.4c4.8-0.1,9.5-0.8,13.8-3c6.9-3.4,10.3-9.2,11.3-16.5
			c0.2-1.3,0.3-2.6,0.3-4c0-1,0.4-1.4,1.3-1.8c0.7-0.2,1.3-0.7,1.7-1.3c0.5-0.9,0-1.8-0.7-2.5c-4-4.3-8.5-7.9-14-10.2
			c-0.2-0.1-0.4-0.2-0.5-0.3c0.3-1.1,0.9-2.1,1.6-3c0.8-0.9,1.7-1.6,2.7-2.1c2-0.9,4-1.6,6.1-2.3c1.4-0.5,2-1.2,1.8-2.4
			c-0.3-1.1-1.3-1.6-2.7-1.2c-2,0.5-3.9,1.2-5.8,2c-3.7,1.7-5.4,3.5-7.4,7.8c-2.2-0.3-4.5-0.8-6.7-0.8c-3.5-0.1-6.9,0-10.4,0
			c-1.8,0.1-2.7,1.4-1.8,2.9c1.3,2.2,0.8,3.7-0.6,5.7C-385.4,92.7-387.4,97.5-387.1,103.1z M-349,93.4c-2.8,0.9-5.4,0.8-7.8-1.3
			c-0.5-0.5-1.6-0.8-2.1-0.6c-0.6,0.2-0.9,1.2-1.3,1.9c-0.1,0.3-0.1,0.6-0.1,0.9c-0.5,3.9-3.4,7.3-6.9,8c-2.1-3.6-3.1-7.2-1-11.2
			c0.2-0.3,0.3-0.6,0.4-1c0.1-0.2,0.1-0.5,0.1-0.8s-0.1-0.5-0.3-0.7c-0.1-0.2-0.3-0.4-0.6-0.5c-0.2-0.1-0.5-0.2-0.7-0.2
			c-0.7-0.1-1.5-0.1-2.2-0.2c-2.7-0.4-4.5-1.9-5.8-4.3C-368,81.6-353.2,86.8-349,93.4z M-378,88.8c0.8,0.6,1.7,1.1,2.6,1.6
			s1.9,0.7,3,1.1c-1.6,5.6,0.3,10,2.8,14c0.5,0.9,1.3,1.2,2.3,0.9c4.9-1.5,8.6-4.3,10.2-9.4c0-0.2,0.2-0.3,0.1-0.2l6.5,1.1
			c-0.1,0.9-0.2,2-0.3,3.1c-0.9,7.9-5.3,13.1-13,15.3c-1.1,0.3-2.4,0.5-3.5,0.8c-3.4,1-6.4,0.2-8.9-2.3c-0.5-0.5-1.1-0.9-1.7-1.4
			C-385.2,106.5-385.3,95.8-378,88.8L-378,88.8z M-331.1,122.4c-1.3-6.6-9.4-9.4-14.7-4.6c-2.7,2.5-5.6,4.8-8.5,7.1l-8.9,7.5
			c-2.5-3.2-5.8-3.9-9.5-3.9c-6.5,0.1-13,0.1-19.5,0c-1,0-2-0.4-2.8-0.9c-2.6-1.8-5.4-3.1-8.5-3.3c-11.3-0.8-21.1,2.7-29,10.8
			c-3.4,3.4-6.3,7.4-9.4,11.1c-0.5,0.6-0.9,0.9-1.7,0.7c-1.7-0.3-3.2,0.4-4.4,1.7c-0.8,0.9-1.6,1.8-2.5,2.6
			c-0.3,0.3-0.7,0.5-1.2,0.5c-0.8-0.1-1.6,0-2.4,0.2c-0.8,0.3-1.5,0.7-2,1.3c-1.6,1.6-3.1,3.2-4.7,4.7c-0.6,0.5-1,1.2-1.3,1.9
			s-0.4,1.5-0.4,2.2c0,6.9,0,13.8,0,20.7c0,3.4,1.7,5,5.1,5c9.3,0,18.6,0,27.9,0c3.8,0,6-2.3,8.1-4.9c0.3-0.4,0.4-0.8,0.5-1.2
			s0.1-0.9,0-1.3c-0.4-1.7,0.3-2.7,1.4-3.7c0.5-0.4,0.9-0.9,1.3-1.4c0.5-0.6,0.9-1.3,1.1-2.1s0.2-1.6,0-2.4
			c-0.2-0.8,0.1-1.2,0.5-1.7c1.9-1.9,3.9-3.8,5.7-5.7c1.3-1.4,2.7-1.9,4.6-1.9c12.3,0,24.6,0,36.9,0c3.7,0,6.7-1.2,9.3-3.9
			c8.2-8.5,16.5-16.9,24.9-25.3c2-2,3.7-4,4.4-6.8v-2.8C-330.9,122.6-331,122.5-331.1,122.4z M-426.1,181.6
			c-1.3,1.4-2.9,1.9-4.8,1.8c-8.6-0.1-17.1,0-25.7,0h-1.6v-4c0-5.6,0-11.2,0-16.8c0-0.7,0.3-1.3,0.8-1.9c1.3-1.4,2.7-2.7,4-4
			c0.7-0.7,1.1-0.8,1.9-0.1c8.5,7.6,16.9,15.2,25.4,22.8C-424.9,180.3-425,180.5-426.1,181.6z M-422.1,172.9
			c-0.7,0.7-1.3,1.4-2.1,2.2l-23.2-20.8c0.9-1,1.7-1.9,2.6-2.8c0.6-0.7,1.1-0.1,1.5,0.3l11.9,10.7c3.1,2.7,6.1,5.5,9.2,8.2
			C-421.2,171.5-421.2,172.1-422.1,172.9z M-336.8,127.6c-4,4-7.9,8.1-11.9,12.1c-4.9,4.9-9.8,9.9-14.6,14.9
			c-0.7,0.8-1.6,1.4-2.7,1.9c-1,0.4-2.1,0.6-3.2,0.6c-12.3,0-24.7,0-37,0c-3.2,0-5.7,1-7.9,3.3c-2,2.1-4.1,4.1-6.2,6.3l-18.9-17
			c5.5-6.5,10.1-13.8,18.2-17.7c5.4-2.6,11-3.8,16.9-3.3c2.3,0.2,4.5,1,6.4,2.5c1.7,1.3,3.5,1.8,5.6,1.8c6.9,0,13.7,0,20.6,0
			c0.7,0,1.5,0,2.2,0.2c1,0.3,1.9,0.9,2.5,1.7c0.6,0.9,0.9,1.9,0.8,3c-0.2,2.2-2,3.8-4.4,3.9c-3.8,0.1-7.6,0-11.4,0
			c-4.1,0-8.1,0-12.2,0c-1.6,0-2.6,0.8-2.6,2.2c0,1.3,1,2.2,2.6,2.2c7.9,0,15.8,0,23.7,0c4.8,0,8.4-3.4,8.8-8.2
			c0-0.4,0.1-0.8,0.3-1.1c0.2-0.4,0.4-0.7,0.8-0.9c6-5,11.9-10,18-15c2.8-2.3,6.6-1,7.3,2.5C-335,125-335.7,126.4-336.8,127.6z
			 M-436.8,108.9c5.8,3.8,12.2,6.1,19.2,5.9c6.6-0.1,12-4,13.9-9.9c0.2-0.6,0.4-1.3,0.6-1.9v-3.4c-1.3-5.8-5.3-9-10.5-11.2
			c-1-0.4-2-0.9-3-1.2c-5-1.9-8.7-5.2-11.2-9.9c-1.1-2.1-2.4-4.1-3.9-6c-2.2-2.9-5.2-5-8.9-5.4c-6.3-0.7-12.3,3.8-13.9,10.3
			c-1,4-0.4,7.9,0.9,11.7C-450.5,97.1-444.6,103.8-436.8,108.9L-436.8,108.9z M-433.9,81.2c0.1-1.3,0.6-2.5,0.9-3.7l0.6-0.1
			c3.3,7.6,9.1,12.3,17,14.7c-1.2,1.3-2.8,2-4.5,2.1C-426.8,95-434.2,88.1-433.9,81.2L-433.9,81.2z M-450.3,77
			c1.1-3.8,4.5-6.7,8.1-6.9c3-0.2,5.2,1.5,7.2,3.5c-6.2,7.4-1.9,18,6,22.4c4.4,2.5,9,3.3,13.7,1.1c1.4-0.7,2.6-1.8,3.9-2.7
			c5.4,3.1,5.7,10,0.5,14c-2.9,2.3-6.4,2.8-9.9,2.2c-14.5-2.7-24.1-11.1-29.2-24.8C-451.1,83-451.2,79.9-450.3,77L-450.3,77z
			 M-411.9,70.4c3,5.2,7.8,8,13.6,9.1c7.4,1.3,13.9-1.1,19.7-5.6c5-3.8,8.6-8.7,9.9-15c0.3-1.5,0.4-3,0.6-4.6
			c-0.1-4.1-1.3-8-3.4-11.5c-4-6.3-12.9-6.4-17-0.1c-1.5,2.3-2.7,4.7-4,7c-0.5,1-1.3,1.9-2.2,2.6c-0.9,0.7-2,1.1-3.2,1.2
			c-2.2,0.3-4.5,0.8-6.7,1.2C-412,56.1-415.7,63.9-411.9,70.4L-411.9,70.4z M-388.9,50.9c1.3,2.9,0.2,5.8-2.4,7.4
			c-2.3,1.4-4.9,1-6.6-1C-393.7,56.8-390.9,54.6-388.9,50.9L-388.9,50.9z M-405.2,58.7c0.7-0.3,1.5-0.3,2.2-0.5s1.1,0,1.5,0.6
			c2.8,4.1,8.2,5.2,12.3,2.6c4.3-2.7,6-8.4,3.5-12.6c-1-1.6-0.7-2.7,0.2-3.9c0.1-0.2,0.2-0.4,0.3-0.5c2.7-3.7,8-3.6,10.5,0.3
			c1.8,2.7,2.7,5.9,2.8,9.1c0.1,5.7-2.1,10.4-6,14.4c-4.5,4.8-10.1,7.4-15.6,7.9c-6.4,0-12.2-2.9-14.8-7.1
			C-410.9,65.1-409.4,60.2-405.2,58.7L-405.2,58.7z"/>
	</g>
	<g>
		<defs>
			<rect id="SVGID_00000047032461572880746360000009478580387726128046_" width="272.4" height="292.5"/>
		</defs>
		<clipPath id="SVGID_00000060018728545952015990000008483407168155265167_">
			<use xlink:href="#SVGID_00000047032461572880746360000009478580387726128046_"  style="overflow:visible;"/>
		</clipPath>
		<path style="clip-path:url(#SVGID_00000060018728545952015990000008483407168155265167_);fill:#6A3834;" d="M-212.9,150.5
			c0.4,0,0.8,0,1.1,0c2,0,3.1-1.1,2.5-2.6c-0.4-1-1.3-1.2-2.3-1.2c-1.1,0-2.2,0-2.7,1.2c-0.1,0.3-0.2,0.6-0.2,0.8s0.1,0.6,0.2,0.8
			c0.1,0.3,0.3,0.5,0.6,0.6C-213.4,150.3-213.2,150.4-212.9,150.5z M-211.4,264.6c-2.1,0-2.9,0.4-3,1.7c-0.1,1.4,0.8,2.1,2.7,2.1
			c1.8,0,2.7-0.7,2.7-2C-209.1,265.3-209.9,264.6-211.4,264.6L-211.4,264.6z M-198.6,264.6c-0.6,0-1.2,0-1.8,0s-1.1,0-1.7,0
			c-1.1,0.1-1.8,0.7-1.9,1.7c-0.1,1.1,0.5,1.9,1.5,2c1.4,0.2,2.7,0.1,4.1,0c1-0.1,1.6-1,1.5-2.1C-197,265.2-197.6,264.7-198.6,264.6
			L-198.6,264.6z M-177.6,150.5c0.6,0,1.1,0,1.7,0s1.2,0,1.8,0c0.2,0,0.5,0,0.7-0.1s0.4-0.2,0.6-0.4c0.2-0.2,0.3-0.4,0.4-0.6
			c0.1-0.2,0.1-0.5,0.1-0.7s0-0.5,0-0.7c-0.1-0.2-0.2-0.4-0.3-0.6c-0.2-0.2-0.3-0.3-0.6-0.4c-0.2-0.1-0.4-0.2-0.7-0.2
			c-1.3-0.1-2.6-0.1-4,0c-1.1,0.1-1.6,0.9-1.6,2C-179.3,149.8-178.7,150.4-177.6,150.5z M-189.9,150.5c0.6,0,1.1,0,1.7,0
			c0.6,0,1.2,0,1.8,0c1.1-0.1,1.8-0.7,1.8-1.8c0.1-1.1-0.5-1.9-1.6-2c-1.3-0.1-2.6-0.1-4,0c-0.2,0-0.5,0.1-0.7,0.2
			c-0.2,0.1-0.4,0.3-0.6,0.5c-0.2,0.2-0.3,0.4-0.3,0.6c-0.1,0.2-0.1,0.5,0,0.7C-191.6,149.8-191,150.4-189.9,150.5L-189.9,150.5z
			 M-202.1,150.5c0.6,0,1.1,0,1.7,0c0.6,0,1.3,0,1.9,0c0.5,0,0.9-0.2,1.2-0.5s0.5-0.8,0.5-1.2c0.1-1.1-0.5-1.9-1.5-2
			c-1.3-0.1-2.6-0.1-4,0c-1.1,0.1-1.7,0.9-1.6,2C-203.9,149.8-203.2,150.4-202.1,150.5L-202.1,150.5z M-141,179.3c0-0.4,0-0.9,0-1.3
			c0-0.4-0.2-0.8-0.5-1.1s-0.7-0.5-1.2-0.5c-1-0.1-1.8,0.4-2,1.4c-0.1,0.5-0.1,1.1-0.1,1.7c0,29.4,0,58.9,0,88.3v1.6h-16.8v-9.3h1.6
			c1.5,0,2.9,0,4.4,0c1.1-0.1,1.7-0.8,1.7-1.9c0-0.5-0.1-0.9-0.4-1.3c-0.3-0.3-0.7-0.6-1.2-0.6c-0.5-0.1-0.9-0.1-1.4-0.1
			c-1.5,0-3.1,0-4.7,0V252c0.1-0.1,0.2-0.1,0.3-0.1c0.9,0,1.7,0,2.6,0c1.4,0,2.3-0.8,2.2-1.9c0-1.1-0.9-1.9-2.3-1.9
			c-0.9,0-1.9,0-2.8,0v-4.7c1.8,0,3.5,0,5.2,0c1.6,0,2.5-0.8,2.5-2s-0.9-1.9-2.4-1.9c-1.7,0-3.5,0-5.3,0V235c1,0,1.9,0,2.7,0
			c1.4,0,2.3-0.7,2.3-1.8s-0.9-2-2.3-2c-0.9,0-1.8,0-2.7,0v-4.7c2,0,3.9,0.1,5.7-0.1c0.4-0.1,0.7-0.2,1-0.5c0.3-0.2,0.5-0.5,0.7-0.9
			c0.2-0.5-0.2-1.5-0.6-2c-0.3-0.4-1.1-0.4-1.7-0.5c-1.7-0.1-3.5,0-5.2,0v-4.7h1.5c0.5,0,1,0,1.5,0c1.2-0.1,2-0.9,2.1-1.9
			c0-1.1-0.8-1.9-2.1-1.9c-1,0-1.9,0-3,0v-4.5c1.6,0,3.2,0,4.8,0c0.6,0,1.1,0,1.6-0.2c0.4-0.1,0.8-0.4,1-0.8
			c0.2-0.4,0.3-0.8,0.2-1.2c0-0.5-0.2-0.9-0.6-1.2c-0.3-0.3-0.8-0.5-1.3-0.4c-1.9,0-3.8,0-5.8,0v-4.8c1,0,1.9,0,2.9,0
			c1.4,0,2.3-0.8,2.3-1.9c0-1.1-0.9-1.9-2.3-1.9c-0.9,0-1.9,0-2.8,0v-4.5c1.8,0,3.6,0,5.3,0c1.5,0,2.4-0.8,2.4-2s-0.9-1.9-2.4-1.9
			c-1.7,0-3.5,0-5.3,0V184h1.5c0.5,0,1,0,1.5,0c1.3-0.1,2.1-0.9,2.1-2s-0.9-1.8-2.2-1.9c-1,0-1.9,0-2.9,0v-4.5c2,0,3.9,0.1,5.7-0.1
			c0.4-0.1,0.7-0.2,1-0.4s0.5-0.5,0.7-0.8c0.2-0.5,0.1-1.4-0.3-1.8c-0.4-0.4-1.2-0.7-1.8-0.7c-1.8-0.1-3.6,0-5.4,0v-4.7h1.5
			c0.5,0,0.9,0,1.4,0c1.3-0.1,2.2-0.9,2.2-2c-0.1-1.1-0.9-1.8-2.2-1.8c-1,0-1.9,0-2.9,0v-4.5c1.7,0,3.2,0,4.7,0c0.5,0,0.9,0,1.4-0.1
			s0.9-0.3,1.1-0.7c0.3-0.4,0.4-0.8,0.4-1.3s-0.2-0.9-0.6-1.2c-0.3-0.3-0.8-0.5-1.2-0.5c-1.9,0-3.8,0-5.8,0v-9.3h16.8v1.6
			c0,7.2,0,14.3,0,21.5c0,1.6,0.8,2.5,2,2.4c1.2,0,1.8-0.9,1.8-2.5c0-8.2,0-16.4,0-24.6c0-1.7-0.6-2.5-2.2-2.5c-6.7,0-13.5,0-20.2,0
			c-1.4,0-2.1,0.7-2.2,2.1c0,0.5,0,0.9,0,1.4c0.1,0.8-0.1,1.4-0.9,1.9c-0.2,0.2-0.4,0.4-0.5,0.6c-0.1,0.3-0.2,0.5-0.2,0.8
			s0.1,0.6,0.2,0.8c0.1,0.2,0.3,0.5,0.6,0.6c0.8,0.5,0.8,1.1,0.8,1.8c0,10.6,0,21.3,0,31.9v79.3c0,0.8,0.1,1.5-0.9,2.1
			c-0.9,0.6-1,2.2,0,2.7s0.9,1.4,0.9,2.2c-0.1,1.3,0,2.5,1.2,3.3h22.1c1.2-0.6,1.4-1.7,1.4-2.9C-141,240.1-141,209.7-141,179.3
			L-141,179.3z M-210,209.4c-0.4-0.2-0.8-0.4-1.2-0.4s-0.8,0.1-1.1,0.3s-0.6,0.5-0.8,0.8c-1.9,2.9-2.6,5.9-2.2,9.1
			c0.2,1.5,0.6,3,1,4.5c0.6,2.2,0.1,4-1.3,5.6c-0.5,0.6-1,1.2-1.5,1.8l-0.1,0.1l-0.5,0.6c-2.2,2.5-3.3,5.7-3.3,9c0,0.1,0,0.2,0,0.4
			c0,0.4,0,0.8,0.1,1.3c0.2,1.4,1.3,2.3,2.5,2.1c1.3-0.2,2.1-1.2,1.9-2.6c-0.3-3.1,0.6-5.8,2.8-8.1c0.3-0.3,0.7-0.8,1-1.1l0.3-0.4
			c1.4-1.6,2.8-3.6,2.7-5.9c-0.1-2.1-0.4-4.2-0.9-6.2c-0.7-2.9-0.3-5.4,1.2-7.7c0.2-0.3,0.3-0.6,0.4-0.9s0.1-0.6,0-0.9
			c-0.1-0.3-0.2-0.5-0.3-0.8C-209.6,209.7-209.8,209.5-210,209.4L-210,209.4z M-186.4,264.6c-1.1,0-2.2,0-3.3,0
			c-0.5,0-1,0.2-1.3,0.5c-0.4,0.3-0.6,0.8-0.6,1.3c-0.1,1,0.7,1.9,1.9,2c0.5,0.1,1.1,0,1.7,0c0.6,0,1.2,0,1.8,0c0.5,0,1-0.2,1.3-0.6
			s0.5-0.9,0.5-1.3c0-0.2,0-0.5-0.1-0.7s-0.2-0.4-0.4-0.6s-0.4-0.3-0.6-0.4C-185.9,264.6-186.2,264.6-186.4,264.6L-186.4,264.6z
			 M-174.1,264.6c-0.6,0-1.1,0-1.7,0c-0.6,0-1.2,0-1.8,0c-1.1,0.1-1.7,0.7-1.9,1.7c0,0.2,0,0.5,0.1,0.7s0.2,0.5,0.3,0.7
			c0.2,0.2,0.4,0.3,0.6,0.5c0.2,0.1,0.5,0.2,0.7,0.2c1.3,0.1,2.6,0.1,3.8,0c0.2,0,0.5-0.1,0.7-0.2s0.4-0.3,0.6-0.4s0.3-0.4,0.3-0.6
			c0.1-0.2,0.1-0.5,0-0.7c0-0.2,0-0.5-0.1-0.7s-0.2-0.4-0.4-0.6s-0.4-0.3-0.6-0.4C-173.6,264.6-173.9,264.6-174.1,264.6
			L-174.1,264.6z M-206,191.3c-2.4-0.9-2.3-3-2.3-3.7c0-0.6,0-1.1,0.1-1.7l0,0c0-1,0.1-2,0.1-3c-0.1-4.9-4.1-9.3-9-9.9
			c-1.3-0.2-2.4,0.6-2.6,1.8c-0.1,0.6,0,1.2,0.4,1.7c0.3,0.5,0.9,0.8,1.5,0.9c3.6,0.8,5.4,3,5.3,6.7c0,0.3,0,0.7,0,1v1.3h-0.2
			c0,0.6,0,1.2,0,1.8c0.2,3.5,2.1,6.3,5,7.1c0.4,0.1,0.8,0.1,1.3,0c0.4-0.1,0.8-0.3,1.1-0.7c0.3-0.3,0.5-0.7,0.6-1.1
			c0.1-0.4,0-0.9-0.1-1.3c-0.1-0.2-0.2-0.4-0.4-0.6C-205.6,191.5-205.8,191.4-206,191.3L-206,191.3z M-185.7,212.1
			c0.1-0.7,0.1-1.4,0.2-2.1v-7.5c-0.1-0.6-0.1-1.1-0.2-1.7v-0.1c-0.1-1.3-0.3-2.7-0.4-4.1c-1.4-11.5-4.8-20.9-10.4-28.6
			c-4-5.5-8.4-9.2-13.6-11.2c-1.3-0.5-2.6-0.8-3.9-1.1c-0.6-0.1-1.3-0.3-1.9-0.4l-0.5-0.1h-0.2h-3.1h-0.1c-0.2,0.1-0.4,0.1-0.6,0.1
			c-8.5,1.3-14.4,6-17.7,14.1c-0.1,0.3-0.2,0.5-0.3,0.8l-0.2,0.5c-0.9,2.2-1.1,4.7-0.8,7c0.1,0.5,0.1,0.9,0.1,1.4
			c0.4,3.8,1.8,7.4,4.1,10.4c4.6,6.3,5.5,16.1,4.7,20.8c0,0.7-0.3,5.1-2,8.7c-0.7,1.7-1.5,3.2-2.4,4.8c-2.3,3.4-3.7,6.5-4.4,9.9v0.2
			c-0.1,2.7-0.4,8.9,2.7,13.9c0.3,0.4,0.6,0.8,0.9,1.2c0.1,0.1,0.2,0.2,0.2,0.3l0.1,0.1c5.8,8.4,17.1,11.5,26.9,7.3
			c6-2.5,10.7-7,14.6-13.7c4.1-7.2,6.6-15.5,7.8-26.1C-186,215.2-185.9,213.6-185.7,212.1L-185.7,212.1z M-195.2,235.4
			c-2.6,6.3-5.8,10.8-9.9,14c-4,3.1-8.2,4.7-12.4,4.7c-2.1,0-4.1-0.4-6-1c-2.4-0.8-4.6-2.2-6.4-4c-1.8-1.8-3.2-4-4-6.5
			c-0.9-2.5-1.1-5.2-0.8-7.8s1.2-5.1,2.7-7.3c7.3-11.1,8.3-23.2,3.1-36c-0.7-1.7-1.7-3.3-2.8-4.9l-0.3-0.5c-1.5-2.3-2.4-4.9-2.7-7.6
			c-0.3-2.7,0.1-5.5,1.1-8s2.5-4.8,4.5-6.6s4.4-3.1,7.1-3.8c4.8-1.3,9.5-0.3,14.2,2.8c4.7,3.2,8.6,7.8,11.7,14.2
			c3.2,6.6,5.2,13.7,5.9,21.9c0.2,2.1,0.3,4.1,0.4,6.1v0.1c0,0.9,0.1,1.8,0.1,2.7v0.1C-190.4,219.3-192,227.8-195.2,235.4
			L-195.2,235.4z"/>
	</g>
	<g>
		<defs>
			<rect id="SVGID_00000102540646833075238600000015241628230631060632_" width="272.4" height="292.5"/>
		</defs>
		<clipPath id="SVGID_00000037690825768613719620000009230176287886896769_">
			<use xlink:href="#SVGID_00000102540646833075238600000015241628230631060632_"  style="overflow:visible;"/>
		</clipPath>
		<path style="clip-path:url(#SVGID_00000037690825768613719620000009230176287886896769_);fill:#6A3834;" d="M62.7,162.1
			c-2.5-0.2-4.9-1-7.1-2.3c-1.3-0.7-2.5-0.5-3.1,0.6s-0.2,2.2,1.1,3c2.7,1.6,5.6,2.5,8.7,2.7c1.7,0.1,2.6-0.5,2.7-1.8
			C65.2,163.1,64.3,162.2,62.7,162.1z M92.5,157.6c-0.8,0.5-1.4,0.7-1.8,1.2c-1.8,1.8-4,3.3-6.4,4.2c-1.4,0.5-2,1.6-1.5,2.8
			s1.6,1.6,2.9,1.1c3.1-1.1,5.8-2.9,8.1-5.3c0.6-0.7,1-1.5,0.5-2.3C93.8,158.6,93.1,158.1,92.5,157.6L92.5,157.6z M117.9,169.5H99.2
			c2.5-2.7,5.1-5.4,7.3-8.2c2.5-3.2,2.9-6.9,1.2-10.7c-1.7-3.8-4.7-5.8-8.8-6.2c-3.9-0.3-7.1,1.3-9.4,4.4c-0.3,0.4-0.6,0.8-1,1.5
			c-0.1-1.3-0.1-2.4-0.2-3.5c-0.4-2.7-1.6-5.3-3.3-7.4c-4-5-9.6-8.4-15.9-9.8c-4.8-1.1-9.6-2.3-14.4-3.4c-1.8-0.4-3.1,0.5-2.8,2.3
			c1,6.1,2,12.2,3.1,18.2c0.3,1.8,1.2,3.5,1.9,5.6c-0.8-0.7-1.5-1.2-2.1-1.8c-3.5-3.1-7.4-3.9-11.7-2s-6.3,5.4-6.3,10
			c0,0.2,0,0.4,0,0.8l-4.4,0.4c0.9-2.8,1.8-5.6,2.5-8.4c0.3-1.3,0.3-2.7,0.4-4.1c0.1-1.9-0.8-2.6-2.7-2.5c-4,0.2-8,1.3-11.5,3.3
			c-0.1,0.1-0.3,0.2-0.5,0.2c-0.1,0-0.2,0-0.3,0c0.1-1.8,0.2-3.6,0.3-5.4c0.1-1.1-0.1-2.1-1.2-2.6s-2,0.1-2.7,0.8
			c-4,4.1-8,8.2-12,12.4c-4.2,4.3-5.7,9.4-4.3,15.3c0.1,0.2,0.1,0.4,0.2,0.8h-9.7c-1.8,0.1-2.3,0.7-2.3,2.6c0,3,0,5.9,0,8.9
			c0,1.2,0.3,2.1,1.3,2.7H-1c0.8-0.7,1.5-1.4,1-2.6c-0.5-1.2-1.5-1.3-2.6-1.2c-1.7,0-3.3,0-5.2,0v-6.4h123.9v6.4H8.5
			c-0.4,0-0.9-0.1-1.3,0c-0.6,0.3-1.5,0.6-1.6,1.2c-0.2,0.6,0.2,1.4,0.4,2.1c0.1,0.2,0.3,0.4,0.5,0.5h113.6v-13.1
			c-0.3-0.3-0.6-0.6-1-0.8C118.7,169.6,118.3,169.5,117.9,169.5L117.9,169.5z M56.3,130.7c4.7,1.2,9.2,2.1,13.6,3.4
			c4.8,1.4,8.7,4.1,11.8,8c2,2.5,2.9,5.4,2.4,8.5c-0.7,3.8-1.7,6-5.4,6.6c-0.7,0.1-1.4,0-2-0.4c-2.3-1.6-5.1-2.3-7.9-1.9
			c-1.4,0.2-2.7,0.2-4.1,0.1c-0.3,0-0.6-0.1-0.8-0.2c-0.3-0.1-0.5-0.3-0.7-0.5c-1.2-1.7-2.3-3.5-3.2-5.4c-1.7-3.5-2-7.3-2.6-11.1
			C57.1,135.5,56.7,133.2,56.3,130.7z M19.9,154.1c0-0.3,0.2-0.5,0.4-0.7c3.1-2.5,6.8-4,10.7-4.5c-0.3,4.2-1.8,7.8-4.2,11.1
			c-0.1,0.1-0.3,0.2-0.5,0.2c-2.2,0.2-4.4,0.4-6.8,0.6C19.6,158.4,19.8,156.2,19.9,154.1L19.9,154.1z M27.6,169.2
			c-0.2,0.1-0.4,0.2-0.6,0.3H5.3c-0.2-0.1-0.4-0.2-0.5-0.4s-0.2-0.4-0.3-0.6c-1.4-4.4-0.6-8.3,2.5-11.7c2-2.2,4.1-4.3,6.2-6.5
			c0.9-0.9,1.8-1.7,2.7-2.6c0,0.5,0,0.9,0,1.3c-0.3,4.5-0.6,9-0.8,13.5c-0.1,1.9,0.7,2.7,2.6,2.6c2.5-0.2,5-0.4,7.6-0.7l7.6-0.7
			C31,165.7,29.4,167.5,27.6,169.2L27.6,169.2z M33.1,169.5l5.5-5.1l6.4,5.1H33.1z M67.2,169.5H54.9h-0.1c-4.2-1.6-8.1-3.7-11.6-6.5
			c-1-0.9-1.8-2.1-2.1-3.4c-0.3-1.3-0.2-2.7,0.3-3.9c0.5-1.3,1.4-2.3,2.5-3s2.5-1.1,3.8-1c1.8,0.1,3.2,0.9,4.5,2.1
			c4.9,4.4,10.6,6.1,17.1,5.2c0.8,0,1.6,0,2.4,0l0.2,0.3C68.4,161.8,66.9,165.2,67.2,169.5L67.2,169.5z M90.9,169.5H71.5
			c-0.7-3.8,1.6-7.2,5.2-7.7c6.9-0.9,12.2-4.4,15.9-10.3c0.5-0.7,1.1-1.4,1.8-1.9c0.7-0.5,1.5-0.9,2.4-1c0.9-0.2,1.7-0.2,2.6,0
			s1.7,0.5,2.4,1c3.1,2.1,3.7,6.2,1.4,9.3c-3,4.1-6.7,7.5-11,10.1C91.8,169.2,91.4,169.4,90.9,169.5L90.9,169.5z M32.1,106.4
			c0.2,0.1,0.5,0.1,0.7,0c0.2,0,0.5-0.1,0.7-0.3c0.2-0.1,0.4-0.3,0.5-0.5s0.2-0.4,0.3-0.7c0.2-0.9,0.4-1.8,0.6-2.7
			c0.2-1.2-0.8-2.2-2.4-2.2c-0.3,0.3-1,0.7-1.3,1.3c-0.3,1-0.6,2-0.6,3C30.5,105.4,31.1,106.1,32.1,106.4z M28.9,122.3
			c0.4,0.1,0.9,0.1,1.3-0.1s0.7-0.6,0.9-1c0.2-0.6,0.3-1.1,0.4-1.7c0.1-1.4-0.5-2.3-1.6-2.4c-0.5-0.1-1,0-1.4,0.3s-0.7,0.7-0.8,1.1
			c-0.2,0.6-0.3,1.2-0.4,1.9c-0.1,0.5,0.1,0.9,0.3,1.3C28,122,28.4,122.2,28.9,122.3L28.9,122.3z M34.3,97.9c1.3,0,2.2-1.4,2.2-3.4
			c0-0.5-0.2-1-0.6-1.4c-0.4-0.4-0.9-0.6-1.4-0.6c-1.3,0-2.2,1.4-2.2,3.4c0,0.3,0,0.5,0.1,0.7s0.2,0.5,0.4,0.6
			c0.2,0.2,0.4,0.3,0.6,0.4C33.8,97.9,34,97.9,34.3,97.9L34.3,97.9z M30.4,114.9c1.1,0.2,1.9-0.3,2.2-1.3c0.2-0.9,0.4-1.8,0.6-2.7
			c0.1-1.3-0.5-2.2-1.6-2.3c-0.5-0.1-1,0-1.4,0.3s-0.7,0.7-0.8,1.2c-0.2,0.9-0.4,1.7-0.5,2.6c-0.1,0.5,0,1,0.3,1.4
			C29.5,114.5,29.9,114.8,30.4,114.9L30.4,114.9z M72,145.7c1,1.4,1.8,2.9,2.8,4.3c0.4,0.5,0.9,0.9,1.4,1.3c1.9,0,3-1.5,2.4-2.7
			c-1.9-3.8-4.4-7.3-7.6-10.1c-0.8-0.8-2.1-0.6-2.8,0.3c-0.7,0.8-0.7,1.9,0.1,2.8C69.6,143,70.9,144.3,72,145.7L72,145.7z
			 M78.7,117.1c-1.1,0.2-1.6,0.9-1.6,2.2c0.1,0.6,0.2,1.2,0.4,1.8c0.1,0.4,0.4,0.8,0.8,1s0.9,0.3,1.3,0.2c0.5-0.1,0.9-0.3,1.1-0.7
			c0.3-0.4,0.4-0.8,0.4-1.3c0-0.7-0.2-1.4-0.4-2c-0.1-0.4-0.4-0.8-0.8-1.1C79.6,117.1,79.1,117,78.7,117.1L78.7,117.1z M75.2,100.1
			c-1.1,0.2-1.7,1-1.5,2c0.1,1,0.3,2,0.6,3c0.1,0.2,0.1,0.4,0.3,0.6c0.1,0.2,0.3,0.3,0.5,0.5c0.2,0.1,0.4,0.2,0.6,0.2s0.5,0,0.7,0
			c1.1-0.2,1.6-0.9,1.6-2.2c-0.2-1-0.4-2-0.7-2.9c-0.1-0.2-0.2-0.4-0.3-0.6c-0.1-0.2-0.3-0.3-0.5-0.4s-0.4-0.2-0.6-0.2
			C75.6,100,75.4,100,75.2,100.1L75.2,100.1z M79.1,110.1c-0.3-0.7-1.1-1.2-1.4-1.6c-1.6,0.1-2.4,0.9-2.3,2.1c0.1,1,0.3,2,0.6,3
			c0.3,1,1.1,1.5,2.2,1.3c0.5-0.1,0.9-0.4,1.2-0.8s0.4-0.9,0.3-1.4C79.5,111.8,79.5,110.9,79.1,110.1L79.1,110.1z M117.9,38
			c-5.2,0-10.4,0-15.6,0c-1.5,0-2.2,0.7-2.2,2.2c0,0.8,0,1.5,0,2.4h-1.5c-6.4,0-12.9,0-19.3,0c-0.5,0-0.9,0-1.4,0.1
			c-0.4,0.1-0.8,0.4-1,0.7c-0.2,0.4-0.3,0.8-0.3,1.2s0.2,0.8,0.5,1.2s0.7,0.5,1.1,0.6c0.4,0,0.9,0.1,1.3,0H100v12.8H63.3
			c-2,0-2.6,0.6-2.6,2.6c0,1.9,0,3.7,0,5.6H47.9c0-4,0-8,0-11.9c0-5.5,3.6-9.1,9.1-9.1c4.1,0,8.1,0,12.2,0c1.4,0,2.3-0.8,2.2-1.9
			c0-1.1-0.9-1.9-2.2-1.9c-4.5,0-9-0.1-13.5,0c-6,0.2-10.9,4.6-11.5,10.6c-0.4,4.2-0.2,8.5-0.2,12.7c0,0.5,0,1,0,1.4
			c-0.1,0-0.3,0.1-0.4,0.1h-4.2c-1.9,0-2.6,0.6-2.6,2.5c0,5.2,0,10.4,0,15.6c0,1.8,0.7,2.4,2.4,2.4c10.1,0,20.1,0,30.2,0
			c1.7,0,2.4-0.7,2.4-2.4c0-5.2,0-10.4,0-15.6c0-1.9-0.7-2.5-2.6-2.5c-1.5,0-3.1,0-4.6,0v-4.3h35.5c0,0.7,0,1.3,0,1.8
			c0,2.2,0.6,2.7,2.7,2.7c4.8,0,9.7,0,14.5,0c1.2,0,2.1-0.3,2.7-1.3v-27C119.6,38.6,119,38,117.9,38L117.9,38z M67.9,71.6v12.6H40.7
			V71.6H67.9z M116.2,63.9h-12.1v-22h12.1V63.9z M59.8,92.6c-1.4,0.1-1.9,1.3-1.7,3.3c0.2,1.4,1,2.2,2.1,2.1c1.2-0.1,1.8-1,1.7-2.4
			C62,93.5,61.2,92.5,59.8,92.6L59.8,92.6z M73.6,92.6c-0.5,0.1-0.9,0.3-1.1,0.7c-0.3,0.4-0.4,0.8-0.3,1.3c0.1,0.7,0.2,1.4,0.4,2
			c0.1,0.4,0.4,0.8,0.8,1.1c0.4,0.2,0.9,0.3,1.3,0.2c1.1-0.2,1.6-0.9,1.6-2.2c-0.1-0.6-0.2-1.3-0.5-1.9c-0.1-0.4-0.4-0.8-0.9-1
			C74.5,92.6,74,92.5,73.6,92.6L73.6,92.6z M45.1,110.2c-0.2,0.8-0.2,1.7-0.3,2.5c0,1.2,0.6,2.1,1.7,2.2c1.1,0.1,1.9-0.4,2.1-1.5
			c0.2-1,0.3-1.9,0.3-2.9c0-0.5-0.2-0.9-0.5-1.3c-0.3-0.3-0.8-0.6-1.2-0.6c-0.5,0-0.9,0.1-1.3,0.4C45.4,109.3,45.2,109.7,45.1,110.2
			L45.1,110.2z M45.8,102.2c-0.1,0.7-0.2,1.4-0.2,2.2c0,0.5,0.1,1,0.4,1.4c0.3,0.4,0.8,0.6,1.3,0.7c0.2,0,0.5,0,0.7-0.1
			s0.5-0.2,0.7-0.3c0.2-0.2,0.4-0.3,0.5-0.6c0.1-0.2,0.2-0.5,0.2-0.7c0.1-0.8,0.2-1.5,0.3-2.3c0-1.5-0.6-2.4-1.8-2.5
			C46.8,100,46,100.8,45.8,102.2L45.8,102.2z M44.1,120.6c0,0.2,0,0.5,0.1,0.7s0.2,0.4,0.4,0.6s0.4,0.3,0.6,0.4
			c0.2,0.1,0.5,0.1,0.7,0.1c1.1,0,1.8-0.6,2-1.6c0.1-0.5,0.1-1,0.2-1.7c0-0.5-0.1-0.9-0.4-1.3s-0.7-0.6-1.2-0.7
			c-0.2-0.1-0.4-0.1-0.7,0c-0.2,0-0.4,0.1-0.6,0.2c-0.2,0.1-0.4,0.3-0.5,0.4c-0.1,0.2-0.2,0.4-0.3,0.6C44.1,119,44,119.8,44.1,120.6
			L44.1,120.6z M50.3,96.3c0.1-0.3,0.1-0.6,0.1-0.9c0.1-1.8-0.6-2.8-1.8-2.8s-1.9,0.8-2.1,2.3c0,0.3-0.1,0.7-0.1,1
			c0,1.1,0.7,1.9,1.7,2.1C49.2,98.1,50.1,97.4,50.3,96.3L50.3,96.3z M61.5,108.5c-0.2,0-0.5,0.1-0.7,0.2s-0.4,0.3-0.6,0.4
			c-0.2,0.2-0.3,0.4-0.4,0.6c-0.1,0.2-0.1,0.5-0.1,0.7c0,0.9,0.1,1.8,0.3,2.7c0,0.5,0.3,1,0.7,1.3s0.9,0.5,1.4,0.5
			c1.1-0.1,1.8-0.9,1.8-2.2c-0.1-0.8-0.1-1.7-0.3-2.6c-0.1-0.5-0.3-0.9-0.7-1.2C62.5,108.6,62,108.5,61.5,108.5L61.5,108.5z
			 M62.3,117c-1.1,0.1-1.7,0.8-1.7,1.9c0,0.6,0.1,1.1,0.2,1.7c0.2,1.2,1,1.9,2.1,1.8c1-0.1,1.7-0.9,1.7-2.2c0-0.5-0.1-1.1-0.2-1.6
			C64.1,117.5,63.3,116.9,62.3,117L62.3,117z M61,100.1c-1.3-0.2-2.2,0.9-2.1,2.7c0.1,0.8,0.2,1.5,0.3,2.3c0.1,0.3,0.2,0.5,0.3,0.7
			c0.2,0.2,0.4,0.4,0.6,0.5c0.2,0.1,0.5,0.2,0.8,0.2s0.5,0,0.8-0.1c2-0.9,1.1-2.6,1-4.1C62.7,101.1,62.2,100.3,61,100.1L61,100.1z"
			/>
	</g>
	<g>
		<defs>
			<rect id="SVGID_00000102542388301754311170000010921037251299117733_" width="272.4" height="292.5"/>
		</defs>
		<clipPath id="SVGID_00000142175754008761048150000013364629717286104449_">
			<use xlink:href="#SVGID_00000102542388301754311170000010921037251299117733_"  style="overflow:visible;"/>
		</clipPath>
		<path style="clip-path:url(#SVGID_00000142175754008761048150000013364629717286104449_);fill:#6A3834;" d="M273.4,260.4
			c-1.1,0-1.9,0.9-1.9,2.3c0,1.5,0,2.9,0,4.4s0,2.8,0,4.2c0,1.4,0.8,2.2,2,2.2c1.1,0,1.8-0.8,1.9-2.2c0-2.9,0-5.7,0-8.6
			C275.3,261.2,274.5,260.4,273.4,260.4z M325.3,156.3c1.1,0,1.8-0.6,1.9-1.7c0-0.3,0.1-0.7,0.1-1c0-3,0-6.1,0-9.1
			c0-1.1-0.2-2.1-1.2-2.8h-1.5c-0.4,0.6-1,1.1-1,1.6c-0.1,3.8-0.1,7.5,0,11.3C323.5,155.7,324.3,156.3,325.3,156.3z M298.4,240.2
			c17.7,0.7,32.7-13.5,33.5-31.6c0.7-17.7-13.5-32.8-31.5-33.5c-17.8-0.7-32.9,13.5-33.6,31.6C266.1,224.4,280.3,239.5,298.4,240.2z
			 M297.4,234.9c0,0.4,0,0.7-0.1,1.3c-6.4-0.4-11.9-2.8-16.9-7c0.8-0.8,1.5-1.4,2.2-2.1c4.3-4.3,8.5-8.5,12.8-12.8
			c0.3-0.3,1-0.6,1.3-0.5s0.6,0.8,0.6,1.3C297.4,221.7,297.4,228.3,297.4,234.9L297.4,234.9z M301.4,236.2c0-0.5-0.1-1-0.1-1.4
			c0-6.6,0-13.1,0-19.7c0-0.5,0.4-1,0.6-1.5c0.5,0.2,1.1,0.3,1.4,0.6c4.7,4.6,9.4,9.3,14,14c0.3,0.3,0.5,0.6,0.9,0.9
			C313.3,233.4,307.8,235.7,301.4,236.2L301.4,236.2z M321,226.4c-0.4-0.3-0.6-0.6-0.9-0.8c-4.7-4.7-9.4-9.4-14.1-14.1
			c-0.3-0.3-0.7-1-0.5-1.3c0.1-0.3,0.8-0.6,1.3-0.6c6.7,0,13.4,0,20,0c0.3,0,0.7,0,1.2,0.1C327.5,216,325.1,221.5,321,226.4
			L321,226.4z M321,188.7c4.2,4.9,6.5,10.4,7,16.9h-1.5c-6.5,0-12.9,0-19.4,0c-0.5,0-1.1-0.4-1.6-0.6c0.2-0.5,0.3-1.1,0.7-1.4
			c4.6-4.7,9.2-9.3,13.9-13.9C320.3,189.4,320.6,189.1,321,188.7L321,188.7z M301.3,179.7c0-0.2,0-0.3,0.1-0.7
			c6.4,0.5,11.9,2.8,16.8,6.9c-0.2,0.2-0.4,0.5-0.6,0.7c-4.8,4.8-9.6,9.6-14.5,14.4c-0.2,0.2-0.4,0.3-0.6,0.3
			c-0.2,0.1-0.4,0.1-0.7,0.1c-0.3-0.1-0.6-0.7-0.6-1C301.3,193.5,301.3,186.6,301.3,179.7L301.3,179.7z M299.3,204.8
			c0.5,0,1.1,0.2,1.5,0.5s0.8,0.7,1,1.2s0.3,1.1,0.1,1.6c-0.1,0.5-0.4,1-0.8,1.4s-0.9,0.6-1.4,0.7c-0.5,0.1-1.1,0-1.6-0.2
			s-0.9-0.6-1.2-1c-0.3-0.5-0.4-1-0.4-1.5c0-0.7,0.3-1.4,0.8-1.9C297.9,205.1,298.6,204.9,299.3,204.8L299.3,204.8z M297.3,179
			c0,0.6,0.1,1,0.1,1.5c0,6.5,0,13,0,19.5c0,0.5-0.2,1.1-0.6,1.5c-0.7,0.6-1.1-0.2-1.5-0.6c-4.6-4.6-9.2-9.1-13.7-13.7
			c-0.4-0.4-0.8-0.7-1.3-1C285.4,181.8,290.9,179.4,297.3,179L297.3,179z M277.7,188.7c1.7,1.8,3.4,3.4,5,5
			c3.4,3.4,6.7,6.7,10.1,10.1c0.2,0.2,0.3,0.4,0.3,0.6c0.1,0.2,0.1,0.4,0.1,0.7c-0.1,0.3-0.7,0.6-1,0.6c-6.9,0-13.8,0-20.7,0
			c-0.2,0-0.3,0-0.7-0.1C271.1,199.2,273.5,193.7,277.7,188.7z M272.1,209.5c6.6,0,13.1,0,19.7,0c0.5,0,1,0.4,1.5,0.6
			c-0.2,0.5-0.3,1.1-0.7,1.4c-4.6,4.7-9.2,9.3-13.9,13.9c-0.3,0.3-0.6,0.6-1,0.9c-4.1-4.7-6.6-10.6-7-16.8
			C271.2,209.6,271.7,209.5,272.1,209.5L272.1,209.5z M328.1,178.5c-0.5-0.6-0.8-1.3-0.8-2c-0.1-4.2,0-8.5,0-12.7
			c0-1.5-0.7-2.2-1.9-2.3c-1.2,0-1.9,0.8-1.9,2.2c0,1.5,0,3,0,4.5c0,2,0,4,0,6.2c-1.3-0.8-2.3-1.5-3.4-2.1c-0.8-0.4-1.1-1-1.1-1.9
			c0-8.7,0-17.3,0-26c0-1.2-0.3-2.1-1.3-2.7h-1.3c-1,0.7-1.3,1.6-1.3,2.7c0.1,3.7,0,7.4,0,11.2c-1.2-0.3-2.4-0.4-3.6-0.3
			c-1.2,0.1-2.4,0.5-3.4,1.1c0.7-3-0.1-5.3-2.3-7.1c-1-0.8-2.2-1.4-3.4-1.8c-1.2-0.4-2.5-0.5-3.8-0.4c-5.6,0.4-8.5,3.8-8,9.2
			c-2.2-1.1-4.4-1.5-6.9-0.7v-2.1c0-3,0-6.1,0-9.1c0-1.2-0.3-2.1-1.3-2.7h-1.3c-1.1,0.6-1.3,1.5-1.3,2.7c0,8.6,0,17.3,0,25.9
			c0,0.9-0.2,1.5-1.1,1.9c-1.1,0.6-2.1,1.3-3.4,2.1v-1.6c0-9.4,0-18.7,0-28.1c0-1.2-0.2-2.2-1.2-2.9h-1.6c-1,0.7-1.2,1.7-1.2,2.9
			c0,10.5,0,21.1,0,31.6c0,0.9-0.3,1.7-1,2.4c-2,2.3-3.8,4.6-5.6,7c-0.2,0.2-0.3,0.4-0.3,0.7c-0.1,0.3-0.1,0.5,0,0.8
			c0,0.3,0.2,0.5,0.3,0.7c0.2,0.2,0.3,0.4,0.6,0.5c0.9,0.5,1.9,0.3,2.6-0.6c0.2-0.2,0.3-0.5,0.5-0.7c9.1-12.7,21.4-18.2,36.8-16
			c20.4,2.9,34.5,23.2,30.4,43.3c-4,20.1-22.4,32.8-42.6,29.6c-17-2.7-30.5-18.1-30.8-35.4c-0.1-4.4,0.5-8.7,1.9-12.9
			c0.3-0.9,0.4-1.9-0.5-2.4c-0.5-0.3-1.5-0.5-2-0.2c-0.5,0.2-1,1-1.2,1.7c-4.7,15.8-1.4,29.7,10,41.7c0.3,0.3,0.5,0.6,0.7,1
			s0.2,0.8,0.2,1.2c0,4.5,0,9.1,0,13.6c0,0.5,0,1,0.1,1.5c0.2,1,0.9,1.4,1.9,1.4c0.4,0,0.8-0.1,1.1-0.4c0.3-0.3,0.5-0.6,0.6-1
			c0.1-0.5,0.1-0.9,0.1-1.4c0-3.4,0-6.8,0-10.2c0-0.4,0-0.9,0.1-1.4c1.2,0.8,2.2,1.5,3.3,2.1c0.8,0.4,1.1,1,1.1,1.9
			c0,8.6,0,17.1,0,25.7c0,0.4,0,0.9,0,1.3c0,0.3,0.1,0.5,0.3,0.8s0.3,0.4,0.6,0.6c0.2,0.2,0.5,0.2,0.8,0.3c0.3,0,0.6,0,0.8-0.1
			c0.7-0.2,1.4-0.2,2.2-0.1c4.5,1.1,8.5-3.1,7.3-7.5c-0.9-3.4-3.9-4.9-8-4.2v-16.1c10.4,4.1,20.9,4.1,31.3,0v16.1
			c-0.4-0.1-0.7-0.2-1-0.2c-1.2-0.2-2.5-0.1-3.6,0.5c-1.1,0.5-2.1,1.4-2.7,2.5c-0.6,1-0.9,2.2-0.8,3.4c0.1,1.2,0.5,2.4,1.3,3.3
			c1.5,2,4.1,2.8,6.7,2.1c0.5-0.1,1-0.1,1.5,0.1c0.9,0.3,1.7,0.2,2.2-0.6c0.3-0.6,0.5-1.3,0.5-1.9c0-8.7,0-17.4,0-26.1
			c0-0.5,0.2-1.2,0.5-1.4c1.2-0.9,2.5-1.6,4-2.5v29.7c0,2.1,0.6,3,2,3c1.3,0,1.9-0.9,1.9-2.9c0-10.6,0-21.2,0-31.8
			c0-0.7,0.3-1.5,0.8-2C344.3,220.4,344.3,194.8,328.1,178.5L328.1,178.5z M289.7,167.7c-2.9,0-6-3.1-6.1-5.9c0-1.8,0.9-2.7,2.7-2.6
			c2.9,0.1,5.9,3.2,5.9,6.1C292.2,166.8,291.2,167.7,289.7,167.7L289.7,167.7z M302.8,163.7c-0.1,1,0,1.9,0,3h-6.5
			c-0.3-1.9-0.7-3.8-1-5.8c2.7,1,5.7,1,8.4-0.1C303.3,161.9,302.9,162.8,302.8,163.7L302.8,163.7z M303.6,156.3
			c-1,0.9-2.5,1.4-4.1,1.4l-0.2,0.3c-1.3-0.6-2.8-1-4-1.8c-1.5-1-1.4-2.7-0.1-3.8c2.1-1.9,6.3-1.9,8.3,0
			C304.8,153.7,304.8,155.1,303.6,156.3L303.6,156.3z M308.9,167.7c-1.5,0-2.4-1-2.4-2.4c-0.1-3,3.1-6.2,6.1-6.2
			c1.6,0,2.5,1,2.5,2.6C315,164.7,311.8,167.8,308.9,167.7L308.9,167.7z M285.9,265.1c0.3,0,0.6,0.1,0.8,0.2
			c0.3,0.1,0.5,0.3,0.7,0.5s0.4,0.4,0.5,0.7c0.1,0.3,0.2,0.6,0.2,0.8c0,0.6-0.2,1.1-0.6,1.6c-0.4,0.4-1,0.7-1.5,0.7
			c-0.3,0-0.6-0.1-0.9-0.2s-0.5-0.3-0.7-0.5s-0.4-0.5-0.5-0.7c-0.1-0.3-0.2-0.6-0.1-0.9c0-0.3,0.1-0.6,0.2-0.8
			c0.1-0.3,0.3-0.5,0.5-0.7s0.4-0.4,0.7-0.5C285.3,265.2,285.6,265.1,285.9,265.1L285.9,265.1z M312.9,269.6c-0.3,0-0.6-0.1-0.9-0.2
			s-0.5-0.3-0.7-0.5s-0.4-0.5-0.5-0.8s-0.1-0.6-0.1-0.9c0-0.6,0.3-1.1,0.7-1.5c0.4-0.4,1-0.6,1.6-0.6s1.1,0.3,1.5,0.7
			c0.4,0.4,0.6,1,0.6,1.6s-0.3,1.1-0.7,1.5C314,269.3,313.4,269.6,312.9,269.6L312.9,269.6z M299.4,252.7c-1.2,0-2.4,0.3-3.4,1
			s-1.8,1.6-2.3,2.7c-0.5,1.1-0.6,2.3-0.4,3.5s0.8,2.3,1.7,3.1c0.9,0.9,1.9,1.4,3.1,1.7c1.2,0.2,2.4,0.1,3.5-0.4s2.1-1.3,2.7-2.3
			c0.7-1,1-2.2,1-3.4c0-1.6-0.7-3.1-1.8-4.3C302.5,253.3,301,252.7,299.4,252.7L299.4,252.7z M299.4,261c-0.4,0-0.9-0.1-1.2-0.3
			c-0.4-0.2-0.7-0.6-0.8-1c-0.2-0.4-0.2-0.9-0.2-1.3c0.1-0.4,0.3-0.8,0.6-1.2s0.7-0.5,1.1-0.6s0.9-0.1,1.3,0.1s0.8,0.4,1,0.8
			c0.3,0.4,0.4,0.8,0.4,1.2c0,0.6-0.2,1.1-0.6,1.6C300.5,260.7,300,261,299.4,261L299.4,261z"/>
	</g>
	<g>
		<defs>
			<rect id="SVGID_00000116932435713861123900000001463752925002117039_" width="272.4" height="292.5"/>
		</defs>
		<clipPath id="SVGID_00000003810177755273776670000016962628037494351008_">
			<use xlink:href="#SVGID_00000116932435713861123900000001463752925002117039_"  style="overflow:visible;"/>
		</clipPath>
		<path style="clip-path:url(#SVGID_00000003810177755273776670000016962628037494351008_);fill:#6A3834;" d="M573.1,138.6
			c0.4,0,0.8-0.1,1.2-0.3c0.3-0.2,0.6-0.6,0.8-0.9c0.1-0.4,0.2-0.8,0.1-1.2c-0.1-0.4-0.3-0.8-0.6-1.1s-0.7-0.5-1.1-0.6
			c-0.4-0.1-0.8,0-1.2,0.1c-0.4,0.2-0.7,0.4-0.9,0.8c-0.2,0.3-0.3,0.7-0.3,1.2s0.2,1.1,0.6,1.4C572,138.4,572.6,138.6,573.1,138.6z
			 M562.8,132.5c0.4,0,0.8-0.1,1.2-0.3s0.6-0.5,0.8-0.9s0.2-0.8,0.1-1.2c-0.1-0.4-0.3-0.8-0.6-1.1s-0.6-0.5-1-0.6s-0.8,0-1.2,0.1
			c-0.4,0.2-0.7,0.4-0.9,0.8c-0.2,0.3-0.3,0.7-0.3,1.1c0,0.5,0.2,1.1,0.6,1.5C561.7,132.2,562.2,132.5,562.8,132.5L562.8,132.5z
			 M583.5,128.3c0.4,0,0.8-0.1,1.1-0.4c0.3-0.2,0.6-0.6,0.7-0.9c0.1-0.4,0.2-0.8,0.1-1.2c-0.1-0.4-0.3-0.8-0.6-1
			c-0.3-0.3-0.7-0.5-1.1-0.5c-0.4-0.1-0.8,0-1.2,0.2s-0.7,0.4-0.9,0.8c-0.2,0.3-0.3,0.8-0.3,1.2c0,0.5,0.2,1.1,0.6,1.4
			C582.4,128.2,582.9,128.4,583.5,128.3L583.5,128.3z M550.4,132.5c0.4,0,0.8-0.1,1.2-0.3s0.6-0.5,0.8-0.9s0.2-0.8,0.2-1.2
			c-0.1-0.4-0.2-0.8-0.5-1.1s-0.6-0.5-1-0.6s-0.8-0.1-1.2,0.1s-0.7,0.4-0.9,0.7s-0.4,0.7-0.4,1.1c0,0.5,0.2,1.1,0.5,1.5
			C549.3,132.2,549.8,132.5,550.4,132.5L550.4,132.5z M603.4,116c-2.8,0-5.7,0-8.5,0c-0.4,0-0.7,0-1.2-0.1c0-2.5,0-4.8,0-7.2
			c-0.1-3.3,0-6.7-0.4-10c-1-7.8-4.5-14.4-10-19.9c-0.6-0.6-0.7-1.1-0.3-1.8c0.6-1.2,1.2-2.4,1.9-3.5c2.2-3.4,4.8-6.6,7.9-9.3
			c0.8-0.7,1.2-1.5,0.8-2.5s-1.2-1.4-2.3-1.3c-4.6,0.1-9,0.8-13.3,2.6c-0.5,0.2-1,0.4-1.4,0.6c2-3.6,4.7-6.8,7.7-9.5
			c0.8-0.7,1.5-1.5,1-2.7c-0.4-1.2-1.5-1.4-2.6-1.4c-4.8,0.1-9.5,1-13.8,3c-0.5-1.9-0.9-3.7-1.5-5.5c-1.2-3.7-3.3-6.7-6.6-9
			c-1.5-1-2.8-1-4.3,0c-3.8,2.6-5.9,6.3-7.1,10.7c-0.3,1.2-0.6,2.5-0.9,3.8c-4.6-2.2-9.4-3-14.3-3c-1,0-1.8,0.3-2.2,1.3
			s0,1.7,0.7,2.4c0.9,0.9,1.9,1.7,2.7,2.6c1.9,2.2,3.8,4.6,5.7,6.8l-0.3,0.3c-0.4-0.1-0.7-0.3-1-0.4c-4.4-2-9.1-2.7-13.9-2.8
			c-0.4,0-0.9,0.1-1.2,0.3c-0.4,0.2-0.6,0.6-0.8,1c-0.4,0.9-0.1,1.7,0.6,2.3c0.3,0.3,0.6,0.6,0.9,0.9c3.7,3.5,6.9,7.4,9.1,12
			c0.4,0.8,0.3,1.3-0.4,1.9c-3.4,3.3-6.1,7.3-7.9,11.8c-1.7,4.1-2.5,8.5-2.5,13l-7.5,2.9c0.5-4,1-8.1,2.9-11.8
			c0.3-0.5,0.6-1.2,0.4-1.7c-0.3-0.7-0.8-1.3-1.5-1.7c-0.2-0.1-0.4-0.1-0.7-0.1c-0.2,0-0.5,0-0.7,0.1s-0.4,0.2-0.6,0.4
			c-0.2,0.2-0.3,0.4-0.4,0.6c-0.9,2.3-1.9,4.6-2.5,6.9c-0.7,2.6-1,5.3-1.4,8.1c-0.2-0.1-0.5-0.1-0.7-0.2c-0.4-0.2-0.7-0.4-1.1-0.6
			c-6.1-3.7-12.4-4-18.5-0.1c-7.2,4.6-9.5,11.6-8.9,19.8c0.2,2.8,0.8,5.5,1.1,8.3c0.8,6.3,2.6,12.4,5.9,17.9
			c4.6,7.6,12.9,10.8,21,7.7c1.8-0.7,3.8-0.7,5.5,0.1c6.3,2.4,12.1,1,17.1-3.3c0.7-0.6,1.2-0.7,2-0.3c8.1,3.7,16.6,5.4,25.4,4.5
			c16.7-1.6,29.8-9.4,39.2-23.3c3.9-5.6,6-12.2,6.2-19C606.1,116.7,605.4,116,603.4,116L603.4,116z M593.4,120.2
			c-2.4,10.5-8.6,18.1-17.6,23.4c-11.6,6.9-25.1,6.6-35.2,1.5c2.2-8.2,3.8-16.4,3.6-25h49.2V120.2z M550.3,106.1l8.2-9l8,8.7
			l-7.7,8.5L550.3,106.1z M553.9,116c-3.2,0-6.8,0-10.4,0c-0.3,0-0.7-0.4-0.8-0.7c-0.2-0.4-0.5-0.9-0.6-1.4l5.1-5.4L553.9,116z
			 M570.3,108.4l6.8,7.6h-13.8L570.3,108.4z M562.4,94.3l8-8.6l8.1,8.8l-8,8.6L562.4,94.3z M570.4,80.2l-6.2-6.8
			c3,0.4,6.4,1.6,9.5,3.4L570.4,80.2z M566.7,83.2l-7.9,8.5l-8-8.8l7.8-8.5L566.7,83.2z M547.1,80.3l-3.3-3.6c3-1.7,6.2-2.8,9.6-3.4
			L547.1,80.3z M547.1,85.7l8,8.7l-8.1,8.7l-7.9-8.7C541.4,91.8,544.2,88.9,547.1,85.7L547.1,85.7z M543.9,105.5l-4.3,4.5
			c-3-3.3-6.5-5.4-10.5-6.1l6.2-6.8L543.9,105.5z M586.5,115.9c0.9-1,1.9-2,3.1-3.3v3.3H586.5z M588.5,108l-6.6,6.3
			c-2.8-3-5.4-5.9-7.9-8.7l7.9-8.4c0.9,0.9,1.7,1.6,2.4,2.3c1.4,1.3,2.8,2.7,4.2,4C590.1,105,590.1,106.4,588.5,108L588.5,108z
			 M587.5,92.3l1.7,5.7l-0.4,0.2l-3.4-3.9L587.5,92.3z M585.3,88.1l-3.3,3.5l-8.2-8.9l3.4-3.6C580.6,81.6,583.3,84.6,585.3,88.1
			L585.3,88.1z M583.1,65.7c0.9-0.2,1.8-0.4,2.6-0.6l-6.8,10c-1.6-0.9-3.4-1.9-5.2-2.9c-1-0.6-0.4-1.1,0.1-1.6
			C576.6,68.1,579.7,66.6,583.1,65.7L583.1,65.7z M577.9,54.7c-4.1,4.8-7.4,9.5-8.5,15.5l-5.3-1.1c-0.2,0-0.4-0.1-0.6-0.1
			c-2.1-0.3-2.9-2.1-1.8-3.9C565.3,59.2,570.8,56,577.9,54.7L577.9,54.7z M556.5,44.3c2.2-2.5,2.2-2.5,4.3,0c2.7,3.1,3.5,6.9,4,10.9
			c0,0.1,0,0.3-0.1,0.4c-0.1,0.1-0.1,0.2-0.2,0.3c-1.9,2-3.9,3.9-5.8,5.7c-1.8-1.8-3.7-3.7-5.6-5.6c-0.3-0.2-0.4-0.6-0.5-0.9
			C553,51.2,553.8,47.3,556.5,44.3L556.5,44.3z M539.6,54.9c8.2,0.9,15.3,6.6,17.7,13.6l-9.3,1.6C546.9,64.3,543.5,59.5,539.6,54.9
			L539.6,54.9z M531.6,65.1c3.6,0.5,7,1.9,9.9,3.9c0.7,0.5,1.4,1.1,2.1,1.7c0.5,0.5,0.6,1.1-0.2,1.5c-1.7,0.9-3.4,1.9-5,2.8
			L531.6,65.1z M539.9,79.2c1.2,1.4,2.5,2.7,3.5,3.9l-8,8.6l-3.3-3.7C534.1,84.5,536.8,81.6,539.9,79.2L539.9,79.2z M529.9,92
			l2.1,2.3l-3.6,3.8l-0.2-0.1C528.7,96.2,529.3,94.3,529.9,92z M533.4,150.4c-2.6,4.4-6.6,6.9-11.9,6.8c-1.6-0.1-3.1-0.4-4.6-1.1
			c-1.1-0.5-2.3-0.8-3.5-0.8s-2.4,0.3-3.5,0.8c-4,1.7-8,1.5-11.8-0.9c-2.3-1.4-4-3.4-5.3-5.8c-2.9-5.3-4.3-11-5.1-17
			c-0.3-2.2-0.7-4.3-0.9-6.5c-0.5-6.2,1-11.7,6.2-15.6c4.5-3.3,10.2-3.3,14.9-0.3c1.1,0.7,2.4,1.2,3.8,1.9c-0.1,1.2-0.2,2.5-0.2,4.1
			c-1-0.5-1.9-0.9-2.7-1.5c-1.2-0.7-2.2-0.7-3,0.2c-0.7,0.9-0.6,2.2,0.5,3.1c3.7,3.1,11,3.1,14.6,0c1-0.9,1.2-2,0.5-3s-1.8-1-3-0.3
			c-0.8,0.5-1.7,0.9-2.8,1.5c0.1-1.6,0.2-2.8,0.3-4c0-0.1,0-0.2,0.1-0.3c0-0.1,0.1-0.2,0.2-0.2c1.8-0.9,3.5-1.8,5.3-2.6
			c7.9-3.3,15.9,1.7,18.1,9.4c1,3.4,0.9,6.8,0.3,10.2c-0.9,4.6-1.5,9.3-2.7,13.8C536.2,145.1,534.9,147.8,533.4,150.4L533.4,150.4z
			 M596.9,134.7c-8.5,13.2-20.6,20.6-36.2,22.2c-7.8,0.8-15.4-0.6-22.6-3.6c-0.4-0.2-0.8-0.3-1.2-0.6l2-3.7
			c12.2,5.4,24.3,5.5,36.3-0.4c11.8-5.9,19.7-15.2,22.5-28.4h4.2C601.4,125.4,599.8,130.4,596.9,134.7L596.9,134.7z M556.6,144.8
			c0.4,0,0.8-0.1,1.1-0.4c0.3-0.2,0.6-0.6,0.8-0.9c0.2-0.4,0.2-0.8,0.1-1.2c-0.1-0.4-0.3-0.8-0.6-1c-0.3-0.3-0.7-0.5-1.1-0.5
			c-0.4-0.1-0.8,0-1.2,0.1c-0.4,0.2-0.7,0.4-0.9,0.8c-0.2,0.3-0.3,0.7-0.3,1.2s0.2,1.1,0.6,1.4C555.6,144.6,556.1,144.8,556.6,144.8
			L556.6,144.8z"/>
	</g>
	<g>
		<defs>
			<rect id="SVGID_00000074433214284961501470000001844664864573740687_" width="272.4" height="292.5"/>
		</defs>
		<clipPath id="SVGID_00000127736022518273406740000015351348012508361404_">
			<use xlink:href="#SVGID_00000074433214284961501470000001844664864573740687_"  style="overflow:visible;"/>
		</clipPath>
		<path style="clip-path:url(#SVGID_00000127736022518273406740000015351348012508361404_);fill:#6A3834;" d="M859.9,178.3h-37V213
			h6.4c-1.3,1.7-2.6,3.2-3.7,4.8c-0.6,0.9-1.2,1.2-2.2,1.2c-8.9,0-17.7,0-26.6,0h-1.6v-12H791v11.9h-19.2V207h-4.2v12h-31.8v20.9
			c-4.8-1.9-8.6-1.2-11.3,2.2c-1.1,1.4-1.8,3.2-1.9,5c-0.1,1.8,0.4,3.6,1.4,5.1c2.4,3.7,5.9,4.5,11.6,2.9v3.7h-16.3v14.6h11.8
			c-0.1-1.3-0.1-2.6-0.2-4.1h100.6v4.1h11.8v-14.7h-16.2c-0.7-2.5-0.5-3,1.4-4.3c4.1-2.7,8.3-5.4,12.4-8c0.5-0.4,1.1-0.6,1.7-0.7
			c8.9-0.9,15.3-6.9,16.8-15.8c0-0.2,0.1-0.3,0.2-0.5V225c-0.2-0.8-0.4-1.7-0.6-2.5c-0.9-3.4-2.7-6.4-5.3-8.8
			c-0.3-0.3-0.5-0.6-0.6-1h6.5v-34.4H859.9z M735.1,249.5c-0.5,1.6-2.4,2.7-4.2,2.5c-1.1-0.1-2-0.6-2.8-1.4s-1.2-1.8-1.3-2.8
			c-0.1-1.1,0.2-2.1,0.8-3s1.5-1.5,2.6-1.8c1.9-0.5,4.3,0.4,5,2.4h-3.8v4.1H735.1z M726.9,269.2h-3.2V263h3.2V269.2z M740.1,223.2
			h82.7v35.4h-82.7V223.2z M836,263h3.2v6.3H836V263z M831.6,263v2H731.2v-2H831.6z M827,250.6v-11.5c2.3,2.7,5.3,4.7,8.7,5.8
			L827,250.6z M855.7,226.9c0,1.9-0.3,3.8-1,5.6s-1.7,3.4-3.1,4.8c-1.3,1.4-2.9,2.5-4.7,3.3s-3.6,1.2-5.5,1.2
			c-7.6,0.2-14.4-6.3-14.6-13.9c-0.1-1.9,0.3-3.8,1-5.6s1.7-3.4,3-4.8c1.3-1.4,2.9-2.5,4.7-3.3s3.6-1.2,5.5-1.2
			C848.8,212.8,855.5,219.2,855.7,226.9L855.7,226.9z M855.7,208.7H827v-26.3h28.6v26.3H855.7z M744.4,174.9
			c6.3,6.2,12.5,12.5,18.7,18.7c0.3,0.3,0.6,0.6,0.7,1c0.2,0.4,0.2,0.8,0.2,1.2c-0.1,2.5,0,5,0,7.5h34.7c0-2.5,0-4.9,0-7.2
			c0-0.5,0-1,0.2-1.4c0.2-0.5,0.5-0.9,0.8-1.2c6.2-6.2,12.4-12.4,18.6-18.6c0.3-0.3,0.6-0.7,0.8-1.1c0.2-0.4,0.3-0.9,0.2-1.3
			c-0.1-4.2,0-8.3,0-12.5v-4h-76c0,0.5-0.1,1-0.1,1.5c0,4.9,0,9.9,0,14.8c0,0.5,0,0.9,0.2,1.4C743.8,174.2,744.1,174.6,744.4,174.9
			L744.4,174.9z M794.6,199.3h-26.3v-3.4h26.3V199.3z M747.6,160.3h67.6c0,0.5,0.1,1,0.1,1.4c0,3.1,0.1,6.2,0,9.3
			c0,0.7-0.3,1.5-0.8,2c-5.9,6-11.8,11.9-17.8,17.8c-0.5,0.5-1.2,0.8-1.9,0.8c-8.9,0.1-17.8,0.1-26.7,0c-0.6,0-1.1-0.2-1.6-0.5
			c-5.2-5.1-10.4-10.3-15.5-15.5c-0.1-0.1-0.2-0.3-0.2-0.4h30.6v-4.1h-33.7L747.6,160.3L747.6,160.3z M836.1,206.3
			c1.2,0,2.4-0.4,3.4-1.1c1-0.7,1.8-1.6,2.2-2.8c0.4-1.1,0.6-2.3,0.3-3.5c-0.2-1.2-0.8-2.3-1.7-3.1s-1.9-1.4-3.1-1.6
			c-1.2-0.2-2.4-0.1-3.5,0.4s-2,1.3-2.7,2.3s-1,2.2-1,3.4c0,1.6,0.7,3.2,1.8,4.3S834.5,206.3,836.1,206.3L836.1,206.3z M836.1,198.2
			c0.5,0,1,0.2,1.4,0.6c0.4,0.4,0.6,0.9,0.6,1.4s-0.2,1-0.6,1.4c-0.4,0.4-0.9,0.6-1.4,0.6s-1-0.2-1.4-0.6c-0.4-0.4-0.6-0.9-0.6-1.4
			s0.2-1,0.6-1.4C835.1,198.4,835.6,198.2,836.1,198.2L836.1,198.2z M788.5,216.5V206h-14.1v10.6L788.5,216.5z M778.5,210.1h5.9v2.4
			h-5.9V210.1z M798.3,162.8h-23.6v3.9h23.6V162.8z M782.8,152.4h3.9v-4h-3.9V152.4z M793.4,152.4v-4h-3.7v4H793.4z M764.7,151.6
			c-0.1-1.9,0-3.9,2.2-5.1c2.2-1.1,3.9,0.3,5.8,1.3c1.1-3.3,2.6-6.3,5.4-8.2c2.9-2,6.1-2.9,9.6-2.2c7.8,1.7,10.8,7,10.9,14.2
			l7.5,2.4l2.3-2.9c-0.8-0.5-1.4-0.9-2.1-1.3c-0.9-0.4-1.7-0.8-2.7-1.1c-0.8-0.2-1.1-0.6-1.2-1.4c-1.2-7.1-6.6-12.7-13.5-14
			c-3.4-0.7-6.9-0.2-10.1,1.2c-3.2,1.4-5.8,3.8-7.6,6.7c-0.2,0.3-0.4,0.6-0.7,0.7c-0.3,0.2-0.7,0.2-1,0.1c-3.9-0.3-6.9,1.6-8.4,5.3
			c-0.3,0.5-0.7,0.9-1.2,1.1c-1.8,0.8-3.6,1.6-5.6,2.4l2.4,3.1L764.7,151.6z M805.1,162.8h-3.9v3.9h3.9V162.8z M811.9,162.7H808v4
			h3.9V162.7z M775.9,152.4h3.9v-3.9h-3.9V152.4z M814.3,238.2h4v-4h-4V238.2z M795.9,235.9c-1.3,0-2.6,0.6-3.5,1.5
			c-0.9,1-1.4,2.2-1.4,3.6c0,1.3,0.5,2.6,1.4,3.6c0.9,0.9,2.2,1.5,3.5,1.5c0.7,0,1.4-0.1,2-0.4c0.6-0.2,1.2-0.6,1.7-1.1
			s0.9-1,1.1-1.7c0.3-0.6,0.4-1.3,0.4-2s-0.1-1.4-0.4-2c-0.3-0.6-0.6-1.2-1.1-1.7s-1.1-0.8-1.7-1.1
			C797.3,236,796.6,235.8,795.9,235.9L795.9,235.9z M796.1,241.8c-0.3,0-0.7-0.5-1-0.8c0.3-0.3,0.6-0.9,1-1c0.3-0.1,0.7,0.4,1.3,0.9
			C796.8,241.4,796.4,241.8,796.1,241.8L796.1,241.8z M852.7,185h-4v3.9h4V185z M795.6,229.5c-9.7,0.8-19.4,2.1-29.1,3.3
			c-1.6,0.2-3.3,0.4-4.8,1c-3.4,1.5-5,5-4.4,8.7c0.6,3.4,3.4,6,7.4,6.5c10,1.2,20,2.3,30.1,3.4c6.9,0.8,12.7-4.3,12.9-11.3
			C807.6,234.4,802.1,228.9,795.6,229.5L795.6,229.5z M765.2,244.9c-0.8,0-1.6-0.2-2.2-0.6c-0.7-0.4-1.2-1-1.5-1.7s-0.4-1.5-0.3-2.3
			c0.1-0.8,0.5-1.5,1-2c0.5-0.6,1.2-0.9,2-1.1c0.8-0.2,1.6-0.1,2.3,0.2s1.3,0.8,1.8,1.4c0.4,0.6,0.7,1.4,0.7,2.2c0,1-0.4,2-1.1,2.8
			C767.2,244.4,766.2,244.8,765.2,244.9L765.2,244.9z M772.1,245.7c0.4-1.6,1-3.1,1-4.7c0-1.6-0.6-3.1-1-4.7l14.1-1.6
			c-2.4,4.3-2.4,8.4,0.1,12.7L772.1,245.7z M796.1,248.4c-4.1,0.1-7.5-3.4-7.6-7.5c0-4.1,3.5-7.6,7.5-7.5c2,0,3.8,0.8,5.2,2.2
			s2.1,3.3,2.1,5.2c0,2-0.8,3.8-2.1,5.2C799.9,247.6,798,248.4,796.1,248.4L796.1,248.4z M845.8,184.9h-3.9v3.9h3.9V184.9z
			 M846.6,224.9l4.2-3.8l-3.3-3.4c-1.3,1.4-2.6,2.9-4.2,4.7v-6.2h-4.1v5.9l-0.4,0.2l-3.6-4.1l-3.6,2.9c1.5,1.4,2.9,2.7,4.6,4.2h-6.1
			v4.2h5.8l0.1,0.3l-4.3,3.9l3.4,3.2l4.2-4.5v6.1h4.2v-5.9l0.4-0.2l3.8,4.1l3.3-2.9l-4.5-4.2h6.1v-4.2h-5.8
			C846.7,225.1,846.6,225,846.6,224.9L846.6,224.9z M814.3,254h3.9v-12.8h-3.9V254z M745,256.1h3.9v-3.9H745V256.1z M751.9,256.1
			h3.9v-3.9h-3.9V256.1z M818.2,227.4h-3.9v4h3.9V227.4z M839,184.9h-9v3.9h9V184.9z M763.2,242.9h3.9v-4h-3.9V242.9z M758.7,256
			h3.7v-3.9h-3.7V256z"/>
	</g>
	<g>
		<defs>
			<rect id="SVGID_00000114042590121942560500000006068030498452502943_" width="272.4" height="292.5"/>
		</defs>
		<clipPath id="SVGID_00000143602393691995133690000015316739609094379963_">
			<use xlink:href="#SVGID_00000114042590121942560500000006068030498452502943_"  style="overflow:visible;"/>
		</clipPath>
		<path style="clip-path:url(#SVGID_00000143602393691995133690000015316739609094379963_);fill:#6A3834;" d="M985.7,110
			c0,0.5,0.2,0.9,0.5,1.2c0.3,0.3,0.8,0.5,1.2,0.5c1,0.1,1.9-0.4,2-1.5c0.1-1.5,0.1-3,0-4.5c-0.1-1-0.9-1.5-1.9-1.5
			c-0.2,0-0.4,0-0.7,0.1c-0.2,0.1-0.4,0.2-0.6,0.4c-0.2,0.2-0.3,0.3-0.4,0.6c-0.1,0.2-0.1,0.4-0.1,0.7c-0.1,0.6,0,1.3,0,1.9
			C985.7,108.6,985.6,109.3,985.7,110z M986.5,70.7c0.8,0,1.6-0.1,2.3-0.5c0.7-0.3,1.4-0.8,2-1.3c0.6-0.6,1-1.2,1.3-2
			c0.3-0.7,0.5-1.5,0.5-2.3c0-0.8-0.2-1.6-0.5-2.3s-0.8-1.4-1.3-2c-0.6-0.6-1.2-1-2-1.3c-0.7-0.3-1.5-0.5-2.3-0.4
			c-0.8,0-1.6,0.2-2.3,0.5s-1.4,0.8-2,1.3c-0.6,0.6-1,1.2-1.3,2c-0.3,0.7-0.5,1.5-0.5,2.3c0,1.6,0.7,3.1,1.8,4.3
			C983.4,70.1,984.9,70.8,986.5,70.7L986.5,70.7z M986.6,62.5c0.6,0,1.1,0.3,1.5,0.7s0.6,1,0.7,1.5c0,0.6-0.2,1.1-0.7,1.5
			c-0.4,0.4-1,0.6-1.6,0.6c-0.3,0-0.6,0-0.8-0.1c-0.3-0.1-0.5-0.3-0.7-0.5s-0.4-0.4-0.5-0.7c-0.1-0.3-0.2-0.5-0.2-0.8s0-0.6,0.2-0.9
			c0.1-0.3,0.3-0.5,0.5-0.7s0.5-0.4,0.7-0.5C986,62.5,986.3,62.5,986.6,62.5z M977.4,105.8c-0.1,1.5-0.1,3,0,4.5c0.1,1,1,1.5,2,1.5
			c0.5,0,0.9-0.2,1.2-0.5s0.5-0.8,0.5-1.2c0.1-0.6,0-1.3,0-1.9s0.1-1.4,0-2.1c0-0.2-0.1-0.5-0.1-0.7c-0.1-0.2-0.2-0.4-0.4-0.6
			s-0.3-0.3-0.6-0.4c-0.2-0.1-0.4-0.1-0.7-0.1C978.3,104.3,977.5,104.8,977.4,105.8z M1032.3,84.5c3.8,0.1,7.6-3.8,7.4-7.6
			c0-1.1-0.5-2.2-1.2-3s-1.7-1.4-2.8-1.6c-3.9-0.7-8.2,3-8.2,7.1C1027.5,82.3,1029.5,84.4,1032.3,84.5L1032.3,84.5z M1034.7,76.2
			c0.9,0,1.2,0.5,1.1,1.3c-0.2,1.4-1.7,2.9-3.1,3.1c-0.8,0.1-1.3-0.2-1.3-1.1C1031.4,78,1033.2,76.2,1034.7,76.2L1034.7,76.2z
			 M1099.5,103.7c-0.9-2.9-2.7-5.4-5.2-7.3c-2.4-1.8-5.4-2.8-8.4-2.8c-1.7,0-3.4,0-5.3,0v-1.5c0-5.5,0-11,0-16.5
			c0-1.5-0.9-2.4-2.1-2.3c-1.1,0.1-1.7,1-1.7,2.5c0,5.4,0,10.7,0,16.1v1.6h-20.5V63.3h20.5c0,0.9,0,1.9,0,2.8c0,1.3,0.8,2.1,1.9,2.1
			s1.9-0.8,1.9-2.1c0-4.3,0-8.6,0-12.9c0-1.5-0.7-2.2-2.2-2.2c-7.9,0-15.8,0-23.8,0c-1.6,0-2.2,0.7-2.2,2.3c0,2.9,0,5.7,0,8.6
			c0,10,0,20,0,30v1.6h-4.6V54c0-2.5-0.4-3-3-3h-22.2c-2.5,0-3,0.5-3,3v39.5h-12.7V76.1h5.2c2.6,0,3-0.5,3-3c0-10.8,0-21.5,0-32.3
			c0-1.2-0.2-2.2-1.2-2.9h-28.8c-0.2,0.2-0.6,0.4-0.7,0.7c-0.2,0.7-0.5,1.6-0.2,2c0.2,0.3,0.5,0.6,0.9,0.7c0.3,0.2,0.7,0.3,1.1,0.3
			c5.1,0.1,10.1,0,15.2,0h1.5v76.6h-30.3V41.9c1.2,0,2.3,0,3.5,0c1.1,0,2.1-0.1,2.6-1.2c0.5-1.2-0.2-1.9-1-2.6H970
			c-1.1,0.6-1.3,1.6-1.3,2.8c0,35,0,70.1,0,105.1v20.8c0,2.3,0.5,2.8,2.9,2.8h6c2.8,0,3.2-0.4,3.2-3.1c0-14.1,0-28.3,0-42.4v-1.7
			h71.6c0.5,0,0.9,0,1.4,0c0.4,0,0.8-0.2,1.2-0.5c0.3-0.3,0.5-0.7,0.5-1.2c0.1-0.4,0-0.9-0.3-1.2c-0.2-0.4-0.6-0.6-1-0.7
			c-0.5-0.1-1.1-0.2-1.7-0.2c-14.7,0-29.5,0-44.2,0h-1.5v-4.4h77.9c0.5,0,0.9,0,1.4,0c1.5-0.1,2.9-0.7,3.9-1.7
			c1.1-1,1.7-2.4,1.9-3.8c0.1-1.4-0.2-2.8-1-3.9s-1.9-2-3.2-2.4c-0.9-0.2-1.8-0.3-2.8-0.3c-25.5,0-50.9,0-76.4,0h-1.7v-4.5h78.1
			c0.4,0,0.9,0,1.3,0c2.7,0.1,5.3,1.3,7.2,3.2c1.9,1.9,3,4.5,3,7.2c0,1.4-0.2,2.7-0.7,4s-1.3,2.4-2.2,3.4c-1,1-2.1,1.8-3.4,2.3
			s-2.6,0.8-4,0.8c-7.6,0.1-15.1,0-22.6,0c-1.9,0-2.8,0.6-2.8,1.9s0.9,2,2.7,2c2.5,0,5,0,7.5,0c0.4,0,0.7,0,1.2,0.1v1.7
			c0,14.3,0,28.6,0,42.9c0,2,0.6,2.6,2.6,2.6c2.2,0,4.4,0,6.6,0c2.5,0,3-0.5,3-3c0-14.2,0-28.4,0-42.7v-1.6c0.8,0,1.3,0,1.9,0
			c3,0,6-1,8.4-2.8s4.2-4.3,5.1-7.2c0.3-0.8,0.5-1.7,0.7-2.6v-3.6C1099.9,105.4,1099.7,104.5,1099.5,103.7L1099.5,103.7z
			 M1056.3,54.9h20.4v4.3h-20.4V54.9z M976.6,165.8h-4.2v-43.3h4.2V165.8z M1006.7,42h4.3v30.3h-4.3V42z M1008.1,105.8h76.8
			c0.4,0,0.9,0,1.3,0.1c0.5,0.1,0.9,0.3,1.2,0.7c0.3,0.4,0.5,0.8,0.5,1.3c0.1,0.5,0,0.9-0.3,1.3c-0.2,0.4-0.6,0.7-1,0.8
			c-0.6,0.2-1.2,0.3-1.8,0.3c-25.6,0-51.2,0-76.8,0h-1.4v-4.4C1007.2,105.8,1007.6,105.8,1008.1,105.8z M1023.4,55h20.4v4.2h-20.4
			V55z M1043.8,93.5h-20.4V63.3h20.4V93.5z M1080.1,165.7h-4.3v-43.2h4.3V165.7z M1060.5,80.2c0.1,1.2,0.7,2.3,1.6,3.1
			c0.9,0.8,2.1,1.2,3.3,1.2c3.6,0,7.2-3.6,7.2-7.2c0.1-1.2-0.3-2.4-1.1-3.3c-0.8-0.9-1.8-1.5-3-1.6
			C1064.3,71.7,1059.9,76,1060.5,80.2L1060.5,80.2z M1065.1,80.6c-0.2-0.2-0.7-0.6-0.7-1.1c-0.2-1.5,1.8-3.5,3.3-3.3
			c0.2,0.1,0.5,0.2,0.7,0.4c0.2,0.2,0.3,0.4,0.4,0.7C1068.8,78.7,1066.9,80.6,1065.1,80.6L1065.1,80.6z M994,109.9
			c0,0.5,0.2,1,0.6,1.3c0.4,0.3,0.8,0.5,1.3,0.5c1.1-0.1,1.8-0.7,1.9-1.8c0.1-1.3,0.1-2.6,0-4c-0.1-1.1-0.8-1.7-1.9-1.7
			c-0.2,0-0.5,0-0.7,0.1s-0.4,0.2-0.6,0.4c-0.2,0.2-0.3,0.4-0.4,0.6c-0.1,0.2-0.2,0.5-0.2,0.7c0,0.6,0,1.2,0,1.8
			C993.9,108.6,993.9,109.3,994,109.9L994,109.9z"/>
	</g>
	<g>
		<defs>
			<rect id="SVGID_00000118379236814915470960000005360462897491398815_" width="272.4" height="292.5"/>
		</defs>
		<clipPath id="SVGID_00000014612947844308582840000008772410498555714701_">
			<use xlink:href="#SVGID_00000118379236814915470960000005360462897491398815_"  style="overflow:visible;"/>
		</clipPath>
		<path style="clip-path:url(#SVGID_00000014612947844308582840000008772410498555714701_);fill:#6A3834;" d="M1241.1,248.5
			c-1.2,0-2.4,0.4-3.4,1c-1,0.7-1.8,1.6-2.2,2.7c-0.4,1.1-0.6,2.3-0.3,3.5c0.2,1.2,0.8,2.3,1.7,3.1c0.9,0.8,1.9,1.4,3.1,1.7
			c1.2,0.2,2.4,0.1,3.5-0.3c1.1-0.5,2.1-1.2,2.7-2.2c0.7-1,1-2.2,1-3.4c0-0.8-0.1-1.6-0.4-2.3s-0.8-1.4-1.3-2c-0.6-0.6-1.2-1-2-1.3
			C1242.7,248.7,1241.9,248.5,1241.1,248.5L1241.1,248.5z M1241.2,256.8c-0.3,0-0.6,0-0.9-0.1s-0.5-0.3-0.7-0.5
			c-0.2-0.2-0.4-0.5-0.5-0.7c-0.1-0.3-0.2-0.6-0.2-0.9c0-0.6,0.3-1.1,0.7-1.5c0.4-0.4,1-0.6,1.5-0.6c0.6,0,1.1,0.2,1.5,0.6
			c0.4,0.4,0.7,0.9,0.7,1.5c0,0.3,0,0.6-0.1,0.8c-0.1,0.3-0.3,0.5-0.5,0.7s-0.4,0.4-0.7,0.5C1241.7,256.7,1241.5,256.8,1241.2,256.8
			L1241.2,256.8z M1253.9,224.1c8.7-0.2,17.2-8.8,17.1-17.6c0-6.8-5.3-11.5-12.1-10.6c-7.6,1-14.2,7-15.8,14.5
			C1241.5,218.1,1246.3,224.2,1253.9,224.1L1253.9,224.1z M1260.1,199.7c4.3-0.1,7.1,2.7,7.1,7c0,6.6-6.9,13.5-13.4,13.6
			c-4.4,0.1-7.2-2.8-7.1-7.1C1246.8,206.6,1253.6,199.8,1260.1,199.7L1260.1,199.7z M1315.4,260.7c1.2,0,2.4-0.4,3.4-1
			c1-0.7,1.8-1.6,2.2-2.7c0.5-1.1,0.6-2.3,0.3-3.5c-0.2-1.2-0.8-2.3-1.7-3.1c-0.8-0.9-1.9-1.4-3.1-1.7c-1.2-0.2-2.4-0.1-3.5,0.3
			c-1.1,0.5-2.1,1.2-2.7,2.2c-0.7,1-1,2.2-1,3.4c0,0.8,0.1,1.6,0.4,2.3s0.7,1.4,1.3,2c0.6,0.6,1.2,1,2,1.3
			S1314.6,260.7,1315.4,260.7L1315.4,260.7z M1315.4,252.4c0.6,0,1.1,0.2,1.5,0.7c0.4,0.4,0.7,1,0.7,1.5c0,0.3-0.1,0.6-0.2,0.8
			c-0.1,0.3-0.3,0.5-0.5,0.7s-0.4,0.4-0.7,0.5c-0.3,0.1-0.5,0.2-0.8,0.2s-0.6,0-0.8-0.1c-0.3-0.1-0.5-0.2-0.7-0.4
			c-0.2-0.2-0.4-0.4-0.5-0.7s-0.2-0.5-0.2-0.8s0-0.6,0.1-0.9c0.1-0.3,0.3-0.5,0.5-0.8c0.2-0.2,0.5-0.4,0.7-0.5
			C1314.8,252.5,1315.1,252.4,1315.4,252.4L1315.4,252.4z M1256.9,233.7c4.7,0,9.3-1.4,13.2-4s7-6.3,8.8-10.6s2.3-9.1,1.4-13.7
			c-0.9-4.6-3.2-8.8-6.5-12.2c-3.3-3.3-7.5-5.6-12.1-6.5s-9.4-0.5-13.7,1.3c-4.3,1.8-8.1,4.8-10.7,8.7s-4,8.5-4,13.2
			c0,6.3,2.5,12.3,6.9,16.7C1244.6,231.1,1250.6,233.6,1256.9,233.7L1256.9,233.7z M1257,190.1c3.9,0,7.8,1.2,11,3.4
			c3.3,2.2,5.8,5.3,7.3,8.9s1.9,7.6,1.1,11.5s-2.7,7.4-5.5,10.2s-6.3,4.6-10.2,5.4c-3.9,0.8-7.8,0.3-11.5-1.2
			c-3.6-1.5-6.7-4.1-8.9-7.4c-2.2-3.3-3.3-7.1-3.3-11.1c0-2.6,0.5-5.2,1.5-7.6c1-2.4,2.5-4.6,4.3-6.4c1.8-1.8,4.1-3.3,6.5-4.3
			C1251.8,190.6,1254.4,190.1,1257,190.1L1257,190.1z M1306.5,224.7c-1,0.1-1.7,0.8-1.6,1.9c0,1.1,0.8,1.8,1.9,1.8
			c0.9,0,1.7,0,2.6,0c0.8,0,1.8,0,2.7,0c0.2,0,0.5,0,0.7-0.1s0.4-0.2,0.6-0.4s0.3-0.4,0.4-0.6c0.1-0.2,0.1-0.5,0.1-0.7
			c0.1-1.1-0.5-1.9-1.6-2C1310.4,224.6,1308.5,224.6,1306.5,224.7z M1252.5,215.4c0.8,0.7,1.8,0.6,2.5-0.2c0.5-0.6,0.8-1.5,1.3-2.2
			c0.4-0.5,0.8-1.1,1.3-1.3c1.4-0.5,2.5-1.3,3.2-2.7c0.4-0.8,0.8-1.6,1.1-2.4c0.6-1.3-0.4-2.7-2-2.7c-1.3,0.2-1.9,1.3-2.3,2.6
			c-0.1,0.4-0.3,0.7-0.6,1c-0.3,0.3-0.6,0.5-1,0.6c-0.7,0.2-1.3,0.6-1.9,1c-0.5,0.5-1,1.1-1.2,1.8c-0.3,0.6-0.5,1.2-0.8,1.8
			C1251.5,213.9,1251.6,214.7,1252.5,215.4L1252.5,215.4z M1342.5,228.1c1.2,0.4,2-0.3,2.5-1.2v-26.7c-0.1-0.1-0.2-0.1-0.2-0.2
			c-2.1-8.6-7.3-12.7-16.1-12.7h-28.4c0-4.4,0-8.6,0-12.8c0-2.2-0.6-2.8-2.8-2.8c-17.5,0-35.1,0-52.6,0c-0.4,0-0.9,0-1.3,0.1
			c-1,0.3-1.6,0.9-1.5,1.9c0,1.1,0.7,1.6,1.7,1.8c0.4,0,0.9,0.1,1.3,0h51.2v68.8c-0.1,0-0.2,0.1-0.3,0.1c-12.8,0-25.6,0-38.4,0
			c-0.3,0-0.5-0.1-0.7-0.2c-0.2-0.1-0.4-0.3-0.6-0.5c-7.9-10.4-22.6-10.4-30.5,0c-0.2,0.3-0.5,0.7-0.8,0.7c-2.6,0.1-5.1,0-7.6,0
			v-68.9h1.5c5.3,0,10.5,0,15.8,0c0.4,0,0.8-0.1,1.1-0.3c0.4-0.2,0.7-0.4,0.9-0.7c1-1.3-0.2-2.9-2.1-2.9c-6.2,0-12.5,0-18.8,0
			c-1.8,0-2.4,0.7-2.4,2.5c0,26.6,0,53.2,0,79.8c0,1.9,0.6,2.5,2.6,2.5c2.1,0,4.2,0,6.2,0c1.7,11.2,10.6,16.8,18.4,16.9
			c4.2,0.1,8.2-1.2,11.5-3.7c4.4-3.3,6.9-7.7,7.7-13.2h22.4c0.4,0,0.8,0,1.2,0c1.1-0.1,1.9-0.8,1.9-1.8c0-0.5-0.2-1-0.5-1.3
			c-0.3-0.4-0.8-0.6-1.3-0.6c-0.4,0-0.8,0-1.2,0h-22.5c-0.3-1.6-0.6-3-1-4.3h38.6c-0.3,1.5-0.7,2.9-1,4.3c-1.3,0-2.5,0-3.8,0
			c-1.4,0-2.2,0.7-2.2,1.9s0.8,1.9,2.2,1.9c1.3,0,2.5,0,3.8,0c1.7,11.2,10.7,16.8,18.4,16.9c4.2,0.1,8.2-1.2,11.5-3.7
			c4.4-3.3,6.9-7.7,7.6-13.2c2.9,0,5.6,0,8.4,0c1.2,0,2-0.3,2.5-1.4v-20.6c-0.7-0.8-1.4-1.6-2.6-1.1s-1.3,1.5-1.3,2.5
			c0,2.7,0,5.4,0,8.2c-0.2,0.1-0.5,0.1-0.7,0.1c-2.8,0-5.7,0-8.5,0c-0.2,0-0.5-0.1-0.7-0.2c-0.2-0.1-0.4-0.2-0.6-0.4
			c-7.2-10.1-22-10.6-29.9-1.1c-0.1,0.1-0.3,0.2-0.4,0.3V191h1.4c9.2,0,18.3,0,27.5,0c7.3,0,11.8,4.6,11.8,11.9c0,7.6,0,15.2,0,22.7
			C1341.2,226.8,1341.5,227.8,1342.5,228.1L1342.5,228.1z M1222.3,252.6h-4.9v-4.2h5.9C1222.9,249.7,1222.6,251.1,1222.3,252.6
			L1222.3,252.6z M1241,269.6c-3.9-0.1-7.6-1.8-10.3-4.6c-2.7-2.8-4.2-6.5-4.2-10.4s1.6-7.6,4.3-10.4c2.7-2.8,6.4-4.4,10.3-4.5
			c8.2,0,15,6.8,14.9,15c0,4-1.7,7.7-4.5,10.5C1248.8,268,1245,269.6,1241,269.6L1241,269.6z M1341.2,248.3v4.3h-7l-1-4.3H1341.2z
			 M1315.3,239.7c2.9,0,5.8,0.9,8.3,2.5s4.4,4,5.5,6.7s1.4,5.7,0.9,8.6c-0.6,2.9-2,5.6-4.1,7.7s-4.7,3.5-7.6,4.1s-5.9,0.3-8.6-0.8
			c-2.7-1.1-5.1-3-6.7-5.5c-1.7-2.5-2.5-5.3-2.6-8.3c0-4,1.6-7.8,4.4-10.6C1307.6,241.3,1311.4,239.7,1315.3,239.7L1315.3,239.7z
			 M1334.2,220.2c2,0,2.6-0.7,2.6-2.6c0-4.8,0-9.6,0-14.4c0-4.7-3-7.6-7.7-7.6c-7.2,0-14.4,0-21.6,0c-2.1,0-2.6,0.6-2.6,2.7
			c0,6.4,0,12.9,0,19.3c0,2.1,0.6,2.7,2.7,2.7c4.4,0,8.8,0,13.2,0C1325.3,220.2,1329.7,220.2,1334.2,220.2L1334.2,220.2z
			 M1308.8,199.4h1.3c6.3,0,12.6,0,18.9,0c2.8,0,4,1.2,4,4c0,3.9,0,7.8,0,11.7c0,0.4,0,0.7-0.1,1.2h-24.1L1308.8,199.4L1308.8,199.4
			z"/>
	</g>
	<g>
		<defs>
			<rect id="SVGID_00000050650922299528195170000005816390346059136389_" width="272.4" height="292.5"/>
		</defs>
		<clipPath id="SVGID_00000171706770303414733720000016330964547177286315_">
			<use xlink:href="#SVGID_00000050650922299528195170000005816390346059136389_"  style="overflow:visible;"/>
		</clipPath>
		<path style="clip-path:url(#SVGID_00000171706770303414733720000016330964547177286315_);fill:#6A3834;" d="M1531.9,119.5
			c5.2-6.5,1.1-14.6-5.3-16.3c-2.2-0.6-4.3-1.2-6.4-1.8c-1.1-0.3-2.1-0.8-2.9-1.6c-0.8-0.8-1.4-1.7-1.8-2.8
			c-0.8-2.1-1.7-4.1-2.5-6.2c-3.1-7.5-11.9-8.9-17.2-2.8c-5.9,6.8-6.9,17.1-2.4,25.1c4,7.2,10,11.8,18,13.8c1.4,0.3,2.9,0.4,4.1,0.5
			C1522.3,127.1,1527.8,124.7,1531.9,119.5z M1520.7,123c-5.2,1.5-10.1,0.6-14.6-2.1c-7-4.1-11.2-10.1-11.8-17.2
			c0.1-5.8,1.4-9.9,4.5-13.4c3.3-3.8,8.8-2.9,10.7,1.7c0.8,2,1.7,3.9,2.4,6c1.4,4,4.2,6.2,8.2,7.2c2.1,0.5,4.2,1.1,6.3,1.8
			c4.3,1.6,5.7,6.6,2.8,10.2C1526.9,120.1,1524,122.1,1520.7,123L1520.7,123z M1571.2,46.2h-54.6c0-2,0-3.9,0-5.8
			c0-1.7-0.8-2.4-2.4-2.4c-8,0-15.9,0-23.9,0c-1.7,0-2.4,0.7-2.5,2.4c0,1.9,0,3.8,0,5.8c-3.2,0-6.3,0-9.4,0c-2.3,0-2.9,0.6-2.9,3
			v109.3c0,2.4,0.6,3,3,3h92.8c2.4,0,3-0.6,3-2.9V49.2C1574.2,46.8,1573.6,46.2,1571.2,46.2z M1565.3,50.4c-1.9,1.3-3.5,2.4-5.2,3.4
			c-0.1,0-0.2,0.1-0.3,0c-0.1,0-0.2,0-0.3-0.1c-1.6-1.1-3.2-2.1-5.1-3.4L1565.3,50.4L1565.3,50.4z M1508.5,42.2h4v4h-4V42.2z
			 M1500.2,42.2h4v4h-4V42.2z M1492,42.2h4v4h-4V42.2z M1479.6,50.5h65.7v15c-5.7,2.6-12,3.8-18.2,3.3c-4.9-0.4-9.6-1.8-14-3.9
			c-10.7-5.1-21.6-5.6-32.7-1.5c-0.2,0.1-0.5,0.1-0.8,0.2V50.5z M1545.4,157.3h-65.8v-1.4c0-28.8,0-57.6,0-86.4
			c0-1.1,0.3-1.5,1.3-1.9c10.2-4.1,20.2-3.9,30.1,0.8c6.4,3,13,4.8,20.1,4.6c4.3-0.1,8.6-0.9,12.7-2.4c0.5-0.2,1-0.3,1.6-0.5
			L1545.4,157.3z M1549.6,52.2c1.4,0.9,2.7,1.7,3.9,2.6c1.4,1,3.3,1.7,4.1,3c0.7,1.3,0.2,3.3,0.2,4.9c0,28.6,0,57.2,0,85.8
			c0,1.2-0.4,1.9-1.4,2.6c-2.2,1.4-4.4,2.9-6.8,4.5L1549.6,52.2L1549.6,52.2z M1554.5,157.2c1.8-1.2,3.4-2.3,5-3.3
			c0.1-0.1,0.3-0.1,0.4-0.1c0.2,0,0.3,0,0.5,0.1c1.6,1,3.1,2.1,4.9,3.3H1554.5z M1570.1,155.5c-2.7-1.8-5.2-3.5-7.8-5.2
			c-0.2-0.2-0.3-0.5-0.4-0.7c0-0.3,0-0.7,0-1c0-29.8,0-59.6,0-89.3c0-1.2,0.4-1.8,1.4-2.4c2.3-1.4,4.5-3,6.8-4.5V155.5z
			 M1536.8,138.8c-2.6,0-5.2,0-7.8,0s-5.2,0-7.8,0c-1.7,0-2.4,0.8-2.4,2.4c0,2.5,0,5,0,7.5c0,1.7,0.8,2.4,2.4,2.4
			c5.2,0,10.4,0,15.7,0c1.7,0,2.4-0.8,2.4-2.4c0-2.5,0-5,0-7.5C1539.2,139.6,1538.5,138.8,1536.8,138.8L1536.8,138.8z M1535,147
			h-12.2v-4h12.2V147z M1501.8,147.1c-4.5,0-9,0-13.5,0c-1.5,0-2.5,0.7-2.5,2c0,1.2,0.9,2.1,2.5,2.1c2.2,0,4.5,0,6.7,0s4.5,0,6.8,0
			c1.5,0,2.5-0.8,2.5-2C1504.3,147.9,1503.3,147.1,1501.8,147.1L1501.8,147.1z M1501.8,138.8c-4.5,0-9.1,0-13.6,0
			c-1.5,0-2.4,0.8-2.4,2.1c0,1.2,0.9,2,2.5,2c2.2,0,4.5,0,6.7,0s4.5,0,6.8,0c1.6,0,2.5-0.8,2.5-2.1
			C1504.2,139.5,1503.3,138.8,1501.8,138.8L1501.8,138.8z M1502.7,94.2c-0.9-0.7-2-0.4-2.8,0.8c-1.8,2.7-2.6,5.6-2.7,9.5
			c0.1,0.7,0.2,2.1,0.5,3.4c0.2,1.4,1.1,1.9,2.2,1.7c1-0.2,1.5-1.1,1.4-2.4c-0.1-2-0.3-4,0-6c0.2-1.5,1-2.9,1.7-4.2
			C1503.6,95.8,1503.6,94.8,1502.7,94.2L1502.7,94.2z"/>
	</g>
	<g>
		<defs>
			<rect id="SVGID_00000127031436623847106830000011809327703140899742_" width="272.4" height="292.5"/>
		</defs>
		<clipPath id="SVGID_00000034051855639539543530000000610563842921107623_">
			<use xlink:href="#SVGID_00000127031436623847106830000011809327703140899742_"  style="overflow:visible;"/>
		</clipPath>
		
			<circle style="clip-path:url(#SVGID_00000034051855639539543530000000610563842921107623_);fill:#6A3834;" cx="-435" cy="248.5" r="27.5"/>
	</g>
	<g>
		<defs>
			<rect id="SVGID_00000052078681529704233830000000053022270043885747_" width="272.4" height="292.5"/>
		</defs>
		<clipPath id="SVGID_00000077303444852757316580000016619680910171896482_">
			<use xlink:href="#SVGID_00000052078681529704233830000000053022270043885747_"  style="overflow:visible;"/>
		</clipPath>
		<path style="clip-path:url(#SVGID_00000077303444852757316580000016619680910171896482_);fill:#D0F4A5;" d="M-431.1,231.9
			c-0.3-0.2-0.9-0.4-1.2-0.4c-1.2,0-2.1,1-2.1,1l-6.7,13.1c-0.2,0.5-0.4,1-0.4,1.4c0,1.2,1.2,1.3,2,1.3c0.1,0,0.2,0,0.3,0
			c0.6-0.4,4.9-8.8,5.1-9.3c0,0.2-1,19.5-1,24.3c0,0.2,0,0.4,0,0.6c0.1,0.8,0.3,1.2,1.2,1.2c1.2,0,2.6-1.1,2.6-1.1s0.5-19.4,0.5-28
			C-430.8,233.5-430.8,232.1-431.1,231.9z"/>
	</g>
	<g>
		<defs>
			<rect id="SVGID_00000070082374611559202830000010987462905690246546_" width="272.4" height="292.5"/>
		</defs>
		<clipPath id="SVGID_00000072982646560095122070000017959464041522213513_">
			<use xlink:href="#SVGID_00000070082374611559202830000010987462905690246546_"  style="overflow:visible;"/>
		</clipPath>
		
			<circle style="clip-path:url(#SVGID_00000072982646560095122070000017959464041522213513_);fill:#6A3834;" cx="-190" cy="65.5" r="27.5"/>
	</g>
	<g>
		<defs>
			<rect id="SVGID_00000107560342972872471390000016788750748394254745_" width="272.4" height="292.5"/>
		</defs>
		<clipPath id="SVGID_00000118372387387586111420000015703480903684624813_">
			<use xlink:href="#SVGID_00000107560342972872471390000016788750748394254745_"  style="overflow:visible;"/>
		</clipPath>
		<path style="clip-path:url(#SVGID_00000118372387387586111420000015703480903684624813_);fill:#D0F4A5;" d="M-195.5,57.9
			c0.3,0.4,0.8,0.6,1.2,0.6c2,0,1.9-2.2,1.9-2.2c0.2-4,1.6-4.5,2.3-4.5c1.6,0,2.1,1.7,2.1,3.4c0,3.5-1.8,8.6-5.1,15
			c-1.1,2-4.3,7.3-4.3,9.3c0.1,1.3,1.2,2.2,2.3,2.2c0.3,0,1.9,0,3.2,0c2.2,0,4.8-0.1,6.1-0.1c0.8,0,1.7-0.5,1.7-1.8
			c0-1.2-0.7-1.5-1.8-1.5h-0.4c-0.6,0-1.9,0-6.7,0l4.3-8.9c1-1.8,4.4-8.5,4.4-14.2c0-5.3-3.4-6.5-5.4-6.5c-5.3,0-6.1,4.3-6.1,7
			C-195.8,56.6-195.6,57.7-195.5,57.9z"/>
	</g>
	<g>
		<defs>
			<rect id="SVGID_00000141439439318511237300000000367073546318275756_" width="272.4" height="292.5"/>
		</defs>
		<clipPath id="SVGID_00000018222604947435043320000010161700124897461891_">
			<use xlink:href="#SVGID_00000141439439318511237300000000367073546318275756_"  style="overflow:visible;"/>
		</clipPath>
		
			<circle style="clip-path:url(#SVGID_00000018222604947435043320000010161700124897461891_);fill:#6A3834;" cx="300" cy="65.5" r="27.5"/>
	</g>
	<g>
		<defs>
			<rect id="SVGID_00000055685535410211380220000001431463396858066073_" width="272.4" height="292.5"/>
		</defs>
		<clipPath id="SVGID_00000164505229311403902150000015619515126698876351_">
			<use xlink:href="#SVGID_00000055685535410211380220000001431463396858066073_"  style="overflow:visible;"/>
		</clipPath>
		<path style="clip-path:url(#SVGID_00000164505229311403902150000015619515126698876351_);fill:#D0F4A5;" d="M300.6,52.9l0.8-2.4
			c-0.2-1.1-0.9-1.6-2-1.6c-0.2,0-0.3,0-0.9,0.1c-0.5,1.3-3.2,8.5-6.6,18.6l-0.2,1.1c0,2,0.7,2,2.8,2h2.4c1.3,0,2.8,0,3.9,0
			c-0.1,3.7-0.2,6.9-0.2,10.5c0.2,1.1,0.7,1.1,1.2,1.1c2.1,0,2.2-1.3,2.3-2.8c0-2.9,0.2-6,0.2-8.9h1.2c1.1,0,1.7-0.1,2.2-0.7
			c0.3-0.4,0.5-0.8,0.5-1.2c0-1-0.8-1.2-1.5-1.2h-2.2V57.3c-0.5-0.2-0.8-0.3-1-0.3c-1.1,0-1.9,0.5-2.2,1.9c-0.4,2.1-0.4,3.9-0.5,5.7
			c0,0.9,0,1.8,0,2.7h-5.5C296.7,64.4,298.9,57.9,300.6,52.9z"/>
	</g>
	<g>
		<defs>
			<rect id="SVGID_00000011735867311194660990000013510257994693134987_" width="272.4" height="292.5"/>
		</defs>
		<clipPath id="SVGID_00000158719944236090900410000016714388094844708029_">
			<use xlink:href="#SVGID_00000011735867311194660990000013510257994693134987_"  style="overflow:visible;"/>
		</clipPath>
		
			<circle style="clip-path:url(#SVGID_00000158719944236090900410000016714388094844708029_);fill:#6A3834;" cx="790" cy="65.5" r="27.5"/>
	</g>
	<g>
		<defs>
			<rect id="SVGID_00000158708895703405223110000011191846588531788452_" width="272.4" height="292.5"/>
		</defs>
		<clipPath id="SVGID_00000019666059898605220800000004881135505244651682_">
			<use xlink:href="#SVGID_00000158708895703405223110000011191846588531788452_"  style="overflow:visible;"/>
		</clipPath>
		<path style="clip-path:url(#SVGID_00000019666059898605220800000004881135505244651682_);fill:#D0F4A5;" d="M796.3,54.5
			c0-2.2-0.8-6-5.5-6c-6.2,0-6.9,6.1-6.9,13.4v8c0,5.9,0.6,11.8,5.6,11.8c7.1,0,7.4-6,7.4-11.3c0-6.8-2.4-9.2-6.3-9.2
			c-0.9,0-1.9,0.1-3,0.6V61c0-2,0.3-9.6,3.2-10c0,0,1.9,0.3,1.9,3.6v0.8c0,0,1.3,1.2,2.3,1.2C796.2,56.5,796.3,55.2,796.3,54.5z
			 M790.4,64c2.6,0.2,2.6,3.4,2.6,7.8c0,2-0.3,7.3-2.9,7.3c-1.7,0-2.7-4.2-2.7-11.2c0-0.8,0-1.7,0-2.7C788.4,64.6,789.3,64,790.4,64
			z"/>
	</g>
	<g>
		<defs>
			<rect id="SVGID_00000052074061715940052070000013334118944788577931_" width="272.4" height="292.5"/>
		</defs>
		<clipPath id="SVGID_00000114059166911724455970000016319462800266900646_">
			<use xlink:href="#SVGID_00000052074061715940052070000013334118944788577931_"  style="overflow:visible;"/>
		</clipPath>
		
			<circle style="clip-path:url(#SVGID_00000114059166911724455970000016319462800266900646_);fill:#6A3834;" cx="1280" cy="65.5" r="27.5"/>
	</g>
	<g>
		<defs>
			<rect id="SVGID_00000150820696265172995840000018137957890303064982_" width="272.4" height="292.5"/>
		</defs>
		<clipPath id="SVGID_00000046298510557631511700000000781180144634388904_">
			<use xlink:href="#SVGID_00000150820696265172995840000018137957890303064982_"  style="overflow:visible;"/>
		</clipPath>
		<path style="clip-path:url(#SVGID_00000046298510557631511700000000781180144634388904_);fill:#D0F4A5;" d="M1281,48.6
			c-4.1,0-6.7,2.6-6.7,8c0,3.6,0.8,5.8,2.3,7c-2,1.6-2.8,4.4-2.8,7.4c0,5.6,0.6,10.9,5.9,10.9c7.2,0,7.2-6.1,7.2-11.8
			c0-2.6-0.9-5-2.5-6.5c1.7-1.1,2.4-3.4,2.4-7.2C1286.9,51.9,1285.2,48.6,1281,48.6z M1283.2,56v1.5c-0.1,1.3-0.6,4.6-2.6,4.6
			c-1.4,0-2.4-1.5-2.4-5.9c0-3.8,1.2-5,2.8-5C1282.9,51.2,1283.2,53.9,1283.2,56z M1280.1,79.2c-2.2,0-2.4-4.8-2.4-8.8
			c0-4.2,1.3-5.5,2.8-5.5c2.3,0,2.7,3.6,2.7,6C1283.3,76.6,1282.2,79.2,1280.1,79.2z"/>
	</g>
	<g>
		<defs>
			<rect id="SVGID_00000068664514615736312710000008369242341496028822_" width="272.4" height="292.5"/>
		</defs>
		<clipPath id="SVGID_00000118364121840074675710000014063590010340662688_">
			<use xlink:href="#SVGID_00000068664514615736312710000008369242341496028822_"  style="overflow:visible;"/>
		</clipPath>
		
			<circle style="clip-path:url(#SVGID_00000118364121840074675710000014063590010340662688_);fill:#6A3834;" cx="55" cy="248.5" r="27.5"/>
	</g>
	<g>
		<defs>
			<rect id="SVGID_00000158722330906891974080000002134050212384585878_" width="272.4" height="292.5"/>
		</defs>
		<clipPath id="SVGID_00000105406726693671343340000007052317328156213425_">
			<use xlink:href="#SVGID_00000158722330906891974080000002134050212384585878_"  style="overflow:visible;"/>
		</clipPath>
		<path style="clip-path:url(#SVGID_00000105406726693671343340000007052317328156213425_);fill:#D0F4A5;" d="M49.8,238.5
			c0.2,0.3,0.5,0.4,0.9,0.4c0.6,0,2.3-0.6,2.3-1.5c0-1.2,0.4-3.5,2-3.5c1.3,0,1.8,2.1,1.8,3.9c0,5.3-1.4,6.2-2.2,6.7
			c-0.2,0-0.5,0-0.8,0c-1,0-1.9,0-1.9,1.6c0,0.9,0.3,1.4,1.3,1.4c3.3,0,4,3.1,4,6.1v0.9c0,3.2-0.5,7.8-2.8,7.8
			c-1.8,0-1.8-1.7-1.8-3.2c0-1.2,0-2.4-0.7-2.9c-0.3-0.3-0.7-0.4-1.1-0.4c-1.2,0-2.1,1.1-2.1,1.1c0,6.2,1.5,8.1,5.9,8.1
			c5.4,0,6.5-4.8,6.5-12.5c0-4.4-1.9-6-3.2-6.6c1.8-1.2,2.6-4.3,2.6-7.2c0-3.4-0.7-7.6-5.1-7.6c-4.7,0-5.7,3.5-5.7,5.5
			C49.6,237.6,49.8,238.3,49.8,238.5z"/>
	</g>
	<g>
		<defs>
			<rect id="SVGID_00000137119689654019089200000014423097686954815112_" width="272.4" height="292.5"/>
		</defs>
		<clipPath id="SVGID_00000106846361867560819950000017093876485572059550_">
			<use xlink:href="#SVGID_00000137119689654019089200000014423097686954815112_"  style="overflow:visible;"/>
		</clipPath>
		
			<circle style="clip-path:url(#SVGID_00000106846361867560819950000017093876485572059550_);fill:#6A3834;" cx="545" cy="248.5" r="27.5"/>
	</g>
	<g>
		<defs>
			<rect id="SVGID_00000012460209788791622360000002977298900599840696_" width="272.4" height="292.5"/>
		</defs>
		<clipPath id="SVGID_00000021118359517277601310000014155973281919562409_">
			<use xlink:href="#SVGID_00000012460209788791622360000002977298900599840696_"  style="overflow:visible;"/>
		</clipPath>
		<path style="clip-path:url(#SVGID_00000021118359517277601310000014155973281919562409_);fill:#D0F4A5;" d="M541.9,245.3h0.9
			c4.6,0,4.9,1.7,4.9,7.1v2.9c0,3.6-0.2,6.9-2.8,6.9c-2.1,0-2.6-1.9-2.6-3.6c0-2.6,0-3-1.6-3c-1.5,0-1.8,1.5-1.8,1.5
			c0.1,4.3,0.7,7.9,5.8,7.9c6.4,0,6.6-4.8,6.6-13.9c0-6.6-2.9-7.7-3.8-8.2c-1.1-0.5-2.4-0.8-3.3-0.8h-0.8v-6.9
			c0,0.1,1.7,0.1,3.7,0.1h1.8c0.6,0,1.5-0.8,1.5-1.7c0-1.8-2.7-1.7-3.8-1.7c-3,0-5.4,0.1-6,0.4c-0.6,0.3-0.6,1.5-0.6,1.5l0.1,9.7
			C540.4,245.2,541.2,245.3,541.9,245.3z"/>
	</g>
	<g>
		<defs>
			<rect id="SVGID_00000033351943049286026630000005189201148476253096_" width="272.4" height="292.5"/>
		</defs>
		<clipPath id="SVGID_00000030454060287039471260000003122112616811932585_">
			<use xlink:href="#SVGID_00000033351943049286026630000005189201148476253096_"  style="overflow:visible;"/>
		</clipPath>
		
			<circle style="clip-path:url(#SVGID_00000030454060287039471260000003122112616811932585_);fill:#6A3834;" cx="1035" cy="248.5" r="27.5"/>
	</g>
	<g>
		<defs>
			<rect id="SVGID_00000114055810898998999700000008889724683363625658_" width="272.4" height="292.5"/>
		</defs>
		<clipPath id="SVGID_00000047780342046780224230000005278190311788682421_">
			<use xlink:href="#SVGID_00000114055810898998999700000008889724683363625658_"  style="overflow:visible;"/>
		</clipPath>
		<path style="clip-path:url(#SVGID_00000047780342046780224230000005278190311788682421_);fill:#D0F4A5;" d="M1030.7,232.2
			l-0.3,0.2c0,0-0.7,0.9-0.7,1.8c0,0.6,0.4,1.2,1.3,1.3c0.4,0.1,1.2,0.1,2.2,0.1c2.5,0,4.1,0,4.8,0l-7.2,27.5
			c-0.1,0.3-0.1,0.6-0.1,0.7c0,0.8,0.5,1.1,1.6,1.1c0.9,0,1.8-0.1,2.3-1.3l7.2-29.3c0,0-0.4-2.1-2.1-2.1c-0.7,0-1.3,0-2,0
			L1030.7,232.2L1030.7,232.2z"/>
	</g>
	<g>
		<defs>
			<rect id="SVGID_00000034800569707348115230000010611542177207374523_" width="272.4" height="292.5"/>
		</defs>
		<clipPath id="SVGID_00000006702902321904686010000005670533892099299722_">
			<use xlink:href="#SVGID_00000034800569707348115230000010611542177207374523_"  style="overflow:visible;"/>
		</clipPath>
		
			<circle style="clip-path:url(#SVGID_00000006702902321904686010000005670533892099299722_);fill:#6A3834;" cx="1525" cy="248.5" r="27.5"/>
	</g>
	<g>
		<defs>
			<rect id="SVGID_00000025410786844848792150000011424071203240600233_" width="272.4" height="292.5"/>
		</defs>
		<clipPath id="SVGID_00000072968881431646520000000006543774242702523814_">
			<use xlink:href="#SVGID_00000025410786844848792150000011424071203240600233_"  style="overflow:visible;"/>
		</clipPath>
		<path style="clip-path:url(#SVGID_00000072968881431646520000000006543774242702523814_);fill:#D0F4A5;" d="M1519.4,258.8
			c0,2.2,0.7,5.9,5.6,5.9c6.1,0,6.8-6.1,6.8-13.4v-8c0-5.9-0.6-11.8-5.6-11.8c-7.1,0-7.4,6-7.4,11.3c0,6.7,2.4,9.2,6.3,9.2
			c0.9,0,1.9-0.1,2.9-0.6v0.8c0,2,0,10-3,10c-0.3,0-2.1,0-2.1-3.6v-0.8c0,0-1.3-1.2-2.2-1.2C1519.5,256.7,1519.4,258.1,1519.4,258.8
			z M1525.3,249.3c-2.6,0-2.7-3.4-2.7-7.8c0-2,0.3-7.3,2.9-7.3c1.7,0,2.6,4.2,2.6,11.2c0,0.9,0,1.7,0,2.7
			C1527.4,248.8,1526.4,249.3,1525.3,249.3z"/>
	</g>
</g>
</svg>
