<?xml version="1.0" encoding="utf-8"?>
<!-- Generator: Adobe Illustrator 26.0.3, SVG Export Plug-In . SVG Version: 6.00 Build 0)  -->
<svg version="1.1" id="Layer_1" xmlns="http://www.w3.org/2000/svg" xmlns:xlink="http://www.w3.org/1999/xlink" x="0px" y="0px"
	 viewBox="0 0 272.4 292.5" style="enable-background:new 0 0 272.4 292.5;" xml:space="preserve">
<style type="text/css">
	.st0{clip-path:url(#SVGID_00000088109681234786630890000006956962519904176041_);fill:none;stroke:#6A3834;stroke-width:2.5;}
	.st1{clip-path:url(#SVGID_00000094602468886166113310000004454719717420488095_);fill:none;stroke:#6A3834;stroke-width:2.5;}
	.st2{clip-path:url(#SVGID_00000164507694123597151250000016186092162836110985_);fill:none;stroke:#6A3834;stroke-width:2.5;}
	.st3{clip-path:url(#SVGID_00000142861276166202955380000015271682057804622513_);fill:none;stroke:#6A3834;stroke-width:2.5;}
	.st4{clip-path:url(#SVGID_00000062181129081008050190000004230388019065659299_);fill:none;stroke:#6A3834;stroke-width:2.5;}
	.st5{clip-path:url(#SVGID_00000132808347691673138560000008163613365093469585_);fill:none;stroke:#6A3834;stroke-width:2.5;}
	.st6{clip-path:url(#SVGID_00000014617982063909815150000016064351464808852632_);fill:none;stroke:#6A3834;stroke-width:2.5;}
	.st7{clip-path:url(#SVGID_00000134244297762855974750000015691471693785015231_);fill:none;stroke:#6A3834;stroke-width:2.5;}
	.st8{clip-path:url(#SVGID_00000010996490570587836200000016039253684046921904_);fill:#6A3834;}
	.st9{clip-path:url(#SVGID_00000005968804087151693630000017113596081055985301_);fill:#6A3834;}
	.st10{clip-path:url(#SVGID_00000038391728835354631440000011158956067208688260_);fill:#6A3834;}
	.st11{clip-path:url(#SVGID_00000100367633230382226170000016518656228260043410_);fill:#6A3834;}
	.st12{clip-path:url(#SVGID_00000090264527289426803190000013478816067223644851_);fill:#6A3834;}
	.st13{clip-path:url(#SVGID_00000115473830168909400740000006478159667471122348_);fill:#6A3834;}
	.st14{clip-path:url(#SVGID_00000081635507914091540940000000036022073211834257_);fill:#6A3834;}
	.st15{clip-path:url(#SVGID_00000013195522449162469370000001440103725078176656_);fill:#6A3834;}
	.st16{clip-path:url(#SVGID_00000054239762633378903960000000979969268354312617_);fill:#6A3834;}
	.st17{clip-path:url(#SVGID_00000120534756202293673070000012831768831672167595_);fill:#6A3834;}
	.st18{clip-path:url(#SVGID_00000056389366680966507560000001456315361395244460_);fill:#D0F4A5;}
	.st19{clip-path:url(#SVGID_00000025415106530281035520000010810562245520263592_);fill:#6A3834;}
	.st20{clip-path:url(#SVGID_00000078035422559379010850000013610600733936542641_);fill:#D0F4A5;}
	.st21{clip-path:url(#SVGID_00000085237716363115759000000000274378192132798622_);fill:#6A3834;}
	.st22{clip-path:url(#SVGID_00000170267185068101495240000000607837752729333893_);fill:#D0F4A5;}
	.st23{clip-path:url(#SVGID_00000034080630947911053750000012320239053434198423_);fill:#6A3834;}
	.st24{clip-path:url(#SVGID_00000151536624383748719370000012825726539465146272_);fill:#D0F4A5;}
	.st25{clip-path:url(#SVGID_00000083055330447766558490000003945343278262897803_);fill:#6A3834;}
	.st26{clip-path:url(#SVGID_00000128466328144736295800000007394201871160501122_);fill:#D0F4A5;}
	.st27{clip-path:url(#SVGID_00000151542033899200647080000005933303049159128203_);fill:#6A3834;}
	.st28{clip-path:url(#SVGID_00000172428304057733129090000017309978634282628251_);fill:#D0F4A5;}
	.st29{clip-path:url(#SVGID_00000181772722442307965690000010072439991275107724_);fill:#6A3834;}
	.st30{clip-path:url(#SVGID_00000011719172173615050860000013958913725603204999_);fill:#D0F4A5;}
	.st31{clip-path:url(#SVGID_00000049181767712671017360000013798439891442441878_);fill:#6A3834;}
	.st32{clip-path:url(#SVGID_00000077306842439552150380000002590394719528282263_);fill:#D0F4A5;}
	.st33{clip-path:url(#SVGID_00000087384097720122645420000010449548378503577518_);fill:#6A3834;}
	.st34{clip-path:url(#SVGID_00000038373897404359666210000003864894410577830555_);fill:#D0F4A5;}
</style>
<g>
	<g>
		<defs>
			<rect id="SVGID_1_" width="272.4" height="292.5"/>
		</defs>
		<clipPath id="SVGID_00000031181394556127829150000001326546432501871746_">
			<use xlink:href="#SVGID_1_"  style="overflow:visible;"/>
		</clipPath>
	</g>
	<g>
		<defs>
			<rect id="SVGID_00000119083473539269620150000010021765802853895335_" width="272.4" height="292.5"/>
		</defs>
		<clipPath id="SVGID_00000033366437723669558910000008862159430810201015_">
			<use xlink:href="#SVGID_00000119083473539269620150000010021765802853895335_"  style="overflow:visible;"/>
		</clipPath>
		
			<path style="clip-path:url(#SVGID_00000033366437723669558910000008862159430810201015_);fill:none;stroke:#6A3834;stroke-width:2.5;" d="
			M-952.3,250c110.8,0,85.5-184,190-184"/>
	</g>
	<g>
		<defs>
			<rect id="SVGID_00000060733634376839428670000011884794987048369295_" width="272.4" height="292.5"/>
		</defs>
		<clipPath id="SVGID_00000101788789175720129660000017418440125130821301_">
			<use xlink:href="#SVGID_00000060733634376839428670000011884794987048369295_"  style="overflow:visible;"/>
		</clipPath>
		
			<path style="clip-path:url(#SVGID_00000101788789175720129660000017418440125130821301_);fill:none;stroke:#6A3834;stroke-width:2.5;" d="
			M-462.3,250c110.8,0,85.5-184,190-184"/>
	</g>
	<g>
		<defs>
			<rect id="SVGID_00000181065820019017526120000011556389079186843282_" width="272.4" height="292.5"/>
		</defs>
		<clipPath id="SVGID_00000178183304205171012370000009023811274358385798_">
			<use xlink:href="#SVGID_00000181065820019017526120000011556389079186843282_"  style="overflow:visible;"/>
		</clipPath>
		
			<path style="clip-path:url(#SVGID_00000178183304205171012370000009023811274358385798_);fill:none;stroke:#6A3834;stroke-width:2.5;" d="
			M27.7,250c110.8,0,85.5-184,190-184"/>
	</g>
	<g>
		<defs>
			<rect id="SVGID_00000063606218477725430210000009455034086335359885_" width="272.4" height="292.5"/>
		</defs>
		<clipPath id="SVGID_00000127035528489696574670000013676226272591678911_">
			<use xlink:href="#SVGID_00000063606218477725430210000009455034086335359885_"  style="overflow:visible;"/>
		</clipPath>
		
			<path style="clip-path:url(#SVGID_00000127035528489696574670000013676226272591678911_);fill:none;stroke:#6A3834;stroke-width:2.5;" d="
			M-27.3,250c-110.8,0-85.5-184-190-184"/>
	</g>
	<g>
		<defs>
			<rect id="SVGID_00000005971387803017658850000013326958801865090474_" width="272.4" height="292.5"/>
		</defs>
		<clipPath id="SVGID_00000105407999661327584600000005168179875868115083_">
			<use xlink:href="#SVGID_00000005971387803017658850000013326958801865090474_"  style="overflow:visible;"/>
		</clipPath>
		
			<path style="clip-path:url(#SVGID_00000105407999661327584600000005168179875868115083_);fill:none;stroke:#6A3834;stroke-width:2.5;" d="
			M-517.3,250c-110.8,0-85.5-184-190-184"/>
	</g>
	<g>
		<defs>
			<rect id="SVGID_00000044180058694811177270000009609962936640551820_" width="272.4" height="292.5"/>
		</defs>
		<clipPath id="SVGID_00000031179169839645531920000001457438985697871033_">
			<use xlink:href="#SVGID_00000044180058694811177270000009609962936640551820_"  style="overflow:visible;"/>
		</clipPath>
		
			<path style="clip-path:url(#SVGID_00000031179169839645531920000001457438985697871033_);fill:none;stroke:#6A3834;stroke-width:2.5;" d="
			M517.7,250c110.8,0,85.5-184,190-184"/>
	</g>
	<g>
		<defs>
			<rect id="SVGID_00000103263160747695895290000002318213331592626617_" width="272.4" height="292.5"/>
		</defs>
		<clipPath id="SVGID_00000134229901646675324040000009939174398413761198_">
			<use xlink:href="#SVGID_00000103263160747695895290000002318213331592626617_"  style="overflow:visible;"/>
		</clipPath>
		
			<path style="clip-path:url(#SVGID_00000134229901646675324040000009939174398413761198_);fill:none;stroke:#6A3834;stroke-width:2.5;" d="
			M952.7,250c-110.8,0-85.5-184-190-184"/>
	</g>
	<g>
		<defs>
			<rect id="SVGID_00000063603174231513662740000000580451214545977244_" width="272.4" height="292.5"/>
		</defs>
		<clipPath id="SVGID_00000137847351047280090670000007815842730550638479_">
			<use xlink:href="#SVGID_00000063603174231513662740000000580451214545977244_"  style="overflow:visible;"/>
		</clipPath>
		
			<path style="clip-path:url(#SVGID_00000137847351047280090670000007815842730550638479_);fill:none;stroke:#6A3834;stroke-width:2.5;" d="
			M462.7,250c-110.8,0-85.5-184-190-184"/>
	</g>
	<g>
		<defs>
			<rect id="SVGID_00000123434618617294844720000003356972665164581049_" width="272.4" height="292.5"/>
		</defs>
		<clipPath id="SVGID_00000032642125712959038480000011367580236482202540_">
			<use xlink:href="#SVGID_00000123434618617294844720000003356972665164581049_"  style="overflow:visible;"/>
		</clipPath>
		<path style="clip-path:url(#SVGID_00000032642125712959038480000011367580236482202540_);fill:#6A3834;" d="M-931.8,103.1
			c0.3,4.7,2.3,8.6,5.6,11.8c2.3,2.2,5.1,4,7.7,6c0.4,0.3,0.9,0.4,1.4,0.4c4.8-0.1,9.5-0.8,13.8-3c6.9-3.4,10.3-9.2,11.3-16.5
			c0.2-1.3,0.3-2.6,0.3-4c0-1,0.4-1.4,1.3-1.8c0.7-0.2,1.3-0.7,1.7-1.3c0.5-0.9,0-1.8-0.7-2.5c-4-4.3-8.5-7.9-14-10.2
			c-0.2-0.1-0.4-0.2-0.5-0.3c0.3-1.1,0.9-2.1,1.6-3c0.8-0.9,1.7-1.6,2.7-2.1c2-0.9,4-1.6,6.1-2.3c1.4-0.5,2-1.2,1.8-2.4
			c-0.3-1.1-1.3-1.6-2.7-1.2c-2,0.5-3.9,1.2-5.8,2c-3.7,1.7-5.4,3.5-7.4,7.8c-2.2-0.3-4.5-0.8-6.7-0.8c-3.5-0.1-6.9,0-10.4,0
			c-1.8,0.1-2.7,1.4-1.8,2.9c1.3,2.2,0.8,3.7-0.6,5.7C-930.1,92.7-932.1,97.5-931.8,103.1z M-893.7,93.4c-2.8,0.9-5.4,0.8-7.8-1.3
			c-0.5-0.5-1.6-0.8-2.1-0.6c-0.6,0.2-0.9,1.2-1.3,1.9c-0.1,0.3-0.1,0.6-0.1,0.9c-0.5,3.9-3.4,7.3-6.9,8c-2.1-3.6-3.1-7.2-1-11.2
			c0.2-0.3,0.3-0.6,0.4-1c0.1-0.2,0.1-0.5,0.1-0.8s-0.1-0.5-0.3-0.7c-0.1-0.2-0.3-0.4-0.6-0.5c-0.2-0.1-0.5-0.2-0.7-0.2
			c-0.7-0.1-1.5-0.1-2.2-0.2c-2.7-0.4-4.5-1.9-5.8-4.3C-912.8,81.6-897.9,86.8-893.7,93.4z M-922.7,88.8c0.8,0.6,1.7,1.1,2.6,1.6
			c0.9,0.5,1.9,0.7,3,1.1c-1.6,5.6,0.3,10,2.8,14c0.5,0.9,1.3,1.2,2.3,0.9c4.9-1.5,8.6-4.3,10.2-9.4c0-0.2,0.2-0.3,0.1-0.2l6.5,1.1
			c-0.1,0.9-0.2,2-0.3,3.1c-0.9,7.9-5.3,13.1-13,15.3c-1.1,0.3-2.4,0.5-3.5,0.8c-3.4,1-6.4,0.2-8.9-2.3c-0.5-0.5-1.1-0.9-1.7-1.4
			C-929.9,106.5-930,95.8-922.7,88.8L-922.7,88.8z M-875.8,122.4c-1.3-6.6-9.4-9.4-14.7-4.6c-2.7,2.5-5.6,4.8-8.5,7.1l-8.9,7.5
			c-2.5-3.2-5.8-3.9-9.5-3.9c-6.5,0.1-13,0.1-19.5,0c-1,0-2-0.4-2.8-0.9c-2.6-1.8-5.4-3.1-8.5-3.3c-11.3-0.8-21.1,2.7-29,10.8
			c-3.4,3.4-6.3,7.4-9.4,11.1c-0.5,0.6-0.9,0.9-1.7,0.7c-1.7-0.3-3.2,0.4-4.4,1.7c-0.8,0.9-1.6,1.8-2.5,2.6
			c-0.3,0.3-0.7,0.5-1.2,0.5c-0.8-0.1-1.6,0-2.4,0.2c-0.8,0.3-1.5,0.7-2,1.3c-1.6,1.6-3.1,3.2-4.7,4.7c-0.6,0.5-1,1.2-1.3,1.9
			s-0.4,1.5-0.4,2.2c0,6.9,0,13.8,0,20.7c0,3.4,1.7,5,5.1,5c9.3,0,18.6,0,27.9,0c3.8,0,6-2.3,8.1-4.9c0.3-0.4,0.4-0.8,0.5-1.2
			s0.1-0.9,0-1.3c-0.4-1.7,0.3-2.7,1.4-3.7c0.5-0.4,0.9-0.9,1.3-1.4c0.5-0.6,0.9-1.3,1.1-2.1c0.2-0.8,0.2-1.6,0-2.4
			c-0.2-0.8,0.1-1.2,0.5-1.7c1.9-1.9,3.9-3.8,5.7-5.7c1.3-1.4,2.7-1.9,4.6-1.9c12.3,0,24.6,0,36.9,0c3.7,0,6.7-1.2,9.3-3.9
			c8.2-8.5,16.5-16.9,24.9-25.3c2-2,3.7-4,4.4-6.8v-2.8C-875.7,122.6-875.8,122.5-875.8,122.4z M-970.8,181.6
			c-1.3,1.4-2.9,1.9-4.8,1.8c-8.6-0.1-17.1,0-25.7,0h-1.6v-4c0-5.6,0-11.2,0-16.8c0-0.7,0.3-1.3,0.8-1.9c1.3-1.4,2.7-2.7,4-4
			c0.7-0.7,1.1-0.8,1.9-0.1c8.5,7.6,16.9,15.2,25.4,22.8C-969.7,180.3-969.7,180.5-970.8,181.6z M-966.8,172.9
			c-0.7,0.7-1.3,1.4-2.1,2.2l-23.2-20.8c0.9-1,1.7-1.9,2.6-2.8c0.6-0.7,1.1-0.1,1.5,0.3l11.9,10.7c3.1,2.7,6.1,5.5,9.2,8.2
			C-966,171.5-965.9,172.1-966.8,172.9z M-881.6,127.6c-4,4-7.9,8.1-11.9,12.1c-4.9,4.9-9.8,9.9-14.6,14.9c-0.7,0.8-1.6,1.4-2.7,1.9
			s-2.1,0.6-3.2,0.6c-12.3,0-24.7,0-37,0c-3.2,0-5.7,1-7.9,3.3c-2,2.1-4.1,4.1-6.2,6.3l-18.9-17c5.5-6.5,10.1-13.8,18.2-17.7
			c5.4-2.6,11-3.8,16.9-3.3c2.3,0.2,4.5,1,6.4,2.5c1.7,1.3,3.5,1.8,5.6,1.8c6.9,0,13.7,0,20.6,0c0.7,0,1.5,0,2.2,0.2
			c1,0.3,1.9,0.9,2.5,1.7c0.6,0.9,0.9,1.9,0.8,3c-0.2,2.2-2,3.8-4.4,3.9c-3.8,0.1-7.6,0-11.4,0c-4.1,0-8.1,0-12.2,0
			c-1.6,0-2.6,0.8-2.6,2.2c0,1.3,1,2.2,2.6,2.2c7.9,0,15.8,0,23.7,0c4.8,0,8.4-3.4,8.8-8.2c0-0.4,0.1-0.8,0.3-1.1
			c0.2-0.4,0.4-0.7,0.8-0.9c6-5,11.9-10,18-15c2.8-2.3,6.6-1,7.3,2.5C-879.7,125-880.4,126.4-881.6,127.6z M-981.5,108.9
			c5.8,3.8,12.2,6.1,19.2,5.9c6.6-0.1,12-4,13.9-9.9c0.2-0.6,0.4-1.3,0.6-1.9v-3.4c-1.3-5.8-5.3-9-10.5-11.2c-1-0.4-2-0.9-3-1.2
			c-5-1.9-8.7-5.2-11.2-9.9c-1.1-2.1-2.4-4.1-3.9-6c-2.2-2.9-5.2-5-8.9-5.4c-6.3-0.7-12.3,3.8-13.9,10.3c-1,4-0.4,7.9,0.9,11.7
			C-995.2,97.1-989.3,103.8-981.5,108.9L-981.5,108.9z M-978.6,81.2c0.1-1.3,0.6-2.5,0.9-3.7l0.6-0.1c3.3,7.6,9.1,12.3,17,14.7
			c-1.2,1.3-2.8,2-4.5,2.1C-971.5,95-978.9,88.1-978.6,81.2L-978.6,81.2z M-995.1,77c1.1-3.8,4.5-6.7,8.1-6.9c3-0.2,5.2,1.5,7.2,3.5
			c-6.2,7.4-1.9,18,6,22.4c4.4,2.5,9,3.3,13.7,1.1c1.4-0.7,2.6-1.8,3.9-2.7c5.4,3.1,5.7,10,0.5,14c-2.9,2.3-6.4,2.8-9.9,2.2
			c-14.5-2.7-24.1-11.1-29.2-24.8C-995.8,83-995.9,79.9-995.1,77L-995.1,77z M-956.6,70.4c3,5.2,7.8,8,13.6,9.1
			c7.4,1.3,13.9-1.1,19.7-5.6c5-3.8,8.6-8.7,9.9-15c0.3-1.5,0.4-3,0.6-4.6c-0.1-4.1-1.3-8-3.4-11.5c-4-6.3-12.9-6.4-17-0.1
			c-1.5,2.3-2.7,4.7-4,7c-0.5,1-1.3,1.9-2.2,2.6c-0.9,0.7-2,1.1-3.2,1.2c-2.2,0.3-4.5,0.8-6.7,1.2
			C-956.7,56.1-960.4,63.9-956.6,70.4L-956.6,70.4z M-933.7,50.9c1.3,2.9,0.2,5.8-2.4,7.4c-2.3,1.4-4.9,1-6.6-1
			C-938.4,56.8-935.6,54.6-933.7,50.9L-933.7,50.9z M-950,58.7c0.7-0.3,1.5-0.3,2.2-0.5s1.1,0,1.5,0.6c2.8,4.1,8.2,5.2,12.3,2.6
			c4.3-2.7,6-8.4,3.5-12.6c-1-1.6-0.7-2.7,0.2-3.9c0.1-0.2,0.2-0.4,0.3-0.5c2.7-3.7,8-3.6,10.5,0.3c1.8,2.7,2.7,5.9,2.8,9.1
			c0.1,5.7-2.1,10.4-6,14.4c-4.5,4.8-10.1,7.4-15.6,7.9c-6.4,0-12.2-2.9-14.8-7.1C-955.7,65.1-954.2,60.2-950,58.7L-950,58.7z"/>
	</g>
	<g>
		<defs>
			<rect id="SVGID_00000170981831719509050700000002031815348400623024_" width="272.4" height="292.5"/>
		</defs>
		<clipPath id="SVGID_00000052075968950429790940000004002347564704669106_">
			<use xlink:href="#SVGID_00000170981831719509050700000002031815348400623024_"  style="overflow:visible;"/>
		</clipPath>
		<path style="clip-path:url(#SVGID_00000052075968950429790940000004002347564704669106_);fill:#6A3834;" d="M-757.6,150.5
			c0.4,0,0.8,0,1.2,0c2,0,3.1-1.1,2.5-2.6c-0.4-1-1.3-1.2-2.3-1.2c-1.1,0-2.2,0-2.7,1.2c-0.1,0.3-0.2,0.6-0.2,0.8s0.1,0.6,0.2,0.8
			c0.1,0.3,0.3,0.5,0.6,0.6C-758.2,150.3-757.9,150.4-757.6,150.5z M-756.1,264.6c-2.1,0-2.9,0.4-3,1.7c-0.1,1.4,0.8,2.1,2.7,2.1
			c1.8,0,2.7-0.7,2.7-2C-753.8,265.3-754.7,264.6-756.1,264.6L-756.1,264.6z M-743.4,264.6c-0.6,0-1.2,0-1.8,0s-1.1,0-1.7,0
			c-1.1,0.1-1.8,0.7-1.9,1.7c-0.1,1.1,0.5,1.9,1.5,2c1.4,0.2,2.7,0.1,4.1,0c1-0.1,1.6-1,1.5-2.1
			C-741.7,265.2-742.3,264.7-743.4,264.6L-743.4,264.6z M-722.3,150.5c0.6,0,1.1,0,1.7,0c0.6,0,1.2,0,1.8,0c0.2,0,0.5,0,0.7-0.1
			s0.4-0.2,0.6-0.4c0.2-0.2,0.3-0.4,0.4-0.6c0.1-0.2,0.1-0.5,0.1-0.7s0-0.5,0-0.7c-0.1-0.2-0.2-0.4-0.3-0.6
			c-0.2-0.2-0.3-0.3-0.6-0.4c-0.2-0.1-0.4-0.2-0.7-0.2c-1.3-0.1-2.6-0.1-4,0c-1.1,0.1-1.6,0.9-1.6,2
			C-724.1,149.8-723.4,150.4-722.3,150.5z M-734.6,150.5c0.6,0,1.1,0,1.7,0c0.6,0,1.2,0,1.8,0c1.1-0.1,1.8-0.7,1.8-1.8
			c0.1-1.1-0.5-1.9-1.6-2c-1.3-0.1-2.6-0.1-4,0c-0.2,0-0.5,0.1-0.7,0.2s-0.4,0.3-0.6,0.5c-0.2,0.2-0.3,0.4-0.3,0.6
			c-0.1,0.2-0.1,0.5,0,0.7C-736.3,149.8-735.7,150.4-734.6,150.5L-734.6,150.5z M-746.9,150.5c0.6,0,1.1,0,1.7,0c0.6,0,1.3,0,1.9,0
			c0.5,0,0.9-0.2,1.2-0.5s0.5-0.8,0.5-1.2c0.1-1.1-0.5-1.9-1.5-2c-1.3-0.1-2.6-0.1-4,0c-1.1,0.1-1.7,0.9-1.6,2
			C-748.6,149.8-748,150.4-746.9,150.5L-746.9,150.5z M-685.8,179.3c0-0.4,0-0.9,0-1.3c0-0.4-0.2-0.8-0.5-1.1s-0.7-0.5-1.2-0.5
			c-1-0.1-1.8,0.4-2,1.4c-0.1,0.5-0.1,1.1-0.1,1.7c0,29.4,0,58.9,0,88.3v1.6h-16.8v-9.3h1.6c1.5,0,2.9,0,4.4,0
			c1.1-0.1,1.7-0.8,1.7-1.9c0-0.5-0.1-0.9-0.4-1.3c-0.3-0.3-0.7-0.6-1.2-0.6c-0.5-0.1-0.9-0.1-1.4-0.1c-1.5,0-3.1,0-4.7,0V252
			c0.1-0.1,0.2-0.1,0.3-0.1c0.9,0,1.7,0,2.6,0c1.4,0,2.3-0.8,2.2-1.9c0-1.1-0.9-1.9-2.3-1.9c-0.9,0-1.9,0-2.8,0v-4.7
			c1.8,0,3.5,0,5.2,0c1.6,0,2.5-0.8,2.5-2s-0.9-1.9-2.4-1.9c-1.7,0-3.5,0-5.3,0V235c1,0,1.9,0,2.7,0c1.4,0,2.3-0.7,2.3-1.8
			s-0.9-2-2.3-2c-0.9,0-1.8,0-2.7,0v-4.7c2,0,3.9,0.1,5.7-0.1c0.4-0.1,0.7-0.2,1-0.5c0.3-0.2,0.5-0.5,0.7-0.9c0.2-0.5-0.2-1.5-0.6-2
			c-0.3-0.4-1.1-0.4-1.7-0.5c-1.7-0.1-3.5,0-5.2,0v-4.7h1.5c0.5,0,1,0,1.5,0c1.2-0.1,2-0.9,2.1-1.9c0-1.1-0.8-1.9-2.1-1.9
			c-1,0-1.9,0-3,0v-4.5c1.6,0,3.2,0,4.8,0c0.6,0,1.1,0,1.6-0.2c0.4-0.1,0.8-0.4,1-0.8c0.2-0.4,0.3-0.8,0.2-1.2
			c0-0.5-0.2-0.9-0.6-1.2c-0.3-0.3-0.8-0.5-1.3-0.4c-1.9,0-3.8,0-5.8,0v-4.8c1,0,1.9,0,2.9,0c1.4,0,2.3-0.8,2.3-1.9
			c0-1.1-0.9-1.9-2.3-1.9c-0.9,0-1.9,0-2.8,0v-4.5c1.8,0,3.6,0,5.3,0c1.5,0,2.4-0.8,2.4-2s-0.9-1.9-2.4-1.9c-1.7,0-3.5,0-5.3,0V184
			h1.5c0.5,0,1,0,1.5,0c1.3-0.1,2.1-0.9,2.1-2s-0.9-1.8-2.2-1.9c-1,0-1.9,0-2.9,0v-4.5c2,0,3.9,0.1,5.7-0.1c0.4-0.1,0.7-0.2,1-0.4
			s0.5-0.5,0.7-0.8c0.2-0.5,0.1-1.4-0.3-1.8c-0.4-0.4-1.2-0.7-1.8-0.7c-1.8-0.1-3.6,0-5.4,0v-4.7h1.5c0.5,0,0.9,0,1.4,0
			c1.3-0.1,2.2-0.9,2.2-2c-0.1-1.1-0.9-1.8-2.2-1.8c-1,0-1.9,0-2.9,0v-4.5c1.7,0,3.2,0,4.7,0c0.5,0,0.9,0,1.4-0.1s0.9-0.3,1.1-0.7
			c0.3-0.4,0.4-0.8,0.4-1.3s-0.2-0.9-0.6-1.2c-0.3-0.3-0.8-0.5-1.2-0.5c-1.9,0-3.8,0-5.8,0v-9.3h16.8v1.6c0,7.2,0,14.3,0,21.5
			c0,1.6,0.8,2.5,2,2.4s1.8-0.9,1.8-2.5c0-8.2,0-16.4,0-24.6c0-1.7-0.6-2.5-2.2-2.5c-6.7,0-13.5,0-20.2,0c-1.4,0-2.1,0.7-2.2,2.1
			c0,0.5,0,0.9,0,1.4c0.1,0.8-0.1,1.4-0.9,1.9c-0.2,0.2-0.4,0.4-0.5,0.6c-0.1,0.3-0.2,0.5-0.2,0.8s0.1,0.6,0.2,0.8
			c0.1,0.2,0.3,0.5,0.6,0.6c0.8,0.5,0.8,1.1,0.8,1.8c0,10.6,0,21.3,0,31.9v79.3c0,0.8,0.1,1.5-0.9,2.1c-0.9,0.6-1,2.2,0,2.7
			c1,0.6,0.9,1.4,0.9,2.2c-0.1,1.3,0,2.5,1.2,3.3h22.1c1.2-0.6,1.4-1.7,1.4-2.9C-685.8,240.1-685.8,209.7-685.8,179.3L-685.8,179.3z
			 M-754.7,209.4c-0.4-0.2-0.8-0.4-1.2-0.4s-0.8,0.1-1.1,0.3s-0.6,0.5-0.8,0.8c-1.9,2.9-2.6,5.9-2.2,9.1c0.2,1.5,0.6,3,1,4.5
			c0.6,2.2,0.1,4-1.3,5.6c-0.5,0.6-1,1.2-1.5,1.8l-0.1,0.1l-0.5,0.6c-2.2,2.5-3.3,5.7-3.3,9c0,0.1,0,0.2,0,0.4c0,0.4,0,0.8,0.1,1.3
			c0.2,1.4,1.3,2.3,2.5,2.1c1.3-0.2,2.1-1.2,1.9-2.6c-0.3-3.1,0.6-5.8,2.8-8.1c0.3-0.3,0.7-0.8,1-1.1l0.3-0.4
			c1.4-1.6,2.8-3.6,2.7-5.9c-0.1-2.1-0.4-4.2-0.9-6.2c-0.7-2.9-0.3-5.4,1.2-7.7c0.2-0.3,0.3-0.6,0.4-0.9c0.1-0.3,0.1-0.6,0-0.9
			c-0.1-0.3-0.2-0.5-0.3-0.8C-754.3,209.7-754.5,209.5-754.7,209.4L-754.7,209.4z M-731.2,264.6c-1.1,0-2.2,0-3.3,0
			c-0.5,0-1,0.2-1.3,0.5c-0.4,0.3-0.6,0.8-0.6,1.3c-0.1,1,0.7,1.9,1.9,2c0.5,0.1,1.1,0,1.7,0c0.6,0,1.2,0,1.8,0c0.5,0,1-0.2,1.3-0.6
			s0.5-0.9,0.5-1.3c0-0.2,0-0.5-0.1-0.7s-0.2-0.4-0.4-0.6s-0.4-0.3-0.6-0.4C-730.7,264.6-730.9,264.6-731.2,264.6L-731.2,264.6z
			 M-718.8,264.6c-0.6,0-1.1,0-1.7,0c-0.6,0-1.2,0-1.8,0c-1.1,0.1-1.7,0.7-1.9,1.7c0,0.2,0,0.5,0.1,0.7s0.2,0.5,0.3,0.7
			c0.2,0.2,0.4,0.3,0.6,0.5c0.2,0.1,0.5,0.2,0.7,0.2c1.3,0.1,2.6,0.1,3.8,0c0.2,0,0.5-0.1,0.7-0.2s0.4-0.3,0.6-0.4s0.3-0.4,0.3-0.6
			c0.1-0.2,0.1-0.5,0-0.7c0-0.2,0-0.5-0.1-0.7s-0.2-0.4-0.4-0.6s-0.4-0.3-0.6-0.4C-718.4,264.6-718.6,264.6-718.8,264.6
			L-718.8,264.6z M-750.7,191.3c-2.4-0.9-2.3-3-2.3-3.7c0-0.6,0-1.1,0.1-1.7l0,0c0-1,0.1-2,0.1-3c-0.1-4.9-4.1-9.3-9-9.9
			c-1.3-0.2-2.4,0.6-2.6,1.8c-0.1,0.6,0,1.2,0.4,1.7c0.3,0.5,0.9,0.8,1.5,0.9c3.6,0.8,5.4,3,5.3,6.7c0,0.3,0,0.7,0,1v1.3h-0.2
			c0,0.6,0,1.2,0,1.8c0.2,3.5,2.1,6.3,5,7.1c0.4,0.1,0.8,0.1,1.3,0c0.4-0.1,0.8-0.3,1.1-0.7c0.3-0.3,0.5-0.7,0.6-1.1
			c0.1-0.4,0-0.9-0.1-1.3c-0.1-0.2-0.2-0.4-0.4-0.6C-750.3,191.5-750.5,191.4-750.7,191.3L-750.7,191.3z M-730.5,212.1
			c0.1-0.7,0.1-1.4,0.2-2.1v-7.5c-0.1-0.6-0.1-1.1-0.2-1.7v-0.1c-0.1-1.3-0.3-2.7-0.4-4.1c-1.4-11.5-4.8-20.9-10.4-28.6
			c-4-5.5-8.4-9.2-13.6-11.2c-1.3-0.5-2.6-0.8-3.9-1.1c-0.6-0.1-1.3-0.3-1.9-0.4l-0.5-0.1h-0.2h-3.1h-0.1c-0.2,0.1-0.4,0.1-0.6,0.1
			c-8.5,1.3-14.4,6-17.7,14.1c-0.1,0.3-0.2,0.5-0.3,0.8l-0.2,0.5c-0.9,2.2-1.1,4.7-0.8,7c0.1,0.5,0.1,0.9,0.1,1.4
			c0.4,3.8,1.8,7.4,4.1,10.4c4.6,6.3,5.5,16.1,4.7,20.8c0,0.7-0.3,5.1-2,8.7c-0.7,1.7-1.5,3.2-2.4,4.8c-2.3,3.4-3.7,6.5-4.4,9.9v0.2
			c-0.1,2.7-0.4,8.9,2.7,13.9c0.3,0.4,0.6,0.8,0.9,1.2c0.1,0.1,0.2,0.2,0.2,0.3l0.1,0.1c5.8,8.4,17.1,11.5,26.9,7.3
			c6-2.5,10.7-7,14.6-13.7c4.1-7.2,6.6-15.5,7.8-26.1C-730.7,215.2-730.6,213.6-730.5,212.1L-730.5,212.1z M-739.9,235.4
			c-2.6,6.3-5.8,10.8-9.9,14c-4,3.1-8.2,4.7-12.4,4.7c-2.1,0-4.1-0.4-6-1c-2.4-0.8-4.6-2.2-6.4-4c-1.8-1.8-3.2-4-4-6.5
			c-0.9-2.5-1.1-5.2-0.8-7.8s1.2-5.1,2.7-7.3c7.3-11.1,8.3-23.2,3.1-36c-0.7-1.7-1.7-3.3-2.8-4.9l-0.3-0.5c-1.5-2.3-2.4-4.9-2.7-7.6
			c-0.3-2.7,0.1-5.5,1.1-8s2.5-4.8,4.5-6.6s4.4-3.1,7.1-3.8c4.8-1.3,9.5-0.3,14.2,2.8c4.7,3.2,8.6,7.8,11.7,14.2
			c3.2,6.6,5.2,13.7,5.9,21.9c0.2,2.1,0.3,4.1,0.4,6.1v0.1c0,0.9,0.1,1.8,0.1,2.7v0.1C-735.1,219.3-736.8,227.8-739.9,235.4
			L-739.9,235.4z"/>
	</g>
	<g>
		<defs>
			<rect id="SVGID_00000084503023605577653570000016262419552075212971_" width="272.4" height="292.5"/>
		</defs>
		<clipPath id="SVGID_00000117663189001074524340000017371266451821981073_">
			<use xlink:href="#SVGID_00000084503023605577653570000016262419552075212971_"  style="overflow:visible;"/>
		</clipPath>
		<path style="clip-path:url(#SVGID_00000117663189001074524340000017371266451821981073_);fill:#6A3834;" d="M-482,162.1
			c-2.5-0.2-4.9-1-7.1-2.3c-1.3-0.7-2.5-0.5-3.1,0.6s-0.2,2.2,1.1,3c2.7,1.6,5.6,2.5,8.7,2.7c1.7,0.1,2.6-0.5,2.7-1.8
			C-479.5,163.1-480.4,162.2-482,162.1z M-452.2,157.6c-0.8,0.5-1.4,0.7-1.8,1.2c-1.8,1.8-4,3.3-6.4,4.2c-1.4,0.5-2,1.6-1.5,2.8
			s1.6,1.6,2.9,1.1c3.1-1.1,5.8-2.9,8.1-5.3c0.6-0.7,1-1.5,0.5-2.3C-450.9,158.6-451.6,158.1-452.2,157.6L-452.2,157.6z
			 M-426.8,169.5h-18.7c2.5-2.7,5.1-5.4,7.3-8.2c2.5-3.2,2.9-6.9,1.2-10.7c-1.7-3.8-4.7-5.8-8.8-6.2c-3.9-0.3-7.1,1.3-9.4,4.4
			c-0.3,0.4-0.6,0.8-1,1.5c-0.1-1.3-0.1-2.4-0.2-3.5c-0.4-2.7-1.6-5.3-3.3-7.4c-4-5-9.6-8.4-15.9-9.8c-4.8-1.1-9.6-2.3-14.4-3.4
			c-1.8-0.4-3.1,0.5-2.8,2.3c1,6.1,2,12.2,3.1,18.2c0.3,1.8,1.2,3.5,1.9,5.6c-0.8-0.7-1.5-1.2-2.1-1.8c-3.5-3.1-7.4-3.9-11.7-2
			s-6.3,5.4-6.3,10c0,0.2,0,0.4,0,0.8l-4.4,0.4c0.9-2.8,1.8-5.6,2.5-8.4c0.3-1.3,0.3-2.7,0.4-4.1c0.1-1.9-0.8-2.6-2.7-2.5
			c-4,0.2-8,1.3-11.5,3.3c-0.1,0.1-0.3,0.2-0.5,0.2c-0.1,0-0.2,0-0.3,0c0.1-1.8,0.2-3.6,0.3-5.4c0.1-1.1-0.1-2.1-1.2-2.6
			c-1.1-0.5-2,0.1-2.7,0.8c-4,4.1-8,8.2-12,12.4c-4.2,4.3-5.7,9.4-4.3,15.3c0.1,0.2,0.1,0.4,0.2,0.8h-9.7c-1.8,0.1-2.3,0.7-2.3,2.6
			c0,3,0,5.9,0,8.9c0,1.2,0.3,2.1,1.3,2.7h9.3c0.8-0.7,1.5-1.4,1-2.6c-0.5-1.2-1.5-1.3-2.6-1.2c-1.7,0-3.3,0-5.2,0v-6.4h123.9v6.4
			h-107.7c-0.4,0-0.9-0.1-1.3,0c-0.6,0.3-1.5,0.6-1.6,1.2c-0.2,0.6,0.2,1.4,0.4,2.1c0.1,0.2,0.3,0.4,0.5,0.5h113.6v-13.1
			c-0.3-0.3-0.6-0.6-1-0.8C-426,169.6-426.4,169.5-426.8,169.5L-426.8,169.5z M-488.4,130.7c4.7,1.2,9.2,2.1,13.6,3.4
			c4.8,1.4,8.7,4.1,11.8,8c2,2.5,2.9,5.4,2.4,8.5c-0.7,3.8-1.7,6-5.4,6.6c-0.7,0.1-1.4,0-2-0.4c-2.3-1.6-5.1-2.3-7.9-1.9
			c-1.4,0.2-2.7,0.2-4.1,0.1c-0.3,0-0.6-0.1-0.8-0.2c-0.3-0.1-0.5-0.3-0.7-0.5c-1.2-1.7-2.3-3.5-3.2-5.4c-1.7-3.5-2-7.3-2.6-11.1
			C-487.7,135.5-488,133.2-488.4,130.7z M-524.8,154.1c0-0.3,0.2-0.5,0.4-0.7c3.1-2.5,6.8-4,10.7-4.5c-0.3,4.2-1.8,7.8-4.2,11.1
			c-0.1,0.1-0.3,0.2-0.5,0.2c-2.2,0.2-4.4,0.4-6.8,0.6C-525.1,158.4-525,156.2-524.8,154.1L-524.8,154.1z M-517.1,169.2
			c-0.2,0.1-0.4,0.2-0.6,0.3h-21.7c-0.2-0.1-0.4-0.2-0.5-0.4s-0.2-0.4-0.3-0.6c-1.4-4.4-0.6-8.3,2.5-11.7c2-2.2,4.1-4.3,6.2-6.5
			c0.9-0.9,1.8-1.7,2.7-2.6c0,0.5,0,0.9,0,1.3c-0.3,4.5-0.6,9-0.8,13.5c-0.1,1.9,0.7,2.7,2.6,2.6c2.5-0.2,5-0.4,7.6-0.7l7.6-0.7
			C-513.7,165.7-515.4,167.5-517.1,169.2L-517.1,169.2z M-511.6,169.5l5.5-5.1l6.4,5.1H-511.6z M-477.5,169.5h-12.3h-0.1
			c-4.2-1.6-8.1-3.7-11.6-6.5c-1-0.9-1.8-2.1-2.1-3.4c-0.3-1.3-0.2-2.7,0.3-3.9c0.5-1.3,1.4-2.3,2.5-3s2.5-1.1,3.8-1
			c1.8,0.1,3.2,0.9,4.5,2.1c4.9,4.4,10.6,6.1,17.1,5.2c0.8,0,1.6,0,2.4,0l0.2,0.3C-476.3,161.8-477.8,165.2-477.5,169.5
			L-477.5,169.5z M-453.8,169.5h-19.4c-0.7-3.8,1.6-7.2,5.2-7.7c6.9-0.9,12.2-4.4,15.9-10.3c0.5-0.7,1.1-1.4,1.8-1.9
			c0.7-0.5,1.5-0.9,2.4-1c0.9-0.2,1.7-0.2,2.6,0s1.7,0.5,2.4,1c3.1,2.1,3.7,6.2,1.4,9.3c-3,4.1-6.7,7.5-11,10.1
			C-452.9,169.2-453.4,169.4-453.8,169.5L-453.8,169.5z M-512.6,106.4c0.2,0.1,0.5,0.1,0.7,0c0.2,0,0.5-0.1,0.7-0.3
			c0.2-0.1,0.4-0.3,0.5-0.5s0.2-0.4,0.3-0.7c0.2-0.9,0.4-1.8,0.6-2.7c0.2-1.2-0.8-2.2-2.4-2.2c-0.3,0.3-1,0.7-1.3,1.3
			c-0.3,1-0.6,2-0.6,3C-514.2,105.4-513.6,106.1-512.6,106.4z M-515.9,122.3c0.4,0.1,0.9,0.1,1.3-0.1c0.4-0.2,0.7-0.6,0.9-1
			c0.2-0.6,0.3-1.1,0.4-1.7c0.1-1.4-0.5-2.3-1.6-2.4c-0.5-0.1-1,0-1.4,0.3s-0.7,0.7-0.8,1.1c-0.2,0.6-0.3,1.2-0.4,1.9
			c-0.1,0.5,0.1,0.9,0.3,1.3C-516.7,122-516.3,122.2-515.9,122.3L-515.9,122.3z M-510.5,97.9c1.3,0,2.2-1.4,2.2-3.4
			c0-0.5-0.2-1-0.6-1.4s-0.9-0.6-1.4-0.6c-1.3,0-2.2,1.4-2.2,3.4c0,0.3,0,0.5,0.1,0.7s0.2,0.5,0.4,0.6c0.2,0.2,0.4,0.3,0.6,0.4
			C-511,97.9-510.7,97.9-510.5,97.9L-510.5,97.9z M-514.3,114.9c1.1,0.2,1.9-0.3,2.2-1.3c0.2-0.9,0.4-1.8,0.6-2.7
			c0.1-1.3-0.5-2.2-1.6-2.3c-0.5-0.1-1,0-1.4,0.3s-0.7,0.7-0.8,1.2c-0.2,0.9-0.4,1.7-0.5,2.6c-0.1,0.5,0,1,0.3,1.4
			S-514.8,114.8-514.3,114.9L-514.3,114.9z M-472.7,145.7c1,1.4,1.8,2.9,2.8,4.3c0.4,0.5,0.9,0.9,1.4,1.3c1.9,0,3-1.5,2.4-2.7
			c-1.9-3.8-4.4-7.3-7.6-10.1c-0.8-0.8-2.1-0.6-2.8,0.3c-0.7,0.8-0.7,1.9,0.1,2.8C-475.1,143-473.8,144.3-472.7,145.7L-472.7,145.7z
			 M-466.1,117.1c-1.1,0.2-1.6,0.9-1.6,2.2c0.1,0.6,0.2,1.2,0.4,1.8c0.1,0.4,0.4,0.8,0.8,1s0.9,0.3,1.3,0.2c0.5-0.1,0.9-0.3,1.1-0.7
			c0.3-0.4,0.4-0.8,0.4-1.3c0-0.7-0.2-1.4-0.4-2c-0.1-0.4-0.4-0.8-0.8-1.1C-465.1,117.1-465.6,117-466.1,117.1L-466.1,117.1z
			 M-469.6,100.1c-1.1,0.2-1.7,1-1.5,2c0.1,1,0.3,2,0.6,3c0.1,0.2,0.1,0.4,0.3,0.6c0.1,0.2,0.3,0.3,0.5,0.5c0.2,0.1,0.4,0.2,0.6,0.2
			s0.5,0,0.7,0c1.1-0.2,1.6-0.9,1.6-2.2c-0.2-1-0.4-2-0.7-2.9c-0.1-0.2-0.2-0.4-0.3-0.6c-0.1-0.2-0.3-0.3-0.5-0.4s-0.4-0.2-0.6-0.2
			C-469.1,100-469.3,100-469.6,100.1L-469.6,100.1z M-465.6,110.1c-0.3-0.7-1.1-1.2-1.4-1.6c-1.6,0.1-2.4,0.9-2.3,2.1
			c0.1,1,0.3,2,0.6,3c0.3,1,1.1,1.5,2.2,1.3c0.5-0.1,0.9-0.4,1.2-0.8s0.4-0.9,0.3-1.4C-465.2,111.8-465.3,110.9-465.6,110.1
			L-465.6,110.1z M-426.8,38c-5.2,0-10.4,0-15.6,0c-1.5,0-2.2,0.7-2.2,2.2c0,0.8,0,1.5,0,2.4h-1.5c-6.4,0-12.9,0-19.3,0
			c-0.5,0-0.9,0-1.4,0.1c-0.4,0.1-0.8,0.4-1,0.7c-0.2,0.4-0.3,0.8-0.3,1.2s0.2,0.8,0.5,1.2s0.7,0.5,1.1,0.6c0.4,0,0.9,0.1,1.3,0
			h20.5v12.8h-36.7c-2,0-2.6,0.6-2.6,2.6c0,1.9,0,3.7,0,5.6h-12.8c0-4,0-8,0-11.9c0-5.5,3.6-9.1,9.1-9.1c4.1,0,8.1,0,12.2,0
			c1.4,0,2.3-0.8,2.2-1.9c0-1.1-0.9-1.9-2.2-1.9c-4.5,0-9-0.1-13.5,0c-6,0.2-10.9,4.6-11.5,10.6c-0.4,4.2-0.2,8.5-0.2,12.7
			c0,0.5,0,1,0,1.4c-0.1,0-0.3,0.1-0.4,0.1h-4.2c-1.9,0-2.6,0.6-2.6,2.5c0,5.2,0,10.4,0,15.6c0,1.8,0.7,2.4,2.4,2.4
			c10.1,0,20.1,0,30.2,0c1.7,0,2.4-0.7,2.4-2.4c0-5.2,0-10.4,0-15.6c0-1.9-0.7-2.5-2.6-2.5c-1.5,0-3.1,0-4.6,0v-4.3h35.5
			c0,0.7,0,1.3,0,1.8c0,2.2,0.6,2.7,2.7,2.7c4.8,0,9.7,0,14.5,0c1.2,0,2.1-0.3,2.7-1.3v-27C-425.2,38.6-425.8,38-426.8,38L-426.8,38
			z M-476.9,71.6v12.6H-504V71.6H-476.9z M-428.6,63.9h-12.1v-22h12.1V63.9z M-484.9,92.6c-1.4,0.1-1.9,1.3-1.7,3.3
			c0.2,1.4,1,2.2,2.1,2.1c1.2-0.1,1.8-1,1.7-2.4C-482.8,93.5-483.5,92.5-484.9,92.6L-484.9,92.6z M-471.2,92.6
			c-0.5,0.1-0.9,0.3-1.1,0.7c-0.3,0.4-0.4,0.8-0.3,1.3c0.1,0.7,0.2,1.4,0.4,2c0.1,0.4,0.4,0.8,0.8,1.1c0.4,0.2,0.9,0.3,1.3,0.2
			c1.1-0.2,1.6-0.9,1.6-2.2c-0.1-0.6-0.2-1.3-0.5-1.9c-0.1-0.4-0.4-0.8-0.9-1C-470.2,92.6-470.7,92.5-471.2,92.6L-471.2,92.6z
			 M-499.7,110.2c-0.2,0.8-0.2,1.7-0.3,2.5c0,1.2,0.6,2.1,1.7,2.2s1.9-0.4,2.1-1.5c0.2-1,0.3-1.9,0.3-2.9c0-0.5-0.2-0.9-0.5-1.3
			c-0.3-0.3-0.8-0.6-1.2-0.6c-0.5,0-0.9,0.1-1.3,0.4C-499.3,109.3-499.6,109.7-499.7,110.2L-499.7,110.2z M-498.9,102.2
			c-0.1,0.7-0.2,1.4-0.2,2.2c0,0.5,0.1,1,0.4,1.4s0.8,0.6,1.3,0.7c0.2,0,0.5,0,0.7-0.1s0.5-0.2,0.7-0.3c0.2-0.2,0.4-0.3,0.5-0.6
			c0.1-0.2,0.2-0.5,0.2-0.7c0.1-0.8,0.2-1.5,0.3-2.3c0-1.5-0.6-2.4-1.8-2.5C-497.9,100-498.7,100.8-498.9,102.2L-498.9,102.2z
			 M-500.7,120.6c0,0.2,0,0.5,0.1,0.7s0.2,0.4,0.4,0.6c0.2,0.2,0.4,0.3,0.6,0.4s0.5,0.1,0.7,0.1c1.1,0,1.8-0.6,2-1.6
			c0.1-0.5,0.1-1,0.2-1.7c0-0.5-0.1-0.9-0.4-1.3s-0.7-0.6-1.2-0.7c-0.2-0.1-0.4-0.1-0.7,0c-0.2,0-0.4,0.1-0.6,0.2s-0.4,0.3-0.5,0.4
			c-0.1,0.2-0.2,0.4-0.3,0.6C-500.6,119-500.7,119.8-500.7,120.6L-500.7,120.6z M-494.4,96.3c0.1-0.3,0.1-0.6,0.1-0.9
			c0.1-1.8-0.6-2.8-1.8-2.8c-1.2,0-1.9,0.8-2.1,2.3c0,0.3-0.1,0.7-0.1,1c0,1.1,0.7,1.9,1.7,2.1C-495.5,98.1-494.7,97.4-494.4,96.3
			L-494.4,96.3z M-483.2,108.5c-0.2,0-0.5,0.1-0.7,0.2s-0.4,0.3-0.6,0.4c-0.2,0.2-0.3,0.4-0.4,0.6s-0.1,0.5-0.1,0.7
			c0,0.9,0.1,1.8,0.3,2.7c0,0.5,0.3,1,0.7,1.3c0.4,0.3,0.9,0.5,1.4,0.5c1.1-0.1,1.8-0.9,1.8-2.2c-0.1-0.8-0.1-1.7-0.3-2.6
			c-0.1-0.5-0.3-0.9-0.7-1.2C-482.3,108.6-482.8,108.5-483.2,108.5L-483.2,108.5z M-482.5,117c-1.1,0.1-1.7,0.8-1.7,1.9
			c0,0.6,0.1,1.1,0.2,1.7c0.2,1.2,1,1.9,2.1,1.8c1-0.1,1.7-0.9,1.7-2.2c0-0.5-0.1-1.1-0.2-1.6C-480.7,117.5-481.4,116.9-482.5,117
			L-482.5,117z M-483.8,100.1c-1.3-0.2-2.2,0.9-2.1,2.7c0.1,0.8,0.2,1.5,0.3,2.3c0.1,0.3,0.2,0.5,0.3,0.7c0.2,0.2,0.4,0.4,0.6,0.5
			s0.5,0.2,0.8,0.2s0.5,0,0.8-0.1c2-0.9,1.1-2.6,1-4.1C-482,101.1-482.6,100.3-483.8,100.1L-483.8,100.1z"/>
	</g>
	<g>
		<defs>
			<rect id="SVGID_00000018227266629215119330000010720515632606860733_" width="272.4" height="292.5"/>
		</defs>
		<clipPath id="SVGID_00000158011834638369856820000006295302987130550968_">
			<use xlink:href="#SVGID_00000018227266629215119330000010720515632606860733_"  style="overflow:visible;"/>
		</clipPath>
		<path style="clip-path:url(#SVGID_00000158011834638369856820000006295302987130550968_);fill:#6A3834;" d="M-271.4,260.4
			c-1.1,0-1.9,0.9-1.9,2.3c0,1.5,0,2.9,0,4.4s0,2.8,0,4.2c0,1.4,0.8,2.2,2,2.2c1.1,0,1.8-0.8,1.9-2.2c0-2.9,0-5.7,0-8.6
			C-269.5,261.2-270.2,260.4-271.4,260.4z M-219.5,156.3c1.1,0,1.8-0.6,1.9-1.7c0-0.3,0.1-0.7,0.1-1c0-3,0-6.1,0-9.1
			c0-1.1-0.2-2.1-1.2-2.8h-1.5c-0.4,0.6-1,1.1-1,1.6c-0.1,3.8-0.1,7.5,0,11.3C-221.2,155.7-220.5,156.3-219.5,156.3z M-246.3,240.2
			c17.7,0.7,32.7-13.5,33.5-31.6c0.7-17.7-13.5-32.8-31.5-33.5c-17.8-0.7-32.9,13.5-33.6,31.6C-278.7,224.4-264.4,239.5-246.3,240.2
			z M-247.3,234.9c0,0.4,0,0.7-0.1,1.3c-6.4-0.4-11.9-2.8-16.9-7c0.8-0.8,1.5-1.4,2.2-2.1c4.3-4.3,8.5-8.5,12.8-12.8
			c0.3-0.3,1-0.6,1.3-0.5s0.6,0.8,0.6,1.3C-247.3,221.7-247.3,228.3-247.3,234.9L-247.3,234.9z M-243.4,236.2c0-0.5-0.1-1-0.1-1.4
			c0-6.6,0-13.1,0-19.7c0-0.5,0.4-1,0.6-1.5c0.5,0.2,1.1,0.3,1.4,0.6c4.7,4.6,9.4,9.3,14,14c0.3,0.3,0.5,0.6,0.9,0.9
			C-231.5,233.4-237,235.7-243.4,236.2L-243.4,236.2z M-223.7,226.4c-0.4-0.3-0.6-0.6-0.9-0.8c-4.7-4.7-9.4-9.4-14.1-14.1
			c-0.3-0.3-0.7-1-0.5-1.3c0.1-0.3,0.8-0.6,1.3-0.6c6.7,0,13.4,0,20,0c0.3,0,0.7,0,1.2,0.1C-217.2,216-219.6,221.5-223.7,226.4
			L-223.7,226.4z M-223.7,188.7c4.2,4.9,6.5,10.4,7,16.9h-1.5c-6.5,0-12.9,0-19.4,0c-0.5,0-1.1-0.4-1.6-0.6c0.2-0.5,0.3-1.1,0.7-1.4
			c4.6-4.7,9.2-9.3,13.9-13.9C-224.4,189.4-224.1,189.1-223.7,188.7L-223.7,188.7z M-243.4,179.7c0-0.2,0-0.3,0.1-0.7
			c6.4,0.5,11.9,2.8,16.8,6.9c-0.2,0.2-0.4,0.5-0.6,0.7c-4.8,4.8-9.6,9.6-14.5,14.4c-0.2,0.2-0.4,0.3-0.6,0.3
			c-0.2,0.1-0.4,0.1-0.7,0.1c-0.3-0.1-0.6-0.7-0.6-1C-243.5,193.5-243.5,186.6-243.4,179.7L-243.4,179.7z M-245.4,204.8
			c0.5,0,1.1,0.2,1.5,0.5s0.8,0.7,1,1.2s0.3,1.1,0.1,1.6c-0.1,0.5-0.4,1-0.8,1.4c-0.4,0.4-0.9,0.6-1.4,0.7c-0.5,0.1-1.1,0-1.6-0.2
			s-0.9-0.6-1.2-1c-0.3-0.5-0.4-1-0.4-1.5c0-0.7,0.3-1.4,0.8-1.9C-246.8,205.1-246.1,204.9-245.4,204.8L-245.4,204.8z M-247.4,179
			c0,0.6,0.1,1,0.1,1.5c0,6.5,0,13,0,19.5c0,0.5-0.2,1.1-0.6,1.5c-0.7,0.6-1.1-0.2-1.5-0.6c-4.6-4.6-9.2-9.1-13.7-13.7
			c-0.4-0.4-0.8-0.7-1.3-1C-259.3,181.8-253.8,179.4-247.4,179L-247.4,179z M-267,188.7c1.7,1.8,3.4,3.4,5,5
			c3.4,3.4,6.7,6.7,10.1,10.1c0.2,0.2,0.3,0.4,0.3,0.6c0.1,0.2,0.1,0.4,0.1,0.7c-0.1,0.3-0.7,0.6-1,0.6c-6.9,0-13.8,0-20.7,0
			c-0.2,0-0.3,0-0.7-0.1C-273.6,199.2-271.2,193.7-267,188.7z M-272.6,209.5c6.6,0,13.1,0,19.7,0c0.5,0,1,0.4,1.5,0.6
			c-0.2,0.5-0.3,1.1-0.7,1.4c-4.6,4.7-9.3,9.3-13.9,13.9c-0.3,0.3-0.6,0.6-1,0.9c-4.1-4.7-6.6-10.6-7-16.8
			C-273.5,209.6-273.1,209.5-272.6,209.5L-272.6,209.5z M-216.6,178.5c-0.5-0.6-0.8-1.3-0.8-2c-0.1-4.2,0-8.5,0-12.7
			c0-1.5-0.7-2.2-1.9-2.3c-1.2,0-1.9,0.8-1.9,2.2c0,1.5,0,3,0,4.5c0,2,0,4,0,6.2c-1.3-0.8-2.3-1.5-3.4-2.1c-0.8-0.4-1.1-1-1.1-1.9
			c0-8.7,0-17.3,0-26c0-1.2-0.3-2.1-1.3-2.7h-1.3c-1,0.7-1.3,1.6-1.3,2.7c0.1,3.7,0,7.4,0,11.2c-1.2-0.3-2.4-0.4-3.6-0.3
			c-1.2,0.1-2.4,0.5-3.4,1.1c0.7-3-0.1-5.3-2.3-7.1c-1-0.8-2.2-1.4-3.4-1.8c-1.2-0.4-2.5-0.5-3.8-0.4c-5.6,0.4-8.5,3.8-8,9.2
			c-2.2-1.1-4.4-1.5-6.9-0.7v-2.1c0-3,0-6.1,0-9.1c0-1.2-0.3-2.1-1.3-2.7h-1.3c-1.1,0.6-1.3,1.5-1.3,2.7c0,8.6,0,17.3,0,25.9
			c0,0.9-0.2,1.5-1.1,1.9c-1.1,0.6-2.1,1.3-3.4,2.1v-1.6c0-9.4,0-18.7,0-28.1c0-1.2-0.2-2.2-1.2-2.9h-1.6c-1,0.7-1.2,1.7-1.2,2.9
			c0,10.5,0,21.1,0,31.6c0,0.9-0.3,1.7-1,2.4c-2,2.3-3.8,4.6-5.6,7c-0.2,0.2-0.3,0.4-0.3,0.7c-0.1,0.3-0.1,0.5,0,0.8
			c0,0.3,0.2,0.5,0.3,0.7c0.2,0.2,0.3,0.4,0.6,0.5c0.9,0.5,1.9,0.3,2.6-0.6c0.2-0.2,0.3-0.5,0.5-0.7c9.1-12.7,21.4-18.2,36.8-16
			c20.4,2.9,34.5,23.2,30.4,43.3c-4,20.1-22.4,32.8-42.6,29.6c-17-2.7-30.5-18.1-30.8-35.4c-0.1-4.4,0.5-8.7,1.9-12.9
			c0.3-0.9,0.4-1.9-0.5-2.4c-0.5-0.3-1.5-0.5-2-0.2c-0.5,0.2-1,1-1.2,1.7c-4.7,15.8-1.4,29.7,10,41.7c0.3,0.3,0.5,0.6,0.7,1
			s0.2,0.8,0.2,1.2c0,4.5,0,9.1,0,13.6c0,0.5,0,1,0.1,1.5c0.2,1,0.9,1.4,1.9,1.4c0.4,0,0.8-0.1,1.1-0.4c0.3-0.3,0.5-0.6,0.6-1
			c0.1-0.5,0.1-0.9,0.1-1.4c0-3.4,0-6.8,0-10.2c0-0.4,0-0.9,0.1-1.4c1.2,0.8,2.2,1.5,3.3,2.1c0.8,0.4,1.1,1,1.1,1.9
			c0,8.6,0,17.1,0,25.7c0,0.4,0,0.9,0,1.3c0,0.3,0.1,0.5,0.3,0.8s0.3,0.4,0.6,0.6c0.2,0.2,0.5,0.2,0.8,0.3c0.3,0,0.6,0,0.8-0.1
			c0.7-0.2,1.4-0.2,2.2-0.1c4.5,1.1,8.5-3.1,7.3-7.5c-0.9-3.4-3.9-4.9-8-4.2v-16.1c10.4,4.1,20.9,4.1,31.3,0v16.1
			c-0.4-0.1-0.7-0.2-1-0.2c-1.2-0.2-2.5-0.1-3.6,0.5c-1.1,0.5-2.1,1.4-2.7,2.5c-0.6,1-0.9,2.2-0.8,3.4c0.1,1.2,0.5,2.4,1.3,3.3
			c1.5,2,4.1,2.8,6.7,2.1c0.5-0.1,1-0.1,1.5,0.1c0.9,0.3,1.7,0.2,2.2-0.6c0.3-0.6,0.5-1.3,0.5-1.9c0-8.7,0-17.4,0-26.1
			c0-0.5,0.2-1.2,0.5-1.4c1.2-0.9,2.5-1.6,4-2.5v29.7c0,2.1,0.6,3,2,3c1.3,0,1.9-0.9,1.9-2.9c0-10.6,0-21.2,0-31.8
			c0-0.7,0.3-1.5,0.8-2C-200.4,220.4-200.4,194.8-216.6,178.5L-216.6,178.5z M-255,167.7c-2.9,0-6-3.1-6.1-5.9
			c0-1.8,0.9-2.7,2.7-2.6c2.9,0.1,5.9,3.2,5.9,6.1C-252.6,166.8-253.5,167.7-255,167.7L-255,167.7z M-241.9,163.7c-0.1,1,0,1.9,0,3
			h-6.5c-0.3-1.9-0.7-3.8-1-5.8c2.7,1,5.7,1,8.4-0.1C-241.4,161.9-241.8,162.8-241.9,163.7L-241.9,163.7z M-241.2,156.3
			c-1,0.9-2.5,1.4-4.1,1.4l-0.2,0.3c-1.3-0.6-2.8-1-4-1.8c-1.5-1-1.4-2.7-0.1-3.8c2.1-1.9,6.3-1.9,8.3,0
			C-240,153.7-240,155.1-241.2,156.3L-241.2,156.3z M-235.8,167.7c-1.5,0-2.4-1-2.4-2.4c-0.1-3,3.1-6.2,6.1-6.2c1.6,0,2.5,1,2.5,2.6
			C-229.7,164.7-232.9,167.8-235.8,167.7L-235.8,167.7z M-258.8,265.1c0.3,0,0.6,0.1,0.8,0.2c0.3,0.1,0.5,0.3,0.7,0.5
			s0.4,0.4,0.5,0.7c0.1,0.3,0.2,0.6,0.2,0.8c0,0.6-0.2,1.1-0.6,1.6c-0.4,0.4-1,0.7-1.5,0.7c-0.3,0-0.6-0.1-0.9-0.2s-0.5-0.3-0.7-0.5
			s-0.4-0.5-0.5-0.7c-0.1-0.3-0.2-0.6-0.1-0.9c0-0.3,0.1-0.6,0.2-0.8c0.1-0.3,0.3-0.5,0.5-0.7s0.4-0.4,0.7-0.5
			C-259.4,265.2-259.2,265.1-258.8,265.1L-258.8,265.1z M-231.9,269.6c-0.3,0-0.6-0.1-0.9-0.2c-0.3-0.1-0.5-0.3-0.7-0.5
			s-0.4-0.5-0.5-0.8s-0.1-0.6-0.1-0.9c0-0.6,0.3-1.1,0.7-1.5s1-0.6,1.6-0.6s1.1,0.3,1.5,0.7c0.4,0.4,0.6,1,0.6,1.6s-0.3,1.1-0.7,1.5
			C-230.7,269.3-231.3,269.6-231.9,269.6L-231.9,269.6z M-245.3,252.7c-1.2,0-2.4,0.3-3.4,1s-1.8,1.6-2.3,2.7
			c-0.5,1.1-0.6,2.3-0.4,3.5c0.2,1.2,0.8,2.3,1.7,3.1c0.9,0.9,1.9,1.4,3.1,1.7c1.2,0.2,2.4,0.1,3.5-0.4s2.1-1.3,2.7-2.3
			c0.7-1,1-2.2,1-3.4c0-1.6-0.7-3.1-1.8-4.3C-242.2,253.3-243.7,252.7-245.3,252.7L-245.3,252.7z M-245.3,261
			c-0.4,0-0.9-0.1-1.2-0.3c-0.4-0.2-0.7-0.6-0.8-1c-0.2-0.4-0.2-0.9-0.2-1.3c0.1-0.4,0.3-0.8,0.6-1.2s0.7-0.5,1.1-0.6
			c0.4-0.1,0.9-0.1,1.3,0.1c0.4,0.2,0.8,0.4,1,0.8c0.3,0.4,0.4,0.8,0.4,1.2c0,0.6-0.2,1.1-0.6,1.6C-244.2,260.7-244.7,261-245.3,261
			L-245.3,261z"/>
	</g>
	<g>
		<defs>
			<rect id="SVGID_00000013180830639086581890000001030298729217463693_" width="272.4" height="292.5"/>
		</defs>
		<clipPath id="SVGID_00000051374043179588465510000002058817552526655360_">
			<use xlink:href="#SVGID_00000013180830639086581890000001030298729217463693_"  style="overflow:visible;"/>
		</clipPath>
		<path style="clip-path:url(#SVGID_00000051374043179588465510000002058817552526655360_);fill:#6A3834;" d="M28.4,138.6
			c0.4,0,0.8-0.1,1.2-0.3c0.3-0.2,0.6-0.6,0.8-0.9c0.1-0.4,0.2-0.8,0.1-1.2s-0.3-0.8-0.6-1.1c-0.3-0.3-0.7-0.5-1.1-0.6
			s-0.8,0-1.2,0.1c-0.4,0.2-0.7,0.4-0.9,0.8c-0.2,0.3-0.3,0.7-0.3,1.2s0.2,1.1,0.6,1.4C27.3,138.4,27.8,138.6,28.4,138.6z M18,132.5
			c0.4,0,0.8-0.1,1.2-0.3s0.6-0.5,0.8-0.9c0.2-0.4,0.2-0.8,0.1-1.2s-0.3-0.8-0.6-1.1c-0.3-0.3-0.6-0.5-1-0.6s-0.8,0-1.2,0.1
			c-0.4,0.2-0.7,0.4-0.9,0.8c-0.2,0.3-0.3,0.7-0.3,1.1c0,0.5,0.2,1.1,0.6,1.5C17,132.2,17.5,132.5,18,132.5L18,132.5z M38.7,128.3
			c0.4,0,0.8-0.1,1.1-0.4c0.3-0.2,0.6-0.6,0.7-0.9c0.1-0.4,0.2-0.8,0.1-1.2c-0.1-0.4-0.3-0.8-0.6-1c-0.3-0.3-0.7-0.5-1.1-0.5
			c-0.4-0.1-0.8,0-1.2,0.2s-0.7,0.4-0.9,0.8c-0.2,0.3-0.3,0.8-0.3,1.2c0,0.5,0.2,1.1,0.6,1.4C37.7,128.2,38.2,128.4,38.7,128.3
			L38.7,128.3z M5.6,132.5c0.4,0,0.8-0.1,1.2-0.3s0.6-0.5,0.8-0.9c0.2-0.4,0.2-0.8,0.2-1.2c-0.1-0.4-0.2-0.8-0.5-1.1s-0.6-0.5-1-0.6
			s-0.8-0.1-1.2,0.1s-0.7,0.4-0.9,0.7c-0.2,0.3-0.4,0.7-0.4,1.1c0,0.5,0.2,1.1,0.5,1.5C4.6,132.2,5.1,132.5,5.6,132.5L5.6,132.5z
			 M58.6,116c-2.8,0-5.7,0-8.5,0c-0.4,0-0.7,0-1.2-0.1c0-2.5,0-4.8,0-7.2c-0.1-3.3,0-6.7-0.4-10c-1-7.8-4.5-14.4-10-19.9
			c-0.6-0.6-0.7-1.1-0.3-1.8c0.6-1.2,1.2-2.4,1.9-3.5c2.2-3.4,4.8-6.6,7.9-9.3c0.8-0.7,1.2-1.5,0.8-2.5s-1.2-1.4-2.3-1.3
			c-4.6,0.1-9,0.8-13.3,2.6c-0.5,0.2-1,0.4-1.4,0.6c2-3.6,4.7-6.8,7.7-9.5c0.8-0.7,1.5-1.5,1-2.7C40.1,50.2,39,50,37.9,50
			c-4.8,0.1-9.5,1-13.8,3c-0.5-1.9-0.9-3.7-1.5-5.5c-1.2-3.7-3.3-6.7-6.6-9c-1.5-1-2.8-1-4.3,0c-3.8,2.6-5.9,6.3-7.1,10.7
			C4.3,50.4,4,51.7,3.7,53c-4.6-2.2-9.4-3-14.3-3c-1,0-1.8,0.3-2.2,1.3s0,1.7,0.7,2.4c0.9,0.9,1.9,1.7,2.7,2.6
			c1.9,2.2,3.8,4.6,5.7,6.8L-4,63.7c-0.4-0.1-0.7-0.3-1-0.4c-4.4-2-9.1-2.7-13.9-2.8c-0.4,0-0.9,0.1-1.2,0.3c-0.4,0.2-0.6,0.6-0.8,1
			c-0.4,0.9-0.1,1.7,0.6,2.3c0.3,0.3,0.6,0.6,0.9,0.9c3.7,3.5,6.9,7.4,9.1,12c0.4,0.8,0.3,1.3-0.4,1.9c-3.4,3.3-6.1,7.3-7.9,11.8
			c-1.7,4.1-2.5,8.5-2.5,13l-7.5,2.9c0.5-4,1-8.1,2.9-11.8c0.3-0.5,0.6-1.2,0.4-1.7c-0.3-0.7-0.8-1.3-1.5-1.7
			c-0.2-0.1-0.4-0.1-0.7-0.1c-0.2,0-0.5,0-0.7,0.1s-0.4,0.2-0.6,0.4c-0.2,0.2-0.3,0.4-0.4,0.6c-0.9,2.3-1.9,4.6-2.5,6.9
			c-0.7,2.6-1,5.3-1.4,8.1c-0.2-0.1-0.5-0.1-0.7-0.2c-0.4-0.2-0.7-0.4-1.1-0.6c-6.1-3.7-12.4-4-18.5-0.1c-7.2,4.6-9.5,11.6-8.9,19.8
			c0.2,2.8,0.8,5.5,1.1,8.3c0.8,6.3,2.6,12.4,5.9,17.9c4.6,7.6,12.9,10.8,21,7.7c1.8-0.7,3.8-0.7,5.5,0.1c6.3,2.4,12.1,1,17.1-3.3
			c0.7-0.6,1.2-0.7,2-0.3c8.1,3.7,16.6,5.4,25.4,4.5c16.7-1.6,29.8-9.4,39.2-23.3c3.9-5.6,6-12.2,6.2-19
			C61.4,116.7,60.6,116,58.6,116L58.6,116z M48.6,120.2c-2.4,10.5-8.6,18.1-17.6,23.4c-11.6,6.9-25.1,6.6-35.2,1.5
			c2.2-8.2,3.8-16.4,3.6-25h49.2V120.2z M5.6,106.1l8.2-9l8,8.7l-7.7,8.5L5.6,106.1z M9.2,116c-3.2,0-6.8,0-10.4,0
			c-0.3,0-0.7-0.4-0.8-0.7c-0.2-0.4-0.5-0.9-0.6-1.4l5.1-5.4L9.2,116z M25.6,108.4l6.8,7.6H18.7L25.6,108.4z M17.6,94.3l8-8.6
			l8.1,8.8l-8,8.6L17.6,94.3z M25.7,80.2l-6.2-6.8c3,0.4,6.4,1.6,9.5,3.4L25.7,80.2z M22,83.2l-7.9,8.5l-8-8.8l7.8-8.5L22,83.2z
			 M2.3,80.3L-1,76.7c3-1.7,6.2-2.8,9.6-3.4L2.3,80.3z M2.3,85.7l8,8.7l-8.1,8.7l-7.9-8.7C-3.3,91.8-0.6,88.9,2.3,85.7L2.3,85.7z
			 M-0.9,105.5l-4.3,4.5c-3-3.3-6.5-5.4-10.5-6.1l6.2-6.8L-0.9,105.5z M41.7,115.9c0.9-1,1.9-2,3.1-3.3v3.3H41.7z M43.7,108
			l-6.6,6.3c-2.8-3-5.4-5.9-7.9-8.7l7.9-8.4c0.9,0.9,1.7,1.6,2.4,2.3c1.4,1.3,2.8,2.7,4.2,4C45.3,105,45.4,106.4,43.7,108L43.7,108z
			 M42.7,92.3l1.7,5.7L44,98.1l-3.4-3.9L42.7,92.3z M40.6,88.1l-3.3,3.5l-8.2-8.9l3.4-3.6C35.8,81.6,38.6,84.6,40.6,88.1L40.6,88.1z
			 M38.4,65.7c0.9-0.2,1.8-0.4,2.6-0.6l-6.8,10c-1.6-0.9-3.4-1.9-5.2-2.9c-1-0.6-0.4-1.1,0.1-1.6C31.8,68.1,35,66.6,38.4,65.7
			L38.4,65.7z M33.2,54.7c-4.1,4.8-7.4,9.5-8.5,15.5l-5.3-1.1c-0.2,0-0.4-0.1-0.6-0.1c-2.1-0.3-2.9-2.1-1.8-3.9
			C20.6,59.2,26,56,33.2,54.7L33.2,54.7z M11.7,44.3c2.2-2.5,2.2-2.5,4.3,0c2.7,3.1,3.5,6.9,4,10.9c0,0.1,0,0.3-0.1,0.4
			c-0.1,0.1-0.1,0.2-0.2,0.3c-1.9,2-3.9,3.9-5.8,5.7c-1.8-1.8-3.7-3.7-5.6-5.6c-0.3-0.2-0.4-0.6-0.5-0.9
			C8.3,51.2,9.1,47.3,11.7,44.3L11.7,44.3z M-5.2,54.9c8.2,0.9,15.3,6.6,17.7,13.6l-9.3,1.6C2.1,64.3-1.2,59.5-5.2,54.9L-5.2,54.9z
			 M-13.1,65.1c3.6,0.5,7,1.9,9.9,3.9c0.7,0.5,1.4,1.1,2.1,1.7c0.5,0.5,0.6,1.1-0.2,1.5c-1.7,0.9-3.4,1.9-5,2.8L-13.1,65.1z
			 M-4.8,79.2c1.3,1.4,2.5,2.7,3.5,3.9l-8,8.6l-3.3-3.7C-10.6,84.5-8,81.6-4.8,79.2L-4.8,79.2z M-14.8,92l2.1,2.3l-3.6,3.8l-0.2-0.1
			C-16,96.2-15.5,94.3-14.8,92z M-11.4,150.4c-2.6,4.4-6.6,6.9-11.9,6.8c-1.6-0.1-3.1-0.4-4.6-1.1c-1.1-0.5-2.3-0.8-3.5-0.8
			c-1.2,0-2.4,0.3-3.5,0.8c-4,1.7-8,1.5-11.8-0.9c-2.3-1.4-4-3.4-5.3-5.8c-2.9-5.3-4.3-11-5.1-17c-0.3-2.2-0.7-4.3-0.9-6.5
			c-0.5-6.2,1-11.7,6.2-15.6c4.5-3.3,10.2-3.3,14.9-0.3c1.1,0.7,2.4,1.2,3.8,1.9c-0.1,1.2-0.2,2.5-0.2,4.1c-1-0.5-1.9-0.9-2.7-1.5
			c-1.2-0.7-2.2-0.7-3,0.2c-0.7,0.9-0.6,2.2,0.5,3.1c3.7,3.1,11,3.1,14.6,0c1-0.9,1.2-2,0.5-3s-1.8-1-3-0.3
			c-0.8,0.5-1.7,0.9-2.8,1.5c0.1-1.6,0.2-2.8,0.3-4c0-0.1,0-0.2,0.1-0.3c0-0.1,0.1-0.2,0.2-0.2c1.8-0.9,3.5-1.8,5.3-2.6
			c7.9-3.3,15.9,1.7,18.1,9.4c1,3.4,0.9,6.8,0.3,10.2c-0.9,4.6-1.5,9.3-2.7,13.8C-8.5,145.1-9.9,147.8-11.4,150.4L-11.4,150.4z
			 M52.2,134.7c-8.5,13.2-20.6,20.6-36.2,22.2c-7.8,0.8-15.4-0.6-22.6-3.6c-0.4-0.2-0.8-0.3-1.2-0.6l2-3.7
			c12.2,5.4,24.3,5.5,36.3-0.4c11.8-5.9,19.7-15.2,22.5-28.4h4.2C56.7,125.4,55,130.4,52.2,134.7L52.2,134.7z M11.9,144.8
			c0.4,0,0.8-0.1,1.1-0.4c0.3-0.2,0.6-0.6,0.8-0.9c0.2-0.4,0.2-0.8,0.1-1.2c-0.1-0.4-0.3-0.8-0.6-1c-0.3-0.3-0.7-0.5-1.1-0.5
			c-0.4-0.1-0.8,0-1.2,0.1c-0.4,0.2-0.7,0.4-0.9,0.8c-0.2,0.3-0.3,0.7-0.3,1.2s0.2,1.1,0.6,1.4C10.8,144.6,11.4,144.8,11.9,144.8
			L11.9,144.8z"/>
	</g>
	<g>
		<defs>
			<rect id="SVGID_00000062882016567224978190000012783491172486345660_" width="272.4" height="292.5"/>
		</defs>
		<clipPath id="SVGID_00000049943832759330189420000000670129016587928974_">
			<use xlink:href="#SVGID_00000062882016567224978190000012783491172486345660_"  style="overflow:visible;"/>
		</clipPath>
		<path style="clip-path:url(#SVGID_00000049943832759330189420000000670129016587928974_);fill:#6A3834;" d="M315.1,178.3h-37V213
			h6.4c-1.3,1.7-2.6,3.2-3.7,4.8c-0.6,0.9-1.2,1.2-2.2,1.2c-8.9,0-17.7,0-26.6,0h-1.6v-12h-4.2v11.9H227V207h-4.2v12H191v20.9
			c-4.8-1.9-8.6-1.2-11.3,2.2c-1.1,1.4-1.8,3.2-1.9,5c-0.1,1.8,0.4,3.6,1.4,5.1c2.4,3.7,5.9,4.5,11.6,2.9v3.7h-16.3v14.6h11.8
			c-0.1-1.3-0.1-2.6-0.2-4.1h100.6v4.1h11.8v-14.7h-16.2c-0.7-2.5-0.5-3,1.4-4.3c4.1-2.7,8.3-5.4,12.4-8c0.5-0.4,1.1-0.6,1.7-0.7
			c8.9-0.9,15.3-6.9,16.8-15.8c0-0.2,0.1-0.3,0.2-0.5V225c-0.2-0.8-0.4-1.7-0.6-2.5c-0.9-3.4-2.7-6.4-5.3-8.8
			c-0.3-0.3-0.5-0.6-0.6-1h6.5v-34.4H315.1z M190.3,249.5c-0.5,1.6-2.4,2.7-4.2,2.5c-1.1-0.1-2-0.6-2.8-1.4s-1.2-1.8-1.3-2.8
			c-0.1-1.1,0.2-2.1,0.8-3s1.5-1.5,2.6-1.8c1.9-0.5,4.3,0.4,5,2.4h-3.8v4.1H190.3z M182.1,269.2h-3.2V263h3.2V269.2z M195.4,223.2
			H278v35.4h-82.7L195.4,223.2L195.4,223.2z M291.2,263h3.2v6.3h-3.2V263z M286.9,263v2H186.4v-2H286.9z M282.3,250.6v-11.5
			c2.3,2.7,5.3,4.7,8.7,5.8L282.3,250.6z M311,226.9c0,1.9-0.3,3.8-1,5.6s-1.7,3.4-3.1,4.8c-1.3,1.4-2.9,2.5-4.7,3.3
			c-1.8,0.8-3.6,1.2-5.5,1.2c-7.6,0.2-14.4-6.3-14.6-13.9c-0.1-1.9,0.3-3.8,1-5.6s1.7-3.4,3-4.8c1.3-1.4,2.9-2.5,4.7-3.3
			c1.8-0.8,3.6-1.2,5.5-1.2C304.1,212.8,310.8,219.2,311,226.9L311,226.9z M310.9,208.7h-28.6v-26.3h28.6V208.7z M199.7,174.9
			c6.3,6.2,12.5,12.5,18.7,18.7c0.3,0.3,0.6,0.6,0.7,1c0.2,0.4,0.2,0.8,0.2,1.2c-0.1,2.5,0,5,0,7.5H254c0-2.5,0-4.9,0-7.2
			c0-0.5,0-1,0.2-1.4c0.2-0.5,0.5-0.9,0.8-1.2c6.2-6.2,12.4-12.4,18.6-18.6c0.3-0.3,0.6-0.7,0.8-1.1c0.2-0.4,0.3-0.9,0.2-1.3
			c-0.1-4.2,0-8.3,0-12.5v-4h-76c0,0.5-0.1,1-0.1,1.5c0,4.9,0,9.9,0,14.8c0,0.5,0,0.9,0.2,1.4C199,174.2,199.3,174.6,199.7,174.9
			L199.7,174.9z M249.8,199.3h-26.3v-3.4h26.3V199.3z M202.9,160.3h67.6c0,0.5,0.1,1,0.1,1.4c0,3.1,0.1,6.2,0,9.3
			c0,0.7-0.3,1.5-0.8,2c-5.9,6-11.8,11.9-17.8,17.8c-0.5,0.5-1.2,0.8-1.9,0.8c-8.9,0.1-17.8,0.1-26.7,0c-0.6,0-1.1-0.2-1.6-0.5
			c-5.2-5.1-10.4-10.3-15.5-15.5c-0.1-0.1-0.2-0.3-0.2-0.4h30.6v-4.1H203v-10.8H202.9z M291.4,206.3c1.2,0,2.4-0.4,3.4-1.1
			c1-0.7,1.8-1.6,2.2-2.8c0.4-1.1,0.6-2.3,0.3-3.5c-0.2-1.2-0.8-2.3-1.7-3.1c-0.9-0.8-1.9-1.4-3.1-1.6c-1.2-0.2-2.4-0.1-3.5,0.4
			s-2,1.3-2.7,2.3s-1,2.2-1,3.4c0,1.6,0.7,3.2,1.8,4.3S289.8,206.3,291.4,206.3L291.4,206.3z M291.3,198.2c0.5,0,1,0.2,1.4,0.6
			c0.4,0.4,0.6,0.9,0.6,1.4s-0.2,1-0.6,1.4s-0.9,0.6-1.4,0.6s-1-0.2-1.4-0.6c-0.4-0.4-0.6-0.9-0.6-1.4s0.2-1,0.6-1.4
			C290.3,198.4,290.8,198.2,291.3,198.2L291.3,198.2z M243.8,216.5V206h-14.1v10.6L243.8,216.5z M233.8,210.1h5.9v2.4h-5.9V210.1z
			 M253.5,162.8h-23.6v3.9h23.6V162.8z M238.1,152.4h3.9v-4h-3.9V152.4z M248.6,152.4v-4h-3.7v4H248.6z M220,151.6
			c-0.1-1.9,0-3.9,2.2-5.1c2.2-1.1,3.9,0.3,5.8,1.3c1.1-3.3,2.6-6.3,5.4-8.2c2.9-2,6.1-2.9,9.6-2.2c7.8,1.7,10.8,7,10.9,14.2
			l7.5,2.4l2.3-2.9c-0.8-0.5-1.4-0.9-2.1-1.3c-0.9-0.4-1.7-0.8-2.7-1.1c-0.8-0.2-1.1-0.6-1.2-1.4c-1.2-7.1-6.6-12.7-13.5-14
			c-3.4-0.7-6.9-0.2-10.1,1.2c-3.2,1.4-5.8,3.8-7.6,6.7c-0.2,0.3-0.4,0.6-0.7,0.7c-0.3,0.2-0.7,0.2-1,0.1c-3.9-0.3-6.9,1.6-8.4,5.3
			c-0.3,0.5-0.7,0.9-1.2,1.1c-1.8,0.8-3.6,1.6-5.6,2.4l2.4,3.1L220,151.6z M260.4,162.8h-3.9v3.9h3.9V162.8z M267.2,162.7h-3.9v4
			h3.9V162.7z M231.2,152.4h3.9v-3.9h-3.9V152.4z M269.5,238.2h4v-4h-4V238.2z M251.2,235.9c-1.3,0-2.6,0.6-3.5,1.5
			c-0.9,1-1.4,2.2-1.4,3.6c0,1.3,0.5,2.6,1.4,3.6c0.9,0.9,2.2,1.5,3.5,1.5c0.7,0,1.4-0.1,2-0.4c0.6-0.2,1.2-0.6,1.7-1.1
			s0.9-1,1.1-1.7c0.3-0.6,0.4-1.3,0.4-2s-0.1-1.4-0.4-2c-0.3-0.6-0.6-1.2-1.1-1.7s-1.1-0.8-1.7-1.1
			C252.6,236,251.9,235.8,251.2,235.9L251.2,235.9z M251.3,241.8c-0.3,0-0.7-0.5-1-0.8c0.3-0.3,0.6-0.9,1-1c0.3-0.1,0.7,0.4,1.3,0.9
			C252.1,241.4,251.7,241.8,251.3,241.8L251.3,241.8z M307.9,185h-4v3.9h4V185z M250.9,229.5c-9.7,0.8-19.4,2.1-29.1,3.3
			c-1.6,0.2-3.3,0.4-4.8,1c-3.4,1.5-5,5-4.4,8.7c0.6,3.4,3.4,6,7.4,6.5c10,1.2,20,2.3,30.1,3.4c6.9,0.8,12.7-4.3,12.9-11.3
			C262.9,234.4,257.4,228.9,250.9,229.5L250.9,229.5z M220.5,244.9c-0.8,0-1.6-0.2-2.2-0.6c-0.7-0.4-1.2-1-1.5-1.7s-0.4-1.5-0.3-2.3
			c0.1-0.8,0.5-1.5,1-2c0.5-0.6,1.2-0.9,2-1.1c0.8-0.2,1.6-0.1,2.3,0.2s1.3,0.8,1.8,1.4c0.4,0.6,0.7,1.4,0.7,2.2c0,1-0.4,2-1.1,2.8
			C222.5,244.4,221.5,244.8,220.5,244.9L220.5,244.9z M227.3,245.7c0.4-1.6,1-3.1,1-4.7c0-1.6-0.6-3.1-1-4.7l14.1-1.6
			c-2.4,4.3-2.4,8.4,0.1,12.7L227.3,245.7z M251.4,248.4c-4.1,0.1-7.5-3.4-7.6-7.5c0-4.1,3.5-7.6,7.5-7.5c2,0,3.8,0.8,5.2,2.2
			c1.4,1.4,2.1,3.3,2.1,5.2c0,2-0.8,3.8-2.1,5.2C255.2,247.6,253.3,248.4,251.4,248.4L251.4,248.4z M301,184.9h-3.9v3.9h3.9V184.9z
			 M301.8,224.9l4.2-3.8l-3.3-3.4c-1.3,1.4-2.6,2.9-4.2,4.7v-6.2h-4.1v5.9l-0.4,0.2l-3.6-4.1l-3.6,2.9c1.5,1.4,2.9,2.7,4.6,4.2h-6.1
			v4.2h5.8l0.1,0.3l-4.3,3.9l3.4,3.2l4.2-4.5v6.1h4.2v-5.9l0.4-0.2l3.8,4.1l3.3-2.9l-4.5-4.2h6.1v-4.2H302
			C301.9,225.1,301.9,225,301.8,224.9L301.8,224.9z M269.5,254h3.9v-12.8h-3.9V254z M200.3,256.1h3.9v-3.9h-3.9V256.1z M207.1,256.1
			h3.9v-3.9h-3.9V256.1z M273.5,227.4h-3.9v4h3.9V227.4z M294.2,184.9h-9v3.9h9V184.9z M218.4,242.9h3.9v-4h-3.9V242.9z M214,256
			h3.7v-3.9H214V256z"/>
	</g>
	<g>
		<defs>
			<rect id="SVGID_00000174584333850236156930000012645138799989903032_" width="272.4" height="292.5"/>
		</defs>
		<clipPath id="SVGID_00000000183058931881689820000007297277566901381794_">
			<use xlink:href="#SVGID_00000174584333850236156930000012645138799989903032_"  style="overflow:visible;"/>
		</clipPath>
		<path style="clip-path:url(#SVGID_00000000183058931881689820000007297277566901381794_);fill:#6A3834;" d="M440.9,110
			c0,0.5,0.2,0.9,0.5,1.2c0.3,0.3,0.8,0.5,1.2,0.5c1,0.1,1.9-0.4,2-1.5c0.1-1.5,0.1-3,0-4.5c-0.1-1-0.9-1.5-1.9-1.5
			c-0.2,0-0.4,0-0.7,0.1c-0.2,0.1-0.4,0.2-0.6,0.4c-0.2,0.2-0.3,0.3-0.4,0.6c-0.1,0.2-0.1,0.4-0.1,0.7c-0.1,0.6,0,1.3,0,1.9
			C440.9,108.6,440.9,109.3,440.9,110z M441.7,70.7c0.8,0,1.6-0.1,2.3-0.5c0.7-0.3,1.4-0.8,2-1.3c0.6-0.6,1-1.2,1.3-2
			c0.3-0.7,0.5-1.5,0.5-2.3c0-0.8-0.2-1.6-0.5-2.3s-0.8-1.4-1.3-2c-0.6-0.6-1.2-1-2-1.3c-0.7-0.3-1.5-0.5-2.3-0.4
			c-0.8,0-1.6,0.2-2.3,0.5c-0.7,0.3-1.4,0.8-2,1.3c-0.6,0.6-1,1.2-1.3,2c-0.3,0.7-0.5,1.5-0.5,2.3c0,1.6,0.7,3.1,1.8,4.3
			C438.6,70.1,440.1,70.8,441.7,70.7L441.7,70.7z M441.8,62.5c0.6,0,1.1,0.3,1.5,0.7s0.6,1,0.7,1.5c0,0.6-0.2,1.1-0.7,1.5
			c-0.4,0.4-1,0.6-1.6,0.6c-0.3,0-0.6,0-0.8-0.1c-0.3-0.1-0.5-0.3-0.7-0.5s-0.4-0.4-0.5-0.7c-0.1-0.3-0.2-0.5-0.2-0.8s0-0.6,0.2-0.9
			c0.1-0.3,0.3-0.5,0.5-0.7s0.5-0.4,0.7-0.5C441.2,62.5,441.5,62.5,441.8,62.5z M432.7,105.8c-0.1,1.5-0.1,3,0,4.5
			c0.1,1,1,1.5,2,1.5c0.5,0,0.9-0.2,1.2-0.5c0.3-0.3,0.5-0.8,0.5-1.2c0.1-0.6,0-1.3,0-1.9s0.1-1.4,0-2.1c0-0.2-0.1-0.5-0.1-0.7
			c-0.1-0.2-0.2-0.4-0.4-0.6c-0.2-0.2-0.3-0.3-0.6-0.4c-0.2-0.1-0.4-0.1-0.7-0.1C433.6,104.3,432.8,104.8,432.7,105.8z M487.6,84.5
			c3.8,0.1,7.6-3.8,7.4-7.6c0-1.1-0.5-2.2-1.2-3s-1.7-1.4-2.8-1.6c-3.9-0.7-8.2,3-8.2,7.1C482.8,82.3,484.8,84.4,487.6,84.5
			L487.6,84.5z M489.9,76.2c0.9,0,1.2,0.5,1.1,1.3c-0.2,1.4-1.7,2.9-3.1,3.1c-0.8,0.1-1.3-0.2-1.3-1.1
			C486.7,78,488.5,76.2,489.9,76.2L489.9,76.2z M554.7,103.7c-0.9-2.9-2.7-5.4-5.2-7.3c-2.4-1.8-5.4-2.8-8.4-2.8c-1.7,0-3.4,0-5.3,0
			v-1.5c0-5.5,0-11,0-16.5c0-1.5-0.9-2.4-2.1-2.3c-1.1,0.1-1.7,1-1.7,2.5c0,5.4,0,10.7,0,16.1v1.6h-20.5V63.3H532c0,0.9,0,1.9,0,2.8
			c0,1.3,0.8,2.1,1.9,2.1c1.1,0,1.9-0.8,1.9-2.1c0-4.3,0-8.6,0-12.9c0-1.5-0.7-2.2-2.2-2.2c-7.9,0-15.8,0-23.8,0
			c-1.6,0-2.2,0.7-2.2,2.3c0,2.9,0,5.7,0,8.6c0,10,0,20,0,30v1.6H503V54c0-2.5-0.4-3-3-3h-22.2c-2.5,0-3,0.5-3,3v39.5H462V76.1h5.2
			c2.6,0,3-0.5,3-3c0-10.8,0-21.5,0-32.3c0-1.2-0.2-2.2-1.2-2.9h-28.8c-0.2,0.2-0.6,0.4-0.7,0.7c-0.2,0.7-0.5,1.6-0.2,2
			c0.2,0.3,0.5,0.6,0.9,0.7c0.3,0.2,0.7,0.3,1.1,0.3c5.1,0.1,10.1,0,15.2,0h1.5v76.6h-30.3V41.9c1.2,0,2.3,0,3.5,0
			c1.1,0,2.1-0.1,2.6-1.2c0.5-1.2-0.2-1.9-1-2.6H425c-1.1,0.6-1.3,1.6-1.3,2.8c0,35,0,70.1,0,105.1v20.8c0,2.3,0.5,2.8,2.9,2.8h6
			c2.8,0,3.2-0.4,3.2-3.1c0-14.1,0-28.3,0-42.4v-1.7h71.6c0.5,0,0.9,0,1.4,0c0.4,0,0.8-0.2,1.2-0.5c0.3-0.3,0.5-0.7,0.5-1.2
			c0.1-0.4,0-0.9-0.3-1.2c-0.2-0.4-0.6-0.6-1-0.7c-0.5-0.1-1.1-0.2-1.7-0.2c-14.7,0-29.5,0-44.2,0H462v-4.4h77.9c0.5,0,0.9,0,1.4,0
			c1.5-0.1,2.9-0.7,3.9-1.7c1.1-1,1.7-2.4,1.9-3.8c0.1-1.4-0.2-2.8-1-3.9s-1.9-2-3.2-2.4c-0.9-0.2-1.8-0.3-2.8-0.3
			c-25.5,0-50.9,0-76.4,0H462v-4.5h78.1c0.4,0,0.9,0,1.3,0c2.7,0.1,5.3,1.3,7.2,3.2c1.9,1.9,3,4.5,3,7.2c0,1.4-0.2,2.7-0.7,4
			s-1.3,2.4-2.2,3.4c-1,1-2.1,1.8-3.4,2.3c-1.3,0.5-2.6,0.8-4,0.8c-7.6,0.1-15.1,0-22.6,0c-1.9,0-2.8,0.6-2.8,1.9s0.9,2,2.7,2
			c2.5,0,5,0,7.5,0c0.4,0,0.7,0,1.2,0.1v1.7c0,14.3,0,28.6,0,42.9c0,2,0.6,2.6,2.6,2.6c2.2,0,4.4,0,6.6,0c2.5,0,3-0.5,3-3
			c0-14.2,0-28.4,0-42.7v-1.6c0.8,0,1.3,0,1.9,0c3,0,6-1,8.4-2.8s4.2-4.3,5.1-7.2c0.3-0.8,0.5-1.7,0.7-2.6v-3.6
			C555.2,105.4,555,104.5,554.7,103.7L554.7,103.7z M511.5,54.9H532v4.3h-20.4v-4.3H511.5z M431.9,165.8h-4.2v-43.3h4.2V165.8z
			 M461.9,42h4.3v30.3h-4.3V42z M463.4,105.8h76.8c0.4,0,0.9,0,1.3,0.1c0.5,0.1,0.9,0.3,1.2,0.7c0.3,0.4,0.5,0.8,0.5,1.3
			c0.1,0.5,0,0.9-0.3,1.3c-0.2,0.4-0.6,0.7-1,0.8c-0.6,0.2-1.2,0.3-1.8,0.3c-25.6,0-51.2,0-76.8,0h-1.4v-4.4
			C462.4,105.8,462.9,105.8,463.4,105.8z M478.6,55H499v4.2h-20.4V55z M499,93.5h-20.4V63.3H499V93.5z M535.4,165.7h-4.3v-43.2h4.3
			V165.7z M515.7,80.2c0.1,1.2,0.7,2.3,1.6,3.1c0.9,0.8,2.1,1.2,3.3,1.2c3.6,0,7.2-3.6,7.2-7.2c0.1-1.2-0.3-2.4-1.1-3.3
			s-1.8-1.5-3-1.6C519.6,71.7,515.2,76,515.7,80.2L515.7,80.2z M520.3,80.6c-0.2-0.2-0.7-0.6-0.7-1.1c-0.2-1.5,1.8-3.5,3.3-3.3
			c0.2,0.1,0.5,0.2,0.7,0.4c0.2,0.2,0.3,0.4,0.4,0.7C524.1,78.7,522.2,80.6,520.3,80.6L520.3,80.6z M449.2,109.9
			c0,0.5,0.2,1,0.6,1.3s0.8,0.5,1.3,0.5c1.1-0.1,1.8-0.7,1.9-1.8c0.1-1.3,0.1-2.6,0-4c-0.1-1.1-0.8-1.7-1.9-1.7
			c-0.2,0-0.5,0-0.7,0.1s-0.4,0.2-0.6,0.4c-0.2,0.2-0.3,0.4-0.4,0.6s-0.2,0.5-0.2,0.7c0,0.6,0,1.2,0,1.8
			C449.2,108.6,449.2,109.3,449.2,109.9L449.2,109.9z"/>
	</g>
	<g>
		<defs>
			<rect id="SVGID_00000003070483574688713690000007576357658885777049_" width="272.4" height="292.5"/>
		</defs>
		<clipPath id="SVGID_00000101826106111183668930000008985172455995507900_">
			<use xlink:href="#SVGID_00000003070483574688713690000007576357658885777049_"  style="overflow:visible;"/>
		</clipPath>
		<path style="clip-path:url(#SVGID_00000101826106111183668930000008985172455995507900_);fill:#6A3834;" d="M696.3,248.5
			c-1.2,0-2.4,0.4-3.4,1c-1,0.7-1.8,1.6-2.2,2.7c-0.4,1.1-0.6,2.3-0.3,3.5c0.2,1.2,0.8,2.3,1.7,3.1s1.9,1.4,3.1,1.7
			c1.2,0.2,2.4,0.1,3.5-0.3c1.1-0.5,2.1-1.2,2.7-2.2c0.7-1,1-2.2,1-3.4c0-0.8-0.1-1.6-0.4-2.3c-0.3-0.7-0.8-1.4-1.3-2
			c-0.6-0.6-1.2-1-2-1.3C697.9,248.7,697.1,248.5,696.3,248.5L696.3,248.5z M696.4,256.8c-0.3,0-0.6,0-0.9-0.1
			c-0.3-0.1-0.5-0.3-0.7-0.5c-0.2-0.2-0.4-0.5-0.5-0.7c-0.1-0.3-0.2-0.6-0.2-0.9c0-0.6,0.3-1.1,0.7-1.5s1-0.6,1.5-0.6
			c0.6,0,1.1,0.2,1.5,0.6c0.4,0.4,0.7,0.9,0.7,1.5c0,0.3,0,0.6-0.1,0.8c-0.1,0.3-0.3,0.5-0.5,0.7s-0.4,0.4-0.7,0.5
			C697,256.7,696.7,256.8,696.4,256.8L696.4,256.8z M709.2,224.1c8.7-0.2,17.2-8.8,17.1-17.6c0-6.8-5.3-11.5-12.1-10.6
			c-7.6,1-14.2,7-15.8,14.5C696.7,218.1,701.6,224.2,709.2,224.1L709.2,224.1z M715.4,199.7c4.3-0.1,7.1,2.7,7.1,7
			c0,6.6-6.9,13.5-13.4,13.6c-4.4,0.1-7.2-2.8-7.1-7.1C702,206.6,708.9,199.8,715.4,199.7L715.4,199.7z M770.7,260.7
			c1.2,0,2.4-0.4,3.4-1c1-0.7,1.8-1.6,2.2-2.7c0.5-1.1,0.6-2.3,0.3-3.5c-0.2-1.2-0.8-2.3-1.7-3.1c-0.8-0.9-1.9-1.4-3.1-1.7
			c-1.2-0.2-2.4-0.1-3.5,0.3c-1.1,0.5-2.1,1.2-2.7,2.2c-0.7,1-1,2.2-1,3.4c0,0.8,0.1,1.6,0.4,2.3c0.3,0.7,0.7,1.4,1.3,2s1.2,1,2,1.3
			S769.9,260.7,770.7,260.7L770.7,260.7z M770.6,252.4c0.6,0,1.1,0.2,1.5,0.7c0.4,0.4,0.7,1,0.7,1.5c0,0.3-0.1,0.6-0.2,0.8
			c-0.1,0.3-0.3,0.5-0.5,0.7s-0.4,0.4-0.7,0.5s-0.5,0.2-0.8,0.2s-0.6,0-0.8-0.1c-0.3-0.1-0.5-0.2-0.7-0.4c-0.2-0.2-0.4-0.4-0.5-0.7
			s-0.2-0.5-0.2-0.8s0-0.6,0.1-0.9c0.1-0.3,0.3-0.5,0.5-0.8c0.2-0.2,0.5-0.4,0.7-0.5C770,252.5,770.3,252.4,770.6,252.4L770.6,252.4
			z M712.1,233.7c4.7,0,9.3-1.4,13.2-4s7-6.3,8.8-10.6s2.3-9.1,1.4-13.7c-0.9-4.6-3.2-8.8-6.5-12.2c-3.3-3.3-7.5-5.6-12.1-6.5
			s-9.4-0.5-13.7,1.3s-8.1,4.8-10.7,8.7s-4,8.5-4,13.2c0,6.3,2.5,12.3,6.9,16.7C699.8,231.1,705.9,233.6,712.1,233.7L712.1,233.7z
			 M712.3,190.1c3.9,0,7.8,1.2,11,3.4c3.3,2.2,5.8,5.3,7.3,8.9s1.9,7.6,1.1,11.5c-0.8,3.9-2.7,7.4-5.5,10.2s-6.3,4.6-10.2,5.4
			c-3.9,0.8-7.8,0.3-11.5-1.2c-3.6-1.5-6.7-4.1-8.9-7.4c-2.2-3.3-3.3-7.1-3.3-11.1c0-2.6,0.5-5.2,1.5-7.6c1-2.4,2.5-4.6,4.3-6.4
			c1.8-1.8,4.1-3.3,6.5-4.3C707.1,190.6,709.7,190.1,712.3,190.1L712.3,190.1z M761.8,224.7c-1,0.1-1.7,0.8-1.6,1.9
			c0,1.1,0.8,1.8,1.9,1.8c0.9,0,1.7,0,2.6,0c0.8,0,1.8,0,2.7,0c0.2,0,0.5,0,0.7-0.1s0.4-0.2,0.6-0.4s0.3-0.4,0.4-0.6
			c0.1-0.2,0.1-0.5,0.1-0.7c0.1-1.1-0.5-1.9-1.6-2C765.6,224.6,763.7,224.6,761.8,224.7z M707.7,215.4c0.8,0.7,1.8,0.6,2.5-0.2
			c0.5-0.6,0.8-1.5,1.3-2.2c0.4-0.5,0.8-1.1,1.3-1.3c1.4-0.5,2.5-1.3,3.2-2.7c0.4-0.8,0.8-1.6,1.1-2.4c0.6-1.3-0.4-2.7-2-2.7
			c-1.3,0.2-1.9,1.3-2.3,2.6c-0.1,0.4-0.3,0.7-0.6,1s-0.6,0.5-1,0.6c-0.7,0.2-1.3,0.6-1.9,1c-0.5,0.5-1,1.1-1.2,1.8
			c-0.3,0.6-0.5,1.2-0.8,1.8C706.8,213.9,706.9,214.7,707.7,215.4L707.7,215.4z M797.8,228.1c1.2,0.4,2-0.3,2.5-1.2v-26.7
			c-0.1-0.1-0.2-0.1-0.2-0.2c-2.1-8.6-7.3-12.7-16.1-12.7h-28.4c0-4.4,0-8.6,0-12.8c0-2.2-0.6-2.8-2.8-2.8c-17.5,0-35.1,0-52.6,0
			c-0.4,0-0.9,0-1.3,0.1c-1,0.3-1.6,0.9-1.5,1.9c0,1.1,0.7,1.6,1.7,1.8c0.4,0,0.9,0.1,1.3,0h51.2v68.8c-0.1,0-0.2,0.1-0.3,0.1
			c-12.8,0-25.6,0-38.4,0c-0.3,0-0.5-0.1-0.7-0.2c-0.2-0.1-0.4-0.3-0.6-0.5c-7.9-10.4-22.6-10.4-30.5,0c-0.2,0.3-0.5,0.7-0.8,0.7
			c-2.6,0.1-5.1,0-7.6,0v-68.9h1.5c5.3,0,10.5,0,15.8,0c0.4,0,0.8-0.1,1.1-0.3c0.4-0.2,0.7-0.4,0.9-0.7c1-1.3-0.2-2.9-2.1-2.9
			c-6.2,0-12.5,0-18.8,0c-1.8,0-2.4,0.7-2.4,2.5c0,26.6,0,53.2,0,79.8c0,1.9,0.6,2.5,2.6,2.5c2.1,0,4.2,0,6.2,0
			c1.7,11.2,10.6,16.8,18.4,16.9c4.2,0.1,8.2-1.2,11.5-3.7c4.4-3.3,6.9-7.7,7.7-13.2h22.4c0.4,0,0.8,0,1.2,0
			c1.1-0.1,1.9-0.8,1.9-1.8c0-0.5-0.2-1-0.5-1.3c-0.3-0.4-0.8-0.6-1.3-0.6c-0.4,0-0.8,0-1.2,0h-22.5c-0.3-1.6-0.6-3-1-4.3h38.6
			c-0.3,1.5-0.7,2.9-1,4.3c-1.3,0-2.5,0-3.8,0c-1.4,0-2.2,0.7-2.2,1.9s0.8,1.9,2.2,1.9c1.3,0,2.5,0,3.8,0
			c1.7,11.2,10.7,16.8,18.4,16.9c4.2,0.1,8.2-1.2,11.5-3.7c4.4-3.3,6.9-7.7,7.6-13.2c2.9,0,5.6,0,8.4,0c1.2,0,2-0.3,2.5-1.4v-20.6
			c-0.7-0.8-1.4-1.6-2.6-1.1c-1.2,0.5-1.3,1.5-1.3,2.5c0,2.7,0,5.4,0,8.2c-0.2,0.1-0.5,0.1-0.7,0.1c-2.8,0-5.7,0-8.5,0
			c-0.2,0-0.5-0.1-0.7-0.2c-0.2-0.1-0.4-0.2-0.6-0.4c-7.2-10.1-22-10.6-29.9-1.1c-0.1,0.1-0.3,0.2-0.4,0.3V191h1.4
			c9.2,0,18.3,0,27.5,0c7.3,0,11.8,4.6,11.8,11.9c0,7.6,0,15.2,0,22.7C796.5,226.8,796.7,227.8,797.8,228.1L797.8,228.1z
			 M677.6,252.6h-4.9v-4.2h5.9C678.2,249.7,677.9,251.1,677.6,252.6L677.6,252.6z M696.2,269.6c-3.9-0.1-7.6-1.8-10.3-4.6
			c-2.7-2.8-4.2-6.5-4.2-10.4s1.6-7.6,4.3-10.4c2.7-2.8,6.4-4.4,10.3-4.5c8.2,0,15,6.8,14.9,15c0,4-1.7,7.7-4.5,10.5
			C704,268,700.2,269.6,696.2,269.6L696.2,269.6z M796.4,248.3v4.3h-7l-1-4.3H796.4z M770.6,239.7c2.9,0,5.8,0.9,8.3,2.5
			s4.4,4,5.5,6.7s1.4,5.7,0.9,8.6c-0.6,2.9-2,5.6-4.1,7.7s-4.7,3.5-7.6,4.1c-2.9,0.6-5.9,0.3-8.6-0.8c-2.7-1.1-5.1-3-6.7-5.5
			c-1.7-2.5-2.5-5.3-2.6-8.3c0-4,1.6-7.8,4.4-10.6C762.8,241.3,766.6,239.7,770.6,239.7L770.6,239.7z M789.4,220.2
			c2,0,2.6-0.7,2.6-2.6c0-4.8,0-9.6,0-14.4c0-4.7-3-7.6-7.7-7.6c-7.2,0-14.4,0-21.6,0c-2.1,0-2.6,0.6-2.6,2.7c0,6.4,0,12.9,0,19.3
			c0,2.1,0.6,2.7,2.7,2.7c4.4,0,8.8,0,13.2,0C780.5,220.2,785,220.2,789.4,220.2L789.4,220.2z M764.1,199.4h1.3c6.3,0,12.6,0,18.9,0
			c2.8,0,4,1.2,4,4c0,3.9,0,7.8,0,11.7c0,0.4,0,0.7-0.1,1.2h-24.1L764.1,199.4L764.1,199.4z"/>
	</g>
	<g>
		<defs>
			<rect id="SVGID_00000003094312492623403640000012692742930155489418_" width="272.4" height="292.5"/>
		</defs>
		<clipPath id="SVGID_00000065045849369168432470000016496547725149940668_">
			<use xlink:href="#SVGID_00000003094312492623403640000012692742930155489418_"  style="overflow:visible;"/>
		</clipPath>
		<path style="clip-path:url(#SVGID_00000065045849369168432470000016496547725149940668_);fill:#6A3834;" d="M987.2,119.5
			c5.2-6.5,1.1-14.6-5.3-16.3c-2.2-0.6-4.3-1.2-6.4-1.8c-1.1-0.3-2.1-0.8-2.9-1.6c-0.8-0.8-1.4-1.7-1.8-2.8
			c-0.8-2.1-1.7-4.1-2.5-6.2c-3.1-7.5-11.9-8.9-17.2-2.8c-5.9,6.8-6.9,17.1-2.4,25.1c4,7.2,10,11.8,18,13.8c1.4,0.3,2.9,0.4,4.1,0.5
			C977.5,127.1,983.1,124.7,987.2,119.5z M975.9,123c-5.2,1.5-10.1,0.6-14.6-2.1c-7-4.1-11.2-10.1-11.8-17.2
			c0.1-5.8,1.4-9.9,4.5-13.4c3.3-3.8,8.8-2.9,10.7,1.7c0.8,2,1.7,3.9,2.4,6c1.4,4,4.2,6.2,8.2,7.2c2.1,0.5,4.2,1.1,6.3,1.8
			c4.3,1.6,5.7,6.6,2.8,10.2C982.2,120.1,979.2,122.1,975.9,123L975.9,123z M1026.4,46.2h-54.6c0-2,0-3.9,0-5.8
			c0-1.7-0.8-2.4-2.4-2.4c-8,0-15.9,0-23.9,0c-1.7,0-2.4,0.7-2.5,2.4c0,1.9,0,3.8,0,5.8c-3.2,0-6.3,0-9.4,0c-2.3,0-2.9,0.6-2.9,3
			v109.3c0,2.4,0.6,3,3,3h92.8c2.4,0,3-0.6,3-2.9V49.2C1029.5,46.8,1028.9,46.2,1026.4,46.2z M1020.5,50.4c-1.9,1.3-3.5,2.4-5.2,3.4
			c-0.1,0-0.2,0.1-0.3,0c-0.1,0-0.2,0-0.3-0.1c-1.6-1.1-3.2-2.1-5.1-3.4L1020.5,50.4L1020.5,50.4z M963.7,42.2h4v4h-4V42.2z
			 M955.5,42.2h4v4h-4V42.2z M947.2,42.2h4v4h-4V42.2z M934.9,50.5h65.7v15c-5.7,2.6-12,3.8-18.2,3.3c-4.9-0.4-9.6-1.8-14-3.9
			c-10.7-5.1-21.6-5.6-32.7-1.5c-0.2,0.1-0.5,0.1-0.8,0.2V50.5z M1000.6,157.3h-65.8v-1.4c0-28.8,0-57.6,0-86.4
			c0-1.1,0.3-1.5,1.3-1.9c10.2-4.1,20.2-3.9,30.1,0.8c6.4,3,13,4.8,20.1,4.6c4.3-0.1,8.6-0.9,12.7-2.4c0.5-0.2,1-0.3,1.6-0.5
			L1000.6,157.3z M1004.8,52.2c1.4,0.9,2.7,1.7,3.9,2.6c1.4,1,3.3,1.7,4.1,3c0.7,1.3,0.2,3.3,0.2,4.9c0,28.6,0,57.2,0,85.8
			c0,1.2-0.4,1.9-1.4,2.6c-2.2,1.4-4.4,2.9-6.8,4.5V52.2z M1009.7,157.2c1.8-1.2,3.4-2.3,5-3.3c0.1-0.1,0.3-0.1,0.4-0.1
			c0.2,0,0.3,0,0.5,0.1c1.6,1,3.1,2.1,4.9,3.3H1009.7z M1025.3,155.5c-2.7-1.8-5.2-3.5-7.8-5.2c-0.2-0.2-0.3-0.5-0.4-0.7
			c0-0.3,0-0.7,0-1c0-29.8,0-59.6,0-89.3c0-1.2,0.4-1.8,1.4-2.4c2.3-1.4,4.5-3,6.8-4.5V155.5z M992.1,138.8c-2.6,0-5.2,0-7.8,0
			s-5.2,0-7.8,0c-1.7,0-2.4,0.8-2.4,2.4c0,2.5,0,5,0,7.5c0,1.7,0.8,2.4,2.4,2.4c5.2,0,10.4,0,15.7,0c1.7,0,2.4-0.8,2.4-2.4
			c0-2.5,0-5,0-7.5C994.5,139.6,993.7,138.8,992.1,138.8L992.1,138.8z M990.3,147h-12.2v-4h12.2V147z M957,147.1c-4.5,0-9,0-13.5,0
			c-1.5,0-2.5,0.7-2.5,2c0,1.2,0.9,2.1,2.5,2.1c2.2,0,4.5,0,6.7,0s4.5,0,6.8,0c1.5,0,2.5-0.8,2.5-2
			C959.6,147.9,958.6,147.1,957,147.1L957,147.1z M957.1,138.8c-4.5,0-9.1,0-13.6,0c-1.5,0-2.4,0.8-2.4,2.1c0,1.2,0.9,2,2.5,2
			c2.2,0,4.5,0,6.7,0s4.5,0,6.8,0c1.6,0,2.5-0.8,2.5-2.1C959.5,139.5,958.6,138.8,957.1,138.8L957.1,138.8z M957.9,94.2
			c-0.9-0.7-2-0.4-2.8,0.8c-1.8,2.7-2.6,5.6-2.7,9.5c0.1,0.7,0.2,2.1,0.5,3.4c0.2,1.4,1.1,1.9,2.2,1.7c1-0.2,1.5-1.1,1.4-2.4
			c-0.1-2-0.3-4,0-6c0.2-1.5,1-2.9,1.7-4.2C958.8,95.8,958.8,94.8,957.9,94.2L957.9,94.2z"/>
	</g>
	<g>
		<defs>
			<rect id="SVGID_00000142857617353293039240000005192537657140357282_" width="272.4" height="292.5"/>
		</defs>
		<clipPath id="SVGID_00000166664236150281489800000012997543061784703383_">
			<use xlink:href="#SVGID_00000142857617353293039240000005192537657140357282_"  style="overflow:visible;"/>
		</clipPath>
		
			<circle style="clip-path:url(#SVGID_00000166664236150281489800000012997543061784703383_);fill:#6A3834;" cx="-979.8" cy="248.5" r="27.5"/>
	</g>
	<g>
		<defs>
			<rect id="SVGID_00000000209075950330574560000018141463807452587916_" width="272.4" height="292.5"/>
		</defs>
		<clipPath id="SVGID_00000031907734866410291250000006919230605426156713_">
			<use xlink:href="#SVGID_00000000209075950330574560000018141463807452587916_"  style="overflow:visible;"/>
		</clipPath>
		<path style="clip-path:url(#SVGID_00000031907734866410291250000006919230605426156713_);fill:#D0F4A5;" d="M-975.8,231.9
			c-0.3-0.2-0.9-0.4-1.2-0.4c-1.2,0-2.1,1-2.1,1l-6.7,13.1c-0.2,0.5-0.4,1-0.4,1.4c0,1.2,1.2,1.3,2,1.3c0.1,0,0.2,0,0.3,0
			c0.6-0.4,4.9-8.8,5.1-9.3c0,0.2-1,19.5-1,24.3c0,0.2,0,0.4,0,0.6c0.1,0.8,0.3,1.2,1.2,1.2c1.2,0,2.6-1.1,2.6-1.1s0.5-19.4,0.5-28
			C-975.5,233.5-975.5,232.1-975.8,231.9z"/>
	</g>
	<g>
		<defs>
			<rect id="SVGID_00000088124762305131556380000005173349583261348270_" width="272.4" height="292.5"/>
		</defs>
		<clipPath id="SVGID_00000117658455323985357570000016047005424451271871_">
			<use xlink:href="#SVGID_00000088124762305131556380000005173349583261348270_"  style="overflow:visible;"/>
		</clipPath>
		
			<circle style="clip-path:url(#SVGID_00000117658455323985357570000016047005424451271871_);fill:#6A3834;" cx="-734.8" cy="65.5" r="27.5"/>
	</g>
	<g>
		<defs>
			<rect id="SVGID_00000081648074759150765300000002603558772563691439_" width="272.4" height="292.5"/>
		</defs>
		<clipPath id="SVGID_00000129910972286744353030000008258054687050042815_">
			<use xlink:href="#SVGID_00000081648074759150765300000002603558772563691439_"  style="overflow:visible;"/>
		</clipPath>
		<path style="clip-path:url(#SVGID_00000129910972286744353030000008258054687050042815_);fill:#D0F4A5;" d="M-740.2,57.9
			c0.3,0.4,0.8,0.6,1.2,0.6c2,0,1.9-2.2,1.9-2.2c0.2-4,1.6-4.5,2.3-4.5c1.6,0,2.1,1.7,2.1,3.4c0,3.5-1.8,8.6-5.1,15
			c-1.1,2-4.3,7.3-4.3,9.3c0.1,1.3,1.2,2.2,2.3,2.2c0.3,0,1.9,0,3.2,0c2.2,0,4.8-0.1,6.1-0.1c0.8,0,1.7-0.5,1.7-1.8
			c0-1.2-0.7-1.5-1.8-1.5h-0.4c-0.6,0-1.9,0-6.7,0l4.3-8.9c1-1.8,4.4-8.5,4.4-14.2c0-5.3-3.4-6.5-5.4-6.5c-5.3,0-6.1,4.3-6.1,7
			C-740.6,56.6-740.3,57.7-740.2,57.9z"/>
	</g>
	<g>
		<defs>
			<rect id="SVGID_00000092434018981785528620000002291044125808195208_" width="272.4" height="292.5"/>
		</defs>
		<clipPath id="SVGID_00000156578658354414620550000018136190783891864987_">
			<use xlink:href="#SVGID_00000092434018981785528620000002291044125808195208_"  style="overflow:visible;"/>
		</clipPath>
		
			<circle style="clip-path:url(#SVGID_00000156578658354414620550000018136190783891864987_);fill:#6A3834;" cx="-244.8" cy="65.5" r="27.5"/>
	</g>
	<g>
		<defs>
			<rect id="SVGID_00000095318120125866645960000005827321742694339974_" width="272.4" height="292.5"/>
		</defs>
		<clipPath id="SVGID_00000075870109650782798240000013892151876539441566_">
			<use xlink:href="#SVGID_00000095318120125866645960000005827321742694339974_"  style="overflow:visible;"/>
		</clipPath>
		<path style="clip-path:url(#SVGID_00000075870109650782798240000013892151876539441566_);fill:#D0F4A5;" d="M-244.1,52.9l0.8-2.4
			c-0.2-1.1-0.9-1.6-2-1.6c-0.2,0-0.3,0-0.9,0.1c-0.5,1.3-3.2,8.5-6.6,18.6l-0.2,1.1c0,2,0.7,2,2.8,2h2.4c1.3,0,2.8,0,3.9,0
			c-0.1,3.7-0.2,6.9-0.2,10.5c0.2,1.1,0.7,1.1,1.2,1.1c2.1,0,2.2-1.3,2.3-2.8c0-2.9,0.2-6,0.2-8.9h1.2c1.1,0,1.7-0.1,2.2-0.7
			c0.3-0.4,0.5-0.8,0.5-1.2c0-1-0.8-1.2-1.5-1.2h-2.2V57.3c-0.5-0.2-0.8-0.3-1-0.3c-1.1,0-1.9,0.5-2.2,1.9c-0.4,2.1-0.4,3.9-0.5,5.7
			c0,0.9,0,1.8,0,2.7h-5.5C-248,64.4-245.8,57.9-244.1,52.9z"/>
	</g>
	<g>
		<defs>
			<rect id="SVGID_00000118374927558706788530000008855692099604284329_" width="272.4" height="292.5"/>
		</defs>
		<clipPath id="SVGID_00000025412269818528298870000014973823185665010356_">
			<use xlink:href="#SVGID_00000118374927558706788530000008855692099604284329_"  style="overflow:visible;"/>
		</clipPath>
		
			<ellipse transform="matrix(0.1602 -0.9871 0.9871 0.1602 141.2691 297.0419)" style="clip-path:url(#SVGID_00000025412269818528298870000014973823185665010356_);fill:#6A3834;" cx="245.2" cy="65.5" rx="27.5" ry="27.5"/>
	</g>
	<g>
		<defs>
			<rect id="SVGID_00000155144043817756706300000001343243026941648057_" width="272.4" height="292.5"/>
		</defs>
		<clipPath id="SVGID_00000014599110262411040390000010956859321155592600_">
			<use xlink:href="#SVGID_00000155144043817756706300000001343243026941648057_"  style="overflow:visible;"/>
		</clipPath>
		<path style="clip-path:url(#SVGID_00000014599110262411040390000010956859321155592600_);fill:#D0F4A5;" d="M251.6,54.5
			c0-2.2-0.8-6-5.5-6c-6.2,0-6.9,6.1-6.9,13.4v8c0,5.9,0.6,11.8,5.6,11.8c7.1,0,7.4-6,7.4-11.3c0-6.8-2.4-9.2-6.3-9.2
			c-0.9,0-1.9,0.1-3,0.6V61c0-2,0.3-9.6,3.2-10c0,0,1.9,0.3,1.9,3.6v0.8c0,0,1.3,1.2,2.3,1.2C251.5,56.5,251.6,55.2,251.6,54.5z
			 M245.7,64c2.6,0.2,2.6,3.4,2.6,7.8c0,2-0.3,7.3-2.9,7.3c-1.7,0-2.7-4.2-2.7-11.2c0-0.8,0-1.7,0-2.7C243.6,64.6,244.5,64,245.7,64
			z"/>
	</g>
	<g>
		<defs>
			<rect id="SVGID_00000014631610723279339680000006642862157177648538_" width="272.4" height="292.5"/>
		</defs>
		<clipPath id="SVGID_00000150097084505441326560000005442200546428913050_">
			<use xlink:href="#SVGID_00000014631610723279339680000006642862157177648538_"  style="overflow:visible;"/>
		</clipPath>
		
			<circle style="clip-path:url(#SVGID_00000150097084505441326560000005442200546428913050_);fill:#6A3834;" cx="735.2" cy="65.5" r="27.5"/>
	</g>
	<g>
		<defs>
			<rect id="SVGID_00000007414966917285570760000000833921698250977198_" width="272.4" height="292.5"/>
		</defs>
		<clipPath id="SVGID_00000134227544189647463920000004736708556922044048_">
			<use xlink:href="#SVGID_00000007414966917285570760000000833921698250977198_"  style="overflow:visible;"/>
		</clipPath>
		<path style="clip-path:url(#SVGID_00000134227544189647463920000004736708556922044048_);fill:#D0F4A5;" d="M736.3,48.6
			c-4.1,0-6.7,2.6-6.7,8c0,3.6,0.8,5.8,2.3,7c-2,1.6-2.8,4.4-2.8,7.4c0,5.6,0.6,10.9,5.9,10.9c7.2,0,7.2-6.1,7.2-11.8
			c0-2.6-0.9-5-2.5-6.5c1.7-1.1,2.4-3.4,2.4-7.2C742.2,51.9,740.4,48.6,736.3,48.6z M738.5,56v1.5c-0.1,1.3-0.6,4.6-2.6,4.6
			c-1.4,0-2.4-1.5-2.4-5.9c0-3.8,1.2-5,2.8-5C738.2,51.2,738.5,53.9,738.5,56z M735.4,79.2c-2.2,0-2.4-4.8-2.4-8.8
			c0-4.2,1.3-5.5,2.8-5.5c2.3,0,2.7,3.6,2.7,6C738.6,76.6,737.5,79.2,735.4,79.2z"/>
	</g>
	<g>
		<defs>
			<rect id="SVGID_00000175293780476355888370000001924555525730093758_" width="272.4" height="292.5"/>
		</defs>
		<clipPath id="SVGID_00000010294741074397679260000004336188212095241088_">
			<use xlink:href="#SVGID_00000175293780476355888370000001924555525730093758_"  style="overflow:visible;"/>
		</clipPath>
		
			<circle style="clip-path:url(#SVGID_00000010294741074397679260000004336188212095241088_);fill:#6A3834;" cx="-489.8" cy="248.5" r="27.5"/>
	</g>
	<g>
		<defs>
			<rect id="SVGID_00000099643618096737924190000012402203217571422626_" width="272.4" height="292.5"/>
		</defs>
		<clipPath id="SVGID_00000150092209774154053140000001081815692417770376_">
			<use xlink:href="#SVGID_00000099643618096737924190000012402203217571422626_"  style="overflow:visible;"/>
		</clipPath>
		<path style="clip-path:url(#SVGID_00000150092209774154053140000001081815692417770376_);fill:#D0F4A5;" d="M-494.9,238.5
			c0.2,0.3,0.5,0.4,0.9,0.4c0.6,0,2.3-0.6,2.3-1.5c0-1.2,0.4-3.5,2-3.5c1.3,0,1.8,2.1,1.8,3.9c0,5.3-1.4,6.2-2.2,6.7
			c-0.2,0-0.5,0-0.8,0c-1,0-1.9,0-1.9,1.6c0,0.9,0.3,1.4,1.3,1.4c3.3,0,4,3.1,4,6.1v0.9c0,3.2-0.5,7.8-2.8,7.8
			c-1.8,0-1.8-1.7-1.8-3.2c0-1.2,0-2.4-0.7-2.9c-0.3-0.3-0.7-0.4-1.1-0.4c-1.2,0-2.1,1.1-2.1,1.1c0,6.2,1.5,8.1,5.9,8.1
			c5.4,0,6.5-4.8,6.5-12.5c0-4.4-1.9-6-3.2-6.6c1.8-1.2,2.6-4.3,2.6-7.2c0-3.4-0.7-7.6-5.1-7.6c-4.7,0-5.7,3.5-5.7,5.5
			C-495.2,237.6-495,238.3-494.9,238.5z"/>
	</g>
	<g>
		<defs>
			<rect id="SVGID_00000103249108105563439250000006132019772003122582_" width="272.4" height="292.5"/>
		</defs>
		<clipPath id="SVGID_00000163772865929742970010000009922699618342864054_">
			<use xlink:href="#SVGID_00000103249108105563439250000006132019772003122582_"  style="overflow:visible;"/>
		</clipPath>
		
			<circle style="clip-path:url(#SVGID_00000163772865929742970010000009922699618342864054_);fill:#6A3834;" cx="0.2" cy="248.5" r="27.5"/>
	</g>
	<g>
		<defs>
			<rect id="SVGID_00000133510650340961551740000017607216541155870620_" width="272.4" height="292.5"/>
		</defs>
		<clipPath id="SVGID_00000166646226165634649000000011473519462764882610_">
			<use xlink:href="#SVGID_00000133510650340961551740000017607216541155870620_"  style="overflow:visible;"/>
		</clipPath>
		<path style="clip-path:url(#SVGID_00000166646226165634649000000011473519462764882610_);fill:#D0F4A5;" d="M-2.8,245.3h0.9
			c4.6,0,4.9,1.7,4.9,7.1v2.9c0,3.6-0.2,6.9-2.8,6.9c-2.1,0-2.6-1.9-2.6-3.6c0-2.6,0-3-1.6-3c-1.5,0-1.8,1.5-1.8,1.5
			c0.1,4.3,0.7,7.9,5.8,7.9c6.4,0,6.6-4.8,6.6-13.9c0-6.6-2.9-7.7-3.7-8.2c-1.1-0.5-2.4-0.8-3.3-0.8h-0.8v-6.9
			c0,0.1,1.7,0.1,3.7,0.1h1.8c0.6,0,1.5-0.8,1.5-1.7c0-1.8-2.7-1.7-3.7-1.7c-3,0-5.4,0.1-6,0.4c-0.6,0.3-0.6,1.5-0.6,1.5l0.1,9.7
			C-4.4,245.2-3.6,245.3-2.8,245.3z"/>
	</g>
	<g>
		<defs>
			<rect id="SVGID_00000027602607447017960600000015786479629185482113_" width="272.4" height="292.5"/>
		</defs>
		<clipPath id="SVGID_00000026134127370274554750000010914961236600593295_">
			<use xlink:href="#SVGID_00000027602607447017960600000015786479629185482113_"  style="overflow:visible;"/>
		</clipPath>
		
			<circle style="clip-path:url(#SVGID_00000026134127370274554750000010914961236600593295_);fill:#6A3834;" cx="490.2" cy="248.5" r="27.5"/>
	</g>
	<g>
		<defs>
			<rect id="SVGID_00000065057985887242884970000002247515484843533745_" width="272.4" height="292.5"/>
		</defs>
		<clipPath id="SVGID_00000120553111450419324940000007344486514052932747_">
			<use xlink:href="#SVGID_00000065057985887242884970000002247515484843533745_"  style="overflow:visible;"/>
		</clipPath>
		<path style="clip-path:url(#SVGID_00000120553111450419324940000007344486514052932747_);fill:#D0F4A5;" d="M485.9,232.2l-0.3,0.2
			c0,0-0.7,0.9-0.7,1.8c0,0.6,0.4,1.2,1.3,1.3c0.4,0.1,1.2,0.1,2.2,0.1c2.5,0,4.1,0,4.8,0l-7.2,27.5c-0.1,0.3-0.1,0.6-0.1,0.7
			c0,0.8,0.5,1.1,1.6,1.1c0.9,0,1.8-0.1,2.3-1.3l7.2-29.3c0,0-0.4-2.1-2.1-2.1c-0.7,0-1.3,0-2,0L485.9,232.2L485.9,232.2z"/>
	</g>
	<g>
		<defs>
			<rect id="SVGID_00000029743694994288177350000016153461080037163404_" width="272.4" height="292.5"/>
		</defs>
		<clipPath id="SVGID_00000092450225458096351860000016901760086490713223_">
			<use xlink:href="#SVGID_00000029743694994288177350000016153461080037163404_"  style="overflow:visible;"/>
		</clipPath>
		
			<circle style="clip-path:url(#SVGID_00000092450225458096351860000016901760086490713223_);fill:#6A3834;" cx="980.2" cy="248.5" r="27.5"/>
	</g>
	<g>
		<defs>
			<rect id="SVGID_00000024696729872610059930000009700749305048228251_" width="272.4" height="292.5"/>
		</defs>
		<clipPath id="SVGID_00000146462058672397869940000009400922841433970356_">
			<use xlink:href="#SVGID_00000024696729872610059930000009700749305048228251_"  style="overflow:visible;"/>
		</clipPath>
		<path style="clip-path:url(#SVGID_00000146462058672397869940000009400922841433970356_);fill:#D0F4A5;" d="M974.7,258.8
			c0,2.2,0.7,5.9,5.6,5.9c6.1,0,6.8-6.1,6.8-13.4v-8c0-5.9-0.6-11.8-5.6-11.8c-7.1,0-7.4,6-7.4,11.3c0,6.7,2.4,9.2,6.3,9.2
			c0.9,0,1.9-0.1,2.9-0.6v0.8c0,2,0,10-3,10c-0.3,0-2.1,0-2.1-3.6v-0.8c0,0-1.3-1.2-2.2-1.2C974.8,256.7,974.7,258.1,974.7,258.8z
			 M980.6,249.3c-2.6,0-2.7-3.4-2.7-7.8c0-2,0.3-7.3,2.9-7.3c1.7,0,2.6,4.2,2.6,11.2c0,0.9,0,1.7,0,2.7
			C982.7,248.8,981.7,249.3,980.6,249.3z"/>
	</g>
</g>
</svg>
