<?xml version="1.0" encoding="utf-8"?>
<!-- Generator: Adobe Illustrator 26.0.3, SVG Export Plug-In . SVG Version: 6.00 Build 0)  -->
<svg version="1.1" id="Layer_1" xmlns="http://www.w3.org/2000/svg" xmlns:xlink="http://www.w3.org/1999/xlink" x="0px" y="0px"
	 viewBox="0 0 272.4 292.5" style="enable-background:new 0 0 272.4 292.5;" xml:space="preserve">
<style type="text/css">
	.st0{clip-path:url(#SVGID_00000066476280405716267550000017200325520331916425_);fill:none;stroke:#6A3834;stroke-width:2.5;}
	.st1{clip-path:url(#SVGID_00000163785457200773873050000014473592577880907700_);fill:none;stroke:#6A3834;stroke-width:2.5;}
	.st2{clip-path:url(#SVGID_00000134940282009680941750000006757387288029749676_);fill:none;stroke:#6A3834;stroke-width:2.5;}
	.st3{clip-path:url(#SVGID_00000028297892983457757870000011098609520215183253_);fill:none;stroke:#6A3834;stroke-width:2.5;}
	.st4{clip-path:url(#SVGID_00000178186196742119446730000008910095011652650402_);fill:none;stroke:#6A3834;stroke-width:2.5;}
	.st5{clip-path:url(#SVGID_00000080924971636047701340000014793794202786549397_);fill:none;stroke:#6A3834;stroke-width:2.5;}
	.st6{clip-path:url(#SVGID_00000031174013355870731510000009529528304221905310_);fill:none;stroke:#6A3834;stroke-width:2.5;}
	.st7{clip-path:url(#SVGID_00000003076899094261040220000007811282714102701198_);fill:none;stroke:#6A3834;stroke-width:2.5;}
	.st8{clip-path:url(#SVGID_00000149374410616678078840000011386116912271508636_);fill:#6A3834;}
	.st9{clip-path:url(#SVGID_00000115514100132670126590000000383257334085177757_);fill:#6A3834;}
	.st10{clip-path:url(#SVGID_00000148633707117218655240000013661363856309660304_);fill:#6A3834;}
	.st11{clip-path:url(#SVGID_00000136371115817411496300000005113349783379446204_);fill:#6A3834;}
	.st12{clip-path:url(#SVGID_00000004514859550168809880000011421216870747863685_);fill:#6A3834;}
	.st13{clip-path:url(#SVGID_00000123442537867728725210000006037193530696165042_);fill:#6A3834;}
	.st14{clip-path:url(#SVGID_00000121985976285809298880000002452852269760718478_);fill:#6A3834;}
	.st15{clip-path:url(#SVGID_00000043451648667003257990000001062504650513227678_);fill:#6A3834;}
	.st16{clip-path:url(#SVGID_00000108298685936397361400000003185717371150068906_);fill:#6A3834;}
	.st17{clip-path:url(#SVGID_00000047763342358440071810000014639288925484475830_);fill:#6A3834;}
	.st18{clip-path:url(#SVGID_00000096737479830691427290000016014325524465370559_);fill:#D0F4A5;}
	.st19{clip-path:url(#SVGID_00000166666703031142485620000008588507035737450123_);fill:#6A3834;}
	.st20{clip-path:url(#SVGID_00000076576633851116173630000017682647355770312626_);fill:#D0F4A5;}
	.st21{clip-path:url(#SVGID_00000069391701880726291630000002492815624556001925_);fill:#6A3834;}
	.st22{clip-path:url(#SVGID_00000126311112978515276010000005607425078008437388_);fill:#D0F4A5;}
	.st23{clip-path:url(#SVGID_00000137844462602595341500000004597525721345823678_);fill:#6A3834;}
	.st24{clip-path:url(#SVGID_00000084517246496389711560000017393000795629050800_);fill:#D0F4A5;}
	.st25{clip-path:url(#SVGID_00000028306512479381521080000006432166835935704449_);fill:#6A3834;}
	.st26{clip-path:url(#SVGID_00000143578901965539747930000007726140601185904005_);fill:#D0F4A5;}
	.st27{clip-path:url(#SVGID_00000031171400579972857080000015837281193667667346_);fill:#6A3834;}
	.st28{clip-path:url(#SVGID_00000085247915127231362410000016352436810744707228_);fill:#D0F4A5;}
	.st29{clip-path:url(#SVGID_00000053531519778784245360000000672113356575095194_);fill:#6A3834;}
	.st30{clip-path:url(#SVGID_00000044148160085661069870000017250009220095255730_);fill:#D0F4A5;}
	.st31{clip-path:url(#SVGID_00000133518716611370280810000012751967559145495442_);fill:#6A3834;}
	.st32{clip-path:url(#SVGID_00000009578094638185339110000005296552555246419886_);fill:#D0F4A5;}
	.st33{clip-path:url(#SVGID_00000051348154657320365230000000480226898166543003_);fill:#6A3834;}
	.st34{clip-path:url(#SVGID_00000092434692681959832060000002642370778603015818_);fill:#D0F4A5;}
</style>
<g>
	<g>
		<defs>
			<rect id="SVGID_1_" width="272.4" height="292.5"/>
		</defs>
		<clipPath id="SVGID_00000072275710787354653190000000914940006782987692_">
			<use xlink:href="#SVGID_1_"  style="overflow:visible;"/>
		</clipPath>
	</g>
	<g>
		<defs>
			<rect id="SVGID_00000160164369356589690770000000822948907834435215_" width="272.4" height="292.5"/>
		</defs>
		<clipPath id="SVGID_00000033350323655380028010000003347566952723318959_">
			<use xlink:href="#SVGID_00000160164369356589690770000000822948907834435215_"  style="overflow:visible;"/>
		</clipPath>
		
			<path style="clip-path:url(#SVGID_00000033350323655380028010000003347566952723318959_);fill:none;stroke:#6A3834;stroke-width:2.5;" d="
			M-1497,250c110.8,0,85.5-184,190-184"/>
	</g>
	<g>
		<defs>
			<rect id="SVGID_00000000221500623754589680000013246230272484727202_" width="272.4" height="292.5"/>
		</defs>
		<clipPath id="SVGID_00000055673603207805242620000004460476542240634303_">
			<use xlink:href="#SVGID_00000000221500623754589680000013246230272484727202_"  style="overflow:visible;"/>
		</clipPath>
		
			<path style="clip-path:url(#SVGID_00000055673603207805242620000004460476542240634303_);fill:none;stroke:#6A3834;stroke-width:2.5;" d="
			M-1007,250c110.8,0,85.5-184,190-184"/>
	</g>
	<g>
		<defs>
			<rect id="SVGID_00000121991987488514161700000004745606147597368450_" width="272.4" height="292.5"/>
		</defs>
		<clipPath id="SVGID_00000053537731655500105400000011849496163084747400_">
			<use xlink:href="#SVGID_00000121991987488514161700000004745606147597368450_"  style="overflow:visible;"/>
		</clipPath>
		
			<path style="clip-path:url(#SVGID_00000053537731655500105400000011849496163084747400_);fill:none;stroke:#6A3834;stroke-width:2.5;" d="
			M-517,250c110.8,0,85.5-184,190-184"/>
	</g>
	<g>
		<defs>
			<rect id="SVGID_00000160179266451114476330000004750593542410882996_" width="272.4" height="292.5"/>
		</defs>
		<clipPath id="SVGID_00000115499311319390929520000013471603551714284948_">
			<use xlink:href="#SVGID_00000160179266451114476330000004750593542410882996_"  style="overflow:visible;"/>
		</clipPath>
		
			<path style="clip-path:url(#SVGID_00000115499311319390929520000013471603551714284948_);fill:none;stroke:#6A3834;stroke-width:2.5;" d="
			M-572,250c-110.8,0-85.5-184-190-184"/>
	</g>
	<g>
		<defs>
			<rect id="SVGID_00000062156513036469456760000010632966551895762082_" width="272.4" height="292.5"/>
		</defs>
		<clipPath id="SVGID_00000116916235151466713150000004751310586248545180_">
			<use xlink:href="#SVGID_00000062156513036469456760000010632966551895762082_"  style="overflow:visible;"/>
		</clipPath>
		
			<path style="clip-path:url(#SVGID_00000116916235151466713150000004751310586248545180_);fill:none;stroke:#6A3834;stroke-width:2.5;" d="
			M-1062,250c-110.8,0-85.5-184-190-184"/>
	</g>
	<g>
		<defs>
			<rect id="SVGID_00000060020373969306352090000006117435462569967283_" width="272.4" height="292.5"/>
		</defs>
		<clipPath id="SVGID_00000080887001900930605580000003606362375586528902_">
			<use xlink:href="#SVGID_00000060020373969306352090000006117435462569967283_"  style="overflow:visible;"/>
		</clipPath>
		
			<path style="clip-path:url(#SVGID_00000080887001900930605580000003606362375586528902_);fill:none;stroke:#6A3834;stroke-width:2.5;" d="
			M-27,250C83.8,250,58.5,66,163,66"/>
	</g>
	<g>
		<defs>
			<rect id="SVGID_00000154414560009400739690000015791324809091651467_" width="272.4" height="292.5"/>
		</defs>
		<clipPath id="SVGID_00000008859526849164844400000014848110297054978997_">
			<use xlink:href="#SVGID_00000154414560009400739690000015791324809091651467_"  style="overflow:visible;"/>
		</clipPath>
		
			<path style="clip-path:url(#SVGID_00000008859526849164844400000014848110297054978997_);fill:none;stroke:#6A3834;stroke-width:2.5;" d="
			M408,250c-110.8,0-85.5-184-190-184"/>
	</g>
	<g>
		<defs>
			<rect id="SVGID_00000147221161128002655510000009594568623155599026_" width="272.4" height="292.5"/>
		</defs>
		<clipPath id="SVGID_00000073699473175915454380000001802145188534841018_">
			<use xlink:href="#SVGID_00000147221161128002655510000009594568623155599026_"  style="overflow:visible;"/>
		</clipPath>
		
			<path style="clip-path:url(#SVGID_00000073699473175915454380000001802145188534841018_);fill:none;stroke:#6A3834;stroke-width:2.5;" d="
			M-82,250c-110.8,0-85.5-184-190-184"/>
	</g>
	<g>
		<defs>
			<rect id="SVGID_00000060742494794181951560000008027666597903123643_" width="272.4" height="292.5"/>
		</defs>
		<clipPath id="SVGID_00000029747375435816746040000003441721705407707033_">
			<use xlink:href="#SVGID_00000060742494794181951560000008027666597903123643_"  style="overflow:visible;"/>
		</clipPath>
		<path style="clip-path:url(#SVGID_00000029747375435816746040000003441721705407707033_);fill:#6A3834;" d="M-1476.6,103.1
			c0.3,4.7,2.3,8.6,5.6,11.8c2.3,2.2,5.1,4,7.7,6c0.4,0.3,0.9,0.4,1.4,0.4c4.8-0.1,9.5-0.8,13.8-3c6.9-3.4,10.3-9.2,11.3-16.5
			c0.2-1.3,0.3-2.6,0.3-4c0-1,0.4-1.4,1.3-1.8c0.7-0.2,1.3-0.7,1.7-1.3c0.5-0.9,0-1.8-0.7-2.5c-4-4.3-8.5-7.9-14-10.2
			c-0.2-0.1-0.4-0.2-0.5-0.3c0.3-1.1,0.9-2.1,1.6-3c0.8-0.9,1.7-1.6,2.7-2.1c2-0.9,4-1.6,6.1-2.3c1.4-0.5,2-1.2,1.8-2.4
			c-0.3-1.1-1.3-1.6-2.7-1.2c-2,0.5-3.9,1.2-5.8,2c-3.7,1.7-5.4,3.5-7.4,7.8c-2.2-0.3-4.5-0.8-6.7-0.8c-3.5-0.1-6.9,0-10.4,0
			c-1.8,0.1-2.7,1.4-1.8,2.9c1.3,2.2,0.8,3.7-0.6,5.7C-1474.9,92.7-1476.9,97.5-1476.6,103.1z M-1438.4,93.4
			c-2.8,0.9-5.4,0.8-7.8-1.3c-0.5-0.5-1.6-0.8-2.1-0.6c-0.6,0.2-0.9,1.2-1.3,1.9c-0.1,0.3-0.1,0.6-0.1,0.9c-0.5,3.9-3.4,7.3-6.9,8
			c-2.1-3.6-3.1-7.2-1-11.2c0.2-0.3,0.3-0.6,0.4-1c0.1-0.2,0.1-0.5,0.1-0.8s-0.1-0.5-0.3-0.7c-0.1-0.2-0.3-0.4-0.6-0.5
			c-0.2-0.1-0.5-0.2-0.7-0.2c-0.7-0.1-1.5-0.1-2.2-0.2c-2.7-0.4-4.5-1.9-5.8-4.3C-1457.5,81.6-1442.7,86.8-1438.4,93.4z
			 M-1467.5,88.8c0.8,0.6,1.7,1.1,2.6,1.6s1.9,0.7,3,1.1c-1.6,5.6,0.3,10,2.8,14c0.5,0.9,1.3,1.2,2.3,0.9c4.9-1.5,8.6-4.3,10.2-9.4
			c0-0.2,0.2-0.3,0.1-0.2l6.5,1.1c-0.1,0.9-0.2,2-0.3,3.1c-0.9,7.9-5.3,13.1-13,15.3c-1.1,0.3-2.4,0.5-3.5,0.8
			c-3.4,1-6.4,0.2-8.9-2.3c-0.5-0.5-1.1-0.9-1.7-1.4C-1474.7,106.5-1474.8,95.8-1467.5,88.8L-1467.5,88.8z M-1420.5,122.4
			c-1.3-6.6-9.4-9.4-14.7-4.6c-2.7,2.5-5.6,4.8-8.5,7.1l-8.9,7.5c-2.5-3.2-5.8-3.9-9.5-3.9c-6.5,0.1-13,0.1-19.5,0
			c-1,0-2-0.4-2.8-0.9c-2.6-1.8-5.4-3.1-8.5-3.3c-11.3-0.8-21.1,2.7-29,10.8c-3.4,3.4-6.3,7.4-9.4,11.1c-0.5,0.6-0.9,0.9-1.7,0.7
			c-1.7-0.3-3.2,0.4-4.4,1.7c-0.8,0.9-1.6,1.8-2.5,2.6c-0.3,0.3-0.7,0.5-1.2,0.5c-0.8-0.1-1.6,0-2.4,0.2c-0.8,0.3-1.5,0.7-2,1.3
			c-1.6,1.6-3.1,3.2-4.7,4.7c-0.6,0.5-1,1.2-1.3,1.9s-0.4,1.5-0.4,2.2c0,6.9,0,13.8,0,20.7c0,3.4,1.7,5,5.1,5c9.3,0,18.6,0,27.9,0
			c3.8,0,6-2.3,8.1-4.9c0.3-0.4,0.4-0.8,0.5-1.2s0.1-0.9,0-1.3c-0.4-1.7,0.3-2.7,1.4-3.7c0.5-0.4,0.9-0.9,1.3-1.4
			c0.5-0.6,0.9-1.3,1.1-2.1s0.2-1.6,0-2.4c-0.2-0.8,0.1-1.2,0.5-1.7c1.9-1.9,3.9-3.8,5.7-5.7c1.3-1.4,2.7-1.9,4.6-1.9
			c12.3,0,24.6,0,36.9,0c3.7,0,6.7-1.2,9.3-3.9c8.2-8.5,16.5-16.9,24.9-25.3c2-2,3.7-4,4.4-6.8v-2.8
			C-1420.4,122.6-1420.5,122.5-1420.5,122.4z M-1515.5,181.6c-1.3,1.4-2.9,1.9-4.8,1.8c-8.6-0.1-17.1,0-25.7,0h-1.6v-4
			c0-5.6,0-11.2,0-16.8c0-0.7,0.3-1.3,0.8-1.9c1.3-1.4,2.7-2.7,4-4c0.7-0.7,1.1-0.8,1.9-0.1c8.5,7.6,16.9,15.2,25.4,22.8
			C-1514.4,180.3-1514.5,180.5-1515.5,181.6z M-1511.5,172.9c-0.7,0.7-1.3,1.4-2.1,2.2l-23.2-20.8c0.9-1,1.7-1.9,2.6-2.8
			c0.6-0.7,1.1-0.1,1.5,0.3l11.9,10.7c3.1,2.7,6.1,5.5,9.2,8.2C-1510.7,171.5-1510.7,172.1-1511.5,172.9z M-1426.3,127.6
			c-4,4-7.9,8.1-11.9,12.1c-4.9,4.9-9.8,9.9-14.6,14.9c-0.7,0.8-1.6,1.4-2.7,1.9c-1,0.4-2.1,0.6-3.2,0.6c-12.3,0-24.7,0-37,0
			c-3.2,0-5.7,1-7.9,3.3c-2,2.1-4.1,4.1-6.2,6.3l-18.9-17c5.5-6.5,10.1-13.8,18.2-17.7c5.4-2.6,11-3.8,16.9-3.3
			c2.3,0.2,4.5,1,6.4,2.5c1.7,1.3,3.5,1.8,5.6,1.8c6.9,0,13.7,0,20.6,0c0.7,0,1.5,0,2.2,0.2c1,0.3,1.9,0.9,2.5,1.7
			c0.6,0.9,0.9,1.9,0.8,3c-0.2,2.2-2,3.8-4.4,3.9c-3.8,0.1-7.6,0-11.4,0c-4.1,0-8.1,0-12.2,0c-1.6,0-2.6,0.8-2.6,2.2
			c0,1.3,1,2.2,2.6,2.2c7.9,0,15.8,0,23.7,0c4.8,0,8.4-3.4,8.8-8.2c0-0.4,0.1-0.8,0.3-1.1c0.2-0.4,0.4-0.7,0.8-0.9
			c6-5,11.9-10,18-15c2.8-2.3,6.6-1,7.3,2.5C-1424.5,125-1425.1,126.4-1426.3,127.6z M-1526.3,108.9c5.8,3.8,12.2,6.1,19.2,5.9
			c6.6-0.1,12-4,13.9-9.9c0.2-0.6,0.4-1.3,0.6-1.9v-3.4c-1.3-5.8-5.3-9-10.5-11.2c-1-0.4-2-0.9-3-1.2c-5-1.9-8.7-5.2-11.2-9.9
			c-1.1-2.1-2.4-4.1-3.9-6c-2.2-2.9-5.2-5-8.9-5.4c-6.3-0.7-12.3,3.8-13.9,10.3c-1,4-0.4,7.9,0.9,11.7
			C-1540,97.1-1534.1,103.8-1526.3,108.9L-1526.3,108.9z M-1523.3,81.2c0.1-1.3,0.6-2.5,0.9-3.7l0.6-0.1c3.3,7.6,9.1,12.3,17,14.7
			c-1.2,1.3-2.8,2-4.5,2.1C-1516.3,95-1523.7,88.1-1523.3,81.2L-1523.3,81.2z M-1539.8,77c1.1-3.8,4.5-6.7,8.1-6.9
			c3-0.2,5.2,1.5,7.2,3.5c-6.2,7.4-1.9,18,6,22.4c4.4,2.5,9,3.3,13.7,1.1c1.4-0.7,2.6-1.8,3.9-2.7c5.4,3.1,5.7,10,0.5,14
			c-2.9,2.3-6.4,2.8-9.9,2.2c-14.5-2.7-24.1-11.1-29.2-24.8C-1540.5,83-1540.7,79.9-1539.8,77L-1539.8,77z M-1501.3,70.4
			c3,5.2,7.8,8,13.6,9.1c7.4,1.3,13.9-1.1,19.7-5.6c5-3.8,8.6-8.7,9.9-15c0.3-1.5,0.4-3,0.6-4.6c-0.1-4.1-1.3-8-3.4-11.5
			c-4-6.3-12.9-6.4-17-0.1c-1.5,2.3-2.7,4.7-4,7c-0.5,1-1.3,1.9-2.2,2.6c-0.9,0.7-2,1.1-3.2,1.2c-2.2,0.3-4.5,0.8-6.7,1.2
			C-1501.5,56.1-1505.1,63.9-1501.3,70.4L-1501.3,70.4z M-1478.4,50.9c1.3,2.9,0.2,5.8-2.4,7.4c-2.3,1.4-4.9,1-6.6-1
			C-1483.2,56.8-1480.3,54.6-1478.4,50.9L-1478.4,50.9z M-1494.7,58.7c0.7-0.3,1.5-0.3,2.2-0.5s1.1,0,1.5,0.6
			c2.8,4.1,8.2,5.2,12.3,2.6c4.3-2.7,6-8.4,3.5-12.6c-1-1.6-0.7-2.7,0.2-3.9c0.1-0.2,0.2-0.4,0.3-0.5c2.7-3.7,8-3.6,10.5,0.3
			c1.8,2.7,2.7,5.9,2.8,9.1c0.1,5.7-2.1,10.4-6,14.4c-4.5,4.8-10.1,7.4-15.6,7.9c-6.4,0-12.2-2.9-14.8-7.1
			C-1500.4,65.1-1498.9,60.2-1494.7,58.7L-1494.7,58.7z"/>
	</g>
	<g>
		<defs>
			<rect id="SVGID_00000129185368858671470510000012402052078611036086_" width="272.4" height="292.5"/>
		</defs>
		<clipPath id="SVGID_00000013900182483616377000000015016060408676589754_">
			<use xlink:href="#SVGID_00000129185368858671470510000012402052078611036086_"  style="overflow:visible;"/>
		</clipPath>
		<path style="clip-path:url(#SVGID_00000013900182483616377000000015016060408676589754_);fill:#6A3834;" d="M-1302.3,150.5
			c0.4,0,0.8,0,1.2,0c2,0,3.1-1.1,2.5-2.6c-0.4-1-1.3-1.2-2.3-1.2c-1.1,0-2.2,0-2.7,1.2c-0.1,0.3-0.2,0.6-0.2,0.8
			c0,0.3,0.1,0.6,0.2,0.8c0.1,0.3,0.3,0.5,0.6,0.6C-1302.9,150.3-1302.6,150.4-1302.3,150.5z M-1300.8,264.6c-2.1,0-2.9,0.4-3,1.7
			c-0.1,1.4,0.8,2.1,2.7,2.1c1.8,0,2.7-0.7,2.7-2C-1298.6,265.3-1299.4,264.6-1300.8,264.6L-1300.8,264.6z M-1288.1,264.6
			c-0.6,0-1.2,0-1.8,0c-0.6,0-1.1,0-1.7,0c-1.1,0.1-1.8,0.7-1.9,1.7c-0.1,1.1,0.5,1.9,1.5,2c1.4,0.2,2.7,0.1,4.1,0
			c1-0.1,1.6-1,1.5-2.1C-1286.4,265.2-1287.1,264.7-1288.1,264.6L-1288.1,264.6z M-1267,150.5c0.6,0,1.1,0,1.7,0s1.2,0,1.8,0
			c0.2,0,0.5,0,0.7-0.1s0.4-0.2,0.6-0.4s0.3-0.4,0.4-0.6c0.1-0.2,0.1-0.5,0.1-0.7s0-0.5,0-0.7c-0.1-0.2-0.2-0.4-0.3-0.6
			c-0.2-0.2-0.3-0.3-0.6-0.4c-0.2-0.1-0.4-0.2-0.7-0.2c-1.3-0.1-2.6-0.1-4,0c-1.1,0.1-1.6,0.9-1.6,2
			C-1268.8,149.8-1268.1,150.4-1267,150.5z M-1279.3,150.5c0.6,0,1.1,0,1.7,0s1.2,0,1.8,0c1.1-0.1,1.8-0.7,1.8-1.8
			c0.1-1.1-0.5-1.9-1.6-2c-1.3-0.1-2.6-0.1-4,0c-0.2,0-0.5,0.1-0.7,0.2s-0.4,0.3-0.6,0.5s-0.3,0.4-0.3,0.6c-0.1,0.2-0.1,0.5,0,0.7
			C-1281.1,149.8-1280.4,150.4-1279.3,150.5L-1279.3,150.5z M-1291.6,150.5c0.6,0,1.1,0,1.7,0s1.3,0,1.9,0c0.5,0,0.9-0.2,1.2-0.5
			s0.5-0.8,0.5-1.2c0.1-1.1-0.5-1.9-1.5-2c-1.3-0.1-2.6-0.1-4,0c-1.1,0.1-1.7,0.9-1.6,2C-1293.3,149.8-1292.7,150.4-1291.6,150.5
			L-1291.6,150.5z M-1230.5,179.3c0-0.4,0-0.9,0-1.3c0-0.4-0.2-0.8-0.5-1.1s-0.7-0.5-1.2-0.5c-1-0.1-1.8,0.4-2,1.4
			c-0.1,0.5-0.1,1.1-0.1,1.7c0,29.4,0,58.9,0,88.3v1.6h-16.8v-9.3h1.6c1.5,0,2.9,0,4.4,0c1.1-0.1,1.7-0.8,1.7-1.9
			c0-0.5-0.1-0.9-0.4-1.3c-0.3-0.3-0.7-0.6-1.2-0.6c-0.5-0.1-0.9-0.1-1.4-0.1c-1.5,0-3.1,0-4.7,0V252c0.1-0.1,0.2-0.1,0.3-0.1
			c0.9,0,1.7,0,2.6,0c1.4,0,2.3-0.8,2.2-1.9c0-1.1-0.9-1.9-2.3-1.9c-0.9,0-1.9,0-2.8,0v-4.7c1.8,0,3.5,0,5.2,0c1.6,0,2.5-0.8,2.5-2
			s-0.9-1.9-2.4-1.9c-1.7,0-3.5,0-5.3,0V235c1,0,1.9,0,2.7,0c1.4,0,2.3-0.7,2.3-1.8s-0.9-2-2.3-2c-0.9,0-1.8,0-2.7,0v-4.7
			c2,0,3.9,0.1,5.7-0.1c0.4-0.1,0.7-0.2,1-0.5c0.3-0.2,0.5-0.5,0.7-0.9c0.2-0.5-0.2-1.5-0.6-2c-0.3-0.4-1.1-0.4-1.7-0.5
			c-1.7-0.1-3.5,0-5.2,0v-4.7h1.5c0.5,0,1,0,1.5,0c1.2-0.1,2-0.9,2.1-1.9c0-1.1-0.8-1.9-2.1-1.9c-1,0-1.9,0-3,0v-4.5
			c1.6,0,3.2,0,4.8,0c0.6,0,1.1,0,1.6-0.2c0.4-0.1,0.8-0.4,1-0.8c0.2-0.4,0.3-0.8,0.2-1.2c0-0.5-0.2-0.9-0.6-1.2
			c-0.3-0.3-0.8-0.5-1.3-0.4c-1.9,0-3.8,0-5.8,0v-4.8c1,0,1.9,0,2.9,0c1.4,0,2.3-0.8,2.3-1.9c0-1.1-0.9-1.9-2.3-1.9
			c-0.9,0-1.9,0-2.8,0v-4.5c1.8,0,3.6,0,5.3,0c1.5,0,2.4-0.8,2.4-2s-0.9-1.9-2.4-1.9c-1.7,0-3.5,0-5.3,0V184h1.5c0.5,0,1,0,1.5,0
			c1.3-0.1,2.1-0.9,2.1-2s-0.9-1.8-2.2-1.9c-1,0-1.9,0-2.9,0v-4.5c2,0,3.9,0.1,5.7-0.1c0.4-0.1,0.7-0.2,1-0.4s0.5-0.5,0.7-0.8
			c0.2-0.5,0.1-1.4-0.3-1.8c-0.4-0.4-1.2-0.7-1.8-0.7c-1.8-0.1-3.6,0-5.4,0v-4.7h1.5c0.5,0,0.9,0,1.4,0c1.3-0.1,2.2-0.9,2.2-2
			c-0.1-1.1-0.9-1.8-2.2-1.8c-1,0-1.9,0-2.9,0v-4.5c1.7,0,3.2,0,4.7,0c0.5,0,0.9,0,1.4-0.1s0.9-0.3,1.1-0.7c0.3-0.4,0.4-0.8,0.4-1.3
			s-0.2-0.9-0.6-1.2c-0.3-0.3-0.8-0.5-1.2-0.5c-1.9,0-3.8,0-5.8,0v-9.3h16.8v1.6c0,7.2,0,14.3,0,21.5c0,1.6,0.8,2.5,2,2.4
			s1.8-0.9,1.8-2.5c0-8.2,0-16.4,0-24.6c0-1.7-0.6-2.5-2.2-2.5c-6.7,0-13.5,0-20.2,0c-1.4,0-2.1,0.7-2.2,2.1c0,0.5,0,0.9,0,1.4
			c0.1,0.8-0.1,1.4-0.9,1.9c-0.2,0.2-0.4,0.4-0.5,0.6c-0.1,0.3-0.2,0.5-0.2,0.8s0.1,0.6,0.2,0.8s0.3,0.5,0.6,0.6
			c0.8,0.5,0.8,1.1,0.8,1.8c0,10.6,0,21.3,0,31.9v79.3c0,0.8,0.1,1.5-0.9,2.1c-0.9,0.6-1,2.2,0,2.7c1,0.6,0.9,1.4,0.9,2.2
			c-0.1,1.3,0,2.5,1.2,3.3h22.1c1.2-0.6,1.4-1.7,1.4-2.9C-1230.5,240.1-1230.5,209.7-1230.5,179.3L-1230.5,179.3z M-1299.5,209.4
			c-0.4-0.2-0.8-0.4-1.2-0.4c-0.4,0-0.8,0.1-1.1,0.3s-0.6,0.5-0.8,0.8c-1.9,2.9-2.6,5.9-2.2,9.1c0.2,1.5,0.6,3,1,4.5
			c0.6,2.2,0.1,4-1.3,5.6c-0.5,0.6-1,1.2-1.5,1.8l-0.1,0.1l-0.5,0.6c-2.2,2.5-3.3,5.7-3.3,9c0,0.1,0,0.2,0,0.4c0,0.4,0,0.8,0.1,1.3
			c0.2,1.4,1.3,2.3,2.5,2.1c1.3-0.2,2.1-1.2,1.9-2.6c-0.3-3.1,0.6-5.8,2.8-8.1c0.3-0.3,0.7-0.8,1-1.1l0.3-0.4
			c1.4-1.6,2.8-3.6,2.7-5.9c-0.1-2.1-0.4-4.2-0.9-6.2c-0.7-2.9-0.3-5.4,1.2-7.7c0.2-0.3,0.3-0.6,0.4-0.9c0.1-0.3,0.1-0.6,0-0.9
			c-0.1-0.3-0.2-0.5-0.3-0.8C-1299,209.7-1299.2,209.5-1299.5,209.4L-1299.5,209.4z M-1275.9,264.6c-1.1,0-2.2,0-3.3,0
			c-0.5,0-1,0.2-1.3,0.5c-0.4,0.3-0.6,0.8-0.6,1.3c-0.1,1,0.7,1.9,1.9,2c0.5,0.1,1.1,0,1.7,0s1.2,0,1.8,0c0.5,0,1-0.2,1.3-0.6
			s0.5-0.9,0.5-1.3c0-0.2,0-0.5-0.1-0.7s-0.2-0.4-0.4-0.6c-0.2-0.2-0.4-0.3-0.6-0.4C-1275.4,264.6-1275.7,264.6-1275.9,264.6
			L-1275.9,264.6z M-1263.6,264.6c-0.6,0-1.1,0-1.7,0s-1.2,0-1.8,0c-1.1,0.1-1.7,0.7-1.9,1.7c0,0.2,0,0.5,0.1,0.7s0.2,0.5,0.3,0.7
			c0.2,0.2,0.4,0.3,0.6,0.5c0.2,0.1,0.5,0.2,0.7,0.2c1.3,0.1,2.6,0.1,3.8,0c0.2,0,0.5-0.1,0.7-0.2s0.4-0.3,0.6-0.4s0.3-0.4,0.3-0.6
			c0.1-0.2,0.1-0.5,0-0.7c0-0.2,0-0.5-0.1-0.7s-0.2-0.4-0.4-0.6c-0.2-0.2-0.4-0.3-0.6-0.4C-1263.1,264.6-1263.3,264.6-1263.6,264.6
			L-1263.6,264.6z M-1295.5,191.3c-2.4-0.9-2.3-3-2.3-3.7c0-0.6,0-1.1,0.1-1.7l0,0c0-1,0.1-2,0.1-3c-0.1-4.9-4.1-9.3-9-9.9
			c-1.3-0.2-2.4,0.6-2.6,1.8c-0.1,0.6,0,1.2,0.4,1.7c0.3,0.5,0.9,0.8,1.5,0.9c3.6,0.8,5.4,3,5.3,6.7c0,0.3,0,0.7,0,1v1.3h-0.2
			c0,0.6,0,1.2,0,1.8c0.2,3.5,2.1,6.3,5,7.1c0.4,0.1,0.8,0.1,1.3,0c0.4-0.1,0.8-0.3,1.1-0.7c0.3-0.3,0.5-0.7,0.6-1.1
			c0.1-0.4,0-0.9-0.1-1.3c-0.1-0.2-0.2-0.4-0.4-0.6C-1295,191.5-1295.2,191.4-1295.5,191.3L-1295.5,191.3z M-1275.2,212.1
			c0.1-0.7,0.1-1.4,0.2-2.1v-7.5c-0.1-0.6-0.1-1.1-0.2-1.7v-0.1c-0.1-1.3-0.3-2.7-0.4-4.1c-1.4-11.5-4.8-20.9-10.4-28.6
			c-4-5.5-8.4-9.2-13.6-11.2c-1.3-0.5-2.6-0.8-3.9-1.1c-0.6-0.1-1.3-0.3-1.9-0.4l-0.5-0.1h-0.2h-3.1h-0.1c-0.2,0.1-0.4,0.1-0.6,0.1
			c-8.5,1.3-14.4,6-17.7,14.1c-0.1,0.3-0.2,0.5-0.3,0.8l-0.2,0.5c-0.9,2.2-1.1,4.7-0.8,7c0.1,0.5,0.1,0.9,0.1,1.4
			c0.4,3.8,1.8,7.4,4.1,10.4c4.6,6.3,5.5,16.1,4.7,20.8c0,0.7-0.3,5.1-2,8.7c-0.7,1.7-1.5,3.2-2.4,4.8c-2.3,3.4-3.7,6.5-4.4,9.9v0.2
			c-0.1,2.7-0.4,8.9,2.7,13.9c0.3,0.4,0.6,0.8,0.9,1.2c0.1,0.1,0.2,0.2,0.2,0.3l0.1,0.1c5.8,8.4,17.1,11.5,26.9,7.3
			c6-2.5,10.7-7,14.6-13.7c4.1-7.2,6.6-15.5,7.8-26.1C-1275.5,215.2-1275.3,213.6-1275.2,212.1L-1275.2,212.1z M-1284.7,235.4
			c-2.6,6.3-5.8,10.8-9.9,14c-4,3.1-8.2,4.7-12.4,4.7c-2.1,0-4.1-0.4-6-1c-2.4-0.8-4.6-2.2-6.4-4s-3.2-4-4-6.5
			c-0.9-2.5-1.1-5.2-0.8-7.8c0.3-2.6,1.2-5.1,2.7-7.3c7.3-11.1,8.3-23.2,3.1-36c-0.7-1.7-1.7-3.3-2.8-4.9l-0.3-0.5
			c-1.5-2.3-2.4-4.9-2.7-7.6c-0.3-2.7,0.1-5.5,1.1-8s2.5-4.8,4.5-6.6s4.4-3.1,7.1-3.8c4.8-1.3,9.5-0.3,14.2,2.8
			c4.7,3.2,8.6,7.8,11.7,14.2c3.2,6.6,5.2,13.7,5.9,21.9c0.2,2.1,0.3,4.1,0.4,6.1v0.1c0,0.9,0.1,1.8,0.1,2.7v0.1
			C-1279.9,219.3-1281.5,227.8-1284.7,235.4L-1284.7,235.4z"/>
	</g>
	<g>
		<defs>
			<rect id="SVGID_00000000208739640423694980000015281107797266031519_" width="272.4" height="292.5"/>
		</defs>
		<clipPath id="SVGID_00000041280989508243969510000011927945994947368859_">
			<use xlink:href="#SVGID_00000000208739640423694980000015281107797266031519_"  style="overflow:visible;"/>
		</clipPath>
		<path style="clip-path:url(#SVGID_00000041280989508243969510000011927945994947368859_);fill:#6A3834;" d="M-1026.8,162.1
			c-2.5-0.2-4.9-1-7.1-2.3c-1.3-0.7-2.5-0.5-3.1,0.6s-0.2,2.2,1.1,3c2.7,1.6,5.6,2.5,8.7,2.7c1.7,0.1,2.6-0.5,2.7-1.8
			C-1024.3,163.1-1025.1,162.2-1026.8,162.1z M-997,157.6c-0.8,0.5-1.4,0.7-1.8,1.2c-1.8,1.8-4,3.3-6.4,4.2c-1.4,0.5-2,1.6-1.5,2.8
			s1.6,1.6,2.9,1.1c3.1-1.1,5.8-2.9,8.1-5.3c0.6-0.7,1-1.5,0.5-2.3C-995.7,158.6-996.4,158.1-997,157.6L-997,157.6z M-971.6,169.5
			h-18.7c2.5-2.7,5.1-5.4,7.3-8.2c2.5-3.2,2.9-6.9,1.2-10.7s-4.7-5.8-8.8-6.2c-3.9-0.3-7.1,1.3-9.4,4.4c-0.3,0.4-0.6,0.8-1,1.5
			c-0.1-1.3-0.1-2.4-0.2-3.5c-0.4-2.7-1.6-5.3-3.3-7.4c-4-5-9.6-8.4-15.9-9.8c-4.8-1.1-9.6-2.3-14.4-3.4c-1.8-0.4-3.1,0.5-2.8,2.3
			c1,6.1,2,12.2,3.1,18.2c0.3,1.8,1.2,3.5,1.9,5.6c-0.8-0.7-1.5-1.2-2.1-1.8c-3.5-3.1-7.4-3.9-11.7-2c-4.2,1.9-6.3,5.4-6.3,10
			c0,0.2,0,0.4,0,0.8l-4.4,0.4c0.9-2.8,1.8-5.6,2.5-8.4c0.3-1.3,0.3-2.7,0.4-4.1c0.1-1.9-0.8-2.6-2.7-2.5c-4,0.2-8,1.3-11.5,3.3
			c-0.1,0.1-0.3,0.2-0.5,0.2c-0.1,0-0.2,0-0.3,0c0.1-1.8,0.2-3.6,0.3-5.4c0.1-1.1-0.1-2.1-1.2-2.6s-2,0.1-2.7,0.8
			c-4,4.1-8,8.2-12,12.4c-4.2,4.3-5.7,9.4-4.3,15.3c0.1,0.2,0.1,0.4,0.2,0.8h-9.7c-1.8,0.1-2.3,0.7-2.3,2.6c0,3,0,5.9,0,8.9
			c0,1.2,0.3,2.1,1.3,2.7h9.3c0.8-0.7,1.5-1.4,1-2.6c-0.5-1.2-1.5-1.3-2.6-1.2c-1.7,0-3.3,0-5.2,0v-6.4h123.9v6.4H-1081
			c-0.4,0-0.9-0.1-1.3,0c-0.6,0.3-1.5,0.6-1.6,1.2c-0.2,0.6,0.2,1.4,0.4,2.1c0.1,0.2,0.3,0.4,0.5,0.5h113.6v-13.1
			c-0.3-0.3-0.6-0.6-1-0.8C-970.7,169.6-971.2,169.5-971.6,169.5L-971.6,169.5z M-1033.1,130.7c4.7,1.2,9.2,2.1,13.6,3.4
			c4.8,1.4,8.7,4.1,11.8,8c2,2.5,2.9,5.4,2.4,8.5c-0.7,3.8-1.7,6-5.4,6.6c-0.7,0.1-1.4,0-2-0.4c-2.3-1.6-5.1-2.3-7.9-1.9
			c-1.4,0.2-2.7,0.2-4.1,0.1c-0.3,0-0.6-0.1-0.8-0.2s-0.5-0.3-0.7-0.5c-1.2-1.7-2.3-3.5-3.2-5.4c-1.7-3.5-2-7.3-2.6-11.1
			C-1032.4,135.5-1032.7,133.2-1033.1,130.7z M-1069.5,154.1c0-0.3,0.2-0.5,0.4-0.7c3.1-2.5,6.8-4,10.7-4.5
			c-0.3,4.2-1.8,7.8-4.2,11.1c-0.1,0.1-0.3,0.2-0.5,0.2c-2.2,0.2-4.4,0.4-6.8,0.6C-1069.8,158.4-1069.7,156.2-1069.5,154.1
			L-1069.5,154.1z M-1061.8,169.2c-0.2,0.1-0.4,0.2-0.6,0.3h-21.7c-0.2-0.1-0.4-0.2-0.5-0.4s-0.2-0.4-0.3-0.6
			c-1.4-4.4-0.6-8.3,2.5-11.7c2-2.2,4.1-4.3,6.2-6.5c0.9-0.9,1.8-1.7,2.7-2.6c0,0.5,0,0.9,0,1.3c-0.3,4.5-0.6,9-0.8,13.5
			c-0.1,1.9,0.7,2.7,2.6,2.6c2.5-0.2,5-0.4,7.6-0.7l7.6-0.7C-1058.4,165.7-1060.1,167.5-1061.8,169.2L-1061.8,169.2z M-1056.3,169.5
			l5.5-5.1l6.4,5.1H-1056.3z M-1022.3,169.5h-12.3h-0.1c-4.2-1.6-8.1-3.7-11.6-6.5c-1-0.9-1.8-2.1-2.1-3.4c-0.3-1.3-0.2-2.7,0.3-3.9
			c0.5-1.3,1.4-2.3,2.5-3s2.5-1.1,3.8-1c1.8,0.1,3.2,0.9,4.5,2.1c4.9,4.4,10.6,6.1,17.1,5.2c0.8,0,1.6,0,2.4,0l0.2,0.3
			C-1021,161.8-1022.6,165.2-1022.3,169.5L-1022.3,169.5z M-998.5,169.5h-19.4c-0.7-3.8,1.6-7.2,5.2-7.7c6.9-0.9,12.2-4.4,15.9-10.3
			c0.5-0.7,1.1-1.4,1.8-1.9s1.5-0.9,2.4-1c0.9-0.2,1.7-0.2,2.6,0c0.9,0.2,1.7,0.5,2.4,1c3.1,2.1,3.7,6.2,1.4,9.3
			c-3,4.1-6.7,7.5-11,10.1C-997.7,169.2-998.1,169.4-998.5,169.5L-998.5,169.5z M-1057.3,106.4c0.2,0.1,0.5,0.1,0.7,0
			c0.2,0,0.5-0.1,0.7-0.3c0.2-0.1,0.4-0.3,0.5-0.5s0.2-0.4,0.3-0.7c0.2-0.9,0.4-1.8,0.6-2.7c0.2-1.2-0.8-2.2-2.4-2.2
			c-0.3,0.3-1,0.7-1.3,1.3c-0.3,1-0.6,2-0.6,3C-1058.9,105.4-1058.4,106.1-1057.3,106.4z M-1060.6,122.3c0.4,0.1,0.9,0.1,1.3-0.1
			s0.7-0.6,0.9-1c0.2-0.6,0.3-1.1,0.4-1.7c0.1-1.4-0.5-2.3-1.6-2.4c-0.5-0.1-1,0-1.4,0.3s-0.7,0.7-0.8,1.1c-0.2,0.6-0.3,1.2-0.4,1.9
			c-0.1,0.5,0.1,0.9,0.3,1.3C-1061.4,122-1061,122.2-1060.6,122.3L-1060.6,122.3z M-1055.2,97.9c1.3,0,2.2-1.4,2.2-3.4
			c0-0.5-0.2-1-0.6-1.4s-0.9-0.6-1.4-0.6c-1.3,0-2.2,1.4-2.2,3.4c0,0.3,0,0.5,0.1,0.7s0.2,0.5,0.4,0.6c0.2,0.2,0.4,0.3,0.6,0.4
			C-1055.7,97.9-1055.4,97.9-1055.2,97.9L-1055.2,97.9z M-1059,114.9c1.1,0.2,1.9-0.3,2.2-1.3c0.2-0.9,0.4-1.8,0.6-2.7
			c0.1-1.3-0.5-2.2-1.6-2.3c-0.5-0.1-1,0-1.4,0.3s-0.7,0.7-0.8,1.2c-0.2,0.9-0.4,1.7-0.5,2.6c-0.1,0.5,0,1,0.3,1.4
			C-1060,114.5-1059.5,114.8-1059,114.9L-1059,114.9z M-1017.4,145.7c1,1.4,1.8,2.9,2.8,4.3c0.4,0.5,0.9,0.9,1.4,1.3
			c1.9,0,3-1.5,2.4-2.7c-1.9-3.8-4.4-7.3-7.6-10.1c-0.8-0.8-2.1-0.6-2.8,0.3c-0.7,0.8-0.7,1.9,0.1,2.8
			C-1019.9,143-1018.5,144.3-1017.4,145.7L-1017.4,145.7z M-1010.8,117.1c-1.1,0.2-1.6,0.9-1.6,2.2c0.1,0.6,0.2,1.2,0.4,1.8
			c0.1,0.4,0.4,0.8,0.8,1c0.4,0.2,0.9,0.3,1.3,0.2c0.5-0.1,0.9-0.3,1.1-0.7c0.3-0.4,0.4-0.8,0.4-1.3c0-0.7-0.2-1.4-0.4-2
			c-0.1-0.4-0.4-0.8-0.8-1.1C-1009.9,117.1-1010.3,117-1010.8,117.1L-1010.8,117.1z M-1014.3,100.1c-1.1,0.2-1.7,1-1.5,2
			c0.1,1,0.3,2,0.6,3c0.1,0.2,0.1,0.4,0.3,0.6c0.1,0.2,0.3,0.3,0.5,0.5c0.2,0.1,0.4,0.2,0.6,0.2c0.2,0,0.5,0,0.7,0
			c1.1-0.2,1.6-0.9,1.6-2.2c-0.2-1-0.4-2-0.7-2.9c-0.1-0.2-0.2-0.4-0.3-0.6s-0.3-0.3-0.5-0.4s-0.4-0.2-0.6-0.2
			C-1013.8,100-1014.1,100-1014.3,100.1L-1014.3,100.1z M-1010.4,110.1c-0.3-0.7-1.1-1.2-1.4-1.6c-1.6,0.1-2.4,0.9-2.3,2.1
			c0.1,1,0.3,2,0.6,3s1.1,1.5,2.2,1.3c0.5-0.1,0.9-0.4,1.2-0.8s0.4-0.9,0.3-1.4C-1009.9,111.8-1010,110.9-1010.4,110.1
			L-1010.4,110.1z M-971.6,38c-5.2,0-10.4,0-15.6,0c-1.5,0-2.2,0.7-2.2,2.2c0,0.8,0,1.5,0,2.4h-1.5c-6.4,0-12.9,0-19.3,0
			c-0.5,0-0.9,0-1.4,0.1c-0.4,0.1-0.8,0.4-1,0.7c-0.2,0.4-0.3,0.8-0.3,1.2s0.2,0.8,0.5,1.2s0.7,0.5,1.1,0.6c0.4,0,0.9,0.1,1.3,0
			h20.5v12.8h-36.7c-2,0-2.6,0.6-2.6,2.6c0,1.9,0,3.7,0,5.6h-12.8c0-4,0-8,0-11.9c0-5.5,3.6-9.1,9.1-9.1c4.1,0,8.1,0,12.2,0
			c1.4,0,2.3-0.8,2.2-1.9c0-1.1-0.9-1.9-2.2-1.9c-4.5,0-9-0.1-13.5,0c-6,0.2-10.9,4.6-11.5,10.6c-0.4,4.2-0.2,8.5-0.2,12.7
			c0,0.5,0,1,0,1.4c-0.1,0-0.3,0.1-0.4,0.1h-4.2c-1.9,0-2.6,0.6-2.6,2.5c0,5.2,0,10.4,0,15.6c0,1.8,0.7,2.4,2.4,2.4
			c10.1,0,20.1,0,30.2,0c1.7,0,2.4-0.7,2.4-2.4c0-5.2,0-10.4,0-15.6c0-1.9-0.7-2.5-2.6-2.5c-1.5,0-3.1,0-4.6,0v-4.3h35.5
			c0,0.7,0,1.3,0,1.8c0,2.2,0.6,2.7,2.7,2.7c4.8,0,9.7,0,14.5,0c1.2,0,2.1-0.3,2.7-1.3v-27C-969.9,38.6-970.5,38-971.6,38L-971.6,38
			z M-1021.6,71.6v12.6h-27.1V71.6H-1021.6z M-973.3,63.9h-12.1v-22h12.1V63.9z M-1029.6,92.6c-1.3,0.1-1.9,1.3-1.7,3.3
			c0.2,1.4,1,2.2,2.1,2.1c1.2-0.1,1.8-1,1.7-2.4C-1027.5,93.5-1028.3,92.5-1029.6,92.6L-1029.6,92.6z M-1015.9,92.6
			c-0.5,0.1-0.9,0.3-1.1,0.7c-0.3,0.4-0.4,0.8-0.3,1.3c0.1,0.7,0.2,1.4,0.4,2c0.1,0.4,0.4,0.8,0.8,1.1c0.4,0.2,0.9,0.3,1.3,0.2
			c1.1-0.2,1.6-0.9,1.6-2.2c-0.1-0.6-0.2-1.3-0.5-1.9c-0.1-0.4-0.4-0.8-0.9-1C-1015,92.6-1015.4,92.5-1015.9,92.6L-1015.9,92.6z
			 M-1044.4,110.2c-0.2,0.8-0.2,1.7-0.3,2.5c0,1.2,0.6,2.1,1.7,2.2s1.9-0.4,2.1-1.5c0.2-1,0.3-1.9,0.3-2.9c0-0.5-0.2-0.9-0.5-1.3
			c-0.3-0.3-0.8-0.6-1.2-0.6s-0.9,0.1-1.3,0.4C-1044,109.3-1044.3,109.7-1044.4,110.2L-1044.4,110.2z M-1043.6,102.2
			c-0.1,0.7-0.2,1.4-0.2,2.2c0,0.5,0.1,1,0.4,1.4s0.8,0.6,1.3,0.7c0.2,0,0.5,0,0.7-0.1s0.5-0.2,0.7-0.3c0.2-0.2,0.4-0.3,0.5-0.6
			c0.1-0.2,0.2-0.5,0.2-0.7c0.1-0.8,0.2-1.5,0.3-2.3c0-1.5-0.6-2.4-1.8-2.5C-1042.7,100-1043.5,100.8-1043.6,102.2L-1043.6,102.2z
			 M-1045.4,120.6c0,0.2,0,0.5,0.1,0.7s0.2,0.4,0.4,0.6c0.2,0.2,0.4,0.3,0.6,0.4s0.5,0.1,0.7,0.1c1.1,0,1.8-0.6,2-1.6
			c0.1-0.5,0.1-1,0.2-1.7c0-0.5-0.1-0.9-0.4-1.3s-0.7-0.6-1.2-0.7c-0.2-0.1-0.4-0.1-0.7,0c-0.2,0-0.4,0.1-0.6,0.2s-0.4,0.3-0.5,0.4
			c-0.1,0.2-0.2,0.4-0.3,0.6C-1045.4,119-1045.5,119.8-1045.4,120.6L-1045.4,120.6z M-1039.2,96.3c0.1-0.3,0.1-0.6,0.1-0.9
			c0.1-1.8-0.6-2.8-1.8-2.8c-1.2,0-1.9,0.8-2.1,2.3c0,0.3-0.1,0.7-0.1,1c0,1.1,0.7,1.9,1.7,2.1
			C-1040.2,98.1-1039.4,97.4-1039.2,96.3L-1039.2,96.3z M-1028,108.5c-0.2,0-0.5,0.1-0.7,0.2s-0.4,0.3-0.6,0.4
			c-0.2,0.2-0.3,0.4-0.4,0.6s-0.1,0.5-0.1,0.7c0,0.9,0.1,1.8,0.3,2.7c0,0.5,0.3,1,0.7,1.3c0.4,0.3,0.9,0.5,1.4,0.5
			c1.1-0.1,1.8-0.9,1.8-2.2c-0.1-0.8-0.1-1.7-0.3-2.6c-0.1-0.5-0.3-0.9-0.7-1.2C-1027,108.6-1027.5,108.5-1028,108.5L-1028,108.5z
			 M-1027.2,117c-1.1,0.1-1.7,0.8-1.7,1.9c0,0.6,0.1,1.1,0.2,1.7c0.2,1.2,1,1.9,2.1,1.8c1-0.1,1.7-0.9,1.7-2.2
			c0-0.5-0.1-1.1-0.2-1.6C-1025.4,117.5-1026.1,116.9-1027.2,117L-1027.2,117z M-1028.5,100.1c-1.3-0.2-2.2,0.9-2.1,2.7
			c0.1,0.8,0.2,1.5,0.3,2.3c0.1,0.3,0.2,0.5,0.3,0.7c0.2,0.2,0.4,0.4,0.6,0.5s0.5,0.2,0.8,0.2s0.5,0,0.8-0.1c2-0.9,1.1-2.6,1-4.1
			C-1026.8,101.1-1027.3,100.3-1028.5,100.1L-1028.5,100.1z"/>
	</g>
	<g>
		<defs>
			<rect id="SVGID_00000112598290327125442180000001579053073908004788_" width="272.4" height="292.5"/>
		</defs>
		<clipPath id="SVGID_00000123425673938095864110000005961676507083124900_">
			<use xlink:href="#SVGID_00000112598290327125442180000001579053073908004788_"  style="overflow:visible;"/>
		</clipPath>
		<path style="clip-path:url(#SVGID_00000123425673938095864110000005961676507083124900_);fill:#6A3834;" d="M-816.1,260.4
			c-1.1,0-1.9,0.9-1.9,2.3c0,1.5,0,2.9,0,4.4s0,2.8,0,4.2c0,1.4,0.8,2.2,2,2.2c1.1,0,1.8-0.8,1.9-2.2c0-2.9,0-5.7,0-8.6
			C-814.2,261.2-815,260.4-816.1,260.4z M-764.2,156.3c1.1,0,1.8-0.6,1.9-1.7c0-0.3,0.1-0.7,0.1-1c0-3,0-6.1,0-9.1
			c0-1.1-0.2-2.1-1.2-2.8h-1.5c-0.4,0.6-1,1.1-1,1.6c-0.1,3.8-0.1,7.5,0,11.3C-766,155.7-765.2,156.3-764.2,156.3z M-791,240.2
			c17.7,0.7,32.7-13.5,33.5-31.6c0.7-17.7-13.5-32.8-31.5-33.5c-17.8-0.7-32.9,13.5-33.6,31.6C-823.4,224.4-809.2,239.5-791,240.2z
			 M-792.1,234.9c0,0.4,0,0.7-0.1,1.3c-6.4-0.4-11.9-2.8-16.9-7c0.8-0.8,1.5-1.4,2.2-2.1c4.3-4.3,8.5-8.5,12.8-12.8
			c0.3-0.3,1-0.6,1.3-0.5s0.6,0.8,0.6,1.3C-792,221.7-792.1,228.3-792.1,234.9L-792.1,234.9z M-788.1,236.2c0-0.5-0.1-1-0.1-1.4
			c0-6.6,0-13.1,0-19.7c0-0.5,0.4-1,0.6-1.5c0.5,0.2,1.1,0.3,1.4,0.6c4.7,4.6,9.4,9.3,14,14c0.3,0.3,0.5,0.6,0.9,0.9
			C-776.2,233.4-781.7,235.7-788.1,236.2L-788.1,236.2z M-768.5,226.4c-0.4-0.3-0.6-0.6-0.9-0.8c-4.7-4.7-9.4-9.4-14.1-14.1
			c-0.3-0.3-0.7-1-0.5-1.3c0.1-0.3,0.8-0.6,1.3-0.6c6.7,0,13.4,0,20,0c0.3,0,0.7,0,1.2,0.1C-761.9,216-764.3,221.5-768.5,226.4
			L-768.5,226.4z M-768.5,188.7c4.2,4.9,6.5,10.4,7,16.9h-1.5c-6.5,0-12.9,0-19.4,0c-0.5,0-1.1-0.4-1.6-0.6c0.2-0.5,0.3-1.1,0.7-1.4
			c4.6-4.7,9.2-9.3,13.9-13.9C-769.2,189.4-768.9,189.1-768.5,188.7L-768.5,188.7z M-788.2,179.7c0-0.2,0-0.3,0.1-0.7
			c6.4,0.5,11.9,2.8,16.8,6.9c-0.2,0.2-0.4,0.5-0.6,0.7c-4.8,4.8-9.6,9.6-14.5,14.4c-0.2,0.2-0.4,0.3-0.6,0.3
			c-0.2,0.1-0.4,0.1-0.7,0.1c-0.3-0.1-0.6-0.7-0.6-1C-788.2,193.5-788.2,186.6-788.2,179.7L-788.2,179.7z M-790.1,204.8
			c0.5,0,1.1,0.2,1.5,0.5s0.8,0.7,1,1.2s0.3,1.1,0.1,1.6c-0.1,0.5-0.4,1-0.8,1.4c-0.4,0.4-0.9,0.6-1.4,0.7c-0.5,0.1-1.1,0-1.6-0.2
			s-0.9-0.6-1.2-1c-0.3-0.5-0.4-1-0.4-1.5c0-0.7,0.3-1.4,0.8-1.9C-791.5,205.1-790.9,204.9-790.1,204.8L-790.1,204.8z M-792.1,179
			c0,0.6,0.1,1,0.1,1.5c0,6.5,0,13,0,19.5c0,0.5-0.2,1.1-0.6,1.5c-0.7,0.6-1.1-0.2-1.5-0.6c-4.6-4.6-9.2-9.1-13.7-13.7
			c-0.4-0.4-0.8-0.7-1.3-1C-804.1,181.8-798.6,179.4-792.1,179L-792.1,179z M-811.7,188.7c1.7,1.8,3.4,3.4,5,5
			c3.4,3.4,6.7,6.7,10.1,10.1c0.2,0.2,0.3,0.4,0.3,0.6c0.1,0.2,0.1,0.4,0.1,0.7c-0.1,0.3-0.7,0.6-1,0.6c-6.9,0-13.8,0-20.7,0
			c-0.2,0-0.3,0-0.7-0.1C-818.3,199.2-815.9,193.7-811.7,188.7z M-817.3,209.5c6.6,0,13.1,0,19.7,0c0.5,0,1,0.4,1.5,0.6
			c-0.2,0.5-0.3,1.1-0.7,1.4c-4.6,4.7-9.2,9.3-13.9,13.9c-0.3,0.3-0.6,0.6-1,0.9c-4.1-4.7-6.6-10.6-7-16.8
			C-818.2,209.6-817.8,209.5-817.3,209.5L-817.3,209.5z M-761.3,178.5c-0.5-0.6-0.8-1.3-0.8-2c-0.1-4.2,0-8.5,0-12.7
			c0-1.5-0.7-2.2-1.9-2.3c-1.2,0-1.9,0.8-1.9,2.2c0,1.5,0,3,0,4.5c0,2,0,4,0,6.2c-1.3-0.8-2.3-1.5-3.4-2.1c-0.8-0.4-1.1-1-1.1-1.9
			c0-8.7,0-17.3,0-26c0-1.2-0.3-2.1-1.3-2.7h-1.3c-1,0.7-1.3,1.6-1.3,2.7c0.1,3.7,0,7.4,0,11.2c-1.2-0.3-2.4-0.4-3.6-0.3
			c-1.2,0.1-2.4,0.5-3.4,1.1c0.7-3-0.1-5.3-2.3-7.1c-1-0.8-2.2-1.4-3.4-1.8c-1.2-0.4-2.5-0.5-3.8-0.4c-5.6,0.4-8.5,3.8-8,9.2
			c-2.2-1.1-4.4-1.5-6.9-0.7v-2.1c0-3,0-6.1,0-9.1c0-1.2-0.3-2.1-1.3-2.7h-1.3c-1.1,0.6-1.3,1.5-1.3,2.7c0,8.6,0,17.3,0,25.9
			c0,0.9-0.2,1.5-1.1,1.9c-1.1,0.6-2.1,1.3-3.4,2.1v-1.6c0-9.4,0-18.7,0-28.1c0-1.2-0.2-2.2-1.2-2.9h-1.6c-1,0.7-1.2,1.7-1.2,2.9
			c0,10.5,0,21.1,0,31.6c0,0.9-0.3,1.7-1,2.4c-2,2.3-3.8,4.6-5.6,7c-0.2,0.2-0.3,0.4-0.3,0.7c-0.1,0.3-0.1,0.5,0,0.8
			c0,0.3,0.2,0.5,0.3,0.7c0.2,0.2,0.3,0.4,0.6,0.5c0.9,0.5,1.9,0.3,2.6-0.6c0.2-0.2,0.3-0.5,0.5-0.7c9.1-12.7,21.4-18.2,36.8-16
			c20.4,2.9,34.5,23.2,30.4,43.3c-4,20.1-22.4,32.8-42.6,29.6c-17-2.7-30.5-18.1-30.8-35.4c-0.1-4.4,0.5-8.7,1.9-12.9
			c0.3-0.9,0.4-1.9-0.5-2.4c-0.5-0.3-1.5-0.5-2-0.2c-0.5,0.2-1,1-1.2,1.7c-4.7,15.8-1.4,29.7,10,41.7c0.3,0.3,0.5,0.6,0.7,1
			s0.2,0.8,0.2,1.2c0,4.5,0,9.1,0,13.6c0,0.5,0,1,0.1,1.5c0.2,1,0.9,1.4,1.9,1.4c0.4,0,0.8-0.1,1.1-0.4c0.3-0.3,0.5-0.6,0.6-1
			c0.1-0.5,0.1-0.9,0.1-1.4c0-3.4,0-6.8,0-10.2c0-0.4,0-0.9,0.1-1.4c1.2,0.8,2.2,1.5,3.3,2.1c0.8,0.4,1.1,1,1.1,1.9
			c0,8.6,0,17.1,0,25.7c0,0.4,0,0.9,0,1.3c0,0.3,0.1,0.5,0.3,0.8s0.3,0.4,0.6,0.6c0.2,0.2,0.5,0.2,0.8,0.3c0.3,0,0.6,0,0.8-0.1
			c0.7-0.2,1.4-0.2,2.2-0.1c4.5,1.1,8.5-3.1,7.3-7.5c-0.9-3.4-3.9-4.9-8-4.2v-16.1c10.4,4.1,20.9,4.1,31.3,0v16.1
			c-0.4-0.1-0.7-0.2-1-0.2c-1.2-0.2-2.5-0.1-3.6,0.5c-1.1,0.5-2.1,1.4-2.7,2.5c-0.6,1-0.9,2.2-0.8,3.4c0.1,1.2,0.5,2.4,1.3,3.3
			c1.5,2,4.1,2.8,6.7,2.1c0.5-0.1,1-0.1,1.5,0.1c0.9,0.3,1.7,0.2,2.2-0.6c0.3-0.6,0.5-1.3,0.5-1.9c0-8.7,0-17.4,0-26.1
			c0-0.5,0.2-1.2,0.5-1.4c1.2-0.9,2.5-1.6,4-2.5v29.7c0,2.1,0.6,3,2,3c1.3,0,1.9-0.9,1.9-2.9c0-10.6,0-21.2,0-31.8
			c0-0.7,0.3-1.5,0.8-2C-745.2,220.4-745.1,194.8-761.3,178.5L-761.3,178.5z M-799.8,167.7c-2.9,0-6-3.1-6.1-5.9
			c0-1.8,0.9-2.7,2.7-2.6c2.9,0.1,5.9,3.2,5.9,6.1C-797.3,166.8-798.2,167.7-799.8,167.7L-799.8,167.7z M-786.6,163.7
			c-0.1,1,0,1.9,0,3h-6.5c-0.3-1.9-0.7-3.8-1-5.8c2.7,1,5.7,1,8.4-0.1C-786.1,161.9-786.5,162.8-786.6,163.7L-786.6,163.7z
			 M-785.9,156.3c-1,0.9-2.5,1.4-4.1,1.4l-0.2,0.3c-1.3-0.6-2.8-1-4-1.8c-1.5-1-1.4-2.7-0.1-3.8c2.1-1.9,6.3-1.9,8.3,0
			C-784.7,153.7-784.7,155.1-785.9,156.3L-785.9,156.3z M-780.5,167.7c-1.5,0-2.4-1-2.4-2.4c-0.1-3,3.1-6.2,6.1-6.2
			c1.6,0,2.5,1,2.5,2.6C-774.4,164.7-777.7,167.8-780.5,167.7L-780.5,167.7z M-803.6,265.1c0.3,0,0.6,0.1,0.8,0.2
			c0.3,0.1,0.5,0.3,0.7,0.5s0.4,0.4,0.5,0.7c0.1,0.3,0.2,0.6,0.2,0.8c0,0.6-0.2,1.1-0.6,1.6c-0.4,0.4-1,0.7-1.5,0.7
			c-0.3,0-0.6-0.1-0.9-0.2c-0.3-0.1-0.5-0.3-0.7-0.5s-0.4-0.5-0.5-0.7c-0.1-0.3-0.2-0.6-0.1-0.9c0-0.3,0.1-0.6,0.2-0.8
			c0.1-0.3,0.3-0.5,0.5-0.7s0.4-0.4,0.7-0.5C-804.2,265.2-803.9,265.1-803.6,265.1L-803.6,265.1z M-776.6,269.6
			c-0.3,0-0.6-0.1-0.9-0.2c-0.3-0.1-0.5-0.3-0.7-0.5s-0.4-0.5-0.5-0.8s-0.1-0.6-0.1-0.9c0-0.6,0.3-1.1,0.7-1.5s1-0.6,1.6-0.6
			s1.1,0.3,1.5,0.7c0.4,0.4,0.6,1,0.6,1.6s-0.3,1.1-0.7,1.5C-775.5,269.3-776,269.6-776.6,269.6L-776.6,269.6z M-790.1,252.7
			c-1.2,0-2.4,0.3-3.4,1s-1.8,1.6-2.3,2.7c-0.5,1.1-0.6,2.3-0.4,3.5c0.2,1.2,0.8,2.3,1.7,3.1c0.9,0.9,1.9,1.4,3.1,1.7
			c1.2,0.2,2.4,0.1,3.5-0.4s2.1-1.3,2.7-2.3c0.7-1,1-2.2,1-3.4c0-1.6-0.7-3.1-1.8-4.3C-786.9,253.3-788.5,252.7-790.1,252.7
			L-790.1,252.7z M-790,261c-0.4,0-0.9-0.1-1.2-0.3c-0.4-0.2-0.7-0.6-0.8-1c-0.2-0.4-0.2-0.9-0.2-1.3c0.1-0.4,0.3-0.8,0.6-1.2
			s0.7-0.5,1.1-0.6c0.4-0.1,0.9-0.1,1.3,0.1c0.4,0.2,0.8,0.4,1,0.8c0.3,0.4,0.4,0.8,0.4,1.2c0,0.6-0.2,1.1-0.6,1.6
			C-788.9,260.7-789.5,261-790,261L-790,261z"/>
	</g>
	<g>
		<defs>
			<rect id="SVGID_00000065755010547553361360000016748476407831165594_" width="272.4" height="292.5"/>
		</defs>
		<clipPath id="SVGID_00000161603899508324545240000002975625297443132813_">
			<use xlink:href="#SVGID_00000065755010547553361360000016748476407831165594_"  style="overflow:visible;"/>
		</clipPath>
		<path style="clip-path:url(#SVGID_00000161603899508324545240000002975625297443132813_);fill:#6A3834;" d="M-516.4,138.6
			c0.4,0,0.8-0.1,1.2-0.3c0.3-0.2,0.6-0.6,0.8-0.9c0.1-0.4,0.2-0.8,0.1-1.2c-0.1-0.4-0.3-0.8-0.6-1.1s-0.7-0.5-1.1-0.6
			c-0.4-0.1-0.8,0-1.2,0.1c-0.4,0.2-0.7,0.4-0.9,0.8c-0.2,0.3-0.3,0.7-0.3,1.2s0.2,1.1,0.6,1.4
			C-517.4,138.4-516.9,138.6-516.4,138.6z M-526.7,132.5c0.4,0,0.8-0.1,1.2-0.3s0.6-0.5,0.8-0.9s0.2-0.8,0.1-1.2
			c-0.1-0.4-0.3-0.8-0.6-1.1s-0.6-0.5-1-0.6s-0.8,0-1.2,0.1c-0.4,0.2-0.7,0.4-0.9,0.8c-0.2,0.3-0.3,0.7-0.3,1.1
			c0,0.5,0.2,1.1,0.6,1.5C-527.8,132.2-527.2,132.5-526.7,132.5L-526.7,132.5z M-506,128.3c0.4,0,0.8-0.1,1.1-0.4
			c0.3-0.2,0.6-0.6,0.7-0.9c0.1-0.4,0.2-0.8,0.1-1.2c-0.1-0.4-0.3-0.8-0.6-1c-0.3-0.3-0.7-0.5-1.1-0.5c-0.4-0.1-0.8,0-1.2,0.2
			c-0.4,0.2-0.7,0.4-0.9,0.8c-0.2,0.3-0.3,0.8-0.3,1.2c0,0.5,0.2,1.1,0.6,1.4C-507.1,128.2-506.5,128.4-506,128.3L-506,128.3z
			 M-539.1,132.5c0.4,0,0.8-0.1,1.2-0.3s0.6-0.5,0.8-0.9s0.2-0.8,0.2-1.2c-0.1-0.4-0.2-0.8-0.5-1.1s-0.6-0.5-1-0.6s-0.8-0.1-1.2,0.1
			s-0.7,0.4-0.9,0.7s-0.4,0.7-0.4,1.1c0,0.5,0.2,1.1,0.5,1.5C-540.2,132.2-539.6,132.5-539.1,132.5L-539.1,132.5z M-486.1,116
			c-2.8,0-5.7,0-8.5,0c-0.4,0-0.7,0-1.2-0.1c0-2.5,0-4.8,0-7.2c-0.1-3.3,0-6.7-0.4-10c-1-7.8-4.5-14.4-10-19.9
			c-0.6-0.6-0.7-1.1-0.3-1.8c0.6-1.2,1.2-2.4,1.9-3.5c2.2-3.4,4.8-6.6,7.9-9.3c0.8-0.7,1.2-1.5,0.8-2.5c-0.4-1-1.2-1.4-2.3-1.3
			c-4.6,0.1-9,0.8-13.3,2.6c-0.5,0.2-1,0.4-1.4,0.6c2-3.6,4.7-6.8,7.7-9.5c0.8-0.7,1.5-1.5,1-2.7c-0.4-1.2-1.5-1.4-2.6-1.4
			c-4.8,0.1-9.5,1-13.8,3c-0.5-1.9-0.9-3.7-1.5-5.5c-1.2-3.7-3.3-6.7-6.6-9c-1.5-1-2.8-1-4.3,0c-3.8,2.6-5.9,6.3-7.1,10.7
			c-0.3,1.2-0.6,2.5-0.9,3.8c-4.6-2.2-9.4-3-14.3-3c-1,0-1.8,0.3-2.2,1.3s0,1.7,0.7,2.4c0.9,0.9,1.9,1.7,2.7,2.6
			c1.9,2.2,3.8,4.6,5.7,6.8l-0.3,0.3c-0.4-0.1-0.7-0.3-1-0.4c-4.4-2-9.1-2.7-13.9-2.8c-0.4,0-0.9,0.1-1.2,0.3
			c-0.4,0.2-0.6,0.6-0.8,1c-0.4,0.9-0.1,1.7,0.6,2.3c0.3,0.3,0.6,0.6,0.9,0.9c3.7,3.5,6.9,7.4,9.1,12c0.4,0.8,0.3,1.3-0.4,1.9
			c-3.4,3.3-6.1,7.3-7.9,11.8c-1.7,4.1-2.5,8.5-2.5,13l-7.5,2.9c0.5-4,1-8.1,2.9-11.8c0.3-0.5,0.6-1.2,0.4-1.7
			c-0.3-0.7-0.8-1.3-1.5-1.7c-0.2-0.1-0.4-0.1-0.7-0.1c-0.2,0-0.5,0-0.7,0.1s-0.4,0.2-0.6,0.4c-0.2,0.2-0.3,0.4-0.4,0.6
			c-0.9,2.3-1.9,4.6-2.5,6.9c-0.7,2.6-1,5.3-1.4,8.1c-0.2-0.1-0.5-0.1-0.7-0.2c-0.4-0.2-0.7-0.4-1.1-0.6c-6.1-3.7-12.4-4-18.5-0.1
			c-7.2,4.6-9.5,11.6-8.9,19.8c0.2,2.8,0.8,5.5,1.1,8.3c0.8,6.3,2.6,12.4,5.9,17.9c4.6,7.6,12.9,10.8,21,7.7
			c1.8-0.7,3.8-0.7,5.5,0.1c6.3,2.4,12.1,1,17.1-3.3c0.7-0.6,1.2-0.7,2-0.3c8.1,3.7,16.6,5.4,25.4,4.5c16.7-1.6,29.8-9.4,39.2-23.3
			c3.9-5.6,6-12.2,6.2-19C-483.4,116.7-484.1,116-486.1,116L-486.1,116z M-496.1,120.2c-2.4,10.5-8.6,18.1-17.6,23.4
			c-11.6,6.9-25.1,6.6-35.2,1.5c2.2-8.2,3.8-16.4,3.6-25h49.2V120.2z M-539.1,106.1l8.2-9l8,8.7l-7.7,8.5L-539.1,106.1z M-535.5,116
			c-3.2,0-6.8,0-10.4,0c-0.3,0-0.7-0.4-0.8-0.7c-0.2-0.4-0.5-0.9-0.6-1.4l5.1-5.4L-535.5,116z M-519.1,108.4l6.8,7.6h-13.8
			L-519.1,108.4z M-527.1,94.3l8-8.6l8.1,8.8l-8,8.6L-527.1,94.3z M-519.1,80.2l-6.2-6.8c3,0.4,6.4,1.6,9.5,3.4L-519.1,80.2z
			 M-522.8,83.2l-7.9,8.5l-8-8.8l7.8-8.5L-522.8,83.2z M-542.4,80.3l-3.3-3.6c3-1.7,6.2-2.8,9.6-3.4L-542.4,80.3z M-542.4,85.7
			l8,8.7l-8.1,8.7l-7.9-8.7C-548,91.8-545.3,88.9-542.4,85.7L-542.4,85.7z M-545.6,105.5l-4.3,4.5c-3-3.3-6.5-5.4-10.5-6.1l6.2-6.8
			L-545.6,105.5z M-503,115.9c0.9-1,1.9-2,3.1-3.3v3.3H-503z M-501,108l-6.6,6.3c-2.8-3-5.4-5.9-7.9-8.7l7.9-8.4
			c0.9,0.9,1.7,1.6,2.4,2.3c1.4,1.3,2.8,2.7,4.2,4C-499.4,105-499.4,106.4-501,108L-501,108z M-502,92.3l1.7,5.7l-0.4,0.2l-3.4-3.9
			L-502,92.3z M-504.1,88.1l-3.3,3.5l-8.2-8.9l3.4-3.6C-508.9,81.6-506.2,84.6-504.1,88.1L-504.1,88.1z M-506.3,65.7
			c0.9-0.2,1.8-0.4,2.6-0.6l-6.8,10c-1.6-0.9-3.4-1.9-5.2-2.9c-1-0.6-0.4-1.1,0.1-1.6C-512.9,68.1-509.8,66.6-506.3,65.7
			L-506.3,65.7z M-511.6,54.7c-4.1,4.8-7.4,9.5-8.5,15.5l-5.3-1.1c-0.2,0-0.4-0.1-0.6-0.1c-2.1-0.3-2.9-2.1-1.8-3.9
			C-524.2,59.2-518.7,56-511.6,54.7L-511.6,54.7z M-533,44.3c2.2-2.5,2.2-2.5,4.3,0c2.7,3.1,3.5,6.9,4,10.9c0,0.1,0,0.3-0.1,0.4
			c-0.1,0.1-0.1,0.2-0.2,0.3c-1.9,2-3.9,3.9-5.8,5.7c-1.8-1.8-3.7-3.7-5.6-5.6c-0.3-0.2-0.4-0.6-0.5-0.9
			C-536.5,51.2-535.7,47.3-533,44.3L-533,44.3z M-549.9,54.9c8.2,0.9,15.3,6.6,17.7,13.6l-9.3,1.6C-542.6,64.3-546,59.5-549.9,54.9
			L-549.9,54.9z M-557.9,65.1c3.6,0.5,7,1.9,9.9,3.9c0.7,0.5,1.4,1.1,2.1,1.7c0.5,0.5,0.6,1.1-0.2,1.5c-1.7,0.9-3.4,1.9-5,2.8
			L-557.9,65.1z M-549.5,79.2c1.2,1.4,2.5,2.7,3.5,3.9l-8,8.6l-3.3-3.7C-555.3,84.5-552.7,81.6-549.5,79.2L-549.5,79.2z M-559.6,92
			l2.1,2.3l-3.6,3.8l-0.2-0.1C-560.7,96.2-560.2,94.3-559.6,92z M-556.1,150.4c-2.6,4.4-6.6,6.9-11.9,6.8c-1.6-0.1-3.1-0.4-4.6-1.1
			c-1.1-0.5-2.3-0.8-3.5-0.8s-2.4,0.3-3.5,0.8c-4,1.7-8,1.5-11.8-0.9c-2.3-1.4-4-3.4-5.3-5.8c-2.9-5.3-4.3-11-5.1-17
			c-0.3-2.2-0.7-4.3-0.9-6.5c-0.5-6.2,1-11.7,6.2-15.6c4.5-3.3,10.2-3.3,14.9-0.3c1.1,0.7,2.4,1.2,3.8,1.9c-0.1,1.2-0.2,2.5-0.2,4.1
			c-1-0.5-1.9-0.9-2.7-1.5c-1.2-0.7-2.2-0.7-3,0.2c-0.7,0.9-0.6,2.2,0.5,3.1c3.7,3.1,11,3.1,14.6,0c1-0.9,1.2-2,0.5-3s-1.8-1-3-0.3
			c-0.8,0.5-1.7,0.9-2.8,1.5c0.1-1.6,0.2-2.8,0.3-4c0-0.1,0-0.2,0.1-0.3c0-0.1,0.1-0.2,0.2-0.2c1.8-0.9,3.5-1.8,5.3-2.6
			c7.9-3.3,15.9,1.7,18.1,9.4c1,3.4,0.9,6.8,0.3,10.2c-0.9,4.6-1.5,9.3-2.7,13.8C-553.3,145.1-554.6,147.8-556.1,150.4L-556.1,150.4
			z M-492.6,134.7c-8.5,13.2-20.6,20.6-36.2,22.2c-7.8,0.8-15.4-0.6-22.6-3.6c-0.4-0.2-0.8-0.3-1.2-0.6l2-3.7
			c12.2,5.4,24.3,5.5,36.3-0.4c11.8-5.9,19.7-15.2,22.5-28.4h4.2C-488,125.4-489.7,130.4-492.6,134.7L-492.6,134.7z M-532.8,144.8
			c0.4,0,0.8-0.1,1.1-0.4c0.3-0.2,0.6-0.6,0.8-0.9c0.2-0.4,0.2-0.8,0.1-1.2c-0.1-0.4-0.3-0.8-0.6-1c-0.3-0.3-0.7-0.5-1.1-0.5
			c-0.4-0.1-0.8,0-1.2,0.1c-0.4,0.2-0.7,0.4-0.9,0.8c-0.2,0.3-0.3,0.7-0.3,1.2s0.2,1.1,0.6,1.4
			C-533.9,144.6-533.4,144.8-532.8,144.8L-532.8,144.8z"/>
	</g>
	<g>
		<defs>
			<rect id="SVGID_00000022526785945312595160000016357752287166587291_" width="272.4" height="292.5"/>
		</defs>
		<clipPath id="SVGID_00000073698389243383606640000012713147477064254908_">
			<use xlink:href="#SVGID_00000022526785945312595160000016357752287166587291_"  style="overflow:visible;"/>
		</clipPath>
		<path style="clip-path:url(#SVGID_00000073698389243383606640000012713147477064254908_);fill:#6A3834;" d="M-229.6,178.3h-37V213
			h6.4c-1.3,1.7-2.6,3.2-3.7,4.8c-0.6,0.9-1.2,1.2-2.2,1.2c-8.9,0-17.7,0-26.6,0h-1.6v-12h-4.2v11.9h-19.2V207h-4.2v12h-31.8v20.9
			c-4.8-1.9-8.6-1.2-11.3,2.2c-1.1,1.4-1.8,3.2-1.9,5s0.4,3.6,1.4,5.1c2.4,3.7,5.9,4.5,11.6,2.9v3.7H-370v14.6h11.8
			c-0.1-1.3-0.1-2.6-0.2-4.1h100.6v4.1h11.8v-14.7h-16.2c-0.7-2.5-0.5-3,1.4-4.3c4.1-2.7,8.3-5.4,12.4-8c0.5-0.4,1.1-0.6,1.7-0.7
			c8.9-0.9,15.3-6.9,16.8-15.8c0-0.2,0.1-0.3,0.2-0.5V225c-0.2-0.8-0.4-1.7-0.6-2.5c-0.9-3.4-2.7-6.4-5.3-8.8
			c-0.3-0.3-0.5-0.6-0.6-1h6.5v-34.4H-229.6z M-354.4,249.5c-0.5,1.6-2.4,2.7-4.2,2.5c-1.1-0.1-2-0.6-2.8-1.4s-1.2-1.8-1.3-2.8
			c-0.1-1.1,0.2-2.1,0.8-3c0.6-0.9,1.5-1.5,2.6-1.8c1.9-0.5,4.3,0.4,5,2.4h-3.8v4.1H-354.4z M-362.6,269.2h-3.2V263h3.2V269.2z
			 M-349.4,223.2h82.7v35.4h-82.7L-349.4,223.2L-349.4,223.2z M-253.5,263h3.2v6.3h-3.2V263z M-257.8,263v2h-100.5v-2H-257.8z
			 M-262.4,250.6v-11.5c2.3,2.7,5.3,4.7,8.7,5.8L-262.4,250.6z M-233.7,226.9c0,1.9-0.3,3.8-1,5.6s-1.7,3.4-3.1,4.8
			c-1.3,1.4-2.9,2.5-4.7,3.3s-3.6,1.2-5.5,1.2c-7.6,0.2-14.4-6.3-14.6-13.9c-0.1-1.9,0.3-3.8,1-5.6s1.7-3.4,3-4.8
			c1.3-1.4,2.9-2.5,4.7-3.3s3.6-1.2,5.5-1.2C-240.7,212.8-233.9,219.2-233.7,226.9L-233.7,226.9z M-233.8,208.7h-28.6v-26.3h28.6
			L-233.8,208.7L-233.8,208.7z M-345.1,174.9c6.3,6.2,12.5,12.5,18.7,18.7c0.3,0.3,0.6,0.6,0.7,1c0.2,0.4,0.2,0.8,0.2,1.2
			c-0.1,2.5,0,5,0,7.5h34.7c0-2.5,0-4.9,0-7.2c0-0.5,0-1,0.2-1.4c0.2-0.5,0.5-0.9,0.8-1.2c6.2-6.2,12.4-12.4,18.6-18.6
			c0.3-0.3,0.6-0.7,0.8-1.1c0.2-0.4,0.3-0.9,0.2-1.3c-0.1-4.2,0-8.3,0-12.5v-4h-76c0,0.5-0.1,1-0.1,1.5c0,4.9,0,9.9,0,14.8
			c0,0.5,0,0.9,0.2,1.4C-345.7,174.2-345.4,174.6-345.1,174.9L-345.1,174.9z M-294.9,199.3h-26.3v-3.4h26.3V199.3z M-341.8,160.3
			h67.6c0,0.5,0.1,1,0.1,1.4c0,3.1,0.1,6.2,0,9.3c0,0.7-0.3,1.5-0.8,2c-5.9,6-11.8,11.9-17.8,17.8c-0.5,0.5-1.2,0.8-1.9,0.8
			c-8.9,0.1-17.8,0.1-26.7,0c-0.6,0-1.1-0.2-1.6-0.5c-5.2-5.1-10.4-10.3-15.5-15.5c-0.1-0.1-0.2-0.3-0.2-0.4h30.6v-4.1h-33.7v-10.8
			H-341.8z M-253.3,206.3c1.2,0,2.4-0.4,3.4-1.1c1-0.7,1.8-1.6,2.2-2.8c0.4-1.1,0.6-2.3,0.3-3.5c-0.2-1.2-0.8-2.3-1.7-3.1
			s-1.9-1.4-3.1-1.6c-1.2-0.2-2.4-0.1-3.5,0.4s-2,1.3-2.7,2.3s-1,2.2-1,3.4c0,1.6,0.7,3.2,1.8,4.3S-255,206.3-253.3,206.3
			L-253.3,206.3z M-253.4,198.2c0.5,0,1,0.2,1.4,0.6c0.4,0.4,0.6,0.9,0.6,1.4s-0.2,1-0.6,1.4c-0.4,0.4-0.9,0.6-1.4,0.6
			s-1-0.2-1.4-0.6c-0.4-0.4-0.6-0.9-0.6-1.4s0.2-1,0.6-1.4C-254.4,198.4-253.9,198.2-253.4,198.2L-253.4,198.2z M-301,216.5V206
			h-14.1v10.6L-301,216.5z M-311,210.1h5.9v2.4h-5.9V210.1z M-291.2,162.8h-23.6v3.9h23.6V162.8z M-306.7,152.4h3.9v-4h-3.9V152.4z
			 M-296.1,152.4v-4h-3.7v4H-296.1z M-324.8,151.6c-0.1-1.9,0-3.9,2.2-5.1c2.2-1.1,3.9,0.3,5.8,1.3c1.1-3.3,2.6-6.3,5.4-8.2
			c2.9-2,6.1-2.9,9.6-2.2c7.8,1.7,10.8,7,10.9,14.2l7.5,2.4l2.3-2.9c-0.8-0.5-1.4-0.9-2.1-1.3c-0.9-0.4-1.7-0.8-2.7-1.1
			c-0.8-0.2-1.1-0.6-1.2-1.4c-1.2-7.1-6.6-12.7-13.5-14c-3.4-0.7-6.9-0.2-10.1,1.2s-5.8,3.8-7.6,6.7c-0.2,0.3-0.4,0.6-0.7,0.7
			c-0.3,0.2-0.7,0.2-1,0.1c-3.9-0.3-6.9,1.6-8.4,5.3c-0.3,0.5-0.7,0.9-1.2,1.1c-1.8,0.8-3.6,1.6-5.6,2.4l2.4,3.1L-324.8,151.6z
			 M-284.3,162.8h-3.9v3.9h3.9V162.8z M-277.5,162.7h-3.9v4h3.9V162.7z M-313.6,152.4h3.9v-3.9h-3.9V152.4z M-275.2,238.2h4v-4h-4
			V238.2z M-293.5,235.9c-1.3,0-2.6,0.6-3.5,1.5c-0.9,1-1.4,2.2-1.4,3.6c0,1.3,0.5,2.6,1.4,3.6c0.9,0.9,2.2,1.5,3.5,1.5
			c0.7,0,1.4-0.1,2-0.4c0.6-0.2,1.2-0.6,1.7-1.1s0.9-1,1.1-1.7c0.3-0.6,0.4-1.3,0.4-2s-0.1-1.4-0.4-2s-0.6-1.2-1.1-1.7
			s-1.1-0.8-1.7-1.1C-292.2,236-292.8,235.8-293.5,235.9L-293.5,235.9z M-293.4,241.8c-0.3,0-0.7-0.5-1-0.8c0.3-0.3,0.6-0.9,1-1
			c0.3-0.1,0.7,0.4,1.3,0.9C-292.7,241.4-293,241.8-293.4,241.8L-293.4,241.8z M-236.8,185h-4v3.9h4V185z M-293.9,229.5
			c-9.7,0.8-19.4,2.1-29.1,3.3c-1.6,0.2-3.3,0.4-4.8,1c-3.4,1.5-5,5-4.4,8.7c0.6,3.4,3.4,6,7.4,6.5c10,1.2,20,2.3,30.1,3.4
			c6.9,0.8,12.7-4.3,12.9-11.3C-281.8,234.4-287.3,228.9-293.9,229.5L-293.9,229.5z M-324.3,244.9c-0.8,0-1.6-0.2-2.2-0.6
			c-0.7-0.4-1.2-1-1.5-1.7s-0.4-1.5-0.3-2.3s0.5-1.5,1-2c0.5-0.6,1.2-0.9,2-1.1c0.8-0.2,1.6-0.1,2.3,0.2c0.7,0.3,1.3,0.8,1.8,1.4
			c0.4,0.6,0.7,1.4,0.7,2.2c0,1-0.4,2-1.1,2.8C-322.2,244.4-323.2,244.8-324.3,244.9L-324.3,244.9z M-317.4,245.7
			c0.4-1.6,1-3.1,1-4.7c0-1.6-0.6-3.1-1-4.7l14.1-1.6c-2.4,4.3-2.4,8.4,0.1,12.7L-317.4,245.7z M-293.4,248.4
			c-4.1,0.1-7.5-3.4-7.6-7.5c0-4.1,3.5-7.6,7.5-7.5c2,0,3.8,0.8,5.2,2.2c1.4,1.4,2.1,3.3,2.1,5.2c0,2-0.8,3.8-2.1,5.2
			C-289.6,247.6-291.4,248.4-293.4,248.4L-293.4,248.4z M-243.7,184.9h-3.9v3.9h3.9V184.9z M-242.9,224.9l4.2-3.8l-3.3-3.4
			c-1.3,1.4-2.6,2.9-4.2,4.7v-6.2h-4.1v5.9l-0.4,0.2l-3.6-4.1l-3.6,2.9c1.5,1.4,2.9,2.7,4.6,4.2h-6.1v4.2h5.8l0.1,0.3l-4.3,3.9
			l3.4,3.2l4.2-4.5v6.1h4.2v-5.9l0.4-0.2l3.8,4.1l3.3-2.9l-4.5-4.2h6.1v-4.2h-5.8C-242.8,225.1-242.8,225-242.9,224.9L-242.9,224.9z
			 M-275.2,254h3.9v-12.8h-3.9V254z M-344.4,256.1h3.9v-3.9h-3.9V256.1z M-337.6,256.1h3.9v-3.9h-3.9V256.1z M-271.2,227.4h-3.9v4
			h3.9V227.4z M-250.5,184.9h-9v3.9h9V184.9z M-326.3,242.9h3.9v-4h-3.9V242.9z M-330.7,256h3.7v-3.9h-3.7V256z"/>
	</g>
	<g>
		<defs>
			<rect id="SVGID_00000170269905399984784020000003978839845469272255_" width="272.4" height="292.5"/>
		</defs>
		<clipPath id="SVGID_00000093164188753869125540000017962549690452802183_">
			<use xlink:href="#SVGID_00000170269905399984784020000003978839845469272255_"  style="overflow:visible;"/>
		</clipPath>
		<path style="clip-path:url(#SVGID_00000093164188753869125540000017962549690452802183_);fill:#6A3834;" d="M-103.8,110
			c0,0.5,0.2,0.9,0.5,1.2c0.3,0.3,0.8,0.5,1.2,0.5c1,0.1,1.9-0.4,2-1.5c0.1-1.5,0.1-3,0-4.5c-0.1-1-0.9-1.5-1.9-1.5
			c-0.2,0-0.4,0-0.7,0.1c-0.2,0.1-0.4,0.2-0.6,0.4c-0.2,0.2-0.3,0.3-0.4,0.6c-0.1,0.2-0.1,0.4-0.1,0.7c-0.1,0.6,0,1.3,0,1.9
			C-103.8,108.6-103.9,109.3-103.8,110z M-103,70.7c0.8,0,1.6-0.1,2.3-0.5c0.7-0.3,1.4-0.8,2-1.3c0.6-0.6,1-1.2,1.3-2
			c0.3-0.7,0.5-1.5,0.5-2.3c0-0.8-0.2-1.6-0.5-2.3s-0.8-1.4-1.3-2c-0.6-0.6-1.2-1-2-1.3c-0.7-0.3-1.5-0.5-2.3-0.4
			c-0.8,0-1.6,0.2-2.3,0.5c-0.7,0.3-1.4,0.8-2,1.3c-0.6,0.6-1,1.2-1.3,2c-0.3,0.7-0.5,1.5-0.5,2.3c0,1.6,0.7,3.1,1.8,4.3
			C-106.1,70.1-104.6,70.8-103,70.7L-103,70.7z M-102.9,62.5c0.6,0,1.1,0.3,1.5,0.7s0.6,1,0.7,1.5c0,0.6-0.2,1.1-0.7,1.5
			c-0.4,0.4-1,0.6-1.6,0.6c-0.3,0-0.6,0-0.8-0.1c-0.3-0.1-0.5-0.3-0.7-0.5s-0.4-0.4-0.5-0.7c-0.1-0.3-0.2-0.5-0.2-0.8s0-0.6,0.2-0.9
			c0.1-0.3,0.3-0.5,0.5-0.7s0.5-0.4,0.7-0.5C-103.5,62.5-103.2,62.5-102.9,62.5z M-112.1,105.8c-0.1,1.5-0.1,3,0,4.5
			c0.1,1,1,1.5,2,1.5c0.5,0,0.9-0.2,1.2-0.5c0.3-0.3,0.5-0.8,0.5-1.2c0.1-0.6,0-1.3,0-1.9s0.1-1.4,0-2.1c0-0.2-0.1-0.5-0.1-0.7
			c-0.1-0.2-0.2-0.4-0.4-0.6c-0.2-0.2-0.3-0.3-0.6-0.4c-0.2-0.1-0.4-0.1-0.7-0.1C-111.2,104.3-112,104.8-112.1,105.8z M-57.2,84.5
			c3.8,0.1,7.6-3.8,7.4-7.6c0-1.1-0.5-2.2-1.2-3s-1.7-1.4-2.8-1.6c-3.9-0.7-8.2,3-8.2,7.1C-61.9,82.3-59.9,84.4-57.2,84.5
			L-57.2,84.5z M-54.8,76.2c0.9,0,1.2,0.5,1.1,1.3c-0.2,1.4-1.7,2.9-3.1,3.1c-0.8,0.1-1.3-0.2-1.3-1.1C-58.1,78-56.3,76.2-54.8,76.2
			L-54.8,76.2z M10,103.7c-0.9-2.9-2.7-5.4-5.2-7.3c-2.4-1.8-5.4-2.8-8.4-2.8c-1.7,0-3.4,0-5.3,0v-1.5c0-5.5,0-11,0-16.5
			c0-1.5-0.9-2.4-2.1-2.3c-1.1,0.1-1.7,1-1.7,2.5c0,5.4,0,10.7,0,16.1v1.6h-20.5V63.3h20.5c0,0.9,0,1.9,0,2.8c0,1.3,0.8,2.1,1.9,2.1
			s1.9-0.8,1.9-2.1c0-4.3,0-8.6,0-12.9c0-1.5-0.7-2.2-2.2-2.2c-7.9,0-15.8,0-23.8,0c-1.6,0-2.2,0.7-2.2,2.3c0,2.9,0,5.7,0,8.6
			c0,10,0,20,0,30v1.6h-4.6V54c0-2.5-0.4-3-3-3H-67c-2.5,0-3,0.5-3,3v39.5h-12.7V76.1h5.2c2.6,0,3-0.5,3-3c0-10.8,0-21.5,0-32.3
			c0-1.2-0.2-2.2-1.2-2.9h-28.8c-0.2,0.2-0.6,0.4-0.7,0.7c-0.2,0.7-0.5,1.6-0.2,2c0.2,0.3,0.5,0.6,0.9,0.7c0.3,0.2,0.7,0.3,1.1,0.3
			c5.1,0.1,10.1,0,15.2,0h1.5v76.6H-117V41.9c1.2,0,2.3,0,3.5,0c1.1,0,2.1-0.1,2.6-1.2c0.5-1.2-0.2-1.9-1-2.6h-7.7
			c-1.1,0.6-1.3,1.6-1.3,2.8c0,35,0,70.1,0,105.1v20.8c0,2.3,0.5,2.8,2.9,2.8h6c2.8,0,3.2-0.4,3.2-3.1c0-14.1,0-28.3,0-42.4v-1.7
			h71.6c0.5,0,0.9,0,1.4,0c0.4,0,0.8-0.2,1.2-0.5c0.3-0.3,0.5-0.7,0.5-1.2c0.1-0.4,0-0.9-0.3-1.2c-0.2-0.4-0.6-0.6-1-0.7
			c-0.5-0.1-1.1-0.2-1.7-0.2c-14.7,0-29.5,0-44.2,0h-1.5v-4.4h77.9c0.5,0,0.9,0,1.4,0c1.5-0.1,2.9-0.7,3.9-1.7
			c1.1-1,1.7-2.4,1.9-3.8c0.1-1.4-0.2-2.8-1-3.9s-1.9-2-3.2-2.4c-0.9-0.2-1.8-0.3-2.8-0.3c-25.5,0-50.9,0-76.4,0h-1.7v-4.5h78.1
			c0.4,0,0.9,0,1.3,0c2.7,0.1,5.3,1.3,7.2,3.2c1.9,1.9,3,4.5,3,7.2c0,1.4-0.2,2.7-0.7,4s-1.3,2.4-2.2,3.4c-1,1-2.1,1.8-3.4,2.3
			s-2.6,0.8-4,0.8c-7.6,0.1-15.1,0-22.6,0c-1.9,0-2.8,0.6-2.8,1.9s0.9,2,2.7,2c2.5,0,5,0,7.5,0c0.4,0,0.7,0,1.2,0.1v1.7
			c0,14.3,0,28.6,0,42.9c0,2,0.6,2.6,2.6,2.6c2.2,0,4.4,0,6.6,0c2.5,0,3-0.5,3-3c0-14.2,0-28.4,0-42.7v-1.6c0.8,0,1.3,0,1.9,0
			c3,0,6-1,8.4-2.8s4.2-4.3,5.1-7.2c0.3-0.8,0.5-1.7,0.7-2.6v-3.6C10.5,105.4,10.3,104.5,10,103.7L10,103.7z M-33.2,54.9h20.4v4.3
			h-20.4V54.9z M-112.8,165.8h-4.2v-43.3h4.2V165.8z M-82.8,42h4.3v30.3h-4.3V42z M-81.4,105.8h76.8c0.4,0,0.9,0,1.3,0.1
			c0.5,0.1,0.9,0.3,1.2,0.7c0.3,0.4,0.5,0.8,0.5,1.3c0.1,0.5,0,0.9-0.3,1.3c-0.2,0.4-0.6,0.7-1,0.8c-0.6,0.2-1.2,0.3-1.8,0.3
			c-25.6,0-51.2,0-76.8,0h-1.4v-4.4C-82.3,105.8-81.8,105.8-81.4,105.8z M-66.1,55h20.4v4.2h-20.4V55z M-45.7,93.5h-20.4V63.3h20.4
			C-45.7,63.3-45.7,93.5-45.7,93.5z M-9.3,165.7h-4.3v-43.2h4.3V165.7z M-29,80.2c0.1,1.2,0.7,2.3,1.6,3.1c0.9,0.8,2.1,1.2,3.3,1.2
			c3.6,0,7.2-3.6,7.2-7.2c0.1-1.2-0.3-2.4-1.1-3.3c-0.8-0.9-1.8-1.5-3-1.6C-25.1,71.7-29.5,76-29,80.2L-29,80.2z M-24.4,80.6
			c-0.2-0.2-0.7-0.6-0.7-1.1c-0.2-1.5,1.8-3.5,3.3-3.3c0.2,0.1,0.5,0.2,0.7,0.4c0.2,0.2,0.3,0.4,0.4,0.7
			C-20.7,78.7-22.6,80.6-24.4,80.6L-24.4,80.6z M-95.5,109.9c0,0.5,0.2,1,0.6,1.3s0.8,0.5,1.3,0.5c1.1-0.1,1.8-0.7,1.9-1.8
			c0.1-1.3,0.1-2.6,0-4c-0.1-1.1-0.8-1.7-1.9-1.7c-0.2,0-0.5,0-0.7,0.1s-0.4,0.2-0.6,0.4c-0.2,0.2-0.3,0.4-0.4,0.6s-0.2,0.5-0.2,0.7
			c0,0.6,0,1.2,0,1.8C-95.5,108.6-95.6,109.3-95.5,109.9L-95.5,109.9z"/>
	</g>
	<g>
		<defs>
			<rect id="SVGID_00000039100059870123189630000003712712232659717774_" width="272.4" height="292.5"/>
		</defs>
		<clipPath id="SVGID_00000033350070465060471790000000341693468986925745_">
			<use xlink:href="#SVGID_00000039100059870123189630000003712712232659717774_"  style="overflow:visible;"/>
		</clipPath>
		<path style="clip-path:url(#SVGID_00000033350070465060471790000000341693468986925745_);fill:#6A3834;" d="M151.6,248.5
			c-1.2,0-2.4,0.4-3.4,1c-1,0.7-1.8,1.6-2.2,2.7c-0.4,1.1-0.6,2.3-0.3,3.5c0.2,1.2,0.8,2.3,1.7,3.1s1.9,1.4,3.1,1.7
			c1.2,0.2,2.4,0.1,3.5-0.3c1.1-0.5,2.1-1.2,2.7-2.2c0.7-1,1-2.2,1-3.4c0-0.8-0.1-1.6-0.4-2.3c-0.3-0.7-0.8-1.4-1.3-2
			c-0.6-0.6-1.2-1-2-1.3C153.2,248.7,152.4,248.5,151.6,248.5L151.6,248.5z M151.7,256.8c-0.3,0-0.6,0-0.9-0.1
			c-0.3-0.1-0.5-0.3-0.7-0.5c-0.2-0.2-0.4-0.5-0.5-0.7c-0.1-0.3-0.2-0.6-0.2-0.9c0-0.6,0.3-1.1,0.7-1.5s1-0.6,1.5-0.6
			c0.6,0,1.1,0.2,1.5,0.6c0.4,0.4,0.7,0.9,0.7,1.5c0,0.3,0,0.6-0.1,0.8c-0.1,0.3-0.3,0.5-0.5,0.7s-0.4,0.4-0.7,0.5
			C152.3,256.7,152,256.8,151.7,256.8L151.7,256.8z M164.4,224.1c8.7-0.2,17.2-8.8,17.1-17.6c0-6.8-5.3-11.5-12.1-10.6
			c-7.6,1-14.2,7-15.8,14.5C152,218.1,156.9,224.2,164.4,224.1L164.4,224.1z M170.6,199.7c4.3-0.1,7.1,2.7,7.1,7
			c0,6.6-6.9,13.5-13.4,13.6c-4.4,0.1-7.2-2.8-7.1-7.1C157.3,206.6,164.1,199.8,170.6,199.7L170.6,199.7z M225.9,260.7
			c1.2,0,2.4-0.4,3.4-1c1-0.7,1.8-1.6,2.2-2.7c0.5-1.1,0.6-2.3,0.3-3.5c-0.2-1.2-0.8-2.3-1.7-3.1c-0.8-0.9-1.9-1.4-3.1-1.7
			c-1.2-0.2-2.4-0.1-3.5,0.3c-1.1,0.5-2.1,1.2-2.7,2.2c-0.7,1-1,2.2-1,3.4c0,0.8,0.1,1.6,0.4,2.3c0.3,0.7,0.7,1.4,1.3,2s1.2,1,2,1.3
			S225.1,260.7,225.9,260.7L225.9,260.7z M225.9,252.4c0.6,0,1.1,0.2,1.5,0.7c0.4,0.4,0.7,1,0.7,1.5c0,0.3-0.1,0.6-0.2,0.8
			c-0.1,0.3-0.3,0.5-0.5,0.7s-0.4,0.4-0.7,0.5s-0.5,0.2-0.8,0.2s-0.6,0-0.8-0.1c-0.3-0.1-0.5-0.2-0.7-0.4c-0.2-0.2-0.4-0.4-0.5-0.7
			s-0.2-0.5-0.2-0.8s0-0.6,0.1-0.9c0.1-0.3,0.3-0.5,0.5-0.8c0.2-0.2,0.5-0.4,0.7-0.5C225.3,252.5,225.6,252.4,225.9,252.4
			L225.9,252.4z M167.4,233.7c4.7,0,9.3-1.4,13.2-4s7-6.3,8.8-10.6s2.3-9.1,1.4-13.7c-0.9-4.6-3.2-8.8-6.5-12.2
			c-3.3-3.3-7.5-5.6-12.1-6.5s-9.4-0.5-13.7,1.3s-8.1,4.8-10.7,8.7s-4,8.5-4,13.2c0,6.3,2.5,12.3,6.9,16.7
			C155.1,231.1,161.1,233.6,167.4,233.7L167.4,233.7z M167.5,190.1c3.9,0,7.8,1.2,11,3.4c3.3,2.2,5.8,5.3,7.3,8.9s1.9,7.6,1.1,11.5
			c-0.8,3.9-2.7,7.4-5.5,10.2s-6.3,4.6-10.2,5.4c-3.9,0.8-7.8,0.3-11.5-1.2c-3.6-1.5-6.7-4.1-8.9-7.4c-2.2-3.3-3.3-7.1-3.3-11.1
			c0-2.6,0.5-5.2,1.5-7.6c1-2.4,2.5-4.6,4.3-6.4c1.8-1.8,4.1-3.3,6.5-4.3C162.3,190.6,164.9,190.1,167.5,190.1L167.5,190.1z
			 M217.1,224.7c-1,0.1-1.7,0.8-1.6,1.9c0,1.1,0.8,1.8,1.9,1.8c0.9,0,1.7,0,2.6,0c0.8,0,1.8,0,2.7,0c0.2,0,0.5,0,0.7-0.1
			s0.4-0.2,0.6-0.4s0.3-0.4,0.4-0.6c0.1-0.2,0.1-0.5,0.1-0.7c0.1-1.1-0.5-1.9-1.6-2C220.9,224.6,219,224.6,217.1,224.7z M163,215.4
			c0.8,0.7,1.8,0.6,2.5-0.2c0.5-0.6,0.8-1.5,1.3-2.2c0.4-0.5,0.8-1.1,1.3-1.3c1.4-0.5,2.5-1.3,3.2-2.7c0.4-0.8,0.8-1.6,1.1-2.4
			c0.6-1.3-0.4-2.7-2-2.7c-1.3,0.2-1.9,1.3-2.3,2.6c-0.1,0.4-0.3,0.7-0.6,1s-0.6,0.5-1,0.6c-0.7,0.2-1.3,0.6-1.9,1
			c-0.5,0.5-1,1.1-1.2,1.8c-0.3,0.6-0.5,1.2-0.8,1.8C162.1,213.9,162.2,214.7,163,215.4L163,215.4z M253.1,228.1
			c1.2,0.4,2-0.3,2.5-1.2v-26.7c-0.1-0.1-0.2-0.1-0.2-0.2c-2.1-8.6-7.3-12.7-16.1-12.7h-28.4c0-4.4,0-8.6,0-12.8
			c0-2.2-0.6-2.8-2.8-2.8c-17.5,0-35.1,0-52.6,0c-0.4,0-0.9,0-1.3,0.1c-1,0.3-1.6,0.9-1.5,1.9c0,1.1,0.7,1.6,1.7,1.8
			c0.4,0,0.9,0.1,1.3,0H207v68.8c-0.1,0-0.2,0.1-0.3,0.1c-12.8,0-25.6,0-38.4,0c-0.3,0-0.5-0.1-0.7-0.2c-0.2-0.1-0.4-0.3-0.6-0.5
			c-7.9-10.4-22.6-10.4-30.5,0c-0.2,0.3-0.5,0.7-0.8,0.7c-2.6,0.1-5.1,0-7.6,0v-68.9h1.5c5.3,0,10.5,0,15.8,0c0.4,0,0.8-0.1,1.1-0.3
			c0.4-0.2,0.7-0.4,0.9-0.7c1-1.3-0.2-2.9-2.1-2.9c-6.2,0-12.5,0-18.8,0c-1.8,0-2.4,0.7-2.4,2.5c0,26.6,0,53.2,0,79.8
			c0,1.9,0.6,2.5,2.6,2.5c2.1,0,4.2,0,6.2,0c1.7,11.2,10.6,16.8,18.4,16.9c4.2,0.1,8.2-1.2,11.5-3.7c4.4-3.3,6.9-7.7,7.7-13.2h22.4
			c0.4,0,0.8,0,1.2,0c1.1-0.1,1.9-0.8,1.9-1.8c0-0.5-0.2-1-0.5-1.3c-0.3-0.4-0.8-0.6-1.3-0.6c-0.4,0-0.8,0-1.2,0h-22.5
			c-0.3-1.6-0.6-3-1-4.3h38.6c-0.3,1.5-0.7,2.9-1,4.3c-1.3,0-2.5,0-3.8,0c-1.4,0-2.2,0.7-2.2,1.9s0.8,1.9,2.2,1.9c1.3,0,2.5,0,3.8,0
			c1.7,11.2,10.7,16.8,18.4,16.9c4.2,0.1,8.2-1.2,11.5-3.7c4.4-3.3,6.9-7.7,7.6-13.2c2.9,0,5.6,0,8.4,0c1.2,0,2-0.3,2.5-1.4v-20.6
			c-0.7-0.8-1.4-1.6-2.6-1.1c-1.2,0.5-1.3,1.5-1.3,2.5c0,2.7,0,5.4,0,8.2c-0.2,0.1-0.5,0.1-0.7,0.1c-2.8,0-5.7,0-8.5,0
			c-0.2,0-0.5-0.1-0.7-0.2c-0.2-0.1-0.4-0.2-0.6-0.4c-7.2-10.1-22-10.6-29.9-1.1c-0.1,0.1-0.3,0.2-0.4,0.3V191h1.4
			c9.2,0,18.3,0,27.5,0c7.3,0,11.8,4.6,11.8,11.9c0,7.6,0,15.2,0,22.7C251.8,226.8,252,227.8,253.1,228.1L253.1,228.1z M132.8,252.6
			h-4.9v-4.2h5.9C133.5,249.7,133.2,251.1,132.8,252.6L132.8,252.6z M151.5,269.6c-3.9-0.1-7.6-1.8-10.3-4.6
			c-2.7-2.8-4.2-6.5-4.2-10.4s1.6-7.6,4.3-10.4c2.7-2.8,6.4-4.4,10.3-4.5c8.2,0,15,6.8,14.9,15c0,4-1.7,7.7-4.5,10.5
			C159.3,268,155.5,269.6,151.5,269.6L151.5,269.6z M251.7,248.3v4.3h-7l-1-4.3H251.7z M225.9,239.7c2.9,0,5.8,0.9,8.3,2.5
			s4.4,4,5.5,6.7s1.4,5.7,0.9,8.6c-0.6,2.9-2,5.6-4.1,7.7s-4.7,3.5-7.6,4.1c-2.9,0.6-5.9,0.3-8.6-0.8c-2.7-1.1-5.1-3-6.7-5.5
			c-1.7-2.5-2.5-5.3-2.6-8.3c0-4,1.6-7.8,4.4-10.6C218.1,241.3,221.9,239.7,225.9,239.7L225.9,239.7z M244.7,220.2
			c2,0,2.6-0.7,2.6-2.6c0-4.8,0-9.6,0-14.4c0-4.7-3-7.6-7.7-7.6c-7.2,0-14.4,0-21.6,0c-2.1,0-2.6,0.6-2.6,2.7c0,6.4,0,12.9,0,19.3
			c0,2.1,0.6,2.7,2.7,2.7c4.4,0,8.8,0,13.2,0C235.8,220.2,240.3,220.2,244.7,220.2L244.7,220.2z M219.3,199.4h1.3
			c6.3,0,12.6,0,18.9,0c2.8,0,4,1.2,4,4c0,3.9,0,7.8,0,11.7c0,0.4,0,0.7-0.1,1.2h-24.1L219.3,199.4L219.3,199.4z"/>
	</g>
	<g>
		<defs>
			<rect id="SVGID_00000127743325467702057850000013388356187929756849_" width="272.4" height="292.5"/>
		</defs>
		<clipPath id="SVGID_00000042695241498231379770000002034090573068287167_">
			<use xlink:href="#SVGID_00000127743325467702057850000013388356187929756849_"  style="overflow:visible;"/>
		</clipPath>
		<path style="clip-path:url(#SVGID_00000042695241498231379770000002034090573068287167_);fill:#6A3834;" d="M442.5,119.5
			c5.2-6.5,1.1-14.6-5.3-16.3c-2.2-0.6-4.3-1.2-6.4-1.8c-1.1-0.3-2.1-0.8-2.9-1.6c-0.8-0.8-1.4-1.7-1.8-2.8
			c-0.8-2.1-1.7-4.1-2.5-6.2c-3.1-7.5-11.9-8.9-17.2-2.8c-5.9,6.8-6.9,17.1-2.4,25.1c4,7.2,10,11.8,18,13.8c1.4,0.3,2.9,0.4,4.1,0.5
			C432.8,127.1,438.3,124.7,442.5,119.5z M431.2,123c-5.2,1.5-10.1,0.6-14.6-2.1c-7-4.1-11.2-10.1-11.8-17.2
			c0.1-5.8,1.4-9.9,4.5-13.4c3.3-3.8,8.8-2.9,10.7,1.7c0.8,2,1.7,3.9,2.4,6c1.4,4,4.2,6.2,8.2,7.2c2.1,0.5,4.2,1.1,6.3,1.8
			c4.3,1.6,5.7,6.6,2.8,10.2C437.5,120.1,434.5,122.1,431.2,123L431.2,123z M481.7,46.2h-54.6c0-2,0-3.9,0-5.8
			c0-1.7-0.8-2.4-2.4-2.4c-8,0-15.9,0-23.9,0c-1.7,0-2.4,0.7-2.5,2.4c0,1.9,0,3.8,0,5.8c-3.2,0-6.3,0-9.4,0c-2.3,0-2.9,0.6-2.9,3
			v109.3c0,2.4,0.6,3,3,3h92.8c2.4,0,3-0.6,3-2.9V49.2C484.7,46.8,484.2,46.2,481.7,46.2z M475.8,50.4c-1.9,1.3-3.5,2.4-5.2,3.4
			c-0.1,0-0.2,0.1-0.3,0c-0.1,0-0.2,0-0.3-0.1c-1.6-1.1-3.2-2.1-5.1-3.4L475.8,50.4L475.8,50.4z M419,42.2h4v4h-4V42.2z M410.8,42.2
			h4v4h-4V42.2z M402.5,42.2h4v4h-4V42.2z M390.2,50.5h65.7v15c-5.7,2.6-12,3.8-18.2,3.3c-4.9-0.4-9.6-1.8-14-3.9
			c-10.7-5.1-21.6-5.6-32.7-1.5c-0.2,0.1-0.5,0.1-0.8,0.2V50.5z M455.9,157.3h-65.8v-1.4c0-28.8,0-57.6,0-86.4
			c0-1.1,0.3-1.5,1.3-1.9c10.2-4.1,20.2-3.9,30.1,0.8c6.4,3,13,4.8,20.1,4.6c4.3-0.1,8.6-0.9,12.7-2.4c0.5-0.2,1-0.3,1.6-0.5V157.3z
			 M460.1,52.2c1.4,0.9,2.7,1.7,3.9,2.6c1.4,1,3.3,1.7,4.1,3c0.7,1.3,0.2,3.3,0.2,4.9c0,28.6,0,57.2,0,85.8c0,1.2-0.4,1.9-1.4,2.6
			c-2.2,1.4-4.4,2.9-6.8,4.5L460.1,52.2L460.1,52.2z M465,157.2c1.8-1.2,3.4-2.3,5-3.3c0.1-0.1,0.3-0.1,0.4-0.1c0.2,0,0.3,0,0.5,0.1
			c1.6,1,3.1,2.1,4.9,3.3H465z M480.6,155.5c-2.7-1.8-5.2-3.5-7.8-5.2c-0.2-0.2-0.3-0.5-0.4-0.7c0-0.3,0-0.7,0-1
			c0-29.8,0-59.6,0-89.3c0-1.2,0.4-1.8,1.4-2.4c2.3-1.4,4.5-3,6.8-4.5V155.5z M447.3,138.8c-2.6,0-5.2,0-7.8,0s-5.2,0-7.8,0
			c-1.7,0-2.4,0.8-2.4,2.4c0,2.5,0,5,0,7.5c0,1.7,0.8,2.4,2.4,2.4c5.2,0,10.4,0,15.7,0c1.7,0,2.4-0.8,2.4-2.4c0-2.5,0-5,0-7.5
			C449.7,139.6,449,138.8,447.3,138.8L447.3,138.8z M445.6,147h-12.2v-4h12.2V147z M412.3,147.1c-4.5,0-9,0-13.5,0
			c-1.5,0-2.5,0.7-2.5,2c0,1.2,0.9,2.1,2.5,2.1c2.2,0,4.5,0,6.7,0s4.5,0,6.8,0c1.5,0,2.5-0.8,2.5-2
			C414.8,147.9,413.9,147.1,412.3,147.1L412.3,147.1z M412.3,138.8c-4.5,0-9.1,0-13.6,0c-1.5,0-2.4,0.8-2.4,2.1c0,1.2,0.9,2,2.5,2
			c2.2,0,4.5,0,6.7,0s4.5,0,6.8,0c1.6,0,2.5-0.8,2.5-2.1S413.8,138.8,412.3,138.8L412.3,138.8z M413.2,94.2c-0.9-0.7-2-0.4-2.8,0.8
			c-1.8,2.7-2.6,5.6-2.7,9.5c0.1,0.7,0.2,2.1,0.5,3.4c0.2,1.4,1.1,1.9,2.2,1.7c1-0.2,1.5-1.1,1.4-2.4c-0.1-2-0.3-4,0-6
			c0.2-1.5,1-2.9,1.7-4.2C414.1,95.8,414.1,94.8,413.2,94.2L413.2,94.2z"/>
	</g>
	<g>
		<defs>
			<rect id="SVGID_00000039839670132373725690000013311859217254244285_" width="272.4" height="292.5"/>
		</defs>
		<clipPath id="SVGID_00000035499340755037163550000007905507722292561580_">
			<use xlink:href="#SVGID_00000039839670132373725690000013311859217254244285_"  style="overflow:visible;"/>
		</clipPath>
		
			<circle style="clip-path:url(#SVGID_00000035499340755037163550000007905507722292561580_);fill:#6A3834;" cx="-1524.5" cy="248.5" r="27.5"/>
	</g>
	<g>
		<defs>
			<rect id="SVGID_00000051343436794562440850000013206392145840998072_" width="272.4" height="292.5"/>
		</defs>
		<clipPath id="SVGID_00000129196574183876816880000000970639466355368355_">
			<use xlink:href="#SVGID_00000051343436794562440850000013206392145840998072_"  style="overflow:visible;"/>
		</clipPath>
		<path style="clip-path:url(#SVGID_00000129196574183876816880000000970639466355368355_);fill:#D0F4A5;" d="M-1520.5,231.9
			c-0.3-0.2-0.9-0.4-1.2-0.4c-1.2,0-2.1,1-2.1,1l-6.7,13.1c-0.2,0.5-0.4,1-0.4,1.4c0,1.2,1.2,1.3,2,1.3c0.1,0,0.2,0,0.3,0
			c0.6-0.4,4.9-8.8,5.1-9.3c0,0.2-1,19.5-1,24.3c0,0.2,0,0.4,0,0.6c0.1,0.8,0.3,1.2,1.2,1.2c1.2,0,2.6-1.1,2.6-1.1s0.5-19.4,0.5-28
			C-1520.2,233.5-1520.3,232.1-1520.5,231.9z"/>
	</g>
	<g>
		<defs>
			<rect id="SVGID_00000144317246780797108330000006315407547848164526_" width="272.4" height="292.5"/>
		</defs>
		<clipPath id="SVGID_00000097461531560952696560000004691855831668486556_">
			<use xlink:href="#SVGID_00000144317246780797108330000006315407547848164526_"  style="overflow:visible;"/>
		</clipPath>
		
			<circle style="clip-path:url(#SVGID_00000097461531560952696560000004691855831668486556_);fill:#6A3834;" cx="-1279.5" cy="65.5" r="27.5"/>
	</g>
	<g>
		<defs>
			<rect id="SVGID_00000075865105475429319060000004186066083459623869_" width="272.4" height="292.5"/>
		</defs>
		<clipPath id="SVGID_00000164473768714360190880000006286171034136179898_">
			<use xlink:href="#SVGID_00000075865105475429319060000004186066083459623869_"  style="overflow:visible;"/>
		</clipPath>
		<path style="clip-path:url(#SVGID_00000164473768714360190880000006286171034136179898_);fill:#D0F4A5;" d="M-1285,57.9
			c0.3,0.4,0.8,0.6,1.2,0.6c2,0,1.9-2.2,1.9-2.2c0.2-4,1.6-4.5,2.3-4.5c1.6,0,2.1,1.7,2.1,3.4c0,3.5-1.8,8.6-5.1,15
			c-1.1,2-4.3,7.3-4.3,9.3c0.1,1.3,1.2,2.2,2.3,2.2c0.3,0,1.9,0,3.2,0c2.2,0,4.8-0.1,6.1-0.1c0.8,0,1.7-0.5,1.7-1.8
			c0-1.2-0.7-1.5-1.8-1.5h-0.4c-0.6,0-1.9,0-6.7,0l4.3-8.9c1-1.8,4.4-8.5,4.4-14.2c0-5.3-3.4-6.5-5.4-6.5c-5.3,0-6.1,4.3-6.1,7
			C-1285.3,56.6-1285.1,57.7-1285,57.9z"/>
	</g>
	<g>
		<defs>
			<rect id="SVGID_00000179613011650061441880000005230307317306420138_" width="272.4" height="292.5"/>
		</defs>
		<clipPath id="SVGID_00000075882112752915167910000010400841084889371535_">
			<use xlink:href="#SVGID_00000179613011650061441880000005230307317306420138_"  style="overflow:visible;"/>
		</clipPath>
		
			<circle style="clip-path:url(#SVGID_00000075882112752915167910000010400841084889371535_);fill:#6A3834;" cx="-789.5" cy="65.5" r="27.5"/>
	</g>
	<g>
		<defs>
			<rect id="SVGID_00000048474933149245833500000006684416677970065562_" width="272.4" height="292.5"/>
		</defs>
		<clipPath id="SVGID_00000058589415307856433950000005336257980203798656_">
			<use xlink:href="#SVGID_00000048474933149245833500000006684416677970065562_"  style="overflow:visible;"/>
		</clipPath>
		<path style="clip-path:url(#SVGID_00000058589415307856433950000005336257980203798656_);fill:#D0F4A5;" d="M-788.8,52.9l0.8-2.4
			c-0.2-1.1-0.9-1.6-2-1.6c-0.2,0-0.3,0-0.9,0.1c-0.5,1.3-3.2,8.5-6.6,18.6l-0.2,1.1c0,2,0.7,2,2.8,2h2.4c1.3,0,2.8,0,3.9,0
			c-0.1,3.7-0.2,6.9-0.2,10.5c0.2,1.1,0.7,1.1,1.2,1.1c2.1,0,2.2-1.3,2.3-2.8c0-2.9,0.2-6,0.2-8.9h1.2c1.1,0,1.7-0.1,2.2-0.7
			c0.3-0.4,0.5-0.8,0.5-1.2c0-1-0.8-1.2-1.5-1.2h-2.2V57.3c-0.5-0.2-0.8-0.3-1-0.3c-1.1,0-1.9,0.5-2.2,1.9c-0.4,2.1-0.4,3.9-0.5,5.7
			c0,0.9,0,1.8,0,2.7h-5.5C-792.7,64.4-790.6,57.9-788.8,52.9z"/>
	</g>
	<g>
		<defs>
			<rect id="SVGID_00000176743251071513095760000011773167891255326090_" width="272.4" height="292.5"/>
		</defs>
		<clipPath id="SVGID_00000069396652094962050330000009368070576815216575_">
			<use xlink:href="#SVGID_00000176743251071513095760000011773167891255326090_"  style="overflow:visible;"/>
		</clipPath>
		
			<circle style="clip-path:url(#SVGID_00000069396652094962050330000009368070576815216575_);fill:#6A3834;" cx="-299.5" cy="65.5" r="27.5"/>
	</g>
	<g>
		<defs>
			<rect id="SVGID_00000093166373960333274150000005378593460220743339_" width="272.4" height="292.5"/>
		</defs>
		<clipPath id="SVGID_00000034780207826331324820000011705937911670972071_">
			<use xlink:href="#SVGID_00000093166373960333274150000005378593460220743339_"  style="overflow:visible;"/>
		</clipPath>
		<path style="clip-path:url(#SVGID_00000034780207826331324820000011705937911670972071_);fill:#D0F4A5;" d="M-293.1,54.5
			c0-2.2-0.8-6-5.5-6c-6.2,0-6.9,6.1-6.9,13.4v8c0,5.9,0.6,11.8,5.6,11.8c7.1,0,7.4-6,7.4-11.3c0-6.8-2.4-9.2-6.3-9.2
			c-0.9,0-1.9,0.1-3,0.6V61c0-2,0.3-9.6,3.2-10c0,0,1.9,0.3,1.9,3.6v0.8c0,0,1.3,1.2,2.3,1.2C-293.3,56.5-293.1,55.2-293.1,54.5z
			 M-299,64c2.6,0.2,2.6,3.4,2.6,7.8c0,2-0.3,7.3-2.9,7.3c-1.7,0-2.7-4.2-2.7-11.2c0-0.8,0-1.7,0-2.7C-301.1,64.6-300.2,64-299,64z"
			/>
	</g>
	<g>
		<defs>
			<rect id="SVGID_00000177476992844311431150000012207270709155797667_" width="272.4" height="292.5"/>
		</defs>
		<clipPath id="SVGID_00000138565607978813075560000015851381129659384211_">
			<use xlink:href="#SVGID_00000177476992844311431150000012207270709155797667_"  style="overflow:visible;"/>
		</clipPath>
		
			<circle style="clip-path:url(#SVGID_00000138565607978813075560000015851381129659384211_);fill:#6A3834;" cx="190.5" cy="65.5" r="27.5"/>
	</g>
	<g>
		<defs>
			<rect id="SVGID_00000036237989080536480700000008917760657212379780_" width="272.4" height="292.5"/>
		</defs>
		<clipPath id="SVGID_00000067933372844006590480000001612738102236384430_">
			<use xlink:href="#SVGID_00000036237989080536480700000008917760657212379780_"  style="overflow:visible;"/>
		</clipPath>
		<path style="clip-path:url(#SVGID_00000067933372844006590480000001612738102236384430_);fill:#D0F4A5;" d="M191.6,48.6
			c-4.1,0-6.7,2.6-6.7,8c0,3.6,0.8,5.8,2.3,7c-2,1.6-2.8,4.4-2.8,7.4c0,5.6,0.6,10.9,5.9,10.9c7.2,0,7.2-6.1,7.2-11.8
			c0-2.6-0.9-5-2.5-6.5c1.7-1.1,2.4-3.4,2.4-7.2C197.5,51.9,195.7,48.6,191.6,48.6z M193.8,56v1.5c-0.1,1.3-0.6,4.6-2.6,4.6
			c-1.4,0-2.4-1.5-2.4-5.9c0-3.8,1.2-5,2.8-5C193.4,51.2,193.8,53.9,193.8,56z M190.7,79.2c-2.2,0-2.4-4.8-2.4-8.8
			c0-4.2,1.3-5.5,2.8-5.5c2.3,0,2.7,3.6,2.7,6C193.8,76.6,192.7,79.2,190.7,79.2z"/>
	</g>
	<g>
		<defs>
			<rect id="SVGID_00000008853060595503835260000013094345105963262389_" width="272.4" height="292.5"/>
		</defs>
		<clipPath id="SVGID_00000160155720598729773660000015689761164132690852_">
			<use xlink:href="#SVGID_00000008853060595503835260000013094345105963262389_"  style="overflow:visible;"/>
		</clipPath>
		
			<circle style="clip-path:url(#SVGID_00000160155720598729773660000015689761164132690852_);fill:#6A3834;" cx="-1034.5" cy="248.5" r="27.5"/>
	</g>
	<g>
		<defs>
			<rect id="SVGID_00000038370767586281597300000015720564479447382935_" width="272.4" height="292.5"/>
		</defs>
		<clipPath id="SVGID_00000147903382533559743690000018293937980623925896_">
			<use xlink:href="#SVGID_00000038370767586281597300000015720564479447382935_"  style="overflow:visible;"/>
		</clipPath>
		<path style="clip-path:url(#SVGID_00000147903382533559743690000018293937980623925896_);fill:#D0F4A5;" d="M-1039.7,238.5
			c0.2,0.3,0.5,0.4,0.9,0.4c0.6,0,2.3-0.6,2.3-1.5c0-1.2,0.4-3.5,2-3.5c1.3,0,1.8,2.1,1.8,3.9c0,5.3-1.4,6.2-2.2,6.7
			c-0.2,0-0.5,0-0.8,0c-1,0-1.9,0-1.9,1.6c0,0.9,0.3,1.4,1.3,1.4c3.3,0,4,3.1,4,6.1v0.9c0,3.2-0.5,7.8-2.8,7.8
			c-1.8,0-1.8-1.7-1.8-3.2c0-1.2,0-2.4-0.7-2.9c-0.3-0.3-0.7-0.4-1.1-0.4c-1.2,0-2.1,1.1-2.1,1.1c0,6.2,1.5,8.1,5.9,8.1
			c5.4,0,6.5-4.8,6.5-12.5c0-4.4-1.9-6-3.2-6.6c1.8-1.2,2.6-4.3,2.6-7.2c0-3.4-0.7-7.6-5.1-7.6c-4.7,0-5.7,3.5-5.7,5.5
			C-1039.9,237.6-1039.7,238.3-1039.7,238.5z"/>
	</g>
	<g>
		<defs>
			<rect id="SVGID_00000002350876222547970520000016190212713463887490_" width="272.4" height="292.5"/>
		</defs>
		<clipPath id="SVGID_00000110461047954558191520000000645670932708256937_">
			<use xlink:href="#SVGID_00000002350876222547970520000016190212713463887490_"  style="overflow:visible;"/>
		</clipPath>
		
			<circle style="clip-path:url(#SVGID_00000110461047954558191520000000645670932708256937_);fill:#6A3834;" cx="-544.5" cy="248.5" r="27.5"/>
	</g>
	<g>
		<defs>
			<rect id="SVGID_00000158017196806358922830000013535925550945121686_" width="272.4" height="292.5"/>
		</defs>
		<clipPath id="SVGID_00000075862457570711657680000001560103040858278301_">
			<use xlink:href="#SVGID_00000158017196806358922830000013535925550945121686_"  style="overflow:visible;"/>
		</clipPath>
		<path style="clip-path:url(#SVGID_00000075862457570711657680000001560103040858278301_);fill:#D0F4A5;" d="M-547.5,245.3h0.9
			c4.6,0,4.9,1.7,4.9,7.1v2.9c0,3.6-0.2,6.9-2.8,6.9c-2.1,0-2.6-1.9-2.6-3.6c0-2.6,0-3-1.6-3c-1.5,0-1.8,1.5-1.8,1.5
			c0.1,4.3,0.7,7.9,5.8,7.9c6.4,0,6.6-4.8,6.6-13.9c0-6.6-2.9-7.7-3.8-8.2c-1.1-0.5-2.4-0.8-3.3-0.8h-0.8v-6.9
			c0,0.1,1.7,0.1,3.7,0.1h1.8c0.6,0,1.5-0.8,1.5-1.7c0-1.8-2.7-1.7-3.8-1.7c-3,0-5.4,0.1-6,0.4c-0.6,0.3-0.6,1.5-0.6,1.5l0.1,9.7
			C-549.1,245.2-548.3,245.3-547.5,245.3z"/>
	</g>
	<g>
		<defs>
			<rect id="SVGID_00000152226285472837013710000010076362516736132015_" width="272.4" height="292.5"/>
		</defs>
		<clipPath id="SVGID_00000146462699546383219570000016405206063631353530_">
			<use xlink:href="#SVGID_00000152226285472837013710000010076362516736132015_"  style="overflow:visible;"/>
		</clipPath>
		
			<circle style="clip-path:url(#SVGID_00000146462699546383219570000016405206063631353530_);fill:#6A3834;" cx="-54.5" cy="248.5" r="27.5"/>
	</g>
	<g>
		<defs>
			<rect id="SVGID_00000011030349507583627010000005659522307597772988_" width="272.4" height="292.5"/>
		</defs>
		<clipPath id="SVGID_00000125570760440318916960000015761588430346085789_">
			<use xlink:href="#SVGID_00000011030349507583627010000005659522307597772988_"  style="overflow:visible;"/>
		</clipPath>
		<path style="clip-path:url(#SVGID_00000125570760440318916960000015761588430346085789_);fill:#D0F4A5;" d="M-58.8,232.2l-0.3,0.2
			c0,0-0.7,0.9-0.7,1.8c0,0.6,0.4,1.2,1.3,1.3c0.4,0.1,1.2,0.1,2.2,0.1c2.5,0,4.1,0,4.8,0l-7.2,27.5c-0.1,0.3-0.1,0.6-0.1,0.7
			c0,0.8,0.5,1.1,1.6,1.1c0.9,0,1.8-0.1,2.3-1.3l7.2-29.3c0,0-0.4-2.1-2.1-2.1c-0.7,0-1.3,0-2,0L-58.8,232.2L-58.8,232.2z"/>
	</g>
	<g>
		<defs>
			<rect id="SVGID_00000105398234506860661700000015049583931008148641_" width="272.4" height="292.5"/>
		</defs>
		<clipPath id="SVGID_00000070807529593216280860000004648909278044583824_">
			<use xlink:href="#SVGID_00000105398234506860661700000015049583931008148641_"  style="overflow:visible;"/>
		</clipPath>
		
			<circle style="clip-path:url(#SVGID_00000070807529593216280860000004648909278044583824_);fill:#6A3834;" cx="435.5" cy="248.5" r="27.5"/>
	</g>
	<g>
		<defs>
			<rect id="SVGID_00000095324087342281732980000001990141151271198123_" width="272.4" height="292.5"/>
		</defs>
		<clipPath id="SVGID_00000074415037232649071010000001745315683677290423_">
			<use xlink:href="#SVGID_00000095324087342281732980000001990141151271198123_"  style="overflow:visible;"/>
		</clipPath>
		<path style="clip-path:url(#SVGID_00000074415037232649071010000001745315683677290423_);fill:#D0F4A5;" d="M429.9,258.8
			c0,2.2,0.7,5.9,5.6,5.9c6.1,0,6.8-6.1,6.8-13.4v-8c0-5.9-0.6-11.8-5.6-11.8c-7.1,0-7.4,6-7.4,11.3c0,6.7,2.4,9.2,6.3,9.2
			c0.9,0,1.9-0.1,2.9-0.6v0.8c0,2,0,10-3,10c-0.3,0-2.1,0-2.1-3.6v-0.8c0,0-1.3-1.2-2.2-1.2C430.1,256.7,429.9,258.1,429.9,258.8z
			 M435.9,249.3c-2.6,0-2.7-3.4-2.7-7.8c0-2,0.3-7.3,2.9-7.3c1.7,0,2.6,4.2,2.6,11.2c0,0.9,0,1.7,0,2.7
			C437.9,248.8,436.9,249.3,435.9,249.3z"/>
	</g>
</g>
</svg>
