<?xml version="1.0" encoding="utf-8"?>
<!-- Generator: Adobe Illustrator 26.0.3, SVG Export Plug-In . SVG Version: 6.00 Build 0)  -->
<svg version="1.1" id="Layer_1" xmlns="http://www.w3.org/2000/svg" xmlns:xlink="http://www.w3.org/1999/xlink" x="0px" y="0px"
	 viewBox="0 0 272.4 292.5" style="enable-background:new 0 0 272.4 292.5;" xml:space="preserve">
<style type="text/css">
	.st0{clip-path:url(#SVGID_00000011730689606707731680000011011385983143323804_);fill:none;stroke:#6A3834;stroke-width:2.5;}
	.st1{clip-path:url(#SVGID_00000172433391576716623920000012918050000969784450_);fill:none;stroke:#6A3834;stroke-width:2.5;}
	.st2{clip-path:url(#SVGID_00000022529809542023187590000015636674000540945036_);fill:none;stroke:#6A3834;stroke-width:2.5;}
	.st3{clip-path:url(#SVGID_00000036935196802237043570000003173528274316942772_);fill:none;stroke:#6A3834;stroke-width:2.5;}
	.st4{clip-path:url(#SVGID_00000138552179255951841690000007232212579310744748_);fill:none;stroke:#6A3834;stroke-width:2.5;}
	.st5{clip-path:url(#SVGID_00000073710154737656654640000003802004086727617690_);fill:none;stroke:#6A3834;stroke-width:2.5;}
	.st6{clip-path:url(#SVGID_00000052070651816554171490000006867929865628857759_);fill:none;stroke:#6A3834;stroke-width:2.5;}
	.st7{clip-path:url(#SVGID_00000175301003036134769990000005809190289173278637_);fill:none;stroke:#6A3834;stroke-width:2.5;}
	.st8{clip-path:url(#SVGID_00000065051230937223273200000010066966746545422262_);fill:#6A3834;}
	.st9{clip-path:url(#SVGID_00000038412455149733009160000008548689039830299272_);fill:#6A3834;}
	.st10{clip-path:url(#SVGID_00000037657459349974120180000012138647206516632196_);fill:#6A3834;}
	.st11{clip-path:url(#SVGID_00000150086563499934349710000010700234878803102393_);fill:#6A3834;}
	.st12{clip-path:url(#SVGID_00000088107940919126929460000013459738060445576845_);fill:#6A3834;}
	.st13{clip-path:url(#SVGID_00000015315400544936605700000011912967714274337468_);fill:#6A3834;}
	.st14{clip-path:url(#SVGID_00000159450597205455731720000002341564575345423511_);fill:#6A3834;}
	.st15{clip-path:url(#SVGID_00000034792262245111288020000012295309302394162879_);fill:#6A3834;}
	.st16{clip-path:url(#SVGID_00000120559227531483492330000007107214386430234755_);fill:#6A3834;}
	.st17{clip-path:url(#SVGID_00000154405350240507502620000004001043158760756916_);fill:#6A3834;}
	.st18{clip-path:url(#SVGID_00000026136386733900435310000004410107604103280805_);fill:#D0F4A5;}
	.st19{clip-path:url(#SVGID_00000126301323578870323890000009537591907739242938_);fill:#6A3834;}
	.st20{clip-path:url(#SVGID_00000176030483217398887930000008979059629180702888_);fill:#D0F4A5;}
	.st21{clip-path:url(#SVGID_00000052798904126682213880000015615469082181606575_);fill:#6A3834;}
	.st22{clip-path:url(#SVGID_00000152229945163738415500000015228304161466636686_);fill:#D0F4A5;}
	.st23{clip-path:url(#SVGID_00000078732646066571679540000013715794544938697093_);fill:#6A3834;}
	.st24{clip-path:url(#SVGID_00000109739659767776247550000003451850309710688392_);fill:#D0F4A5;}
	.st25{clip-path:url(#SVGID_00000070840688616560810850000012943676494416606390_);fill:#6A3834;}
	.st26{clip-path:url(#SVGID_00000137100698289320339970000004956791311440210059_);fill:#D0F4A5;}
	.st27{clip-path:url(#SVGID_00000091009405815532142620000017581156015045186452_);fill:#6A3834;}
	.st28{clip-path:url(#SVGID_00000068669683484906141470000010432272752628239551_);fill:#D0F4A5;}
	.st29{clip-path:url(#SVGID_00000018226555438078136850000011485058496845464738_);fill:#6A3834;}
	.st30{clip-path:url(#SVGID_00000079454262994483231620000007031962024735256705_);fill:#D0F4A5;}
	.st31{clip-path:url(#SVGID_00000176745187432578375100000010324422831382312617_);fill:#6A3834;}
	.st32{clip-path:url(#SVGID_00000093136025501645364930000008719237863888850859_);fill:#D0F4A5;}
	.st33{clip-path:url(#SVGID_00000030446964938787246190000017224709436003384491_);fill:#6A3834;}
	.st34{clip-path:url(#SVGID_00000049202262901902242190000002697582684573333414_);fill:#D0F4A5;}
</style>
<g>
	<g>
		<defs>
			<rect id="SVGID_1_" x="0" y="0" width="272.4" height="292.5"/>
		</defs>
		<clipPath id="SVGID_00000134220835481615098290000008184517178891535535_">
			<use xlink:href="#SVGID_1_"  style="overflow:visible;"/>
		</clipPath>
	</g>
	<g>
		<defs>
			<rect id="SVGID_00000042017342809860546140000008952305309093895815_" x="0" y="0" width="272.4" height="292.5"/>
		</defs>
		<clipPath id="SVGID_00000150093532898049994390000014305502439046742669_">
			<use xlink:href="#SVGID_00000042017342809860546140000008952305309093895815_"  style="overflow:visible;"/>
		</clipPath>
		
			<path style="clip-path:url(#SVGID_00000150093532898049994390000014305502439046742669_);fill:none;stroke:#6A3834;stroke-width:2.5;" d="
			M-1769.4,250c110.8,0,85.5-184,190-184"/>
	</g>
	<g>
		<defs>
			<rect id="SVGID_00000143601615571065002730000017422019353060715159_" x="0" y="0" width="272.4" height="292.5"/>
		</defs>
		<clipPath id="SVGID_00000108989201914280816380000008521252679620781495_">
			<use xlink:href="#SVGID_00000143601615571065002730000017422019353060715159_"  style="overflow:visible;"/>
		</clipPath>
		
			<path style="clip-path:url(#SVGID_00000108989201914280816380000008521252679620781495_);fill:none;stroke:#6A3834;stroke-width:2.5;" d="
			M-1279.4,250c110.8,0,85.5-184,190-184"/>
	</g>
	<g>
		<defs>
			<rect id="SVGID_00000161625586851450656600000008229012186040842656_" x="0" y="0" width="272.4" height="292.5"/>
		</defs>
		<clipPath id="SVGID_00000008145339235712673660000009721748545019143605_">
			<use xlink:href="#SVGID_00000161625586851450656600000008229012186040842656_"  style="overflow:visible;"/>
		</clipPath>
		
			<path style="clip-path:url(#SVGID_00000008145339235712673660000009721748545019143605_);fill:none;stroke:#6A3834;stroke-width:2.5;" d="
			M-789.4,250c110.8,0,85.5-184,190-184"/>
	</g>
	<g>
		<defs>
			<rect id="SVGID_00000069365165567073014900000015666453312438880698_" x="0" y="0" width="272.4" height="292.5"/>
		</defs>
		<clipPath id="SVGID_00000050664367361133699100000001722965138007025579_">
			<use xlink:href="#SVGID_00000069365165567073014900000015666453312438880698_"  style="overflow:visible;"/>
		</clipPath>
		
			<path style="clip-path:url(#SVGID_00000050664367361133699100000001722965138007025579_);fill:none;stroke:#6A3834;stroke-width:2.5;" d="
			M-844.4,250c-110.8,0-85.5-184-190-184"/>
	</g>
	<g>
		<defs>
			<rect id="SVGID_00000128472918497608072170000013954484590881892225_" x="0" y="0" width="272.4" height="292.5"/>
		</defs>
		<clipPath id="SVGID_00000081613155783859695310000017499456325610201999_">
			<use xlink:href="#SVGID_00000128472918497608072170000013954484590881892225_"  style="overflow:visible;"/>
		</clipPath>
		
			<path style="clip-path:url(#SVGID_00000081613155783859695310000017499456325610201999_);fill:none;stroke:#6A3834;stroke-width:2.5;" d="
			M-1334.4,250c-110.8,0-85.5-184-190-184"/>
	</g>
	<g>
		<defs>
			<rect id="SVGID_00000098195279590709097140000015823401821487436962_" x="0" y="0" width="272.4" height="292.5"/>
		</defs>
		<clipPath id="SVGID_00000005958200849446490530000004330387816833417892_">
			<use xlink:href="#SVGID_00000098195279590709097140000015823401821487436962_"  style="overflow:visible;"/>
		</clipPath>
		
			<path style="clip-path:url(#SVGID_00000005958200849446490530000004330387816833417892_);fill:none;stroke:#6A3834;stroke-width:2.5;" d="
			M-299.4,250c110.8,0,85.5-184,190-184"/>
	</g>
	<g>
		<defs>
			<rect id="SVGID_00000034080125338639771220000014341580839251954340_" x="0" y="0" width="272.4" height="292.5"/>
		</defs>
		<clipPath id="SVGID_00000005259568162634881050000008097425862426197650_">
			<use xlink:href="#SVGID_00000034080125338639771220000014341580839251954340_"  style="overflow:visible;"/>
		</clipPath>
		
			<path style="clip-path:url(#SVGID_00000005259568162634881050000008097425862426197650_);fill:none;stroke:#6A3834;stroke-width:2.5;" d="
			M135.6,250C24.8,250,50.1,66-54.4,66"/>
	</g>
	<g>
		<defs>
			<rect id="SVGID_00000159471203160876046640000015359311659786516116_" x="0" y="0" width="272.4" height="292.5"/>
		</defs>
		<clipPath id="SVGID_00000072261267626090060220000016035296594752317100_">
			<use xlink:href="#SVGID_00000159471203160876046640000015359311659786516116_"  style="overflow:visible;"/>
		</clipPath>
		
			<path style="clip-path:url(#SVGID_00000072261267626090060220000016035296594752317100_);fill:none;stroke:#6A3834;stroke-width:2.5;" d="
			M-354.4,250c-110.8,0-85.5-184-190-184"/>
	</g>
	<g>
		<defs>
			<rect id="SVGID_00000034776620544379492100000012967990261755124896_" x="0" y="0" width="272.4" height="292.5"/>
		</defs>
		<clipPath id="SVGID_00000172406383498921096550000003214859414451997056_">
			<use xlink:href="#SVGID_00000034776620544379492100000012967990261755124896_"  style="overflow:visible;"/>
		</clipPath>
		<path style="clip-path:url(#SVGID_00000172406383498921096550000003214859414451997056_);fill:#6A3834;" d="M-1748.9,103.1
			c0.3,4.7,2.3,8.6,5.6,11.8c2.3,2.2,5.1,4,7.7,6c0.4,0.3,0.9,0.4,1.4,0.4c4.8-0.1,9.5-0.8,13.8-3c6.9-3.4,10.3-9.2,11.3-16.5
			c0.2-1.3,0.3-2.6,0.3-4c0-1,0.4-1.4,1.3-1.8c0.7-0.2,1.3-0.7,1.7-1.3c0.5-0.9,0-1.8-0.7-2.5c-4-4.3-8.5-7.9-14-10.2
			c-0.2-0.1-0.4-0.2-0.5-0.3c0.3-1.1,0.9-2.1,1.6-3c0.8-0.9,1.7-1.6,2.7-2.1c2-0.9,4-1.6,6.1-2.3c1.4-0.5,2-1.2,1.8-2.4
			c-0.3-1.1-1.3-1.6-2.7-1.2c-2,0.5-3.9,1.2-5.8,2c-3.7,1.7-5.4,3.5-7.4,7.8c-2.2-0.3-4.5-0.8-6.7-0.8c-3.5-0.1-6.9,0-10.4,0
			c-1.8,0.1-2.7,1.4-1.8,2.9c1.3,2.2,0.8,3.7-0.6,5.7C-1747.2,92.7-1749.2,97.5-1748.9,103.1z M-1710.8,93.4
			c-2.8,0.9-5.4,0.8-7.8-1.3c-0.5-0.5-1.6-0.8-2.1-0.6c-0.6,0.2-0.9,1.2-1.3,1.9c-0.1,0.3-0.1,0.6-0.1,0.9c-0.5,3.9-3.4,7.3-6.9,8
			c-2.1-3.6-3.1-7.2-1-11.2c0.2-0.3,0.3-0.6,0.4-1c0.1-0.2,0.1-0.5,0.1-0.8s-0.1-0.5-0.3-0.7c-0.1-0.2-0.3-0.4-0.6-0.5
			c-0.2-0.1-0.5-0.2-0.7-0.2c-0.7-0.1-1.4-0.1-2.2-0.2c-2.7-0.4-4.5-1.9-5.8-4.3C-1729.9,81.6-1715,86.8-1710.8,93.4z M-1739.8,88.8
			c0.8,0.6,1.7,1.1,2.6,1.6s1.9,0.7,3,1.1c-1.6,5.6,0.3,10,2.8,14c0.5,0.9,1.3,1.2,2.3,0.9c4.9-1.5,8.6-4.3,10.2-9.4
			c0-0.2,0.2-0.3,0.1-0.2l6.5,1.1c-0.1,0.9-0.2,2-0.3,3.1c-0.9,7.9-5.3,13.1-13,15.3c-1.1,0.3-2.4,0.5-3.5,0.8
			c-3.4,1-6.4,0.2-8.9-2.3c-0.5-0.5-1.1-0.9-1.7-1.4C-1747,106.5-1747.1,95.8-1739.8,88.8L-1739.8,88.8z M-1692.9,122.4
			c-1.3-6.6-9.4-9.4-14.7-4.6c-2.7,2.5-5.6,4.8-8.5,7.1l-8.9,7.5c-2.5-3.2-5.8-3.9-9.5-3.9c-6.5,0.1-13,0.1-19.5,0
			c-1,0-2-0.4-2.8-0.9c-2.6-1.8-5.4-3.1-8.5-3.3c-11.3-0.8-21.1,2.7-29,10.8c-3.4,3.4-6.3,7.4-9.4,11.1c-0.5,0.6-0.9,0.9-1.7,0.7
			c-1.7-0.3-3.2,0.4-4.4,1.7c-0.8,0.9-1.6,1.8-2.5,2.6c-0.3,0.3-0.7,0.5-1.2,0.5c-0.8-0.1-1.6,0-2.4,0.2c-0.8,0.3-1.5,0.7-2,1.3
			c-1.6,1.6-3.1,3.2-4.7,4.7c-0.6,0.5-1,1.2-1.3,1.9s-0.4,1.5-0.4,2.2c0,6.9,0,13.8,0,20.7c0,3.4,1.7,5,5.1,5c9.3,0,18.6,0,27.9,0
			c3.8,0,6-2.3,8.1-4.9c0.3-0.4,0.4-0.8,0.5-1.2s0.1-0.9,0-1.3c-0.4-1.7,0.3-2.7,1.4-3.7c0.5-0.4,0.9-0.9,1.3-1.4
			c0.5-0.6,0.9-1.3,1.1-2.1s0.2-1.6,0-2.4c-0.2-0.8,0.1-1.2,0.5-1.7c1.9-1.9,3.9-3.8,5.7-5.7c1.3-1.4,2.7-1.9,4.6-1.9
			c12.3,0,24.6,0,36.9,0c3.7,0,6.7-1.2,9.3-3.9c8.2-8.5,16.5-16.9,24.9-25.3c2-2,3.7-4,4.4-6.8v-2.8
			C-1692.8,122.6-1692.9,122.5-1692.9,122.4z M-1787.9,181.6c-1.3,1.4-2.9,1.9-4.8,1.8c-8.6-0.1-17.1,0-25.7,0h-1.6v-4
			c0-5.6,0-11.2,0-16.8c0-0.7,0.3-1.3,0.8-1.9c1.3-1.4,2.7-2.7,4-4c0.7-0.7,1.1-0.8,1.9-0.1c8.5,7.6,16.9,15.2,25.4,22.8
			C-1786.8,180.3-1786.8,180.5-1787.9,181.6z M-1783.9,172.9c-0.7,0.7-1.3,1.4-2.1,2.2l-23.2-20.8c0.9-1,1.7-1.9,2.6-2.8
			c0.6-0.7,1.1-0.1,1.5,0.3l11.9,10.7c3.1,2.7,6.1,5.5,9.2,8.2C-1783,171.5-1783,172.1-1783.9,172.9z M-1698.7,127.6
			c-4,4-7.9,8.1-11.9,12.1c-4.9,4.9-9.8,9.9-14.6,14.9c-0.7,0.8-1.6,1.4-2.7,1.9c-1,0.4-2.1,0.6-3.2,0.6c-12.3,0-24.7,0-37,0
			c-3.2,0-5.7,1-7.9,3.3c-2,2.1-4.1,4.1-6.2,6.3l-18.9-17c5.5-6.5,10.1-13.8,18.2-17.7c5.4-2.6,11-3.8,16.9-3.3
			c2.3,0.2,4.5,1,6.4,2.5c1.7,1.3,3.5,1.8,5.6,1.8c6.9,0,13.7,0,20.6,0c0.7,0,1.5,0,2.2,0.2c1,0.3,1.9,0.9,2.5,1.7
			c0.6,0.9,0.9,1.9,0.8,3c-0.2,2.2-2,3.8-4.4,3.9c-3.8,0.1-7.6,0-11.4,0c-4.1,0-8.1,0-12.2,0c-1.6,0-2.6,0.8-2.6,2.2
			c0,1.3,1,2.2,2.6,2.2c7.9,0,15.8,0,23.7,0c4.8,0,8.4-3.4,8.8-8.2c0-0.4,0.1-0.8,0.3-1.1c0.2-0.4,0.4-0.7,0.8-0.9
			c6-5,11.9-10,18-15c2.8-2.3,6.6-1,7.3,2.5C-1696.8,125-1697.5,126.4-1698.7,127.6z M-1798.6,108.9c5.8,3.8,12.2,6.1,19.2,5.9
			c6.6-0.1,12-4,13.9-9.9c0.2-0.6,0.4-1.3,0.6-1.9v-3.4c-1.3-5.8-5.3-9-10.5-11.2c-1-0.4-2-0.9-3-1.2c-5-1.9-8.7-5.2-11.2-9.9
			c-1.1-2.1-2.4-4.1-3.9-6c-2.2-2.9-5.2-5-8.9-5.4c-6.3-0.7-12.3,3.8-13.9,10.3c-1,4-0.4,7.9,0.9,11.7
			C-1812.3,97.1-1806.4,103.8-1798.6,108.9L-1798.6,108.9z M-1795.7,81.2c0.1-1.3,0.6-2.5,0.9-3.7l0.6-0.1c3.3,7.6,9.1,12.3,17,14.7
			c-1.2,1.3-2.8,2-4.5,2.1C-1788.6,95-1796,88.1-1795.7,81.2L-1795.7,81.2z M-1812.2,77c1.1-3.8,4.5-6.7,8.1-6.9
			c3-0.2,5.2,1.5,7.2,3.5c-6.2,7.4-1.9,18,6,22.4c4.4,2.5,9,3.3,13.7,1.1c1.4-0.7,2.6-1.8,3.9-2.7c5.4,3.1,5.7,10,0.5,14
			c-2.9,2.3-6.4,2.8-9.9,2.2c-14.5-2.7-24.1-11.1-29.2-24.8C-1812.9,83-1813,79.9-1812.2,77L-1812.2,77z M-1773.7,70.4
			c3,5.2,7.8,8,13.6,9.1c7.4,1.3,13.9-1.1,19.7-5.6c5-3.8,8.6-8.7,9.9-15c0.3-1.5,0.4-3,0.6-4.6c-0.1-4.1-1.3-8-3.4-11.5
			c-4-6.3-12.9-6.4-17-0.1c-1.5,2.3-2.7,4.7-4,7c-0.5,1-1.3,1.9-2.2,2.6c-0.9,0.7-2,1.1-3.2,1.2c-2.2,0.3-4.5,0.8-6.7,1.2
			C-1773.8,56.1-1777.5,63.9-1773.7,70.4L-1773.7,70.4z M-1750.8,50.9c1.3,2.9,0.2,5.8-2.4,7.4c-2.3,1.4-4.9,1-6.6-1
			C-1755.5,56.8-1752.7,54.6-1750.8,50.9L-1750.8,50.9z M-1767.1,58.7c0.7-0.3,1.5-0.3,2.2-0.5s1.1,0,1.5,0.6
			c2.8,4.1,8.2,5.2,12.3,2.6c4.3-2.7,6-8.4,3.5-12.6c-1-1.6-0.7-2.7,0.2-3.9c0.1-0.2,0.2-0.4,0.3-0.5c2.7-3.7,8-3.6,10.5,0.3
			c1.8,2.7,2.7,5.9,2.8,9.1c0.1,5.7-2.1,10.4-6,14.4c-4.5,4.8-10.1,7.4-15.6,7.9c-6.4,0-12.2-2.9-14.8-7.1
			C-1772.7,65.1-1771.3,60.2-1767.1,58.7L-1767.1,58.7z"/>
	</g>
	<g>
		<defs>
			<rect id="SVGID_00000080205869834251331010000012255744704156611974_" x="0" y="0" width="272.4" height="292.5"/>
		</defs>
		<clipPath id="SVGID_00000121993357273672133030000006706152007312974516_">
			<use xlink:href="#SVGID_00000080205869834251331010000012255744704156611974_"  style="overflow:visible;"/>
		</clipPath>
		<path style="clip-path:url(#SVGID_00000121993357273672133030000006706152007312974516_);fill:#6A3834;" d="M-1574.7,150.5
			c0.4,0,0.8,0,1.2,0c2,0,3.1-1.1,2.5-2.6c-0.4-1-1.3-1.2-2.3-1.2c-1.1,0-2.2,0-2.7,1.2c-0.1,0.3-0.2,0.6-0.2,0.8
			c0,0.3,0.1,0.6,0.2,0.8c0.1,0.3,0.3,0.5,0.6,0.6C-1575.3,150.3-1575,150.4-1574.7,150.5z M-1573.2,264.6c-2.1,0-2.9,0.4-3,1.7
			c-0.1,1.4,0.8,2.1,2.7,2.1c1.8,0,2.7-0.7,2.7-2C-1570.9,265.3-1571.8,264.6-1573.2,264.6L-1573.2,264.6z M-1560.5,264.6
			c-0.6,0-1.2,0-1.8,0c-0.6,0-1.1,0-1.7,0c-1.1,0.1-1.8,0.7-1.9,1.7c-0.1,1.1,0.5,1.9,1.5,2c1.4,0.2,2.7,0.1,4.1,0
			c1-0.1,1.6-1,1.5-2.1C-1558.8,265.2-1559.4,264.7-1560.5,264.6L-1560.5,264.6z M-1539.4,150.5c0.6,0,1.1,0,1.7,0s1.2,0,1.8,0
			c0.2,0,0.5,0,0.7-0.1s0.4-0.2,0.6-0.4s0.3-0.4,0.4-0.6c0.1-0.2,0.1-0.5,0.1-0.7s0-0.5,0-0.7c-0.1-0.2-0.2-0.4-0.3-0.6
			c-0.2-0.2-0.3-0.3-0.6-0.4c-0.2-0.1-0.4-0.2-0.7-0.2c-1.3-0.1-2.6-0.1-4,0c-1.1,0.1-1.6,0.9-1.6,2
			C-1541.2,149.8-1540.5,150.4-1539.4,150.5z M-1551.7,150.5c0.6,0,1.1,0,1.7,0s1.2,0,1.8,0c1.1-0.1,1.8-0.7,1.8-1.8
			c0.1-1.1-0.5-1.9-1.6-2c-1.3-0.1-2.6-0.1-4,0c-0.2,0-0.5,0.1-0.7,0.2s-0.4,0.3-0.6,0.5s-0.3,0.4-0.3,0.6c-0.1,0.2-0.1,0.5,0,0.7
			C-1553.4,149.8-1552.8,150.4-1551.7,150.5L-1551.7,150.5z M-1564,150.5c0.6,0,1.1,0,1.7,0s1.3,0,1.9,0c0.5,0,0.9-0.2,1.2-0.5
			s0.5-0.8,0.5-1.2c0.1-1.1-0.5-1.9-1.5-2c-1.3-0.1-2.6-0.1-4,0c-1.1,0.1-1.7,0.9-1.6,2C-1565.7,149.8-1565.1,150.4-1564,150.5
			L-1564,150.5z M-1502.9,179.3c0-0.4,0-0.9,0-1.3c0-0.4-0.2-0.8-0.5-1.1s-0.7-0.5-1.2-0.5c-1-0.1-1.8,0.4-2,1.4
			c-0.1,0.5-0.1,1.1-0.1,1.7c0,29.4,0,58.9,0,88.3v1.6h-16.8v-9.3h1.6c1.5,0,2.9,0,4.4,0c1.1-0.1,1.7-0.8,1.7-1.9
			c0-0.5-0.1-0.9-0.4-1.3c-0.3-0.3-0.7-0.6-1.2-0.6c-0.5-0.1-0.9-0.1-1.4-0.1c-1.5,0-3.1,0-4.7,0V252c0.1-0.1,0.2-0.1,0.3-0.1
			c0.9,0,1.7,0,2.6,0c1.4,0,2.3-0.8,2.2-1.9c0-1.1-0.9-1.9-2.3-1.9c-0.9,0-1.9,0-2.8,0v-4.7c1.8,0,3.5,0,5.2,0c1.6,0,2.5-0.8,2.5-2
			s-0.9-1.9-2.4-1.9c-1.7,0-3.5,0-5.3,0V235c1,0,1.9,0,2.7,0c1.4,0,2.3-0.7,2.3-1.8s-0.9-2-2.3-2c-0.9,0-1.8,0-2.7,0v-4.7
			c2,0,3.9,0.1,5.7-0.1c0.4-0.1,0.7-0.2,1-0.5c0.3-0.2,0.5-0.5,0.7-0.9c0.2-0.5-0.2-1.5-0.6-2c-0.3-0.4-1.1-0.4-1.7-0.5
			c-1.7-0.1-3.5,0-5.2,0v-4.7h1.5c0.5,0,1,0,1.5,0c1.2-0.1,2-0.9,2.1-1.9c0-1.1-0.8-1.9-2.1-1.9c-1,0-1.9,0-3,0v-4.5
			c1.6,0,3.2,0,4.8,0c0.6,0,1.1,0,1.6-0.2c0.4-0.1,0.8-0.4,1-0.8c0.2-0.4,0.3-0.8,0.2-1.2c0-0.5-0.2-0.9-0.6-1.2
			c-0.3-0.3-0.8-0.5-1.3-0.4c-1.9,0-3.8,0-5.8,0v-4.8c1,0,1.9,0,2.9,0c1.4,0,2.3-0.8,2.3-1.9c0-1.1-0.9-1.9-2.3-1.9
			c-0.9,0-1.9,0-2.8,0v-4.5c1.8,0,3.6,0,5.3,0c1.5,0,2.4-0.8,2.4-2s-0.9-1.9-2.4-1.9c-1.7,0-3.5,0-5.3,0V184h1.5c0.5,0,1,0,1.5,0
			c1.3-0.1,2.1-0.9,2.1-2s-0.9-1.8-2.2-1.9c-1,0-1.9,0-2.9,0v-4.5c2,0,3.9,0.1,5.7-0.1c0.4-0.1,0.7-0.2,1-0.4s0.5-0.5,0.7-0.8
			c0.2-0.5,0.1-1.4-0.3-1.8c-0.4-0.4-1.2-0.7-1.8-0.7c-1.8-0.1-3.6,0-5.4,0v-4.7h1.5c0.5,0,0.9,0,1.4,0c1.3-0.1,2.2-0.9,2.2-2
			c-0.1-1.1-0.9-1.8-2.2-1.8c-1,0-1.9,0-2.9,0v-4.5c1.7,0,3.2,0,4.7,0c0.5,0,0.9,0,1.4-0.1s0.9-0.3,1.1-0.7c0.3-0.4,0.4-0.8,0.4-1.3
			s-0.2-0.9-0.6-1.2c-0.3-0.3-0.8-0.5-1.2-0.5c-1.9,0-3.8,0-5.8,0v-9.3h16.8v1.6c0,7.2,0,14.3,0,21.5c0,1.6,0.8,2.5,2,2.4
			s1.8-0.9,1.8-2.5c0-8.2,0-16.4,0-24.6c0-1.7-0.6-2.5-2.2-2.5c-6.7,0-13.5,0-20.2,0c-1.4,0-2.1,0.7-2.2,2.1c0,0.5,0,0.9,0,1.4
			c0.1,0.8-0.1,1.4-0.9,1.9c-0.2,0.2-0.4,0.4-0.5,0.6c-0.1,0.3-0.2,0.5-0.2,0.8s0.1,0.6,0.2,0.8s0.3,0.5,0.6,0.6
			c0.8,0.5,0.8,1.1,0.8,1.8c0,10.6,0,21.3,0,31.9v79.3c0,0.8,0.1,1.5-0.9,2.1c-0.9,0.6-1,2.2,0,2.7c1,0.6,0.9,1.4,0.9,2.2
			c-0.1,1.3,0,2.5,1.2,3.3h22.1c1.2-0.6,1.4-1.7,1.4-2.9C-1502.9,240.1-1502.9,209.7-1502.9,179.3L-1502.9,179.3z M-1571.8,209.4
			c-0.4-0.2-0.8-0.4-1.2-0.4c-0.4,0-0.8,0.1-1.1,0.3s-0.6,0.5-0.8,0.8c-1.9,2.9-2.6,5.9-2.2,9.1c0.2,1.5,0.6,3,1,4.5
			c0.6,2.2,0.1,4-1.3,5.6c-0.5,0.6-1,1.2-1.5,1.8l-0.1,0.1l-0.5,0.6c-2.2,2.5-3.3,5.7-3.3,9c0,0.1,0,0.2,0,0.4c0,0.4,0,0.8,0.1,1.3
			c0.2,1.4,1.3,2.3,2.5,2.1c1.3-0.2,2.1-1.2,1.9-2.6c-0.3-3.1,0.6-5.8,2.8-8.1c0.3-0.3,0.7-0.8,1-1.1l0.3-0.4
			c1.4-1.6,2.8-3.6,2.7-5.9c-0.1-2.1-0.4-4.2-0.9-6.2c-0.7-2.9-0.3-5.4,1.2-7.7c0.2-0.3,0.3-0.6,0.4-0.9c0.1-0.3,0.1-0.6,0-0.9
			c-0.1-0.3-0.2-0.5-0.3-0.8C-1571.4,209.7-1571.6,209.5-1571.8,209.4L-1571.8,209.4z M-1548.3,264.6c-1.1,0-2.2,0-3.3,0
			c-0.5,0-1,0.2-1.3,0.5c-0.4,0.3-0.6,0.8-0.6,1.3c-0.1,1,0.7,1.9,1.9,2c0.5,0.1,1.1,0,1.7,0s1.2,0,1.8,0c0.5,0,1-0.2,1.3-0.6
			s0.5-0.9,0.5-1.3c0-0.2,0-0.5-0.1-0.7s-0.2-0.4-0.4-0.6c-0.2-0.2-0.4-0.3-0.6-0.4C-1547.8,264.6-1548,264.6-1548.3,264.6
			L-1548.3,264.6z M-1535.9,264.6c-0.6,0-1.1,0-1.7,0s-1.2,0-1.8,0c-1.1,0.1-1.7,0.7-1.9,1.7c0,0.2,0,0.5,0.1,0.7s0.2,0.5,0.3,0.7
			c0.2,0.2,0.4,0.3,0.6,0.5c0.2,0.1,0.5,0.2,0.7,0.2c1.3,0.1,2.6,0.1,3.8,0c0.2,0,0.5-0.1,0.7-0.2s0.4-0.3,0.6-0.4s0.3-0.4,0.3-0.6
			c0.1-0.2,0.1-0.5,0-0.7c0-0.2,0-0.5-0.1-0.7s-0.2-0.4-0.4-0.6c-0.2-0.2-0.4-0.3-0.6-0.4C-1535.5,264.6-1535.7,264.6-1535.9,264.6
			L-1535.9,264.6z M-1567.8,191.3c-2.4-0.9-2.3-3-2.3-3.7c0-0.6,0-1.1,0.1-1.7l0,0c0-1,0.1-2,0.1-3c-0.1-4.9-4.1-9.3-9-9.9
			c-1.3-0.2-2.4,0.6-2.6,1.8c-0.1,0.6,0,1.2,0.4,1.7c0.3,0.5,0.9,0.8,1.5,0.9c3.6,0.8,5.4,3,5.3,6.7c0,0.3,0,0.7,0,1v1.3h-0.2
			c0,0.6,0,1.2,0,1.8c0.2,3.5,2.1,6.3,5,7.1c0.4,0.1,0.8,0.1,1.3,0c0.4-0.1,0.8-0.3,1.1-0.7c0.3-0.3,0.5-0.7,0.6-1.1
			c0.1-0.4,0-0.9-0.1-1.3c-0.1-0.2-0.2-0.4-0.4-0.6C-1567.4,191.5-1567.6,191.4-1567.8,191.3L-1567.8,191.3z M-1547.6,212.1
			c0.1-0.7,0.1-1.4,0.2-2.1v-7.5c-0.1-0.6-0.1-1.1-0.2-1.7v-0.1c-0.1-1.3-0.3-2.7-0.4-4.1c-1.4-11.5-4.8-20.9-10.4-28.6
			c-4-5.5-8.4-9.2-13.6-11.2c-1.3-0.5-2.6-0.8-3.9-1.1c-0.6-0.1-1.3-0.3-1.9-0.4l-0.5-0.1h-0.2h-3.1h-0.1c-0.2,0.1-0.4,0.1-0.6,0.1
			c-8.5,1.3-14.4,6-17.7,14.1c-0.1,0.3-0.2,0.5-0.3,0.8l-0.2,0.5c-0.9,2.2-1.1,4.7-0.8,7c0.1,0.5,0.1,0.9,0.1,1.4
			c0.4,3.8,1.8,7.4,4.1,10.4c4.6,6.3,5.5,16.1,4.7,20.8c0,0.7-0.3,5.1-2,8.7c-0.7,1.7-1.5,3.2-2.4,4.8c-2.3,3.4-3.7,6.5-4.4,9.9v0.2
			c-0.1,2.7-0.4,8.9,2.7,13.9c0.3,0.4,0.6,0.8,0.9,1.2c0.1,0.1,0.2,0.2,0.2,0.3l0.1,0.1c5.8,8.4,17.1,11.5,26.9,7.3
			c6-2.5,10.7-7,14.6-13.7c4.1-7.2,6.6-15.5,7.8-26.1C-1547.8,215.2-1547.7,213.6-1547.6,212.1L-1547.6,212.1z M-1557,235.4
			c-2.6,6.3-5.8,10.8-9.9,14c-4,3.1-8.2,4.7-12.4,4.7c-2.1,0-4.1-0.4-6-1c-2.4-0.8-4.6-2.2-6.4-4s-3.2-4-4-6.5
			c-0.9-2.5-1.1-5.2-0.8-7.8c0.3-2.6,1.2-5.1,2.7-7.3c7.3-11.1,8.3-23.2,3.1-36c-0.7-1.7-1.7-3.3-2.8-4.9l-0.3-0.5
			c-1.5-2.3-2.4-4.9-2.7-7.6c-0.3-2.7,0.1-5.5,1.1-8s2.5-4.8,4.5-6.6s4.4-3.1,7.1-3.8c4.8-1.3,9.5-0.3,14.2,2.8
			c4.7,3.2,8.6,7.8,11.7,14.2c3.2,6.6,5.2,13.7,5.9,21.9c0.2,2.1,0.3,4.1,0.4,6.1v0.1c0,0.9,0.1,1.8,0.1,2.7v0.1
			C-1552.2,219.3-1553.9,227.8-1557,235.4L-1557,235.4z"/>
	</g>
	<g>
		<defs>
			<rect id="SVGID_00000011710547002380183810000006984639840169368982_" x="0" y="0" width="272.4" height="292.5"/>
		</defs>
		<clipPath id="SVGID_00000160910796561578721230000017285385875996495010_">
			<use xlink:href="#SVGID_00000011710547002380183810000006984639840169368982_"  style="overflow:visible;"/>
		</clipPath>
		<path style="clip-path:url(#SVGID_00000160910796561578721230000017285385875996495010_);fill:#6A3834;" d="M-1299.1,162.1
			c-2.5-0.2-4.9-1-7.1-2.3c-1.3-0.7-2.5-0.5-3.1,0.6s-0.2,2.2,1.1,3c2.7,1.6,5.6,2.5,8.7,2.7c1.7,0.1,2.6-0.5,2.7-1.8
			C-1296.6,163.1-1297.5,162.2-1299.1,162.1z M-1269.3,157.6c-0.8,0.5-1.4,0.7-1.8,1.2c-1.8,1.8-4,3.3-6.4,4.2
			c-1.4,0.5-2,1.6-1.5,2.8s1.6,1.6,2.9,1.1c3.1-1.1,5.8-2.9,8.1-5.3c0.6-0.7,1-1.5,0.5-2.3C-1268,158.6-1268.7,158.1-1269.3,157.6
			L-1269.3,157.6z M-1243.9,169.5h-18.7c2.5-2.7,5.1-5.4,7.3-8.2c2.5-3.2,2.9-6.9,1.2-10.7c-1.7-3.8-4.7-5.8-8.8-6.2
			c-3.9-0.3-7.1,1.3-9.4,4.4c-0.3,0.4-0.6,0.8-1,1.5c-0.1-1.3-0.1-2.4-0.2-3.5c-0.4-2.7-1.6-5.3-3.3-7.4c-4-5-9.6-8.4-15.9-9.8
			c-4.8-1.1-9.6-2.3-14.4-3.4c-1.8-0.4-3.1,0.5-2.8,2.3c1,6.1,2,12.2,3.1,18.2c0.3,1.8,1.2,3.5,1.9,5.6c-0.8-0.7-1.5-1.2-2.1-1.8
			c-3.5-3.1-7.4-3.9-11.7-2c-4.2,1.9-6.3,5.4-6.3,10c0,0.2,0,0.4,0,0.8l-4.4,0.4c0.9-2.8,1.8-5.6,2.5-8.4c0.3-1.3,0.3-2.7,0.4-4.1
			c0.1-1.9-0.8-2.6-2.7-2.5c-4,0.2-8,1.3-11.5,3.3c-0.1,0.1-0.3,0.2-0.5,0.2c-0.1,0-0.2,0-0.3,0c0.1-1.8,0.2-3.6,0.3-5.4
			c0.1-1.1-0.1-2.1-1.2-2.6s-2,0.1-2.7,0.8c-4,4.1-8,8.2-12,12.4c-4.2,4.3-5.7,9.4-4.3,15.3c0.1,0.2,0.1,0.4,0.2,0.8h-9.7
			c-1.8,0.1-2.3,0.7-2.3,2.6c0,3,0,5.9,0,8.9c0,1.2,0.3,2.1,1.3,2.7h9.3c0.8-0.7,1.5-1.4,1-2.6c-0.5-1.2-1.5-1.3-2.6-1.2
			c-1.7,0-3.3,0-5.2,0v-6.4h123.9v6.4h-107.7c-0.4,0-0.9-0.1-1.3,0c-0.6,0.3-1.5,0.6-1.6,1.2c-0.2,0.6,0.2,1.4,0.4,2.1
			c0.1,0.2,0.3,0.4,0.5,0.5h113.6v-13.1c-0.3-0.3-0.6-0.6-1-0.8C-1243.1,169.6-1243.5,169.5-1243.9,169.5L-1243.9,169.5z
			 M-1305.5,130.7c4.7,1.2,9.2,2.1,13.6,3.4c4.8,1.4,8.7,4.1,11.8,8c2,2.5,2.9,5.4,2.4,8.5c-0.7,3.8-1.7,6-5.4,6.6
			c-0.7,0.1-1.4,0-2-0.4c-2.3-1.6-5.1-2.3-7.9-1.9c-1.4,0.2-2.7,0.2-4.1,0.1c-0.3,0-0.6-0.1-0.8-0.2s-0.5-0.3-0.7-0.5
			c-1.2-1.7-2.3-3.5-3.2-5.4c-1.7-3.5-2-7.3-2.6-11.1C-1304.8,135.5-1305.1,133.2-1305.5,130.7z M-1341.9,154.1
			c0-0.3,0.2-0.5,0.4-0.7c3.1-2.5,6.8-4,10.7-4.5c-0.3,4.2-1.8,7.8-4.2,11.1c-0.1,0.1-0.3,0.2-0.5,0.2c-2.2,0.2-4.4,0.4-6.8,0.6
			C-1342.2,158.4-1342.1,156.2-1341.9,154.1L-1341.9,154.1z M-1334.2,169.2c-0.2,0.1-0.4,0.2-0.6,0.3h-21.7
			c-0.2-0.1-0.4-0.2-0.5-0.4s-0.2-0.4-0.3-0.6c-1.4-4.4-0.6-8.3,2.5-11.7c2-2.2,4.1-4.3,6.2-6.5c0.9-0.9,1.8-1.7,2.7-2.6
			c0,0.5,0,0.9,0,1.3c-0.3,4.5-0.6,9-0.8,13.5c-0.1,1.9,0.7,2.7,2.6,2.6c2.5-0.2,5-0.4,7.6-0.7l7.6-0.7
			C-1330.8,165.7-1332.5,167.5-1334.2,169.2L-1334.2,169.2z M-1328.7,169.5l5.5-5.1l6.4,5.1H-1328.7z M-1294.6,169.5h-12.3h-0.1
			c-4.2-1.6-8.1-3.7-11.6-6.5c-1-0.9-1.8-2.1-2.1-3.4c-0.3-1.3-0.2-2.7,0.3-3.9c0.5-1.3,1.4-2.3,2.5-3s2.5-1.1,3.8-1
			c1.8,0.1,3.2,0.9,4.5,2.1c4.9,4.4,10.6,6.1,17.1,5.2c0.8,0,1.6,0,2.4,0l0.2,0.3C-1293.4,161.8-1294.9,165.2-1294.6,169.5
			L-1294.6,169.5z M-1270.9,169.5h-19.4c-0.7-3.8,1.6-7.2,5.2-7.7c6.9-0.9,12.2-4.4,15.9-10.3c0.5-0.7,1.1-1.4,1.8-1.9
			c0.7-0.5,1.5-0.9,2.4-1c0.9-0.2,1.7-0.2,2.6,0s1.7,0.5,2.4,1c3.1,2.1,3.7,6.2,1.4,9.3c-3,4.1-6.7,7.5-11,10.1
			C-1270,169.2-1270.5,169.4-1270.9,169.5L-1270.9,169.5z M-1329.7,106.4c0.2,0.1,0.5,0.1,0.7,0c0.2,0,0.5-0.1,0.7-0.3
			c0.2-0.1,0.4-0.3,0.5-0.5s0.2-0.4,0.3-0.7c0.2-0.9,0.4-1.8,0.6-2.7c0.2-1.2-0.8-2.2-2.4-2.2c-0.3,0.3-1,0.7-1.3,1.3
			c-0.3,1-0.6,2-0.6,3C-1331.3,105.4-1330.7,106.1-1329.7,106.4z M-1333,122.3c0.4,0.1,0.9,0.1,1.3-0.1s0.7-0.6,0.9-1
			c0.2-0.6,0.3-1.1,0.4-1.7c0.1-1.4-0.5-2.3-1.6-2.4c-0.5-0.1-1,0-1.4,0.3s-0.7,0.7-0.8,1.1c-0.2,0.6-0.3,1.2-0.4,1.9
			c-0.1,0.5,0.1,0.9,0.3,1.3C-1333.8,122-1333.4,122.2-1333,122.3L-1333,122.3z M-1327.6,97.9c1.3,0,2.2-1.4,2.2-3.4
			c0-0.5-0.2-1-0.6-1.4s-0.9-0.6-1.4-0.6c-1.3,0-2.2,1.4-2.2,3.4c0,0.3,0,0.5,0.1,0.7s0.2,0.5,0.4,0.6c0.2,0.2,0.4,0.3,0.6,0.4
			C-1328.1,97.9-1327.8,97.9-1327.6,97.9L-1327.6,97.9z M-1331.4,114.9c1.1,0.2,1.9-0.3,2.2-1.3c0.2-0.9,0.4-1.8,0.6-2.7
			c0.1-1.3-0.5-2.2-1.6-2.3c-0.5-0.1-1,0-1.4,0.3s-0.7,0.7-0.8,1.2c-0.2,0.9-0.4,1.7-0.5,2.6c-0.1,0.5,0,1,0.3,1.4
			S-1331.9,114.8-1331.4,114.9L-1331.4,114.9z M-1289.8,145.7c1,1.4,1.8,2.9,2.8,4.3c0.4,0.5,0.9,0.9,1.4,1.3c1.9,0,3-1.5,2.4-2.7
			c-1.9-3.8-4.4-7.3-7.6-10.1c-0.8-0.8-2.1-0.6-2.8,0.3c-0.7,0.8-0.7,1.9,0.1,2.8C-1292.2,143-1290.9,144.3-1289.8,145.7
			L-1289.8,145.7z M-1283.2,117.1c-1.1,0.2-1.6,0.9-1.6,2.2c0.1,0.6,0.2,1.2,0.4,1.8c0.1,0.4,0.4,0.8,0.8,1s0.9,0.3,1.3,0.2
			c0.5-0.1,0.9-0.3,1.1-0.7c0.3-0.4,0.4-0.8,0.4-1.3c0-0.7-0.2-1.4-0.4-2c-0.1-0.4-0.4-0.8-0.8-1.1
			C-1282.2,117.1-1282.7,117-1283.2,117.1L-1283.2,117.1z M-1286.7,100.1c-1.1,0.2-1.7,1-1.5,2c0.1,1,0.3,2,0.6,3
			c0.1,0.2,0.1,0.4,0.3,0.6c0.1,0.2,0.3,0.3,0.5,0.5c0.2,0.1,0.4,0.2,0.6,0.2s0.5,0,0.7,0c1.1-0.2,1.6-0.9,1.6-2.2
			c-0.2-1-0.4-2-0.7-2.9c-0.1-0.2-0.2-0.4-0.3-0.6c-0.1-0.2-0.3-0.3-0.5-0.4s-0.4-0.2-0.6-0.2C-1286.2,100-1286.4,100-1286.7,100.1
			L-1286.7,100.1z M-1282.7,110.1c-0.3-0.7-1.1-1.2-1.4-1.6c-1.6,0.1-2.4,0.9-2.3,2.1c0.1,1,0.3,2,0.6,3c0.3,1,1.1,1.5,2.2,1.3
			c0.5-0.1,0.9-0.4,1.2-0.8c0.3-0.4,0.4-0.9,0.3-1.4C-1282.3,111.8-1282.4,110.9-1282.7,110.1L-1282.7,110.1z M-1243.9,38
			c-5.2,0-10.4,0-15.6,0c-1.5,0-2.2,0.7-2.2,2.2c0,0.8,0,1.5,0,2.4h-1.5c-6.4,0-12.9,0-19.3,0c-0.5,0-0.9,0-1.4,0.1
			c-0.4,0.1-0.8,0.4-1,0.7c-0.2,0.4-0.3,0.8-0.3,1.2s0.2,0.8,0.5,1.2s0.7,0.5,1.1,0.6c0.4,0,0.9,0.1,1.3,0h20.5v12.8h-36.7
			c-2,0-2.6,0.6-2.6,2.6c0,1.9,0,3.7,0,5.6h-12.8c0-4,0-8,0-11.9c0-5.5,3.6-9.1,9.1-9.1c4.1,0,8.1,0,12.2,0c1.4,0,2.3-0.8,2.2-1.9
			c0-1.1-0.9-1.9-2.2-1.9c-4.5,0-9-0.1-13.5,0c-6,0.2-10.9,4.6-11.5,10.6c-0.4,4.2-0.2,8.5-0.2,12.7c0,0.5,0,1,0,1.4
			c-0.1,0-0.3,0.1-0.4,0.1h-4.2c-1.9,0-2.6,0.6-2.6,2.5c0,5.2,0,10.4,0,15.6c0,1.8,0.7,2.4,2.4,2.4c10.1,0,20.1,0,30.2,0
			c1.7,0,2.4-0.7,2.4-2.4c0-5.2,0-10.4,0-15.6c0-1.9-0.7-2.5-2.6-2.5c-1.5,0-3.1,0-4.6,0v-4.3h35.5c0,0.7,0,1.3,0,1.8
			c0,2.2,0.6,2.7,2.7,2.7c4.8,0,9.7,0,14.5,0c1.2,0,2.1-0.3,2.7-1.3v-27C-1242.3,38.6-1242.9,38-1243.9,38L-1243.9,38z M-1294,71.6
			v12.6h-27.1V71.6H-1294z M-1245.7,63.9h-12.1v-22h12.1V63.9z M-1302,92.6c-1.3,0.1-1.9,1.3-1.7,3.3c0.2,1.4,1,2.2,2.1,2.1
			c1.2-0.1,1.8-1,1.7-2.4C-1299.9,93.5-1300.6,92.5-1302,92.6L-1302,92.6z M-1288.3,92.6c-0.4,0.1-0.9,0.3-1.1,0.7s-0.4,0.8-0.3,1.3
			c0.1,0.7,0.2,1.4,0.4,2c0.1,0.4,0.4,0.8,0.8,1.1c0.4,0.2,0.9,0.3,1.3,0.2c1.1-0.2,1.6-0.9,1.6-2.2c-0.1-0.6-0.2-1.3-0.5-1.9
			c-0.1-0.4-0.4-0.8-0.9-1C-1287.3,92.6-1287.8,92.5-1288.3,92.6L-1288.3,92.6z M-1316.8,110.2c-0.2,0.8-0.2,1.7-0.3,2.5
			c0,1.2,0.6,2.1,1.7,2.2s1.9-0.4,2.1-1.5c0.2-1,0.3-1.9,0.3-2.9c0-0.5-0.2-0.9-0.5-1.3c-0.3-0.3-0.8-0.6-1.2-0.6s-0.9,0.1-1.3,0.4
			C-1316.4,109.3-1316.7,109.7-1316.8,110.2L-1316.8,110.2z M-1316,102.2c-0.1,0.7-0.2,1.4-0.2,2.2c0,0.5,0.1,1,0.4,1.4
			s0.8,0.6,1.3,0.7c0.2,0,0.5,0,0.7-0.1s0.5-0.2,0.7-0.3c0.2-0.2,0.4-0.3,0.5-0.6c0.1-0.2,0.2-0.5,0.2-0.7c0.1-0.8,0.2-1.5,0.3-2.3
			c0-1.5-0.6-2.4-1.8-2.5C-1315,100-1315.8,100.8-1316,102.2L-1316,102.2z M-1317.8,120.6c0,0.2,0,0.5,0.1,0.7s0.2,0.4,0.4,0.6
			c0.2,0.2,0.4,0.3,0.6,0.4s0.5,0.1,0.7,0.1c1.1,0,1.8-0.6,2-1.6c0.1-0.5,0.1-1,0.2-1.7c0-0.5-0.1-0.9-0.4-1.3s-0.7-0.6-1.2-0.7
			c-0.2-0.1-0.4-0.1-0.7,0c-0.2,0-0.4,0.1-0.6,0.2s-0.4,0.3-0.5,0.4c-0.1,0.2-0.2,0.4-0.3,0.6
			C-1317.7,119-1317.8,119.8-1317.8,120.6L-1317.8,120.6z M-1311.5,96.3c0.1-0.3,0.1-0.6,0.1-0.9c0.1-1.8-0.6-2.8-1.8-2.8
			c-1.2,0-1.9,0.8-2.1,2.3c0,0.3-0.1,0.7-0.1,1c0,1.1,0.7,1.9,1.7,2.1C-1312.6,98.1-1311.8,97.4-1311.5,96.3L-1311.5,96.3z
			 M-1300.3,108.5c-0.2,0-0.5,0.1-0.7,0.2s-0.4,0.3-0.6,0.4c-0.2,0.2-0.3,0.4-0.4,0.6s-0.1,0.5-0.1,0.7c0,0.9,0.1,1.8,0.3,2.7
			c0,0.5,0.3,1,0.7,1.3c0.4,0.3,0.9,0.5,1.4,0.5c1.1-0.1,1.8-0.9,1.8-2.2c-0.1-0.8-0.1-1.7-0.3-2.6c-0.1-0.5-0.3-0.9-0.7-1.2
			C-1299.4,108.6-1299.8,108.5-1300.3,108.5L-1300.3,108.5z M-1299.6,117c-1.1,0.1-1.7,0.8-1.7,1.9c0,0.6,0.1,1.1,0.2,1.7
			c0.2,1.2,1,1.9,2.1,1.8c1-0.1,1.7-0.9,1.7-2.2c0-0.5-0.1-1.1-0.2-1.6C-1297.8,117.5-1298.5,116.9-1299.6,117L-1299.6,117z
			 M-1300.9,100.1c-1.3-0.2-2.2,0.9-2.1,2.7c0.1,0.8,0.2,1.5,0.3,2.3c0.1,0.3,0.2,0.5,0.3,0.7c0.2,0.2,0.4,0.4,0.6,0.5
			s0.5,0.2,0.8,0.2s0.5,0,0.8-0.1c2-0.9,1.1-2.6,1-4.1C-1299.1,101.1-1299.7,100.3-1300.9,100.1L-1300.9,100.1z"/>
	</g>
	<g>
		<defs>
			<rect id="SVGID_00000059995317702697491130000003384012689202197665_" x="0" y="0" width="272.4" height="292.5"/>
		</defs>
		<clipPath id="SVGID_00000183943264190344485260000003608639957237003169_">
			<use xlink:href="#SVGID_00000059995317702697491130000003384012689202197665_"  style="overflow:visible;"/>
		</clipPath>
		<path style="clip-path:url(#SVGID_00000183943264190344485260000003608639957237003169_);fill:#6A3834;" d="M-1088.5,260.4
			c-1.1,0-1.9,0.9-1.9,2.3c0,1.5,0,2.9,0,4.4s0,2.8,0,4.2c0,1.4,0.8,2.2,2,2.2c1.1,0,1.8-0.8,1.9-2.2c0-2.9,0-5.7,0-8.6
			C-1086.6,261.2-1087.3,260.4-1088.5,260.4z M-1036.6,156.3c1.1,0,1.8-0.6,1.9-1.7c0-0.3,0.1-0.7,0.1-1c0-3,0-6.1,0-9.1
			c0-1.1-0.2-2.1-1.2-2.8h-1.5c-0.4,0.6-1,1.1-1,1.6c-0.1,3.8-0.1,7.5,0,11.3C-1038.3,155.7-1037.6,156.3-1036.6,156.3z
			 M-1063.4,240.2c17.7,0.7,32.7-13.5,33.5-31.6c0.7-17.7-13.5-32.8-31.5-33.5c-17.8-0.7-32.9,13.5-33.6,31.6
			C-1095.8,224.4-1081.5,239.5-1063.4,240.2z M-1064.4,234.9c0,0.4,0,0.7-0.1,1.3c-6.4-0.4-11.9-2.8-16.9-7c0.8-0.8,1.5-1.4,2.2-2.1
			c4.3-4.3,8.5-8.5,12.8-12.8c0.3-0.3,1-0.6,1.3-0.5s0.6,0.8,0.6,1.3C-1064.4,221.7-1064.4,228.3-1064.4,234.9L-1064.4,234.9z
			 M-1060.5,236.2c0-0.5-0.1-1-0.1-1.4c0-6.6,0-13.1,0-19.7c0-0.5,0.4-1,0.6-1.5c0.5,0.2,1.1,0.3,1.4,0.6c4.7,4.6,9.4,9.3,14,14
			c0.3,0.3,0.5,0.6,0.9,0.9C-1048.6,233.4-1054.1,235.7-1060.5,236.2L-1060.5,236.2z M-1040.8,226.4c-0.4-0.3-0.6-0.6-0.9-0.8
			c-4.7-4.7-9.4-9.4-14.1-14.1c-0.3-0.3-0.7-1-0.5-1.3c0.1-0.3,0.8-0.6,1.3-0.6c6.7,0,13.4,0,20,0c0.3,0,0.7,0,1.2,0.1
			C-1034.3,216-1036.7,221.5-1040.8,226.4L-1040.8,226.4z M-1040.8,188.7c4.2,4.9,6.5,10.4,7,16.9h-1.5c-6.5,0-12.9,0-19.4,0
			c-0.5,0-1.1-0.4-1.6-0.6c0.2-0.5,0.3-1.1,0.7-1.4c4.6-4.7,9.2-9.3,13.9-13.9C-1041.5,189.4-1041.2,189.1-1040.8,188.7
			L-1040.8,188.7z M-1060.5,179.7c0-0.2,0-0.3,0.1-0.7c6.4,0.5,11.9,2.8,16.8,6.9c-0.2,0.2-0.4,0.5-0.6,0.7
			c-4.8,4.8-9.6,9.6-14.5,14.4c-0.2,0.2-0.4,0.3-0.6,0.3c-0.2,0.1-0.4,0.1-0.7,0.1c-0.3-0.1-0.6-0.7-0.6-1
			C-1060.6,193.5-1060.6,186.6-1060.5,179.7L-1060.5,179.7z M-1062.5,204.8c0.5,0,1.1,0.2,1.5,0.5s0.8,0.7,1,1.2s0.3,1.1,0.1,1.6
			c-0.1,0.5-0.4,1-0.8,1.4s-0.9,0.6-1.4,0.7c-0.5,0.1-1.1,0-1.6-0.2s-0.9-0.6-1.2-1c-0.3-0.5-0.4-1-0.4-1.5c0-0.7,0.3-1.4,0.8-1.9
			C-1063.9,205.1-1063.2,204.9-1062.5,204.8L-1062.5,204.8z M-1064.5,179c0,0.6,0.1,1,0.1,1.5c0,6.5,0,13,0,19.5
			c0,0.5-0.2,1.1-0.6,1.5c-0.7,0.6-1.1-0.2-1.5-0.6c-4.6-4.6-9.2-9.1-13.7-13.7c-0.4-0.4-0.8-0.7-1.3-1
			C-1076.4,181.8-1070.9,179.4-1064.5,179L-1064.5,179z M-1084.1,188.7c1.7,1.8,3.4,3.4,5,5c3.4,3.4,6.7,6.7,10.1,10.1
			c0.2,0.2,0.3,0.4,0.3,0.6c0.1,0.2,0.1,0.4,0.1,0.7c-0.1,0.3-0.7,0.6-1,0.6c-6.9,0-13.8,0-20.7,0c-0.2,0-0.3,0-0.7-0.1
			C-1090.7,199.2-1088.3,193.7-1084.1,188.7z M-1089.7,209.5c6.6,0,13.1,0,19.7,0c0.5,0,1,0.4,1.5,0.6c-0.2,0.5-0.3,1.1-0.7,1.4
			c-4.6,4.7-9.2,9.3-13.9,13.9c-0.3,0.3-0.6,0.6-1,0.9c-4.1-4.7-6.6-10.6-7-16.8C-1090.6,209.6-1090.2,209.5-1089.7,209.5
			L-1089.7,209.5z M-1033.7,178.5c-0.5-0.6-0.8-1.3-0.8-2c-0.1-4.2,0-8.5,0-12.7c0-1.5-0.7-2.2-1.9-2.3c-1.2,0-1.9,0.8-1.9,2.2
			c0,1.5,0,3,0,4.5c0,2,0,4,0,6.2c-1.3-0.8-2.3-1.5-3.4-2.1c-0.8-0.4-1.1-1-1.1-1.9c0-8.7,0-17.3,0-26c0-1.2-0.3-2.1-1.3-2.7h-1.3
			c-1,0.7-1.3,1.6-1.3,2.7c0.1,3.7,0,7.4,0,11.2c-1.2-0.3-2.4-0.4-3.6-0.3c-1.2,0.1-2.4,0.5-3.4,1.1c0.7-3-0.1-5.3-2.3-7.1
			c-1-0.8-2.2-1.4-3.4-1.8c-1.2-0.4-2.5-0.5-3.8-0.4c-5.6,0.4-8.5,3.8-8,9.2c-2.2-1.1-4.4-1.5-6.9-0.7v-2.1c0-3,0-6.1,0-9.1
			c0-1.2-0.3-2.1-1.3-2.7h-1.3c-1.1,0.6-1.3,1.5-1.3,2.7c0,8.6,0,17.3,0,25.9c0,0.9-0.2,1.5-1.1,1.9c-1.1,0.6-2.1,1.3-3.4,2.1v-1.6
			c0-9.4,0-18.7,0-28.1c0-1.2-0.2-2.2-1.2-2.9h-1.6c-1,0.7-1.2,1.7-1.2,2.9c0,10.5,0,21.1,0,31.6c0,0.9-0.3,1.7-1,2.4
			c-2,2.3-3.8,4.6-5.6,7c-0.2,0.2-0.3,0.4-0.3,0.7c-0.1,0.3-0.1,0.5,0,0.8s0.2,0.5,0.3,0.7c0.2,0.2,0.3,0.4,0.6,0.5
			c0.9,0.5,1.9,0.3,2.6-0.6c0.2-0.2,0.3-0.5,0.5-0.7c9.1-12.7,21.4-18.2,36.8-16c20.4,2.9,34.5,23.2,30.4,43.3
			c-4,20.1-22.4,32.8-42.6,29.6c-17-2.7-30.5-18.1-30.8-35.4c-0.1-4.4,0.5-8.7,1.9-12.9c0.3-0.9,0.4-1.9-0.5-2.4
			c-0.5-0.3-1.5-0.5-2-0.2c-0.5,0.2-1,1-1.2,1.7c-4.7,15.8-1.4,29.7,10,41.7c0.3,0.3,0.5,0.6,0.7,1s0.2,0.8,0.2,1.2
			c0,4.5,0,9.1,0,13.6c0,0.5,0,1,0.1,1.5c0.2,1,0.9,1.4,1.9,1.4c0.4,0,0.8-0.1,1.1-0.4c0.3-0.3,0.5-0.6,0.6-1
			c0.1-0.5,0.1-0.9,0.1-1.4c0-3.4,0-6.8,0-10.2c0-0.4,0-0.9,0.1-1.4c1.2,0.8,2.2,1.5,3.3,2.1c0.8,0.4,1.1,1,1.1,1.9
			c0,8.6,0,17.1,0,25.7c0,0.4,0,0.9,0,1.3c0,0.3,0.1,0.5,0.3,0.8s0.3,0.4,0.6,0.6c0.2,0.2,0.5,0.2,0.8,0.3c0.3,0,0.6,0,0.8-0.1
			c0.7-0.2,1.4-0.2,2.2-0.1c4.5,1.1,8.5-3.1,7.3-7.5c-0.9-3.4-3.9-4.9-8-4.2v-16.1c10.4,4.1,20.9,4.1,31.3,0v16.1
			c-0.4-0.1-0.7-0.2-1-0.2c-1.2-0.2-2.5-0.1-3.6,0.5c-1.1,0.5-2.1,1.4-2.7,2.5c-0.6,1-0.9,2.2-0.8,3.4c0.1,1.2,0.5,2.4,1.3,3.3
			c1.5,2,4.1,2.8,6.7,2.1c0.5-0.1,1-0.1,1.5,0.1c0.9,0.3,1.7,0.2,2.2-0.6c0.3-0.6,0.5-1.3,0.5-1.9c0-8.7,0-17.4,0-26.1
			c0-0.5,0.2-1.2,0.5-1.4c1.2-0.9,2.5-1.6,4-2.5v29.7c0,2.1,0.6,3,2,3c1.3,0,1.9-0.9,1.9-2.9c0-10.6,0-21.2,0-31.8
			c0-0.7,0.3-1.5,0.8-2C-1017.5,220.4-1017.5,194.8-1033.7,178.5L-1033.7,178.5z M-1072.1,167.7c-2.9,0-6-3.1-6.1-5.9
			c0-1.8,0.9-2.7,2.7-2.6c2.9,0.1,5.9,3.2,5.9,6.1C-1069.7,166.8-1070.6,167.7-1072.1,167.7L-1072.1,167.7z M-1059,163.7
			c-0.1,1,0,1.9,0,3h-6.5c-0.3-1.9-0.7-3.8-1-5.8c2.7,1,5.7,1,8.4-0.1C-1058.5,161.9-1058.9,162.8-1059,163.7L-1059,163.7z
			 M-1058.3,156.3c-1,0.9-2.5,1.4-4.1,1.4l-0.2,0.3c-1.3-0.6-2.8-1-4-1.8c-1.5-1-1.4-2.7-0.1-3.8c2.1-1.9,6.3-1.9,8.3,0
			C-1057.1,153.7-1057.1,155.1-1058.3,156.3L-1058.3,156.3z M-1052.9,167.7c-1.5,0-2.4-1-2.4-2.4c-0.1-3,3.1-6.2,6.1-6.2
			c1.6,0,2.5,1,2.5,2.6C-1046.8,164.7-1050,167.8-1052.9,167.7L-1052.9,167.7z M-1075.9,265.1c0.3,0,0.6,0.1,0.8,0.2
			c0.3,0.1,0.5,0.3,0.7,0.5s0.4,0.4,0.5,0.7c0.1,0.3,0.2,0.6,0.2,0.8c0,0.6-0.2,1.1-0.6,1.6c-0.4,0.4-1,0.7-1.5,0.7
			c-0.3,0-0.6-0.1-0.9-0.2s-0.5-0.3-0.7-0.5s-0.4-0.5-0.5-0.7c-0.1-0.3-0.2-0.6-0.1-0.9c0-0.3,0.1-0.6,0.2-0.8
			c0.1-0.3,0.3-0.5,0.5-0.7s0.4-0.4,0.7-0.5C-1076.5,265.2-1076.3,265.1-1075.9,265.1L-1075.9,265.1z M-1049,269.6
			c-0.3,0-0.6-0.1-0.9-0.2s-0.5-0.3-0.7-0.5s-0.4-0.5-0.5-0.8s-0.1-0.6-0.1-0.9c0-0.6,0.3-1.1,0.7-1.5c0.4-0.4,1-0.6,1.6-0.6
			s1.1,0.3,1.5,0.7c0.4,0.4,0.6,1,0.6,1.6s-0.3,1.1-0.7,1.5C-1047.8,269.3-1048.4,269.6-1049,269.6L-1049,269.6z M-1062.4,252.7
			c-1.2,0-2.4,0.3-3.4,1s-1.8,1.6-2.3,2.7c-0.5,1.1-0.6,2.3-0.4,3.5s0.8,2.3,1.7,3.1c0.9,0.9,1.9,1.4,3.1,1.7
			c1.2,0.2,2.4,0.1,3.5-0.4s2.1-1.3,2.7-2.3c0.7-1,1-2.2,1-3.4c0-1.6-0.7-3.1-1.8-4.3S-1060.8,252.7-1062.4,252.7L-1062.4,252.7z
			 M-1062.4,261c-0.4,0-0.9-0.1-1.2-0.3c-0.4-0.2-0.7-0.6-0.8-1c-0.2-0.4-0.2-0.9-0.2-1.3c0.1-0.4,0.3-0.8,0.6-1.2
			c0.3-0.3,0.7-0.5,1.1-0.6s0.9-0.1,1.3,0.1s0.8,0.4,1,0.8c0.3,0.4,0.4,0.8,0.4,1.2c0,0.6-0.2,1.1-0.6,1.6
			C-1061.3,260.7-1061.8,261-1062.4,261L-1062.4,261z"/>
	</g>
	<g>
		<defs>
			<rect id="SVGID_00000168827357805713817750000017594549971609725576_" x="0" y="0" width="272.4" height="292.5"/>
		</defs>
		<clipPath id="SVGID_00000002358480067280101590000008874791934271953084_">
			<use xlink:href="#SVGID_00000168827357805713817750000017594549971609725576_"  style="overflow:visible;"/>
		</clipPath>
		<path style="clip-path:url(#SVGID_00000002358480067280101590000008874791934271953084_);fill:#6A3834;" d="M-788.7,138.6
			c0.4,0,0.8-0.1,1.2-0.3c0.3-0.2,0.6-0.6,0.8-0.9c0.1-0.4,0.2-0.8,0.1-1.2c-0.1-0.4-0.3-0.8-0.6-1.1s-0.7-0.5-1.1-0.6
			c-0.4-0.1-0.8,0-1.2,0.1c-0.4,0.2-0.7,0.4-0.9,0.8c-0.2,0.3-0.3,0.7-0.3,1.2s0.2,1.1,0.6,1.4
			C-789.8,138.4-789.3,138.6-788.7,138.6z M-799.1,132.5c0.4,0,0.8-0.1,1.2-0.3s0.6-0.5,0.8-0.9s0.2-0.8,0.1-1.2
			c-0.1-0.4-0.3-0.8-0.6-1.1s-0.6-0.5-1-0.6s-0.8,0-1.2,0.1c-0.4,0.2-0.7,0.4-0.9,0.8c-0.2,0.3-0.3,0.7-0.3,1.1
			c0,0.5,0.2,1.1,0.6,1.5C-800.1,132.2-799.6,132.5-799.1,132.5L-799.1,132.5z M-778.4,128.3c0.4,0,0.8-0.1,1.1-0.4
			c0.3-0.2,0.6-0.6,0.7-0.9c0.1-0.4,0.2-0.8,0.1-1.2c-0.1-0.4-0.3-0.8-0.6-1c-0.3-0.3-0.7-0.5-1.1-0.5c-0.4-0.1-0.8,0-1.2,0.2
			s-0.7,0.4-0.9,0.8c-0.2,0.3-0.3,0.8-0.3,1.2c0,0.5,0.2,1.1,0.6,1.4C-779.4,128.2-778.9,128.4-778.4,128.3L-778.4,128.3z
			 M-811.5,132.5c0.4,0,0.8-0.1,1.2-0.3s0.6-0.5,0.8-0.9s0.2-0.8,0.2-1.2c-0.1-0.4-0.2-0.8-0.5-1.1s-0.6-0.5-1-0.6s-0.8-0.1-1.2,0.1
			s-0.7,0.4-0.9,0.7s-0.4,0.7-0.4,1.1c0,0.5,0.2,1.1,0.5,1.5C-812.5,132.2-812,132.5-811.5,132.5L-811.5,132.5z M-758.5,116
			c-2.8,0-5.7,0-8.5,0c-0.4,0-0.7,0-1.2-0.1c0-2.5,0-4.8,0-7.2c-0.1-3.3,0-6.7-0.4-10c-1-7.8-4.5-14.4-10-19.9
			c-0.6-0.6-0.7-1.1-0.3-1.8c0.6-1.2,1.2-2.4,1.9-3.5c2.2-3.4,4.8-6.6,7.9-9.3c0.8-0.7,1.2-1.5,0.8-2.5s-1.2-1.4-2.3-1.3
			c-4.6,0.1-9,0.8-13.3,2.6c-0.5,0.2-1,0.4-1.4,0.6c2-3.6,4.7-6.8,7.7-9.5c0.8-0.7,1.5-1.5,1-2.7c-0.4-1.2-1.5-1.4-2.6-1.4
			c-4.8,0.1-9.5,1-13.8,3c-0.5-1.9-0.9-3.7-1.5-5.5c-1.2-3.7-3.3-6.7-6.6-9c-1.5-1-2.8-1-4.3,0c-3.8,2.6-5.9,6.3-7.1,10.7
			c-0.3,1.2-0.6,2.5-0.9,3.8c-4.6-2.2-9.4-3-14.3-3c-1,0-1.8,0.3-2.2,1.3s0,1.7,0.7,2.4c0.9,0.9,1.9,1.7,2.7,2.6
			c1.9,2.2,3.8,4.6,5.7,6.8l-0.3,0.3c-0.4-0.1-0.7-0.3-1-0.4c-4.4-2-9.1-2.7-13.9-2.8c-0.4,0-0.9,0.1-1.2,0.3
			c-0.4,0.2-0.6,0.6-0.8,1c-0.4,0.9-0.1,1.7,0.6,2.3c0.3,0.3,0.6,0.6,0.9,0.9c3.7,3.5,6.9,7.4,9.1,12c0.4,0.8,0.3,1.3-0.4,1.9
			c-3.4,3.3-6.1,7.3-7.9,11.8c-1.7,4.1-2.5,8.5-2.5,13l-7.5,2.9c0.5-4,1-8.1,2.9-11.8c0.3-0.5,0.6-1.2,0.4-1.7
			c-0.3-0.7-0.8-1.3-1.5-1.7c-0.2-0.1-0.4-0.1-0.7-0.1c-0.2,0-0.5,0-0.7,0.1s-0.4,0.2-0.6,0.4c-0.2,0.2-0.3,0.4-0.4,0.6
			c-0.9,2.3-1.9,4.6-2.5,6.9c-0.7,2.6-1,5.3-1.4,8.1c-0.2-0.1-0.5-0.1-0.7-0.2c-0.4-0.2-0.7-0.4-1.1-0.6c-6.1-3.7-12.4-4-18.5-0.1
			c-7.2,4.6-9.5,11.6-8.9,19.8c0.2,2.8,0.8,5.5,1.1,8.3c0.8,6.3,2.6,12.4,5.9,17.9c4.6,7.6,12.9,10.8,21,7.7
			c1.8-0.7,3.8-0.7,5.5,0.1c6.3,2.4,12.1,1,17.1-3.3c0.7-0.6,1.2-0.7,2-0.3c8.1,3.7,16.6,5.4,25.4,4.5c16.7-1.6,29.8-9.4,39.2-23.3
			c3.9-5.6,6-12.2,6.2-19C-755.7,116.7-756.5,116-758.5,116L-758.5,116z M-768.5,120.2c-2.4,10.5-8.6,18.1-17.6,23.4
			c-11.6,6.9-25.1,6.6-35.2,1.5c2.2-8.2,3.8-16.4,3.6-25h49.2V120.2z M-811.5,106.1l8.2-9l8,8.7l-7.7,8.5L-811.5,106.1z M-807.9,116
			c-3.2,0-6.8,0-10.4,0c-0.3,0-0.7-0.4-0.8-0.7c-0.2-0.4-0.5-0.9-0.6-1.4l5.1-5.4L-807.9,116z M-791.5,108.4l6.8,7.6h-13.8
			L-791.5,108.4z M-799.5,94.3l8-8.6l8.1,8.8l-8,8.6L-799.5,94.3z M-791.4,80.2l-6.2-6.8c3,0.4,6.4,1.6,9.5,3.4L-791.4,80.2z
			 M-795.1,83.2l-7.9,8.5l-8-8.8l7.8-8.5L-795.1,83.2z M-814.8,80.3l-3.3-3.6c3-1.7,6.2-2.8,9.6-3.4L-814.8,80.3z M-814.8,85.7
			l8,8.7l-8.1,8.7l-7.9-8.7C-820.4,91.8-817.7,88.9-814.8,85.7L-814.8,85.7z M-818,105.5l-4.3,4.5c-3-3.3-6.5-5.4-10.5-6.1l6.2-6.8
			L-818,105.5z M-775.4,115.9c0.9-1,1.9-2,3.1-3.3v3.3H-775.4z M-773.4,108l-6.6,6.3c-2.8-3-5.4-5.9-7.9-8.7l7.9-8.4
			c0.9,0.9,1.7,1.6,2.4,2.3c1.4,1.3,2.8,2.7,4.2,4C-771.8,105-771.7,106.4-773.4,108L-773.4,108z M-774.4,92.3l1.7,5.7l-0.4,0.2
			l-3.4-3.9L-774.4,92.3z M-776.5,88.1l-3.3,3.5l-8.2-8.9l3.4-3.6C-781.3,81.6-778.5,84.6-776.5,88.1L-776.5,88.1z M-778.7,65.7
			c0.9-0.2,1.8-0.4,2.6-0.6l-6.8,10c-1.6-0.9-3.4-1.9-5.2-2.9c-1-0.6-0.4-1.1,0.1-1.6C-785.3,68.1-782.1,66.6-778.7,65.7
			L-778.7,65.7z M-783.9,54.7c-4.1,4.8-7.4,9.5-8.5,15.5l-5.3-1.1c-0.2,0-0.4-0.1-0.6-0.1c-2.1-0.3-2.9-2.1-1.8-3.9
			C-796.5,59.2-791.1,56-783.9,54.7L-783.9,54.7z M-805.4,44.3c2.2-2.5,2.2-2.5,4.3,0c2.7,3.1,3.5,6.9,4,10.9c0,0.1,0,0.3-0.1,0.4
			c-0.1,0.1-0.1,0.2-0.2,0.3c-1.9,2-3.9,3.9-5.8,5.7c-1.8-1.8-3.7-3.7-5.6-5.6c-0.3-0.2-0.4-0.6-0.5-0.9
			C-808.8,51.2-808,47.3-805.4,44.3L-805.4,44.3z M-822.3,54.9c8.2,0.9,15.3,6.6,17.7,13.6l-9.3,1.6
			C-815,64.3-818.3,59.5-822.3,54.9L-822.3,54.9z M-830.2,65.1c3.6,0.5,7,1.9,9.9,3.9c0.7,0.5,1.4,1.1,2.1,1.7
			c0.5,0.5,0.6,1.1-0.2,1.5c-1.7,0.9-3.4,1.9-5,2.8L-830.2,65.1z M-821.9,79.2c1.2,1.4,2.5,2.7,3.5,3.9l-8,8.6l-3.3-3.7
			C-827.7,84.5-825.1,81.6-821.9,79.2L-821.9,79.2z M-831.9,92l2.1,2.3l-3.6,3.8l-0.2-0.1C-833.1,96.2-832.6,94.3-831.9,92z
			 M-828.5,150.4c-2.6,4.4-6.6,6.9-11.9,6.8c-1.6-0.1-3.1-0.4-4.6-1.1c-1.1-0.5-2.3-0.8-3.5-0.8s-2.4,0.3-3.5,0.8
			c-4,1.7-8,1.5-11.8-0.9c-2.3-1.4-4-3.4-5.3-5.8c-2.9-5.3-4.3-11-5.1-17c-0.3-2.2-0.7-4.3-0.9-6.5c-0.5-6.2,1-11.7,6.2-15.6
			c4.5-3.3,10.2-3.3,14.9-0.3c1.1,0.7,2.4,1.2,3.8,1.9c-0.1,1.2-0.2,2.5-0.2,4.1c-1-0.5-1.9-0.9-2.7-1.5c-1.2-0.7-2.2-0.7-3,0.2
			c-0.7,0.9-0.6,2.2,0.5,3.1c3.7,3.1,11,3.1,14.6,0c1-0.9,1.2-2,0.5-3s-1.8-1-3-0.3c-0.8,0.5-1.7,0.9-2.8,1.5c0.1-1.6,0.2-2.8,0.3-4
			c0-0.1,0-0.2,0.1-0.3c0-0.1,0.1-0.2,0.2-0.2c1.8-0.9,3.5-1.8,5.3-2.6c7.9-3.3,15.9,1.7,18.1,9.4c1,3.4,0.9,6.8,0.3,10.2
			c-0.9,4.6-1.5,9.3-2.7,13.8C-825.6,145.1-827,147.8-828.5,150.4L-828.5,150.4z M-764.9,134.7c-8.5,13.2-20.6,20.6-36.2,22.2
			c-7.8,0.8-15.4-0.6-22.6-3.6c-0.4-0.2-0.8-0.3-1.2-0.6l2-3.7c12.2,5.4,24.3,5.5,36.3-0.4c11.8-5.9,19.7-15.2,22.5-28.4h4.2
			C-760.4,125.4-762.1,130.4-764.9,134.7L-764.9,134.7z M-805.2,144.8c0.4,0,0.8-0.1,1.1-0.4c0.3-0.2,0.6-0.6,0.8-0.9
			c0.2-0.4,0.2-0.8,0.1-1.2c-0.1-0.4-0.3-0.8-0.6-1c-0.3-0.3-0.7-0.5-1.1-0.5c-0.4-0.1-0.8,0-1.2,0.1c-0.4,0.2-0.7,0.4-0.9,0.8
			c-0.2,0.3-0.3,0.7-0.3,1.2s0.2,1.1,0.6,1.4C-806.3,144.6-805.7,144.8-805.2,144.8L-805.2,144.8z"/>
	</g>
	<g>
		<defs>
			<rect id="SVGID_00000165946178388140174220000013989171249149474944_" x="0" y="0" width="272.4" height="292.5"/>
		</defs>
		<clipPath id="SVGID_00000059273198519207313010000012203045149104319920_">
			<use xlink:href="#SVGID_00000165946178388140174220000013989171249149474944_"  style="overflow:visible;"/>
		</clipPath>
		<path style="clip-path:url(#SVGID_00000059273198519207313010000012203045149104319920_);fill:#6A3834;" d="M-502,178.3h-37V213
			h6.4c-1.3,1.7-2.6,3.2-3.7,4.8c-0.6,0.9-1.2,1.2-2.2,1.2c-8.9,0-17.7,0-26.6,0h-1.6v-12h-4.2v11.9h-19.2V207h-4.2v12H-626v20.9
			c-4.8-1.9-8.6-1.2-11.3,2.2c-1.1,1.4-1.8,3.2-1.9,5c-0.1,1.8,0.4,3.6,1.4,5.1c2.4,3.7,5.9,4.5,11.6,2.9v3.7h-16.3v14.6h11.8
			c-0.1-1.3-0.1-2.6-0.2-4.1h100.6v4.1h11.8v-14.7h-16.2c-0.7-2.5-0.5-3,1.4-4.3c4.1-2.7,8.3-5.4,12.4-8c0.5-0.4,1.1-0.6,1.7-0.7
			c8.9-0.9,15.3-6.9,16.8-15.8c0-0.2,0.1-0.3,0.2-0.5V225c-0.2-0.8-0.4-1.7-0.6-2.5c-0.9-3.4-2.7-6.4-5.3-8.8
			c-0.3-0.3-0.5-0.6-0.6-1h6.5v-34.4H-502z M-626.8,249.5c-0.5,1.6-2.4,2.7-4.2,2.5c-1.1-0.1-2-0.6-2.8-1.4s-1.2-1.8-1.3-2.8
			c-0.1-1.1,0.2-2.1,0.8-3s1.5-1.5,2.6-1.8c1.9-0.5,4.3,0.4,5,2.4h-3.8v4.1H-626.8z M-635,269.2h-3.2V263h3.2V269.2z M-621.7,223.2
			h82.7v35.4h-82.7V223.2z M-525.9,263h3.2v6.3h-3.2V263z M-530.2,263v2h-100.5v-2H-530.2z M-534.8,250.6v-11.5
			c2.3,2.7,5.3,4.7,8.7,5.8L-534.8,250.6z M-506.1,226.9c0,1.9-0.3,3.8-1,5.6s-1.7,3.4-3.1,4.8c-1.3,1.4-2.9,2.5-4.7,3.3
			s-3.6,1.2-5.5,1.2c-7.6,0.2-14.4-6.3-14.6-13.9c-0.1-1.9,0.3-3.8,1-5.6s1.7-3.4,3-4.8c1.3-1.4,2.9-2.5,4.7-3.3s3.6-1.2,5.5-1.2
			C-513,212.8-506.3,219.2-506.1,226.9L-506.1,226.9z M-506.2,208.7h-28.6v-26.3h28.6L-506.2,208.7L-506.2,208.7z M-617.4,174.9
			c6.3,6.2,12.5,12.5,18.7,18.7c0.3,0.3,0.6,0.6,0.7,1c0.2,0.4,0.2,0.8,0.2,1.2c-0.1,2.5,0,5,0,7.5h34.7c0-2.5,0-4.9,0-7.2
			c0-0.5,0-1,0.2-1.4c0.2-0.5,0.5-0.9,0.8-1.2c6.2-6.2,12.4-12.4,18.6-18.6c0.3-0.3,0.6-0.7,0.8-1.1c0.2-0.4,0.3-0.9,0.2-1.3
			c-0.1-4.2,0-8.3,0-12.5v-4h-76c0,0.5-0.1,1-0.1,1.5c0,4.9,0,9.9,0,14.8c0,0.5,0,0.9,0.2,1.4C-618.1,174.2-617.8,174.6-617.4,174.9
			L-617.4,174.9z M-567.3,199.3h-26.3v-3.4h26.3V199.3z M-614.2,160.3h67.6c0,0.5,0.1,1,0.1,1.4c0,3.1,0.1,6.2,0,9.3
			c0,0.7-0.3,1.5-0.8,2c-5.9,6-11.8,11.9-17.8,17.8c-0.5,0.5-1.2,0.8-1.9,0.8c-8.9,0.1-17.8,0.1-26.7,0c-0.6,0-1.1-0.2-1.6-0.5
			c-5.2-5.1-10.4-10.3-15.5-15.5c-0.1-0.1-0.2-0.3-0.2-0.4h30.6v-4.1h-33.7L-614.2,160.3L-614.2,160.3z M-525.7,206.3
			c1.2,0,2.4-0.4,3.4-1.1c1-0.7,1.8-1.6,2.2-2.8c0.4-1.1,0.6-2.3,0.3-3.5c-0.2-1.2-0.8-2.3-1.7-3.1s-1.9-1.4-3.1-1.6
			c-1.2-0.2-2.4-0.1-3.5,0.4s-2,1.3-2.7,2.3s-1,2.2-1,3.4c0,1.6,0.7,3.2,1.8,4.3S-527.3,206.3-525.7,206.3L-525.7,206.3z
			 M-525.8,198.2c0.5,0,1,0.2,1.4,0.6c0.4,0.4,0.6,0.9,0.6,1.4s-0.2,1-0.6,1.4c-0.4,0.4-0.9,0.6-1.4,0.6s-1-0.2-1.4-0.6
			c-0.4-0.4-0.6-0.9-0.6-1.4s0.2-1,0.6-1.4C-526.8,198.4-526.3,198.2-525.8,198.2L-525.8,198.2z M-573.3,216.5V206h-14.1v10.6
			L-573.3,216.5z M-583.3,210.1h5.9v2.4h-5.9V210.1z M-563.6,162.8h-23.6v3.9h23.6V162.8z M-579,152.4h3.9v-4h-3.9V152.4z
			 M-568.5,152.4v-4h-3.7v4H-568.5z M-597.1,151.6c-0.1-1.9,0-3.9,2.2-5.1c2.2-1.1,3.9,0.3,5.8,1.3c1.1-3.3,2.6-6.3,5.4-8.2
			c2.9-2,6.1-2.9,9.6-2.2c7.8,1.7,10.8,7,10.9,14.2l7.5,2.4l2.3-2.9c-0.8-0.5-1.4-0.9-2.1-1.3c-0.9-0.4-1.7-0.8-2.7-1.1
			c-0.8-0.2-1.1-0.6-1.2-1.4c-1.2-7.1-6.6-12.7-13.5-14c-3.4-0.7-6.9-0.2-10.1,1.2c-3.2,1.4-5.8,3.8-7.6,6.7
			c-0.2,0.3-0.4,0.6-0.7,0.7c-0.3,0.2-0.7,0.2-1,0.1c-3.9-0.3-6.9,1.6-8.4,5.3c-0.3,0.5-0.7,0.9-1.2,1.1c-1.8,0.8-3.6,1.6-5.6,2.4
			l2.4,3.1L-597.1,151.6z M-556.7,162.8h-3.9v3.9h3.9V162.8z M-549.9,162.7h-3.9v4h3.9V162.7z M-585.9,152.4h3.9v-3.9h-3.9V152.4z
			 M-547.6,238.2h4v-4h-4V238.2z M-565.9,235.9c-1.3,0-2.6,0.6-3.5,1.5c-0.9,1-1.4,2.2-1.4,3.6c0,1.3,0.5,2.6,1.4,3.6
			c0.9,0.9,2.2,1.5,3.5,1.5c0.7,0,1.4-0.1,2-0.4c0.6-0.2,1.2-0.6,1.7-1.1s0.9-1,1.1-1.7c0.3-0.6,0.4-1.3,0.4-2s-0.1-1.4-0.4-2
			c-0.3-0.6-0.6-1.2-1.1-1.7s-1.1-0.8-1.7-1.1C-564.5,236-565.2,235.8-565.9,235.9L-565.9,235.9z M-565.8,241.8
			c-0.3,0-0.7-0.5-1-0.8c0.3-0.3,0.6-0.9,1-1c0.3-0.1,0.7,0.4,1.3,0.9C-565,241.4-565.4,241.8-565.8,241.8L-565.8,241.8z
			 M-509.2,185h-4v3.9h4V185z M-566.2,229.5c-9.7,0.8-19.4,2.1-29.1,3.3c-1.6,0.2-3.3,0.4-4.8,1c-3.4,1.5-5,5-4.4,8.7
			c0.6,3.4,3.4,6,7.4,6.5c10,1.2,20,2.3,30.1,3.4c6.9,0.8,12.7-4.3,12.9-11.3C-554.2,234.4-559.7,228.9-566.2,229.5L-566.2,229.5z
			 M-596.6,244.9c-0.8,0-1.6-0.2-2.2-0.6c-0.7-0.4-1.2-1-1.5-1.7s-0.4-1.5-0.3-2.3c0.1-0.8,0.5-1.5,1-2c0.5-0.6,1.2-0.9,2-1.1
			c0.8-0.2,1.6-0.1,2.3,0.2s1.3,0.8,1.8,1.4c0.4,0.6,0.7,1.4,0.7,2.2c0,1-0.4,2-1.1,2.8C-594.6,244.4-595.6,244.8-596.6,244.9
			L-596.6,244.9z M-589.8,245.7c0.4-1.6,1-3.1,1-4.7c0-1.6-0.6-3.1-1-4.7l14.1-1.6c-2.4,4.3-2.4,8.4,0.1,12.7L-589.8,245.7z
			 M-565.7,248.4c-4.1,0.1-7.5-3.4-7.6-7.5c0-4.1,3.5-7.6,7.5-7.5c2,0,3.8,0.8,5.2,2.2s2.1,3.3,2.1,5.2c0,2-0.8,3.8-2.1,5.2
			C-561.9,247.6-563.8,248.4-565.7,248.4L-565.7,248.4z M-516.1,184.9h-3.9v3.9h3.9V184.9z M-515.3,224.9l4.2-3.8l-3.3-3.4
			c-1.3,1.4-2.6,2.9-4.2,4.7v-6.2h-4.1v5.9l-0.4,0.2l-3.6-4.1l-3.6,2.9c1.5,1.4,2.9,2.7,4.6,4.2h-6.1v4.2h5.8l0.1,0.3l-4.3,3.9
			l3.4,3.2l4.2-4.5v6.1h4.2v-5.9l0.4-0.2l3.8,4.1l3.3-2.9l-4.5-4.2h6.1v-4.2h-5.8C-515.2,225.1-515.2,225-515.3,224.9L-515.3,224.9z
			 M-547.6,254h3.9v-12.8h-3.9V254z M-616.8,256.1h3.9v-3.9h-3.9V256.1z M-610,256.1h3.9v-3.9h-3.9V256.1z M-543.6,227.4h-3.9v4h3.9
			V227.4z M-522.9,184.9h-9v3.9h9V184.9z M-598.7,242.9h3.9v-4h-3.9V242.9z M-603.1,256h3.7v-3.9h-3.7V256z"/>
	</g>
	<g>
		<defs>
			<rect id="SVGID_00000169520822680429674670000015138821634141768638_" x="0" y="0" width="272.4" height="292.5"/>
		</defs>
		<clipPath id="SVGID_00000139973410894137263050000002911497988040085919_">
			<use xlink:href="#SVGID_00000169520822680429674670000015138821634141768638_"  style="overflow:visible;"/>
		</clipPath>
		<path style="clip-path:url(#SVGID_00000139973410894137263050000002911497988040085919_);fill:#6A3834;" d="M-376.2,110
			c0,0.5,0.2,0.9,0.5,1.2c0.3,0.3,0.8,0.5,1.2,0.5c1,0.1,1.9-0.4,2-1.5c0.1-1.5,0.1-3,0-4.5c-0.1-1-0.9-1.5-1.9-1.5
			c-0.2,0-0.4,0-0.7,0.1c-0.2,0.1-0.4,0.2-0.6,0.4c-0.2,0.2-0.3,0.3-0.4,0.6c-0.1,0.2-0.1,0.4-0.1,0.7c-0.1,0.6,0,1.3,0,1.9
			C-376.2,108.6-376.2,109.3-376.2,110z M-375.4,70.7c0.8,0,1.6-0.1,2.3-0.5c0.7-0.3,1.4-0.8,2-1.3c0.6-0.6,1-1.2,1.3-2
			c0.3-0.7,0.5-1.5,0.5-2.3c0-0.8-0.2-1.6-0.5-2.3s-0.8-1.4-1.3-2c-0.6-0.6-1.2-1-2-1.3c-0.7-0.3-1.5-0.5-2.3-0.4
			c-0.8,0-1.6,0.2-2.3,0.5c-0.7,0.3-1.4,0.8-2,1.3c-0.6,0.6-1,1.2-1.3,2c-0.3,0.7-0.5,1.5-0.5,2.3c0,1.6,0.7,3.1,1.8,4.3
			C-378.5,70.1-377,70.8-375.4,70.7L-375.4,70.7z M-375.3,62.5c0.6,0,1.1,0.3,1.5,0.7s0.6,1,0.7,1.5c0,0.6-0.2,1.1-0.7,1.5
			c-0.4,0.4-1,0.6-1.6,0.6c-0.3,0-0.6,0-0.8-0.1c-0.3-0.1-0.5-0.3-0.7-0.5s-0.4-0.4-0.5-0.7c-0.1-0.3-0.2-0.5-0.2-0.8s0-0.6,0.2-0.9
			c0.1-0.3,0.3-0.5,0.5-0.7s0.5-0.4,0.7-0.5C-375.9,62.5-375.6,62.5-375.3,62.5z M-384.4,105.8c-0.1,1.5-0.1,3,0,4.5
			c0.1,1,1,1.5,2,1.5c0.5,0,0.9-0.2,1.2-0.5c0.3-0.3,0.5-0.8,0.5-1.2c0.1-0.6,0-1.3,0-1.9s0.1-1.4,0-2.1c0-0.2-0.1-0.5-0.1-0.7
			c-0.1-0.2-0.2-0.4-0.4-0.6c-0.2-0.2-0.3-0.3-0.6-0.4c-0.2-0.1-0.4-0.1-0.7-0.1C-383.5,104.3-384.3,104.8-384.4,105.8z
			 M-329.5,84.5c3.8,0.1,7.6-3.8,7.4-7.6c0-1.1-0.5-2.2-1.2-3s-1.7-1.4-2.8-1.6c-3.9-0.7-8.2,3-8.2,7.1
			C-334.3,82.3-332.3,84.4-329.5,84.5L-329.5,84.5z M-327.2,76.2c0.9,0,1.2,0.5,1.1,1.3c-0.2,1.4-1.7,2.9-3.1,3.1
			c-0.8,0.1-1.3-0.2-1.3-1.1C-330.4,78-328.6,76.2-327.2,76.2L-327.2,76.2z M-262.4,103.7c-0.9-2.9-2.7-5.4-5.2-7.3
			c-2.4-1.8-5.4-2.8-8.4-2.8c-1.7,0-3.4,0-5.3,0v-1.5c0-5.5,0-11,0-16.5c0-1.5-0.9-2.4-2.1-2.3c-1.1,0.1-1.7,1-1.7,2.5
			c0,5.4,0,10.7,0,16.1v1.6h-20.5V63.3h20.5c0,0.9,0,1.9,0,2.8c0,1.3,0.8,2.1,1.9,2.1s1.9-0.8,1.9-2.1c0-4.3,0-8.6,0-12.9
			c0-1.5-0.7-2.2-2.2-2.2c-7.9,0-15.8,0-23.8,0c-1.6,0-2.2,0.7-2.2,2.3c0,2.9,0,5.7,0,8.6c0,10,0,20,0,30v1.6h-4.6V54
			c0-2.5-0.4-3-3-3h-22.2c-2.5,0-3,0.5-3,3v39.5H-355V76.1h5.2c2.6,0,3-0.5,3-3c0-10.8,0-21.5,0-32.3c0-1.2-0.2-2.2-1.2-2.9h-28.8
			c-0.2,0.2-0.6,0.4-0.7,0.7c-0.2,0.7-0.5,1.6-0.2,2c0.2,0.3,0.5,0.6,0.9,0.7c0.3,0.2,0.7,0.3,1.1,0.3c5.1,0.1,10.1,0,15.2,0h1.5
			v76.6h-30.3V41.9c1.2,0,2.3,0,3.5,0c1.1,0,2.1-0.1,2.6-1.2c0.5-1.2-0.2-1.9-1-2.6h-7.7c-1.1,0.6-1.3,1.6-1.3,2.8
			c0,35,0,70.1,0,105.1v20.8c0,2.3,0.5,2.8,2.9,2.8h6c2.8,0,3.2-0.4,3.2-3.1c0-14.1,0-28.3,0-42.4v-1.7h71.6c0.5,0,0.9,0,1.4,0
			c0.4,0,0.8-0.2,1.2-0.5c0.3-0.3,0.5-0.7,0.5-1.2c0.1-0.4,0-0.9-0.3-1.2c-0.2-0.4-0.6-0.6-1-0.7c-0.5-0.1-1.1-0.2-1.7-0.2
			c-14.7,0-29.5,0-44.2,0h-1.5v-4.4h77.9c0.5,0,0.9,0,1.4,0c1.5-0.1,2.9-0.7,3.9-1.7c1.1-1,1.7-2.4,1.9-3.8c0.1-1.4-0.2-2.8-1-3.9
			s-1.9-2-3.2-2.4c-0.9-0.2-1.8-0.3-2.8-0.3c-25.5,0-50.9,0-76.4,0h-1.7v-4.5h78.1c0.4,0,0.9,0,1.3,0c2.7,0.1,5.3,1.3,7.2,3.2
			c1.9,1.9,3,4.5,3,7.2c0,1.4-0.2,2.7-0.7,4s-1.3,2.4-2.2,3.4c-1,1-2.1,1.8-3.4,2.3s-2.6,0.8-4,0.8c-7.6,0.1-15.1,0-22.6,0
			c-1.9,0-2.8,0.6-2.8,1.9s0.9,2,2.7,2c2.5,0,5,0,7.5,0c0.4,0,0.7,0,1.2,0.1v1.7c0,14.3,0,28.6,0,42.9c0,2,0.6,2.6,2.6,2.6
			c2.2,0,4.4,0,6.6,0c2.5,0,3-0.5,3-3c0-14.2,0-28.4,0-42.7v-1.6c0.8,0,1.3,0,1.9,0c3,0,6-1,8.4-2.8s4.2-4.3,5.1-7.2
			c0.3-0.8,0.5-1.7,0.7-2.6v-3.6C-261.9,105.4-262.1,104.5-262.4,103.7L-262.4,103.7z M-305.6,54.9h20.4v4.3h-20.4V54.9z
			 M-385.2,165.8h-4.2v-43.3h4.2V165.8z M-355.2,42h4.3v30.3h-4.3V42z M-353.7,105.8h76.8c0.4,0,0.9,0,1.3,0.1
			c0.5,0.1,0.9,0.3,1.2,0.7c0.3,0.4,0.5,0.8,0.5,1.3c0.1,0.5,0,0.9-0.3,1.3c-0.2,0.4-0.6,0.7-1,0.8c-0.6,0.2-1.2,0.3-1.8,0.3
			c-25.6,0-51.2,0-76.8,0h-1.4v-4.4C-354.7,105.8-354.2,105.8-353.7,105.8z M-338.5,55h20.4v4.2h-20.4V55z M-318.1,93.5h-20.4V63.3
			h20.4V93.5z M-281.7,165.7h-4.3v-43.2h4.3V165.7z M-301.4,80.2c0.1,1.2,0.7,2.3,1.6,3.1c0.9,0.8,2.1,1.2,3.3,1.2
			c3.6,0,7.2-3.6,7.2-7.2c0.1-1.2-0.3-2.4-1.1-3.3c-0.8-0.9-1.8-1.5-3-1.6C-297.5,71.7-301.9,76-301.4,80.2L-301.4,80.2z
			 M-296.8,80.6c-0.2-0.2-0.7-0.6-0.7-1.1c-0.2-1.5,1.8-3.5,3.3-3.3c0.2,0.1,0.5,0.2,0.7,0.4c0.2,0.2,0.3,0.4,0.4,0.7
			C-293,78.7-294.9,80.6-296.8,80.6L-296.8,80.6z M-367.9,109.9c0,0.5,0.2,1,0.6,1.3s0.8,0.5,1.3,0.5c1.1-0.1,1.8-0.7,1.9-1.8
			c0.1-1.3,0.1-2.6,0-4c-0.1-1.1-0.8-1.7-1.9-1.7c-0.2,0-0.5,0-0.7,0.1s-0.4,0.2-0.6,0.4c-0.2,0.2-0.3,0.4-0.4,0.6s-0.2,0.5-0.2,0.7
			c0,0.6,0,1.2,0,1.8C-367.9,108.6-367.9,109.3-367.9,109.9L-367.9,109.9z"/>
	</g>
	<g>
		<defs>
			<rect id="SVGID_00000034047665992732203900000012846363468228274850_" x="0" y="0" width="272.4" height="292.5"/>
		</defs>
		<clipPath id="SVGID_00000095327273672634818490000009543659119036384430_">
			<use xlink:href="#SVGID_00000034047665992732203900000012846363468228274850_"  style="overflow:visible;"/>
		</clipPath>
		<path style="clip-path:url(#SVGID_00000095327273672634818490000009543659119036384430_);fill:#6A3834;" d="M-120.8,248.5
			c-1.2,0-2.4,0.4-3.4,1c-1,0.7-1.8,1.6-2.2,2.7c-0.4,1.1-0.6,2.3-0.3,3.5c0.2,1.2,0.8,2.3,1.7,3.1c0.9,0.8,1.9,1.4,3.1,1.7
			c1.2,0.2,2.4,0.1,3.5-0.3c1.1-0.5,2.1-1.2,2.7-2.2c0.7-1,1-2.2,1-3.4c0-0.8-0.1-1.6-0.4-2.3s-0.8-1.4-1.3-2c-0.6-0.6-1.2-1-2-1.3
			C-119.2,248.7-120,248.5-120.8,248.5L-120.8,248.5z M-120.7,256.8c-0.3,0-0.6,0-0.9-0.1s-0.5-0.3-0.7-0.5
			c-0.2-0.2-0.4-0.5-0.5-0.7c-0.1-0.3-0.2-0.6-0.2-0.9c0-0.6,0.3-1.1,0.7-1.5c0.4-0.4,1-0.6,1.5-0.6c0.6,0,1.1,0.2,1.5,0.6
			c0.4,0.4,0.7,0.9,0.7,1.5c0,0.3,0,0.6-0.1,0.8c-0.1,0.3-0.3,0.5-0.5,0.7s-0.4,0.4-0.7,0.5C-120.1,256.7-120.4,256.8-120.7,256.8
			L-120.7,256.8z M-107.9,224.1c8.7-0.2,17.2-8.8,17.1-17.6c0-6.8-5.3-11.5-12.1-10.6c-7.6,1-14.2,7-15.8,14.5
			C-120.4,218.1-115.5,224.2-107.9,224.1L-107.9,224.1z M-101.7,199.7c4.3-0.1,7.1,2.7,7.1,7c0,6.6-6.9,13.5-13.4,13.6
			c-4.4,0.1-7.2-2.8-7.1-7.1C-115.1,206.6-108.2,199.8-101.7,199.7L-101.7,199.7z M-46.4,260.7c1.2,0,2.4-0.4,3.4-1
			c1-0.7,1.8-1.6,2.2-2.7c0.5-1.1,0.6-2.3,0.3-3.5c-0.2-1.2-0.8-2.3-1.7-3.1c-0.8-0.9-1.9-1.4-3.1-1.7c-1.2-0.2-2.4-0.1-3.5,0.3
			c-1.1,0.5-2.1,1.2-2.7,2.2c-0.7,1-1,2.2-1,3.4c0,0.8,0.1,1.6,0.4,2.3c0.3,0.7,0.7,1.4,1.3,2s1.2,1,2,1.3S-47.2,260.7-46.4,260.7
			L-46.4,260.7z M-46.5,252.4c0.6,0,1.1,0.2,1.5,0.7c0.4,0.4,0.7,1,0.7,1.5c0,0.3-0.1,0.6-0.2,0.8c-0.1,0.3-0.3,0.5-0.5,0.7
			s-0.4,0.4-0.7,0.5s-0.5,0.2-0.8,0.2s-0.6,0-0.8-0.1c-0.3-0.1-0.5-0.2-0.7-0.4c-0.2-0.2-0.4-0.4-0.5-0.7s-0.2-0.5-0.2-0.8
			s0-0.6,0.1-0.9c0.1-0.3,0.3-0.5,0.5-0.8c0.2-0.2,0.5-0.4,0.7-0.5C-47.1,252.5-46.8,252.4-46.5,252.4L-46.5,252.4z M-105,233.7
			c4.7,0,9.3-1.4,13.2-4s7-6.3,8.8-10.6s2.3-9.1,1.4-13.7c-0.9-4.6-3.2-8.8-6.5-12.2c-3.3-3.3-7.5-5.6-12.1-6.5s-9.4-0.5-13.7,1.3
			c-4.3,1.8-8.1,4.8-10.7,8.7s-4,8.5-4,13.2c0,6.3,2.5,12.3,6.9,16.7C-117.3,231.1-111.2,233.6-105,233.7L-105,233.7z M-104.8,190.1
			c3.9,0,7.8,1.2,11,3.4c3.3,2.2,5.8,5.3,7.3,8.9s1.9,7.6,1.1,11.5s-2.7,7.4-5.5,10.2s-6.3,4.6-10.2,5.4c-3.9,0.8-7.8,0.3-11.5-1.2
			c-3.6-1.5-6.7-4.1-8.9-7.4c-2.2-3.3-3.3-7.1-3.3-11.1c0-2.6,0.5-5.2,1.5-7.6c1-2.4,2.5-4.6,4.3-6.4c1.8-1.8,4.1-3.3,6.5-4.3
			C-110,190.6-107.4,190.1-104.8,190.1L-104.8,190.1z M-55.3,224.7c-1,0.1-1.7,0.8-1.6,1.9c0,1.1,0.8,1.8,1.9,1.8c0.9,0,1.7,0,2.6,0
			c0.8,0,1.8,0,2.7,0c0.2,0,0.5,0,0.7-0.1s0.4-0.2,0.6-0.4s0.3-0.4,0.4-0.6c0.1-0.2,0.1-0.5,0.1-0.7c0.1-1.1-0.5-1.9-1.6-2
			C-51.5,224.6-53.4,224.6-55.3,224.7z M-109.4,215.4c0.8,0.7,1.8,0.6,2.5-0.2c0.5-0.6,0.8-1.5,1.3-2.2c0.4-0.5,0.8-1.1,1.3-1.3
			c1.4-0.5,2.5-1.3,3.2-2.7c0.4-0.8,0.8-1.6,1.1-2.4c0.6-1.3-0.4-2.7-2-2.7c-1.3,0.2-1.9,1.3-2.3,2.6c-0.1,0.4-0.3,0.7-0.6,1
			c-0.3,0.3-0.6,0.5-1,0.6c-0.7,0.2-1.3,0.6-1.9,1c-0.5,0.5-1,1.1-1.2,1.8c-0.3,0.6-0.5,1.2-0.8,1.8
			C-110.3,213.9-110.2,214.7-109.4,215.4L-109.4,215.4z M-19.3,228.1c1.2,0.4,2-0.3,2.5-1.2v-26.7c-0.1-0.1-0.2-0.1-0.2-0.2
			c-2.1-8.6-7.3-12.7-16.1-12.7h-28.4c0-4.4,0-8.6,0-12.8c0-2.2-0.6-2.8-2.8-2.8c-17.5,0-35.1,0-52.6,0c-0.4,0-0.9,0-1.3,0.1
			c-1,0.3-1.6,0.9-1.5,1.9c0,1.1,0.7,1.6,1.7,1.8c0.4,0,0.9,0.1,1.3,0h51.2v68.8c-0.1,0-0.2,0.1-0.3,0.1c-12.8,0-25.6,0-38.4,0
			c-0.3,0-0.5-0.1-0.7-0.2c-0.2-0.1-0.4-0.3-0.6-0.5c-7.9-10.4-22.6-10.4-30.5,0c-0.2,0.3-0.5,0.7-0.8,0.7c-2.6,0.1-5.1,0-7.6,0
			v-68.9h1.5c5.3,0,10.5,0,15.8,0c0.4,0,0.8-0.1,1.1-0.3c0.4-0.2,0.7-0.4,0.9-0.7c1-1.3-0.2-2.9-2.1-2.9c-6.2,0-12.5,0-18.8,0
			c-1.8,0-2.4,0.7-2.4,2.5c0,26.6,0,53.2,0,79.8c0,1.9,0.6,2.5,2.6,2.5c2.1,0,4.2,0,6.2,0c1.7,11.2,10.6,16.8,18.4,16.9
			c4.2,0.1,8.2-1.2,11.5-3.7c4.4-3.3,6.9-7.7,7.7-13.2h22.4c0.4,0,0.8,0,1.2,0c1.1-0.1,1.9-0.8,1.9-1.8c0-0.5-0.2-1-0.5-1.3
			c-0.3-0.4-0.8-0.6-1.3-0.6c-0.4,0-0.8,0-1.2,0H-102c-0.3-1.6-0.6-3-1-4.3h38.6c-0.3,1.5-0.7,2.9-1,4.3c-1.3,0-2.5,0-3.8,0
			c-1.4,0-2.2,0.7-2.2,1.9s0.8,1.9,2.2,1.9c1.3,0,2.5,0,3.8,0c1.7,11.2,10.7,16.8,18.4,16.9c4.2,0.1,8.2-1.2,11.5-3.7
			c4.4-3.3,6.9-7.7,7.6-13.2c2.9,0,5.6,0,8.4,0c1.2,0,2-0.3,2.5-1.4v-20.6c-0.7-0.8-1.4-1.6-2.6-1.1s-1.3,1.5-1.3,2.5
			c0,2.7,0,5.4,0,8.2c-0.2,0.1-0.5,0.1-0.7,0.1c-2.8,0-5.7,0-8.5,0c-0.2,0-0.5-0.1-0.7-0.2c-0.2-0.1-0.4-0.2-0.6-0.4
			c-7.2-10.1-22-10.6-29.9-1.1c-0.1,0.1-0.3,0.2-0.4,0.3V191h1.4c9.2,0,18.3,0,27.5,0c7.3,0,11.8,4.6,11.8,11.9c0,7.6,0,15.2,0,22.7
			C-20.6,226.8-20.4,227.8-19.3,228.1L-19.3,228.1z M-139.5,252.6h-4.9v-4.2h5.9C-138.9,249.7-139.2,251.1-139.5,252.6L-139.5,252.6
			z M-120.9,269.6c-3.9-0.1-7.6-1.8-10.3-4.6c-2.7-2.8-4.2-6.5-4.2-10.4s1.6-7.6,4.3-10.4c2.7-2.8,6.4-4.4,10.3-4.5
			c8.2,0,15,6.8,14.9,15c0,4-1.7,7.7-4.5,10.5C-113.1,268-116.9,269.6-120.9,269.6L-120.9,269.6z M-20.7,248.3v4.3h-7l-1-4.3H-20.7z
			 M-46.5,239.7c2.9,0,5.8,0.9,8.3,2.5s4.4,4,5.5,6.7c1.1,2.7,1.4,5.7,0.9,8.6c-0.6,2.9-2,5.6-4.1,7.7s-4.7,3.5-7.6,4.1
			c-2.9,0.6-5.9,0.3-8.6-0.8c-2.7-1.1-5.1-3-6.7-5.5c-1.7-2.5-2.5-5.3-2.6-8.3c0-4,1.6-7.8,4.4-10.6
			C-54.3,241.3-50.5,239.7-46.5,239.7L-46.5,239.7z M-27.7,220.2c2,0,2.6-0.7,2.6-2.6c0-4.8,0-9.6,0-14.4c0-4.7-3-7.6-7.7-7.6
			c-7.2,0-14.4,0-21.6,0c-2.1,0-2.6,0.6-2.6,2.7c0,6.4,0,12.9,0,19.3c0,2.1,0.6,2.7,2.7,2.7c4.4,0,8.8,0,13.2,0
			C-36.6,220.2-32.1,220.2-27.7,220.2L-27.7,220.2z M-53,199.4h1.3c6.3,0,12.6,0,18.9,0c2.7,0,4,1.2,4,4c0,3.9,0,7.8,0,11.7
			c0,0.4,0,0.7-0.1,1.2H-53V199.4z"/>
	</g>
	<g>
		<defs>
			<rect id="SVGID_00000100377594406716080680000010810013340333513914_" x="0" y="0" width="272.4" height="292.5"/>
		</defs>
		<clipPath id="SVGID_00000095309770673872429500000011440376671711222457_">
			<use xlink:href="#SVGID_00000100377594406716080680000010810013340333513914_"  style="overflow:visible;"/>
		</clipPath>
		<path style="clip-path:url(#SVGID_00000095309770673872429500000011440376671711222457_);fill:#6A3834;" d="M170.1,119.5
			c5.2-6.5,1.1-14.6-5.3-16.3c-2.2-0.6-4.3-1.2-6.4-1.8c-1.1-0.3-2.1-0.8-2.9-1.6c-0.8-0.8-1.4-1.7-1.8-2.8
			c-0.8-2.1-1.7-4.1-2.5-6.2c-3.1-7.5-11.9-8.9-17.2-2.8c-5.9,6.8-6.9,17.1-2.4,25.1c4,7.2,10,11.8,18,13.8c1.4,0.3,2.9,0.4,4.1,0.5
			C160.4,127.1,166,124.7,170.1,119.5z M158.8,123c-5.2,1.5-10.1,0.6-14.6-2.1c-7-4.1-11.2-10.1-11.8-17.2c0.1-5.8,1.4-9.9,4.5-13.4
			c3.3-3.8,8.8-2.9,10.7,1.7c0.8,2,1.7,3.9,2.4,6c1.4,4,4.2,6.2,8.2,7.2c2.1,0.5,4.2,1.1,6.3,1.8c4.3,1.6,5.7,6.6,2.8,10.2
			C165.1,120.1,162.1,122.1,158.8,123L158.8,123z M209.3,46.2h-54.6c0-2,0-3.9,0-5.8c0-1.7-0.8-2.4-2.4-2.4c-8,0-15.9,0-23.9,0
			c-1.7,0-2.4,0.7-2.5,2.4c0,1.9,0,3.8,0,5.8c-3.2,0-6.3,0-9.4,0c-2.3,0-2.9,0.6-2.9,3v109.3c0,2.4,0.6,3,3,3h92.8
			c2.4,0,3-0.6,3-2.9V49.2C212.4,46.8,211.8,46.2,209.3,46.2z M203.4,50.4c-1.9,1.3-3.5,2.4-5.2,3.4c-0.1,0-0.2,0.1-0.3,0
			c-0.1,0-0.2,0-0.3-0.1c-1.6-1.1-3.2-2.1-5.1-3.4L203.4,50.4L203.4,50.4z M146.6,42.2h4v4h-4V42.2z M138.4,42.2h4v4h-4V42.2z
			 M130.1,42.2h4v4h-4V42.2z M117.8,50.5h65.7v15c-5.7,2.6-12,3.8-18.2,3.3c-4.9-0.4-9.6-1.8-14-3.9c-10.7-5.1-21.6-5.6-32.7-1.5
			c-0.2,0.1-0.5,0.1-0.8,0.2V50.5z M183.5,157.3h-65.8v-1.4c0-28.8,0-57.6,0-86.4c0-1.1,0.3-1.5,1.3-1.9c10.2-4.1,20.2-3.9,30.1,0.8
			c6.4,3,13,4.8,20.1,4.6c4.3-0.1,8.6-0.9,12.7-2.4c0.5-0.2,1-0.3,1.6-0.5L183.5,157.3z M187.7,52.2c1.4,0.9,2.7,1.7,3.9,2.6
			c1.4,1,3.3,1.7,4.1,3c0.7,1.3,0.2,3.3,0.2,4.9c0,28.6,0,57.2,0,85.8c0,1.2-0.4,1.9-1.4,2.6c-2.2,1.4-4.4,2.9-6.8,4.5V52.2z
			 M192.6,157.2c1.8-1.2,3.4-2.3,5-3.3c0.1-0.1,0.3-0.1,0.4-0.1c0.2,0,0.3,0,0.5,0.1c1.6,1,3.1,2.1,4.9,3.3H192.6z M208.2,155.5
			c-2.7-1.8-5.2-3.5-7.8-5.2c-0.2-0.2-0.3-0.5-0.4-0.7c0-0.3,0-0.7,0-1c0-29.8,0-59.6,0-89.3c0-1.2,0.4-1.8,1.4-2.4
			c2.3-1.4,4.5-3,6.8-4.5V155.5z M175,138.8c-2.6,0-5.2,0-7.8,0s-5.2,0-7.8,0c-1.7,0-2.4,0.8-2.4,2.4c0,2.5,0,5,0,7.5
			c0,1.7,0.8,2.4,2.4,2.4c5.2,0,10.4,0,15.7,0c1.7,0,2.4-0.8,2.4-2.4c0-2.5,0-5,0-7.5C177.4,139.6,176.6,138.8,175,138.8L175,138.8z
			 M173.2,147H161v-4h12.2V147z M139.9,147.1c-4.5,0-9,0-13.5,0c-1.5,0-2.5,0.7-2.5,2c0,1.2,0.9,2.1,2.5,2.1c2.2,0,4.5,0,6.7,0
			s4.5,0,6.8,0c1.5,0,2.5-0.8,2.5-2C142.5,147.9,141.5,147.1,139.9,147.1L139.9,147.1z M140,138.8c-4.5,0-9.1,0-13.6,0
			c-1.5,0-2.4,0.8-2.4,2.1c0,1.2,0.9,2,2.5,2c2.2,0,4.5,0,6.7,0s4.5,0,6.8,0c1.6,0,2.5-0.8,2.5-2.1
			C142.4,139.5,141.5,138.8,140,138.8L140,138.8z M140.8,94.2c-0.9-0.7-2-0.4-2.8,0.8c-1.8,2.7-2.6,5.6-2.7,9.5
			c0.1,0.7,0.2,2.1,0.5,3.4c0.2,1.4,1.1,1.9,2.2,1.7c1-0.2,1.5-1.1,1.4-2.4c-0.1-2-0.3-4,0-6c0.2-1.5,1-2.9,1.7-4.2
			C141.7,95.8,141.7,94.8,140.8,94.2L140.8,94.2z"/>
	</g>
	<g>
		<defs>
			<rect id="SVGID_00000056406447229469104350000006307783286258254512_" x="0" y="0" width="272.4" height="292.5"/>
		</defs>
		<clipPath id="SVGID_00000119809600522927832660000002642292720929602736_">
			<use xlink:href="#SVGID_00000056406447229469104350000006307783286258254512_"  style="overflow:visible;"/>
		</clipPath>
		
			<circle style="clip-path:url(#SVGID_00000119809600522927832660000002642292720929602736_);fill:#6A3834;" cx="-1796.9" cy="248.5" r="27.5"/>
	</g>
	<g>
		<defs>
			<rect id="SVGID_00000168820394687603661600000003614916045146460837_" x="0" y="0" width="272.4" height="292.5"/>
		</defs>
		<clipPath id="SVGID_00000090252208057552295720000010547938556373445548_">
			<use xlink:href="#SVGID_00000168820394687603661600000003614916045146460837_"  style="overflow:visible;"/>
		</clipPath>
		<path style="clip-path:url(#SVGID_00000090252208057552295720000010547938556373445548_);fill:#D0F4A5;" d="M-1792.9,231.9
			c-0.3-0.2-0.9-0.4-1.2-0.4c-1.2,0-2.1,1-2.1,1l-6.7,13.1c-0.2,0.5-0.4,1-0.4,1.4c0,1.2,1.2,1.3,2,1.3c0.1,0,0.2,0,0.3,0
			c0.6-0.4,4.9-8.8,5.1-9.3c0,0.2-1,19.5-1,24.3c0,0.2,0,0.4,0,0.6c0.1,0.8,0.3,1.2,1.2,1.2c1.2,0,2.6-1.1,2.6-1.1s0.5-19.4,0.5-28
			C-1792.6,233.5-1792.6,232.1-1792.9,231.9z"/>
	</g>
	<g>
		<defs>
			<rect id="SVGID_00000155846020065648767980000015102027148821328552_" x="0" y="0" width="272.4" height="292.5"/>
		</defs>
		<clipPath id="SVGID_00000160150173620037357200000001859312164692784806_">
			<use xlink:href="#SVGID_00000155846020065648767980000015102027148821328552_"  style="overflow:visible;"/>
		</clipPath>
		
			<circle style="clip-path:url(#SVGID_00000160150173620037357200000001859312164692784806_);fill:#6A3834;" cx="-1551.9" cy="65.5" r="27.5"/>
	</g>
	<g>
		<defs>
			<rect id="SVGID_00000075867374203003801880000006573008625155555501_" x="0" y="0" width="272.4" height="292.5"/>
		</defs>
		<clipPath id="SVGID_00000036236445543953538780000014632382573517769646_">
			<use xlink:href="#SVGID_00000075867374203003801880000006573008625155555501_"  style="overflow:visible;"/>
		</clipPath>
		<path style="clip-path:url(#SVGID_00000036236445543953538780000014632382573517769646_);fill:#D0F4A5;" d="M-1557.3,57.9
			c0.3,0.4,0.8,0.6,1.2,0.6c2,0,1.9-2.2,1.9-2.2c0.2-4,1.6-4.5,2.3-4.5c1.6,0,2.1,1.7,2.1,3.4c0,3.5-1.8,8.6-5.1,15
			c-1.1,2-4.3,7.3-4.3,9.3c0.1,1.3,1.2,2.2,2.3,2.2c0.3,0,1.9,0,3.2,0c2.2,0,4.8-0.1,6.1-0.1c0.8,0,1.7-0.5,1.7-1.8
			c0-1.2-0.7-1.5-1.8-1.5h-0.4c-0.6,0-1.9,0-6.7,0l4.3-8.9c1-1.8,4.4-8.5,4.4-14.2c0-5.3-3.4-6.5-5.4-6.5c-5.3,0-6.1,4.3-6.1,7
			C-1557.7,56.6-1557.4,57.7-1557.3,57.9z"/>
	</g>
	<g>
		<defs>
			<rect id="SVGID_00000182488920542722679440000012695223483700533635_" x="0" y="0" width="272.4" height="292.5"/>
		</defs>
		<clipPath id="SVGID_00000028295118035135087300000009867384974083997879_">
			<use xlink:href="#SVGID_00000182488920542722679440000012695223483700533635_"  style="overflow:visible;"/>
		</clipPath>
		
			<circle style="clip-path:url(#SVGID_00000028295118035135087300000009867384974083997879_);fill:#6A3834;" cx="-1061.9" cy="65.5" r="27.5"/>
	</g>
	<g>
		<defs>
			<rect id="SVGID_00000152964056698605945510000017977399807286036664_" x="0" y="0" width="272.4" height="292.5"/>
		</defs>
		<clipPath id="SVGID_00000081630577545111038880000005625735560058225335_">
			<use xlink:href="#SVGID_00000152964056698605945510000017977399807286036664_"  style="overflow:visible;"/>
		</clipPath>
		<path style="clip-path:url(#SVGID_00000081630577545111038880000005625735560058225335_);fill:#D0F4A5;" d="M-1061.2,52.9l0.8-2.4
			c-0.2-1.1-0.9-1.6-2-1.6c-0.2,0-0.3,0-0.9,0.1c-0.5,1.3-3.2,8.5-6.6,18.6l-0.2,1.1c0,2,0.7,2,2.8,2h2.4c1.3,0,2.8,0,3.9,0
			c-0.1,3.7-0.2,6.9-0.2,10.5c0.2,1.1,0.7,1.1,1.2,1.1c2.1,0,2.2-1.3,2.3-2.8c0-2.9,0.2-6,0.2-8.9h1.2c1.1,0,1.7-0.1,2.2-0.7
			c0.3-0.4,0.5-0.8,0.5-1.2c0-1-0.8-1.2-1.5-1.2h-2.2V57.3c-0.5-0.2-0.8-0.3-1-0.3c-1.1,0-1.9,0.5-2.2,1.9c-0.4,2.1-0.4,3.9-0.5,5.7
			c0,0.9,0,1.8,0,2.7h-5.5C-1065.1,64.4-1062.9,57.9-1061.2,52.9z"/>
	</g>
	<g>
		<defs>
			<rect id="SVGID_00000044149972466501975310000014921608838726337922_" x="0" y="0" width="272.4" height="292.5"/>
		</defs>
		<clipPath id="SVGID_00000114067155769515605720000017616017018107729822_">
			<use xlink:href="#SVGID_00000044149972466501975310000014921608838726337922_"  style="overflow:visible;"/>
		</clipPath>
		
			<circle style="clip-path:url(#SVGID_00000114067155769515605720000017616017018107729822_);fill:#6A3834;" cx="-571.9" cy="65.5" r="27.5"/>
	</g>
	<g>
		<defs>
			<rect id="SVGID_00000125597839910728828790000001542234055120755603_" x="0" y="0" width="272.4" height="292.5"/>
		</defs>
		<clipPath id="SVGID_00000121983611082903367080000009965166004148880009_">
			<use xlink:href="#SVGID_00000125597839910728828790000001542234055120755603_"  style="overflow:visible;"/>
		</clipPath>
		<path style="clip-path:url(#SVGID_00000121983611082903367080000009965166004148880009_);fill:#D0F4A5;" d="M-565.5,54.5
			c0-2.2-0.8-6-5.5-6c-6.2,0-6.9,6.1-6.9,13.4v8c0,5.9,0.6,11.8,5.6,11.8c7.1,0,7.4-6,7.4-11.3c0-6.8-2.4-9.2-6.3-9.2
			c-0.9,0-1.9,0.1-3,0.6V61c0-2,0.3-9.6,3.2-10c0,0,1.9,0.3,1.9,3.6v0.8c0,0,1.3,1.2,2.3,1.2C-565.6,56.5-565.5,55.2-565.5,54.5z
			 M-571.4,64c2.6,0.2,2.6,3.4,2.6,7.8c0,2-0.3,7.3-2.9,7.3c-1.7,0-2.7-4.2-2.7-11.2c0-0.8,0-1.7,0-2.7
			C-573.5,64.6-572.6,64-571.4,64z"/>
	</g>
	<g>
		<defs>
			<rect id="SVGID_00000158024106605023267150000001576503448880820401_" x="0" y="0" width="272.4" height="292.5"/>
		</defs>
		<clipPath id="SVGID_00000044165793333923047440000017646144479157310135_">
			<use xlink:href="#SVGID_00000158024106605023267150000001576503448880820401_"  style="overflow:visible;"/>
		</clipPath>
		
			<circle style="clip-path:url(#SVGID_00000044165793333923047440000017646144479157310135_);fill:#6A3834;" cx="-81.9" cy="65.5" r="27.5"/>
	</g>
	<g>
		<defs>
			<rect id="SVGID_00000044856502945267816950000009776427259389867154_" x="0" y="0" width="272.4" height="292.5"/>
		</defs>
		<clipPath id="SVGID_00000096780501058966025520000009811226911013975972_">
			<use xlink:href="#SVGID_00000044856502945267816950000009776427259389867154_"  style="overflow:visible;"/>
		</clipPath>
		<path style="clip-path:url(#SVGID_00000096780501058966025520000009811226911013975972_);fill:#D0F4A5;" d="M-80.8,48.6
			c-4.1,0-6.7,2.6-6.7,8c0,3.6,0.8,5.8,2.3,7c-2,1.6-2.8,4.4-2.8,7.4c0,5.6,0.6,10.9,5.9,10.9c7.2,0,7.2-6.1,7.2-11.8
			c0-2.6-0.9-5-2.5-6.5c1.7-1.1,2.4-3.4,2.4-7.2C-74.9,51.9-76.7,48.6-80.8,48.6z M-78.6,56v1.5c-0.1,1.3-0.6,4.6-2.6,4.6
			c-1.4,0-2.4-1.5-2.4-5.9c0-3.8,1.2-5,2.8-5C-78.9,51.2-78.6,53.9-78.6,56z M-81.7,79.2c-2.2,0-2.4-4.8-2.4-8.8
			c0-4.2,1.3-5.5,2.8-5.5c2.3,0,2.7,3.6,2.7,6C-78.5,76.6-79.6,79.2-81.7,79.2z"/>
	</g>
	<g>
		<defs>
			<rect id="SVGID_00000058560730026732805370000005784669500229295236_" x="0" y="0" width="272.4" height="292.5"/>
		</defs>
		<clipPath id="SVGID_00000094577644913512393670000009450239198527253377_">
			<use xlink:href="#SVGID_00000058560730026732805370000005784669500229295236_"  style="overflow:visible;"/>
		</clipPath>
		
			<circle style="clip-path:url(#SVGID_00000094577644913512393670000009450239198527253377_);fill:#6A3834;" cx="-1306.9" cy="248.5" r="27.5"/>
	</g>
	<g>
		<defs>
			<rect id="SVGID_00000011715414485530972260000007722836326682932395_" x="0" y="0" width="272.4" height="292.5"/>
		</defs>
		<clipPath id="SVGID_00000085961544904630446880000003767164489094997659_">
			<use xlink:href="#SVGID_00000011715414485530972260000007722836326682932395_"  style="overflow:visible;"/>
		</clipPath>
		<path style="clip-path:url(#SVGID_00000085961544904630446880000003767164489094997659_);fill:#D0F4A5;" d="M-1312,238.5
			c0.2,0.3,0.5,0.4,0.9,0.4c0.6,0,2.3-0.6,2.3-1.5c0-1.2,0.4-3.5,2-3.5c1.3,0,1.8,2.1,1.8,3.9c0,5.3-1.4,6.2-2.2,6.7
			c-0.2,0-0.5,0-0.8,0c-1,0-1.9,0-1.9,1.6c0,0.9,0.3,1.4,1.3,1.4c3.3,0,4,3.1,4,6.1v0.9c0,3.2-0.5,7.8-2.8,7.8
			c-1.8,0-1.8-1.7-1.8-3.2c0-1.2,0-2.4-0.7-2.9c-0.3-0.3-0.7-0.4-1.1-0.4c-1.2,0-2.1,1.1-2.1,1.1c0,6.2,1.5,8.1,5.9,8.1
			c5.4,0,6.5-4.8,6.5-12.5c0-4.4-1.9-6-3.2-6.6c1.8-1.2,2.6-4.3,2.6-7.2c0-3.4-0.7-7.6-5.1-7.6c-4.7,0-5.7,3.5-5.7,5.5
			C-1312.3,237.6-1312.1,238.3-1312,238.5z"/>
	</g>
	<g>
		<defs>
			<rect id="SVGID_00000123419243082174147300000010451856691824153484_" x="0" y="0" width="272.4" height="292.5"/>
		</defs>
		<clipPath id="SVGID_00000106835723374660939890000011400244366266089899_">
			<use xlink:href="#SVGID_00000123419243082174147300000010451856691824153484_"  style="overflow:visible;"/>
		</clipPath>
		
			<circle style="clip-path:url(#SVGID_00000106835723374660939890000011400244366266089899_);fill:#6A3834;" cx="-816.9" cy="248.5" r="27.5"/>
	</g>
	<g>
		<defs>
			<rect id="SVGID_00000062173394446333231090000014490353468420776618_" x="0" y="0" width="272.4" height="292.5"/>
		</defs>
		<clipPath id="SVGID_00000042700606261895645100000012593430674891893645_">
			<use xlink:href="#SVGID_00000062173394446333231090000014490353468420776618_"  style="overflow:visible;"/>
		</clipPath>
		<path style="clip-path:url(#SVGID_00000042700606261895645100000012593430674891893645_);fill:#D0F4A5;" d="M-819.9,245.3h0.9
			c4.6,0,4.9,1.7,4.9,7.1v2.9c0,3.6-0.2,6.9-2.8,6.9c-2.1,0-2.6-1.9-2.6-3.6c0-2.6,0-3-1.6-3c-1.5,0-1.8,1.5-1.8,1.5
			c0.1,4.3,0.7,7.9,5.8,7.9c6.4,0,6.6-4.8,6.6-13.9c0-6.6-2.9-7.7-3.8-8.2c-1.1-0.5-2.4-0.8-3.3-0.8h-0.8v-6.9
			c0,0.1,1.7,0.1,3.7,0.1h1.8c0.6,0,1.5-0.8,1.5-1.7c0-1.8-2.7-1.7-3.8-1.7c-3,0-5.4,0.1-6,0.4c-0.6,0.3-0.6,1.5-0.6,1.5l0.1,9.7
			C-821.5,245.2-820.7,245.3-819.9,245.3z"/>
	</g>
	<g>
		<defs>
			<rect id="SVGID_00000158744897912882484650000006271705653423325589_" x="0" y="0" width="272.4" height="292.5"/>
		</defs>
		<clipPath id="SVGID_00000167394762635805612810000007451825183958920616_">
			<use xlink:href="#SVGID_00000158744897912882484650000006271705653423325589_"  style="overflow:visible;"/>
		</clipPath>
		
			<circle style="clip-path:url(#SVGID_00000167394762635805612810000007451825183958920616_);fill:#6A3834;" cx="-326.9" cy="248.5" r="27.5"/>
	</g>
	<g>
		<defs>
			<rect id="SVGID_00000114041413142170036450000007469770865824428696_" x="0" y="0" width="272.4" height="292.5"/>
		</defs>
		<clipPath id="SVGID_00000111175955558842892920000008954846824717197746_">
			<use xlink:href="#SVGID_00000114041413142170036450000007469770865824428696_"  style="overflow:visible;"/>
		</clipPath>
		<path style="clip-path:url(#SVGID_00000111175955558842892920000008954846824717197746_);fill:#D0F4A5;" d="M-331.2,232.2
			l-0.3,0.2c0,0-0.7,0.9-0.7,1.8c0,0.6,0.4,1.2,1.3,1.3c0.4,0.1,1.2,0.1,2.2,0.1c2.5,0,4.1,0,4.8,0l-7.2,27.5
			c-0.1,0.3-0.1,0.6-0.1,0.7c0,0.8,0.5,1.1,1.6,1.1c0.9,0,1.8-0.1,2.3-1.3l7.2-29.3c0,0-0.4-2.1-2.1-2.1c-0.7,0-1.3,0-2,0
			L-331.2,232.2L-331.2,232.2z"/>
	</g>
	<g>
		<defs>
			<rect id="SVGID_00000072257913993786552730000002569042106733968774_" x="0" y="0" width="272.4" height="292.5"/>
		</defs>
		<clipPath id="SVGID_00000041995292831978969620000007145438222490640776_">
			<use xlink:href="#SVGID_00000072257913993786552730000002569042106733968774_"  style="overflow:visible;"/>
		</clipPath>
		
			<circle style="clip-path:url(#SVGID_00000041995292831978969620000007145438222490640776_);fill:#6A3834;" cx="163.1" cy="248.5" r="27.5"/>
	</g>
	<g>
		<defs>
			<rect id="SVGID_00000085952318930323823970000013378651460683558807_" x="0" y="0" width="272.4" height="292.5"/>
		</defs>
		<clipPath id="SVGID_00000001634173742369479290000002442970178887992252_">
			<use xlink:href="#SVGID_00000085952318930323823970000013378651460683558807_"  style="overflow:visible;"/>
		</clipPath>
		<path style="clip-path:url(#SVGID_00000001634173742369479290000002442970178887992252_);fill:#D0F4A5;" d="M157.6,258.8
			c0,2.2,0.7,5.9,5.6,5.9c6.1,0,6.8-6.1,6.8-13.4v-8c0-5.9-0.6-11.8-5.6-11.8c-7.1,0-7.4,6-7.4,11.3c0,6.7,2.4,9.2,6.3,9.2
			c0.9,0,1.9-0.1,2.9-0.6v0.8c0,2,0,10-3,10c-0.3,0-2.1,0-2.1-3.6v-0.8c0,0-1.3-1.2-2.2-1.2C157.7,256.7,157.6,258.1,157.6,258.8z
			 M163.5,249.3c-2.6,0-2.7-3.4-2.7-7.8c0-2,0.3-7.3,2.9-7.3c1.7,0,2.6,4.2,2.6,11.2c0,0.9,0,1.7,0,2.7
			C165.6,248.8,164.6,249.3,163.5,249.3z"/>
	</g>
</g>
</svg>
