<?xml version="1.0" encoding="utf-8"?>
<!-- Generator: Adobe Illustrator 26.0.3, SVG Export Plug-In . SVG Version: 6.00 Build 0)  -->
<svg version="1.1" id="Layer_1" xmlns="http://www.w3.org/2000/svg" xmlns:xlink="http://www.w3.org/1999/xlink" x="0px" y="0px"
	 viewBox="0 0 272.4 292.5" style="enable-background:new 0 0 272.4 292.5;" xml:space="preserve">
<style type="text/css">
	.st0{clip-path:url(#SVGID_00000085238558978192638160000013853769385888715138_);fill:none;stroke:#6A3834;stroke-width:2.5;}
	.st1{clip-path:url(#SVGID_00000174566725656354981070000012806306865739978409_);fill:none;stroke:#6A3834;stroke-width:2.5;}
	.st2{clip-path:url(#SVGID_00000010308161239319377900000002628089155436174219_);fill:none;stroke:#6A3834;stroke-width:2.5;}
	.st3{clip-path:url(#SVGID_00000166660914842857464170000016587535376981788813_);fill:none;stroke:#6A3834;stroke-width:2.5;}
	.st4{clip-path:url(#SVGID_00000018205672620363882860000011938052590277270200_);fill:none;stroke:#6A3834;stroke-width:2.5;}
	.st5{clip-path:url(#SVGID_00000055707613902149204490000000198087425424761228_);fill:none;stroke:#6A3834;stroke-width:2.5;}
	.st6{clip-path:url(#SVGID_00000144319145710203069420000012286218165348558742_);fill:none;stroke:#6A3834;stroke-width:2.5;}
	.st7{clip-path:url(#SVGID_00000114045697156548013630000008250263584423841426_);fill:none;stroke:#6A3834;stroke-width:2.5;}
	.st8{clip-path:url(#SVGID_00000011005902974295342900000005525560577850425990_);fill:#6A3834;}
	.st9{clip-path:url(#SVGID_00000083089846407977411940000013011425880249290373_);fill:#6A3834;}
	.st10{clip-path:url(#SVGID_00000054945301959726429350000004406874024201229702_);fill:#6A3834;}
	.st11{clip-path:url(#SVGID_00000029737726876369622580000008217886599067619463_);fill:#6A3834;}
	.st12{clip-path:url(#SVGID_00000007392569719739777690000012064622162195895448_);fill:#6A3834;}
	.st13{clip-path:url(#SVGID_00000158027740813497391630000009779507574869407905_);fill:#6A3834;}
	.st14{clip-path:url(#SVGID_00000095304450760720706450000010707974304751020957_);fill:#6A3834;}
	.st15{clip-path:url(#SVGID_00000016759898905328068260000008414402732911877793_);fill:#6A3834;}
	.st16{clip-path:url(#SVGID_00000010274537406726318580000012382353305690601128_);fill:#6A3834;}
	.st17{clip-path:url(#SVGID_00000156546941023766302480000010718205415173211042_);fill:#6A3834;}
	.st18{clip-path:url(#SVGID_00000161629578360775667520000008096336726601724602_);fill:#D0F4A5;}
	.st19{clip-path:url(#SVGID_00000121269966795501502180000011964487436924800905_);fill:#6A3834;}
	.st20{clip-path:url(#SVGID_00000067936738601132069590000012317376561110563505_);fill:#D0F4A5;}
	.st21{clip-path:url(#SVGID_00000173139621395080890570000016608334297444939166_);fill:#6A3834;}
	.st22{clip-path:url(#SVGID_00000034048397621567590100000016439772035553168563_);fill:#D0F4A5;}
	.st23{clip-path:url(#SVGID_00000136401657922238533440000005468336908909397892_);fill:#6A3834;}
	.st24{clip-path:url(#SVGID_00000027585716288144011440000012598958904227997374_);fill:#D0F4A5;}
	.st25{clip-path:url(#SVGID_00000076569434161988129260000017578168373213827227_);fill:#6A3834;}
	.st26{clip-path:url(#SVGID_00000017510056751283719270000000302020443352796309_);fill:#D0F4A5;}
	.st27{clip-path:url(#SVGID_00000078005312174807215420000002808069303107309203_);fill:#6A3834;}
	.st28{clip-path:url(#SVGID_00000179625955152938287070000000535487157320078210_);fill:#D0F4A5;}
	.st29{clip-path:url(#SVGID_00000131339046405594745840000001895754583836716476_);fill:#6A3834;}
	.st30{clip-path:url(#SVGID_00000057832276506794060770000001674652035219909253_);fill:#D0F4A5;}
	.st31{clip-path:url(#SVGID_00000151540186914824982810000007711887581564116372_);fill:#6A3834;}
	.st32{clip-path:url(#SVGID_00000067943321131937260950000012304041689945813946_);fill:#D0F4A5;}
	.st33{clip-path:url(#SVGID_00000150085328578431041540000007166137667015026098_);fill:#6A3834;}
	.st34{clip-path:url(#SVGID_00000176759764318900068170000015049011178278476973_);fill:#D0F4A5;}
</style>
<g>
	<g>
		<defs>
			<rect id="SVGID_1_" x="0" y="0" width="272.4" height="292.5"/>
		</defs>
		<clipPath id="SVGID_00000064317013564704243990000017230397582413481876_">
			<use xlink:href="#SVGID_1_"  style="overflow:visible;"/>
		</clipPath>
	</g>
	<g>
		<defs>
			<rect id="SVGID_00000093144966152286458890000013148994731181346948_" x="0" y="0" width="272.4" height="292.5"/>
		</defs>
		<clipPath id="SVGID_00000166655232784757965180000008070813061186675867_">
			<use xlink:href="#SVGID_00000093144966152286458890000013148994731181346948_"  style="overflow:visible;"/>
		</clipPath>
		
			<path style="clip-path:url(#SVGID_00000166655232784757965180000008070813061186675867_);fill:none;stroke:#6A3834;stroke-width:2.5;" d="
			M-679.9,250c110.8,0,85.5-184,190-184"/>
	</g>
	<g>
		<defs>
			<rect id="SVGID_00000091693871185865839060000009860768531489861820_" x="0" y="0" width="272.4" height="292.5"/>
		</defs>
		<clipPath id="SVGID_00000158732380421844673010000014683806377716363681_">
			<use xlink:href="#SVGID_00000091693871185865839060000009860768531489861820_"  style="overflow:visible;"/>
		</clipPath>
		
			<path style="clip-path:url(#SVGID_00000158732380421844673010000014683806377716363681_);fill:none;stroke:#6A3834;stroke-width:2.5;" d="
			M-189.9,250c110.8,0,85.5-184,190-184"/>
	</g>
	<g>
		<defs>
			<rect id="SVGID_00000183960847097659059260000006579241822637402497_" x="0" y="0" width="272.4" height="292.5"/>
		</defs>
		<clipPath id="SVGID_00000052079688362270645690000005846128228118375834_">
			<use xlink:href="#SVGID_00000183960847097659059260000006579241822637402497_"  style="overflow:visible;"/>
		</clipPath>
		
			<path style="clip-path:url(#SVGID_00000052079688362270645690000005846128228118375834_);fill:none;stroke:#6A3834;stroke-width:2.5;" d="
			M300.1,250c110.8,0,85.5-184,190-184"/>
	</g>
	<g>
		<defs>
			<rect id="SVGID_00000007399484301090646690000006304061989263177105_" x="0" y="0" width="272.4" height="292.5"/>
		</defs>
		<clipPath id="SVGID_00000035532673754436903710000002239364679832870798_">
			<use xlink:href="#SVGID_00000007399484301090646690000006304061989263177105_"  style="overflow:visible;"/>
		</clipPath>
		
			<path style="clip-path:url(#SVGID_00000035532673754436903710000002239364679832870798_);fill:none;stroke:#6A3834;stroke-width:2.5;" d="
			M245.1,250c-110.8,0-85.5-184-190-184"/>
	</g>
	<g>
		<defs>
			<rect id="SVGID_00000019659119221640098590000013703139826832750498_" x="0" y="0" width="272.4" height="292.5"/>
		</defs>
		<clipPath id="SVGID_00000001623537691715428370000014293066501144132272_">
			<use xlink:href="#SVGID_00000019659119221640098590000013703139826832750498_"  style="overflow:visible;"/>
		</clipPath>
		
			<path style="clip-path:url(#SVGID_00000001623537691715428370000014293066501144132272_);fill:none;stroke:#6A3834;stroke-width:2.5;" d="
			M-244.9,250c-110.8,0-85.5-184-190-184"/>
	</g>
	<g>
		<defs>
			<rect id="SVGID_00000011747902166781610830000004534449820469347253_" x="0" y="0" width="272.4" height="292.5"/>
		</defs>
		<clipPath id="SVGID_00000141454251315888244220000015228092708467760575_">
			<use xlink:href="#SVGID_00000011747902166781610830000004534449820469347253_"  style="overflow:visible;"/>
		</clipPath>
		
			<path style="clip-path:url(#SVGID_00000141454251315888244220000015228092708467760575_);fill:none;stroke:#6A3834;stroke-width:2.5;" d="
			M790.1,250c110.8,0,85.5-184,190-184"/>
	</g>
	<g>
		<defs>
			<rect id="SVGID_00000109750380488604137480000012772546284790615175_" x="0" y="0" width="272.4" height="292.5"/>
		</defs>
		<clipPath id="SVGID_00000183957116513064051130000007042088995474574210_">
			<use xlink:href="#SVGID_00000109750380488604137480000012772546284790615175_"  style="overflow:visible;"/>
		</clipPath>
		
			<path style="clip-path:url(#SVGID_00000183957116513064051130000007042088995474574210_);fill:none;stroke:#6A3834;stroke-width:2.5;" d="
			M1225.1,250c-110.8,0-85.5-184-190-184"/>
	</g>
	<g>
		<defs>
			<rect id="SVGID_00000042013172650369040450000010707028665373613237_" x="0" y="0" width="272.4" height="292.5"/>
		</defs>
		<clipPath id="SVGID_00000075161345092124617840000012323213553930998941_">
			<use xlink:href="#SVGID_00000042013172650369040450000010707028665373613237_"  style="overflow:visible;"/>
		</clipPath>
		
			<path style="clip-path:url(#SVGID_00000075161345092124617840000012323213553930998941_);fill:none;stroke:#6A3834;stroke-width:2.5;" d="
			M735.1,250c-110.8,0-85.5-184-190-184"/>
	</g>
	<g>
		<defs>
			<rect id="SVGID_00000018204731482178824250000014820570616435771523_" x="0" y="0" width="272.4" height="292.5"/>
		</defs>
		<clipPath id="SVGID_00000155120845321204186300000008783230710745788597_">
			<use xlink:href="#SVGID_00000018204731482178824250000014820570616435771523_"  style="overflow:visible;"/>
		</clipPath>
		<path style="clip-path:url(#SVGID_00000155120845321204186300000008783230710745788597_);fill:#6A3834;" d="M-659.5,103.1
			c0.3,4.7,2.3,8.6,5.6,11.8c2.3,2.2,5.1,4,7.7,6c0.4,0.3,0.9,0.4,1.4,0.4c4.8-0.1,9.5-0.8,13.8-3c6.9-3.4,10.3-9.2,11.3-16.5
			c0.2-1.3,0.3-2.6,0.3-4c0-1,0.4-1.4,1.3-1.8c0.7-0.2,1.3-0.7,1.7-1.3c0.5-0.9,0-1.8-0.7-2.5c-4-4.3-8.5-7.9-14-10.2
			c-0.2-0.1-0.4-0.2-0.5-0.3c0.3-1.1,0.9-2.1,1.6-3c0.8-0.9,1.7-1.6,2.7-2.1c2-0.9,4-1.6,6.1-2.3c1.4-0.5,2-1.2,1.8-2.4
			c-0.3-1.1-1.3-1.6-2.7-1.2c-2,0.5-3.9,1.2-5.8,2c-3.7,1.7-5.4,3.5-7.4,7.8c-2.2-0.3-4.5-0.8-6.7-0.8c-3.5-0.1-6.9,0-10.4,0
			c-1.8,0.1-2.7,1.4-1.8,2.9c1.3,2.2,0.8,3.7-0.6,5.7C-657.8,92.7-659.8,97.5-659.5,103.1z M-621.3,93.4c-2.8,0.9-5.4,0.8-7.8-1.3
			c-0.5-0.5-1.6-0.8-2.1-0.6s-0.9,1.2-1.3,1.9c-0.1,0.3-0.1,0.6-0.1,0.9c-0.5,3.9-3.4,7.3-6.9,8c-2.1-3.6-3.1-7.2-1-11.2
			c0.2-0.3,0.3-0.6,0.4-1c0.1-0.2,0.1-0.5,0.1-0.8s-0.1-0.5-0.3-0.7c-0.1-0.2-0.3-0.4-0.6-0.5c-0.2-0.1-0.5-0.2-0.7-0.2
			c-0.7-0.1-1.5-0.1-2.2-0.2c-2.7-0.4-4.5-1.9-5.8-4.3C-640.4,81.6-625.6,86.8-621.3,93.4z M-650.4,88.8c0.8,0.6,1.7,1.1,2.6,1.6
			c0.9,0.5,1.9,0.7,3,1.1c-1.6,5.6,0.3,10,2.8,14c0.5,0.9,1.3,1.2,2.3,0.9c4.9-1.5,8.6-4.3,10.2-9.4c0-0.2,0.2-0.3,0.1-0.2l6.5,1.1
			c-0.1,0.9-0.2,2-0.3,3.1c-0.9,7.9-5.3,13.1-13,15.3c-1.1,0.3-2.4,0.5-3.5,0.8c-3.4,1-6.4,0.2-8.9-2.3c-0.5-0.5-1.1-0.9-1.7-1.4
			C-657.6,106.5-657.7,95.8-650.4,88.8L-650.4,88.8z M-603.4,122.4c-1.3-6.6-9.4-9.4-14.7-4.6c-2.7,2.5-5.6,4.8-8.5,7.1l-8.9,7.5
			c-2.5-3.2-5.8-3.9-9.5-3.9c-6.5,0.1-13,0.1-19.5,0c-1,0-2-0.4-2.8-0.9c-2.6-1.8-5.4-3.1-8.5-3.3c-11.3-0.8-21.1,2.7-29,10.8
			c-3.4,3.4-6.3,7.4-9.4,11.1c-0.5,0.6-0.9,0.9-1.7,0.7c-1.7-0.3-3.2,0.4-4.4,1.7c-0.8,0.9-1.6,1.8-2.5,2.6
			c-0.3,0.3-0.7,0.5-1.2,0.5c-0.8-0.1-1.6,0-2.4,0.2c-0.8,0.3-1.5,0.7-2,1.3c-1.6,1.6-3.1,3.2-4.7,4.7c-0.6,0.5-1,1.2-1.3,1.9
			s-0.4,1.5-0.4,2.2c0,6.9,0,13.8,0,20.7c0,3.4,1.7,5,5.1,5c9.3,0,18.6,0,27.9,0c3.8,0,6-2.3,8.1-4.9c0.3-0.4,0.4-0.8,0.5-1.2
			s0.1-0.9,0-1.3c-0.4-1.7,0.3-2.7,1.4-3.7c0.5-0.4,0.9-0.9,1.3-1.4c0.5-0.6,0.9-1.3,1.1-2.1c0.2-0.8,0.2-1.6,0-2.4
			c-0.2-0.8,0.1-1.2,0.5-1.7c1.9-1.9,3.9-3.8,5.7-5.7c1.3-1.4,2.7-1.9,4.6-1.9c12.3,0,24.6,0,36.9,0c3.7,0,6.7-1.2,9.3-3.9
			c8.2-8.5,16.5-16.9,24.9-25.3c2-2,3.7-4,4.4-6.8v-2.8C-603.3,122.6-603.4,122.5-603.4,122.4z M-698.4,181.6
			c-1.3,1.4-2.9,1.9-4.8,1.8c-8.6-0.1-17.1,0-25.7,0h-1.6v-4c0-5.6,0-11.2,0-16.8c0-0.7,0.3-1.3,0.8-1.9c1.3-1.4,2.7-2.7,4-4
			c0.7-0.7,1.1-0.8,1.9-0.1c8.5,7.6,16.9,15.2,25.4,22.8C-697.3,180.3-697.4,180.5-698.4,181.6z M-694.4,172.9
			c-0.7,0.7-1.3,1.4-2.1,2.2l-23.2-20.8c0.9-1,1.7-1.9,2.6-2.8c0.6-0.7,1.1-0.1,1.5,0.3l11.9,10.7c3.1,2.7,6.1,5.5,9.2,8.2
			C-693.6,171.5-693.6,172.1-694.4,172.9z M-609.2,127.6c-4,4-7.9,8.1-11.9,12.1c-4.9,4.9-9.8,9.9-14.6,14.9
			c-0.7,0.8-1.6,1.4-2.7,1.9s-2.1,0.6-3.2,0.6c-12.3,0-24.7,0-37,0c-3.2,0-5.7,1-7.9,3.3c-2,2.1-4.1,4.1-6.2,6.3l-18.9-17
			c5.5-6.5,10.1-13.8,18.2-17.7c5.4-2.6,11-3.8,16.9-3.3c2.3,0.2,4.5,1,6.4,2.5c1.7,1.3,3.5,1.8,5.6,1.8c6.9,0,13.7,0,20.6,0
			c0.7,0,1.5,0,2.2,0.2c1,0.3,1.9,0.9,2.5,1.7c0.6,0.9,0.9,1.9,0.8,3c-0.2,2.2-2,3.8-4.4,3.9c-3.8,0.1-7.6,0-11.4,0
			c-4.1,0-8.1,0-12.2,0c-1.6,0-2.6,0.8-2.6,2.2c0,1.3,1,2.2,2.6,2.2c7.9,0,15.8,0,23.7,0c4.8,0,8.4-3.4,8.8-8.2
			c0-0.4,0.1-0.8,0.3-1.1c0.2-0.4,0.4-0.7,0.8-0.9c6-5,11.9-10,18-15c2.8-2.3,6.6-1,7.3,2.5C-607.4,125-608,126.4-609.2,127.6z
			 M-709.2,108.9c5.8,3.8,12.2,6.1,19.2,5.9c6.6-0.1,12-4,13.9-9.9c0.2-0.6,0.4-1.3,0.6-1.9v-3.4c-1.3-5.8-5.3-9-10.5-11.2
			c-1-0.4-2-0.9-3-1.2c-5-1.9-8.7-5.2-11.2-9.9c-1.1-2.1-2.4-4.1-3.9-6c-2.2-2.9-5.2-5-8.9-5.4c-6.3-0.7-12.3,3.8-13.9,10.3
			c-1,4-0.4,7.9,0.9,11.7C-722.9,97.1-717,103.8-709.2,108.9L-709.2,108.9z M-706.2,81.2c0.1-1.3,0.6-2.5,0.9-3.7l0.6-0.1
			c3.3,7.6,9.1,12.3,17,14.7c-1.2,1.3-2.8,2-4.5,2.1C-699.2,95-706.6,88.1-706.2,81.2L-706.2,81.2z M-722.7,77
			c1.1-3.8,4.5-6.7,8.1-6.9c3-0.2,5.2,1.5,7.2,3.5c-6.2,7.4-1.9,18,6,22.4c4.4,2.5,9,3.3,13.7,1.1c1.4-0.7,2.6-1.8,3.9-2.7
			c5.4,3.1,5.7,10,0.5,14c-2.9,2.3-6.4,2.8-9.9,2.2c-14.5-2.7-24.1-11.1-29.2-24.8C-723.4,83-723.6,79.9-722.7,77L-722.7,77z
			 M-684.2,70.4c3,5.2,7.8,8,13.6,9.1c7.4,1.3,13.9-1.1,19.7-5.6c5-3.8,8.6-8.7,9.9-15c0.3-1.5,0.4-3,0.6-4.6
			c-0.1-4.1-1.3-8-3.4-11.5c-4-6.3-12.9-6.4-17-0.1c-1.5,2.3-2.7,4.7-4,7c-0.5,1-1.3,1.9-2.2,2.6c-0.9,0.7-2,1.1-3.2,1.2
			c-2.2,0.3-4.5,0.8-6.7,1.2C-684.4,56.1-688,63.9-684.2,70.4L-684.2,70.4z M-661.3,50.9c1.3,2.9,0.2,5.8-2.4,7.4
			c-2.3,1.4-4.9,1-6.6-1C-666.1,56.8-663.2,54.6-661.3,50.9L-661.3,50.9z M-677.6,58.7c0.7-0.3,1.5-0.3,2.2-0.5s1.1,0,1.5,0.6
			c2.8,4.1,8.2,5.2,12.3,2.6c4.3-2.7,6-8.4,3.5-12.6c-1-1.6-0.7-2.7,0.2-3.9c0.1-0.2,0.2-0.4,0.3-0.5c2.7-3.7,8-3.6,10.5,0.3
			c1.8,2.7,2.7,5.9,2.8,9.1c0.1,5.7-2.1,10.4-6,14.4c-4.5,4.8-10.1,7.4-15.6,7.9c-6.4,0-12.2-2.9-14.8-7.1
			C-683.3,65.1-681.8,60.2-677.6,58.7L-677.6,58.7z"/>
	</g>
	<g>
		<defs>
			<rect id="SVGID_00000000929372856179388730000016039027652204842915_" x="0" y="0" width="272.4" height="292.5"/>
		</defs>
		<clipPath id="SVGID_00000086692672425583829550000008279072779640966529_">
			<use xlink:href="#SVGID_00000000929372856179388730000016039027652204842915_"  style="overflow:visible;"/>
		</clipPath>
		<path style="clip-path:url(#SVGID_00000086692672425583829550000008279072779640966529_);fill:#6A3834;" d="M-485.2,150.5
			c0.4,0,0.8,0,1.1,0c2,0,3.1-1.1,2.5-2.6c-0.4-1-1.3-1.2-2.3-1.2c-1.1,0-2.2,0-2.7,1.2c-0.1,0.3-0.2,0.6-0.2,0.8s0.1,0.6,0.2,0.8
			c0.1,0.3,0.3,0.5,0.6,0.6C-485.8,150.3-485.5,150.4-485.2,150.5z M-483.7,264.6c-2.1,0-2.9,0.4-3,1.7c-0.1,1.4,0.8,2.1,2.7,2.1
			c1.8,0,2.7-0.7,2.7-2C-481.5,265.3-482.3,264.6-483.7,264.6L-483.7,264.6z M-471,264.6c-0.6,0-1.2,0-1.8,0c-0.6,0-1.1,0-1.7,0
			c-1.1,0.1-1.8,0.7-1.9,1.7c-0.1,1.1,0.5,1.9,1.5,2c1.4,0.2,2.7,0.1,4.1,0c1-0.1,1.6-1,1.5-2.1C-469.3,265.2-470,264.7-471,264.6
			L-471,264.6z M-449.9,150.5c0.6,0,1.1,0,1.7,0s1.2,0,1.8,0c0.2,0,0.5,0,0.7-0.1s0.4-0.2,0.6-0.4s0.3-0.4,0.4-0.6
			c0.1-0.2,0.1-0.5,0.1-0.7s0-0.5,0-0.7c-0.1-0.2-0.2-0.4-0.3-0.6c-0.2-0.2-0.3-0.3-0.6-0.4c-0.2-0.1-0.4-0.2-0.7-0.2
			c-1.3-0.1-2.6-0.1-4,0c-1.1,0.1-1.6,0.9-1.6,2C-451.7,149.8-451,150.4-449.9,150.5z M-462.2,150.5c0.6,0,1.1,0,1.7,0s1.2,0,1.8,0
			c1.1-0.1,1.8-0.7,1.8-1.8c0.1-1.1-0.5-1.9-1.6-2c-1.3-0.1-2.6-0.1-4,0c-0.2,0-0.5,0.1-0.7,0.2c-0.2,0.1-0.4,0.3-0.6,0.5
			s-0.3,0.4-0.3,0.6c-0.1,0.2-0.1,0.5,0,0.7C-464,149.8-463.3,150.4-462.2,150.5L-462.2,150.5z M-474.5,150.5c0.6,0,1.1,0,1.7,0
			s1.3,0,1.9,0c0.5,0,0.9-0.2,1.2-0.5c0.3-0.3,0.5-0.8,0.5-1.2c0.1-1.1-0.5-1.9-1.5-2c-1.3-0.1-2.6-0.1-4,0c-1.1,0.1-1.7,0.9-1.6,2
			C-476.3,149.8-475.6,150.4-474.5,150.5L-474.5,150.5z M-413.4,179.3c0-0.4,0-0.9,0-1.3c0-0.4-0.2-0.8-0.5-1.1s-0.7-0.5-1.2-0.5
			c-1-0.1-1.8,0.4-2,1.4c-0.1,0.5-0.1,1.1-0.1,1.7c0,29.4,0,58.9,0,88.3v1.6H-434v-9.3h1.6c1.5,0,2.9,0,4.4,0
			c1.1-0.1,1.7-0.8,1.7-1.9c0-0.5-0.1-0.9-0.4-1.3c-0.3-0.3-0.7-0.6-1.2-0.6c-0.5-0.1-0.9-0.1-1.4-0.1c-1.5,0-3.1,0-4.7,0V252
			c0.1-0.1,0.2-0.1,0.3-0.1c0.9,0,1.7,0,2.6,0c1.4,0,2.3-0.8,2.2-1.9c0-1.1-0.9-1.9-2.3-1.9c-0.9,0-1.9,0-2.8,0v-4.7
			c1.8,0,3.5,0,5.2,0c1.6,0,2.5-0.8,2.5-2s-0.9-1.9-2.4-1.9c-1.7,0-3.5,0-5.3,0V235c1,0,1.9,0,2.7,0c1.4,0,2.3-0.7,2.3-1.8
			s-0.9-2-2.3-2c-0.9,0-1.8,0-2.7,0v-4.7c2,0,3.9,0.1,5.7-0.1c0.4-0.1,0.7-0.2,1-0.5c0.3-0.2,0.5-0.5,0.7-0.9c0.2-0.5-0.2-1.5-0.6-2
			c-0.3-0.4-1.1-0.4-1.7-0.5c-1.7-0.1-3.5,0-5.2,0v-4.7h1.5c0.5,0,1,0,1.5,0c1.2-0.1,2-0.9,2.1-1.9c0-1.1-0.8-1.9-2.1-1.9
			c-1,0-1.9,0-3,0v-4.5c1.6,0,3.2,0,4.8,0c0.6,0,1.1,0,1.6-0.2c0.4-0.1,0.8-0.4,1-0.8c0.2-0.4,0.3-0.8,0.2-1.2
			c0-0.5-0.2-0.9-0.6-1.2c-0.3-0.3-0.8-0.5-1.3-0.4c-1.9,0-3.8,0-5.8,0v-4.8c1,0,1.9,0,2.9,0c1.4,0,2.3-0.8,2.3-1.9
			c0-1.1-0.9-1.9-2.3-1.9c-0.9,0-1.9,0-2.8,0v-4.5c1.8,0,3.6,0,5.3,0c1.5,0,2.4-0.8,2.4-2s-0.9-1.9-2.4-1.9c-1.7,0-3.5,0-5.3,0V184
			h1.5c0.5,0,1,0,1.5,0c1.3-0.1,2.1-0.9,2.1-2s-0.9-1.8-2.2-1.9c-1,0-1.9,0-2.9,0v-4.5c2,0,3.9,0.1,5.7-0.1c0.4-0.1,0.7-0.2,1-0.4
			s0.5-0.5,0.7-0.8c0.2-0.5,0.1-1.4-0.3-1.8c-0.4-0.4-1.2-0.7-1.8-0.7c-1.8-0.1-3.6,0-5.4,0v-4.7h1.5c0.5,0,0.9,0,1.4,0
			c1.3-0.1,2.2-0.9,2.2-2c-0.1-1.1-0.9-1.8-2.2-1.8c-1,0-1.9,0-2.9,0v-4.5c1.7,0,3.2,0,4.7,0c0.5,0,0.9,0,1.4-0.1s0.9-0.3,1.1-0.7
			c0.3-0.4,0.4-0.8,0.4-1.3s-0.2-0.9-0.6-1.2c-0.3-0.3-0.8-0.5-1.2-0.5c-1.9,0-3.8,0-5.8,0v-9.3h16.8v1.6c0,7.2,0,14.3,0,21.5
			c0,1.6,0.8,2.5,2,2.4c1.2,0,1.8-0.9,1.8-2.5c0-8.2,0-16.4,0-24.6c0-1.7-0.6-2.5-2.2-2.5c-6.7,0-13.5,0-20.2,0
			c-1.4,0-2.1,0.7-2.2,2.1c0,0.5,0,0.9,0,1.4c0.1,0.8-0.1,1.4-0.9,1.9c-0.2,0.2-0.4,0.4-0.5,0.6c-0.1,0.3-0.2,0.5-0.2,0.8
			s0.1,0.6,0.2,0.8s0.3,0.5,0.6,0.6c0.8,0.5,0.8,1.1,0.8,1.8c0,10.6,0,21.3,0,31.9v79.3c0,0.8,0.1,1.5-0.9,2.1c-0.9,0.6-1,2.2,0,2.7
			s0.9,1.4,0.9,2.2c-0.1,1.3,0,2.5,1.2,3.3h22.1c1.2-0.6,1.4-1.7,1.4-2.9C-413.4,240.1-413.4,209.7-413.4,179.3L-413.4,179.3z
			 M-482.4,209.4c-0.4-0.2-0.8-0.4-1.2-0.4c-0.4,0-0.8,0.1-1.1,0.3s-0.6,0.5-0.8,0.8c-1.9,2.9-2.6,5.9-2.2,9.1c0.2,1.5,0.6,3,1,4.5
			c0.6,2.2,0.1,4-1.3,5.6c-0.5,0.6-1,1.2-1.5,1.8l-0.1,0.1l-0.5,0.6c-2.2,2.5-3.3,5.7-3.3,9c0,0.1,0,0.2,0,0.4c0,0.4,0,0.8,0.1,1.3
			c0.2,1.4,1.3,2.3,2.5,2.1c1.3-0.2,2.1-1.2,1.9-2.6c-0.3-3.1,0.6-5.8,2.8-8.1c0.3-0.3,0.7-0.8,1-1.1l0.3-0.4
			c1.4-1.6,2.8-3.6,2.7-5.9c-0.1-2.1-0.4-4.2-0.9-6.2c-0.7-2.9-0.3-5.4,1.2-7.7c0.2-0.3,0.3-0.6,0.4-0.9s0.1-0.6,0-0.9
			c-0.1-0.3-0.2-0.5-0.3-0.8C-481.9,209.7-482.1,209.5-482.4,209.4L-482.4,209.4z M-458.8,264.6c-1.1,0-2.2,0-3.3,0
			c-0.5,0-1,0.2-1.3,0.5c-0.4,0.3-0.6,0.8-0.6,1.3c-0.1,1,0.7,1.9,1.9,2c0.5,0.1,1.1,0,1.7,0s1.2,0,1.8,0c0.5,0,1-0.2,1.3-0.6
			s0.5-0.9,0.5-1.3c0-0.2,0-0.5-0.1-0.7s-0.2-0.4-0.4-0.6c-0.2-0.2-0.4-0.3-0.6-0.4C-458.3,264.6-458.6,264.6-458.8,264.6
			L-458.8,264.6z M-446.5,264.6c-0.6,0-1.1,0-1.7,0s-1.2,0-1.8,0c-1.1,0.1-1.7,0.7-1.9,1.7c0,0.2,0,0.5,0.1,0.7s0.2,0.5,0.3,0.7
			c0.2,0.2,0.4,0.3,0.6,0.5c0.2,0.1,0.5,0.2,0.7,0.2c1.3,0.1,2.6,0.1,3.8,0c0.2,0,0.5-0.1,0.7-0.2s0.4-0.3,0.6-0.4s0.3-0.4,0.3-0.6
			c0.1-0.2,0.1-0.5,0-0.7c0-0.2,0-0.5-0.1-0.7s-0.2-0.4-0.4-0.6c-0.2-0.2-0.4-0.3-0.6-0.4C-446,264.6-446.2,264.6-446.5,264.6
			L-446.5,264.6z M-478.4,191.3c-2.4-0.9-2.3-3-2.3-3.7c0-0.6,0-1.1,0.1-1.7l0,0c0-1,0.1-2,0.1-3c-0.1-4.9-4.1-9.3-9-9.9
			c-1.3-0.2-2.4,0.6-2.6,1.8c-0.1,0.6,0,1.2,0.4,1.7c0.3,0.5,0.9,0.8,1.5,0.9c3.6,0.8,5.4,3,5.3,6.7c0,0.3,0,0.7,0,1v1.3h-0.2
			c0,0.6,0,1.2,0,1.8c0.2,3.5,2.1,6.3,5,7.1c0.4,0.1,0.8,0.1,1.3,0c0.4-0.1,0.8-0.3,1.1-0.7c0.3-0.3,0.5-0.7,0.6-1.1
			c0.1-0.4,0-0.9-0.1-1.3c-0.1-0.2-0.2-0.4-0.4-0.6C-477.9,191.5-478.2,191.4-478.4,191.3L-478.4,191.3z M-458.1,212.1
			c0.1-0.7,0.1-1.4,0.2-2.1v-7.5c-0.1-0.6-0.1-1.1-0.2-1.7v-0.1c-0.1-1.3-0.3-2.7-0.4-4.1c-1.4-11.5-4.8-20.9-10.4-28.6
			c-4-5.5-8.4-9.2-13.6-11.2c-1.3-0.5-2.6-0.8-3.9-1.1c-0.6-0.1-1.3-0.3-1.9-0.4l-0.5-0.1h-0.2h-3.1h-0.1c-0.2,0.1-0.4,0.1-0.6,0.1
			c-8.5,1.3-14.4,6-17.7,14.1c-0.1,0.3-0.2,0.5-0.3,0.8l-0.2,0.5c-0.9,2.2-1.1,4.7-0.8,7c0.1,0.5,0.1,0.9,0.1,1.4
			c0.4,3.8,1.8,7.4,4.1,10.4c4.6,6.3,5.5,16.1,4.7,20.8c0,0.7-0.3,5.1-2,8.7c-0.7,1.7-1.5,3.2-2.4,4.8c-2.3,3.4-3.7,6.5-4.4,9.9v0.2
			c-0.1,2.7-0.4,8.9,2.7,13.9c0.3,0.4,0.6,0.8,0.9,1.2c0.1,0.1,0.2,0.2,0.2,0.3l0.1,0.1c5.8,8.4,17.1,11.5,26.9,7.3
			c6-2.5,10.7-7,14.6-13.7c4.1-7.2,6.6-15.5,7.8-26.1C-458.4,215.2-458.2,213.6-458.1,212.1L-458.1,212.1z M-467.6,235.4
			c-2.6,6.3-5.8,10.8-9.9,14c-4,3.1-8.2,4.7-12.4,4.7c-2.1,0-4.1-0.4-6-1c-2.4-0.8-4.6-2.2-6.4-4s-3.2-4-4-6.5
			c-0.9-2.5-1.1-5.2-0.8-7.8c0.3-2.6,1.2-5.1,2.7-7.3c7.3-11.1,8.3-23.2,3.1-36c-0.7-1.7-1.7-3.3-2.8-4.9l-0.3-0.5
			c-1.5-2.3-2.4-4.9-2.7-7.6c-0.3-2.7,0.1-5.5,1.1-8s2.5-4.8,4.5-6.6s4.4-3.1,7.1-3.8c4.8-1.3,9.5-0.3,14.2,2.8
			c4.7,3.2,8.6,7.8,11.7,14.2c3.2,6.6,5.2,13.7,5.9,21.9c0.2,2.1,0.3,4.1,0.4,6.1v0.1c0,0.9,0.1,1.8,0.1,2.7v0.1
			C-462.8,219.3-464.4,227.8-467.6,235.4L-467.6,235.4z"/>
	</g>
	<g>
		<defs>
			<rect id="SVGID_00000154406107325893068730000010732098317303637951_" x="0" y="0" width="272.4" height="292.5"/>
		</defs>
		<clipPath id="SVGID_00000144329562546957660110000010623409633424621231_">
			<use xlink:href="#SVGID_00000154406107325893068730000010732098317303637951_"  style="overflow:visible;"/>
		</clipPath>
		<path style="clip-path:url(#SVGID_00000144329562546957660110000010623409633424621231_);fill:#6A3834;" d="M-209.7,162.1
			c-2.5-0.2-4.9-1-7.1-2.3c-1.3-0.7-2.5-0.5-3.1,0.6s-0.2,2.2,1.1,3c2.7,1.6,5.6,2.5,8.7,2.7c1.7,0.1,2.6-0.5,2.7-1.8
			C-207.2,163.1-208,162.2-209.7,162.1z M-179.9,157.6c-0.8,0.5-1.4,0.7-1.8,1.2c-1.8,1.8-4,3.3-6.4,4.2c-1.4,0.5-2,1.6-1.5,2.8
			s1.6,1.6,2.9,1.1c3.1-1.1,5.8-2.9,8.1-5.3c0.6-0.7,1-1.5,0.5-2.3C-178.6,158.6-179.3,158.1-179.9,157.6L-179.9,157.6z
			 M-154.5,169.5h-18.7c2.5-2.7,5.1-5.4,7.3-8.2c2.5-3.2,2.9-6.9,1.2-10.7s-4.7-5.8-8.8-6.2c-3.9-0.3-7.1,1.3-9.4,4.4
			c-0.3,0.4-0.6,0.8-1,1.5c-0.1-1.3-0.1-2.4-0.2-3.5c-0.4-2.7-1.6-5.3-3.3-7.4c-4-5-9.6-8.4-15.9-9.8c-4.8-1.1-9.6-2.3-14.4-3.4
			c-1.8-0.4-3.1,0.5-2.8,2.3c1,6.1,2,12.2,3.1,18.2c0.3,1.8,1.2,3.5,1.9,5.6c-0.8-0.7-1.5-1.2-2.1-1.8c-3.5-3.1-7.4-3.9-11.7-2
			s-6.3,5.4-6.3,10c0,0.2,0,0.4,0,0.8l-4.4,0.4c0.9-2.8,1.8-5.6,2.5-8.4c0.3-1.3,0.3-2.7,0.4-4.1c0.1-1.9-0.8-2.6-2.7-2.5
			c-4,0.2-8,1.3-11.5,3.3c-0.1,0.1-0.3,0.2-0.5,0.2c-0.1,0-0.2,0-0.3,0c0.1-1.8,0.2-3.6,0.3-5.4c0.1-1.1-0.1-2.1-1.2-2.6
			c-1.1-0.5-2,0.1-2.7,0.8c-4,4.1-8,8.2-12,12.4c-4.2,4.3-5.7,9.4-4.3,15.3c0.1,0.2,0.1,0.4,0.2,0.8h-9.7c-1.8,0.1-2.3,0.7-2.3,2.6
			c0,3,0,5.9,0,8.9c0,1.2,0.3,2.1,1.3,2.7h9.3c0.8-0.7,1.5-1.4,1-2.6c-0.5-1.2-1.5-1.3-2.6-1.2c-1.7,0-3.3,0-5.2,0v-6.4h123.9v6.4
			h-107.7c-0.4,0-0.9-0.1-1.3,0c-0.6,0.3-1.5,0.6-1.6,1.2c-0.2,0.6,0.2,1.4,0.4,2.1c0.1,0.2,0.3,0.4,0.5,0.5h113.6v-13.1
			c-0.3-0.3-0.6-0.6-1-0.8C-153.6,169.6-154.1,169.5-154.5,169.5L-154.5,169.5z M-216,130.7c4.7,1.2,9.2,2.1,13.6,3.4
			c4.8,1.4,8.7,4.1,11.8,8c2,2.5,2.9,5.4,2.4,8.5c-0.7,3.8-1.7,6-5.4,6.6c-0.7,0.1-1.4,0-2-0.4c-2.3-1.6-5.1-2.3-7.9-1.9
			c-1.4,0.2-2.7,0.2-4.1,0.1c-0.3,0-0.6-0.1-0.8-0.2c-0.3-0.1-0.5-0.3-0.7-0.5c-1.2-1.7-2.3-3.5-3.2-5.4c-1.7-3.5-2-7.3-2.6-11.1
			C-215.3,135.5-215.6,133.2-216,130.7z M-252.4,154.1c0-0.3,0.2-0.5,0.4-0.7c3.1-2.5,6.8-4,10.7-4.5c-0.3,4.2-1.8,7.8-4.2,11.1
			c-0.1,0.1-0.3,0.2-0.5,0.2c-2.2,0.2-4.4,0.4-6.8,0.6C-252.7,158.4-252.6,156.2-252.4,154.1L-252.4,154.1z M-244.7,169.2
			c-0.2,0.1-0.4,0.2-0.6,0.3H-267c-0.2-0.1-0.4-0.2-0.5-0.4s-0.2-0.4-0.3-0.6c-1.4-4.4-0.6-8.3,2.5-11.7c2-2.2,4.1-4.3,6.2-6.5
			c0.9-0.9,1.8-1.7,2.7-2.6c0,0.5,0,0.9,0,1.3c-0.3,4.5-0.6,9-0.8,13.5c-0.1,1.9,0.7,2.7,2.6,2.6c2.5-0.2,5-0.4,7.6-0.7l7.6-0.7
			C-241.3,165.7-243,167.5-244.7,169.2L-244.7,169.2z M-239.2,169.5l5.5-5.1l6.4,5.1H-239.2z M-205.2,169.5h-12.3h-0.1
			c-4.2-1.6-8.1-3.7-11.6-6.5c-1-0.9-1.8-2.1-2.1-3.4c-0.3-1.3-0.2-2.7,0.3-3.9c0.5-1.3,1.4-2.3,2.5-3s2.5-1.1,3.8-1
			c1.8,0.1,3.2,0.9,4.5,2.1c4.9,4.4,10.6,6.1,17.1,5.2c0.8,0,1.6,0,2.4,0l0.2,0.3C-203.9,161.8-205.5,165.2-205.2,169.5
			L-205.2,169.5z M-181.4,169.5h-19.4c-0.7-3.8,1.6-7.2,5.2-7.7c6.9-0.9,12.2-4.4,15.9-10.3c0.5-0.7,1.1-1.4,1.8-1.9s1.5-0.9,2.4-1
			c0.9-0.2,1.7-0.2,2.6,0c0.9,0.2,1.7,0.5,2.4,1c3.1,2.1,3.7,6.2,1.4,9.3c-3,4.1-6.7,7.5-11,10.1
			C-180.6,169.2-181,169.4-181.4,169.5L-181.4,169.5z M-240.2,106.4c0.2,0.1,0.5,0.1,0.7,0c0.2,0,0.5-0.1,0.7-0.3
			c0.2-0.1,0.4-0.3,0.5-0.5s0.2-0.4,0.3-0.7c0.2-0.9,0.4-1.8,0.6-2.7c0.2-1.2-0.8-2.2-2.4-2.2c-0.3,0.3-1,0.7-1.3,1.3
			c-0.3,1-0.6,2-0.6,3C-241.8,105.4-241.3,106.1-240.2,106.4z M-243.5,122.3c0.4,0.1,0.9,0.1,1.3-0.1c0.4-0.2,0.7-0.6,0.9-1
			c0.2-0.6,0.3-1.1,0.4-1.7c0.1-1.4-0.5-2.3-1.6-2.4c-0.5-0.1-1,0-1.4,0.3s-0.7,0.7-0.8,1.1c-0.2,0.6-0.3,1.2-0.4,1.9
			c-0.1,0.5,0.1,0.9,0.3,1.3C-244.3,122-243.9,122.2-243.5,122.3L-243.5,122.3z M-238.1,97.9c1.3,0,2.2-1.4,2.2-3.4
			c0-0.5-0.2-1-0.6-1.4c-0.4-0.4-0.9-0.6-1.4-0.6c-1.3,0-2.2,1.4-2.2,3.4c0,0.3,0,0.5,0.1,0.7s0.2,0.5,0.4,0.6
			c0.2,0.2,0.4,0.3,0.6,0.4C-238.6,97.9-238.3,97.9-238.1,97.9L-238.1,97.9z M-241.9,114.9c1.1,0.2,1.9-0.3,2.2-1.3
			c0.2-0.9,0.4-1.8,0.6-2.7c0.1-1.3-0.5-2.2-1.6-2.3c-0.5-0.1-1,0-1.4,0.3s-0.7,0.7-0.8,1.2c-0.2,0.9-0.4,1.7-0.5,2.6
			c-0.1,0.5,0,1,0.3,1.4C-242.9,114.5-242.4,114.8-241.9,114.9L-241.9,114.9z M-200.3,145.7c1,1.4,1.8,2.9,2.8,4.3
			c0.4,0.5,0.9,0.9,1.4,1.3c1.9,0,3-1.5,2.4-2.7c-1.9-3.8-4.4-7.3-7.6-10.1c-0.8-0.8-2.1-0.6-2.8,0.3c-0.7,0.8-0.7,1.9,0.1,2.8
			C-202.8,143-201.4,144.3-200.3,145.7L-200.3,145.7z M-193.7,117.1c-1.1,0.2-1.6,0.9-1.6,2.2c0.1,0.6,0.2,1.2,0.4,1.8
			c0.1,0.4,0.4,0.8,0.8,1c0.4,0.2,0.9,0.3,1.3,0.2c0.5-0.1,0.9-0.3,1.1-0.7c0.3-0.4,0.4-0.8,0.4-1.3c0-0.7-0.2-1.4-0.4-2
			c-0.1-0.4-0.4-0.8-0.8-1.1C-192.8,117.1-193.2,117-193.7,117.1L-193.7,117.1z M-197.2,100.1c-1.1,0.2-1.7,1-1.5,2
			c0.1,1,0.3,2,0.6,3c0.1,0.2,0.1,0.4,0.3,0.6c0.1,0.2,0.3,0.3,0.5,0.5c0.2,0.1,0.4,0.2,0.6,0.2c0.2,0,0.5,0,0.7,0
			c1.1-0.2,1.6-0.9,1.6-2.2c-0.2-1-0.4-2-0.7-2.9c-0.1-0.2-0.2-0.4-0.3-0.6s-0.3-0.3-0.5-0.4s-0.4-0.2-0.6-0.2
			C-196.7,100-197,100-197.2,100.1L-197.2,100.1z M-193.3,110.1c-0.3-0.7-1.1-1.2-1.4-1.6c-1.6,0.1-2.4,0.9-2.3,2.1
			c0.1,1,0.3,2,0.6,3s1.1,1.5,2.2,1.3c0.5-0.1,0.9-0.4,1.2-0.8s0.4-0.9,0.3-1.4C-192.8,111.8-192.9,110.9-193.3,110.1L-193.3,110.1z
			 M-154.5,38c-5.2,0-10.4,0-15.6,0c-1.5,0-2.2,0.7-2.2,2.2c0,0.8,0,1.5,0,2.4h-1.5c-6.4,0-12.9,0-19.3,0c-0.5,0-0.9,0-1.4,0.1
			c-0.4,0.1-0.8,0.4-1,0.7c-0.2,0.4-0.3,0.8-0.3,1.2s0.2,0.8,0.5,1.2s0.7,0.5,1.1,0.6c0.4,0,0.9,0.1,1.3,0h20.5v12.8h-36.7
			c-2,0-2.6,0.6-2.6,2.6c0,1.9,0,3.7,0,5.6h-12.8c0-4,0-8,0-11.9c0-5.5,3.6-9.1,9.1-9.1c4.1,0,8.1,0,12.2,0c1.4,0,2.3-0.8,2.2-1.9
			c0-1.1-0.9-1.9-2.2-1.9c-4.5,0-9-0.1-13.5,0c-6,0.2-10.9,4.6-11.5,10.6c-0.4,4.2-0.2,8.5-0.2,12.7c0,0.5,0,1,0,1.4
			c-0.1,0-0.3,0.1-0.4,0.1h-4.2c-1.9,0-2.6,0.6-2.6,2.5c0,5.2,0,10.4,0,15.6c0,1.8,0.7,2.4,2.4,2.4c10.1,0,20.1,0,30.2,0
			c1.7,0,2.4-0.7,2.4-2.4c0-5.2,0-10.4,0-15.6c0-1.9-0.7-2.5-2.6-2.5c-1.5,0-3.1,0-4.6,0v-4.3h35.5c0,0.7,0,1.3,0,1.8
			c0,2.2,0.6,2.7,2.7,2.7c4.8,0,9.7,0,14.5,0c1.2,0,2.1-0.3,2.7-1.3v-27C-152.8,38.6-153.4,38-154.5,38L-154.5,38z M-204.5,71.6
			v12.6h-27.1V71.6H-204.5z M-156.2,63.9h-12.1v-22h12.1V63.9z M-212.5,92.6c-1.4,0.1-1.9,1.3-1.7,3.3c0.2,1.4,1,2.2,2.1,2.1
			c1.2-0.1,1.8-1,1.7-2.4C-210.4,93.5-211.2,92.5-212.5,92.6L-212.5,92.6z M-198.8,92.6c-0.5,0.1-0.9,0.3-1.1,0.7
			c-0.3,0.4-0.4,0.8-0.3,1.3c0.1,0.7,0.2,1.4,0.4,2c0.1,0.4,0.4,0.8,0.8,1.1c0.4,0.2,0.9,0.3,1.3,0.2c1.1-0.2,1.6-0.9,1.6-2.2
			c-0.1-0.6-0.2-1.3-0.5-1.9c-0.1-0.4-0.4-0.8-0.9-1C-197.9,92.6-198.3,92.5-198.8,92.6L-198.8,92.6z M-227.3,110.2
			c-0.2,0.8-0.2,1.7-0.3,2.5c0,1.2,0.6,2.1,1.7,2.2c1.1,0.1,1.9-0.4,2.1-1.5c0.2-1,0.3-1.9,0.3-2.9c0-0.5-0.2-0.9-0.5-1.3
			c-0.3-0.3-0.8-0.6-1.2-0.6c-0.5,0-0.9,0.1-1.3,0.4C-226.9,109.3-227.2,109.7-227.3,110.2L-227.3,110.2z M-226.5,102.2
			c-0.1,0.7-0.2,1.4-0.2,2.2c0,0.5,0.1,1,0.4,1.4c0.3,0.4,0.8,0.6,1.3,0.7c0.2,0,0.5,0,0.7-0.1s0.5-0.2,0.7-0.3
			c0.2-0.2,0.4-0.3,0.5-0.6c0.1-0.2,0.2-0.5,0.2-0.7c0.1-0.8,0.2-1.5,0.3-2.3c0-1.5-0.6-2.4-1.8-2.5
			C-225.6,100-226.4,100.8-226.5,102.2L-226.5,102.2z M-228.3,120.6c0,0.2,0,0.5,0.1,0.7s0.2,0.4,0.4,0.6s0.4,0.3,0.6,0.4
			c0.2,0.1,0.5,0.1,0.7,0.1c1.1,0,1.8-0.6,2-1.6c0.1-0.5,0.1-1,0.2-1.7c0-0.5-0.1-0.9-0.4-1.3s-0.7-0.6-1.2-0.7
			c-0.2-0.1-0.4-0.1-0.7,0c-0.2,0-0.4,0.1-0.6,0.2c-0.2,0.1-0.4,0.3-0.5,0.4c-0.1,0.2-0.2,0.4-0.3,0.6
			C-228.3,119-228.4,119.8-228.3,120.6L-228.3,120.6z M-222.1,96.3c0.1-0.3,0.1-0.6,0.1-0.9c0.1-1.8-0.6-2.8-1.8-2.8
			s-1.9,0.8-2.1,2.3c0,0.3-0.1,0.7-0.1,1c0,1.1,0.7,1.9,1.7,2.1C-223.1,98.1-222.3,97.4-222.1,96.3L-222.1,96.3z M-210.9,108.5
			c-0.2,0-0.5,0.1-0.7,0.2s-0.4,0.3-0.6,0.4c-0.2,0.2-0.3,0.4-0.4,0.6c-0.1,0.2-0.1,0.5-0.1,0.7c0,0.9,0.1,1.8,0.3,2.7
			c0,0.5,0.3,1,0.7,1.3s0.9,0.5,1.4,0.5c1.1-0.1,1.8-0.9,1.8-2.2c-0.1-0.8-0.1-1.7-0.3-2.6c-0.1-0.5-0.3-0.9-0.7-1.2
			C-209.9,108.6-210.4,108.5-210.9,108.5L-210.9,108.5z M-210.1,117c-1.1,0.1-1.7,0.8-1.7,1.9c0,0.6,0.1,1.1,0.2,1.7
			c0.2,1.2,1,1.9,2.1,1.8c1-0.1,1.7-0.9,1.7-2.2c0-0.5-0.1-1.1-0.2-1.6C-208.3,117.5-209,116.9-210.1,117L-210.1,117z M-211.4,100.1
			c-1.3-0.2-2.2,0.9-2.1,2.7c0.1,0.8,0.2,1.5,0.3,2.3c0.1,0.3,0.2,0.5,0.3,0.7c0.2,0.2,0.4,0.4,0.6,0.5c0.2,0.1,0.5,0.2,0.8,0.2
			s0.5,0,0.8-0.1c2-0.9,1.1-2.6,1-4.1C-209.7,101.1-210.2,100.3-211.4,100.1L-211.4,100.1z"/>
	</g>
	<g>
		<defs>
			<rect id="SVGID_00000111912367002404424210000000823933071558292642_" x="0" y="0" width="272.4" height="292.5"/>
		</defs>
		<clipPath id="SVGID_00000044862921130157099410000004672635187000329858_">
			<use xlink:href="#SVGID_00000111912367002404424210000000823933071558292642_"  style="overflow:visible;"/>
		</clipPath>
		<path style="clip-path:url(#SVGID_00000044862921130157099410000004672635187000329858_);fill:#6A3834;" d="M1,260.4
			c-1.1,0-1.9,0.9-1.9,2.3c0,1.5,0,2.9,0,4.4s0,2.8,0,4.2c0,1.4,0.8,2.2,2,2.2c1.1,0,1.8-0.8,1.9-2.2c0-2.9,0-5.7,0-8.6
			C2.9,261.2,2.1,260.4,1,260.4z M52.9,156.3c1.1,0,1.8-0.6,1.9-1.7c0-0.3,0.1-0.7,0.1-1c0-3,0-6.1,0-9.1c0-1.1-0.2-2.1-1.2-2.8
			h-1.5c-0.4,0.6-1,1.1-1,1.6c-0.1,3.8-0.1,7.5,0,11.3C51.1,155.7,51.9,156.3,52.9,156.3z M26.1,240.2c17.7,0.7,32.7-13.5,33.5-31.6
			c0.7-17.7-13.5-32.8-31.5-33.5c-17.8-0.7-32.9,13.5-33.6,31.6C-6.3,224.4,7.9,239.5,26.1,240.2z M25,234.9c0,0.4,0,0.7-0.1,1.3
			c-6.4-0.4-11.9-2.8-16.9-7c0.8-0.8,1.5-1.4,2.2-2.1c4.3-4.3,8.5-8.5,12.8-12.8c0.3-0.3,1-0.6,1.3-0.5s0.6,0.8,0.6,1.3
			C25.1,221.7,25,228.3,25,234.9L25,234.9z M29,236.2c0-0.5-0.1-1-0.1-1.4c0-6.6,0-13.1,0-19.7c0-0.5,0.4-1,0.6-1.5
			c0.5,0.2,1.1,0.3,1.4,0.6c4.7,4.6,9.4,9.3,14,14c0.3,0.3,0.5,0.6,0.9,0.9C40.9,233.4,35.4,235.7,29,236.2L29,236.2z M48.6,226.4
			c-0.4-0.3-0.6-0.6-0.9-0.8c-4.7-4.7-9.4-9.4-14.1-14.1c-0.3-0.3-0.7-1-0.5-1.3c0.1-0.3,0.8-0.6,1.3-0.6c6.7,0,13.4,0,20,0
			c0.3,0,0.7,0,1.2,0.1C55.2,216,52.8,221.5,48.6,226.4L48.6,226.4z M48.6,188.7c4.2,4.9,6.5,10.4,7,16.9h-1.5c-6.5,0-12.9,0-19.4,0
			c-0.5,0-1.1-0.4-1.6-0.6c0.2-0.5,0.3-1.1,0.7-1.4c4.6-4.7,9.2-9.3,13.9-13.9C47.9,189.4,48.2,189.1,48.6,188.7L48.6,188.7z
			 M28.9,179.7c0-0.2,0-0.3,0.1-0.7c6.4,0.5,11.9,2.8,16.8,6.9c-0.2,0.2-0.4,0.5-0.6,0.7c-4.8,4.8-9.6,9.6-14.5,14.4
			c-0.2,0.2-0.4,0.3-0.6,0.3c-0.2,0.1-0.4,0.1-0.7,0.1c-0.3-0.1-0.6-0.7-0.6-1C28.9,193.5,28.9,186.6,28.9,179.7L28.9,179.7z
			 M27,204.8c0.5,0,1.1,0.2,1.5,0.5s0.8,0.7,1,1.2s0.3,1.1,0.1,1.6c-0.1,0.5-0.4,1-0.8,1.4s-0.9,0.6-1.4,0.7c-0.5,0.1-1.1,0-1.6-0.2
			s-0.9-0.6-1.2-1c-0.3-0.5-0.4-1-0.4-1.5c0-0.7,0.3-1.4,0.8-1.9C25.6,205.1,26.2,204.9,27,204.8L27,204.8z M25,179
			c0,0.6,0.1,1,0.1,1.5c0,6.5,0,13,0,19.5c0,0.5-0.2,1.1-0.6,1.5c-0.7,0.6-1.1-0.2-1.5-0.6c-4.6-4.6-9.2-9.1-13.7-13.7
			c-0.4-0.4-0.8-0.7-1.3-1C13,181.8,18.5,179.4,25,179L25,179z M5.4,188.7c1.7,1.8,3.4,3.4,5,5c3.4,3.4,6.7,6.7,10.1,10.1
			c0.2,0.2,0.3,0.4,0.3,0.6c0.1,0.2,0.1,0.4,0.1,0.7c-0.1,0.3-0.7,0.6-1,0.6c-6.9,0-13.8,0-20.7,0c-0.2,0-0.3,0-0.7-0.1
			C-1.2,199.2,1.2,193.7,5.4,188.7z M-0.2,209.5c6.6,0,13.1,0,19.7,0c0.5,0,1,0.4,1.5,0.6c-0.2,0.5-0.3,1.1-0.7,1.4
			c-4.6,4.7-9.2,9.3-13.9,13.9c-0.3,0.3-0.6,0.6-1,0.9c-4.1-4.7-6.6-10.6-7-16.8C-1.1,209.6-0.7,209.5-0.2,209.5L-0.2,209.5z
			 M55.8,178.5c-0.5-0.6-0.8-1.3-0.8-2c-0.1-4.2,0-8.5,0-12.7c0-1.5-0.7-2.2-1.9-2.3c-1.2,0-1.9,0.8-1.9,2.2c0,1.5,0,3,0,4.5
			c0,2,0,4,0,6.2c-1.3-0.8-2.3-1.5-3.4-2.1c-0.8-0.4-1.1-1-1.1-1.9c0-8.7,0-17.3,0-26c0-1.2-0.3-2.1-1.3-2.7H44
			c-1,0.7-1.3,1.6-1.3,2.7c0.1,3.7,0,7.4,0,11.2c-1.2-0.3-2.4-0.4-3.6-0.3c-1.2,0.1-2.4,0.5-3.4,1.1c0.7-3-0.1-5.3-2.3-7.1
			c-1-0.8-2.2-1.4-3.4-1.8c-1.2-0.4-2.5-0.5-3.8-0.4c-5.6,0.4-8.5,3.8-8,9.2c-2.2-1.1-4.4-1.5-6.9-0.7v-2.1c0-3,0-6.1,0-9.1
			c0-1.2-0.3-2.1-1.3-2.7H8.7c-1.1,0.6-1.3,1.5-1.3,2.7c0,8.6,0,17.3,0,25.9c0,0.9-0.2,1.5-1.1,1.9c-1.1,0.6-2.1,1.3-3.4,2.1v-1.6
			c0-9.4,0-18.7,0-28.1c0-1.2-0.2-2.2-1.2-2.9H0.2c-1,0.7-1.2,1.7-1.2,2.9c0,10.5,0,21.1,0,31.6c0,0.9-0.3,1.7-1,2.4
			c-2,2.3-3.8,4.6-5.6,7c-0.2,0.2-0.3,0.4-0.3,0.7c-0.1,0.3-0.1,0.5,0,0.8c0,0.3,0.2,0.5,0.3,0.7c0.2,0.2,0.3,0.4,0.6,0.5
			c0.9,0.5,1.9,0.3,2.6-0.6c0.2-0.2,0.3-0.5,0.5-0.7c9.1-12.7,21.4-18.2,36.8-16c20.4,2.9,34.5,23.2,30.4,43.3
			c-4,20.1-22.4,32.8-42.6,29.6c-17-2.7-30.5-18.1-30.8-35.4c-0.1-4.4,0.5-8.7,1.9-12.9c0.3-0.9,0.4-1.9-0.5-2.4
			c-0.5-0.3-1.5-0.5-2-0.2c-0.5,0.2-1,1-1.2,1.7c-4.7,15.8-1.4,29.7,10,41.7c0.3,0.3,0.5,0.6,0.7,1s0.2,0.8,0.2,1.2
			c0,4.5,0,9.1,0,13.6c0,0.5,0,1,0.1,1.5c0.2,1,0.9,1.4,1.9,1.4c0.4,0,0.8-0.1,1.1-0.4c0.3-0.3,0.5-0.6,0.6-1
			c0.1-0.5,0.1-0.9,0.1-1.4c0-3.4,0-6.8,0-10.2c0-0.4,0-0.9,0.1-1.4c1.2,0.8,2.2,1.5,3.3,2.1c0.8,0.4,1.1,1,1.1,1.9
			c0,8.6,0,17.1,0,25.7c0,0.4,0,0.9,0,1.3c0,0.3,0.1,0.5,0.3,0.8s0.3,0.4,0.6,0.6c0.2,0.2,0.5,0.2,0.8,0.3c0.3,0,0.6,0,0.8-0.1
			c0.7-0.2,1.4-0.2,2.2-0.1c4.5,1.1,8.5-3.1,7.3-7.5c-0.9-3.4-3.9-4.9-8-4.2v-16.1c10.4,4.1,20.9,4.1,31.3,0v16.1
			c-0.4-0.1-0.7-0.2-1-0.2c-1.2-0.2-2.5-0.1-3.6,0.5c-1.1,0.5-2.1,1.4-2.7,2.5c-0.6,1-0.9,2.2-0.8,3.4c0.1,1.2,0.5,2.4,1.3,3.3
			c1.5,2,4.1,2.8,6.7,2.1c0.5-0.1,1-0.1,1.5,0.1c0.9,0.3,1.7,0.2,2.2-0.6c0.3-0.6,0.5-1.3,0.5-1.9c0-8.7,0-17.4,0-26.1
			c0-0.5,0.2-1.2,0.5-1.4c1.2-0.9,2.5-1.6,4-2.5v29.7c0,2.1,0.6,3,2,3c1.3,0,1.9-0.9,1.9-2.9c0-10.6,0-21.2,0-31.8
			c0-0.7,0.3-1.5,0.8-2C71.9,220.4,72,194.8,55.8,178.5L55.8,178.5z M17.3,167.7c-2.9,0-6-3.1-6.1-5.9c0-1.8,0.9-2.7,2.7-2.6
			c2.9,0.1,5.9,3.2,5.9,6.1C19.8,166.8,18.9,167.7,17.3,167.7L17.3,167.7z M30.5,163.7c-0.1,1,0,1.9,0,3H24c-0.3-1.9-0.7-3.8-1-5.8
			c2.7,1,5.7,1,8.4-0.1C31,161.9,30.6,162.8,30.5,163.7L30.5,163.7z M31.2,156.3c-1,0.9-2.5,1.4-4.1,1.4l-0.2,0.3
			c-1.3-0.6-2.8-1-4-1.8c-1.5-1-1.4-2.7-0.1-3.8c2.1-1.9,6.3-1.9,8.3,0C32.4,153.7,32.4,155.1,31.2,156.3L31.2,156.3z M36.6,167.7
			c-1.5,0-2.4-1-2.4-2.4c-0.1-3,3.1-6.2,6.1-6.2c1.6,0,2.5,1,2.5,2.6C42.7,164.7,39.4,167.8,36.6,167.7L36.6,167.7z M13.5,265.1
			c0.3,0,0.6,0.1,0.8,0.2c0.3,0.1,0.5,0.3,0.7,0.5s0.4,0.4,0.5,0.7c0.1,0.3,0.2,0.6,0.2,0.8c0,0.6-0.2,1.1-0.6,1.6
			c-0.4,0.4-1,0.7-1.5,0.7c-0.3,0-0.6-0.1-0.9-0.2c-0.3-0.1-0.5-0.3-0.7-0.5s-0.4-0.5-0.5-0.7c-0.1-0.3-0.2-0.6-0.1-0.9
			c0-0.3,0.1-0.6,0.2-0.8c0.1-0.3,0.3-0.5,0.5-0.7s0.4-0.4,0.7-0.5C12.9,265.2,13.2,265.1,13.5,265.1L13.5,265.1z M40.5,269.6
			c-0.3,0-0.6-0.1-0.9-0.2c-0.3-0.1-0.5-0.3-0.7-0.5s-0.4-0.5-0.5-0.8s-0.1-0.6-0.1-0.9c0-0.6,0.3-1.1,0.7-1.5s1-0.6,1.6-0.6
			s1.1,0.3,1.5,0.7c0.4,0.4,0.6,1,0.6,1.6s-0.3,1.1-0.7,1.5C41.6,269.3,41.1,269.6,40.5,269.6L40.5,269.6z M27,252.7
			c-1.2,0-2.4,0.3-3.4,1s-1.8,1.6-2.3,2.7c-0.5,1.1-0.6,2.3-0.4,3.5s0.8,2.3,1.7,3.1c0.9,0.9,1.9,1.4,3.1,1.7
			c1.2,0.2,2.4,0.1,3.5-0.4s2.1-1.3,2.7-2.3c0.7-1,1-2.2,1-3.4c0-1.6-0.7-3.1-1.8-4.3C30.2,253.3,28.6,252.7,27,252.7L27,252.7z
			 M27.1,261c-0.4,0-0.9-0.1-1.2-0.3c-0.4-0.2-0.7-0.6-0.8-1c-0.2-0.4-0.2-0.9-0.2-1.3c0.1-0.4,0.3-0.8,0.6-1.2s0.7-0.5,1.1-0.6
			s0.9-0.1,1.3,0.1s0.8,0.4,1,0.8c0.3,0.4,0.4,0.8,0.4,1.2c0,0.6-0.2,1.1-0.6,1.6C28.2,260.7,27.6,261,27.1,261L27.1,261z"/>
	</g>
	<g>
		<defs>
			<rect id="SVGID_00000143609725873224659810000008718153118087843244_" x="0" y="0" width="272.4" height="292.5"/>
		</defs>
		<clipPath id="SVGID_00000098913016997902451630000003668404053851611274_">
			<use xlink:href="#SVGID_00000143609725873224659810000008718153118087843244_"  style="overflow:visible;"/>
		</clipPath>
		<path style="clip-path:url(#SVGID_00000098913016997902451630000003668404053851611274_);fill:#6A3834;" d="M300.7,138.6
			c0.4,0,0.8-0.1,1.2-0.3c0.3-0.2,0.6-0.6,0.8-0.9c0.1-0.4,0.2-0.8,0.1-1.2s-0.3-0.8-0.6-1.1c-0.3-0.3-0.7-0.5-1.1-0.6
			s-0.8,0-1.2,0.1c-0.4,0.2-0.7,0.4-0.9,0.8c-0.2,0.3-0.3,0.7-0.3,1.2s0.2,1.1,0.6,1.4C299.7,138.4,300.2,138.6,300.7,138.6z
			 M290.4,132.5c0.4,0,0.8-0.1,1.2-0.3s0.6-0.5,0.8-0.9c0.2-0.4,0.2-0.8,0.1-1.2s-0.3-0.8-0.6-1.1c-0.3-0.3-0.6-0.5-1-0.6
			s-0.8,0-1.2,0.1c-0.4,0.2-0.7,0.4-0.9,0.8c-0.2,0.3-0.3,0.7-0.3,1.1c0,0.5,0.2,1.1,0.6,1.5C289.3,132.2,289.9,132.5,290.4,132.5
			L290.4,132.5z M311.1,128.3c0.4,0,0.8-0.1,1.1-0.4c0.3-0.2,0.6-0.6,0.7-0.9c0.1-0.4,0.2-0.8,0.1-1.2c-0.1-0.4-0.3-0.8-0.6-1
			c-0.3-0.3-0.7-0.5-1.1-0.5c-0.4-0.1-0.8,0-1.2,0.2c-0.4,0.2-0.7,0.4-0.9,0.8c-0.2,0.3-0.3,0.8-0.3,1.2c0,0.5,0.2,1.1,0.6,1.4
			C310,128.2,310.6,128.4,311.1,128.3L311.1,128.3z M278,132.5c0.4,0,0.8-0.1,1.2-0.3c0.4-0.2,0.6-0.5,0.8-0.9
			c0.2-0.4,0.2-0.8,0.2-1.2c-0.1-0.4-0.2-0.8-0.5-1.1s-0.6-0.5-1-0.6s-0.8-0.1-1.2,0.1s-0.7,0.4-0.9,0.7c-0.2,0.3-0.4,0.7-0.4,1.1
			c0,0.5,0.2,1.1,0.5,1.5C276.9,132.2,277.5,132.5,278,132.5L278,132.5z M331,116c-2.8,0-5.7,0-8.5,0c-0.4,0-0.7,0-1.2-0.1
			c0-2.5,0-4.8,0-7.2c-0.1-3.3,0-6.7-0.4-10c-1-7.8-4.5-14.4-10-19.9c-0.6-0.6-0.7-1.1-0.3-1.8c0.6-1.2,1.2-2.4,1.9-3.5
			c2.2-3.4,4.8-6.6,7.9-9.3c0.8-0.7,1.2-1.5,0.8-2.5c-0.4-1-1.2-1.4-2.3-1.3c-4.6,0.1-9,0.8-13.3,2.6c-0.5,0.2-1,0.4-1.4,0.6
			c2-3.6,4.7-6.8,7.7-9.5c0.8-0.7,1.5-1.5,1-2.7c-0.4-1.2-1.5-1.4-2.6-1.4c-4.8,0.1-9.5,1-13.8,3c-0.5-1.9-0.9-3.7-1.5-5.5
			c-1.2-3.7-3.3-6.7-6.6-9c-1.5-1-2.8-1-4.3,0c-3.8,2.6-5.9,6.3-7.1,10.7c-0.3,1.2-0.6,2.5-0.9,3.8c-4.6-2.2-9.4-3-14.3-3
			c-1,0-1.8,0.3-2.2,1.3c-0.4,1,0,1.7,0.7,2.4c0.9,0.9,1.9,1.7,2.7,2.6c1.9,2.2,3.8,4.6,5.7,6.8l-0.3,0.3c-0.4-0.1-0.7-0.3-1-0.4
			c-4.4-2-9.1-2.7-13.9-2.8c-0.4,0-0.9,0.1-1.2,0.3c-0.4,0.2-0.6,0.6-0.8,1c-0.4,0.9-0.1,1.7,0.6,2.3c0.3,0.3,0.6,0.6,0.9,0.9
			c3.7,3.5,6.9,7.4,9.1,12c0.4,0.8,0.3,1.3-0.4,1.9c-3.4,3.3-6.1,7.3-7.9,11.8c-1.7,4.1-2.5,8.5-2.5,13l-7.5,2.9
			c0.5-4,1-8.1,2.9-11.8c0.3-0.5,0.6-1.2,0.4-1.7c-0.3-0.7-0.8-1.3-1.5-1.7c-0.2-0.1-0.4-0.1-0.7-0.1c-0.2,0-0.5,0-0.7,0.1
			s-0.4,0.2-0.6,0.4c-0.2,0.2-0.3,0.4-0.4,0.6c-0.9,2.3-1.9,4.6-2.5,6.9c-0.7,2.6-1,5.3-1.4,8.1c-0.2-0.1-0.5-0.1-0.7-0.2
			c-0.4-0.2-0.7-0.4-1.1-0.6c-6.1-3.7-12.4-4-18.5-0.1c-7.2,4.6-9.5,11.6-8.9,19.8c0.2,2.8,0.8,5.5,1.1,8.3
			c0.8,6.3,2.6,12.4,5.9,17.9c4.6,7.6,12.9,10.8,21,7.7c1.8-0.7,3.8-0.7,5.5,0.1c6.3,2.4,12.1,1,17.1-3.3c0.7-0.6,1.2-0.7,2-0.3
			c8.1,3.7,16.6,5.4,25.4,4.5c16.7-1.6,29.8-9.4,39.2-23.3c3.9-5.6,6-12.2,6.2-19C333.7,116.7,333,116,331,116L331,116z M321,120.2
			c-2.4,10.5-8.6,18.1-17.6,23.4c-11.6,6.9-25.1,6.6-35.2,1.5c2.2-8.2,3.8-16.4,3.6-25H321V120.2z M278,106.1l8.2-9l8,8.7l-7.7,8.5
			L278,106.1z M281.6,116c-3.2,0-6.8,0-10.4,0c-0.3,0-0.7-0.4-0.8-0.7c-0.2-0.4-0.5-0.9-0.6-1.4l5.1-5.4L281.6,116z M298,108.4
			l6.8,7.6H291L298,108.4z M290,94.3l8-8.6l8.1,8.8l-8,8.6L290,94.3z M298,80.2l-6.2-6.8c3,0.4,6.4,1.6,9.5,3.4L298,80.2z
			 M294.3,83.2l-7.9,8.5l-8-8.8l7.8-8.5L294.3,83.2z M274.7,80.3l-3.3-3.6c3-1.7,6.2-2.8,9.6-3.4L274.7,80.3z M274.7,85.7l8,8.7
			l-8.1,8.7l-7.9-8.7C269.1,91.8,271.8,88.9,274.7,85.7L274.7,85.7z M271.5,105.5l-4.3,4.5c-3-3.3-6.5-5.4-10.5-6.1l6.2-6.8
			L271.5,105.5z M314.1,115.9c0.9-1,1.9-2,3.1-3.3v3.3H314.1z M316.1,108l-6.6,6.3c-2.8-3-5.4-5.9-7.9-8.7l7.9-8.4
			c0.9,0.9,1.7,1.6,2.4,2.3c1.4,1.3,2.8,2.7,4.2,4C317.7,105,317.7,106.4,316.1,108L316.1,108z M315.1,92.3l1.7,5.7l-0.4,0.2
			l-3.4-3.9L315.1,92.3z M313,88.1l-3.3,3.5l-8.2-8.9l3.4-3.6C308.2,81.6,310.9,84.6,313,88.1L313,88.1z M310.8,65.7
			c0.9-0.2,1.8-0.4,2.6-0.6l-6.8,10c-1.6-0.9-3.4-1.9-5.2-2.9c-1-0.6-0.4-1.1,0.1-1.6C304.2,68.1,307.3,66.6,310.8,65.7L310.8,65.7z
			 M305.5,54.7c-4.1,4.8-7.4,9.5-8.5,15.5l-5.3-1.1c-0.2,0-0.4-0.1-0.6-0.1c-2.1-0.3-2.9-2.1-1.8-3.9
			C292.9,59.2,298.4,56,305.5,54.7L305.5,54.7z M284.1,44.3c2.2-2.5,2.2-2.5,4.3,0c2.7,3.1,3.5,6.9,4,10.9c0,0.1,0,0.3-0.1,0.4
			c-0.1,0.1-0.1,0.2-0.2,0.3c-1.9,2-3.9,3.9-5.8,5.7c-1.8-1.8-3.7-3.7-5.6-5.6c-0.3-0.2-0.4-0.6-0.5-0.9
			C280.6,51.2,281.4,47.3,284.1,44.3L284.1,44.3z M267.2,54.9c8.2,0.9,15.3,6.6,17.7,13.6l-9.3,1.6
			C274.5,64.3,271.1,59.5,267.2,54.9L267.2,54.9z M259.2,65.1c3.6,0.5,7,1.9,9.9,3.9c0.7,0.5,1.4,1.1,2.1,1.7
			c0.5,0.5,0.6,1.1-0.2,1.5c-1.7,0.9-3.4,1.9-5,2.8L259.2,65.1z M267.6,79.2c1.2,1.4,2.5,2.7,3.5,3.9l-8,8.6l-3.3-3.7
			C261.8,84.5,264.4,81.6,267.6,79.2L267.6,79.2z M257.5,92l2.1,2.3l-3.6,3.8l-0.2-0.1C256.4,96.2,256.9,94.3,257.5,92z M261,150.4
			c-2.6,4.4-6.6,6.9-11.9,6.8c-1.6-0.1-3.1-0.4-4.6-1.1c-1.1-0.5-2.3-0.8-3.5-0.8s-2.4,0.3-3.5,0.8c-4,1.7-8,1.5-11.8-0.9
			c-2.3-1.4-4-3.4-5.3-5.8c-2.9-5.3-4.3-11-5.1-17c-0.3-2.2-0.7-4.3-0.9-6.5c-0.5-6.2,1-11.7,6.2-15.6c4.5-3.3,10.2-3.3,14.9-0.3
			c1.1,0.7,2.4,1.2,3.8,1.9c-0.1,1.2-0.2,2.5-0.2,4.1c-1-0.5-1.9-0.9-2.7-1.5c-1.2-0.7-2.2-0.7-3,0.2c-0.7,0.9-0.6,2.2,0.5,3.1
			c3.7,3.1,11,3.1,14.6,0c1-0.9,1.2-2,0.5-3s-1.8-1-3-0.3c-0.8,0.5-1.7,0.9-2.8,1.5c0.1-1.6,0.2-2.8,0.3-4c0-0.1,0-0.2,0.1-0.3
			c0-0.1,0.1-0.2,0.2-0.2c1.8-0.9,3.5-1.8,5.3-2.6c7.9-3.3,15.9,1.7,18.1,9.4c1,3.4,0.9,6.8,0.3,10.2c-0.9,4.6-1.5,9.3-2.7,13.8
			C263.8,145.1,262.5,147.8,261,150.4L261,150.4z M324.5,134.7c-8.5,13.2-20.6,20.6-36.2,22.2c-7.8,0.8-15.4-0.6-22.6-3.6
			c-0.4-0.2-0.8-0.3-1.2-0.6l2-3.7c12.2,5.4,24.3,5.5,36.3-0.4c11.8-5.9,19.7-15.2,22.5-28.4h4.2
			C329.1,125.4,327.4,130.4,324.5,134.7L324.5,134.7z M284.3,144.8c0.4,0,0.8-0.1,1.1-0.4c0.3-0.2,0.6-0.6,0.8-0.9
			c0.2-0.4,0.2-0.8,0.1-1.2s-0.3-0.8-0.6-1c-0.3-0.3-0.7-0.5-1.1-0.5c-0.4-0.1-0.8,0-1.2,0.1c-0.4,0.2-0.7,0.4-0.9,0.8
			c-0.2,0.3-0.3,0.7-0.3,1.2s0.2,1.1,0.6,1.4C283.2,144.6,283.7,144.8,284.3,144.8L284.3,144.8z"/>
	</g>
	<g>
		<defs>
			<rect id="SVGID_00000132066928881159553760000013908799620388706439_" x="0" y="0" width="272.4" height="292.5"/>
		</defs>
		<clipPath id="SVGID_00000106122375363645988610000005701212784371494821_">
			<use xlink:href="#SVGID_00000132066928881159553760000013908799620388706439_"  style="overflow:visible;"/>
		</clipPath>
		<path style="clip-path:url(#SVGID_00000106122375363645988610000005701212784371494821_);fill:#6A3834;" d="M587.5,178.3h-37V213
			h6.4c-1.3,1.7-2.6,3.2-3.7,4.8c-0.6,0.9-1.2,1.2-2.2,1.2c-8.9,0-17.7,0-26.6,0h-1.6v-12h-4.2v11.9h-19.2V207h-4.2v12h-31.8v20.9
			c-4.8-1.9-8.6-1.2-11.3,2.2c-1.1,1.4-1.8,3.2-1.9,5s0.4,3.6,1.4,5.1c2.4,3.7,5.9,4.5,11.6,2.9v3.7h-16.3v14.6h11.8
			c-0.1-1.3-0.1-2.6-0.2-4.1h100.6v4.1H571v-14.7h-16.2c-0.7-2.5-0.5-3,1.4-4.3c4.1-2.7,8.3-5.4,12.4-8c0.5-0.4,1.1-0.6,1.7-0.7
			c8.9-0.9,15.3-6.9,16.8-15.8c0-0.2,0.1-0.3,0.2-0.5V225c-0.2-0.8-0.4-1.7-0.6-2.5c-0.9-3.4-2.7-6.4-5.3-8.8
			c-0.3-0.3-0.5-0.6-0.6-1h6.5v-34.4H587.5z M462.7,249.5c-0.5,1.6-2.4,2.7-4.2,2.5c-1.1-0.1-2-0.6-2.8-1.4s-1.2-1.8-1.3-2.8
			c-0.1-1.1,0.2-2.1,0.8-3c0.6-0.9,1.5-1.5,2.6-1.8c1.9-0.5,4.3,0.4,5,2.4H459v4.1H462.7z M454.5,269.2h-3.2V263h3.2V269.2z
			 M467.7,223.2h82.7v35.4h-82.7V223.2z M563.6,263h3.2v6.3h-3.2V263z M559.3,263v2H458.8v-2H559.3z M554.7,250.6v-11.5
			c2.3,2.7,5.3,4.7,8.7,5.8L554.7,250.6z M583.4,226.9c0,1.9-0.3,3.8-1,5.6s-1.7,3.4-3.1,4.8c-1.3,1.4-2.9,2.5-4.7,3.3
			s-3.6,1.2-5.5,1.2c-7.6,0.2-14.4-6.3-14.6-13.9c-0.1-1.9,0.3-3.8,1-5.6s1.7-3.4,3-4.8c1.3-1.4,2.9-2.5,4.7-3.3s3.6-1.2,5.5-1.2
			C576.4,212.8,583.2,219.2,583.4,226.9L583.4,226.9z M583.3,208.7h-28.6v-26.3h28.6V208.7z M472,174.9c6.3,6.2,12.5,12.5,18.7,18.7
			c0.3,0.3,0.6,0.6,0.7,1c0.2,0.4,0.2,0.8,0.2,1.2c-0.1,2.5,0,5,0,7.5h34.7c0-2.5,0-4.9,0-7.2c0-0.5,0-1,0.2-1.4
			c0.2-0.5,0.5-0.9,0.8-1.2c6.2-6.2,12.4-12.4,18.6-18.6c0.3-0.3,0.6-0.7,0.8-1.1c0.2-0.4,0.3-0.9,0.2-1.3c-0.1-4.2,0-8.3,0-12.5v-4
			h-76c0,0.5-0.1,1-0.1,1.5c0,4.9,0,9.9,0,14.8c0,0.5,0,0.9,0.2,1.4C471.4,174.2,471.7,174.6,472,174.9L472,174.9z M522.2,199.3
			h-26.3v-3.4h26.3V199.3z M475.3,160.3h67.6c0,0.5,0.1,1,0.1,1.4c0,3.1,0.1,6.2,0,9.3c0,0.7-0.3,1.5-0.8,2
			c-5.9,6-11.8,11.9-17.8,17.8c-0.5,0.5-1.2,0.8-1.9,0.8c-8.9,0.1-17.8,0.1-26.7,0c-0.6,0-1.1-0.2-1.6-0.5
			c-5.2-5.1-10.4-10.3-15.5-15.5c-0.1-0.1-0.2-0.3-0.2-0.4H509v-4.1h-33.7V160.3z M563.8,206.3c1.2,0,2.4-0.4,3.4-1.1
			c1-0.7,1.8-1.6,2.2-2.8c0.4-1.1,0.6-2.3,0.3-3.5c-0.2-1.2-0.8-2.3-1.7-3.1s-1.9-1.4-3.1-1.6c-1.2-0.2-2.4-0.1-3.5,0.4
			s-2,1.3-2.7,2.3s-1,2.2-1,3.4c0,1.6,0.7,3.2,1.8,4.3S562.1,206.3,563.8,206.3L563.8,206.3z M563.7,198.2c0.5,0,1,0.2,1.4,0.6
			c0.4,0.4,0.6,0.9,0.6,1.4s-0.2,1-0.6,1.4c-0.4,0.4-0.9,0.6-1.4,0.6s-1-0.2-1.4-0.6c-0.4-0.4-0.6-0.9-0.6-1.4s0.2-1,0.6-1.4
			C562.7,198.4,563.2,198.2,563.7,198.2L563.7,198.2z M516.1,216.5V206H502v10.6L516.1,216.5z M506.1,210.1h5.9v2.4h-5.9V210.1z
			 M525.9,162.8h-23.6v3.9h23.6V162.8z M510.4,152.4h3.9v-4h-3.9V152.4z M521,152.4v-4h-3.7v4H521z M492.3,151.6
			c-0.1-1.9,0-3.9,2.2-5.1c2.2-1.1,3.9,0.3,5.8,1.3c1.1-3.3,2.6-6.3,5.4-8.2c2.9-2,6.1-2.9,9.6-2.2c7.8,1.7,10.8,7,10.9,14.2
			l7.5,2.4l2.3-2.9c-0.8-0.5-1.4-0.9-2.1-1.3c-0.9-0.4-1.7-0.8-2.7-1.1c-0.8-0.2-1.1-0.6-1.2-1.4c-1.2-7.1-6.6-12.7-13.5-14
			c-3.4-0.7-6.9-0.2-10.1,1.2s-5.8,3.8-7.6,6.7c-0.2,0.3-0.4,0.6-0.7,0.7c-0.3,0.2-0.7,0.2-1,0.1c-3.9-0.3-6.9,1.6-8.4,5.3
			c-0.3,0.5-0.7,0.9-1.2,1.1c-1.8,0.8-3.6,1.6-5.6,2.4l2.4,3.1L492.3,151.6z M532.8,162.8h-3.9v3.9h3.9V162.8z M539.6,162.7h-3.9v4
			h3.9V162.7z M503.5,152.4h3.9v-3.9h-3.9V152.4z M541.9,238.2h4v-4h-4V238.2z M523.6,235.9c-1.3,0-2.6,0.6-3.5,1.5
			c-0.9,1-1.4,2.2-1.4,3.6c0,1.3,0.5,2.6,1.4,3.6c0.9,0.9,2.2,1.5,3.5,1.5c0.7,0,1.4-0.1,2-0.4c0.6-0.2,1.2-0.6,1.7-1.1
			s0.9-1,1.1-1.7c0.3-0.6,0.4-1.3,0.4-2s-0.1-1.4-0.4-2c-0.3-0.6-0.6-1.2-1.1-1.7s-1.1-0.8-1.7-1.1
			C524.9,236,524.3,235.8,523.6,235.9L523.6,235.9z M523.7,241.8c-0.3,0-0.7-0.5-1-0.8c0.3-0.3,0.6-0.9,1-1c0.3-0.1,0.7,0.4,1.3,0.9
			C524.4,241.4,524.1,241.8,523.7,241.8L523.7,241.8z M580.3,185h-4v3.9h4V185z M523.2,229.5c-9.7,0.8-19.4,2.1-29.1,3.3
			c-1.6,0.2-3.3,0.4-4.8,1c-3.4,1.5-5,5-4.4,8.7c0.6,3.4,3.4,6,7.4,6.5c10,1.2,20,2.3,30.1,3.4c6.9,0.8,12.7-4.3,12.9-11.3
			C535.3,234.4,529.8,228.9,523.2,229.5L523.2,229.5z M492.8,244.9c-0.8,0-1.6-0.2-2.2-0.6c-0.7-0.4-1.2-1-1.5-1.7s-0.4-1.5-0.3-2.3
			s0.5-1.5,1-2c0.5-0.6,1.2-0.9,2-1.1c0.8-0.2,1.6-0.1,2.3,0.2c0.7,0.3,1.3,0.8,1.8,1.4c0.4,0.6,0.7,1.4,0.7,2.2c0,1-0.4,2-1.1,2.8
			C494.9,244.4,493.9,244.8,492.8,244.9L492.8,244.9z M499.7,245.7c0.4-1.6,1-3.1,1-4.7c0-1.6-0.6-3.1-1-4.7l14.1-1.6
			c-2.4,4.3-2.4,8.4,0.1,12.7L499.7,245.7z M523.7,248.4c-4.1,0.1-7.5-3.4-7.6-7.5c0-4.1,3.5-7.6,7.5-7.5c2,0,3.8,0.8,5.2,2.2
			s2.1,3.3,2.1,5.2c0,2-0.8,3.8-2.1,5.2C527.5,247.6,525.7,248.4,523.7,248.4L523.7,248.4z M573.4,184.9h-3.9v3.9h3.9V184.9z
			 M574.2,224.9l4.2-3.8l-3.3-3.4c-1.3,1.4-2.6,2.9-4.2,4.7v-6.2h-4.1v5.9l-0.4,0.2l-3.6-4.1l-3.6,2.9c1.5,1.4,2.9,2.7,4.6,4.2h-6.1
			v4.2h5.8l0.1,0.3l-4.3,3.9l3.4,3.2l4.2-4.5v6.1h4.2v-5.9l0.4-0.2l3.8,4.1l3.3-2.9l-4.5-4.2h6.1v-4.2h-5.8
			C574.3,225.1,574.3,225,574.2,224.9L574.2,224.9z M541.9,254h3.9v-12.8h-3.9V254z M472.7,256.1h3.9v-3.9h-3.9V256.1z M479.5,256.1
			h3.9v-3.9h-3.9V256.1z M545.9,227.4H542v4h3.9V227.4z M566.6,184.9h-9v3.9h9V184.9z M490.8,242.9h3.9v-4h-3.9V242.9z M486.4,256
			h3.7v-3.9h-3.7V256z"/>
	</g>
	<g>
		<defs>
			<rect id="SVGID_00000080182790722740277680000015873843185469962146_" x="0" y="0" width="272.4" height="292.5"/>
		</defs>
		<clipPath id="SVGID_00000050627981284899046210000007952685495322565518_">
			<use xlink:href="#SVGID_00000080182790722740277680000015873843185469962146_"  style="overflow:visible;"/>
		</clipPath>
		<path style="clip-path:url(#SVGID_00000050627981284899046210000007952685495322565518_);fill:#6A3834;" d="M713.3,110
			c0,0.5,0.2,0.9,0.5,1.2c0.3,0.3,0.8,0.5,1.2,0.5c1,0.1,1.9-0.4,2-1.5c0.1-1.5,0.1-3,0-4.5c-0.1-1-0.9-1.5-1.9-1.5
			c-0.2,0-0.4,0-0.7,0.1c-0.2,0.1-0.4,0.2-0.6,0.4c-0.2,0.2-0.3,0.3-0.4,0.6c-0.1,0.2-0.1,0.4-0.1,0.7c-0.1,0.6,0,1.3,0,1.9
			C713.3,108.6,713.2,109.3,713.3,110z M714.1,70.7c0.8,0,1.6-0.1,2.3-0.5c0.7-0.3,1.4-0.8,2-1.3c0.6-0.6,1-1.2,1.3-2
			c0.3-0.7,0.5-1.5,0.5-2.3c0-0.8-0.2-1.6-0.5-2.3s-0.8-1.4-1.3-2c-0.6-0.6-1.2-1-2-1.3c-0.7-0.3-1.5-0.5-2.3-0.4
			c-0.8,0-1.6,0.2-2.3,0.5s-1.4,0.8-2,1.3c-0.6,0.6-1,1.2-1.3,2c-0.3,0.7-0.5,1.5-0.5,2.3c0,1.6,0.7,3.1,1.8,4.3
			C711,70.1,712.5,70.8,714.1,70.7L714.1,70.7z M714.2,62.5c0.6,0,1.1,0.3,1.5,0.7s0.6,1,0.7,1.5c0,0.6-0.2,1.1-0.7,1.5
			c-0.4,0.4-1,0.6-1.6,0.6c-0.3,0-0.6,0-0.8-0.1c-0.3-0.1-0.5-0.3-0.7-0.5s-0.4-0.4-0.5-0.7c-0.1-0.3-0.2-0.5-0.2-0.8s0-0.6,0.2-0.9
			c0.1-0.3,0.3-0.5,0.5-0.7s0.5-0.4,0.7-0.5C713.6,62.5,713.9,62.5,714.2,62.5z M705,105.8c-0.1,1.5-0.1,3,0,4.5c0.1,1,1,1.5,2,1.5
			c0.5,0,0.9-0.2,1.2-0.5s0.5-0.8,0.5-1.2c0.1-0.6,0-1.3,0-1.9s0.1-1.4,0-2.1c0-0.2-0.1-0.5-0.1-0.7c-0.1-0.2-0.2-0.4-0.4-0.6
			s-0.3-0.3-0.6-0.4c-0.2-0.1-0.4-0.1-0.7-0.1C705.9,104.3,705.1,104.8,705,105.8z M759.9,84.5c3.8,0.1,7.6-3.8,7.4-7.6
			c0-1.1-0.5-2.2-1.2-3s-1.7-1.4-2.8-1.6c-3.9-0.7-8.2,3-8.2,7.1C755.2,82.3,757.2,84.4,759.9,84.5L759.9,84.5z M762.3,76.2
			c0.9,0,1.2,0.5,1.1,1.3c-0.2,1.4-1.7,2.9-3.1,3.1c-0.8,0.1-1.3-0.2-1.3-1.1C759,78,760.8,76.2,762.3,76.2L762.3,76.2z
			 M827.1,103.7c-0.9-2.9-2.7-5.4-5.2-7.3c-2.4-1.8-5.4-2.8-8.4-2.8c-1.7,0-3.4,0-5.3,0v-1.5c0-5.5,0-11,0-16.5
			c0-1.5-0.9-2.4-2.1-2.3c-1.1,0.1-1.7,1-1.7,2.5c0,5.4,0,10.7,0,16.1v1.6h-20.5V63.3h20.5c0,0.9,0,1.9,0,2.8c0,1.3,0.8,2.1,1.9,2.1
			c1.1,0,1.9-0.8,1.9-2.1c0-4.3,0-8.6,0-12.9c0-1.5-0.7-2.2-2.2-2.2c-7.9,0-15.8,0-23.8,0c-1.6,0-2.2,0.7-2.2,2.3c0,2.9,0,5.7,0,8.6
			c0,10,0,20,0,30v1.6h-4.6V54c0-2.5-0.4-3-3-3h-22.2c-2.5,0-3,0.5-3,3v39.5h-12.7V76.1h5.2c2.6,0,3-0.5,3-3c0-10.8,0-21.5,0-32.3
			c0-1.2-0.2-2.2-1.2-2.9h-28.8c-0.2,0.2-0.6,0.4-0.7,0.7c-0.2,0.7-0.5,1.6-0.2,2c0.2,0.3,0.5,0.6,0.9,0.7c0.3,0.2,0.7,0.3,1.1,0.3
			c5.1,0.1,10.1,0,15.2,0h1.5v76.6H700V41.9c1.2,0,2.3,0,3.5,0c1.1,0,2.1-0.1,2.6-1.2c0.5-1.2-0.2-1.9-1-2.6h-7.7
			c-1.1,0.6-1.3,1.6-1.3,2.8c0,35,0,70.1,0,105.1v20.8c0,2.3,0.5,2.8,2.9,2.8h6c2.8,0,3.2-0.4,3.2-3.1c0-14.1,0-28.3,0-42.4v-1.7
			h71.6c0.5,0,0.9,0,1.4,0c0.4,0,0.8-0.2,1.2-0.5c0.3-0.3,0.5-0.7,0.5-1.2c0.1-0.4,0-0.9-0.3-1.2c-0.2-0.4-0.6-0.6-1-0.7
			c-0.5-0.1-1.1-0.2-1.7-0.2c-14.7,0-29.5,0-44.2,0h-1.5v-4.4h77.9c0.5,0,0.9,0,1.4,0c1.5-0.1,2.9-0.7,3.9-1.7
			c1.1-1,1.7-2.4,1.9-3.8c0.1-1.4-0.2-2.8-1-3.9s-1.9-2-3.2-2.4c-0.9-0.2-1.8-0.3-2.8-0.3c-25.5,0-50.9,0-76.4,0h-1.7v-4.5h78.1
			c0.4,0,0.9,0,1.3,0c2.7,0.1,5.3,1.3,7.2,3.2c1.9,1.9,3,4.5,3,7.2c0,1.4-0.2,2.7-0.7,4s-1.3,2.4-2.2,3.4c-1,1-2.1,1.8-3.4,2.3
			c-1.3,0.5-2.6,0.8-4,0.8c-7.6,0.1-15.1,0-22.6,0c-1.9,0-2.8,0.6-2.8,1.9s0.9,2,2.7,2c2.5,0,5,0,7.5,0c0.4,0,0.7,0,1.2,0.1v1.7
			c0,14.3,0,28.6,0,42.9c0,2,0.6,2.6,2.6,2.6c2.2,0,4.4,0,6.6,0c2.5,0,3-0.5,3-3c0-14.2,0-28.4,0-42.7v-1.6c0.8,0,1.3,0,1.9,0
			c3,0,6-1,8.4-2.8s4.2-4.3,5.1-7.2c0.3-0.8,0.5-1.7,0.7-2.6v-3.6C827.6,105.4,827.4,104.5,827.1,103.7L827.1,103.7z M783.9,54.9
			h20.4v4.3h-20.4V54.9z M704.3,165.8H700v-43.3h4.2L704.3,165.8L704.3,165.8z M734.3,42h4.3v30.3h-4.3V42z M735.7,105.8h76.8
			c0.4,0,0.9,0,1.3,0.1c0.5,0.1,0.9,0.3,1.2,0.7c0.3,0.4,0.5,0.8,0.5,1.3c0.1,0.5,0,0.9-0.3,1.3c-0.2,0.4-0.6,0.7-1,0.8
			c-0.6,0.2-1.2,0.3-1.8,0.3c-25.6,0-51.2,0-76.8,0h-1.4v-4.4C734.8,105.8,735.3,105.8,735.7,105.8z M751,55h20.4v4.2H751V55z
			 M771.4,93.5H751V63.3h20.4V93.5z M807.8,165.7h-4.3v-43.2h4.3V165.7z M788.1,80.2c0.1,1.2,0.7,2.3,1.6,3.1
			c0.9,0.8,2.1,1.2,3.3,1.2c3.6,0,7.2-3.6,7.2-7.2c0.1-1.2-0.3-2.4-1.1-3.3s-1.8-1.5-3-1.6C792,71.7,787.6,76,788.1,80.2L788.1,80.2
			z M792.7,80.6c-0.2-0.2-0.7-0.6-0.7-1.1c-0.2-1.5,1.8-3.5,3.3-3.3c0.2,0.1,0.5,0.2,0.7,0.4c0.2,0.2,0.3,0.4,0.4,0.7
			C796.4,78.7,794.5,80.6,792.7,80.6L792.7,80.6z M721.6,109.9c0,0.5,0.2,1,0.6,1.3c0.4,0.3,0.8,0.5,1.3,0.5
			c1.1-0.1,1.8-0.7,1.9-1.8c0.1-1.3,0.1-2.6,0-4c-0.1-1.1-0.8-1.7-1.9-1.7c-0.2,0-0.5,0-0.7,0.1s-0.4,0.2-0.6,0.4
			c-0.2,0.2-0.3,0.4-0.4,0.6c-0.1,0.2-0.2,0.5-0.2,0.7c0,0.6,0,1.2,0,1.8C721.6,108.6,721.5,109.3,721.6,109.9L721.6,109.9z"/>
	</g>
	<g>
		<defs>
			<rect id="SVGID_00000100379257632870930000000006388701661125170873_" x="0" y="0" width="272.4" height="292.5"/>
		</defs>
		<clipPath id="SVGID_00000074428200151378007220000018300969409930015890_">
			<use xlink:href="#SVGID_00000100379257632870930000000006388701661125170873_"  style="overflow:visible;"/>
		</clipPath>
		<path style="clip-path:url(#SVGID_00000074428200151378007220000018300969409930015890_);fill:#6A3834;" d="M968.7,248.5
			c-1.2,0-2.4,0.4-3.4,1c-1,0.7-1.8,1.6-2.2,2.7c-0.4,1.1-0.6,2.3-0.3,3.5c0.2,1.2,0.8,2.3,1.7,3.1s1.9,1.4,3.1,1.7
			c1.2,0.2,2.4,0.1,3.5-0.3c1.1-0.5,2.1-1.2,2.7-2.2c0.7-1,1-2.2,1-3.4c0-0.8-0.1-1.6-0.4-2.3c-0.3-0.7-0.8-1.4-1.3-2
			c-0.6-0.6-1.2-1-2-1.3S969.5,248.5,968.7,248.5L968.7,248.5z M968.8,256.8c-0.3,0-0.6,0-0.9-0.1c-0.3-0.1-0.5-0.3-0.7-0.5
			c-0.2-0.2-0.4-0.5-0.5-0.7c-0.1-0.3-0.2-0.6-0.2-0.9c0-0.6,0.3-1.1,0.7-1.5s1-0.6,1.5-0.6c0.6,0,1.1,0.2,1.5,0.6
			c0.4,0.4,0.7,0.9,0.7,1.5c0,0.3,0,0.6-0.1,0.8c-0.1,0.3-0.3,0.5-0.5,0.7s-0.4,0.4-0.7,0.5C969.4,256.7,969.1,256.8,968.8,256.8
			L968.8,256.8z M981.5,224.1c8.7-0.2,17.2-8.8,17.1-17.6c0-6.8-5.3-11.5-12.1-10.6c-7.6,1-14.2,7-15.8,14.5
			C969.1,218.1,974,224.2,981.5,224.1L981.5,224.1z M987.7,199.7c4.3-0.1,7.1,2.7,7.1,7c0,6.6-6.9,13.5-13.4,13.6
			c-4.4,0.1-7.2-2.8-7.1-7.1C974.4,206.6,981.2,199.8,987.7,199.7L987.7,199.7z M1043,260.7c1.2,0,2.4-0.4,3.4-1
			c1-0.7,1.8-1.6,2.2-2.7c0.5-1.1,0.6-2.3,0.3-3.5c-0.2-1.2-0.8-2.3-1.7-3.1c-0.8-0.9-1.9-1.4-3.1-1.7c-1.2-0.2-2.4-0.1-3.5,0.3
			c-1.1,0.5-2.1,1.2-2.7,2.2c-0.7,1-1,2.2-1,3.4c0,0.8,0.1,1.6,0.4,2.3s0.7,1.4,1.3,2c0.6,0.6,1.2,1,2,1.3S1042.2,260.7,1043,260.7
			L1043,260.7z M1043,252.4c0.6,0,1.1,0.2,1.5,0.7c0.4,0.4,0.7,1,0.7,1.5c0,0.3-0.1,0.6-0.2,0.8c-0.1,0.3-0.3,0.5-0.5,0.7
			s-0.4,0.4-0.7,0.5c-0.3,0.1-0.5,0.2-0.8,0.2s-0.6,0-0.8-0.1c-0.3-0.1-0.5-0.2-0.7-0.4c-0.2-0.2-0.4-0.4-0.5-0.7s-0.2-0.5-0.2-0.8
			s0-0.6,0.1-0.9c0.1-0.3,0.3-0.5,0.5-0.8c0.2-0.2,0.5-0.4,0.7-0.5C1042.4,252.5,1042.7,252.4,1043,252.4L1043,252.4z M984.5,233.7
			c4.7,0,9.3-1.4,13.2-4s7-6.3,8.8-10.6s2.3-9.1,1.4-13.7c-0.9-4.6-3.2-8.8-6.5-12.2c-3.3-3.3-7.5-5.6-12.1-6.5s-9.4-0.5-13.7,1.3
			s-8.1,4.8-10.7,8.7s-4,8.5-4,13.2c0,6.3,2.5,12.3,6.9,16.7C972.2,231.1,978.2,233.6,984.5,233.7L984.5,233.7z M984.6,190.1
			c3.9,0,7.8,1.2,11,3.4c3.3,2.2,5.8,5.3,7.3,8.9s1.9,7.6,1.1,11.5c-0.8,3.9-2.7,7.4-5.5,10.2s-6.3,4.6-10.2,5.4
			c-3.9,0.8-7.8,0.3-11.5-1.2c-3.6-1.5-6.7-4.1-8.9-7.4c-2.2-3.3-3.3-7.1-3.3-11.1c0-2.6,0.5-5.2,1.5-7.6c1-2.4,2.5-4.6,4.3-6.4
			c1.8-1.8,4.1-3.3,6.5-4.3C979.4,190.6,982,190.1,984.6,190.1L984.6,190.1z M1034.2,224.7c-1,0.1-1.7,0.8-1.6,1.9
			c0,1.1,0.8,1.8,1.9,1.8c0.9,0,1.7,0,2.6,0c0.8,0,1.8,0,2.7,0c0.2,0,0.5,0,0.7-0.1s0.4-0.2,0.6-0.4s0.3-0.4,0.4-0.6
			c0.1-0.2,0.1-0.5,0.1-0.7c0.1-1.1-0.5-1.9-1.6-2C1038,224.6,1036.1,224.6,1034.2,224.7z M980.1,215.4c0.8,0.7,1.8,0.6,2.5-0.2
			c0.5-0.6,0.8-1.5,1.3-2.2c0.4-0.5,0.8-1.1,1.3-1.3c1.4-0.5,2.5-1.3,3.2-2.7c0.4-0.8,0.8-1.6,1.1-2.4c0.6-1.3-0.4-2.7-2-2.7
			c-1.3,0.2-1.9,1.3-2.3,2.6c-0.1,0.4-0.3,0.7-0.6,1s-0.6,0.5-1,0.6c-0.7,0.2-1.3,0.6-1.9,1c-0.5,0.5-1,1.1-1.2,1.8
			c-0.3,0.6-0.5,1.2-0.8,1.8C979.2,213.9,979.3,214.7,980.1,215.4L980.1,215.4z M1070.2,228.1c1.2,0.4,2-0.3,2.5-1.2v-26.7
			c-0.1-0.1-0.2-0.1-0.2-0.2c-2.1-8.6-7.3-12.7-16.1-12.7H1028c0-4.4,0-8.6,0-12.8c0-2.2-0.6-2.8-2.8-2.8c-17.5,0-35.1,0-52.6,0
			c-0.4,0-0.9,0-1.3,0.1c-1,0.3-1.6,0.9-1.5,1.9c0,1.1,0.7,1.6,1.7,1.8c0.4,0,0.9,0.1,1.3,0h51.3v68.8c-0.1,0-0.2,0.1-0.3,0.1
			c-12.8,0-25.6,0-38.4,0c-0.3,0-0.5-0.1-0.7-0.2c-0.2-0.1-0.4-0.3-0.6-0.5c-7.9-10.4-22.6-10.4-30.5,0c-0.2,0.3-0.5,0.7-0.8,0.7
			c-2.6,0.1-5.1,0-7.6,0v-68.9h1.5c5.3,0,10.5,0,15.8,0c0.4,0,0.8-0.1,1.1-0.3c0.4-0.2,0.7-0.4,0.9-0.7c1-1.3-0.2-2.9-2.1-2.9
			c-6.2,0-12.5,0-18.8,0c-1.8,0-2.4,0.7-2.4,2.5c0,26.6,0,53.2,0,79.8c0,1.9,0.6,2.5,2.6,2.5c2.1,0,4.2,0,6.2,0
			c1.7,11.2,10.6,16.8,18.4,16.9c4.2,0.1,8.2-1.2,11.5-3.7c4.4-3.3,6.9-7.7,7.7-13.2h22.4c0.4,0,0.8,0,1.2,0
			c1.1-0.1,1.9-0.8,1.9-1.8c0-0.5-0.2-1-0.5-1.3c-0.3-0.4-0.8-0.6-1.3-0.6c-0.4,0-0.8,0-1.2,0h-22.5c-0.3-1.6-0.6-3-1-4.3h38.6
			c-0.3,1.5-0.7,2.9-1,4.3c-1.3,0-2.5,0-3.8,0c-1.4,0-2.2,0.7-2.2,1.9s0.8,1.9,2.2,1.9c1.3,0,2.5,0,3.8,0
			c1.7,11.2,10.7,16.8,18.4,16.9c4.2,0.1,8.2-1.2,11.5-3.7c4.4-3.3,6.9-7.7,7.6-13.2c2.9,0,5.6,0,8.4,0c1.2,0,2-0.3,2.5-1.4v-20.6
			c-0.7-0.8-1.4-1.6-2.6-1.1s-1.3,1.5-1.3,2.5c0,2.7,0,5.4,0,8.2c-0.2,0.1-0.5,0.1-0.7,0.1c-2.8,0-5.7,0-8.5,0
			c-0.2,0-0.5-0.1-0.7-0.2c-0.2-0.1-0.4-0.2-0.6-0.4c-7.2-10.1-22-10.6-29.9-1.1c-0.1,0.1-0.3,0.2-0.4,0.3V191h1.4
			c9.2,0,18.3,0,27.5,0c7.3,0,11.8,4.6,11.8,11.9c0,7.6,0,15.2,0,22.7C1068.9,226.8,1069.1,227.8,1070.2,228.1L1070.2,228.1z
			 M949.9,252.6H945v-4.2h5.9C950.6,249.7,950.3,251.1,949.9,252.6L949.9,252.6z M968.6,269.6c-3.9-0.1-7.6-1.8-10.3-4.6
			c-2.7-2.8-4.2-6.5-4.2-10.4s1.6-7.6,4.3-10.4c2.7-2.8,6.4-4.4,10.3-4.5c8.2,0,15,6.8,14.9,15c0,4-1.7,7.7-4.5,10.5
			C976.4,268,972.6,269.6,968.6,269.6L968.6,269.6z M1068.8,248.3v4.3h-7l-1-4.3H1068.8z M1043,239.7c2.9,0,5.8,0.9,8.3,2.5
			s4.4,4,5.5,6.7s1.4,5.7,0.9,8.6c-0.6,2.9-2,5.6-4.1,7.7s-4.7,3.5-7.6,4.1s-5.9,0.3-8.6-0.8c-2.7-1.1-5.1-3-6.7-5.5
			c-1.7-2.5-2.5-5.3-2.6-8.3c0-4,1.6-7.8,4.4-10.6C1035.2,241.3,1039,239.7,1043,239.7L1043,239.7z M1061.8,220.2
			c2,0,2.6-0.7,2.6-2.6c0-4.8,0-9.6,0-14.4c0-4.7-3-7.6-7.7-7.6c-7.2,0-14.4,0-21.6,0c-2.1,0-2.6,0.6-2.6,2.7c0,6.4,0,12.9,0,19.3
			c0,2.1,0.6,2.7,2.7,2.7c4.4,0,8.8,0,13.2,0C1052.9,220.2,1057.4,220.2,1061.8,220.2L1061.8,220.2z M1036.4,199.4h1.3
			c6.3,0,12.6,0,18.9,0c2.8,0,4,1.2,4,4c0,3.9,0,7.8,0,11.7c0,0.4,0,0.7-0.1,1.2h-24.1L1036.4,199.4L1036.4,199.4z"/>
	</g>
	<g>
		<defs>
			<rect id="SVGID_00000055683853157052361900000007896432277775059892_" x="0" y="0" width="272.4" height="292.5"/>
		</defs>
		<clipPath id="SVGID_00000147910975083655479720000014619058666800353686_">
			<use xlink:href="#SVGID_00000055683853157052361900000007896432277775059892_"  style="overflow:visible;"/>
		</clipPath>
		<path style="clip-path:url(#SVGID_00000147910975083655479720000014619058666800353686_);fill:#6A3834;" d="M1259.6,119.5
			c5.2-6.5,1.1-14.6-5.3-16.3c-2.2-0.6-4.3-1.2-6.4-1.8c-1.1-0.3-2.1-0.8-2.9-1.6c-0.8-0.8-1.4-1.7-1.8-2.8
			c-0.8-2.1-1.7-4.1-2.5-6.2c-3.1-7.5-11.9-8.9-17.2-2.8c-5.9,6.8-6.9,17.1-2.4,25.1c4,7.2,10,11.8,18,13.8c1.4,0.3,2.9,0.4,4.1,0.5
			C1249.9,127.1,1255.4,124.7,1259.6,119.5z M1248.3,123c-5.2,1.5-10.1,0.6-14.6-2.1c-7-4.1-11.2-10.1-11.8-17.2
			c0.1-5.8,1.4-9.9,4.5-13.4c3.3-3.8,8.8-2.9,10.7,1.7c0.8,2,1.7,3.9,2.4,6c1.4,4,4.2,6.2,8.2,7.2c2.1,0.5,4.2,1.1,6.3,1.8
			c4.3,1.6,5.7,6.6,2.8,10.2C1254.6,120.1,1251.6,122.1,1248.3,123L1248.3,123z M1298.8,46.2h-54.6c0-2,0-3.9,0-5.8
			c0-1.7-0.8-2.4-2.4-2.4c-8,0-15.9,0-23.9,0c-1.7,0-2.4,0.7-2.5,2.4c0,1.9,0,3.8,0,5.8c-3.2,0-6.3,0-9.4,0c-2.3,0-2.9,0.6-2.9,3
			v109.3c0,2.4,0.6,3,3,3h92.8c2.4,0,3-0.6,3-2.9V49.2C1301.8,46.8,1301.3,46.2,1298.8,46.2z M1292.9,50.4c-1.9,1.3-3.5,2.4-5.2,3.4
			c-0.1,0-0.2,0.1-0.3,0c-0.1,0-0.2,0-0.3-0.1c-1.6-1.1-3.2-2.1-5.1-3.4L1292.9,50.4L1292.9,50.4z M1236.1,42.2h4v4h-4V42.2z
			 M1227.9,42.2h4v4h-4V42.2z M1219.6,42.2h4v4h-4V42.2z M1207.3,50.5h65.7v15c-5.7,2.6-12,3.8-18.2,3.3c-4.9-0.4-9.6-1.8-14-3.9
			c-10.7-5.1-21.6-5.6-32.7-1.5c-0.2,0.1-0.5,0.1-0.8,0.2V50.5z M1273,157.3h-65.8v-1.4c0-28.8,0-57.6,0-86.4c0-1.1,0.3-1.5,1.3-1.9
			c10.2-4.1,20.2-3.9,30.1,0.8c6.4,3,13,4.8,20.1,4.6c4.3-0.1,8.6-0.9,12.7-2.4c0.5-0.2,1-0.3,1.6-0.5L1273,157.3z M1277.2,52.2
			c1.4,0.9,2.7,1.7,3.9,2.6c1.4,1,3.3,1.7,4.1,3c0.7,1.3,0.2,3.3,0.2,4.9c0,28.6,0,57.2,0,85.8c0,1.2-0.4,1.9-1.4,2.6
			c-2.2,1.4-4.4,2.9-6.8,4.5L1277.2,52.2L1277.2,52.2z M1282.1,157.2c1.8-1.2,3.4-2.3,5-3.3c0.1-0.1,0.3-0.1,0.4-0.1
			c0.2,0,0.3,0,0.5,0.1c1.6,1,3.1,2.1,4.9,3.3H1282.1z M1297.7,155.5c-2.7-1.8-5.2-3.5-7.8-5.2c-0.2-0.2-0.3-0.5-0.4-0.7
			c0-0.3,0-0.7,0-1c0-29.8,0-59.6,0-89.3c0-1.2,0.4-1.8,1.4-2.4c2.3-1.4,4.5-3,6.8-4.5V155.5z M1264.4,138.8c-2.6,0-5.2,0-7.8,0
			s-5.2,0-7.8,0c-1.7,0-2.4,0.8-2.4,2.4c0,2.5,0,5,0,7.5c0,1.7,0.8,2.4,2.4,2.4c5.2,0,10.4,0,15.7,0c1.7,0,2.4-0.8,2.4-2.4
			c0-2.5,0-5,0-7.5C1266.8,139.6,1266.1,138.8,1264.4,138.8L1264.4,138.8z M1262.7,147h-12.2v-4h12.2V147z M1229.4,147.1
			c-4.5,0-9,0-13.5,0c-1.5,0-2.5,0.7-2.5,2c0,1.2,0.9,2.1,2.5,2.1c2.2,0,4.5,0,6.7,0s4.5,0,6.8,0c1.5,0,2.5-0.8,2.5-2
			C1231.9,147.9,1231,147.1,1229.4,147.1L1229.4,147.1z M1229.4,138.8c-4.5,0-9.1,0-13.6,0c-1.5,0-2.4,0.8-2.4,2.1
			c0,1.2,0.9,2,2.5,2c2.2,0,4.5,0,6.7,0s4.5,0,6.8,0c1.6,0,2.5-0.8,2.5-2.1S1230.9,138.8,1229.4,138.8L1229.4,138.8z M1230.3,94.2
			c-0.9-0.7-2-0.4-2.8,0.8c-1.8,2.7-2.6,5.6-2.7,9.5c0.1,0.7,0.2,2.1,0.5,3.4c0.2,1.4,1.1,1.9,2.2,1.7c1-0.2,1.5-1.1,1.4-2.4
			c-0.1-2-0.3-4,0-6c0.2-1.5,1-2.9,1.7-4.2C1231.2,95.8,1231.2,94.8,1230.3,94.2L1230.3,94.2z"/>
	</g>
	<g>
		<defs>
			<rect id="SVGID_00000068642205742604161120000017189077877736878015_" x="0" y="0" width="272.4" height="292.5"/>
		</defs>
		<clipPath id="SVGID_00000168114519235306230570000006284229358723248571_">
			<use xlink:href="#SVGID_00000068642205742604161120000017189077877736878015_"  style="overflow:visible;"/>
		</clipPath>
		
			<circle style="clip-path:url(#SVGID_00000168114519235306230570000006284229358723248571_);fill:#6A3834;" cx="-707.4" cy="248.5" r="27.5"/>
	</g>
	<g>
		<defs>
			<rect id="SVGID_00000150798862204910625020000014453110379049283759_" x="0" y="0" width="272.4" height="292.5"/>
		</defs>
		<clipPath id="SVGID_00000182489085334188510130000018071297269350402731_">
			<use xlink:href="#SVGID_00000150798862204910625020000014453110379049283759_"  style="overflow:visible;"/>
		</clipPath>
		<path style="clip-path:url(#SVGID_00000182489085334188510130000018071297269350402731_);fill:#D0F4A5;" d="M-703.4,231.9
			c-0.3-0.2-0.9-0.4-1.2-0.4c-1.2,0-2.1,1-2.1,1l-6.7,13.1c-0.2,0.5-0.4,1-0.4,1.4c0,1.2,1.2,1.3,2,1.3c0.1,0,0.2,0,0.3,0
			c0.6-0.4,4.9-8.8,5.1-9.3c0,0.2-1,19.5-1,24.3c0,0.2,0,0.4,0,0.6c0.1,0.8,0.3,1.2,1.2,1.2c1.2,0,2.6-1.1,2.6-1.1s0.5-19.4,0.5-28
			C-703.1,233.5-703.2,232.1-703.4,231.9z"/>
	</g>
	<g>
		<defs>
			<rect id="SVGID_00000164497241164232028180000007132861868345217409_" x="0" y="0" width="272.4" height="292.5"/>
		</defs>
		<clipPath id="SVGID_00000129909245356003039730000009585304539350703539_">
			<use xlink:href="#SVGID_00000164497241164232028180000007132861868345217409_"  style="overflow:visible;"/>
		</clipPath>
		
			<circle style="clip-path:url(#SVGID_00000129909245356003039730000009585304539350703539_);fill:#6A3834;" cx="-462.4" cy="65.5" r="27.5"/>
	</g>
	<g>
		<defs>
			<rect id="SVGID_00000155112514978464323250000013045072249354877599_" x="0" y="0" width="272.4" height="292.5"/>
		</defs>
		<clipPath id="SVGID_00000110438622043400630650000012735547049274380969_">
			<use xlink:href="#SVGID_00000155112514978464323250000013045072249354877599_"  style="overflow:visible;"/>
		</clipPath>
		<path style="clip-path:url(#SVGID_00000110438622043400630650000012735547049274380969_);fill:#D0F4A5;" d="M-467.9,57.9
			c0.3,0.4,0.8,0.6,1.2,0.6c2,0,1.9-2.2,1.9-2.2c0.2-4,1.6-4.5,2.3-4.5c1.6,0,2.1,1.7,2.1,3.4c0,3.5-1.8,8.6-5.1,15
			c-1.1,2-4.3,7.3-4.3,9.3c0.1,1.3,1.2,2.2,2.3,2.2c0.3,0,1.9,0,3.2,0c2.2,0,4.8-0.1,6.1-0.1c0.8,0,1.7-0.5,1.7-1.8
			c0-1.2-0.7-1.5-1.8-1.5h-0.4c-0.6,0-1.9,0-6.7,0l4.3-8.9c1-1.8,4.4-8.5,4.4-14.2c0-5.3-3.4-6.5-5.4-6.5c-5.3,0-6.1,4.3-6.1,7
			C-468.2,56.6-468,57.7-467.9,57.9z"/>
	</g>
	<g>
		<defs>
			<rect id="SVGID_00000139994961517159492630000002774396167818843324_" x="0" y="0" width="272.4" height="292.5"/>
		</defs>
		<clipPath id="SVGID_00000049906830536290109300000014090860573932670373_">
			<use xlink:href="#SVGID_00000139994961517159492630000002774396167818843324_"  style="overflow:visible;"/>
		</clipPath>
		
			<circle style="clip-path:url(#SVGID_00000049906830536290109300000014090860573932670373_);fill:#6A3834;" cx="27.6" cy="65.5" r="27.5"/>
	</g>
	<g>
		<defs>
			<rect id="SVGID_00000163782330463648181360000004559307328315726767_" x="0" y="0" width="272.4" height="292.5"/>
		</defs>
		<clipPath id="SVGID_00000071547688518488540860000016035074871928865978_">
			<use xlink:href="#SVGID_00000163782330463648181360000004559307328315726767_"  style="overflow:visible;"/>
		</clipPath>
		<path style="clip-path:url(#SVGID_00000071547688518488540860000016035074871928865978_);fill:#D0F4A5;" d="M28.3,52.9l0.8-2.4
			c-0.2-1.1-0.9-1.6-2-1.6c-0.2,0-0.3,0-0.9,0.1c-0.5,1.3-3.2,8.5-6.6,18.6l-0.2,1.1c0,2,0.7,2,2.8,2h2.4c1.3,0,2.8,0,3.9,0
			c-0.1,3.7-0.2,6.9-0.2,10.5c0.2,1.1,0.7,1.1,1.2,1.1c2.1,0,2.2-1.3,2.3-2.8c0-2.9,0.2-6,0.2-8.9h1.2c1.1,0,1.7-0.1,2.2-0.7
			c0.3-0.4,0.5-0.8,0.5-1.2c0-1-0.8-1.2-1.5-1.2h-2.2V57.3c-0.5-0.2-0.8-0.3-1-0.3c-1.1,0-1.9,0.5-2.2,1.9c-0.4,2.1-0.4,3.9-0.5,5.7
			c0,0.9,0,1.8,0,2.7H23C24.4,64.4,26.5,57.9,28.3,52.9z"/>
	</g>
	<g>
		<defs>
			<rect id="SVGID_00000149357085688251035630000008105804716851686841_" x="0" y="0" width="272.4" height="292.5"/>
		</defs>
		<clipPath id="SVGID_00000183246751567352107290000005439314570269883797_">
			<use xlink:href="#SVGID_00000149357085688251035630000008105804716851686841_"  style="overflow:visible;"/>
		</clipPath>
		
			<circle style="clip-path:url(#SVGID_00000183246751567352107290000005439314570269883797_);fill:#6A3834;" cx="517.6" cy="65.5" r="27.5"/>
	</g>
	<g>
		<defs>
			<rect id="SVGID_00000165194862916225623770000003514212350066321571_" x="0" y="0" width="272.4" height="292.5"/>
		</defs>
		<clipPath id="SVGID_00000066487833950495220780000012288985739713919401_">
			<use xlink:href="#SVGID_00000165194862916225623770000003514212350066321571_"  style="overflow:visible;"/>
		</clipPath>
		<path style="clip-path:url(#SVGID_00000066487833950495220780000012288985739713919401_);fill:#D0F4A5;" d="M524,54.5
			c0-2.2-0.8-6-5.5-6c-6.2,0-6.9,6.1-6.9,13.4v8c0,5.9,0.6,11.8,5.6,11.8c7.1,0,7.4-6,7.4-11.3c0-6.8-2.4-9.2-6.3-9.2
			c-0.9,0-1.9,0.1-3,0.6V61c0-2,0.3-9.6,3.2-10c0,0,1.9,0.3,1.9,3.6v0.8c0,0,1.3,1.2,2.3,1.2C523.8,56.5,524,55.2,524,54.5z
			 M518.1,64c2.6,0.2,2.6,3.4,2.6,7.8c0,2-0.3,7.3-2.9,7.3c-1.7,0-2.7-4.2-2.7-11.2c0-0.8,0-1.7,0-2.7C516,64.6,516.9,64,518.1,64z"
			/>
	</g>
	<g>
		<defs>
			<rect id="SVGID_00000094618413827787235670000012052115475448973233_" x="0" y="0" width="272.4" height="292.5"/>
		</defs>
		<clipPath id="SVGID_00000099640304096674684880000008744421516722419123_">
			<use xlink:href="#SVGID_00000094618413827787235670000012052115475448973233_"  style="overflow:visible;"/>
		</clipPath>
		
			<circle style="clip-path:url(#SVGID_00000099640304096674684880000008744421516722419123_);fill:#6A3834;" cx="1007.6" cy="65.5" r="27.5"/>
	</g>
	<g>
		<defs>
			<rect id="SVGID_00000039811843914706297050000000445155586155517617_" x="0" y="0" width="272.4" height="292.5"/>
		</defs>
		<clipPath id="SVGID_00000179644571257497162310000009881514903175019911_">
			<use xlink:href="#SVGID_00000039811843914706297050000000445155586155517617_"  style="overflow:visible;"/>
		</clipPath>
		<path style="clip-path:url(#SVGID_00000179644571257497162310000009881514903175019911_);fill:#D0F4A5;" d="M1008.7,48.6
			c-4.1,0-6.7,2.6-6.7,8c0,3.6,0.8,5.8,2.3,7c-2,1.6-2.8,4.4-2.8,7.4c0,5.6,0.6,10.9,5.9,10.9c7.2,0,7.2-6.1,7.2-11.8
			c0-2.6-0.9-5-2.5-6.5c1.7-1.1,2.4-3.4,2.4-7.2C1014.6,51.9,1012.8,48.6,1008.7,48.6z M1010.9,56v1.5c-0.1,1.3-0.6,4.6-2.6,4.6
			c-1.4,0-2.4-1.5-2.4-5.9c0-3.8,1.2-5,2.8-5C1010.5,51.2,1010.9,53.9,1010.9,56z M1007.8,79.2c-2.2,0-2.4-4.8-2.4-8.8
			c0-4.2,1.3-5.5,2.8-5.5c2.3,0,2.7,3.6,2.7,6C1010.9,76.6,1009.8,79.2,1007.8,79.2z"/>
	</g>
	<g>
		<defs>
			<rect id="SVGID_00000055678086163737275070000009183651798558186937_" x="0" y="0" width="272.4" height="292.5"/>
		</defs>
		<clipPath id="SVGID_00000144308799498014795560000013015165266704544158_">
			<use xlink:href="#SVGID_00000055678086163737275070000009183651798558186937_"  style="overflow:visible;"/>
		</clipPath>
		
			<circle style="clip-path:url(#SVGID_00000144308799498014795560000013015165266704544158_);fill:#6A3834;" cx="-217.4" cy="248.5" r="27.5"/>
	</g>
	<g>
		<defs>
			<rect id="SVGID_00000139256114757630889600000000362783677545369002_" x="0" y="0" width="272.4" height="292.5"/>
		</defs>
		<clipPath id="SVGID_00000100346698174891107330000006638898746252229292_">
			<use xlink:href="#SVGID_00000139256114757630889600000000362783677545369002_"  style="overflow:visible;"/>
		</clipPath>
		<path style="clip-path:url(#SVGID_00000100346698174891107330000006638898746252229292_);fill:#D0F4A5;" d="M-222.6,238.5
			c0.2,0.3,0.5,0.4,0.9,0.4c0.6,0,2.3-0.6,2.3-1.5c0-1.2,0.4-3.5,2-3.5c1.3,0,1.8,2.1,1.8,3.9c0,5.3-1.4,6.2-2.2,6.7
			c-0.2,0-0.5,0-0.8,0c-1,0-1.9,0-1.9,1.6c0,0.9,0.3,1.4,1.3,1.4c3.3,0,4,3.1,4,6.1v0.9c0,3.2-0.5,7.8-2.8,7.8
			c-1.8,0-1.8-1.7-1.8-3.2c0-1.2,0-2.4-0.7-2.9c-0.3-0.3-0.7-0.4-1.1-0.4c-1.2,0-2.1,1.1-2.1,1.1c0,6.2,1.5,8.1,5.9,8.1
			c5.4,0,6.5-4.8,6.5-12.5c0-4.4-1.9-6-3.2-6.6c1.8-1.2,2.6-4.3,2.6-7.2c0-3.4-0.7-7.6-5.1-7.6c-4.7,0-5.7,3.5-5.7,5.5
			C-222.8,237.6-222.6,238.3-222.6,238.5z"/>
	</g>
	<g>
		<defs>
			<rect id="SVGID_00000135679077859042477300000013678937454367382657_" x="0" y="0" width="272.4" height="292.5"/>
		</defs>
		<clipPath id="SVGID_00000006704186254704948870000010022131737571958933_">
			<use xlink:href="#SVGID_00000135679077859042477300000013678937454367382657_"  style="overflow:visible;"/>
		</clipPath>
		
			<circle style="clip-path:url(#SVGID_00000006704186254704948870000010022131737571958933_);fill:#6A3834;" cx="272.6" cy="248.5" r="27.5"/>
	</g>
	<g>
		<defs>
			<rect id="SVGID_00000076602632188345364760000013859618115724906922_" x="0" y="0" width="272.4" height="292.5"/>
		</defs>
		<clipPath id="SVGID_00000021799999531106733740000000504350580288019381_">
			<use xlink:href="#SVGID_00000076602632188345364760000013859618115724906922_"  style="overflow:visible;"/>
		</clipPath>
		<path style="clip-path:url(#SVGID_00000021799999531106733740000000504350580288019381_);fill:#D0F4A5;" d="M269.6,245.3h0.9
			c4.6,0,4.9,1.7,4.9,7.1v2.9c0,3.6-0.2,6.9-2.8,6.9c-2.1,0-2.6-1.9-2.6-3.6c0-2.6,0-3-1.6-3c-1.5,0-1.8,1.5-1.8,1.5
			c0.1,4.3,0.7,7.9,5.8,7.9c6.4,0,6.6-4.8,6.6-13.9c0-6.6-2.9-7.7-3.8-8.2c-1.1-0.5-2.4-0.8-3.3-0.8h-0.8v-6.9
			c0,0.1,1.7,0.1,3.7,0.1h1.8c0.6,0,1.5-0.8,1.5-1.7c0-1.8-2.7-1.7-3.8-1.7c-3,0-5.4,0.1-6,0.4c-0.6,0.3-0.6,1.5-0.6,1.5l0.1,9.7
			C268,245.2,268.8,245.3,269.6,245.3z"/>
	</g>
	<g>
		<defs>
			<rect id="SVGID_00000062882652937790976480000017881055747704357763_" x="0" y="0" width="272.4" height="292.5"/>
		</defs>
		<clipPath id="SVGID_00000000924475192667690810000013907292223703408799_">
			<use xlink:href="#SVGID_00000062882652937790976480000017881055747704357763_"  style="overflow:visible;"/>
		</clipPath>
		
			<circle style="clip-path:url(#SVGID_00000000924475192667690810000013907292223703408799_);fill:#6A3834;" cx="762.6" cy="248.5" r="27.5"/>
	</g>
	<g>
		<defs>
			<rect id="SVGID_00000083793548967989391520000008068307671099217572_" x="0" y="0" width="272.4" height="292.5"/>
		</defs>
		<clipPath id="SVGID_00000064320784462661546050000005639899386061731725_">
			<use xlink:href="#SVGID_00000083793548967989391520000008068307671099217572_"  style="overflow:visible;"/>
		</clipPath>
		<path style="clip-path:url(#SVGID_00000064320784462661546050000005639899386061731725_);fill:#D0F4A5;" d="M758.3,232.2l-0.3,0.2
			c0,0-0.7,0.9-0.7,1.8c0,0.6,0.4,1.2,1.3,1.3c0.4,0.1,1.2,0.1,2.2,0.1c2.5,0,4.1,0,4.8,0l-7.2,27.5c-0.1,0.3-0.1,0.6-0.1,0.7
			c0,0.8,0.5,1.1,1.6,1.1c0.9,0,1.8-0.1,2.3-1.3l7.2-29.3c0,0-0.4-2.1-2.1-2.1c-0.7,0-1.3,0-2,0L758.3,232.2L758.3,232.2z"/>
	</g>
	<g>
		<defs>
			<rect id="SVGID_00000168109807263117905620000001103939330567955866_" x="0" y="0" width="272.4" height="292.5"/>
		</defs>
		<clipPath id="SVGID_00000165950260462187859100000001890167352580250799_">
			<use xlink:href="#SVGID_00000168109807263117905620000001103939330567955866_"  style="overflow:visible;"/>
		</clipPath>
		
			<circle style="clip-path:url(#SVGID_00000165950260462187859100000001890167352580250799_);fill:#6A3834;" cx="1252.6" cy="248.5" r="27.5"/>
	</g>
	<g>
		<defs>
			<rect id="SVGID_00000118373602928003757470000007256065288947898265_" x="0" y="0" width="272.4" height="292.5"/>
		</defs>
		<clipPath id="SVGID_00000181062739327281257590000002158729773762064829_">
			<use xlink:href="#SVGID_00000118373602928003757470000007256065288947898265_"  style="overflow:visible;"/>
		</clipPath>
		<path style="clip-path:url(#SVGID_00000181062739327281257590000002158729773762064829_);fill:#D0F4A5;" d="M1247,258.8
			c0,2.2,0.7,5.9,5.6,5.9c6.1,0,6.8-6.1,6.8-13.4v-8c0-5.9-0.6-11.8-5.6-11.8c-7.1,0-7.4,6-7.4,11.3c0,6.7,2.4,9.2,6.3,9.2
			c0.9,0,1.9-0.1,2.9-0.6v0.8c0,2,0,10-3,10c-0.3,0-2.1,0-2.1-3.6v-0.8c0,0-1.3-1.2-2.2-1.2C1247.2,256.7,1247,258.1,1247,258.8z
			 M1253,249.3c-2.6,0-2.7-3.4-2.7-7.8c0-2,0.3-7.3,2.9-7.3c1.7,0,2.6,4.2,2.6,11.2c0,0.9,0,1.7,0,2.7
			C1255,248.8,1254,249.3,1253,249.3z"/>
	</g>
</g>
</svg>
