<svg width="1320" height="23" viewBox="0 0 1320 23" fill="none" xmlns="http://www.w3.org/2000/svg">
<path d="M-18 0.0190711V15.2844C-17.2765 16.5914 -16.9076 15.9618 -16.2564 16.2384C-15.9634 16.0698 -15.6452 15.9908 -15.3257 16.0073C-15.0062 16.0239 -14.6937 16.1355 -14.4116 16.3339C-13.3843 15.0649 -12.1616 17.3547 -11.1415 16.3339C-10.0418 16.3339 -9.16645 18.3756 -8.06677 17.8699C-6.72835 18.2992 -5.36823 17.2116 -4.16004 17.2211C-2.55394 16.3815 -1.16488 14.1395 0.578682 12.5462C0.940416 13.1281 1.729 11.6589 2.07626 12.5462C3.20487 12.3267 4.71692 10.2659 5.78766 12.7847C6.74264 12.7847 7.58186 12.279 8.68153 13.4144C9.48458 11.2963 9.02156 12.1454 10.0706 11.9832C10.9098 12.7656 11.9444 9.58849 12.8125 11.3726C14.2016 11.0482 14.6574 10.1419 15.8149 13.443C17.5657 13.7388 20.7996 13.214 22.6011 13.6243C24.2578 13.9964 26.1461 10.762 27.8173 13.6243C29.0255 13.2999 30.3277 15.2748 31.4346 14.731C32.7916 14.88 34.1111 15.393 35.3124 16.2384C37.3815 15.8854 39.8413 14.5497 41.9466 16.3625C43.3357 16.7059 44.7465 16.2194 46.1283 16.3625C47.5752 14.7596 48.494 18.3374 49.9627 18.0321C51.3011 18.2802 52.9361 18.9862 54.2311 17.9653C54.6652 19.0243 54.9546 18.9671 55.4104 18.5664C56.0726 18.3708 56.7594 18.3708 57.4216 18.5664C57.8123 17.5455 58.3404 18.2706 58.7166 18.4901C59.2231 18.4901 59.4401 18.0798 59.9031 17.0208C60.5398 17.1162 61.9505 18.2229 62.5944 16.9349C63.6796 16.7823 64.7648 17.6696 65.7488 17.4597C67.1957 18.8145 68.223 19.6445 70.0028 19.6731C71.3122 17.66 72.6651 19.1198 73.9746 19.6731C75.1057 20.066 76.3036 19.9553 77.3821 19.3583C77.7366 19.2438 78.0188 18.1943 78.3878 18.5855C79.1112 19.1579 79.9649 18.5855 80.7535 18.0417C82.0123 17.6219 83.2784 18.9957 84.5372 18.0417C85.3909 18.6523 87.0839 20.0548 87.858 17.9462C88.4006 15.084 88.5814 16.0858 89.124 16.0381C90.3539 14.9314 92.5678 16.4483 93.993 15.3798C94.7165 16.019 94.6224 15.1031 95.4399 15.7042C96.5613 14.7501 97.415 19.9403 98.587 18.1466C99.9182 17.7459 101.264 19.7208 102.653 18.6236C104.252 18.8622 105.851 19.5777 107.45 18.6236C107.855 18.8908 108.397 19.406 108.795 18.5568C110.025 19.5109 110.314 20.1502 111.378 20.7226C112.311 22.6308 113.396 21.3714 114.351 20.7226C115.683 18.471 116.876 21.4859 118.244 21.2855C119.611 19.9594 120.978 21.2378 122.346 21.2855C123.269 20.9519 124.244 20.9519 125.167 21.2855C125.891 20.3314 126.614 23.3559 127.338 21.8771C129.306 22.4877 131.425 21.6385 133.219 20.6654C134.297 20.57 135.151 19.0053 136.273 18.6427C136.859 19.2056 137.22 16.4674 137.763 17.7745C138.551 16.954 139.354 18.1847 140.215 17.536C141.474 19.7208 142.827 16.7536 144.079 17.536C145.902 18.4233 147.211 16.6582 148.832 14.4734C149.83 14.3875 151.27 15.3702 152.348 14.2158C153.737 15.3989 154.851 14.2635 156.168 15.2367C156.588 14.7119 157.014 18.0226 157.434 15.4466C157.846 15.5706 158.259 17.0685 158.678 16.3148C160.972 15.2653 163.381 20.1311 165.812 18.0607C167.36 17.5169 168.923 18.7286 170.471 17.9939C172.026 16.7727 173.567 17.3261 175.072 18.4614C176.374 19.9116 177.662 21.0565 178.878 17.9271C180.136 15.208 180.766 16.5437 182.155 16.9731C184.606 16.6582 187.075 16.6582 189.527 16.9731C190.938 17.6409 192.356 17.2307 193.767 16.9731C195.177 16.7155 196.089 16.2194 197.384 17.5265C199.981 18.3756 202.448 16.4769 204.749 18.5855C205.733 19.5395 206.803 22.0965 207.816 20.1883C209.444 20.1883 210.992 21.7339 212.808 22.3064C214.87 23.2605 216.426 20.6081 218.401 21.3523C221.027 22.23 223.595 18.948 226.294 20.7226C227.936 19.7685 230.237 21.629 231.792 20.6367C233.029 20.4745 233.594 19.6827 235.019 18.5473C236.263 17.1639 237.638 20.8276 238.875 18.4996C240.199 18.9289 241.393 18.9194 242.716 19.6922C243.628 21.9534 244.612 18.595 245.524 19.635C247.057 19.7876 248.598 18.0607 250.132 19.635C251.673 19.635 253.207 19.4823 254.741 19.635C256.405 16.7727 258.09 20.8085 259.689 20.3028C261.136 22.4686 262.04 22.2587 263.646 22.3636C265.47 23.8902 266.671 21.7435 268.378 21.0947C269.89 21.1469 271.401 20.9806 272.885 20.5986C274.5 20.632 276.095 20.1161 277.515 19.1007C279.187 18.7954 280.409 16.1526 282.326 18.013C284.772 19.1865 287.217 19.6636 289.662 18.013C291.109 19.1102 292.079 17.7077 293.49 17.4787C295.399 16.1049 297.172 18.5091 299.053 17.8985C300.948 18.2515 302.974 19.5968 304.891 18.5473C306.268 18.5793 307.594 19.2363 308.646 20.4078C310.202 21.9057 312.191 19.2915 313.87 20.7131C315.28 21.6672 316.25 19.759 317.559 19.654C318.782 19.7208 321.741 19.9212 322.421 17.4787C322.651 15.113 323.031 12.7769 323.557 10.4949V10.4949V0L-18 0.0190711Z" fill="#D0F4A5"/>
<path d="M318.4 0.0190711V15.2844C319.123 16.5914 319.492 15.9618 320.143 16.2384C320.437 16.0698 320.755 15.9908 321.074 16.0073C321.394 16.0239 321.706 16.1355 321.988 16.3339C323.016 15.0649 324.238 17.3547 325.258 16.3339C326.358 16.3339 327.233 18.3756 328.333 17.8699C329.672 18.2992 331.032 17.2116 332.24 17.2211C333.846 16.3815 335.235 14.1395 336.979 12.5462C337.34 13.1281 338.129 11.6589 338.476 12.5462C339.605 12.3267 341.117 10.2659 342.188 12.7847C343.143 12.7847 343.982 12.279 345.081 13.4144C345.884 11.2963 345.421 12.1454 346.47 11.9832C347.31 12.7656 348.344 9.58849 349.212 11.3726C350.602 11.0482 351.057 10.1419 352.215 13.443C353.966 13.7388 357.2 13.214 359.001 13.6243C360.658 13.9964 362.546 10.762 364.217 13.6243C365.425 13.2999 366.728 15.2748 367.835 14.731C369.191 14.88 370.511 15.393 371.712 16.2384C373.781 15.8854 376.241 14.5497 378.347 16.3625C379.736 16.7059 381.146 16.2194 382.528 16.3625C383.975 14.7596 384.894 18.3374 386.363 18.0321C387.701 18.2802 389.336 18.9862 390.631 17.9653C391.065 19.0243 391.355 18.9671 391.81 18.5664C392.473 18.3708 393.159 18.3708 393.822 18.5664C394.212 17.5455 394.74 18.2706 395.117 18.4901C395.623 18.4901 395.84 18.0798 396.303 17.0208C396.94 17.1162 398.35 18.2229 398.994 16.9349C400.08 16.7823 401.165 17.6696 402.149 17.4597C403.596 18.8145 404.623 19.6445 406.403 19.6731C407.712 17.66 409.065 19.1198 410.375 19.6731C411.506 20.066 412.703 19.9553 413.782 19.3583C414.137 19.2438 414.419 18.1943 414.788 18.5855C415.511 19.1579 416.365 18.5855 417.153 18.0417C418.412 17.6219 419.678 18.9957 420.937 18.0417C421.791 18.6523 423.484 20.0548 424.258 17.9462C424.8 15.084 424.981 16.0858 425.524 16.0381C426.754 14.9314 428.968 16.4483 430.393 15.3798C431.116 16.019 431.022 15.1031 431.84 15.7042C432.961 14.7501 433.815 19.9403 434.987 18.1466C436.318 17.7459 437.664 19.7208 439.053 18.6236C440.652 18.8622 442.251 19.5777 443.849 18.6236C444.255 18.8908 444.797 19.406 445.195 18.5568C446.425 19.5109 446.714 20.1502 447.778 20.7226C448.711 22.6308 449.796 21.3714 450.751 20.7226C452.082 18.471 453.276 21.4859 454.644 21.2855C456.011 19.9594 457.378 21.2378 458.746 21.2855C459.669 20.9519 460.644 20.9519 461.567 21.2855C462.291 20.3314 463.014 23.3559 463.738 21.8771C465.705 22.4877 467.825 21.6385 469.619 20.6654C470.697 20.57 471.551 19.0053 472.672 18.6427C473.258 19.2056 473.62 16.4674 474.163 17.7745C474.951 16.954 475.754 18.1847 476.615 17.536C477.874 19.7208 479.227 16.7536 480.479 17.536C482.302 18.4233 483.611 16.6582 485.232 14.4734C486.23 14.3875 487.67 15.3702 488.748 14.2158C490.137 15.3989 491.251 14.2635 492.568 15.2367C492.987 14.7119 493.414 18.0226 493.834 15.4466C494.246 15.5706 494.659 17.0685 495.078 16.3148C497.372 15.2653 499.781 20.1311 502.212 18.0607C503.76 17.5169 505.323 18.7286 506.871 17.9939C508.426 16.7727 509.967 17.3261 511.472 18.4614C512.774 19.9116 514.062 21.0565 515.277 17.9271C516.536 15.208 517.166 16.5437 518.555 16.9731C521.006 16.6582 523.475 16.6582 525.927 16.9731C527.338 17.6409 528.756 17.2307 530.166 16.9731C531.577 16.7155 532.489 16.2194 533.784 17.5265C536.381 18.3756 538.848 16.4769 541.149 18.5855C542.133 19.5395 543.203 22.0965 544.216 20.1883C545.844 20.1883 547.392 21.7339 549.208 22.3064C551.27 23.2605 552.826 20.6081 554.801 21.3523C557.427 22.23 559.995 18.948 562.694 20.7226C564.336 19.7685 566.637 21.629 568.192 20.6367C569.429 20.4745 569.993 19.6827 571.419 18.5473C572.663 17.1639 574.038 20.8276 575.275 18.4996C576.599 18.9289 577.792 18.9194 579.116 19.6922C580.028 21.9534 581.012 18.595 581.923 19.635C583.457 19.7876 584.998 18.0607 586.532 19.635C588.073 19.635 589.607 19.4823 591.14 19.635C592.804 16.7727 594.49 20.8085 596.089 20.3028C597.536 22.4686 598.44 22.2587 600.046 22.3636C601.869 23.8902 603.07 21.7435 604.778 21.0947C606.289 21.1469 607.801 20.9806 609.285 20.5986C610.9 20.632 612.495 20.1161 613.915 19.1007C615.586 18.7954 616.809 16.1526 618.726 18.013C621.172 19.1865 623.617 19.6636 626.062 18.013C627.509 19.1102 628.479 17.7077 629.889 17.4787C631.799 16.1049 633.572 18.5091 635.453 17.8985C637.348 18.2515 639.374 19.5968 641.291 18.5473C642.668 18.5793 643.994 19.2363 645.046 20.4078C646.602 21.9057 648.591 19.2915 650.27 20.7131C651.68 21.6672 652.65 19.759 653.959 19.654C655.182 19.7208 658.141 19.9212 658.821 17.4787C659.051 15.113 659.431 12.7769 659.957 10.4949V10.4949V0L318.4 0.0190711Z" fill="#D0F4A5"/>
<path d="M648.161 0.0190711V15.2844C648.884 16.5914 649.253 15.9618 649.904 16.2384C650.197 16.0698 650.515 15.9908 650.835 16.0073C651.154 16.0239 651.467 16.1355 651.749 16.3339C652.776 15.0649 653.999 17.3547 655.019 16.3339C656.119 16.3339 656.994 18.3756 658.094 17.8699C659.432 18.2992 660.792 17.2116 662.001 17.2211C663.607 16.3815 664.996 14.1395 666.739 12.5462C667.101 13.1281 667.89 11.6589 668.237 12.5462C669.366 12.3267 670.878 10.2659 671.948 12.7847C672.903 12.7847 673.743 12.279 674.842 13.4144C675.645 11.2963 675.182 12.1454 676.231 11.9832C677.07 12.7656 678.105 9.58849 678.973 11.3726C680.362 11.0482 680.818 10.1419 681.976 13.443C683.726 13.7388 686.96 13.214 688.762 13.6243C690.418 13.9964 692.307 10.762 693.978 13.6243C695.186 13.2999 696.488 15.2748 697.595 14.731C698.952 14.88 700.272 15.393 701.473 16.2384C703.542 15.8854 706.002 14.5497 708.107 16.3625C709.496 16.7059 710.907 16.2194 712.289 16.3625C713.736 14.7596 714.655 18.3374 716.123 18.0321C717.462 18.2802 719.097 18.9862 720.392 17.9653C720.826 19.0243 721.115 18.9671 721.571 18.5664C722.233 18.3708 722.92 18.3708 723.582 18.5664C723.973 17.5455 724.501 18.2706 724.877 18.4901C725.384 18.4901 725.601 18.0798 726.064 17.0208C726.7 17.1162 728.111 18.2229 728.755 16.9349C729.84 16.7823 730.925 17.6696 731.909 17.4597C733.356 18.8145 734.384 19.6445 736.163 19.6731C737.473 17.66 738.826 19.1198 740.135 19.6731C741.266 20.066 742.464 19.9553 743.543 19.3583C743.897 19.2438 744.179 18.1943 744.548 18.5855C745.272 19.1579 746.126 18.5855 746.914 18.0417C748.173 17.6219 749.439 18.9957 750.698 18.0417C751.552 18.6523 753.245 20.0548 754.019 17.9462C754.561 15.084 754.742 16.0858 755.285 16.0381C756.515 14.9314 758.728 16.4483 760.154 15.3798C760.877 16.019 760.783 15.1031 761.601 15.7042C762.722 14.7501 763.576 19.9403 764.748 18.1466C766.079 17.7459 767.424 19.7208 768.814 18.6236C770.412 18.8622 772.011 19.5777 773.61 18.6236C774.015 18.8908 774.558 19.406 774.956 18.5568C776.186 19.5109 776.475 20.1502 777.539 20.7226C778.472 22.6308 779.557 21.3714 780.512 20.7226C781.843 18.471 783.037 21.4859 784.404 21.2855C785.772 19.9594 787.139 21.2378 788.506 21.2855C789.43 20.9519 790.404 20.9519 791.328 21.2855C792.051 20.3314 792.775 23.3559 793.498 21.8771C795.466 22.4877 797.586 21.6385 799.38 20.6654C800.458 20.57 801.312 19.0053 802.433 18.6427C803.019 19.2056 803.381 16.4674 803.924 17.7745C804.712 16.954 805.515 18.1847 806.376 17.536C807.635 19.7208 808.988 16.7536 810.239 17.536C812.063 18.4233 813.372 16.6582 814.993 14.4734C815.991 14.3875 817.431 15.3702 818.509 14.2158C819.898 15.3989 821.012 14.2635 822.329 15.2367C822.748 14.7119 823.175 18.0226 823.595 15.4466C824.007 15.5706 824.419 17.0685 824.839 16.3148C827.132 15.2653 829.542 20.1311 831.972 18.0607C833.521 17.5169 835.083 18.7286 836.632 17.9939C838.187 16.7727 839.728 17.3261 841.233 18.4614C842.535 19.9116 843.823 21.0565 845.038 17.9271C846.297 15.208 846.926 16.5437 848.316 16.9731C850.767 16.6582 853.236 16.6582 855.688 16.9731C857.098 17.6409 858.516 17.2307 859.927 16.9731C861.338 16.7155 862.25 16.2194 863.545 17.5265C866.142 18.3756 868.609 16.4769 870.909 18.5855C871.893 19.5395 872.964 22.0965 873.977 20.1883C875.605 20.1883 877.153 21.7339 878.969 22.3064C881.031 23.2605 882.586 20.6081 884.561 21.3523C887.188 22.23 889.756 18.948 892.454 20.7226C894.097 19.7685 896.397 21.629 897.953 20.6367C899.19 20.4745 899.754 19.6827 901.179 18.5473C902.424 17.1639 903.798 20.8276 905.036 18.4996C906.359 18.9289 907.553 18.9194 908.877 19.6922C909.789 21.9534 910.773 18.595 911.684 19.635C913.218 19.7876 914.759 18.0607 916.293 19.635C917.834 19.635 919.367 19.4823 920.901 19.635C922.565 16.7727 924.251 20.8085 925.85 20.3028C927.297 22.4686 928.201 22.2587 929.807 22.3636C931.63 23.8902 932.831 21.7435 934.539 21.0947C936.05 21.1469 937.562 20.9806 939.046 20.5986C940.661 20.632 942.256 20.1161 943.676 19.1007C945.347 18.7954 946.57 16.1526 948.487 18.013C950.932 19.1865 953.378 19.6636 955.823 18.013C957.27 19.1102 958.239 17.7077 959.65 17.4787C961.56 16.1049 963.333 18.5091 965.214 17.8985C967.109 18.2515 969.135 19.5968 971.052 18.5473C972.429 18.5793 973.755 19.2363 974.807 20.4078C976.362 21.9057 978.352 19.2915 980.03 20.7131C981.441 21.6672 982.411 19.759 983.72 19.654C984.943 19.7208 987.902 19.9212 988.582 17.4787C988.812 15.113 989.192 12.7769 989.718 10.4949V10.4949V0L648.161 0.0190711Z" fill="#D0F4A5"/>
<path d="M978.443 0.0190711V15.2844C979.167 16.5914 979.536 15.9618 980.187 16.2384C980.48 16.0698 980.798 15.9908 981.118 16.0073C981.437 16.0239 981.75 16.1355 982.032 16.3339C983.059 15.0649 984.282 17.3547 985.302 16.3339C986.402 16.3339 987.277 18.3756 988.377 17.8699C989.715 18.2992 991.075 17.2116 992.283 17.2211C993.889 16.3815 995.278 14.1395 997.022 12.5462C997.384 13.1281 998.172 11.6589 998.52 12.5462C999.648 12.3267 1001.16 10.2659 1002.23 12.7847C1003.19 12.7847 1004.03 12.279 1005.12 13.4144C1005.93 11.2963 1005.46 12.1454 1006.51 11.9832C1007.35 12.7656 1008.39 9.58849 1009.26 11.3726C1010.64 11.0482 1011.1 10.1419 1012.26 13.443C1014.01 13.7388 1017.24 13.214 1019.04 13.6243C1020.7 13.9964 1022.59 10.762 1024.26 13.6243C1025.47 13.2999 1026.77 15.2748 1027.88 14.731C1029.23 14.88 1030.55 15.393 1031.76 16.2384C1033.82 15.8854 1036.28 14.5497 1038.39 16.3625C1039.78 16.7059 1041.19 16.2194 1042.57 16.3625C1044.02 14.7596 1044.94 18.3374 1046.41 18.0321C1047.74 18.2802 1049.38 18.9862 1050.67 17.9653C1051.11 19.0243 1051.4 18.9671 1051.85 18.5664C1052.52 18.3708 1053.2 18.3708 1053.86 18.5664C1054.26 17.5455 1054.78 18.2706 1055.16 18.4901C1055.67 18.4901 1055.88 18.0798 1056.35 17.0208C1056.98 17.1162 1058.39 18.2229 1059.04 16.9349C1060.12 16.7823 1061.21 17.6696 1062.19 17.4597C1063.64 18.8145 1064.67 19.6445 1066.45 19.6731C1067.76 17.66 1069.11 19.1198 1070.42 19.6731C1071.55 20.066 1072.75 19.9553 1073.83 19.3583C1074.18 19.2438 1074.46 18.1943 1074.83 18.5855C1075.55 19.1579 1076.41 18.5855 1077.2 18.0417C1078.46 17.6219 1079.72 18.9957 1080.98 18.0417C1081.83 18.6523 1083.53 20.0548 1084.3 17.9462C1084.84 15.084 1085.02 16.0858 1085.57 16.0381C1086.8 14.9314 1089.01 16.4483 1090.44 15.3798C1091.16 16.019 1091.07 15.1031 1091.88 15.7042C1093 14.7501 1093.86 19.9403 1095.03 18.1466C1096.36 17.7459 1097.71 19.7208 1099.1 18.6236C1100.7 18.8622 1102.29 19.5777 1103.89 18.6236C1104.3 18.8908 1104.84 19.406 1105.24 18.5568C1106.47 19.5109 1106.76 20.1502 1107.82 20.7226C1108.75 22.6308 1109.84 21.3714 1110.79 20.7226C1112.13 18.471 1113.32 21.4859 1114.69 21.2855C1116.05 19.9594 1117.42 21.2378 1118.79 21.2855C1119.71 20.9519 1120.69 20.9519 1121.61 21.2855C1122.33 20.3314 1123.06 23.3559 1123.78 21.8771C1125.75 22.4877 1127.87 21.6385 1129.66 20.6654C1130.74 20.57 1131.59 19.0053 1132.72 18.6427C1133.3 19.2056 1133.66 16.4674 1134.21 17.7745C1134.99 16.954 1135.8 18.1847 1136.66 17.536C1137.92 19.7208 1139.27 16.7536 1140.52 17.536C1142.35 18.4233 1143.65 16.6582 1145.28 14.4734C1146.27 14.3875 1147.71 15.3702 1148.79 14.2158C1150.18 15.3989 1151.29 14.2635 1152.61 15.2367C1153.03 14.7119 1153.46 18.0226 1153.88 15.4466C1154.29 15.5706 1154.7 17.0685 1155.12 16.3148C1157.42 15.2653 1159.82 20.1311 1162.26 18.0607C1163.8 17.5169 1165.37 18.7286 1166.91 17.9939C1168.47 16.7727 1170.01 17.3261 1171.52 18.4614C1172.82 19.9116 1174.11 21.0565 1175.32 17.9271C1176.58 15.208 1177.21 16.5437 1178.6 16.9731C1181.05 16.6582 1183.52 16.6582 1185.97 16.9731C1187.38 17.6409 1188.8 17.2307 1190.21 16.9731C1191.62 16.7155 1192.53 16.2194 1193.83 17.5265C1196.42 18.3756 1198.89 16.4769 1201.19 18.5855C1202.18 19.5395 1203.25 22.0965 1204.26 20.1883C1205.89 20.1883 1207.44 21.7339 1209.25 22.3064C1211.31 23.2605 1212.87 20.6081 1214.84 21.3523C1217.47 22.23 1220.04 18.948 1222.74 20.7226C1224.38 19.7685 1226.68 21.629 1228.24 20.6367C1229.47 20.4745 1230.04 19.6827 1231.46 18.5473C1232.71 17.1639 1234.08 20.8276 1235.32 18.4996C1236.64 18.9289 1237.84 18.9194 1239.16 19.6922C1240.07 21.9534 1241.06 18.595 1241.97 19.635C1243.5 19.7876 1245.04 18.0607 1246.58 19.635C1248.12 19.635 1249.65 19.4823 1251.18 19.635C1252.85 16.7727 1254.53 20.8085 1256.13 20.3028C1257.58 22.4686 1258.48 22.2587 1260.09 22.3636C1261.91 23.8902 1263.11 21.7435 1264.82 21.0947C1266.33 21.1469 1267.84 20.9806 1269.33 20.5986C1270.94 20.632 1272.54 20.1161 1273.96 19.1007C1275.63 18.7954 1276.85 16.1526 1278.77 18.013C1281.22 19.1865 1283.66 19.6636 1286.11 18.013C1287.55 19.1102 1288.52 17.7077 1289.93 17.4787C1291.84 16.1049 1293.62 18.5091 1295.5 17.8985C1297.39 18.2515 1299.42 19.5968 1301.33 18.5473C1302.71 18.5793 1304.04 19.2363 1305.09 20.4078C1306.65 21.9057 1308.63 19.2915 1310.31 20.7131C1311.72 21.6672 1312.69 19.759 1314 19.654C1315.23 19.7208 1318.18 19.9212 1318.86 17.4787C1319.09 15.113 1319.47 12.7769 1320 10.4949V10.4949V0L978.443 0.0190711Z" fill="#D0F4A5"/>
</svg>
