<svg width="74" height="76" viewBox="0 0 74 76" fill="none" xmlns="http://www.w3.org/2000/svg">
<circle cx="37" cy="37" r="35" stroke="#070707" stroke-opacity="0.06" stroke-width="4"/>
<path d="M37 72C41.4649 72 45.8862 71.0947 50.0112 69.3358C54.1363 67.5769 57.8844 64.9988 61.0416 61.7487C64.1988 58.4987 66.7032 54.6403 68.4119 50.3939C70.1206 46.1475 71 41.5963 71 37C71 32.4037 70.1206 27.8525 68.4119 23.6061C66.7032 19.3597 64.1988 15.5013 61.0416 12.2513C57.8844 9.00121 54.1363 6.42313 50.0112 4.66421C45.8862 2.9053 41.4649 2 37 2" stroke="black" stroke-width="4"/>
<circle cx="37" cy="72" r="4" fill="white"/>
<circle cx="37" cy="72" r="2" fill="#B9B9B9"/>
</svg>
