<svg width="76" height="74" viewBox="0 0 76 74" fill="none" xmlns="http://www.w3.org/2000/svg">
<circle cx="39" cy="36.9999" r="35" stroke="#070707" stroke-opacity="0.06" stroke-width="4"/>
<path d="M4 37C4 43.9223 6.05271 50.6892 9.89856 56.445C13.7444 62.2007 19.2107 66.6867 25.6061 69.3358C32.0015 71.9848 39.0388 72.678 45.8282 71.3275C52.6175 69.977 58.8539 66.6436 63.7487 61.7487C68.6436 56.8539 71.977 50.6175 73.3275 43.8282C74.678 37.0388 73.9849 30.0015 71.3358 23.6061C68.6867 17.2107 64.2007 11.7444 58.445 7.89857C52.6892 4.05272 45.9223 2 39 2" stroke="black" stroke-width="4"/>
<circle cx="4" cy="37.9999" r="4" fill="white"/>
<circle cx="4" cy="37.9999" r="2" fill="#B9B9B9"/>
</svg>
