<svg width="231" height="436" viewBox="0 0 231 436" fill="none" xmlns="http://www.w3.org/2000/svg">
<path d="M172.957 257.846C172.719 254.212 173.421 250.248 175.772 247.677C178.109 245.091 182.096 243.9 186.215 243.412C190.335 242.924 194.568 243.178 197.091 245.306C199.598 247.445 200.373 251.494 201.275 255.285C202.161 259.087 203.184 262.645 202.336 265.89C201.474 269.119 198.725 272.046 195.268 273.904C191.805 275.79 187.634 276.605 184.226 275.471C180.805 274.322 178.147 271.226 176.25 268.024C174.341 264.805 173.195 261.479 172.957 257.846Z" fill="#9093D1"/>
<path d="M8.75605 309.303C8.28027 302.036 9.6854 294.107 14.3852 288.967C19.0613 283.795 27.032 281.412 35.2712 280.436C43.5106 279.46 51.9778 279.969 57.0233 284.224C62.0367 288.501 63.5874 296.601 65.391 304.182C67.1623 311.786 69.2103 318.902 67.5128 325.393C65.7913 331.851 60.292 337.706 53.3762 341.422C46.4517 345.192 38.1107 346.821 31.2933 344.556C24.4521 342.258 19.1343 336.066 15.3412 329.661C11.5242 323.223 9.23197 316.57 8.75605 309.303Z" fill="#F7859C"/>
<path d="M102.999 399.555C102.522 392.288 103.928 384.359 108.628 379.219C113.304 374.047 121.275 371.664 129.514 370.688C137.753 369.712 146.221 370.221 151.265 374.475C156.279 378.752 157.83 386.852 159.634 394.433C161.404 402.038 163.453 409.155 161.756 415.645C160.034 422.102 154.534 427.958 147.618 431.673C140.694 435.442 132.354 437.072 125.536 434.807C118.694 432.51 113.376 426.318 109.584 419.911C105.767 413.474 103.474 406.822 102.999 399.555Z" fill="#F7859C"/>
<path d="M56.8786 199.441C56.1534 188.092 58.3704 175.705 65.7314 167.665C73.055 159.576 85.5227 155.835 98.4068 154.291C111.29 152.747 124.526 153.521 132.404 160.154C140.23 166.822 142.634 179.469 145.435 191.305C148.184 203.177 151.368 214.287 148.697 224.427C145.989 234.518 137.377 243.676 126.555 249.495C115.72 255.4 102.676 257.966 92.0226 254.444C81.333 250.873 73.0353 241.214 67.1216 231.218C61.1706 221.173 57.6039 210.79 56.8786 199.441Z" fill="#9FD8E5"/>
<path d="M98.9588 309.304C98.4822 302.037 99.8877 294.108 104.588 288.968C109.263 283.796 117.235 281.413 125.474 280.437C133.712 279.461 142.181 279.97 147.225 284.224C152.239 288.502 153.79 296.603 155.594 304.184C157.364 311.787 159.413 318.904 157.715 325.394C155.994 331.851 150.494 337.707 143.578 341.422C136.654 345.192 128.314 346.821 121.496 344.556C114.654 342.259 109.336 336.067 105.544 329.661C101.727 323.224 99.434 316.572 98.9588 309.304Z" fill="#FFDBB4"/>
<path fill-rule="evenodd" clip-rule="evenodd" d="M2.92429 186.964C4.16053 186.608 5.70502 186.517 7.05752 186.452C11.8379 186.171 16.7123 188.452 21.3995 189.48C23.4513 189.988 25.6239 190.586 27.8196 191.031C29.7688 191.296 31.784 191.494 33.8101 191.621C35.4478 191.67 37.3534 191.544 37.9125 193.268C41.2043 193.906 44.1182 194.172 47.256 193.629C46.9621 192.628 46.7947 191.582 47.0986 190.504C46.9452 190.249 46.7365 189.903 46.6249 189.671H47.0021C52.5098 187.464 58.4655 185.957 64.0021 183.671C71.2285 181.064 81.8715 176.027 90.2212 172.587C89.6552 169.485 89.4455 166.332 89.6855 163.267L89.35 162.996C89.2397 162.394 89.0685 161.673 88.758 161.127C88.3641 160.081 88.3549 158.653 88.1985 157.471C87.8724 155.158 87.6546 151.676 88.2482 148.93C88.5075 145.207 91.0152 142.336 93.7192 140.034C97.0392 136.747 100.363 133.541 103.604 130.128C121.542 111.824 122.961 88.7712 151.041 81.7649L151.055 81.6561C151.276 81.409 151.367 81.2131 151.619 81.6035C152.546 81.2479 153.702 81.2777 154.479 80.6764C155.857 79.418 156.835 77.9651 157.475 76.241C157.967 72.9819 157.619 67.9588 160.471 65.8735C163.64 63.9737 180.474 62.6212 181.926 66.7746C182.827 67.6213 183.237 68.6971 183.518 70.0141C184.456 71.79 185.048 73.7592 185.993 75.5623C188.002 79.6066 189.304 78.7103 192.851 79.6345C193.236 78.7757 194.404 78.9488 195.256 79.0735C205.57 80.5243 218.145 84.4836 222.561 94.187L222.185 94.1389C229.808 108.474 224.865 126.703 223.501 141.894C222.398 155.397 223.66 168.965 226.657 181.56C230.335 194.921 230.546 209.867 223.248 221.962C222.506 223.347 221.603 225.303 220.004 224.434C219.129 225.097 218.145 225.555 216.786 225.954C216.411 226.226 216.023 226.683 215.631 226.878C215.613 226.904 214.981 226.54 214.948 226.53C213.755 228.235 148.237 233.931 141.438 234.815C135.448 235.538 127.533 237.384 122.651 233.059C118.617 231.905 114.396 228.902 111.172 225.92C109.216 254.317 108.134 312.475 106.388 312.88C105.624 313.139 104.593 313.45 103.729 313.698C103.723 315.738 103.572 318.056 103.732 320.062C104 322.327 104.679 325.002 104.986 327.383C106.307 327.295 106.695 328.62 106.849 329.521C107.989 336.961 107.955 342.959 107.873 351.136C94.4687 359.039 78.7587 363.385 63.6757 368.492C62.2311 369.579 59.1006 368.404 57.4325 368.11C51.6412 366.969 45.0605 363.593 46.5224 357.403C47.5927 352.742 52.0868 350.061 55.8697 347.319C60.0085 344.317 64.3716 341.319 68.1778 337.745C71.2314 334.866 73.5118 332.632 76.0584 329.383C77.1879 327.872 78.3924 325.389 79.9118 324.275C78.3066 322.369 81.55 324.156 82.7779 324.266C83.5003 320.863 84.3946 317.595 85.4671 314.33L84.4246 314.378C81.0017 311.178 79.0828 295.818 78.8445 291.261C77.1287 261.555 77.1695 227.316 84.0524 202.299C78.8243 205.521 73.0912 208.213 67.8918 211.4C64.6133 213.322 61.2867 215.992 57.6116 216.924C57.3723 217.612 56.496 217.88 56.0178 217.206C55.3599 217.287 54.5124 217.014 54.44 216.714C53.7672 215.337 52.7924 213.853 52.9097 212.356L53.8124 210.26C51.7902 211.083 49.5915 212.815 47.4328 212.973C43.0726 227.547 34.4818 219.383 26.2152 213.711C21.2262 210.222 15.7689 206.369 10.5185 202.649C6.06398 199.102 -2.63269 195.736 1.63051 188.711" fill="#FFDBB4"/>
<path d="M194.076 79.9357C193.688 80.0164 193.436 80.4254 193.226 80.8484L193.183 80.936L193.095 81.1218C191.016 87.4116 184.418 90.9208 178.47 93.2556L178.106 93.3971L177.737 93.5385C168.02 97.8573 151.894 95.8436 150.389 83.2242C127.618 89.2816 121.449 114.926 106.949 130.543C103.551 134.359 99.9801 138.014 96.5019 141.754C95.4049 142.832 94.4016 144.45 92.8685 144.831C91.9494 146.277 91.2904 147.913 91.1772 149.622C96.1012 147.419 101.659 148.465 106.871 150.134C108.392 150.62 124.032 158.359 133.141 156.519C133.606 156.425 132.727 174.863 133.636 175.111C141.516 177.261 165.571 179.401 170.392 178.124C186.841 173.771 211.813 234.012 220.99 223.145C223.3 220.408 229.243 209.455 229.158 197.47C229.064 184.414 222.823 169.865 222.68 156.519C222.463 136.381 225.206 124.433 225.323 122.847C227.321 108.09 224.925 88.6174 208.308 83.815C203.812 81.7529 198.968 80.4183 194.076 79.9357ZM91.9912 152.553C90.6905 153.48 90.4161 154.915 90.5665 156.519C90.626 157.143 90.7037 157.766 90.7831 158.388C92.4171 156.688 94.8414 156.086 97.1693 155.901C97.0796 155.741 96.9803 155.523 96.9859 155.319C95.2174 154.59 93.5481 153.665 91.9912 152.553Z" fill="#E86BBB"/>
<path fill-rule="evenodd" clip-rule="evenodd" d="M79.7209 324.819L79.501 325.128C71.4793 336.394 62.604 344.875 53.1857 349.218L52.8692 349.363L52.8399 349.38C50.1544 350.95 47.9256 353.44 47.0514 355.996C46.0282 358.988 46.8938 361.809 49.7998 363.872L49.8885 363.934L49.9034 363.944C53.5612 366.337 57.8781 367.825 62.1185 368.122L62.2756 368.133L62.4812 368.146L62.6565 368.037C63.7814 367.342 64.863 366.943 67.1743 366.279L68.148 366L68.55 365.883L68.7497 365.823C69.5931 365.57 70.1586 365.377 70.7509 365.137L70.9389 365.059L71.5683 364.847C82.878 361.013 94.0502 356.619 105.045 351.688L105.691 351.398L106.682 350.95L106.705 350.559C107.208 341.991 107.187 335.152 106.471 328.709L106.447 328.499L105.158 328.621C105.346 331.133 102.835 333.259 100.463 332.457L100.391 332.432L100.358 332.421L100.259 332.39C99.5908 332.175 99.035 331.862 98.0471 331.189L97.3152 330.687L97.1292 330.562L96.9942 330.473C96.9288 330.43 96.8655 330.39 96.8012 330.349L96.7108 330.292C92.6491 327.747 88.2772 326.032 83.8377 325.303C83.4713 325.236 83.093 325.178 82.6796 325.126L82.2222 325.072L81.7519 325.023L80.2928 324.88L79.7209 324.819ZM4.75026 186.648L4.45955 186.959C3.4974 187.991 2.76759 189.001 2.30586 190.043C1.72983 191.344 1.60803 192.631 2.03734 193.876L2.07174 193.973L2.07973 193.991C2.80207 195.651 4.49522 197.118 7.7364 199.258L8.22885 199.58C8.74822 199.917 10.1496 200.823 10.573 201.104L10.7596 201.228C11.5217 201.738 12.095 202.15 12.5533 202.526L12.6288 202.588L18.7338 206.845C23.0835 209.885 27.2824 212.836 31.3842 215.736L31.5925 215.878L31.7566 215.991L31.992 216.155L32.3242 216.391L33.4278 217.182L33.6483 217.338L33.8659 217.491L34.086 217.644L34.3088 217.797L34.5277 217.945C36.771 219.449 38.424 220.193 40.1847 220.296C41.4379 220.369 42.6191 220.06 43.7178 219.329L43.7962 219.276L43.8304 219.253L43.9485 219.146L44.0472 219.056L44.1439 218.965L44.2391 218.874C44.7436 218.387 45.2022 217.858 45.9225 216.966L46.529 216.21L46.7713 215.911L46.95 215.693L47.0777 215.54C47.4717 215.069 47.7714 214.742 48.1097 214.412L48.2218 214.304L48.9872 213.574L47.9898 213.223C43.967 211.807 40.6782 207.305 39.3267 202.152L39.279 201.967L39.269 201.938C39.0247 201.25 38.9367 200.546 38.9127 199.395L38.901 198.517L38.8954 198.228L38.8902 198.033L38.8838 197.841C38.8323 196.464 38.6804 195.68 38.2454 194.811L38.1902 194.703L38.1719 194.668L38.1495 194.636C38.1224 194.596 38.1193 194.59 38.1305 194.57L38.3596 194.181L38.088 193.833C37.9678 193.678 37.8355 193.527 37.6813 193.364L37.6138 193.294L37.4632 193.138L37.2492 193.104C30.5192 192.039 23.6112 190.468 15.3802 188.223L14.5516 187.996L14.1392 187.885L13.8606 187.811L13.5848 187.738C10.8627 187.03 9.19999 186.757 7.29866 186.781L7.1373 186.784C6.96116 186.787 6.81163 186.797 6.55698 186.82L6.29379 186.844L6.17271 186.854L6.0564 186.863C5.62854 186.892 5.40094 186.876 5.17822 186.801L5.15128 186.792L4.75026 186.648Z" fill="white"/>
<path fill-rule="evenodd" clip-rule="evenodd" d="M190.317 78.7442C186.106 77.7198 185.387 67.6141 182.844 69.0532C181.374 70.3329 183.778 72.747 184.204 74.1913L184.391 74.5581C185.253 76.2403 186.229 77.9169 187.929 78.8868C189.022 80.0385 192.288 78.9077 191.808 80.7421C190.131 86.2706 181.23 90.0987 175.983 91.8201C167.829 94.8863 154.638 93.8488 152.723 83.5708C157.195 82.7511 160.502 74.6722 157.745 71.3087C157.651 74.576 156.76 77.9479 154.198 80.1615L154.056 80.2915C153.606 80.7033 153.022 81.195 152.44 81.1034C151.872 80.3123 150.771 80.7624 150.447 81.5973C124.981 86.0041 119.308 113.499 103.271 129.683C100.068 133.059 96.7192 136.292 93.4135 139.566C90.0374 142.247 87.6483 145.986 87.4818 150.375C87.1801 152.817 87.3295 155.26 87.6523 157.705L87.6747 157.926C87.8243 159.442 87.9132 161.069 88.6336 162.415C88.758 162.871 88.7077 163.447 89.1017 163.769C88.9295 166.559 89.0934 169.399 89.5648 172.18L88.3361 172.729C74.8161 178.757 61.14 184.439 47.0425 188.958C45.8376 188.739 45.9359 190.141 46.5192 190.778C46.3654 191.528 46.3487 192.308 46.5292 193.049C43.9477 193.421 41.3256 193.112 38.7774 192.641C37.9713 190.864 35.8295 190.959 34.1734 190.909C32.116 190.78 30.0623 190.579 28.0197 190.293C22.9871 189.168 18.0452 187.687 13.061 186.385C9.72574 185.446 6.129 185.49 2.78319 186.355C2.2148 186.993 1.68988 187.674 1.24687 188.397C-1.81157 193.144 1.20206 197.494 5.47134 199.988C12.3208 204.848 19.1721 209.702 26.0521 214.518L26.5519 214.875C34.7375 220.74 43.9463 228.163 48.318 213.889C49.7873 213.716 51.0749 212.729 52.4438 212.147C52.0756 213.86 53.1752 215.59 53.9333 217.058C54.2598 217.895 55.1522 218.171 55.9762 218.163C56.6817 218.856 58.0057 218.583 58.4671 217.761C62.2091 216.689 65.3007 214.185 68.6129 212.24C73.3223 209.377 78.2627 206.936 83.04 204.194C75.1038 237.086 77.0448 271.348 79.1567 304.83L79.1717 305.133C79.4334 310.021 80.5532 312.334 84.6034 315.33C83.8979 317.484 83.2667 319.647 82.7854 321.864C82.6154 322.378 81.8332 321.894 81.8268 322.6C80.388 322.263 77.4636 322.624 78.4838 324.616C75.5949 327.043 73.639 330.331 71.1066 333.098C66.6466 338.449 60.8166 342.432 55.1002 346.356C41.9594 353.059 41.2063 364.675 56.5811 368.643L56.7352 368.679C58.8524 369.189 61.4023 370.355 63.4547 369.374C66.5251 368.782 69.5721 367.584 72.5761 366.671C84.6716 362.665 96.5018 357.973 107.965 352.581C108.38 352.386 108.615 351.938 108.626 351.49C108.498 347.79 109.502 327.517 105.67 327.081C104.814 322.939 104.68 318.663 104.835 314.436C106.078 314.045 107.335 313.667 108.623 313.423C109.873 313.028 111.828 312.94 112.665 311.926C112.966 311.817 113.186 311.548 113.141 311.123C112.464 304.77 111.951 298.401 111.577 292.023C110.294 270.633 110.729 249.177 112.19 227.811C115.2 230.417 118.63 232.698 122.448 233.911C124.555 236.025 127.935 236.479 130.812 236.735C134.511 236.964 138.146 236.224 141.797 235.764C147.996 234.983 154.153 235.674 160.308 236.44L162.411 236.703C177.479 238.357 193.763 238.7 207.807 232.253C210.451 232.488 213.734 229.627 215.383 227.716C216.112 228.166 216.827 227.286 217.408 226.824C218.366 226.533 219.452 226.114 220.321 225.503C222.527 226.226 223.716 223.36 224.554 221.801C237.85 199.01 223.043 176.323 224.157 152.154C223.482 133.206 232.116 113.465 223.772 95.2923C222.083 87.6019 212.21 82.287 204.779 80.3324C202.384 79.9366 193.318 76.6554 192.32 79.4146C191.847 78.7936 191.041 78.747 190.317 78.7442ZM80.0285 325.504C81.2745 325.638 82.4895 325.714 83.7209 325.94C88.2162 326.679 92.504 328.421 96.3671 330.842C97.618 331.622 98.7346 332.606 100.17 333.041C103.12 334.114 106.02 331.451 105.804 328.573C106.626 335.807 106.485 343.25 106.058 350.521C94.5188 355.746 82.7209 360.405 70.7087 364.453C68.0036 365.588 64.8006 365.951 62.3164 367.485C58.0801 367.218 53.8159 365.729 50.2579 363.401C44.3559 359.302 48.274 352.8 53.1666 349.939C63.9369 345.074 73.1045 335.229 80.0285 325.504ZM103.626 314.806C103.851 316.95 102.223 320.291 102.453 324.565C102.63 325.899 103.045 327.297 102.901 328.637C102.238 333.607 96.8621 327.291 94.6405 326.599C91.4868 324.863 88.0596 323.681 84.5373 323.034C84.5587 321.888 85.3168 321.43 85.4163 320.298C85.5592 318.629 85.552 317.026 85.6272 315.341C90.2084 317.427 98.7664 315.952 103.626 314.806ZM78.9422 325.18C79.0221 325.233 79.1064 325.278 79.193 325.319C78.5563 326.091 78.0048 326.947 77.2496 327.611L77.5711 327.111C78.0012 326.444 78.4411 325.78 78.9422 325.18ZM221.226 147.365C221.457 148.304 221.877 149.187 222.507 149.939C219.255 176.334 235.987 198.338 220.603 222.88C220.409 222.97 220.231 223.083 220.06 223.224C219.97 223.164 219.88 223.1 219.791 223.037C212.58 210.265 202.316 199.248 194.137 187.025C192.568 183.957 189.984 180.869 188.994 177.325C205.43 170.829 211.995 161.35 221.226 147.365ZM4.93298 187.402C5.62987 187.652 6.40529 187.446 7.14894 187.432C9.78922 187.376 12.3695 188.065 14.8948 188.762C22.2395 190.773 29.6231 192.553 37.148 193.744C37.3 193.902 37.4454 194.062 37.5775 194.232C37.4471 194.453 37.4271 194.729 37.6162 195.004C38.7515 197.174 37.8338 199.832 38.6585 202.155C39.8534 206.859 43.0318 212.165 47.7749 213.834C46.1928 215.343 45.0594 217.285 43.4299 218.741C39.4251 221.489 35.0146 217.394 31.7451 215.198C25.5204 210.796 19.2792 206.425 13.0211 202.072C10.2174 199.746 4.01518 196.814 2.67357 193.732C1.81409 191.37 3.37846 189.068 4.93298 187.402ZM47.8316 193.399C50.511 198.869 52.0578 204.685 53.605 210.558C51.9957 211.001 50.5133 211.695 48.9313 212.162C46.7033 212.663 43.5575 208.353 42.4404 206.642C41.2887 204.729 40.4824 202.627 40.1084 200.424C39.7928 198.267 40.129 196.026 39.1916 194.028C42.0942 194.325 45.0388 194.387 47.8316 193.399ZM207.122 182.113C204.606 181.408 210.33 187.105 210.659 187.714C214.381 192.112 217.791 196.758 221.175 201.418L222.201 202.833C222.299 202.976 222.978 203.981 222.487 203.853C222.442 203.841 222.421 203.9 222.457 203.925C225.586 204.479 208.631 182.501 207.122 182.113ZM145.782 179.424C145.578 178.81 146.544 178.548 146.748 179.158L147.389 181.091C149.81 188.397 152.215 195.713 155.108 202.848C155.35 203.446 154.383 203.707 154.142 203.115C150.996 195.351 148.425 187.372 145.782 179.424ZM117.646 176.866C118.528 181.057 120.758 184.836 122.109 188.842C119.571 188.282 117.616 185.915 116.136 183.878L116.092 183.81C115.394 182.735 114.582 181.055 112.997 181.814C110.591 183.213 112.315 188.175 112.36 190.527C112.665 193.752 113.712 196.768 114.426 199.9C112.591 198.645 112.064 196.171 111.17 194.242L107.729 185.979C105.2 182.51 106.374 192.899 106.505 193.88C106.711 196.034 107.617 198.201 107.261 200.369C105.835 198.833 104.936 196.902 104.181 194.942C103.134 192.217 102.178 189.457 101.181 186.714C100.837 185.836 99.5303 186.144 99.7197 187.112C99.784 190.225 99.835 193.338 99.8847 196.451L99.9219 198.786C99.9285 199.228 100.147 200.521 99.3835 200.164C95.3723 195.949 94.3438 187.522 94.8656 181.86C102.751 182.051 110.796 181.027 117.646 176.866ZM47.4785 192.589C47.5109 192.692 47.5482 192.795 47.5854 192.897C47.5627 192.902 47.5385 192.907 47.5158 192.913C47.5012 192.804 47.4883 192.696 47.4785 192.589ZM222.48 192.589C223.355 191.942 208.654 173.047 209.606 178.502C213.708 183.359 218.49 187.616 222.48 192.589ZM92.6499 150.836C106.398 147.603 118.505 159.681 132.312 157.856C132.152 162.182 131.93 166.537 132.018 170.865C113.682 172.379 115.769 180.19 94.6619 179.404C91.9344 177.575 90.8142 166.368 91.0445 162.984C90.8683 158.984 94.3071 157.188 97.7326 156.486C98.9705 157.234 101.191 155.002 99.3532 154.217C96.934 153.489 94.6706 152.343 92.6499 150.836ZM194.076 79.9357C198.968 80.4183 203.812 81.7529 208.308 83.815C224.925 88.6174 227.321 108.09 225.323 122.847C224.495 134.069 221.298 145.043 214.577 154.169C196.683 181.487 167.046 177.161 138.974 173.548C137.962 172.843 136.247 173.343 135.272 172.412C135.374 172.377 135.466 172.329 135.544 172.268C135.076 171.902 134.713 171.26 134.605 170.578L134.403 170.598C134.205 166.361 134.363 162.208 134.299 158.004C143.523 155.472 153.416 154.178 162.764 151.655C163.827 152.397 165.052 151.543 166.09 151.14C168.781 149.994 171.496 148.906 174.23 147.87L174.915 147.612C176.697 146.943 178.479 146.257 180.245 145.542L180.906 145.272C181.918 144.858 184.472 143.325 185.576 144.282L185.487 144.475C184.832 145.904 182.578 151.193 185.349 150.147C187.6 148.565 188.766 137.534 190.995 137.437C191.762 139.49 192.311 141.622 192.436 143.817C192.481 144.311 193.13 144.728 193.52 144.266C196.163 140.781 192.17 136.985 192.064 133.306C191.812 129.029 193.702 125.027 194.644 120.933L194.702 120.651C195.254 117.995 196.113 114.774 195.885 112.392L195.337 114.46C194.787 116.529 194.223 118.599 193.576 120.639C191.972 125.734 189.074 130.983 190.684 136.435C187.454 136.543 186.908 141.647 185.695 143.978C183.732 141.427 169.918 147.542 166.765 148.523L166.157 147.833C156.285 136.626 149.158 129.041 133.857 137.906C136.5 129.37 136.755 120.302 137.206 111.438C137.052 109.751 138.025 105.303 136.652 104.382C136.414 104.417 136.182 104.489 135.964 104.585L135.964 105.459C135.957 107.152 135.878 109.958 135.169 110.596L134.844 113.947C133.992 122.662 133.026 131.371 130.426 139.769C124.186 143.261 118.492 147.635 113.136 152.353L112.526 152.13C105.907 149.704 97.944 146.594 91.1772 149.622C91.2904 147.913 91.9494 146.277 92.8685 144.831C94.4016 144.45 95.4049 142.832 96.5019 141.754C99.9801 138.014 103.551 134.359 106.949 130.543C121.449 114.926 127.618 89.2816 150.389 83.2242C151.894 95.8436 168.02 97.8573 177.737 93.5385L178.106 93.3971C184.147 91.0629 190.974 87.54 193.095 81.1218L193.183 80.936C193.402 80.4834 193.662 80.022 194.076 79.9357ZM190.492 151.749C190.475 151.729 190.44 151.755 190.456 151.777C193.287 155.334 195.591 160.185 192.777 164.434C192.257 165.391 193.472 166.31 194.25 165.581C198.156 161.14 193.823 155.122 190.492 151.749ZM91.9912 152.553C93.5481 153.665 95.2174 154.59 96.9859 155.319C96.9803 155.523 97.0796 155.741 97.1693 155.901C94.8414 156.086 92.4171 156.688 90.7831 158.388C90.7037 157.766 90.626 157.143 90.5665 156.519C90.4161 154.915 90.6905 153.48 91.9912 152.553ZM199.047 136.829L199.029 136.743C199.016 136.646 198.869 136.639 198.873 136.743C198.927 138.014 199.851 138.919 200.634 139.824C201.796 141.167 202.957 142.51 204.119 143.853C206.062 146.193 208.924 148.546 208.28 151.936C208.268 153.14 209.775 153.398 210.387 152.512C212.819 147.869 205.163 143.918 202.583 140.922C201.371 139.626 199.461 138.672 199.047 136.829ZM162.597 150.769C162.56 150.827 162.534 150.89 162.521 150.954C162.113 150.997 161.707 151.044 161.301 151.094L162.597 150.769ZM223.489 139.909C223.417 140.394 223.349 140.881 223.284 141.368L223.219 141.854L223.209 141.812C223.176 141.685 223.113 141.576 223.032 141.488L223.004 141.46C223.172 140.945 223.334 140.429 223.489 139.909ZM111.723 134.887C110.748 134.783 115.168 137.965 115.412 138.358C115.768 138.669 116.185 138.117 115.805 137.849C114.431 136.879 113.078 135.883 111.723 134.887ZM120.323 125.527C119.644 125.248 119.183 126.38 119.827 126.695C122.172 127.844 124.651 128.656 126.812 130.168C126.907 130.234 127.026 130.079 126.936 130.008L126.676 129.803C124.686 128.22 122.698 126.5 120.323 125.527ZM222.68 111.219C222.024 114.309 218.478 115.324 215.726 116.147L214.866 116.475C212.436 117.406 209.918 118.454 208.17 120.421C207.485 122.641 212.374 118.775 213.057 118.579C216.396 116.506 222.43 116.154 222.68 111.219ZM150.288 82.3668C150.27 82.5239 150.261 82.6844 150.256 82.8448C150.051 82.8448 149.846 82.8465 149.641 82.8531C149.88 82.7125 150.1 82.5521 150.288 82.3668Z" fill="black"/>
<path fill-rule="evenodd" clip-rule="evenodd" d="M135.877 38.6117C136.489 28.5293 139.751 17.0985 149.351 12.1482C170.515 3.62903 198.341 25.0828 199.815 46.9995C200.328 54.5017 196.175 62.6995 188.586 64.7852C186.899 67.0275 184.347 68.3968 181.828 69.5853C151.83 85.1958 132.452 72.5061 135.877 38.6117Z" fill="#FFDBB4"/>
<path fill-rule="evenodd" clip-rule="evenodd" d="M129.043 32.34C130.103 29.3867 131.223 26.4561 132.401 23.5481C133.548 20.718 134.585 17.8267 136.01 15.1307C144.52 -0.971397 159.995 -0.971398 167.995 1.13255C172.143 -0.660183 179.914 -0.154501 184.233 1.46321C191.226 4.08212 199.751 14.3843 202.665 19.013C209.101 29.2327 213.116 42.8349 208.842 54.6442C208.283 56.1876 207.571 57.6171 206.769 58.9947C207.274 59.6817 207.855 60.3323 208.5 60.9716C210.415 62.8716 212.329 64.7091 213.983 66.8521C215.627 68.9818 216.99 71.2466 218.004 73.7436C219.917 78.4526 220.009 83.7848 217.48 88.2781C215.28 92.1878 211.383 95.0991 206.992 95.3767C206.766 95.4082 206.54 95.437 206.314 95.4599C205.732 96.4211 205.022 97.3061 204.213 98.0777C201.732 100.444 195.819 101.658 192.446 101.736C192.273 101.875 192.099 102.015 191.924 102.153C189.86 103.782 187.695 105.425 185.326 106.584C183.721 107.37 181.617 108.027 179.943 107.46C179.183 107.968 177.937 107.861 177.184 107.445C175.946 106.761 174.939 105.529 174.327 104.268C172.842 101.206 173.199 97.8556 173.58 94.5846C174 90.9716 174.404 87.357 174.815 83.7439C175.136 80.9187 175.472 78.0464 176.329 75.3249C176.772 73.9147 177.352 72.5597 178.102 71.2856C178.082 71.1786 178.086 71.0717 178.116 70.9712C178.362 70.1704 178.869 69.7506 179.471 69.206C179.548 69.1363 179.626 69.065 179.702 68.992C180.002 68.6484 180.324 68.3291 180.668 68.0584C180.801 67.9239 180.932 67.7877 181.062 67.6515C182.15 66.5088 183.178 65.3077 184.091 64.0207C184.977 62.7726 185.777 61.4694 186.538 60.1418C187.312 58.7916 187.824 57.302 188.597 55.9615C188.663 55.8464 188.831 55.8237 188.925 55.9194C189.164 56.1674 189.317 56.4429 189.288 56.7331L189.408 56.7509C189.453 56.3133 189.856 55.9567 190.402 56.0523C191.219 56.1949 191.892 56.2484 192.6 55.9761C192.475 55.1478 192.36 54.3179 192.247 53.4864C192.04 51.9562 191.848 50.4212 191.683 48.8862C191.284 48.9819 190.888 49.1196 190.5 49.2947C189.948 49.5427 189.426 49.8766 188.98 50.2867C188.54 50.6919 188.236 51.2382 187.7 51.5202C187.082 51.8428 186.337 51.3095 186.518 50.6093C186.885 49.1942 188.962 48.3838 190.247 48.1163C190.688 48.0239 191.139 47.985 191.59 47.9947C191.488 47.0092 191.397 46.0237 191.323 45.0366C191.287 44.5697 191.255 44.1029 191.224 43.6345C190.226 43.3314 189.156 43.2406 188.117 43.3832C187.774 43.6572 187.431 43.9279 187.1 44.2018C186.048 45.0739 185.001 45.9508 183.967 46.8439C183.873 46.9233 183.781 47.0027 183.687 47.0838C183.073 47.6138 182.307 47.0886 182.41 46.3382C183.254 40.1884 179.498 35.2965 175.101 31.5068C170.233 27.3103 161.384 26.8216 155.595 19.5526C152.929 20.0968 146.976 21.7133 144.52 25.6391C141.081 31.1405 141.53 36.0697 141.268 42.3102C141.007 48.5556 140.341 55.07 141.755 61.2279C143.059 66.9059 146.59 71.7573 152.069 73.9877C152.204 74.0428 152.342 74.0963 152.479 74.1481C155.312 75.2196 158.404 75.5227 161.384 74.9586C164.682 74.3329 167.436 72.819 170.18 70.9566C170.338 70.8512 170.569 71.0684 170.45 71.2273C166.833 76.0349 159.729 77.6412 154.093 76.372C153.83 76.3121 153.568 76.2472 153.308 76.1759C154.569 79.8116 154.315 83.8023 152.673 87.3424C151.686 89.4723 150.179 91.3152 148.345 92.7692C146.323 94.3707 143.815 95.6641 142.413 97.9123C141.128 99.9725 141.509 102.287 143.709 103.477C144.263 103.778 144.476 104.753 143.927 105.181C143.717 105.343 143.507 105.508 143.292 105.67C142.06 106.602 138.678 108.353 138.13 108.417C133.266 108.996 129.995 105.414 127.899 101.188C125.437 96.2282 126.077 90.1838 128.789 85.4605C130.964 81.6708 135.248 77.9362 133.545 73.1399C132.937 71.4266 131.695 69.9662 130.488 68.6468C129.111 67.1442 127.63 65.7372 126.31 64.1812C124.998 62.6364 123.834 60.9555 123.184 59.0169C122.236 56.1836 122.708 53.1201 123.42 50.2916C124.948 44.2196 126.931 38.2287 129.043 32.34Z" fill="black"/>
<path fill-rule="evenodd" clip-rule="evenodd" d="M152.889 60.8665C152.64 60.4342 152.068 60.0337 151.545 60.0951C149.2 60.3703 149.204 63.2157 150.11 64.8768C150.912 66.3497 152.574 67.2143 154.237 67.088C155.984 66.9553 157.472 65.9273 158.127 64.2916C158.56 63.2097 158.761 61.2122 157.608 60.4852C157.587 60.4716 157.551 60.475 157.534 60.4946C156.982 61.138 156.96 62.1039 156.476 62.8202C156.027 63.4864 155.328 64.0365 154.509 64.1214C153.897 64.185 153.279 63.9642 153.039 63.4147C152.91 63.1175 152.925 62.9561 152.973 62.7515L153.018 62.5738C153.171 61.9511 153.239 61.477 152.889 60.8665ZM152.262 48.3879C151.039 49.1319 149.176 50.8668 150.491 52.7113C152.04 54.3376 154.269 52.4729 155.368 51.6296C156.387 50.976 157.532 52.657 156.586 53.4201C148.647 59.3033 145.425 48.5825 151.643 47.5131C152.328 47.3953 152.582 48.1578 152.262 48.3879ZM165.176 43.2862C164.426 42.159 162.712 42.325 162.299 43.6626C162.075 44.3871 162.384 45.0384 162.368 45.762C162.355 46.3732 162.395 47.0543 162.582 47.6463C163.009 48.9962 164.222 49.9496 165.657 49.91C167.087 49.8706 168.347 48.9646 168.946 47.6884C169.547 46.4074 169.42 45.0817 168.981 43.7791C168.96 43.7165 168.878 43.6862 168.828 43.7389C168.31 44.2907 167.93 44.8732 167.537 45.4911L167.134 46.1244C166.826 46.6013 166.379 47.2105 165.805 47.1722L165.718 47.1637C165.559 47.15 165.583 47.1817 165.46 46.9639C165.403 46.863 165.413 46.6757 165.386 46.5567L165.376 46.5165L165.381 46.4948C165.394 46.4372 165.406 46.3286 165.415 46.1402L165.417 46.0986C165.459 45.2173 165.708 44.0848 165.176 43.2862ZM146.149 44.0366C146.283 42.5949 144.258 42.2748 143.585 43.3415C143.234 43.8978 143.132 44.5966 143.054 45.2586L143.018 45.5729C142.938 46.2528 142.906 46.9602 143.201 47.5945C143.666 48.5934 144.676 49.1215 145.765 49.0379C146.806 48.9578 147.755 48.354 148.256 47.4374C148.702 46.6195 149.145 45.0226 148.604 44.1695C148.571 44.1178 148.505 44.1111 148.461 44.151C147.948 44.606 147.865 45.4359 147.561 46.0287C147.247 46.6401 146.77 47.2359 146.048 47.3288C145.358 47.4176 145.094 47.0401 145.27 46.3812C145.497 45.5306 146.063 44.9519 146.149 44.0366ZM164.629 34.7153L164.298 34.5884C163.163 34.1594 161.606 33.6635 160.683 34.587C160.114 35.1564 160.006 35.9952 160.412 36.6901C160.904 37.5318 161.787 37.5526 162.639 37.6766C163.609 37.8176 164.595 38.0857 165.498 38.4679C166.515 38.8986 167.458 39.4354 168.383 40.035C169.262 40.6047 170.137 41.536 171.189 41.7115C171.232 41.7186 171.281 41.7002 171.292 41.653C171.531 40.6237 170.867 39.6108 170.275 38.8078C169.558 37.8356 168.689 37.0376 167.719 36.3221C166.782 35.6315 165.711 35.1324 164.629 34.7153ZM144.018 38.3748L143.917 38.3571C143.229 38.2424 142.606 38.2688 142.087 38.8142C141.691 39.2303 141.539 39.7696 141.727 40.3197C141.902 40.8272 142.291 41.3428 142.856 41.4492C144.764 41.8084 146.876 41.749 148.794 41.4771C149.671 41.3526 150.556 41.2002 151.41 40.96L151.803 40.8459C152.516 40.642 153.333 40.429 153.851 39.904C154.037 39.7153 153.93 39.4452 153.707 39.3579C152.803 39.0035 151.564 39.1921 150.6 39.1643C149.479 39.1323 148.356 39.0481 147.24 38.9322C146.149 38.8188 145.094 38.5722 144.018 38.3748Z" fill="black"/>
</svg>
