<svg width="461" height="519" viewBox="0 0 461 519" fill="none" xmlns="http://www.w3.org/2000/svg">
<path fill-rule="evenodd" clip-rule="evenodd" d="M155.948 306.378C162.004 277.681 183.482 255.411 212.368 244.318C217.92 241.177 223.303 227.699 230.765 225.231C231.962 224.835 230.073 227.983 230.765 228.171C233.233 228.842 235.998 228.912 238.723 226.491C243.593 222.161 245.121 209.513 248.082 203.796C263.697 173.648 302.685 185.444 307.908 218.772C311.55 221.147 316.699 223.238 320.663 225.152C324.745 227.122 328.337 231.894 332.543 233.601C336.296 235.123 342.482 234.044 346.264 235.371C363.661 241.475 378.395 249.177 389.947 264.782C392.381 268.073 395.126 272.12 397.34 275.445C408.759 288.594 416.692 303.332 423.997 319.143C444.435 365.553 449.995 416.94 454.982 466.945C454.869 475.694 460.673 499.955 452.088 504.149C452.602 504.681 452.416 505.75 451.464 505.741C429.696 505.521 407.978 507.47 386.548 511.257C376.208 513.086 365.925 515.592 355.392 516.005C333.529 515.853 311.744 512.189 289.91 515.656C263.661 515.656 231.762 514.892 202.561 513.768C175.27 512.72 147.833 515.089 120.88 510.447C118.746 510.11 117.704 507.506 118.152 505.642C121.314 494.116 122.866 482.255 124.64 470.459C124.287 462.892 124.919 454.993 127.718 447.946C135.029 400.372 144.405 353.108 155.948 306.378Z" fill="#FFDBB4"/>
<path fill-rule="evenodd" clip-rule="evenodd" d="M230.765 228.347C230.073 228.158 231.962 225.009 230.765 225.405C223.303 227.873 217.92 241.351 212.368 244.492C183.482 255.586 162.004 277.855 155.948 306.553C144.405 353.282 135.029 400.546 127.718 448.121C124.919 455.169 124.287 463.067 124.64 470.633L124.362 472.496C122.698 483.677 121.147 494.897 118.152 505.816C117.704 507.682 118.746 510.284 120.88 510.621C147.526 515.211 174.647 512.946 201.631 513.908L207.255 514.119C235.149 515.145 265.062 515.831 289.91 515.831C311.744 512.363 333.529 516.028 355.392 516.179C365.925 515.766 376.208 513.26 386.548 511.432C407.978 507.644 429.696 505.696 451.464 505.915C452.416 505.924 452.602 504.856 452.088 504.323C460.673 500.129 454.869 475.869 454.982 467.12L454.532 462.615C449.647 414.036 443.822 364.336 423.997 319.317L423.403 318.037C416.261 302.71 408.451 288.413 397.34 275.619L396.661 274.602C394.58 271.492 392.137 267.919 389.947 264.956C378.395 249.352 363.661 241.65 346.264 235.546C342.482 234.218 336.296 235.297 332.543 233.775C328.608 232.179 325.213 227.901 321.449 225.742V241.845L267 295.495L236.118 248.13L232.976 228.732C232.22 228.685 231.48 228.541 230.765 228.347Z" fill="#8FA7DF"/>
<path fill-rule="evenodd" clip-rule="evenodd" d="M164.756 368.912C165.332 371.709 166.139 374.506 167.212 377.156C168.246 379.713 169.804 382.004 170.876 384.531C171.02 384.871 171.256 385.128 171.54 385.324L171.451 386.012L171.37 386.7C170.835 391.338 170.233 395.963 169.712 400.6L169.458 402.92C168.434 412.603 166.815 422.239 165.558 431.897C164.328 441.353 163.075 450.81 161.736 460.253C160.353 469.989 158.944 479.712 157.299 489.408C156.605 493.503 155.88 497.595 155.125 501.684L154.542 504.813C148.539 506.257 146.898 514.627 153.011 517.717C155.785 519.113 159.35 518.777 161.636 516.583C164.012 514.295 164.111 510.171 164.662 507.073L165.194 504.194C169.169 482.547 172.619 460.652 174.232 438.699C174.646 433.031 174.995 427.358 175.222 421.68C175.438 416.34 175.335 411 175.417 405.66L175.445 404.203C175.571 398.508 175.467 392.822 175.318 387.127C175.301 386.433 175.27 385.739 175.235 385.041C175.436 384.806 175.58 384.526 175.641 384.256L175.72 383.898C175.916 382.977 175.693 381.899 174.986 381.24C174.681 377.361 174.28 373.486 174.171 369.61C174.162 369.292 173.704 369.301 173.677 369.61C173.42 372.909 172.906 376.217 172.391 379.521C169.079 376.859 166.632 372.468 165.188 368.794C165.083 368.528 164.694 368.624 164.756 368.912ZM243.105 214.682C242.556 217.196 241.468 219.453 240.012 221.551C239.318 222.555 238.529 223.489 237.582 224.27C236.77 224.938 235.845 225.374 234.981 225.955C233.725 225.758 232.412 226.234 231.53 227.159L231.67 225.806C231.714 225.37 230.989 225.283 230.906 225.705C227.088 244.96 223.608 264.227 220.595 283.621L218.031 300.225C215.967 313.623 213.971 327.015 212.468 340.511C210.466 358.522 208.782 376.579 207.552 394.663C206.317 412.874 205.557 431.098 205.016 449.343C204.881 453.943 204.737 458.538 204.598 463.138L203.666 457.639C202.736 452.139 201.824 446.634 201.042 441.109C198.237 421.336 195.994 401.423 194.899 381.48C193.895 363.23 194.231 344.618 198.873 326.839C200.043 322.367 201.474 317.963 203.201 313.673C204.877 309.501 207.163 305.635 208.965 301.525C211.059 296.742 211.688 292.229 210.61 287.08C209.667 282.594 208.014 278.374 207.717 273.757C207.163 265.186 209.951 256.885 213.89 249.385C214.929 247.408 216.024 245.457 217.168 243.524C220.627 237.68 224.527 232.05 228.576 226.653C228.794 226.365 228.332 226.046 228.096 226.282C224.406 229.931 220.37 233.518 217.049 237.502C215.435 239.439 213.86 241.416 212.368 243.446C195.998 246.182 181.932 256.379 172.317 269.847C161.405 285.129 155.886 303.524 151.802 321.637C147.26 341.769 143.429 362.083 139.35 382.313C135.127 403.248 130.926 424.182 126.676 445.11C124.565 455.5 122.452 465.891 120.346 476.286C119.277 481.549 118.155 486.799 116.982 492.044C116.379 494.732 115.733 497.417 115.175 500.114C114.547 503.155 115.132 505.1 117.191 507.335C117.95 508.165 119.15 508.151 120.093 507.711L120.387 507.572L120.672 507.434C121.838 506.861 122.752 506.268 123.478 504.991C124.277 503.592 124.403 502.038 124.677 500.48C125.184 497.612 125.685 494.745 126.191 491.874C126.948 487.58 127.77 483.298 128.607 479.018L132.805 457.624C133.925 451.921 135.046 446.217 136.174 440.516C140.201 420.127 144.233 399.743 148.263 379.359C152.134 359.787 155.559 340.08 159.965 320.621L160.215 319.525L160.47 318.43C164.41 301.654 169.915 285.427 179.904 271.213C187.591 260.281 198.267 250.519 210.841 245.579C209.955 246.853 209.104 248.154 208.293 249.481C203.197 257.807 199.476 267.691 200.348 277.606C200.776 282.45 202.617 287.211 202.443 292.095C202.281 296.432 199.598 300.242 197.743 304.016C193.534 312.57 190.488 321.66 188.524 330.984C184.585 349.711 184.598 368.978 185.955 387.987C187.43 408.65 190.23 429.309 193.42 449.771C195.056 460.265 197.233 470.674 198.9 481.152C199.724 486.318 200.846 491.473 201.827 496.614L202.295 499.069C202.557 500.433 202.829 501.791 203.143 503.135L203.337 503.94V504.084C203.345 505.075 203.616 505.895 204.053 506.55C204.65 508.465 205.392 510.334 206.378 512.127C206.884 513.043 207.617 513.557 208.415 513.746C209.218 515.584 211.038 516.997 213.21 516.988L241.783 516.879C258.38 516.814 274.976 516.705 291.573 516.612C295.76 516.591 299.945 516.513 304.128 516.404C308.051 516.294 311.812 515.823 315.69 515.335C320.071 514.785 322.444 511.681 321.789 507.305C321.646 506.34 321.489 505.381 321.34 504.42C322.213 504.709 323.251 504.573 323.954 503.888L324.613 503.243C325.526 502.34 326.341 501.453 326.921 500.248C327.518 499.009 328.003 497.7 328.531 496.434C329.67 493.711 330.778 490.979 331.856 488.234C334.015 482.745 336.175 477.233 338.181 471.686C342.156 460.702 345.673 449.552 348.731 438.276C354.184 418.159 358.129 397.653 360.616 376.964L361.211 372.033L361.383 370.576C362.327 362.557 363.12 354.414 362.745 346.411C362.513 341.402 361.737 336.353 359.865 331.674C358.138 327.359 355.472 323.667 352.937 319.809L352.648 319.364L352.356 318.908C350.139 315.404 348.375 311.741 348.287 307.486C348.196 303.168 349.455 298.966 350.861 294.923L351.212 293.926L351.447 293.265C354.438 284.911 357.843 276.674 356.72 267.582C355.062 254.194 346.947 243.402 336.737 235.08C345.817 236.877 354.804 240.43 362.736 244.933C372.103 250.257 380.537 257.283 387.81 265.212C401.553 280.197 411.365 298.177 419.398 316.742C427.805 336.169 434.039 356.527 438.738 377.152C443.463 397.893 446.626 418.966 448.786 440.123C449.863 450.652 450.71 461.208 451.413 471.769C451.77 477.181 452.04 482.601 452.459 488.003C452.879 493.401 453.067 498.882 454.384 504.137C454.999 506.585 459.148 506.834 459.593 504.137C460.579 498.114 460.303 491.885 460.028 485.786L460.003 485.232C459.732 479.158 459.379 473.088 458.961 467.018C458.106 454.611 456.963 442.221 455.47 429.872C450.239 386.52 440.593 343.396 421.67 303.824C412.761 285.186 401.326 267.076 385.419 253.617C377.845 247.216 369.307 242.105 360.106 238.405C351.876 235.093 343.517 233.526 334.774 233.53C330.39 230.17 325.681 227.242 320.979 224.742C320.696 224.589 320.399 224.956 320.634 225.191C320.756 225.308 320.874 225.43 320.996 225.545C320.464 225.579 319.914 225.828 319.422 226.348C317.693 228.159 316.236 230.423 314.932 232.775C312.947 235.254 311.053 237.816 309.072 240.268C305.9 244.195 302.655 248.066 299.369 251.906C293.851 258.36 288.153 264.692 282.211 270.769L281.22 271.78C278.139 274.9 275.02 278.635 271.377 281.105L271.183 281.234C269.645 282.236 268.556 282.419 267.245 280.923C266.053 279.561 265.062 277.981 264.042 276.48L263.806 276.136C258.602 268.573 253.777 260.731 249.409 252.658C247.418 248.984 245.525 245.256 243.728 241.488L243.192 240.355C242.215 238.279 241.155 236.24 240.348 234.102C240.16 233.601 239.977 233.099 239.798 232.601C242.546 230.799 244.675 226.898 245.447 223.843C246.25 220.67 245.844 217.414 244.414 214.512C244.144 213.967 243.236 214.102 243.105 214.682ZM378.7 343.605C379.08 355.667 379.311 367.742 379.879 379.796L380.074 383.91C379.189 384.897 378.669 386.036 379.084 387.598C379.246 388.197 379.721 388.737 380.314 388.939L380.5 392.764C381.342 409.978 382.328 427.155 384.132 444.325C386.388 465.813 388.997 487.265 391.601 508.715C391.972 511.752 394.084 514.16 397.369 513.716C400.693 513.266 402.041 510.372 401.605 507.357C399.891 495.527 398.242 483.687 396.797 471.817L395.153 458.295C393.09 441.39 390.979 424.488 388.547 407.637C387.531 400.595 386.475 393.555 385.415 386.516L385.785 386.036C387.3 384.068 388.866 382.143 390.415 380.207C393.39 376.47 396.326 372.766 399.053 368.855C399.188 368.659 398.913 368.371 398.717 368.519C394.896 371.343 391.278 374.362 387.639 377.431L384.455 380.127C382.622 367.965 380.807 355.799 379.189 343.605C379.149 343.301 378.691 343.278 378.7 343.605ZM323.723 228.171C326.022 230.34 328.373 232.462 330.691 234.617L331.54 235.411L332.385 236.207C336.456 240.07 340.358 244.09 343.609 248.708C349.578 257.188 353.134 267.525 350.651 277.876C348.591 286.451 343.866 294.224 342.597 303.013C341.96 307.415 342.27 311.841 343.928 316C345.621 320.242 348.325 323.876 350.756 327.704C356.035 336.021 356.755 345.151 356.231 354.787C355.681 364.849 354.525 374.917 353.098 384.889C350.211 405.093 345.856 425.089 340.093 444.67C337.209 454.476 333.802 464.072 330.412 473.707C328.723 478.504 326.755 483.186 324.726 487.846C323.658 490.299 322.562 492.738 321.449 495.172C321.86 491.734 321.86 488.204 322.061 484.787C322.349 479.89 322.715 475.004 323.051 470.111C323.735 460.183 324.346 450.247 324.892 440.31C326.825 404.875 328.247 369.409 328.142 333.918C328.09 316.17 327.728 298.422 326.965 280.691C326.607 272.342 325.913 264 325.287 255.661L325.153 253.876C324.6 246.391 323.937 238.89 322.798 231.471C323.135 230.71 323.428 229.94 323.645 229.15L323.723 228.853L323.666 228.861C323.718 228.629 323.735 228.399 323.723 228.171ZM303.837 197.677C303.788 197.472 303.497 197.489 303.444 197.677C302.148 202.041 302.607 206.84 303.723 211.231C304.325 213.609 305.18 215.918 306.214 218.144L306.576 218.923C307.462 220.817 308.46 222.77 310.184 223.952C310.904 224.444 312.192 224.475 312.912 223.952L313.279 223.673C313.339 223.626 313.399 223.577 313.457 223.528C314.129 222.965 314.46 221.721 314.151 220.901C313.352 218.785 311.541 217.231 310.289 215.346C309.181 213.67 308.2 211.902 307.384 210.065C305.626 206.09 304.836 201.871 303.837 197.677Z" fill="black"/>
<path fill-rule="evenodd" clip-rule="evenodd" d="M273.322 39.4942C248.6 39.4942 223.031 58.7007 213.97 70.9569C203.492 85.1286 195.226 153.161 199.104 176.245C202.981 199.33 222.242 224.491 255.677 224.491C289.113 224.491 309.461 220.363 310.278 214.367C310.821 210.37 318.173 197.246 332.33 174.996C346.811 170.914 354.08 163.997 354.137 154.245C354.193 144.494 350.313 137.844 342.497 134.296C345.284 95.8124 343.168 71.5609 336.15 61.5416C325.621 46.5127 298.042 39.4942 273.322 39.4942Z" fill="#FFDBB4"/>
<path fill-rule="evenodd" clip-rule="evenodd" d="M289.99 2.22016C286.665 -1.70156 280.801 2.00537 280.933 6.29081C279.606 6.65089 278.04 7.89344 277.436 9.51317C276.129 9.42824 274.812 9.68849 273.626 10.3688L273.376 10.0598C269.264 5.02772 263.822 0.709575 258.207 4.41534C256.679 5.42385 255.994 7.09055 256.331 8.89715L256.358 9.02501L256.233 8.46726C256.107 7.93732 256.296 8.99772 256.366 9.22206L256.375 9.24757C256.523 9.6254 256.671 9.81562 256.806 10.1013C251.057 6.00747 242.303 8.40385 246.916 16.3285L245.04 15.5953C238.551 13.0814 230.481 10.3821 224.565 14.9017C221.92 17.4516 224.856 20.8515 227.55 21.6757L227.087 21.5981C221.916 20.7179 211.129 18.5426 209.588 25.2896C209.034 27.7172 210.65 29.4914 212.689 30.4682C208.374 30.4523 204.119 31.1653 200.385 33.276C196.833 35.8059 199.704 39.9924 203.418 39.8098C202.266 41.2371 201.884 43.6525 202.996 45.1942C200.885 45.7496 198.938 46.4638 197.143 47.5774L196.65 47.641C193.062 48.0896 188.969 48.3566 186.996 51.8883C184.091 59.5514 194.434 59.2462 198.874 56.5547C198.61 56.9839 198.415 57.4525 198.305 57.953L196.867 58.3576C191.439 59.8706 185.297 61.5422 181.803 66.1206C180.201 68.7554 182.43 73.2329 185.779 72.4328C176.704 76.7646 180.182 88.176 189.057 82.2398C189.472 82.6249 189.977 82.9109 190.506 83.0372L188.633 84.0548C183.877 86.665 178.156 90.2383 179.15 96.1643C180.094 99.3003 184.434 98.7272 186.64 97.5271C182.786 100.849 179.149 104.446 175.846 108.335L174.931 109.425C172.362 112.512 167.892 118.194 172.734 121.163C178.703 124.208 181.678 115.216 185.15 112.007C182.374 118.553 191.398 123.119 194.548 116.525C195.077 116.618 195.609 116.628 196.131 116.557C193.415 119.442 186.07 139.185 195.206 134.855C196.661 133.313 197.938 131.626 199.112 129.856C197.645 141.168 196.572 152.533 195.878 163.906L195.632 168.028C195.379 172.305 195.188 176.599 195.668 180.861C196.221 185.823 197.644 190.479 199.799 194.974C201.785 199.12 204.345 202.96 207.275 206.491C208.842 208.38 210.505 210.218 212.551 211.6C214.18 212.7 216.083 213.425 217.915 214.123C220.897 217.107 224.724 219.364 228.464 221.166C234.628 224.129 241.312 225.766 248.073 226.586C254.987 227.42 261.971 227.219 268.827 226.028C275.38 224.893 282.402 221.991 286.438 216.462C286.787 215.986 286.138 215.537 285.712 215.733C274 221.166 260.839 222.584 248.073 220.87C242.118 220.071 236.257 218.422 230.82 215.86C226.231 213.7 222.36 210.558 218.242 207.713C217.441 206.643 216.631 205.591 215.708 204.614L214.267 203.1C213.19 201.962 212.133 200.809 211.172 199.565C208.202 195.729 205.742 191.378 204.118 186.801C200.959 177.89 201.813 168.217 202.372 158.931L202.42 158.112C202.995 148.18 203.931 138.282 205.228 128.42C205.768 124.316 206.368 120.218 207.025 116.13C208.079 114.412 209.204 112.75 210.463 111.193C209.438 115.184 212.987 120.734 217.339 118.1C222.321 113.83 222.081 106.938 226.257 101.71C230.586 95.0072 260.456 81.9715 269.336 80.1409C267.906 82.2271 265.293 83.6802 264.683 86.1424C253.761 95.8146 271.564 100.964 277.123 87.1792C277 91.7684 276.536 96.3177 275.518 100.797C274.034 104.911 272.87 116.831 280.309 113.234C283.869 114.265 286.584 111.224 287.031 107.795C289.602 115.545 287.171 127.929 291.886 133.641C293.333 135.143 295.568 134.143 296.32 132.427C300.682 131.282 300.309 126.185 300.839 122.537C304.817 137.078 309.796 147.172 310.481 162.34C307.403 166.733 314.155 169.963 317.053 166.443C321.12 160.554 317.37 152.502 316.413 146.054C317.557 145.995 318.689 145.486 319.634 144.374C320.149 146.397 319.853 149.062 319.68 151.258C322.259 161.364 332.064 154.891 331.657 146.692C332.081 149.006 332.402 151.342 332.605 153.695C330.712 155.879 329.308 158.493 328.478 161.267C327.881 163.272 329.914 164.474 331.465 164.183C332.291 167.007 335.872 169.044 338.228 166.345C340.556 163.985 340.96 160.575 341.145 157.18C341.47 156.834 341.667 156.382 341.635 155.834C341.605 155.319 341.479 154.884 341.279 154.516C341.319 153.822 341.368 153.141 341.444 152.483C343.246 158.101 342.073 163.989 341.916 169.744C338.733 171.54 335.099 172.308 331.45 173.066L330.92 173.176C329.793 173.412 329.435 175.096 330.285 175.803C328.025 178.02 326.075 180.665 324.172 183.104C321.646 186.341 319.23 189.705 316.88 193.076L315.499 195.057C311.47 200.81 305.899 208.603 308.394 215.689C308.734 216.662 310.153 217.012 310.706 215.99C312.522 212.63 313.536 208.929 315.26 205.53C316.953 202.196 319.061 199.106 321.15 196.017L322.356 194.227C324.364 191.236 326.352 188.214 328.195 185.134L329.479 183C330.684 180.987 331.878 178.906 332.767 176.742C335.931 177.507 339.244 176.958 342.279 175.635L342.318 175.846L342.394 176.227C342.828 178.056 345.346 179.306 346.954 178.109C350.804 175.2 352.371 170.871 352.78 166.241C353.555 164.933 354.212 163.553 354.749 162.123C355.002 164.974 356.1 167.738 359.481 167.653C365.349 167.17 365.926 161.615 364.339 156.09C371.286 158.217 372.1 148.369 369.908 143.179C370.721 142.936 371.476 142.45 371.907 141.795L372.267 142.428C373.602 144.745 375.116 146.994 377.225 148.197C380.172 149.877 384.457 147.796 384.261 144.096C383.63 138.068 378.358 133.475 375.148 128.644C375.719 128.725 376.313 128.704 376.896 128.596C383.312 132.183 386.373 123.74 384.113 118.848C382.458 114.454 379.461 110.675 376.249 107.343L377.191 107.907C378.89 108.911 380.784 109.879 382.653 109.485C394.874 117.535 398.885 103.997 385.171 99.7658L385.176 99.7027C386.552 98.3722 387.149 96.2664 386.079 94.163C391.11 95.934 398.291 91.9269 393.858 86.4503C390.965 83.7206 387.553 81.3725 383.77 80.1437C383.959 79.1387 384.02 78.116 383.941 77.087L384.168 77.1177C386.556 77.4624 389.5 78.4397 390.972 75.8623C391.72 74.5644 391.632 72.4255 390.408 71.4165C386.192 67.942 381.381 65.0521 376.157 63.8805C375.965 63.2429 375.765 62.6089 375.553 61.9782C380.011 61.8951 385.015 55.9612 379.895 52.599C375.394 50.3002 370.757 48.8217 365.675 48.9588C368.654 46.0139 366.895 40.6758 362.933 39.8552C365.528 34.3173 359.118 31.46 354.336 32.3333C354.512 29.8729 353.198 27.1305 350.669 26.5129C351.996 18.7272 343.77 19.4637 338.617 21.3093C340.343 18.3076 338.569 14.7763 335.525 13.7237C330.54 12.5926 325.769 17.3526 321.973 20.2716C323.267 17.2263 322.176 14.4186 319.093 13.2051C315.917 11.9595 312.496 14.3667 309.845 16.0025C308.404 14.1888 305.944 13.5975 303.737 13.7096C303.502 13.0285 303.155 12.4604 302.712 12.0113C302.724 7.81438 295.595 5.50703 293.107 9.41649C292.684 6.69813 291.568 4.08248 289.99 2.22016ZM200.801 78.3417L200.719 78.7935C200.613 78.887 200.514 78.9856 200.413 79.0815C200.095 79.1569 199.788 79.2363 199.497 79.3176C199.921 78.9739 200.358 78.6555 200.801 78.3417ZM195.298 67.3277L195.395 67.462C195.411 67.4842 195.428 67.506 195.446 67.5271C195.177 67.629 194.909 67.7332 194.642 67.8408L194.242 68.0047L194.101 68.067C194.498 67.8172 194.897 67.5697 195.298 67.3277ZM259.471 11.881L259.711 11.9407C259.788 11.9594 259.86 11.9767 259.927 11.9927C259.951 11.999 259.974 12.0017 259.996 12.0109L259.933 11.9972C260.047 12.0839 260.197 12.1861 260.321 12.2678C260.199 12.2579 260.077 12.246 259.955 12.2393C259.795 12.1194 259.633 11.9999 259.471 11.881Z" fill="black"/>
<path fill-rule="evenodd" clip-rule="evenodd" d="M236.491 184.417C235.823 183.252 234.282 182.174 232.872 182.34C226.554 183.08 226.566 190.741 229.005 195.213C231.167 199.179 235.643 201.506 240.123 201.166C244.829 200.809 248.84 198.042 250.604 193.638C251.771 190.725 252.31 185.348 249.206 183.39C249.148 183.353 249.054 183.363 249.007 183.415C247.519 185.147 247.46 187.748 246.157 189.676C244.945 191.47 243.062 192.951 240.857 193.179C239.209 193.35 237.542 192.756 236.898 191.277C236.549 190.477 236.589 190.042 236.72 189.491L236.839 189.013C237.251 187.336 237.437 186.061 236.491 184.417ZM234.804 150.821C231.509 152.824 226.489 157.494 230.032 162.461C234.204 166.839 240.211 161.819 243.172 159.548C245.917 157.788 249 162.314 246.453 164.369C225.065 180.208 216.385 151.345 233.137 148.466C234.981 148.148 235.666 150.201 234.804 150.821ZM269.595 137.085C267.572 134.051 262.956 134.498 261.843 138.099C261.239 140.05 262.072 141.803 262.029 143.752C261.993 145.397 262.101 147.231 262.605 148.824C263.755 152.459 267.023 155.025 270.889 154.919C274.743 154.813 278.136 152.374 279.75 148.938C281.37 145.489 281.026 141.92 279.845 138.413C279.788 138.244 279.567 138.162 279.433 138.304C278.036 139.791 277.013 141.358 275.954 143.022L274.87 144.727C274.041 146.011 272.836 147.65 271.288 147.548L271.055 147.526C270.624 147.488 270.69 147.574 270.359 146.987C270.205 146.715 270.233 146.211 270.159 145.891L270.133 145.783L270.148 145.724C270.18 145.569 270.213 145.277 270.239 144.77L270.244 144.657C270.357 142.285 271.027 139.236 269.595 137.085ZM218.334 139.106C218.696 135.225 213.241 134.363 211.427 137.234C210.481 138.732 210.206 140.614 209.997 142.396L209.899 143.242C209.684 145.073 209.599 146.978 210.394 148.685C211.645 151.374 214.366 152.796 217.301 152.571C220.105 152.356 222.662 150.73 224.01 148.261C225.213 146.06 226.407 141.76 224.947 139.464C224.859 139.325 224.683 139.307 224.562 139.414C223.183 140.639 222.958 142.873 222.138 144.47C221.292 146.116 220.009 147.72 218.064 147.97C216.203 148.209 215.493 147.193 215.967 145.419C216.58 143.128 218.103 141.57 218.334 139.106ZM268.121 114.011L267.229 113.669C264.172 112.514 259.975 111.179 257.49 113.665C255.957 115.198 255.665 117.456 256.76 119.327C258.085 121.593 260.463 121.649 262.76 121.983C265.372 122.363 268.029 123.085 270.461 124.114C273.2 125.273 275.743 126.719 278.234 128.333C280.6 129.867 282.96 132.374 285.794 132.846C285.909 132.865 286.04 132.816 286.071 132.689C286.714 129.917 284.926 127.191 283.329 125.028C281.399 122.411 279.059 120.263 276.444 118.337C273.92 116.478 271.036 115.134 268.121 114.011ZM212.595 123.863L212.323 123.815C210.469 123.506 208.789 123.577 207.392 125.046C206.326 126.166 205.915 127.618 206.423 129.099C206.892 130.465 207.941 131.854 209.464 132.14C214.603 133.108 220.295 132.947 225.46 132.215C227.823 131.88 230.207 131.47 232.508 130.823L233.567 130.516C235.489 129.967 237.689 129.393 239.085 127.98C239.587 127.472 239.297 126.745 238.697 126.51C236.262 125.555 232.923 126.063 230.326 125.989C227.306 125.902 224.28 125.676 221.274 125.364C218.335 125.059 215.493 124.394 212.595 123.863Z" fill="black"/>
<path fill-rule="evenodd" clip-rule="evenodd" d="M195.757 153.479C201.054 158.954 209.897 160.524 216.944 157.588C235.04 150.026 226.183 126.439 212.227 120.105C210.484 119.67 208.155 118.639 206.032 118.405C205.84 118.311 205.422 118.584 204.915 118.325C189.527 120.044 186.022 143.937 195.757 153.479ZM254.123 154.88C260.065 162.761 271.109 165.194 280.133 161.529C297.961 154.507 291.639 133.592 279.441 125.392C253.675 115.707 243.034 140.348 254.123 154.88ZM292.77 137.417C292.787 137.409 292.804 137.404 292.82 137.397C292.726 137.355 292.631 137.314 292.538 137.272C292.569 137.352 292.602 137.431 292.632 137.51C292.678 137.479 292.719 137.441 292.77 137.417ZM183.492 128.897C184.947 128.9 187.048 129.139 188.252 130.148C191.221 120.132 202.182 110.861 211.714 117.621C219.22 120.035 224.791 125.391 227.956 132.51C233.664 129.114 242.64 130.564 247.59 135.055C250.831 124.342 258.809 120.59 268.305 120.035C278.669 118.338 289 128.406 292.223 136.483C294.904 136.177 298.908 135.325 301.43 136.979C317.794 132.687 346.404 130.32 349.73 132.704C352.101 133.615 353.402 139.212 350.091 139.513C347.205 139.104 350.428 135.413 347.518 135.01C332.021 134.049 316.975 137.171 301.64 138.48C300.271 140.323 295.847 140.939 293.488 140.199C297.204 153.9 289.182 163.221 277.159 166.014C258.544 170.29 242.348 153.634 247.216 136.309C241.577 133.503 235.09 133.624 228.947 135.102C239.213 172.889 178.369 171.193 187.871 131.444C181.547 134.59 180.174 129.532 183.492 128.897Z" fill="black"/>
<path d="M116.539 350.957C116.37 348.306 116.868 345.413 118.532 343.538C120.187 341.651 123.01 340.781 125.927 340.425C128.844 340.069 131.841 340.255 133.628 341.808C135.403 343.368 135.952 346.323 136.591 349.088C137.218 351.863 137.943 354.459 137.342 356.827C136.732 359.183 134.785 361.319 132.337 362.674C129.885 364.05 126.932 364.645 124.518 363.817C122.096 362.979 120.214 360.72 118.871 358.384C117.519 356.035 116.708 353.608 116.539 350.957Z" fill="#9093D1"/>
<path d="M0.26948 388.503C-0.067419 383.201 0.927546 377.415 4.25545 373.665C7.56657 369.891 13.2105 368.152 19.0447 367.44C24.8789 366.728 30.8745 367.099 34.4472 370.204C37.9971 373.325 39.0951 379.235 40.3723 384.767C41.6265 390.314 43.0767 395.507 41.8747 400.243C40.6557 404.956 36.7617 409.227 31.8647 411.939C26.9615 414.689 21.0553 415.878 16.2279 414.225C11.3837 412.549 7.61824 408.031 4.93239 403.357C2.22958 398.66 0.606474 393.806 0.26948 388.503Z" fill="#F7859C"/>
<path d="M67.0022 454.356C66.6648 449.053 67.66 443.268 70.988 439.517C74.2988 435.744 79.9434 434.005 85.7776 433.293C91.6109 432.581 97.6072 432.952 101.179 436.056C104.729 439.176 105.828 445.087 107.105 450.618C108.359 456.167 109.81 461.36 108.607 466.095C107.388 470.807 103.494 475.08 98.5967 477.79C93.6939 480.541 87.7882 481.73 82.9606 480.077C78.1159 478.401 74.3503 473.883 71.6649 469.209C68.9622 464.511 67.3387 459.658 67.0022 454.356Z" fill="#F7859C"/>
<path d="M34.3447 308.342C33.8311 300.061 35.4011 291.023 40.6133 285.157C45.7991 279.255 54.6274 276.525 63.7505 275.398C72.8727 274.272 82.2456 274.837 87.8234 279.676C93.365 284.542 95.0676 293.77 97.0505 302.406C98.9971 311.068 101.252 319.174 99.3604 326.573C97.4433 333.936 91.3449 340.619 83.6823 344.864C76.01 349.172 66.7734 351.045 59.2299 348.475C51.6607 345.869 45.7851 338.822 41.5976 331.528C37.3838 324.199 34.8582 316.623 34.3447 308.342Z" fill="#9FD8E5"/>
<path d="M64.1414 388.504C63.8039 383.202 64.7991 377.416 68.1271 373.665C71.438 369.892 77.0825 368.153 82.9167 367.441C88.75 366.729 94.7463 367.1 98.3184 370.204C101.868 373.326 102.967 379.236 104.244 384.768C105.498 390.315 106.949 395.508 105.747 400.244C104.527 404.956 100.633 409.228 95.7359 411.939C90.833 414.689 84.9273 415.878 80.0997 414.225C75.255 412.549 71.4895 408.031 68.804 403.357C66.1014 398.66 64.4779 393.807 64.1414 388.504Z" fill="#FFDBB4"/>
</svg>
