<?xml version="1.0" encoding="utf-8"?>
<!-- Generator: Adobe Illustrator 26.0.3, SVG Export Plug-In . SVG Version: 6.00 Build 0)  -->
<svg version="1.1" id="Layer_1" xmlns="http://www.w3.org/2000/svg" xmlns:xlink="http://www.w3.org/1999/xlink" x="0px" y="0px"
	 viewBox="0 0 272.4 292.5" style="enable-background:new 0 0 272.4 292.5;" xml:space="preserve">
<style type="text/css">
	.st0{clip-path:url(#SVGID_00000173157418888057902170000012828968998311350194_);fill:none;stroke:#6A3834;stroke-width:2.5;}
	.st1{clip-path:url(#SVGID_00000038379676886859363910000011476197324770847880_);fill:none;stroke:#6A3834;stroke-width:2.5;}
	.st2{clip-path:url(#SVGID_00000038404797592548727840000010610329711552077980_);fill:none;stroke:#6A3834;stroke-width:2.5;}
	.st3{clip-path:url(#SVGID_00000114040608554598875960000008281858762250034354_);fill:none;stroke:#6A3834;stroke-width:2.5;}
	.st4{clip-path:url(#SVGID_00000006672614313587237770000008401658491208636587_);fill:none;stroke:#6A3834;stroke-width:2.5;}
	.st5{clip-path:url(#SVGID_00000112605141874512475390000015520052273015858346_);fill:none;stroke:#6A3834;stroke-width:2.5;}
	.st6{clip-path:url(#SVGID_00000134929730594840619120000008180899997830852025_);fill:none;stroke:#6A3834;stroke-width:2.5;}
	.st7{clip-path:url(#SVGID_00000012443324595654007690000007368463275144129680_);fill:none;stroke:#6A3834;stroke-width:2.5;}
	.st8{clip-path:url(#SVGID_00000161609448600769119950000011730080666735801748_);fill:#6A3834;}
	.st9{clip-path:url(#SVGID_00000077318635528113426050000015587373386274514869_);fill:#6A3834;}
	.st10{clip-path:url(#SVGID_00000049923318025885293280000004510588576517802919_);fill:#6A3834;}
	.st11{clip-path:url(#SVGID_00000015347578431418054220000009437999445805422254_);fill:#6A3834;}
	.st12{clip-path:url(#SVGID_00000046302026906253231540000010189126374742307990_);fill:#6A3834;}
	.st13{clip-path:url(#SVGID_00000065033790907540969100000015856488850496411320_);fill:#6A3834;}
	.st14{clip-path:url(#SVGID_00000077323802201518405920000004453335035114549407_);fill:#6A3834;}
	.st15{clip-path:url(#SVGID_00000023970294193154155420000012883260166311013531_);fill:#6A3834;}
	.st16{clip-path:url(#SVGID_00000125585865904383240140000010423234381020562858_);fill:#6A3834;}
	.st17{clip-path:url(#SVGID_00000031906413415020110650000013264746313039745190_);fill:#6A3834;}
	.st18{clip-path:url(#SVGID_00000133503533166197597320000000462916023321713066_);fill:#D0F4A5;}
	.st19{clip-path:url(#SVGID_00000148623955103081168230000008823196732496630719_);fill:#6A3834;}
	.st20{clip-path:url(#SVGID_00000042727899488528498520000003020553276025459638_);fill:#D0F4A5;}
	.st21{clip-path:url(#SVGID_00000026843225559841535960000005706189012986254737_);fill:#6A3834;}
	.st22{clip-path:url(#SVGID_00000174598476369341792950000009971455066727913370_);fill:#D0F4A5;}
	.st23{clip-path:url(#SVGID_00000037691138340060913580000005295296662178082228_);fill:#6A3834;}
	.st24{clip-path:url(#SVGID_00000003063401037545883370000003654882326273007520_);fill:#D0F4A5;}
	.st25{clip-path:url(#SVGID_00000053514731300787837990000000056522925784256399_);fill:#6A3834;}
	.st26{clip-path:url(#SVGID_00000052802186374036551670000010210290092893307050_);fill:#D0F4A5;}
	.st27{clip-path:url(#SVGID_00000172438898363389435980000012957093916424499368_);fill:#6A3834;}
	.st28{clip-path:url(#SVGID_00000142148934749426891230000016750102595125400975_);fill:#D0F4A5;}
	.st29{clip-path:url(#SVGID_00000144307326941191092190000000572239526358664320_);fill:#6A3834;}
	.st30{clip-path:url(#SVGID_00000018930497834087541870000000622224090961029517_);fill:#D0F4A5;}
	.st31{clip-path:url(#SVGID_00000008844690826710894610000004529638151339194521_);fill:#6A3834;}
	.st32{clip-path:url(#SVGID_00000062915245731320535080000000890589156956766622_);fill:#D0F4A5;}
	.st33{clip-path:url(#SVGID_00000106126529821483474610000008057351919842518175_);fill:#6A3834;}
	.st34{clip-path:url(#SVGID_00000069397396002036091500000010601041619822106023_);fill:#D0F4A5;}
</style>
<g>
	<g>
		<defs>
			<rect id="SVGID_1_" x="0" y="0" width="272.4" height="292.5"/>
		</defs>
		<clipPath id="SVGID_00000170994325011723640740000014308112583910733984_">
			<use xlink:href="#SVGID_1_"  style="overflow:visible;"/>
		</clipPath>
	</g>
	<g>
		<defs>
			<rect id="SVGID_00000058578785297475247980000018170445276157832067_" x="0" y="0" width="272.4" height="292.5"/>
		</defs>
		<clipPath id="SVGID_00000170239131685759077850000002218313303931462814_">
			<use xlink:href="#SVGID_00000058578785297475247980000018170445276157832067_"  style="overflow:visible;"/>
		</clipPath>
		
			<path style="clip-path:url(#SVGID_00000170239131685759077850000002218313303931462814_);fill:none;stroke:#6A3834;stroke-width:2.5;" d="
			M-1224.6,250c110.8,0,85.5-184,190-184"/>
	</g>
	<g>
		<defs>
			<rect id="SVGID_00000013189261143830146550000016268218694568643774_" x="0" y="0" width="272.4" height="292.5"/>
		</defs>
		<clipPath id="SVGID_00000021814858618768983930000004369657674721682069_">
			<use xlink:href="#SVGID_00000013189261143830146550000016268218694568643774_"  style="overflow:visible;"/>
		</clipPath>
		
			<path style="clip-path:url(#SVGID_00000021814858618768983930000004369657674721682069_);fill:none;stroke:#6A3834;stroke-width:2.5;" d="
			M-734.6,250c110.8,0,85.5-184,190-184"/>
	</g>
	<g>
		<defs>
			<rect id="SVGID_00000178926636305031178030000000133482401011484034_" x="0" y="0" width="272.4" height="292.5"/>
		</defs>
		<clipPath id="SVGID_00000137842483005865967470000002668431713619796913_">
			<use xlink:href="#SVGID_00000178926636305031178030000000133482401011484034_"  style="overflow:visible;"/>
		</clipPath>
		
			<path style="clip-path:url(#SVGID_00000137842483005865967470000002668431713619796913_);fill:none;stroke:#6A3834;stroke-width:2.5;" d="
			M-244.6,250c110.8,0,85.5-184,190-184"/>
	</g>
	<g>
		<defs>
			<rect id="SVGID_00000111886323567867255640000008353339757476021653_" x="0" y="0" width="272.4" height="292.5"/>
		</defs>
		<clipPath id="SVGID_00000080895931188669257770000011449272474614314626_">
			<use xlink:href="#SVGID_00000111886323567867255640000008353339757476021653_"  style="overflow:visible;"/>
		</clipPath>
		
			<path style="clip-path:url(#SVGID_00000080895931188669257770000011449272474614314626_);fill:none;stroke:#6A3834;stroke-width:2.5;" d="
			M-299.6,250c-110.8,0-85.5-184-190-184"/>
	</g>
	<g>
		<defs>
			<rect id="SVGID_00000120522151036902003090000012142870483810166179_" x="0" y="0" width="272.4" height="292.5"/>
		</defs>
		<clipPath id="SVGID_00000057831181872652007960000014882846915387097238_">
			<use xlink:href="#SVGID_00000120522151036902003090000012142870483810166179_"  style="overflow:visible;"/>
		</clipPath>
		
			<path style="clip-path:url(#SVGID_00000057831181872652007960000014882846915387097238_);fill:none;stroke:#6A3834;stroke-width:2.5;" d="
			M-789.6,250c-110.8,0-85.5-184-190-184"/>
	</g>
	<g>
		<defs>
			<rect id="SVGID_00000013887027804056650900000007711593961166048694_" x="0" y="0" width="272.4" height="292.5"/>
		</defs>
		<clipPath id="SVGID_00000007400314222075772520000012927087500889347737_">
			<use xlink:href="#SVGID_00000013887027804056650900000007711593961166048694_"  style="overflow:visible;"/>
		</clipPath>
		
			<path style="clip-path:url(#SVGID_00000007400314222075772520000012927087500889347737_);fill:none;stroke:#6A3834;stroke-width:2.5;" d="
			M245.4,250c110.8,0,85.5-184,190-184"/>
	</g>
	<g>
		<defs>
			<rect id="SVGID_00000026869387019834268410000014828837968070218431_" x="0" y="0" width="272.4" height="292.5"/>
		</defs>
		<clipPath id="SVGID_00000127758689911623986130000006497848497486632889_">
			<use xlink:href="#SVGID_00000026869387019834268410000014828837968070218431_"  style="overflow:visible;"/>
		</clipPath>
		
			<path style="clip-path:url(#SVGID_00000127758689911623986130000006497848497486632889_);fill:none;stroke:#6A3834;stroke-width:2.5;" d="
			M680.4,250c-110.8,0-85.5-184-190-184"/>
	</g>
	<g>
		<defs>
			<rect id="SVGID_00000022543682750661923000000015406624978767374236_" x="0" y="0" width="272.4" height="292.5"/>
		</defs>
		<clipPath id="SVGID_00000029751571340977058880000015898855342657419442_">
			<use xlink:href="#SVGID_00000022543682750661923000000015406624978767374236_"  style="overflow:visible;"/>
		</clipPath>
		
			<path style="clip-path:url(#SVGID_00000029751571340977058880000015898855342657419442_);fill:none;stroke:#6A3834;stroke-width:2.5;" d="
			M190.4,250C79.5,250,104.9,66,0.4,66"/>
	</g>
	<g>
		<defs>
			<rect id="SVGID_00000020368522799842351050000005031059577035629187_" x="0" y="0" width="272.4" height="292.5"/>
		</defs>
		<clipPath id="SVGID_00000070114846745953290480000015102310843169111472_">
			<use xlink:href="#SVGID_00000020368522799842351050000005031059577035629187_"  style="overflow:visible;"/>
		</clipPath>
		<path style="clip-path:url(#SVGID_00000070114846745953290480000015102310843169111472_);fill:#6A3834;" d="M-1204.2,103.1
			c0.3,4.7,2.3,8.6,5.6,11.8c2.3,2.2,5.1,4,7.7,6c0.4,0.3,0.9,0.4,1.4,0.4c4.8-0.1,9.5-0.8,13.8-3c6.9-3.4,10.3-9.2,11.3-16.5
			c0.2-1.3,0.3-2.6,0.3-4c0-1,0.4-1.4,1.3-1.8c0.7-0.2,1.3-0.7,1.7-1.3c0.5-0.9,0-1.8-0.7-2.5c-4-4.3-8.5-7.9-14-10.2
			c-0.2-0.1-0.4-0.2-0.5-0.3c0.3-1.1,0.9-2.1,1.6-3c0.8-0.9,1.7-1.6,2.7-2.1c2-0.9,4-1.6,6.1-2.3c1.4-0.5,2-1.2,1.8-2.4
			c-0.3-1.1-1.3-1.6-2.7-1.2c-2,0.5-3.9,1.2-5.8,2c-3.7,1.7-5.4,3.5-7.4,7.8c-2.2-0.3-4.5-0.8-6.7-0.8c-3.5-0.1-6.9,0-10.4,0
			c-1.8,0.1-2.7,1.4-1.8,2.9c1.3,2.2,0.8,3.7-0.6,5.7C-1202.5,92.7-1204.5,97.5-1204.2,103.1z M-1166.1,93.4
			c-2.8,0.9-5.4,0.8-7.8-1.3c-0.5-0.5-1.6-0.8-2.1-0.6c-0.6,0.2-0.9,1.2-1.3,1.9c-0.1,0.3-0.1,0.6-0.1,0.9c-0.5,3.9-3.4,7.3-6.9,8
			c-2.1-3.6-3.1-7.2-1-11.2c0.2-0.3,0.3-0.6,0.4-1c0.1-0.2,0.1-0.5,0.1-0.8s-0.1-0.5-0.3-0.7c-0.1-0.2-0.3-0.4-0.6-0.5
			c-0.2-0.1-0.5-0.2-0.7-0.2c-0.7-0.1-1.5-0.1-2.2-0.2c-2.7-0.4-4.5-1.9-5.8-4.3C-1185.1,81.6-1170.3,86.8-1166.1,93.4z
			 M-1195.1,88.8c0.8,0.6,1.7,1.1,2.6,1.6s1.9,0.7,3,1.1c-1.6,5.6,0.3,10,2.8,14c0.5,0.9,1.3,1.2,2.3,0.9c4.9-1.5,8.6-4.3,10.2-9.4
			c0-0.2,0.2-0.3,0.1-0.2l6.5,1.1c-0.1,0.9-0.2,2-0.3,3.1c-0.9,7.9-5.3,13.1-13,15.3c-1.1,0.3-2.4,0.5-3.5,0.8
			c-3.4,1-6.4,0.2-8.9-2.3c-0.5-0.5-1.1-0.9-1.7-1.4C-1202.3,106.5-1202.4,95.8-1195.1,88.8L-1195.1,88.8z M-1148.2,122.4
			c-1.3-6.6-9.4-9.4-14.7-4.6c-2.7,2.5-5.6,4.8-8.5,7.1l-8.9,7.5c-2.5-3.2-5.8-3.9-9.5-3.9c-6.5,0.1-13,0.1-19.5,0
			c-1,0-2-0.4-2.8-0.9c-2.6-1.8-5.4-3.1-8.5-3.3c-11.3-0.8-21.1,2.7-29,10.8c-3.4,3.4-6.3,7.4-9.4,11.1c-0.5,0.6-0.9,0.9-1.7,0.7
			c-1.7-0.3-3.2,0.4-4.4,1.7c-0.8,0.9-1.6,1.8-2.5,2.6c-0.3,0.3-0.7,0.5-1.2,0.5c-0.8-0.1-1.6,0-2.4,0.2c-0.8,0.3-1.5,0.7-2,1.3
			c-1.6,1.6-3.1,3.2-4.7,4.7c-0.6,0.5-1,1.2-1.3,1.9s-0.4,1.5-0.4,2.2c0,6.9,0,13.8,0,20.7c0,3.4,1.7,5,5.1,5c9.3,0,18.6,0,27.9,0
			c3.8,0,6-2.3,8.1-4.9c0.3-0.4,0.4-0.8,0.5-1.2s0.1-0.9,0-1.3c-0.4-1.7,0.3-2.7,1.4-3.7c0.5-0.4,0.9-0.9,1.3-1.4
			c0.5-0.6,0.9-1.3,1.1-2.1s0.2-1.6,0-2.4c-0.2-0.8,0.1-1.2,0.5-1.7c1.9-1.9,3.9-3.8,5.7-5.7c1.3-1.4,2.7-1.9,4.6-1.9
			c12.3,0,24.6,0,36.9,0c3.7,0,6.7-1.2,9.3-3.9c8.2-8.5,16.5-16.9,24.9-25.3c2-2,3.7-4,4.4-6.8v-2.8
			C-1148,122.6-1148.1,122.5-1148.2,122.4z M-1243.2,181.6c-1.3,1.4-2.9,1.9-4.8,1.8c-8.6-0.1-17.1,0-25.7,0h-1.6v-4
			c0-5.6,0-11.2,0-16.8c0-0.7,0.3-1.3,0.8-1.9c1.3-1.4,2.7-2.7,4-4c0.7-0.7,1.1-0.8,1.9-0.1c8.5,7.6,16.9,15.2,25.4,22.8
			C-1242,180.3-1242.1,180.5-1243.2,181.6z M-1239.2,172.9c-0.7,0.7-1.3,1.4-2.1,2.2l-23.2-20.8c0.9-1,1.7-1.9,2.6-2.8
			c0.6-0.7,1.1-0.1,1.5,0.3l11.9,10.7c3.1,2.7,6.1,5.5,9.2,8.2C-1238.3,171.5-1238.3,172.1-1239.2,172.9z M-1153.9,127.6
			c-4,4-7.9,8.1-11.9,12.1c-4.9,4.9-9.8,9.9-14.6,14.9c-0.7,0.8-1.6,1.4-2.7,1.9c-1,0.4-2.1,0.6-3.2,0.6c-12.3,0-24.7,0-37,0
			c-3.2,0-5.7,1-7.9,3.3c-2,2.1-4.1,4.1-6.2,6.3l-18.9-17c5.5-6.5,10.1-13.8,18.2-17.7c5.4-2.6,11-3.8,16.9-3.3
			c2.3,0.2,4.5,1,6.4,2.5c1.7,1.3,3.5,1.8,5.6,1.8c6.9,0,13.7,0,20.6,0c0.7,0,1.5,0,2.2,0.2c1,0.3,1.9,0.9,2.5,1.7
			c0.6,0.9,0.9,1.9,0.8,3c-0.2,2.2-2,3.8-4.4,3.9c-3.8,0.1-7.6,0-11.4,0c-4.1,0-8.1,0-12.2,0c-1.6,0-2.6,0.8-2.6,2.2
			c0,1.3,1,2.2,2.6,2.2c7.9,0,15.8,0,23.7,0c4.8,0,8.4-3.4,8.8-8.2c0-0.4,0.1-0.8,0.3-1.1c0.2-0.4,0.4-0.7,0.8-0.9
			c6-5,11.9-10,18-15c2.8-2.3,6.6-1,7.3,2.5C-1152.1,125-1152.7,126.4-1153.9,127.6z M-1253.9,108.9c5.8,3.8,12.2,6.1,19.2,5.9
			c6.6-0.1,12-4,13.9-9.9c0.2-0.6,0.4-1.3,0.6-1.9v-3.4c-1.3-5.8-5.3-9-10.5-11.2c-1-0.4-2-0.9-3-1.2c-5-1.9-8.7-5.2-11.2-9.9
			c-1.1-2.1-2.4-4.1-3.9-6c-2.2-2.9-5.2-5-8.9-5.4c-6.3-0.7-12.3,3.8-13.9,10.3c-1,4-0.4,7.9,0.9,11.7
			C-1267.6,97.1-1261.7,103.8-1253.9,108.9L-1253.9,108.9z M-1251,81.2c0.1-1.3,0.6-2.5,0.9-3.7l0.6-0.1c3.3,7.6,9.1,12.3,17,14.7
			c-1.2,1.3-2.8,2-4.5,2.1C-1243.9,95-1251.3,88.1-1251,81.2L-1251,81.2z M-1267.4,77c1.1-3.8,4.5-6.7,8.1-6.9
			c3-0.2,5.2,1.5,7.2,3.5c-6.2,7.4-1.9,18,6,22.4c4.4,2.5,9,3.3,13.7,1.1c1.4-0.7,2.6-1.8,3.9-2.7c5.4,3.1,5.7,10,0.5,14
			c-2.9,2.3-6.4,2.8-9.9,2.2c-14.5-2.7-24.1-11.1-29.2-24.8C-1268.2,83-1268.3,79.9-1267.4,77L-1267.4,77z M-1229,70.4
			c3,5.2,7.8,8,13.6,9.1c7.4,1.3,13.9-1.1,19.7-5.6c5-3.8,8.6-8.7,9.9-15c0.3-1.5,0.4-3,0.6-4.6c-0.1-4.1-1.3-8-3.4-11.5
			c-4-6.3-12.9-6.4-17-0.1c-1.5,2.3-2.7,4.7-4,7c-0.5,1-1.3,1.9-2.2,2.6c-0.9,0.7-2,1.1-3.2,1.2c-2.2,0.3-4.5,0.8-6.7,1.2
			C-1229.1,56.1-1232.8,63.9-1229,70.4L-1229,70.4z M-1206,50.9c1.3,2.9,0.2,5.8-2.4,7.4c-2.3,1.4-4.9,1-6.6-1
			C-1210.8,56.8-1208,54.6-1206,50.9L-1206,50.9z M-1222.3,58.7c0.7-0.3,1.5-0.3,2.2-0.5s1.1,0,1.5,0.6c2.8,4.1,8.2,5.2,12.3,2.6
			c4.3-2.7,6-8.4,3.5-12.6c-1-1.6-0.7-2.7,0.2-3.9c0.1-0.2,0.2-0.4,0.3-0.5c2.7-3.7,8-3.6,10.5,0.3c1.8,2.7,2.7,5.9,2.8,9.1
			c0.1,5.7-2.1,10.4-6,14.4c-4.5,4.8-10.1,7.4-15.6,7.9c-6.4,0-12.2-2.9-14.8-7.1C-1228,65.1-1226.5,60.2-1222.3,58.7L-1222.3,58.7z
			"/>
	</g>
	<g>
		<defs>
			<rect id="SVGID_00000034768691280096415610000004016605627804710563_" x="0" y="0" width="272.4" height="292.5"/>
		</defs>
		<clipPath id="SVGID_00000064341502703963725890000002595744653454360449_">
			<use xlink:href="#SVGID_00000034768691280096415610000004016605627804710563_"  style="overflow:visible;"/>
		</clipPath>
		<path style="clip-path:url(#SVGID_00000064341502703963725890000002595744653454360449_);fill:#6A3834;" d="M-1030,150.5
			c0.4,0,0.8,0,1.2,0c2,0,3.1-1.1,2.5-2.6c-0.4-1-1.3-1.2-2.3-1.2c-1.1,0-2.2,0-2.7,1.2c-0.1,0.3-0.2,0.6-0.2,0.8
			c0,0.3,0.1,0.6,0.2,0.8c0.1,0.3,0.3,0.5,0.6,0.6C-1030.5,150.3-1030.3,150.4-1030,150.5z M-1028.5,264.6c-2.1,0-2.9,0.4-3,1.7
			c-0.1,1.4,0.8,2.1,2.7,2.1c1.8,0,2.7-0.7,2.7-2C-1026.2,265.3-1027,264.6-1028.5,264.6L-1028.5,264.6z M-1015.7,264.6
			c-0.6,0-1.2,0-1.8,0s-1.1,0-1.7,0c-1.1,0.1-1.8,0.7-1.9,1.7c-0.1,1.1,0.5,1.9,1.5,2c1.4,0.2,2.7,0.1,4.1,0c1-0.1,1.6-1,1.5-2.1
			C-1014.1,265.2-1014.7,264.7-1015.7,264.6L-1015.7,264.6z M-994.7,150.5c0.6,0,1.1,0,1.7,0c0.6,0,1.2,0,1.8,0c0.2,0,0.5,0,0.7-0.1
			s0.4-0.2,0.6-0.4c0.2-0.2,0.3-0.4,0.4-0.6c0.1-0.2,0.1-0.5,0.1-0.7s0-0.5,0-0.7c-0.1-0.2-0.2-0.4-0.3-0.6
			c-0.2-0.2-0.3-0.3-0.6-0.4c-0.2-0.1-0.4-0.2-0.7-0.2c-1.3-0.1-2.6-0.1-4,0c-1.1,0.1-1.6,0.9-1.6,2
			C-996.4,149.8-995.8,150.4-994.7,150.5z M-1007,150.5c0.6,0,1.1,0,1.7,0c0.6,0,1.2,0,1.8,0c1.1-0.1,1.8-0.7,1.8-1.8
			c0.1-1.1-0.5-1.9-1.6-2c-1.3-0.1-2.6-0.1-4,0c-0.2,0-0.5,0.1-0.7,0.2s-0.4,0.3-0.6,0.5c-0.2,0.2-0.3,0.4-0.3,0.6
			c-0.1,0.2-0.1,0.5,0,0.7C-1008.7,149.8-1008.1,150.4-1007,150.5L-1007,150.5z M-1019.2,150.5c0.6,0,1.1,0,1.7,0c0.6,0,1.3,0,1.9,0
			c0.5,0,0.9-0.2,1.2-0.5s0.5-0.8,0.5-1.2c0.1-1.1-0.5-1.9-1.5-2c-1.3-0.1-2.6-0.1-4,0c-1.1,0.1-1.7,0.9-1.6,2
			C-1021,149.8-1020.3,150.4-1019.2,150.5L-1019.2,150.5z M-958.1,179.3c0-0.4,0-0.9,0-1.3c0-0.4-0.2-0.8-0.5-1.1s-0.7-0.5-1.2-0.5
			c-1-0.1-1.8,0.4-2,1.4c-0.1,0.5-0.1,1.1-0.1,1.7c0,29.4,0,58.9,0,88.3v1.6h-16.8v-9.3h1.6c1.5,0,2.9,0,4.4,0
			c1.1-0.1,1.7-0.8,1.7-1.9c0-0.5-0.1-0.9-0.4-1.3c-0.3-0.3-0.7-0.6-1.2-0.6c-0.5-0.1-0.9-0.1-1.4-0.1c-1.5,0-3.1,0-4.7,0V252
			c0.1-0.1,0.2-0.1,0.3-0.1c0.9,0,1.7,0,2.6,0c1.4,0,2.3-0.8,2.2-1.9c0-1.1-0.9-1.9-2.3-1.9c-0.9,0-1.9,0-2.8,0v-4.7
			c1.8,0,3.5,0,5.2,0c1.6,0,2.5-0.8,2.5-2s-0.9-1.9-2.4-1.9c-1.7,0-3.5,0-5.3,0V235c1,0,1.9,0,2.7,0c1.4,0,2.3-0.7,2.3-1.8
			s-0.9-2-2.3-2c-0.9,0-1.8,0-2.7,0v-4.7c2,0,3.9,0.1,5.7-0.1c0.4-0.1,0.7-0.2,1-0.5c0.3-0.2,0.5-0.5,0.7-0.9c0.2-0.5-0.2-1.5-0.6-2
			c-0.3-0.4-1.1-0.4-1.7-0.5c-1.7-0.1-3.5,0-5.2,0v-4.7h1.5c0.5,0,1,0,1.5,0c1.2-0.1,2-0.9,2.1-1.9c0-1.1-0.8-1.9-2.1-1.9
			c-1,0-1.9,0-3,0v-4.5c1.6,0,3.2,0,4.8,0c0.6,0,1.1,0,1.6-0.2c0.4-0.1,0.8-0.4,1-0.8c0.2-0.4,0.3-0.8,0.2-1.2
			c0-0.5-0.2-0.9-0.6-1.2c-0.3-0.3-0.8-0.5-1.3-0.4c-1.9,0-3.8,0-5.8,0v-4.8c1,0,1.9,0,2.9,0c1.4,0,2.3-0.8,2.3-1.9
			c0-1.1-0.9-1.9-2.3-1.9c-0.9,0-1.9,0-2.8,0v-4.5c1.8,0,3.6,0,5.3,0c1.5,0,2.4-0.8,2.4-2s-0.9-1.9-2.4-1.9c-1.7,0-3.5,0-5.3,0V184
			h1.5c0.5,0,1,0,1.5,0c1.3-0.1,2.1-0.9,2.1-2s-0.9-1.8-2.2-1.9c-1,0-1.9,0-2.9,0v-4.5c2,0,3.9,0.1,5.7-0.1c0.4-0.1,0.7-0.2,1-0.4
			s0.5-0.5,0.7-0.8c0.2-0.5,0.1-1.4-0.3-1.8c-0.4-0.4-1.2-0.7-1.8-0.7c-1.8-0.1-3.6,0-5.4,0v-4.7h1.5c0.5,0,0.9,0,1.4,0
			c1.3-0.1,2.2-0.9,2.2-2c-0.1-1.1-0.9-1.8-2.2-1.8c-1,0-1.9,0-2.9,0v-4.5c1.7,0,3.2,0,4.7,0c0.5,0,0.9,0,1.4-0.1s0.9-0.3,1.1-0.7
			c0.3-0.4,0.4-0.8,0.4-1.3s-0.2-0.9-0.6-1.2c-0.3-0.3-0.8-0.5-1.2-0.5c-1.9,0-3.8,0-5.8,0v-9.3h16.8v1.6c0,7.2,0,14.3,0,21.5
			c0,1.6,0.8,2.5,2,2.4s1.8-0.9,1.8-2.5c0-8.2,0-16.4,0-24.6c0-1.7-0.6-2.5-2.2-2.5c-6.7,0-13.5,0-20.2,0c-1.4,0-2.1,0.7-2.2,2.1
			c0,0.5,0,0.9,0,1.4c0.1,0.8-0.1,1.4-0.9,1.9c-0.2,0.2-0.4,0.4-0.5,0.6c-0.1,0.3-0.2,0.5-0.2,0.8s0.1,0.6,0.2,0.8
			c0.1,0.2,0.3,0.5,0.6,0.6c0.8,0.5,0.8,1.1,0.8,1.8c0,10.6,0,21.3,0,31.9v79.3c0,0.8,0.1,1.5-0.9,2.1c-0.9,0.6-1,2.2,0,2.7
			c1,0.6,0.9,1.4,0.9,2.2c-0.1,1.3,0,2.5,1.2,3.3h22.1c1.2-0.6,1.4-1.7,1.4-2.9C-958.1,240.1-958.1,209.7-958.1,179.3L-958.1,179.3z
			 M-1027.1,209.4c-0.4-0.2-0.8-0.4-1.2-0.4c-0.4,0-0.8,0.1-1.1,0.3s-0.6,0.5-0.8,0.8c-1.9,2.9-2.6,5.9-2.2,9.1c0.2,1.5,0.6,3,1,4.5
			c0.6,2.2,0.1,4-1.3,5.6c-0.5,0.6-1,1.2-1.5,1.8l-0.1,0.1l-0.5,0.6c-2.2,2.5-3.3,5.7-3.3,9c0,0.1,0,0.2,0,0.4c0,0.4,0,0.8,0.1,1.3
			c0.2,1.4,1.3,2.3,2.5,2.1c1.3-0.2,2.1-1.2,1.9-2.6c-0.3-3.1,0.6-5.8,2.8-8.1c0.3-0.3,0.7-0.8,1-1.1l0.3-0.4
			c1.4-1.6,2.8-3.6,2.7-5.9c-0.1-2.1-0.4-4.2-0.9-6.2c-0.7-2.9-0.3-5.4,1.2-7.7c0.2-0.3,0.3-0.6,0.4-0.9c0.1-0.3,0.1-0.6,0-0.9
			c-0.1-0.3-0.2-0.5-0.3-0.8C-1026.7,209.7-1026.9,209.5-1027.1,209.4L-1027.1,209.4z M-1003.5,264.6c-1.1,0-2.2,0-3.3,0
			c-0.5,0-1,0.2-1.3,0.5c-0.4,0.3-0.6,0.8-0.6,1.3c-0.1,1,0.7,1.9,1.9,2c0.5,0.1,1.1,0,1.7,0c0.6,0,1.2,0,1.8,0c0.5,0,1-0.2,1.3-0.6
			s0.5-0.9,0.5-1.3c0-0.2,0-0.5-0.1-0.7s-0.2-0.4-0.4-0.6s-0.4-0.3-0.6-0.4C-1003,264.6-1003.3,264.6-1003.5,264.6L-1003.5,264.6z
			 M-991.2,264.6c-0.6,0-1.1,0-1.7,0c-0.6,0-1.2,0-1.8,0c-1.1,0.1-1.7,0.7-1.9,1.7c0,0.2,0,0.5,0.1,0.7s0.2,0.5,0.3,0.7
			c0.2,0.2,0.4,0.3,0.6,0.5c0.2,0.1,0.5,0.2,0.7,0.2c1.3,0.1,2.6,0.1,3.8,0c0.2,0,0.5-0.1,0.7-0.2s0.4-0.3,0.6-0.4s0.3-0.4,0.3-0.6
			c0.1-0.2,0.1-0.5,0-0.7c0-0.2,0-0.5-0.1-0.7s-0.2-0.4-0.4-0.6s-0.4-0.3-0.6-0.4C-990.7,264.6-991,264.6-991.2,264.6L-991.2,264.6z
			 M-1023.1,191.3c-2.4-0.9-2.3-3-2.3-3.7c0-0.6,0-1.1,0.1-1.7l0,0c0-1,0.1-2,0.1-3c-0.1-4.9-4.1-9.3-9-9.9
			c-1.3-0.2-2.4,0.6-2.6,1.8c-0.1,0.6,0,1.2,0.4,1.7c0.3,0.5,0.9,0.8,1.5,0.9c3.6,0.8,5.4,3,5.3,6.7c0,0.3,0,0.7,0,1v1.3h-0.2
			c0,0.6,0,1.2,0,1.8c0.2,3.5,2.1,6.3,5,7.1c0.4,0.1,0.8,0.1,1.3,0c0.4-0.1,0.8-0.3,1.1-0.7c0.3-0.3,0.5-0.7,0.6-1.1
			c0.1-0.4,0-0.9-0.1-1.3c-0.1-0.2-0.2-0.4-0.4-0.6C-1022.7,191.5-1022.9,191.4-1023.1,191.3L-1023.1,191.3z M-1002.8,212.1
			c0.1-0.7,0.1-1.4,0.2-2.1v-7.5c-0.1-0.6-0.1-1.1-0.2-1.7v-0.1c-0.1-1.3-0.3-2.7-0.4-4.1c-1.4-11.5-4.8-20.9-10.4-28.6
			c-4-5.5-8.4-9.2-13.6-11.2c-1.3-0.5-2.6-0.8-3.9-1.1c-0.6-0.1-1.3-0.3-1.9-0.4l-0.5-0.1h-0.2h-3.1h-0.1c-0.2,0.1-0.4,0.1-0.6,0.1
			c-8.5,1.3-14.4,6-17.7,14.1c-0.1,0.3-0.2,0.5-0.3,0.8l-0.2,0.5c-0.9,2.2-1.1,4.7-0.8,7c0.1,0.5,0.1,0.9,0.1,1.4
			c0.4,3.8,1.8,7.4,4.1,10.4c4.6,6.3,5.5,16.1,4.7,20.8c0,0.7-0.3,5.1-2,8.7c-0.7,1.7-1.5,3.2-2.4,4.8c-2.3,3.4-3.7,6.5-4.4,9.9v0.2
			c-0.1,2.7-0.4,8.9,2.7,13.9c0.3,0.4,0.6,0.8,0.9,1.2c0.1,0.1,0.2,0.2,0.2,0.3l0.1,0.1c5.8,8.4,17.1,11.5,26.9,7.3
			c6-2.5,10.7-7,14.6-13.7c4.1-7.2,6.6-15.5,7.8-26.1C-1003.1,215.2-1003,213.6-1002.8,212.1L-1002.8,212.1z M-1012.3,235.4
			c-2.6,6.3-5.8,10.8-9.9,14c-4,3.1-8.2,4.7-12.4,4.7c-2.1,0-4.1-0.4-6-1c-2.4-0.8-4.6-2.2-6.4-4s-3.2-4-4-6.5
			c-0.9-2.5-1.1-5.2-0.8-7.8c0.3-2.6,1.2-5.1,2.7-7.3c7.3-11.1,8.3-23.2,3.1-36c-0.7-1.7-1.7-3.3-2.8-4.9l-0.3-0.5
			c-1.5-2.3-2.4-4.9-2.7-7.6c-0.3-2.7,0.1-5.5,1.1-8s2.5-4.8,4.5-6.6s4.4-3.1,7.1-3.8c4.8-1.3,9.5-0.3,14.2,2.8
			c4.7,3.2,8.6,7.8,11.7,14.2c3.2,6.6,5.2,13.7,5.9,21.9c0.2,2.1,0.3,4.1,0.4,6.1v0.1c0,0.9,0.1,1.8,0.1,2.7v0.1
			C-1007.5,219.3-1009.1,227.8-1012.3,235.4L-1012.3,235.4z"/>
	</g>
	<g>
		<defs>
			<rect id="SVGID_00000165938531658597648930000001463887104470124720_" x="0" y="0" width="272.4" height="292.5"/>
		</defs>
		<clipPath id="SVGID_00000121272405422158513940000011730084733516054719_">
			<use xlink:href="#SVGID_00000165938531658597648930000001463887104470124720_"  style="overflow:visible;"/>
		</clipPath>
		<path style="clip-path:url(#SVGID_00000121272405422158513940000011730084733516054719_);fill:#6A3834;" d="M-754.4,162.1
			c-2.5-0.2-4.9-1-7.1-2.3c-1.3-0.7-2.5-0.5-3.1,0.6s-0.2,2.2,1.1,3c2.7,1.6,5.6,2.5,8.7,2.7c1.7,0.1,2.6-0.5,2.7-1.8
			C-751.9,163.1-752.8,162.2-754.4,162.1z M-724.6,157.6c-0.8,0.5-1.4,0.7-1.8,1.2c-1.8,1.8-4,3.3-6.4,4.2c-1.4,0.5-2,1.6-1.5,2.8
			s1.6,1.6,2.9,1.1c3.1-1.1,5.8-2.9,8.1-5.3c0.6-0.7,1-1.5,0.5-2.3C-723.3,158.6-724,158.1-724.6,157.6L-724.6,157.6z M-699.2,169.5
			h-18.7c2.5-2.7,5.1-5.4,7.3-8.2c2.5-3.2,2.9-6.9,1.2-10.7s-4.7-5.8-8.8-6.2c-3.9-0.3-7.1,1.3-9.4,4.4c-0.3,0.4-0.6,0.8-1,1.5
			c-0.1-1.3-0.1-2.4-0.2-3.5c-0.4-2.7-1.6-5.3-3.3-7.4c-4-5-9.6-8.4-15.9-9.8c-4.8-1.1-9.6-2.3-14.4-3.4c-1.8-0.4-3.1,0.5-2.8,2.3
			c1,6.1,2,12.2,3.1,18.2c0.3,1.8,1.2,3.5,1.9,5.6c-0.8-0.7-1.5-1.2-2.1-1.8c-3.5-3.1-7.4-3.9-11.7-2s-6.3,5.4-6.3,10
			c0,0.2,0,0.4,0,0.8l-4.4,0.4c0.9-2.8,1.8-5.6,2.5-8.4c0.3-1.3,0.3-2.7,0.4-4.1c0.1-1.9-0.8-2.6-2.7-2.5c-4,0.2-8,1.3-11.5,3.3
			c-0.1,0.1-0.3,0.2-0.5,0.2c-0.1,0-0.2,0-0.3,0c0.1-1.8,0.2-3.6,0.3-5.4c0.1-1.1-0.1-2.1-1.2-2.6c-1.1-0.5-2,0.1-2.7,0.8
			c-4,4.1-8,8.2-12,12.4c-4.2,4.3-5.7,9.4-4.3,15.3c0.1,0.2,0.1,0.4,0.2,0.8h-9.7c-1.8,0.1-2.3,0.7-2.3,2.6c0,3,0,5.9,0,8.9
			c0,1.2,0.3,2.1,1.3,2.7h9.3c0.8-0.7,1.5-1.4,1-2.6c-0.5-1.2-1.5-1.3-2.6-1.2c-1.7,0-3.3,0-5.2,0v-6.4h123.9v6.4h-107.7
			c-0.4,0-0.9-0.1-1.3,0c-0.6,0.3-1.5,0.6-1.6,1.2c-0.2,0.6,0.2,1.4,0.4,2.1c0.1,0.2,0.3,0.4,0.5,0.5H-697v-13.1
			c-0.3-0.3-0.6-0.6-1-0.8C-698.4,169.6-698.8,169.5-699.2,169.5L-699.2,169.5z M-760.8,130.7c4.7,1.2,9.2,2.1,13.6,3.4
			c4.8,1.4,8.7,4.1,11.8,8c2,2.5,2.9,5.4,2.4,8.5c-0.7,3.8-1.7,6-5.4,6.6c-0.7,0.1-1.4,0-2-0.4c-2.3-1.6-5.1-2.3-7.9-1.9
			c-1.4,0.2-2.7,0.2-4.1,0.1c-0.3,0-0.6-0.1-0.8-0.2c-0.3-0.1-0.5-0.3-0.7-0.5c-1.2-1.7-2.3-3.5-3.2-5.4c-1.7-3.5-2-7.3-2.6-11.1
			C-760,135.5-760.4,133.2-760.8,130.7z M-797.2,154.1c0-0.3,0.2-0.5,0.4-0.7c3.1-2.5,6.8-4,10.7-4.5c-0.3,4.2-1.8,7.8-4.2,11.1
			c-0.1,0.1-0.3,0.2-0.5,0.2c-2.2,0.2-4.4,0.4-6.8,0.6C-797.5,158.4-797.3,156.2-797.2,154.1L-797.2,154.1z M-789.5,169.2
			c-0.2,0.1-0.4,0.2-0.6,0.3h-21.7c-0.2-0.1-0.4-0.2-0.5-0.4s-0.2-0.4-0.3-0.6c-1.4-4.4-0.6-8.3,2.5-11.7c2-2.2,4.1-4.3,6.2-6.5
			c0.9-0.9,1.8-1.7,2.7-2.6c0,0.5,0,0.9,0,1.3c-0.3,4.5-0.6,9-0.8,13.5c-0.1,1.9,0.7,2.7,2.6,2.6c2.5-0.2,5-0.4,7.6-0.7l7.6-0.7
			C-786.1,165.7-787.7,167.5-789.5,169.2L-789.5,169.2z M-784,169.5l5.5-5.1l6.4,5.1H-784z M-749.9,169.5h-12.3h-0.1
			c-4.2-1.6-8.1-3.7-11.6-6.5c-1-0.9-1.8-2.1-2.1-3.4c-0.3-1.3-0.2-2.7,0.3-3.9c0.5-1.3,1.4-2.3,2.5-3s2.5-1.1,3.8-1
			c1.8,0.1,3.2,0.9,4.5,2.1c4.9,4.4,10.6,6.1,17.1,5.2c0.8,0,1.6,0,2.4,0l0.2,0.3C-748.7,161.8-750.2,165.2-749.9,169.5
			L-749.9,169.5z M-726.2,169.5h-19.4c-0.7-3.8,1.6-7.2,5.2-7.7c6.9-0.9,12.2-4.4,15.9-10.3c0.5-0.7,1.1-1.4,1.8-1.9s1.5-0.9,2.4-1
			c0.9-0.2,1.7-0.2,2.6,0c0.9,0.2,1.7,0.5,2.4,1c3.1,2.1,3.7,6.2,1.4,9.3c-3,4.1-6.7,7.5-11,10.1
			C-725.3,169.2-725.7,169.4-726.2,169.5L-726.2,169.5z M-785,106.4c0.2,0.1,0.5,0.1,0.7,0c0.2,0,0.5-0.1,0.7-0.3
			c0.2-0.1,0.4-0.3,0.5-0.5s0.2-0.4,0.3-0.7c0.2-0.9,0.4-1.8,0.6-2.7c0.2-1.2-0.8-2.2-2.4-2.2c-0.3,0.3-1,0.7-1.3,1.3
			c-0.3,1-0.6,2-0.6,3C-786.6,105.4-786,106.1-785,106.4z M-788.2,122.3c0.4,0.1,0.9,0.1,1.3-0.1c0.4-0.2,0.7-0.6,0.9-1
			c0.2-0.6,0.3-1.1,0.4-1.7c0.1-1.4-0.5-2.3-1.6-2.4c-0.5-0.1-1,0-1.4,0.3s-0.7,0.7-0.8,1.1c-0.2,0.6-0.3,1.2-0.4,1.9
			c-0.1,0.5,0.1,0.9,0.3,1.3C-789.1,122-788.7,122.2-788.2,122.3L-788.2,122.3z M-782.8,97.9c1.3,0,2.2-1.4,2.2-3.4
			c0-0.5-0.2-1-0.6-1.4c-0.4-0.4-0.9-0.6-1.4-0.6c-1.3,0-2.2,1.4-2.2,3.4c0,0.3,0,0.5,0.1,0.7s0.2,0.5,0.4,0.6
			c0.2,0.2,0.4,0.3,0.6,0.4C-783.3,97.9-783.1,97.9-782.8,97.9L-782.8,97.9z M-786.7,114.9c1.1,0.2,1.9-0.3,2.2-1.3
			c0.2-0.9,0.4-1.8,0.6-2.7c0.1-1.3-0.5-2.2-1.6-2.3c-0.5-0.1-1,0-1.4,0.3s-0.7,0.7-0.8,1.2c-0.2,0.9-0.4,1.7-0.5,2.6
			c-0.1,0.5,0,1,0.3,1.4C-787.6,114.5-787.2,114.8-786.7,114.9L-786.7,114.9z M-745.1,145.7c1,1.4,1.8,2.9,2.8,4.3
			c0.4,0.5,0.9,0.9,1.4,1.3c1.9,0,3-1.5,2.4-2.7c-1.9-3.8-4.4-7.3-7.6-10.1c-0.8-0.8-2.1-0.6-2.8,0.3c-0.7,0.8-0.7,1.9,0.1,2.8
			C-747.5,143-746.2,144.3-745.1,145.7L-745.1,145.7z M-738.4,117.1c-1.1,0.2-1.6,0.9-1.6,2.2c0.1,0.6,0.2,1.2,0.4,1.8
			c0.1,0.4,0.4,0.8,0.8,1c0.4,0.2,0.9,0.3,1.3,0.2c0.5-0.1,0.9-0.3,1.1-0.7c0.3-0.4,0.4-0.8,0.4-1.3c0-0.7-0.2-1.4-0.4-2
			c-0.1-0.4-0.4-0.8-0.8-1.1C-737.5,117.1-738,117-738.4,117.1L-738.4,117.1z M-741.9,100.1c-1.1,0.2-1.7,1-1.5,2c0.1,1,0.3,2,0.6,3
			c0.1,0.2,0.1,0.4,0.3,0.6c0.1,0.2,0.3,0.3,0.5,0.5c0.2,0.1,0.4,0.2,0.6,0.2c0.2,0,0.5,0,0.7,0c1.1-0.2,1.6-0.9,1.6-2.2
			c-0.2-1-0.4-2-0.7-2.9c-0.1-0.2-0.2-0.4-0.3-0.6s-0.3-0.3-0.5-0.4s-0.4-0.2-0.6-0.2C-741.5,100-741.7,100-741.9,100.1
			L-741.9,100.1z M-738,110.1c-0.3-0.7-1.1-1.2-1.4-1.6c-1.6,0.1-2.4,0.9-2.3,2.1c0.1,1,0.3,2,0.6,3s1.1,1.5,2.2,1.3
			c0.5-0.1,0.9-0.4,1.2-0.8s0.4-0.9,0.3-1.4C-737.6,111.8-737.6,110.9-738,110.1L-738,110.1z M-699.2,38c-5.2,0-10.4,0-15.6,0
			c-1.5,0-2.2,0.7-2.2,2.2c0,0.8,0,1.5,0,2.4h-1.5c-6.4,0-12.9,0-19.3,0c-0.5,0-0.9,0-1.4,0.1c-0.4,0.1-0.8,0.4-1,0.7
			c-0.2,0.4-0.3,0.8-0.3,1.2s0.2,0.8,0.5,1.2s0.7,0.5,1.1,0.6c0.4,0,0.9,0.1,1.3,0h20.5v12.8h-36.7c-2,0-2.6,0.6-2.6,2.6
			c0,1.9,0,3.7,0,5.6h-12.8c0-4,0-8,0-11.9c0-5.5,3.6-9.1,9.1-9.1c4.1,0,8.1,0,12.2,0c1.4,0,2.3-0.8,2.2-1.9c0-1.1-0.9-1.9-2.2-1.9
			c-4.5,0-9-0.1-13.5,0c-6,0.2-10.9,4.6-11.5,10.6c-0.4,4.2-0.2,8.5-0.2,12.7c0,0.5,0,1,0,1.4c-0.1,0-0.3,0.1-0.4,0.1h-4.2
			c-1.9,0-2.6,0.6-2.6,2.5c0,5.2,0,10.4,0,15.6c0,1.8,0.7,2.4,2.4,2.4c10.1,0,20.1,0,30.2,0c1.7,0,2.4-0.7,2.4-2.4
			c0-5.2,0-10.4,0-15.6c0-1.9-0.7-2.5-2.6-2.5c-1.5,0-3.1,0-4.6,0v-4.3h35.5c0,0.7,0,1.3,0,1.8c0,2.2,0.6,2.7,2.7,2.7
			c4.8,0,9.7,0,14.5,0c1.2,0,2.1-0.3,2.7-1.3v-27C-697.5,38.6-698.1,38-699.2,38L-699.2,38z M-749.2,71.6v12.6h-27.1V71.6H-749.2z
			 M-700.9,63.9H-713v-22h12.1V63.9z M-757.3,92.6c-1.4,0.1-1.9,1.3-1.7,3.3c0.2,1.4,1,2.2,2.1,2.1c1.2-0.1,1.8-1,1.7-2.4
			C-755.1,93.5-755.9,92.5-757.3,92.6L-757.3,92.6z M-743.5,92.6c-0.5,0.1-0.9,0.3-1.1,0.7c-0.3,0.4-0.4,0.8-0.3,1.3
			c0.1,0.7,0.2,1.4,0.4,2c0.1,0.4,0.4,0.8,0.8,1.1c0.4,0.2,0.9,0.3,1.3,0.2c1.1-0.2,1.6-0.9,1.6-2.2c-0.1-0.6-0.2-1.3-0.5-1.9
			c-0.1-0.4-0.4-0.8-0.9-1C-742.6,92.6-743.1,92.5-743.5,92.6L-743.5,92.6z M-772,110.2c-0.2,0.8-0.2,1.7-0.3,2.5
			c0,1.2,0.6,2.1,1.7,2.2c1.1,0.1,1.9-0.4,2.1-1.5c0.2-1,0.3-1.9,0.3-2.9c0-0.5-0.2-0.9-0.5-1.3c-0.3-0.3-0.8-0.6-1.2-0.6
			c-0.5,0-0.9,0.1-1.3,0.4C-771.7,109.3-771.9,109.7-772,110.2L-772,110.2z M-771.3,102.2c-0.1,0.7-0.2,1.4-0.2,2.2
			c0,0.5,0.1,1,0.4,1.4c0.3,0.4,0.8,0.6,1.3,0.7c0.2,0,0.5,0,0.7-0.1s0.5-0.2,0.7-0.3c0.2-0.2,0.4-0.3,0.5-0.6
			c0.1-0.2,0.2-0.5,0.2-0.7c0.1-0.8,0.2-1.5,0.3-2.3c0-1.5-0.6-2.4-1.8-2.5C-770.3,100-771.1,100.8-771.3,102.2L-771.3,102.2z
			 M-773,120.6c0,0.2,0,0.5,0.1,0.7s0.2,0.4,0.4,0.6s0.4,0.3,0.6,0.4c0.2,0.1,0.5,0.1,0.7,0.1c1.1,0,1.8-0.6,2-1.6
			c0.1-0.5,0.1-1,0.2-1.7c0-0.5-0.1-0.9-0.4-1.3s-0.7-0.6-1.2-0.7c-0.2-0.1-0.4-0.1-0.7,0c-0.2,0-0.4,0.1-0.6,0.2
			c-0.2,0.1-0.4,0.3-0.5,0.4c-0.1,0.2-0.2,0.4-0.3,0.6C-773,119-773.1,119.8-773,120.6L-773,120.6z M-766.8,96.3
			c0.1-0.3,0.1-0.6,0.1-0.9c0.1-1.8-0.6-2.8-1.8-2.8s-1.9,0.8-2.1,2.3c0,0.3-0.1,0.7-0.1,1c0,1.1,0.7,1.9,1.7,2.1
			C-767.9,98.1-767,97.4-766.8,96.3L-766.8,96.3z M-755.6,108.5c-0.2,0-0.5,0.1-0.7,0.2s-0.4,0.3-0.6,0.4c-0.2,0.2-0.3,0.4-0.4,0.6
			c-0.1,0.2-0.1,0.5-0.1,0.7c0,0.9,0.1,1.8,0.3,2.7c0,0.5,0.3,1,0.7,1.3s0.9,0.5,1.4,0.5c1.1-0.1,1.8-0.9,1.8-2.2
			c-0.1-0.8-0.1-1.7-0.3-2.6c-0.1-0.5-0.3-0.9-0.7-1.2C-754.6,108.6-755.1,108.5-755.6,108.5L-755.6,108.5z M-754.8,117
			c-1.1,0.1-1.7,0.8-1.7,1.9c0,0.6,0.1,1.1,0.2,1.7c0.2,1.2,1,1.9,2.1,1.8c1-0.1,1.7-0.9,1.7-2.2c0-0.5-0.1-1.1-0.2-1.6
			C-753,117.5-753.8,116.9-754.8,117L-754.8,117z M-756.1,100.1c-1.3-0.2-2.2,0.9-2.1,2.7c0.1,0.8,0.2,1.5,0.3,2.3
			c0.1,0.3,0.2,0.5,0.3,0.7c0.2,0.2,0.4,0.4,0.6,0.5c0.2,0.1,0.5,0.2,0.8,0.2s0.5,0,0.8-0.1c2-0.9,1.1-2.6,1-4.1
			C-754.4,101.1-754.9,100.3-756.1,100.1L-756.1,100.1z"/>
	</g>
	<g>
		<defs>
			<rect id="SVGID_00000155837191798089277650000006708762903635869337_" x="0" y="0" width="272.4" height="292.5"/>
		</defs>
		<clipPath id="SVGID_00000051341674745661911970000001888447887972707726_">
			<use xlink:href="#SVGID_00000155837191798089277650000006708762903635869337_"  style="overflow:visible;"/>
		</clipPath>
		<path style="clip-path:url(#SVGID_00000051341674745661911970000001888447887972707726_);fill:#6A3834;" d="M-543.7,260.4
			c-1.1,0-1.9,0.9-1.9,2.3c0,1.5,0,2.9,0,4.4s0,2.8,0,4.2c0,1.4,0.8,2.2,2,2.2c1.1,0,1.8-0.8,1.9-2.2c0-2.9,0-5.7,0-8.6
			C-541.8,261.2-542.6,260.4-543.7,260.4z M-491.8,156.3c1.1,0,1.8-0.6,1.9-1.7c0-0.3,0.1-0.7,0.1-1c0-3,0-6.1,0-9.1
			c0-1.1-0.2-2.1-1.2-2.8h-1.5c-0.4,0.6-1,1.1-1,1.6c-0.1,3.8-0.1,7.5,0,11.3C-493.6,155.7-492.8,156.3-491.8,156.3z M-518.7,240.2
			c17.7,0.7,32.7-13.5,33.5-31.6c0.7-17.7-13.5-32.8-31.5-33.5c-17.8-0.7-32.9,13.5-33.6,31.6C-551,224.4-536.8,239.5-518.7,240.2z
			 M-519.7,234.9c0,0.4,0,0.7-0.1,1.3c-6.4-0.4-11.9-2.8-16.9-7c0.8-0.8,1.5-1.4,2.2-2.1c4.3-4.3,8.5-8.5,12.8-12.8
			c0.3-0.3,1-0.6,1.3-0.5s0.6,0.8,0.6,1.3C-519.7,221.7-519.7,228.3-519.7,234.9L-519.7,234.9z M-515.7,236.2c0-0.5-0.1-1-0.1-1.4
			c0-6.6,0-13.1,0-19.7c0-0.5,0.4-1,0.6-1.5c0.5,0.2,1.1,0.3,1.4,0.6c4.7,4.6,9.4,9.3,14,14c0.3,0.3,0.5,0.6,0.9,0.9
			C-503.8,233.4-509.3,235.7-515.7,236.2L-515.7,236.2z M-496.1,226.4c-0.4-0.3-0.6-0.6-0.9-0.8c-4.7-4.7-9.4-9.4-14.1-14.1
			c-0.3-0.3-0.7-1-0.5-1.3c0.1-0.3,0.8-0.6,1.3-0.6c6.7,0,13.4,0,20,0c0.3,0,0.7,0,1.2,0.1C-489.6,216-492,221.5-496.1,226.4
			L-496.1,226.4z M-496.1,188.7c4.2,4.9,6.5,10.4,7,16.9h-1.5c-6.5,0-12.9,0-19.4,0c-0.5,0-1.1-0.4-1.6-0.6c0.2-0.5,0.3-1.1,0.7-1.4
			c4.6-4.7,9.2-9.3,13.9-13.9C-496.8,189.4-496.5,189.1-496.1,188.7L-496.1,188.7z M-515.8,179.7c0-0.2,0-0.3,0.1-0.7
			c6.4,0.5,11.9,2.8,16.8,6.9c-0.2,0.2-0.4,0.5-0.6,0.7c-4.8,4.8-9.6,9.6-14.5,14.4c-0.2,0.2-0.4,0.3-0.6,0.3
			c-0.2,0.1-0.4,0.1-0.7,0.1c-0.3-0.1-0.6-0.7-0.6-1C-515.8,193.5-515.8,186.6-515.8,179.7L-515.8,179.7z M-517.8,204.8
			c0.5,0,1.1,0.2,1.5,0.5s0.8,0.7,1,1.2s0.3,1.1,0.1,1.6c-0.1,0.5-0.4,1-0.8,1.4c-0.4,0.4-0.9,0.6-1.4,0.7c-0.5,0.1-1.1,0-1.6-0.2
			s-0.9-0.6-1.2-1c-0.3-0.5-0.4-1-0.4-1.5c0-0.7,0.3-1.4,0.8-1.9C-519.2,205.1-518.5,204.9-517.8,204.8L-517.8,204.8z M-519.7,179
			c0,0.6,0.1,1,0.1,1.5c0,6.5,0,13,0,19.5c0,0.5-0.2,1.1-0.6,1.5c-0.7,0.6-1.1-0.2-1.5-0.6c-4.6-4.6-9.2-9.1-13.7-13.7
			c-0.4-0.4-0.8-0.7-1.3-1C-531.7,181.8-526.2,179.4-519.7,179L-519.7,179z M-539.4,188.7c1.7,1.8,3.4,3.4,5,5
			c3.4,3.4,6.7,6.7,10.1,10.1c0.2,0.2,0.3,0.4,0.3,0.6c0.1,0.2,0.1,0.4,0.1,0.7c-0.1,0.3-0.7,0.6-1,0.6c-6.9,0-13.8,0-20.7,0
			c-0.2,0-0.3,0-0.7-0.1C-546,199.2-543.6,193.7-539.4,188.7z M-545,209.5c6.6,0,13.1,0,19.7,0c0.5,0,1,0.4,1.5,0.6
			c-0.2,0.5-0.3,1.1-0.7,1.4c-4.6,4.7-9.2,9.3-13.9,13.9c-0.3,0.3-0.6,0.6-1,0.9c-4.1-4.7-6.6-10.6-7-16.8
			C-545.9,209.6-545.4,209.5-545,209.5L-545,209.5z M-489,178.5c-0.5-0.6-0.8-1.3-0.8-2c-0.1-4.2,0-8.5,0-12.7
			c0-1.5-0.7-2.2-1.9-2.3c-1.2,0-1.9,0.8-1.9,2.2c0,1.5,0,3,0,4.5c0,2,0,4,0,6.2c-1.3-0.8-2.3-1.5-3.4-2.1c-0.8-0.4-1.1-1-1.1-1.9
			c0-8.7,0-17.3,0-26c0-1.2-0.3-2.1-1.3-2.7h-1.3c-1,0.7-1.3,1.6-1.3,2.7c0.1,3.7,0,7.4,0,11.2c-1.2-0.3-2.4-0.4-3.6-0.3
			c-1.2,0.1-2.4,0.5-3.4,1.1c0.7-3-0.1-5.3-2.3-7.1c-1-0.8-2.2-1.4-3.4-1.8c-1.2-0.4-2.5-0.5-3.8-0.4c-5.6,0.4-8.5,3.8-8,9.2
			c-2.2-1.1-4.4-1.5-6.9-0.7v-2.1c0-3,0-6.1,0-9.1c0-1.2-0.3-2.1-1.3-2.7h-1.3c-1.1,0.6-1.3,1.5-1.3,2.7c0,8.6,0,17.3,0,25.9
			c0,0.9-0.2,1.5-1.1,1.9c-1.1,0.6-2.1,1.3-3.4,2.1v-1.6c0-9.4,0-18.7,0-28.1c0-1.2-0.2-2.2-1.2-2.9h-1.6c-1,0.7-1.2,1.7-1.2,2.9
			c0,10.5,0,21.1,0,31.6c0,0.9-0.3,1.7-1,2.4c-2,2.3-3.8,4.6-5.6,7c-0.2,0.2-0.3,0.4-0.3,0.7c-0.1,0.3-0.1,0.5,0,0.8
			c0,0.3,0.2,0.5,0.3,0.7c0.2,0.2,0.3,0.4,0.6,0.5c0.9,0.5,1.9,0.3,2.6-0.6c0.2-0.2,0.3-0.5,0.5-0.7c9.1-12.7,21.4-18.2,36.8-16
			c20.4,2.9,34.5,23.2,30.4,43.3c-4,20.1-22.4,32.8-42.6,29.6c-17-2.7-30.5-18.1-30.8-35.4c-0.1-4.4,0.5-8.7,1.9-12.9
			c0.3-0.9,0.4-1.9-0.5-2.4c-0.5-0.3-1.5-0.5-2-0.2c-0.5,0.2-1,1-1.2,1.7c-4.7,15.8-1.4,29.7,10,41.7c0.3,0.3,0.5,0.6,0.7,1
			s0.2,0.8,0.2,1.2c0,4.5,0,9.1,0,13.6c0,0.5,0,1,0.1,1.5c0.2,1,0.9,1.4,1.9,1.4c0.4,0,0.8-0.1,1.1-0.4c0.3-0.3,0.5-0.6,0.6-1
			c0.1-0.5,0.1-0.9,0.1-1.4c0-3.4,0-6.8,0-10.2c0-0.4,0-0.9,0.1-1.4c1.2,0.8,2.2,1.5,3.3,2.1c0.8,0.4,1.1,1,1.1,1.9
			c0,8.6,0,17.1,0,25.7c0,0.4,0,0.9,0,1.3c0,0.3,0.1,0.5,0.3,0.8s0.3,0.4,0.6,0.6c0.2,0.2,0.5,0.2,0.8,0.3c0.3,0,0.6,0,0.8-0.1
			c0.7-0.2,1.4-0.2,2.2-0.1c4.5,1.1,8.5-3.1,7.3-7.5c-0.9-3.4-3.9-4.9-8-4.2v-16.1c10.4,4.1,20.9,4.1,31.3,0v16.1
			c-0.4-0.1-0.7-0.2-1-0.2c-1.2-0.2-2.5-0.1-3.6,0.5c-1.1,0.5-2.1,1.4-2.7,2.5c-0.6,1-0.9,2.2-0.8,3.4c0.1,1.2,0.5,2.4,1.3,3.3
			c1.5,2,4.1,2.8,6.7,2.1c0.5-0.1,1-0.1,1.5,0.1c0.9,0.3,1.7,0.2,2.2-0.6c0.3-0.6,0.5-1.3,0.5-1.9c0-8.7,0-17.4,0-26.1
			c0-0.5,0.2-1.2,0.5-1.4c1.2-0.9,2.5-1.6,4-2.5v29.7c0,2.1,0.6,3,2,3c1.3,0,1.9-0.9,1.9-2.9c0-10.6,0-21.2,0-31.8
			c0-0.7,0.3-1.5,0.8-2C-472.8,220.4-472.8,194.8-489,178.5L-489,178.5z M-527.4,167.7c-2.9,0-6-3.1-6.1-5.9c0-1.8,0.9-2.7,2.7-2.6
			c2.9,0.1,5.9,3.2,5.9,6.1C-524.9,166.8-525.9,167.7-527.4,167.7L-527.4,167.7z M-514.3,163.7c-0.1,1,0,1.9,0,3h-6.5
			c-0.3-1.9-0.7-3.8-1-5.8c2.7,1,5.7,1,8.4-0.1C-513.8,161.9-514.2,162.8-514.3,163.7L-514.3,163.7z M-513.5,156.3
			c-1,0.9-2.5,1.4-4.1,1.4l-0.2,0.3c-1.3-0.6-2.8-1-4-1.8c-1.5-1-1.4-2.7-0.1-3.8c2.1-1.9,6.3-1.9,8.3,0
			C-512.3,153.7-512.3,155.1-513.5,156.3L-513.5,156.3z M-508.2,167.7c-1.5,0-2.4-1-2.4-2.4c-0.1-3,3.1-6.2,6.1-6.2
			c1.6,0,2.5,1,2.5,2.6C-502.1,164.7-505.3,167.8-508.2,167.7L-508.2,167.7z M-531.2,265.1c0.3,0,0.6,0.1,0.8,0.2
			c0.3,0.1,0.5,0.3,0.7,0.5s0.4,0.4,0.5,0.7c0.1,0.3,0.2,0.6,0.2,0.8c0,0.6-0.2,1.1-0.6,1.6c-0.4,0.4-1,0.7-1.5,0.7
			c-0.3,0-0.6-0.1-0.9-0.2c-0.3-0.1-0.5-0.3-0.7-0.5s-0.4-0.5-0.5-0.7c-0.1-0.3-0.2-0.6-0.1-0.9c0-0.3,0.1-0.6,0.2-0.8
			c0.1-0.3,0.3-0.5,0.5-0.7s0.4-0.4,0.7-0.5C-531.8,265.2-531.5,265.1-531.2,265.1L-531.2,265.1z M-504.2,269.6
			c-0.3,0-0.6-0.1-0.9-0.2s-0.5-0.3-0.7-0.5s-0.4-0.5-0.5-0.8s-0.1-0.6-0.1-0.9c0-0.6,0.3-1.1,0.7-1.5c0.4-0.4,1-0.6,1.6-0.6
			s1.1,0.3,1.5,0.7c0.4,0.4,0.6,1,0.6,1.6s-0.3,1.1-0.7,1.5C-503.1,269.3-503.7,269.6-504.2,269.6L-504.2,269.6z M-517.7,252.7
			c-1.2,0-2.4,0.3-3.4,1s-1.8,1.6-2.3,2.7c-0.5,1.1-0.6,2.3-0.4,3.5c0.2,1.2,0.8,2.3,1.7,3.1c0.9,0.9,1.9,1.4,3.1,1.7
			c1.2,0.2,2.4,0.1,3.5-0.4s2.1-1.3,2.7-2.3c0.7-1,1-2.2,1-3.4c0-1.6-0.7-3.1-1.8-4.3C-514.6,253.3-516.1,252.7-517.7,252.7
			L-517.7,252.7z M-517.7,261c-0.4,0-0.9-0.1-1.2-0.3c-0.4-0.2-0.7-0.6-0.8-1c-0.2-0.4-0.2-0.9-0.2-1.3c0.1-0.4,0.3-0.8,0.6-1.2
			s0.7-0.5,1.1-0.6c0.4-0.1,0.9-0.1,1.3,0.1c0.4,0.2,0.8,0.4,1,0.8c0.3,0.4,0.4,0.8,0.4,1.2c0,0.6-0.2,1.1-0.6,1.6
			C-516.6,260.7-517.1,261-517.7,261L-517.7,261z"/>
	</g>
	<g>
		<defs>
			<rect id="SVGID_00000119827145228800668390000012627356092967621539_" x="0" y="0" width="272.4" height="292.5"/>
		</defs>
		<clipPath id="SVGID_00000012455530744856447610000008314565014288282813_">
			<use xlink:href="#SVGID_00000119827145228800668390000012627356092967621539_"  style="overflow:visible;"/>
		</clipPath>
		<path style="clip-path:url(#SVGID_00000012455530744856447610000008314565014288282813_);fill:#6A3834;" d="M-244,138.6
			c0.4,0,0.8-0.1,1.2-0.3c0.3-0.2,0.6-0.6,0.8-0.9c0.1-0.4,0.2-0.8,0.1-1.2c-0.1-0.4-0.3-0.8-0.6-1.1s-0.7-0.5-1.1-0.6
			c-0.4-0.1-0.8,0-1.2,0.1c-0.4,0.2-0.7,0.4-0.9,0.8c-0.2,0.3-0.3,0.7-0.3,1.2s0.2,1.1,0.6,1.4C-245.1,138.4-244.5,138.6-244,138.6z
			 M-254.3,132.5c0.4,0,0.8-0.1,1.2-0.3s0.6-0.5,0.8-0.9s0.2-0.8,0.1-1.2c-0.1-0.4-0.3-0.8-0.6-1.1s-0.6-0.5-1-0.6s-0.8,0-1.2,0.1
			c-0.4,0.2-0.7,0.4-0.9,0.8c-0.2,0.3-0.3,0.7-0.3,1.1c0,0.5,0.2,1.1,0.6,1.5C-255.4,132.2-254.9,132.5-254.3,132.5L-254.3,132.5z
			 M-233.6,128.3c0.4,0,0.8-0.1,1.1-0.4c0.3-0.2,0.6-0.6,0.7-0.9c0.1-0.4,0.2-0.8,0.1-1.2c-0.1-0.4-0.3-0.8-0.6-1
			c-0.3-0.3-0.7-0.5-1.1-0.5c-0.4-0.1-0.8,0-1.2,0.2s-0.7,0.4-0.9,0.8c-0.2,0.3-0.3,0.8-0.3,1.2c0,0.5,0.2,1.1,0.6,1.4
			C-234.7,128.2-234.2,128.4-233.6,128.3L-233.6,128.3z M-266.7,132.5c0.4,0,0.8-0.1,1.2-0.3c0.4-0.2,0.6-0.5,0.8-0.9
			c0.2-0.4,0.2-0.8,0.2-1.2c-0.1-0.4-0.2-0.8-0.5-1.1s-0.6-0.5-1-0.6s-0.8-0.1-1.2,0.1s-0.7,0.4-0.9,0.7c-0.2,0.3-0.4,0.7-0.4,1.1
			c0,0.5,0.2,1.1,0.5,1.5C-267.8,132.2-267.3,132.5-266.7,132.5L-266.7,132.5z M-213.7,116c-2.8,0-5.7,0-8.5,0c-0.4,0-0.7,0-1.2-0.1
			c0-2.5,0-4.8,0-7.2c-0.1-3.3,0-6.7-0.4-10c-1-7.8-4.5-14.4-10-19.9c-0.6-0.6-0.7-1.1-0.3-1.8c0.6-1.2,1.2-2.4,1.9-3.5
			c2.2-3.4,4.8-6.6,7.9-9.3c0.8-0.7,1.2-1.5,0.8-2.5s-1.2-1.4-2.3-1.3c-4.6,0.1-9,0.8-13.3,2.6c-0.5,0.2-1,0.4-1.4,0.6
			c2-3.6,4.7-6.8,7.7-9.5c0.8-0.7,1.5-1.5,1-2.7c-0.4-1.2-1.5-1.4-2.6-1.4c-4.8,0.1-9.5,1-13.8,3c-0.5-1.9-0.9-3.7-1.5-5.5
			c-1.2-3.7-3.3-6.7-6.6-9c-1.5-1-2.8-1-4.3,0c-3.8,2.6-5.9,6.3-7.1,10.7c-0.3,1.2-0.6,2.5-0.9,3.8c-4.6-2.2-9.4-3-14.3-3
			c-1,0-1.8,0.3-2.2,1.3c-0.4,1,0,1.7,0.7,2.4c0.9,0.9,1.9,1.7,2.7,2.6c1.9,2.2,3.8,4.6,5.7,6.8l-0.3,0.3c-0.4-0.1-0.7-0.3-1-0.4
			c-4.4-2-9.1-2.7-13.9-2.8c-0.4,0-0.9,0.1-1.2,0.3c-0.4,0.2-0.6,0.6-0.8,1c-0.4,0.9-0.1,1.7,0.6,2.3c0.3,0.3,0.6,0.6,0.9,0.9
			c3.7,3.5,6.9,7.4,9.1,12c0.4,0.8,0.3,1.3-0.4,1.9c-3.4,3.3-6.1,7.3-7.9,11.8c-1.7,4.1-2.5,8.5-2.5,13l-7.5,2.9
			c0.5-4,1-8.1,2.9-11.8c0.3-0.5,0.6-1.2,0.4-1.7c-0.3-0.7-0.8-1.3-1.5-1.7c-0.2-0.1-0.4-0.1-0.7-0.1c-0.2,0-0.5,0-0.7,0.1
			s-0.4,0.2-0.6,0.4c-0.2,0.2-0.3,0.4-0.4,0.6c-0.9,2.3-1.9,4.6-2.5,6.9c-0.7,2.6-1,5.3-1.4,8.1c-0.2-0.1-0.5-0.1-0.7-0.2
			c-0.4-0.2-0.7-0.4-1.1-0.6c-6.1-3.7-12.4-4-18.5-0.1c-7.2,4.6-9.5,11.6-8.9,19.8c0.2,2.8,0.8,5.5,1.1,8.3
			c0.8,6.3,2.6,12.4,5.9,17.9c4.6,7.6,12.9,10.8,21,7.7c1.8-0.7,3.8-0.7,5.5,0.1c6.3,2.4,12.1,1,17.1-3.3c0.7-0.6,1.2-0.7,2-0.3
			c8.1,3.7,16.6,5.4,25.4,4.5c16.7-1.6,29.8-9.4,39.2-23.3c3.9-5.6,6-12.2,6.2-19C-211,116.7-211.7,116-213.7,116L-213.7,116z
			 M-223.7,120.2c-2.4,10.5-8.6,18.1-17.6,23.4c-11.6,6.9-25.1,6.6-35.2,1.5c2.2-8.2,3.8-16.4,3.6-25h49.2V120.2z M-266.8,106.1
			l8.2-9l8,8.7l-7.7,8.5L-266.8,106.1z M-263.2,116c-3.2,0-6.8,0-10.4,0c-0.3,0-0.7-0.4-0.8-0.7c-0.2-0.4-0.5-0.9-0.6-1.4l5.1-5.4
			L-263.2,116z M-246.8,108.4l6.8,7.6h-13.8L-246.8,108.4z M-254.7,94.3l8-8.6l8.1,8.8l-8,8.6L-254.7,94.3z M-246.7,80.2l-6.2-6.8
			c3,0.4,6.4,1.6,9.5,3.4L-246.7,80.2z M-250.4,83.2l-7.9,8.5l-8-8.8l7.8-8.5L-250.4,83.2z M-270,80.3l-3.3-3.6
			c3-1.7,6.2-2.8,9.6-3.4L-270,80.3z M-270,85.7l8,8.7l-8.1,8.7l-7.9-8.7C-275.7,91.8-272.9,88.9-270,85.7L-270,85.7z M-273.2,105.5
			l-4.3,4.5c-3-3.3-6.5-5.4-10.5-6.1l6.2-6.8L-273.2,105.5z M-230.6,115.9c0.9-1,1.9-2,3.1-3.3v3.3H-230.6z M-228.6,108l-6.6,6.3
			c-2.8-3-5.4-5.9-7.9-8.7l7.9-8.4c0.9,0.9,1.7,1.6,2.4,2.3c1.4,1.3,2.8,2.7,4.2,4C-227,105-227,106.4-228.6,108L-228.6,108z
			 M-229.6,92.3l1.7,5.7l-0.4,0.2l-3.4-3.9L-229.6,92.3z M-231.8,88.1l-3.3,3.5l-8.2-8.9l3.4-3.6C-236.5,81.6-233.8,84.6-231.8,88.1
			L-231.8,88.1z M-234,65.7c0.9-0.2,1.8-0.4,2.6-0.6l-6.8,10c-1.6-0.9-3.4-1.9-5.2-2.9c-1-0.6-0.4-1.1,0.1-1.6
			C-240.5,68.1-237.4,66.6-234,65.7L-234,65.7z M-239.2,54.7c-4.1,4.8-7.4,9.5-8.5,15.5l-5.3-1.1c-0.2,0-0.4-0.1-0.6-0.1
			c-2.1-0.3-2.9-2.1-1.8-3.9C-251.8,59.2-246.3,56-239.2,54.7L-239.2,54.7z M-260.6,44.3c2.2-2.5,2.2-2.5,4.3,0
			c2.7,3.1,3.5,6.9,4,10.9c0,0.1,0,0.3-0.1,0.4c-0.1,0.1-0.1,0.2-0.2,0.3c-1.9,2-3.9,3.9-5.8,5.7c-1.8-1.8-3.7-3.7-5.6-5.6
			c-0.3-0.2-0.4-0.6-0.5-0.9C-264.1,51.2-263.3,47.3-260.6,44.3L-260.6,44.3z M-277.5,54.9c8.2,0.9,15.3,6.6,17.7,13.6l-9.3,1.6
			C-270.2,64.3-273.6,59.5-277.5,54.9L-277.5,54.9z M-285.5,65.1c3.6,0.5,7,1.9,9.9,3.9c0.7,0.5,1.4,1.1,2.1,1.7
			c0.5,0.5,0.6,1.1-0.2,1.5c-1.7,0.9-3.4,1.9-5,2.8L-285.5,65.1z M-277.2,79.2c1.2,1.4,2.5,2.7,3.5,3.9l-8,8.6L-285,88
			C-283,84.5-280.3,81.6-277.2,79.2L-277.2,79.2z M-287.2,92l2.1,2.3l-3.6,3.8l-0.2-0.1C-288.4,96.2-287.8,94.3-287.2,92z
			 M-283.7,150.4c-2.6,4.4-6.6,6.9-11.9,6.8c-1.6-0.1-3.1-0.4-4.6-1.1c-1.1-0.5-2.3-0.8-3.5-0.8s-2.4,0.3-3.5,0.8
			c-4,1.7-8,1.5-11.8-0.9c-2.3-1.4-4-3.4-5.3-5.8c-2.9-5.3-4.3-11-5.1-17c-0.3-2.2-0.7-4.3-0.9-6.5c-0.5-6.2,1-11.7,6.2-15.6
			c4.5-3.3,10.2-3.3,14.9-0.3c1.1,0.7,2.4,1.2,3.8,1.9c-0.1,1.2-0.2,2.5-0.2,4.1c-1-0.5-1.9-0.9-2.7-1.5c-1.2-0.7-2.2-0.7-3,0.2
			c-0.7,0.9-0.6,2.2,0.5,3.1c3.7,3.1,11,3.1,14.6,0c1-0.9,1.2-2,0.5-3s-1.8-1-3-0.3c-0.8,0.5-1.7,0.9-2.8,1.5c0.1-1.6,0.2-2.8,0.3-4
			c0-0.1,0-0.2,0.1-0.3c0-0.1,0.1-0.2,0.2-0.2c1.8-0.9,3.5-1.8,5.3-2.6c7.9-3.3,15.9,1.7,18.1,9.4c1,3.4,0.9,6.8,0.3,10.2
			c-0.9,4.6-1.5,9.3-2.7,13.8C-280.9,145.1-282.2,147.8-283.7,150.4L-283.7,150.4z M-220.2,134.7c-8.5,13.2-20.6,20.6-36.2,22.2
			c-7.8,0.8-15.4-0.6-22.6-3.6c-0.4-0.2-0.8-0.3-1.2-0.6l2-3.7c12.2,5.4,24.3,5.5,36.3-0.4c11.8-5.9,19.7-15.2,22.5-28.4h4.2
			C-215.7,125.4-217.3,130.4-220.2,134.7L-220.2,134.7z M-260.5,144.8c0.4,0,0.8-0.1,1.1-0.4c0.3-0.2,0.6-0.6,0.8-0.9
			c0.2-0.4,0.2-0.8,0.1-1.2s-0.3-0.8-0.6-1c-0.3-0.3-0.7-0.5-1.1-0.5c-0.4-0.1-0.8,0-1.2,0.1c-0.4,0.2-0.7,0.4-0.9,0.8
			c-0.2,0.3-0.3,0.7-0.3,1.2s0.2,1.1,0.6,1.4C-261.5,144.6-261,144.8-260.5,144.8L-260.5,144.8z"/>
	</g>
	<g>
		<defs>
			<rect id="SVGID_00000036941509009047257660000008377407075432775103_" x="0" y="0" width="272.4" height="292.5"/>
		</defs>
		<clipPath id="SVGID_00000041273182972890807710000007871443720263314311_">
			<use xlink:href="#SVGID_00000036941509009047257660000008377407075432775103_"  style="overflow:visible;"/>
		</clipPath>
		<path style="clip-path:url(#SVGID_00000041273182972890807710000007871443720263314311_);fill:#6A3834;" d="M42.8,178.3h-37V213
			h6.4c-1.3,1.7-2.6,3.2-3.7,4.8c-0.6,0.9-1.2,1.2-2.2,1.2c-8.9,0-17.7,0-26.6,0h-1.6v-12h-4.2v11.9h-19.2V207h-4.2v12h-31.8v20.9
			c-4.8-1.9-8.6-1.2-11.3,2.2c-1.1,1.4-1.8,3.2-1.9,5s0.4,3.6,1.4,5.1c2.4,3.7,5.9,4.5,11.6,2.9v3.7h-16.3v14.6H-86
			c-0.1-1.3-0.1-2.6-0.2-4.1H14.5v4.1h11.8v-14.7H10.1c-0.7-2.5-0.5-3,1.4-4.3c4.1-2.7,8.3-5.4,12.4-8c0.5-0.4,1.1-0.6,1.7-0.7
			c8.9-0.9,15.3-6.9,16.8-15.8c0-0.2,0.1-0.3,0.2-0.5V225c-0.2-0.8-0.4-1.7-0.6-2.5c-0.9-3.4-2.7-6.4-5.3-8.8
			c-0.3-0.3-0.5-0.6-0.6-1h6.5v-34.4H42.8z M-82,249.5c-0.5,1.6-2.4,2.7-4.2,2.5c-1.1-0.1-2-0.6-2.8-1.4s-1.2-1.8-1.3-2.8
			c-0.1-1.1,0.2-2.1,0.8-3c0.6-0.9,1.5-1.5,2.6-1.8c1.9-0.5,4.3,0.4,5,2.4h-3.8v4.1H-82z M-90.2,269.2h-3.2V263h3.2V269.2z
			 M-77,223.2H5.7v35.4H-77V223.2z M18.9,263h3.2v6.3h-3.2V263z M14.5,263v2H-85.9v-2H14.5z M9.9,250.6v-11.5
			c2.3,2.7,5.3,4.7,8.7,5.8L9.9,250.6z M38.6,226.9c0,1.9-0.3,3.8-1,5.6s-1.7,3.4-3.1,4.8c-1.3,1.4-2.9,2.5-4.7,3.3
			c-1.8,0.8-3.6,1.2-5.5,1.2c-7.6,0.2-14.4-6.3-14.6-13.9c-0.1-1.9,0.3-3.8,1-5.6s1.7-3.4,3-4.8c1.3-1.4,2.9-2.5,4.7-3.3
			s3.6-1.2,5.5-1.2C31.7,212.8,38.4,219.2,38.6,226.9L38.6,226.9z M38.6,208.7H9.9v-26.3h28.6L38.6,208.7L38.6,208.7z M-72.7,174.9
			c6.3,6.2,12.5,12.5,18.7,18.7c0.3,0.3,0.6,0.6,0.7,1c0.2,0.4,0.2,0.8,0.2,1.2c-0.1,2.5,0,5,0,7.5h34.7c0-2.5,0-4.9,0-7.2
			c0-0.5,0-1,0.2-1.4c0.2-0.5,0.5-0.9,0.8-1.2c6.2-6.2,12.4-12.4,18.6-18.6c0.3-0.3,0.6-0.7,0.8-1.1c0.2-0.4,0.3-0.9,0.2-1.3
			c-0.1-4.2,0-8.3,0-12.5v-4h-76c0,0.5-0.1,1-0.1,1.5c0,4.9,0,9.9,0,14.8c0,0.5,0,0.9,0.2,1.4C-73.3,174.2-73,174.6-72.7,174.9
			L-72.7,174.9z M-22.5,199.3h-26.3v-3.4h26.3V199.3z M-69.5,160.3h67.6c0,0.5,0.1,1,0.1,1.4c0,3.1,0.1,6.2,0,9.3
			c0,0.7-0.3,1.5-0.8,2c-5.9,6-11.8,11.9-17.8,17.8c-0.5,0.5-1.2,0.8-1.9,0.8c-8.9,0.1-17.8,0.1-26.7,0c-0.6,0-1.1-0.2-1.6-0.5
			c-5.2-5.1-10.4-10.3-15.5-15.5c-0.1-0.1-0.2-0.3-0.2-0.4h30.6v-4.1h-33.7v-10.8H-69.5z M19,206.3c1.2,0,2.4-0.4,3.4-1.1
			c1-0.7,1.8-1.6,2.2-2.8c0.4-1.1,0.6-2.3,0.3-3.5c-0.2-1.2-0.8-2.3-1.7-3.1c-0.9-0.8-1.9-1.4-3.1-1.6c-1.2-0.2-2.4-0.1-3.5,0.4
			s-2,1.3-2.7,2.3s-1,2.2-1,3.4c0,1.6,0.7,3.2,1.8,4.3S17.4,206.3,19,206.3L19,206.3z M19,198.2c0.5,0,1,0.2,1.4,0.6
			c0.4,0.4,0.6,0.9,0.6,1.4s-0.2,1-0.6,1.4s-0.9,0.6-1.4,0.6s-1-0.2-1.4-0.6c-0.4-0.4-0.6-0.9-0.6-1.4s0.2-1,0.6-1.4
			C18,198.4,18.5,198.2,19,198.2L19,198.2z M-28.6,216.5V206h-14.1v10.6L-28.6,216.5z M-38.6,210.1h5.9v2.4h-5.9V210.1z
			 M-18.8,162.8h-23.6v3.9h23.6C-18.8,166.7-18.8,162.8-18.8,162.8z M-34.3,152.4h3.9v-4h-3.9V152.4z M-23.7,152.4v-4h-3.7v4H-23.7z
			 M-52.4,151.6c-0.1-1.9,0-3.9,2.2-5.1c2.2-1.1,3.9,0.3,5.8,1.3c1.1-3.3,2.6-6.3,5.4-8.2c2.9-2,6.1-2.9,9.6-2.2
			c7.8,1.7,10.8,7,10.9,14.2l7.5,2.4l2.3-2.9c-0.8-0.5-1.4-0.9-2.1-1.3c-0.9-0.4-1.7-0.8-2.7-1.1c-0.8-0.2-1.1-0.6-1.2-1.4
			c-1.2-7.1-6.6-12.7-13.5-14c-3.4-0.7-6.9-0.2-10.1,1.2s-5.8,3.8-7.6,6.7c-0.2,0.3-0.4,0.6-0.7,0.7c-0.3,0.2-0.7,0.2-1,0.1
			c-3.9-0.3-6.9,1.6-8.4,5.3c-0.3,0.5-0.7,0.9-1.2,1.1c-1.8,0.8-3.6,1.6-5.6,2.4l2.4,3.1L-52.4,151.6z M-12,162.8h-3.9v3.9h3.9
			V162.8z M-5.2,162.7H-9v4h3.9L-5.2,162.7L-5.2,162.7z M-41.2,152.4h3.9v-3.9h-3.9V152.4z M-2.8,238.2h4v-4h-4V238.2z M-21.2,235.9
			c-1.3,0-2.6,0.6-3.5,1.5c-0.9,1-1.4,2.2-1.4,3.6c0,1.3,0.5,2.6,1.4,3.6c0.9,0.9,2.2,1.5,3.5,1.5c0.7,0,1.4-0.1,2-0.4
			c0.6-0.2,1.2-0.6,1.7-1.1s0.9-1,1.1-1.7c0.3-0.6,0.4-1.3,0.4-2s-0.1-1.4-0.4-2s-0.6-1.2-1.1-1.7s-1.1-0.8-1.7-1.1
			C-19.8,236-20.5,235.8-21.2,235.9L-21.2,235.9z M-21,241.8c-0.3,0-0.7-0.5-1-0.8c0.3-0.3,0.6-0.9,1-1c0.3-0.1,0.7,0.4,1.3,0.9
			C-20.3,241.4-20.7,241.8-21,241.8L-21,241.8z M35.6,185h-4v3.9h4V185z M-21.5,229.5c-9.7,0.8-19.4,2.1-29.1,3.3
			c-1.6,0.2-3.3,0.4-4.8,1c-3.4,1.5-5,5-4.4,8.7c0.6,3.4,3.4,6,7.4,6.5c10,1.2,20,2.3,30.1,3.4c6.9,0.8,12.7-4.3,12.9-11.3
			C-9.5,234.4-15,228.9-21.5,229.5L-21.5,229.5z M-51.9,244.9c-0.8,0-1.6-0.2-2.2-0.6c-0.7-0.4-1.2-1-1.5-1.7s-0.4-1.5-0.3-2.3
			c0.1-0.8,0.5-1.5,1-2c0.5-0.6,1.2-0.9,2-1.1c0.8-0.2,1.6-0.1,2.3,0.2s1.3,0.8,1.8,1.4c0.4,0.6,0.7,1.4,0.7,2.2c0,1-0.4,2-1.1,2.8
			C-49.9,244.4-50.9,244.8-51.9,244.9L-51.9,244.9z M-45,245.7c0.4-1.6,1-3.1,1-4.7c0-1.6-0.6-3.1-1-4.7l14.1-1.6
			c-2.4,4.3-2.4,8.4,0.1,12.7L-45,245.7z M-21,248.4c-4.1,0.1-7.5-3.4-7.6-7.5c0-4.1,3.5-7.6,7.5-7.5c2,0,3.8,0.8,5.2,2.2
			s2.1,3.3,2.1,5.2c0,2-0.8,3.8-2.1,5.2C-17.2,247.6-19.1,248.4-21,248.4L-21,248.4z M28.7,184.9h-3.9v3.9h3.9V184.9z M29.5,224.9
			l4.2-3.8l-3.3-3.4c-1.3,1.4-2.6,2.9-4.2,4.7v-6.2h-4.1v5.9l-0.4,0.2l-3.6-4.1l-3.6,2.9c1.5,1.4,2.9,2.7,4.6,4.2H13v4.2h5.8
			l0.1,0.3l-4.3,3.9l3.4,3.2l4.2-4.5v6.1h4.2v-5.9l0.4-0.2l3.8,4.1l3.3-2.9l-4.5-4.2h6.1v-4.2h-5.8C29.6,225.1,29.5,225,29.5,224.9
			L29.5,224.9z M-2.8,254h3.9v-12.8h-3.9V254z M-72.1,256.1h3.9v-3.9h-3.9V256.1z M-65.2,256.1h3.9v-3.9h-3.9V256.1z M1.1,227.4
			h-3.9v4h3.9C1.1,231.4,1.1,227.4,1.1,227.4z M21.9,184.9h-9v3.9h9V184.9z M-53.9,242.9h3.9v-4h-3.9V242.9z M-58.4,256h3.7v-3.9
			h-3.7V256z"/>
	</g>
	<g>
		<defs>
			<rect id="SVGID_00000005254831200543208770000013059217615269357220_" x="0" y="0" width="272.4" height="292.5"/>
		</defs>
		<clipPath id="SVGID_00000176739142797391747600000007666370405993406633_">
			<use xlink:href="#SVGID_00000005254831200543208770000013059217615269357220_"  style="overflow:visible;"/>
		</clipPath>
		<path style="clip-path:url(#SVGID_00000176739142797391747600000007666370405993406633_);fill:#6A3834;" d="M168.6,110
			c0,0.5,0.2,0.9,0.5,1.2c0.3,0.3,0.8,0.5,1.2,0.5c1,0.1,1.9-0.4,2-1.5c0.1-1.5,0.1-3,0-4.5c-0.1-1-0.9-1.5-1.9-1.5
			c-0.2,0-0.4,0-0.7,0.1c-0.2,0.1-0.4,0.2-0.6,0.4c-0.2,0.2-0.3,0.3-0.4,0.6c-0.1,0.2-0.1,0.4-0.1,0.7c-0.1,0.6,0,1.3,0,1.9
			C168.6,108.6,168.5,109.3,168.6,110z M169.4,70.7c0.8,0,1.6-0.1,2.3-0.5c0.7-0.3,1.4-0.8,2-1.3c0.6-0.6,1-1.2,1.3-2
			c0.3-0.7,0.5-1.5,0.5-2.3c0-0.8-0.2-1.6-0.5-2.3s-0.8-1.4-1.3-2c-0.6-0.6-1.2-1-2-1.3c-0.7-0.3-1.5-0.5-2.3-0.4
			c-0.8,0-1.6,0.2-2.3,0.5s-1.4,0.8-2,1.3c-0.6,0.6-1,1.2-1.3,2c-0.3,0.7-0.5,1.5-0.5,2.3c0,1.6,0.7,3.1,1.8,4.3
			C166.3,70.1,167.8,70.8,169.4,70.7L169.4,70.7z M169.5,62.5c0.6,0,1.1,0.3,1.5,0.7s0.6,1,0.7,1.5c0,0.6-0.2,1.1-0.7,1.5
			c-0.4,0.4-1,0.6-1.6,0.6c-0.3,0-0.6,0-0.8-0.1c-0.3-0.1-0.5-0.3-0.7-0.5s-0.4-0.4-0.5-0.7c-0.1-0.3-0.2-0.5-0.2-0.8s0-0.6,0.2-0.9
			c0.1-0.3,0.3-0.5,0.5-0.7s0.5-0.4,0.7-0.5C168.9,62.5,169.2,62.5,169.5,62.5z M160.3,105.8c-0.1,1.5-0.1,3,0,4.5
			c0.1,1,1,1.5,2,1.5c0.5,0,0.9-0.2,1.2-0.5s0.5-0.8,0.5-1.2c0.1-0.6,0-1.3,0-1.9s0.1-1.4,0-2.1c0-0.2-0.1-0.5-0.1-0.7
			c-0.1-0.2-0.2-0.4-0.4-0.6s-0.3-0.3-0.6-0.4c-0.2-0.1-0.4-0.1-0.7-0.1C161.2,104.3,160.4,104.8,160.3,105.8z M215.2,84.5
			c3.8,0.1,7.6-3.8,7.4-7.6c0-1.1-0.5-2.2-1.2-3s-1.7-1.4-2.8-1.6c-3.9-0.7-8.2,3-8.2,7.1C210.4,82.3,212.4,84.4,215.2,84.5
			L215.2,84.5z M217.6,76.2c0.9,0,1.2,0.5,1.1,1.3c-0.2,1.4-1.7,2.9-3.1,3.1c-0.8,0.1-1.3-0.2-1.3-1.1
			C214.3,78,216.1,76.2,217.6,76.2L217.6,76.2z M282.4,103.7c-0.9-2.9-2.7-5.4-5.2-7.3c-2.4-1.8-5.4-2.8-8.4-2.8c-1.7,0-3.4,0-5.3,0
			v-1.5c0-5.5,0-11,0-16.5c0-1.5-0.9-2.4-2.1-2.3c-1.1,0.1-1.7,1-1.7,2.5c0,5.4,0,10.7,0,16.1v1.6h-20.5V63.3h20.5
			c0,0.9,0,1.9,0,2.8c0,1.3,0.8,2.1,1.9,2.1s1.9-0.8,1.9-2.1c0-4.3,0-8.6,0-12.9c0-1.5-0.7-2.2-2.2-2.2c-7.9,0-15.8,0-23.8,0
			c-1.6,0-2.2,0.7-2.2,2.3c0,2.9,0,5.7,0,8.6c0,10,0,20,0,30v1.6h-4.6V54c0-2.5-0.4-3-3-3h-22.2c-2.5,0-3,0.5-3,3v39.5h-12.7V76.1
			h5.2c2.6,0,3-0.5,3-3c0-10.8,0-21.5,0-32.3c0-1.2-0.2-2.2-1.2-2.9H168c-0.2,0.2-0.6,0.4-0.7,0.7c-0.2,0.7-0.5,1.6-0.2,2
			c0.2,0.3,0.5,0.6,0.9,0.7c0.3,0.2,0.7,0.3,1.1,0.3c5.1,0.1,10.1,0,15.2,0h1.5v76.6h-30.3V41.9c1.2,0,2.3,0,3.5,0
			c1.1,0,2.1-0.1,2.6-1.2c0.5-1.2-0.2-1.9-1-2.6h-7.7c-1.1,0.6-1.3,1.6-1.3,2.8c0,35,0,70.1,0,105.1v20.8c0,2.3,0.5,2.8,2.9,2.8h6
			c2.8,0,3.2-0.4,3.2-3.1c0-14.1,0-28.3,0-42.4v-1.7h71.6c0.5,0,0.9,0,1.4,0c0.4,0,0.8-0.2,1.2-0.5c0.3-0.3,0.5-0.7,0.5-1.2
			c0.1-0.4,0-0.9-0.3-1.2c-0.2-0.4-0.6-0.6-1-0.7c-0.5-0.1-1.1-0.2-1.7-0.2c-14.7,0-29.5,0-44.2,0h-1.5v-4.4h77.9c0.5,0,0.9,0,1.4,0
			c1.5-0.1,2.9-0.7,3.9-1.7c1.1-1,1.7-2.4,1.9-3.8c0.1-1.4-0.2-2.8-1-3.9s-1.9-2-3.2-2.4c-0.9-0.2-1.8-0.3-2.8-0.3
			c-25.5,0-50.9,0-76.4,0h-1.7v-4.5h78.1c0.4,0,0.9,0,1.3,0c2.7,0.1,5.3,1.3,7.2,3.2c1.9,1.9,3,4.5,3,7.2c0,1.4-0.2,2.7-0.7,4
			s-1.3,2.4-2.2,3.4c-1,1-2.1,1.8-3.4,2.3s-2.6,0.8-4,0.8c-7.6,0.1-15.1,0-22.6,0c-1.9,0-2.8,0.6-2.8,1.9s0.9,2,2.7,2
			c2.5,0,5,0,7.5,0c0.4,0,0.7,0,1.2,0.1v1.7c0,14.3,0,28.6,0,42.9c0,2,0.6,2.6,2.6,2.6c2.2,0,4.4,0,6.6,0c2.5,0,3-0.5,3-3
			c0-14.2,0-28.4,0-42.7v-1.6c0.8,0,1.3,0,1.9,0c3,0,6-1,8.4-2.8s4.2-4.3,5.1-7.2c0.3-0.8,0.5-1.7,0.7-2.6v-3.6
			C282.8,105.4,282.6,104.5,282.4,103.7L282.4,103.7z M239.2,54.9h20.4v4.3h-20.4L239.2,54.9L239.2,54.9z M159.5,165.8h-4.2v-43.3
			h4.2V165.8z M189.6,42h4.3v30.3h-4.3V42z M191,105.8h76.8c0.4,0,0.9,0,1.3,0.1c0.5,0.1,0.9,0.3,1.2,0.7c0.3,0.4,0.5,0.8,0.5,1.3
			c0.1,0.5,0,0.9-0.3,1.3c-0.2,0.4-0.6,0.7-1,0.8c-0.6,0.2-1.2,0.3-1.8,0.3c-25.6,0-51.2,0-76.8,0h-1.4v-4.4
			C190.1,105.8,190.5,105.8,191,105.8z M206.3,55h20.4v4.2h-20.4V55z M226.7,93.5h-20.4V63.3h20.4V93.5z M263,165.7h-4.3v-43.2h4.3
			V165.7z M243.4,80.2c0.1,1.2,0.7,2.3,1.6,3.1c0.9,0.8,2.1,1.2,3.3,1.2c3.6,0,7.2-3.6,7.2-7.2c0.1-1.2-0.3-2.4-1.1-3.3
			s-1.8-1.5-3-1.6C247.2,71.7,242.8,76,243.4,80.2L243.4,80.2z M248,80.6c-0.2-0.2-0.7-0.6-0.7-1.1c-0.2-1.5,1.8-3.5,3.3-3.3
			c0.2,0.1,0.5,0.2,0.7,0.4c0.2,0.2,0.3,0.4,0.4,0.7C251.7,78.7,249.8,80.6,248,80.6L248,80.6z M176.9,109.9c0,0.5,0.2,1,0.6,1.3
			c0.4,0.3,0.8,0.5,1.3,0.5c1.1-0.1,1.8-0.7,1.9-1.8c0.1-1.3,0.1-2.6,0-4c-0.1-1.1-0.8-1.7-1.9-1.7c-0.2,0-0.5,0-0.7,0.1
			s-0.4,0.2-0.6,0.4c-0.2,0.2-0.3,0.4-0.4,0.6c-0.1,0.2-0.2,0.5-0.2,0.7c0,0.6,0,1.2,0,1.8C176.8,108.6,176.8,109.3,176.9,109.9
			L176.9,109.9z"/>
	</g>
	<g>
		<defs>
			<rect id="SVGID_00000012465474057753277080000005668114072804885903_" x="0" y="0" width="272.4" height="292.5"/>
		</defs>
		<clipPath id="SVGID_00000012465887276405507180000001171307443331146415_">
			<use xlink:href="#SVGID_00000012465474057753277080000005668114072804885903_"  style="overflow:visible;"/>
		</clipPath>
		<path style="clip-path:url(#SVGID_00000012465887276405507180000001171307443331146415_);fill:#6A3834;" d="M424,248.5
			c-1.2,0-2.4,0.4-3.4,1c-1,0.7-1.8,1.6-2.2,2.7c-0.4,1.1-0.6,2.3-0.3,3.5c0.2,1.2,0.8,2.3,1.7,3.1c0.9,0.8,1.9,1.4,3.1,1.7
			c1.2,0.2,2.4,0.1,3.5-0.3c1.1-0.5,2.1-1.2,2.7-2.2c0.7-1,1-2.2,1-3.4c0-0.8-0.1-1.6-0.4-2.3s-0.8-1.4-1.3-2c-0.6-0.6-1.2-1-2-1.3
			C425.6,248.7,424.8,248.5,424,248.5L424,248.5z M424.1,256.8c-0.3,0-0.6,0-0.9-0.1s-0.5-0.3-0.7-0.5c-0.2-0.2-0.4-0.5-0.5-0.7
			c-0.1-0.3-0.2-0.6-0.2-0.9c0-0.6,0.3-1.1,0.7-1.5c0.4-0.4,1-0.6,1.5-0.6c0.6,0,1.1,0.2,1.5,0.6c0.4,0.4,0.7,0.9,0.7,1.5
			c0,0.3,0,0.6-0.1,0.8c-0.1,0.3-0.3,0.5-0.5,0.7s-0.4,0.4-0.7,0.5C424.6,256.7,424.4,256.8,424.1,256.8L424.1,256.8z M436.8,224.1
			c8.7-0.2,17.2-8.8,17.1-17.6c0-6.8-5.3-11.5-12.1-10.6c-7.6,1-14.2,7-15.8,14.5C424.4,218.1,429.2,224.2,436.8,224.1L436.8,224.1z
			 M443,199.7c4.3-0.1,7.1,2.7,7.1,7c0,6.6-6.9,13.5-13.4,13.6c-4.4,0.1-7.2-2.8-7.1-7.1C429.7,206.6,436.5,199.8,443,199.7
			L443,199.7z M498.3,260.7c1.2,0,2.4-0.4,3.4-1c1-0.7,1.8-1.6,2.2-2.7c0.5-1.1,0.6-2.3,0.3-3.5c-0.2-1.2-0.8-2.3-1.7-3.1
			c-0.8-0.9-1.9-1.4-3.1-1.7c-1.2-0.2-2.4-0.1-3.5,0.3c-1.1,0.5-2.1,1.2-2.7,2.2c-0.7,1-1,2.2-1,3.4c0,0.8,0.1,1.6,0.4,2.3
			s0.7,1.4,1.3,2c0.6,0.6,1.2,1,2,1.3S497.5,260.7,498.3,260.7L498.3,260.7z M498.3,252.4c0.6,0,1.1,0.2,1.5,0.7
			c0.4,0.4,0.7,1,0.7,1.5c0,0.3-0.1,0.6-0.2,0.8c-0.1,0.3-0.3,0.5-0.5,0.7s-0.4,0.4-0.7,0.5c-0.3,0.1-0.5,0.2-0.8,0.2
			s-0.6,0-0.8-0.1c-0.3-0.1-0.5-0.2-0.7-0.4c-0.2-0.2-0.4-0.4-0.5-0.7s-0.2-0.5-0.2-0.8s0-0.6,0.1-0.9c0.1-0.3,0.3-0.5,0.5-0.8
			c0.2-0.2,0.5-0.4,0.7-0.5C497.7,252.5,498,252.4,498.3,252.4L498.3,252.4z M439.8,233.7c4.7,0,9.3-1.4,13.2-4s7-6.3,8.8-10.6
			s2.3-9.1,1.4-13.7c-0.9-4.6-3.2-8.8-6.5-12.2c-3.3-3.3-7.5-5.6-12.1-6.5s-9.4-0.5-13.7,1.3c-4.3,1.8-8.1,4.8-10.7,8.7
			s-4,8.5-4,13.2c0,6.3,2.5,12.3,6.9,16.7C427.5,231.1,433.5,233.6,439.8,233.7L439.8,233.7z M439.9,190.1c3.9,0,7.8,1.2,11,3.4
			c3.3,2.2,5.8,5.3,7.3,8.9s1.9,7.6,1.1,11.5s-2.7,7.4-5.5,10.2s-6.3,4.6-10.2,5.4c-3.9,0.8-7.8,0.3-11.5-1.2
			c-3.6-1.5-6.7-4.1-8.9-7.4c-2.2-3.3-3.3-7.1-3.3-11.1c0-2.6,0.5-5.2,1.5-7.6c1-2.4,2.5-4.6,4.3-6.4c1.8-1.8,4.1-3.3,6.5-4.3
			C434.7,190.6,437.3,190.1,439.9,190.1L439.9,190.1z M489.4,224.7c-1,0.1-1.7,0.8-1.6,1.9c0,1.1,0.8,1.8,1.9,1.8c0.9,0,1.7,0,2.6,0
			c0.8,0,1.8,0,2.7,0c0.2,0,0.5,0,0.7-0.1s0.4-0.2,0.6-0.4s0.3-0.4,0.4-0.6c0.1-0.2,0.1-0.5,0.1-0.7c0.1-1.1-0.5-1.9-1.6-2
			C493.3,224.6,491.4,224.6,489.4,224.7z M435.4,215.4c0.8,0.7,1.8,0.6,2.5-0.2c0.5-0.6,0.8-1.5,1.3-2.2c0.4-0.5,0.8-1.1,1.3-1.3
			c1.4-0.5,2.5-1.3,3.2-2.7c0.4-0.8,0.8-1.6,1.1-2.4c0.6-1.3-0.4-2.7-2-2.7c-1.3,0.2-1.9,1.3-2.3,2.6c-0.1,0.4-0.3,0.7-0.6,1
			c-0.3,0.3-0.6,0.5-1,0.6c-0.7,0.2-1.3,0.6-1.9,1c-0.5,0.5-1,1.1-1.2,1.8c-0.3,0.6-0.5,1.2-0.8,1.8
			C434.4,213.9,434.5,214.7,435.4,215.4L435.4,215.4z M525.4,228.1c1.2,0.4,2-0.3,2.5-1.2v-26.7c-0.1-0.1-0.2-0.1-0.2-0.2
			c-2.1-8.6-7.3-12.7-16.1-12.7h-28.4c0-4.4,0-8.6,0-12.8c0-2.2-0.6-2.8-2.8-2.8c-17.5,0-35.1,0-52.6,0c-0.4,0-0.9,0-1.3,0.1
			c-1,0.3-1.6,0.9-1.5,1.9c0,1.1,0.7,1.6,1.7,1.8c0.4,0,0.9,0.1,1.3,0h51.2v68.8c-0.1,0-0.2,0.1-0.3,0.1c-12.8,0-25.6,0-38.4,0
			c-0.3,0-0.5-0.1-0.7-0.2c-0.2-0.1-0.4-0.3-0.6-0.5c-7.9-10.4-22.6-10.4-30.5,0c-0.2,0.3-0.5,0.7-0.8,0.7c-2.6,0.1-5.1,0-7.6,0
			v-68.9h1.5c5.3,0,10.5,0,15.8,0c0.4,0,0.8-0.1,1.1-0.3c0.4-0.2,0.7-0.4,0.9-0.7c1-1.3-0.2-2.9-2.1-2.9c-6.2,0-12.5,0-18.8,0
			c-1.8,0-2.4,0.7-2.4,2.5c0,26.6,0,53.2,0,79.8c0,1.9,0.6,2.5,2.6,2.5c2.1,0,4.2,0,6.2,0c1.7,11.2,10.6,16.8,18.4,16.9
			c4.2,0.1,8.2-1.2,11.5-3.7c4.4-3.3,6.9-7.7,7.7-13.2h22.4c0.4,0,0.8,0,1.2,0c1.1-0.1,1.9-0.8,1.9-1.8c0-0.5-0.2-1-0.5-1.3
			c-0.3-0.4-0.8-0.6-1.3-0.6c-0.4,0-0.8,0-1.2,0h-22.5c-0.3-1.6-0.6-3-1-4.3h38.6c-0.3,1.5-0.7,2.9-1,4.3c-1.3,0-2.5,0-3.8,0
			c-1.4,0-2.2,0.7-2.2,1.9s0.8,1.9,2.2,1.9c1.3,0,2.5,0,3.8,0c1.7,11.2,10.7,16.8,18.4,16.9c4.2,0.1,8.2-1.2,11.5-3.7
			c4.4-3.3,6.9-7.7,7.6-13.2c2.9,0,5.6,0,8.4,0c1.2,0,2-0.3,2.5-1.4v-20.6c-0.7-0.8-1.4-1.6-2.6-1.1c-1.2,0.5-1.3,1.5-1.3,2.5
			c0,2.7,0,5.4,0,8.2c-0.2,0.1-0.5,0.1-0.7,0.1c-2.8,0-5.7,0-8.5,0c-0.2,0-0.5-0.1-0.7-0.2c-0.2-0.1-0.4-0.2-0.6-0.4
			c-7.2-10.1-22-10.6-29.9-1.1c-0.1,0.1-0.3,0.2-0.4,0.3V191h1.4c9.2,0,18.3,0,27.5,0c7.3,0,11.8,4.6,11.8,11.9c0,7.6,0,15.2,0,22.7
			C524.1,226.8,524.4,227.8,525.4,228.1L525.4,228.1z M405.2,252.6h-4.9v-4.2h5.9C405.8,249.7,405.5,251.1,405.2,252.6L405.2,252.6z
			 M423.9,269.6c-3.9-0.1-7.6-1.8-10.3-4.6c-2.7-2.8-4.2-6.5-4.2-10.4s1.6-7.6,4.3-10.4c2.7-2.8,6.4-4.4,10.3-4.5
			c8.2,0,15,6.8,14.9,15c0,4-1.7,7.7-4.5,10.5C431.7,268,427.9,269.6,423.9,269.6L423.9,269.6z M524.1,248.3v4.3h-7l-1-4.3H524.1z
			 M498.2,239.7c2.9,0,5.8,0.9,8.3,2.5s4.4,4,5.5,6.7c1.1,2.7,1.4,5.7,0.9,8.6c-0.6,2.9-2,5.6-4.1,7.7s-4.7,3.5-7.6,4.1
			s-5.9,0.3-8.6-0.8c-2.7-1.1-5.1-3-6.7-5.5c-1.7-2.5-2.5-5.3-2.6-8.3c0-4,1.6-7.8,4.4-10.6C490.5,241.3,494.3,239.7,498.2,239.7
			L498.2,239.7z M517.1,220.2c2,0,2.6-0.7,2.6-2.6c0-4.8,0-9.6,0-14.4c0-4.7-3-7.6-7.7-7.6c-7.2,0-14.4,0-21.6,0
			c-2.1,0-2.6,0.6-2.6,2.7c0,6.4,0,12.9,0,19.3c0,2.1,0.6,2.7,2.7,2.7c4.4,0,8.8,0,13.2,0C508.2,220.2,512.6,220.2,517.1,220.2
			L517.1,220.2z M491.7,199.4h1.3c6.3,0,12.6,0,18.9,0c2.8,0,4,1.2,4,4c0,3.9,0,7.8,0,11.7c0,0.4,0,0.7-0.1,1.2h-24.1L491.7,199.4
			L491.7,199.4z"/>
	</g>
	<g>
		<defs>
			<rect id="SVGID_00000130625227992490505420000004542775964154266041_" x="0" y="0" width="272.4" height="292.5"/>
		</defs>
		<clipPath id="SVGID_00000070098642046816678630000008718124345832077976_">
			<use xlink:href="#SVGID_00000130625227992490505420000004542775964154266041_"  style="overflow:visible;"/>
		</clipPath>
		<path style="clip-path:url(#SVGID_00000070098642046816678630000008718124345832077976_);fill:#6A3834;" d="M714.8,119.5
			c5.2-6.5,1.1-14.6-5.3-16.3c-2.2-0.6-4.3-1.2-6.4-1.8c-1.1-0.3-2.1-0.8-2.9-1.6c-0.8-0.8-1.4-1.7-1.8-2.8
			c-0.8-2.1-1.7-4.1-2.5-6.2c-3.1-7.5-11.9-8.9-17.2-2.8c-5.9,6.8-6.9,17.1-2.4,25.1c4,7.2,10,11.8,18,13.8c1.4,0.3,2.9,0.4,4.1,0.5
			C705.2,127.1,710.7,124.7,714.8,119.5z M703.6,123c-5.2,1.5-10.1,0.6-14.6-2.1c-7-4.1-11.2-10.1-11.8-17.2
			c0.1-5.8,1.4-9.9,4.5-13.4c3.3-3.8,8.8-2.9,10.7,1.7c0.8,2,1.7,3.9,2.4,6c1.4,4,4.2,6.2,8.2,7.2c2.1,0.5,4.2,1.1,6.3,1.8
			c4.3,1.6,5.7,6.6,2.8,10.2C709.8,120.1,706.9,122.1,703.6,123L703.6,123z M754.1,46.2h-54.6c0-2,0-3.9,0-5.8
			c0-1.7-0.8-2.4-2.4-2.4c-8,0-15.9,0-23.9,0c-1.7,0-2.4,0.7-2.5,2.4c0,1.9,0,3.8,0,5.8c-3.2,0-6.3,0-9.4,0c-2.3,0-2.9,0.6-2.9,3
			v109.3c0,2.4,0.6,3,3,3h92.8c2.4,0,3-0.6,3-2.9V49.2C757.1,46.8,756.5,46.2,754.1,46.2z M748.2,50.4c-1.9,1.3-3.5,2.4-5.2,3.4
			c-0.1,0-0.2,0.1-0.3,0c-0.1,0-0.2,0-0.3-0.1c-1.6-1.1-3.2-2.1-5.1-3.4L748.2,50.4L748.2,50.4z M691.4,42.2h4v4h-4V42.2z
			 M683.1,42.2h4v4h-4V42.2z M674.9,42.2h4v4h-4V42.2z M662.5,50.5h65.7v15c-5.7,2.6-12,3.8-18.2,3.3c-4.9-0.4-9.6-1.8-14-3.9
			c-10.7-5.1-21.6-5.6-32.7-1.5c-0.2,0.1-0.5,0.1-0.8,0.2V50.5z M728.3,157.3h-65.8v-1.4c0-28.8,0-57.6,0-86.4
			c0-1.1,0.3-1.5,1.3-1.9c10.2-4.1,20.2-3.9,30.1,0.8c6.4,3,13,4.8,20.1,4.6c4.3-0.1,8.6-0.9,12.7-2.4c0.5-0.2,1-0.3,1.6-0.5
			L728.3,157.3z M732.5,52.2c1.4,0.9,2.7,1.7,3.9,2.6c1.4,1,3.3,1.7,4.1,3c0.7,1.3,0.2,3.3,0.2,4.9c0,28.6,0,57.2,0,85.8
			c0,1.2-0.4,1.9-1.4,2.6c-2.2,1.4-4.4,2.9-6.8,4.5V52.2z M737.4,157.2c1.8-1.2,3.4-2.3,5-3.3c0.1-0.1,0.3-0.1,0.4-0.1
			c0.2,0,0.3,0,0.5,0.1c1.6,1,3.1,2.1,4.9,3.3H737.4z M753,155.5c-2.7-1.8-5.2-3.5-7.8-5.2c-0.2-0.2-0.3-0.5-0.4-0.7
			c0-0.3,0-0.7,0-1c0-29.8,0-59.6,0-89.3c0-1.2,0.4-1.8,1.4-2.4c2.3-1.4,4.5-3,6.8-4.5V155.5z M719.7,138.8c-2.6,0-5.2,0-7.8,0
			s-5.2,0-7.8,0c-1.7,0-2.4,0.8-2.4,2.4c0,2.5,0,5,0,7.5c0,1.7,0.8,2.4,2.4,2.4c5.2,0,10.4,0,15.7,0c1.7,0,2.4-0.8,2.4-2.4
			c0-2.5,0-5,0-7.5C722.1,139.6,721.4,138.8,719.7,138.8L719.7,138.8z M717.9,147h-12.2v-4h12.2V147z M684.7,147.1
			c-4.5,0-9,0-13.5,0c-1.5,0-2.5,0.7-2.5,2c0,1.2,0.9,2.1,2.5,2.1c2.2,0,4.5,0,6.7,0s4.5,0,6.8,0c1.5,0,2.5-0.8,2.5-2
			C687.2,147.9,686.2,147.1,684.7,147.1L684.7,147.1z M684.7,138.8c-4.5,0-9.1,0-13.6,0c-1.5,0-2.4,0.8-2.4,2.1c0,1.2,0.9,2,2.5,2
			c2.2,0,4.5,0,6.7,0s4.5,0,6.8,0c1.6,0,2.5-0.8,2.5-2.1C687.1,139.5,686.2,138.8,684.7,138.8L684.7,138.8z M685.6,94.2
			c-0.9-0.7-2-0.4-2.8,0.8c-1.8,2.7-2.6,5.6-2.7,9.5c0.1,0.7,0.2,2.1,0.5,3.4c0.2,1.4,1.1,1.9,2.2,1.7c1-0.2,1.5-1.1,1.4-2.4
			c-0.1-2-0.3-4,0-6c0.2-1.5,1-2.9,1.7-4.2C686.5,95.8,686.5,94.8,685.6,94.2L685.6,94.2z"/>
	</g>
	<g>
		<defs>
			<rect id="SVGID_00000094582784289100214980000009021827276226027660_" x="0" y="0" width="272.4" height="292.5"/>
		</defs>
		<clipPath id="SVGID_00000031199175491552192590000002144173024972639882_">
			<use xlink:href="#SVGID_00000094582784289100214980000009021827276226027660_"  style="overflow:visible;"/>
		</clipPath>
		
			<circle style="clip-path:url(#SVGID_00000031199175491552192590000002144173024972639882_);fill:#6A3834;" cx="-1252.1" cy="248.5" r="27.5"/>
	</g>
	<g>
		<defs>
			<rect id="SVGID_00000109722017254189655470000016875939156719375769_" x="0" y="0" width="272.4" height="292.5"/>
		</defs>
		<clipPath id="SVGID_00000148662933369038743020000011461974028587379637_">
			<use xlink:href="#SVGID_00000109722017254189655470000016875939156719375769_"  style="overflow:visible;"/>
		</clipPath>
		<path style="clip-path:url(#SVGID_00000148662933369038743020000011461974028587379637_);fill:#D0F4A5;" d="M-1248.2,231.9
			c-0.3-0.2-0.9-0.4-1.2-0.4c-1.2,0-2.1,1-2.1,1l-6.7,13.1c-0.2,0.5-0.4,1-0.4,1.4c0,1.2,1.2,1.3,2,1.3c0.1,0,0.2,0,0.3,0
			c0.6-0.4,4.9-8.8,5.1-9.3c0,0.2-1,19.5-1,24.3c0,0.2,0,0.4,0,0.6c0.1,0.8,0.3,1.2,1.2,1.2c1.2,0,2.6-1.1,2.6-1.1s0.5-19.4,0.5-28
			C-1247.9,233.5-1247.9,232.1-1248.2,231.9z"/>
	</g>
	<g>
		<defs>
			<rect id="SVGID_00000130635692272860385330000004367146059219378845_" x="0" y="0" width="272.4" height="292.5"/>
		</defs>
		<clipPath id="SVGID_00000069394478791165569960000004793230133434596004_">
			<use xlink:href="#SVGID_00000130635692272860385330000004367146059219378845_"  style="overflow:visible;"/>
		</clipPath>
		
			<circle style="clip-path:url(#SVGID_00000069394478791165569960000004793230133434596004_);fill:#6A3834;" cx="-1007.1" cy="65.5" r="27.5"/>
	</g>
	<g>
		<defs>
			<rect id="SVGID_00000100361372288509993930000017376748856001553294_" x="0" y="0" width="272.4" height="292.5"/>
		</defs>
		<clipPath id="SVGID_00000053539704956688152200000002040874082301641129_">
			<use xlink:href="#SVGID_00000100361372288509993930000017376748856001553294_"  style="overflow:visible;"/>
		</clipPath>
		<path style="clip-path:url(#SVGID_00000053539704956688152200000002040874082301641129_);fill:#D0F4A5;" d="M-1012.6,57.9
			c0.3,0.4,0.8,0.6,1.2,0.6c2,0,1.9-2.2,1.9-2.2c0.2-4,1.6-4.5,2.3-4.5c1.6,0,2.1,1.7,2.1,3.4c0,3.5-1.8,8.6-5.1,15
			c-1.1,2-4.3,7.3-4.3,9.3c0.1,1.3,1.2,2.2,2.3,2.2c0.3,0,1.9,0,3.2,0c2.2,0,4.8-0.1,6.1-0.1c0.8,0,1.7-0.5,1.7-1.8
			c0-1.2-0.7-1.5-1.8-1.5h-0.4c-0.6,0-1.9,0-6.7,0l4.3-8.9c1-1.8,4.4-8.5,4.4-14.2c0-5.3-3.4-6.5-5.4-6.5c-5.3,0-6.1,4.3-6.1,7
			C-1012.9,56.6-1012.7,57.7-1012.6,57.9z"/>
	</g>
	<g>
		<defs>
			<rect id="SVGID_00000001649629745622004750000006892616865565353098_" x="0" y="0" width="272.4" height="292.5"/>
		</defs>
		<clipPath id="SVGID_00000172406427828302958620000001841335905785378688_">
			<use xlink:href="#SVGID_00000001649629745622004750000006892616865565353098_"  style="overflow:visible;"/>
		</clipPath>
		
			<circle style="clip-path:url(#SVGID_00000172406427828302958620000001841335905785378688_);fill:#6A3834;" cx="-517.1" cy="65.5" r="27.5"/>
	</g>
	<g>
		<defs>
			<rect id="SVGID_00000118385310818602435610000012408168063918026143_" x="0" y="0" width="272.4" height="292.5"/>
		</defs>
		<clipPath id="SVGID_00000114058529603631647390000012433447352971529097_">
			<use xlink:href="#SVGID_00000118385310818602435610000012408168063918026143_"  style="overflow:visible;"/>
		</clipPath>
		<path style="clip-path:url(#SVGID_00000114058529603631647390000012433447352971529097_);fill:#D0F4A5;" d="M-516.5,52.9l0.8-2.4
			c-0.2-1.1-0.9-1.6-2-1.6c-0.2,0-0.3,0-0.9,0.1c-0.5,1.3-3.2,8.5-6.6,18.6l-0.2,1.1c0,2,0.7,2,2.8,2h2.4c1.3,0,2.8,0,3.9,0
			c-0.1,3.7-0.2,6.9-0.2,10.5c0.2,1.1,0.7,1.1,1.2,1.1c2.1,0,2.2-1.3,2.3-2.8c0-2.9,0.2-6,0.2-8.9h1.2c1.1,0,1.7-0.1,2.2-0.7
			c0.3-0.4,0.5-0.8,0.5-1.2c0-1-0.8-1.2-1.5-1.2h-2.2V57.3c-0.5-0.2-0.8-0.3-1-0.3c-1.1,0-1.9,0.5-2.2,1.9c-0.4,2.1-0.4,3.9-0.5,5.7
			c0,0.9,0,1.8,0,2.7h-5.5C-520.4,64.4-518.2,57.9-516.5,52.9z"/>
	</g>
	<g>
		<defs>
			<rect id="SVGID_00000011023418630715119130000014307210176246284980_" x="0" y="0" width="272.4" height="292.5"/>
		</defs>
		<clipPath id="SVGID_00000010280201601947052350000002467306964531529899_">
			<use xlink:href="#SVGID_00000011023418630715119130000014307210176246284980_"  style="overflow:visible;"/>
		</clipPath>
		
			<circle style="clip-path:url(#SVGID_00000010280201601947052350000002467306964531529899_);fill:#6A3834;" cx="-27.1" cy="65.5" r="27.5"/>
	</g>
	<g>
		<defs>
			<rect id="SVGID_00000026878991257360267950000004776980752857020856_" x="0" y="0" width="272.4" height="292.5"/>
		</defs>
		<clipPath id="SVGID_00000096774503612674488720000001179924286309090997_">
			<use xlink:href="#SVGID_00000026878991257360267950000004776980752857020856_"  style="overflow:visible;"/>
		</clipPath>
		<path style="clip-path:url(#SVGID_00000096774503612674488720000001179924286309090997_);fill:#D0F4A5;" d="M-20.8,54.5
			c0-2.2-0.8-6-5.5-6c-6.2,0-6.9,6.1-6.9,13.4v8c0,5.9,0.6,11.8,5.6,11.8c7.1,0,7.4-6,7.4-11.3c0-6.8-2.4-9.2-6.3-9.2
			c-0.9,0-1.9,0.1-3,0.6V61c0-2,0.3-9.6,3.2-10c0,0,1.9,0.3,1.9,3.6v0.8c0,0,1.3,1.2,2.3,1.2C-20.9,56.5-20.8,55.2-20.8,54.5z
			 M-26.7,64c2.6,0.2,2.6,3.4,2.6,7.8c0,2-0.3,7.3-2.9,7.3c-1.7,0-2.7-4.2-2.7-11.2c0-0.8,0-1.7,0-2.7C-28.7,64.6-27.8,64-26.7,64z"
			/>
	</g>
	<g>
		<defs>
			<rect id="SVGID_00000020367536864623075430000014967374581706536346_" x="0" y="0" width="272.4" height="292.5"/>
		</defs>
		<clipPath id="SVGID_00000075863209616986168770000015220572628236929680_">
			<use xlink:href="#SVGID_00000020367536864623075430000014967374581706536346_"  style="overflow:visible;"/>
		</clipPath>
		
			<circle style="clip-path:url(#SVGID_00000075863209616986168770000015220572628236929680_);fill:#6A3834;" cx="462.9" cy="65.5" r="27.5"/>
	</g>
	<g>
		<defs>
			<rect id="SVGID_00000132808447937966066430000012923796836160474766_" x="0" y="0" width="272.4" height="292.5"/>
		</defs>
		<clipPath id="SVGID_00000164476891270904285090000013857511203921987515_">
			<use xlink:href="#SVGID_00000132808447937966066430000012923796836160474766_"  style="overflow:visible;"/>
		</clipPath>
		<path style="clip-path:url(#SVGID_00000164476891270904285090000013857511203921987515_);fill:#D0F4A5;" d="M463.9,48.6
			c-4.1,0-6.7,2.6-6.7,8c0,3.6,0.8,5.8,2.3,7c-2,1.6-2.8,4.4-2.8,7.4c0,5.6,0.6,10.9,5.9,10.9c7.2,0,7.2-6.1,7.2-11.8
			c0-2.6-0.9-5-2.5-6.5c1.7-1.1,2.4-3.4,2.4-7.2C469.8,51.9,468.1,48.6,463.9,48.6z M466.1,56v1.5c-0.1,1.3-0.6,4.6-2.6,4.6
			c-1.4,0-2.4-1.5-2.4-5.9c0-3.8,1.2-5,2.8-5C465.8,51.2,466.1,53.9,466.1,56z M463,79.2c-2.2,0-2.4-4.8-2.4-8.8
			c0-4.2,1.3-5.5,2.8-5.5c2.3,0,2.7,3.6,2.7,6C466.2,76.6,465.1,79.2,463,79.2z"/>
	</g>
	<g>
		<defs>
			<rect id="SVGID_00000020390405882942301860000000250499232642841770_" x="0" y="0" width="272.4" height="292.5"/>
		</defs>
		<clipPath id="SVGID_00000019644770698905572270000002613817357741390775_">
			<use xlink:href="#SVGID_00000020390405882942301860000000250499232642841770_"  style="overflow:visible;"/>
		</clipPath>
		
			<circle style="clip-path:url(#SVGID_00000019644770698905572270000002613817357741390775_);fill:#6A3834;" cx="-762.1" cy="248.5" r="27.5"/>
	</g>
	<g>
		<defs>
			<rect id="SVGID_00000097467586402002329820000007815449194845042876_" x="0" y="0" width="272.4" height="292.5"/>
		</defs>
		<clipPath id="SVGID_00000126288533381676059250000015457624537504136619_">
			<use xlink:href="#SVGID_00000097467586402002329820000007815449194845042876_"  style="overflow:visible;"/>
		</clipPath>
		<path style="clip-path:url(#SVGID_00000126288533381676059250000015457624537504136619_);fill:#D0F4A5;" d="M-767.3,238.5
			c0.2,0.3,0.5,0.4,0.9,0.4c0.6,0,2.3-0.6,2.3-1.5c0-1.2,0.4-3.5,2-3.5c1.3,0,1.8,2.1,1.8,3.9c0,5.3-1.4,6.2-2.2,6.7
			c-0.2,0-0.5,0-0.8,0c-1,0-1.9,0-1.9,1.6c0,0.9,0.3,1.4,1.3,1.4c3.3,0,4,3.1,4,6.1v0.9c0,3.2-0.5,7.8-2.8,7.8
			c-1.8,0-1.8-1.7-1.8-3.2c0-1.2,0-2.4-0.7-2.9c-0.3-0.3-0.7-0.4-1.1-0.4c-1.2,0-2.1,1.1-2.1,1.1c0,6.2,1.5,8.1,5.9,8.1
			c5.4,0,6.5-4.8,6.5-12.5c0-4.4-1.9-6-3.2-6.6c1.8-1.2,2.6-4.3,2.6-7.2c0-3.4-0.7-7.6-5.1-7.6c-4.7,0-5.7,3.5-5.7,5.5
			C-767.5,237.6-767.3,238.3-767.3,238.5z"/>
	</g>
	<g>
		<defs>
			<rect id="SVGID_00000079478003891059559890000014050775756134790571_" x="0" y="0" width="272.4" height="292.5"/>
		</defs>
		<clipPath id="SVGID_00000174572306868457587320000012033847653818089399_">
			<use xlink:href="#SVGID_00000079478003891059559890000014050775756134790571_"  style="overflow:visible;"/>
		</clipPath>
		
			<circle style="clip-path:url(#SVGID_00000174572306868457587320000012033847653818089399_);fill:#6A3834;" cx="-272.1" cy="248.5" r="27.5"/>
	</g>
	<g>
		<defs>
			<rect id="SVGID_00000137128325414733082840000005497542653549162938_" x="0" y="0" width="272.4" height="292.5"/>
		</defs>
		<clipPath id="SVGID_00000109743945524321714010000004946099242757169599_">
			<use xlink:href="#SVGID_00000137128325414733082840000005497542653549162938_"  style="overflow:visible;"/>
		</clipPath>
		<path style="clip-path:url(#SVGID_00000109743945524321714010000004946099242757169599_);fill:#D0F4A5;" d="M-275.2,245.3h0.9
			c4.6,0,4.9,1.7,4.9,7.1v2.9c0,3.6-0.2,6.9-2.8,6.9c-2.1,0-2.6-1.9-2.6-3.6c0-2.6,0-3-1.6-3c-1.5,0-1.8,1.5-1.8,1.5
			c0.1,4.3,0.7,7.9,5.8,7.9c6.4,0,6.6-4.8,6.6-13.9c0-6.6-2.9-7.7-3.8-8.2c-1.1-0.5-2.4-0.8-3.3-0.8h-0.8v-6.9
			c0,0.1,1.7,0.1,3.7,0.1h1.8c0.6,0,1.5-0.8,1.5-1.7c0-1.8-2.7-1.7-3.8-1.7c-3,0-5.4,0.1-6,0.4c-0.6,0.3-0.6,1.5-0.6,1.5l0.1,9.7
			C-276.7,245.2-275.9,245.3-275.2,245.3z"/>
	</g>
	<g>
		<defs>
			<rect id="SVGID_00000175322773685358609990000005884154394632124346_" x="0" y="0" width="272.4" height="292.5"/>
		</defs>
		<clipPath id="SVGID_00000164498530255198604390000001264401984281305274_">
			<use xlink:href="#SVGID_00000175322773685358609990000005884154394632124346_"  style="overflow:visible;"/>
		</clipPath>
		
			<circle style="clip-path:url(#SVGID_00000164498530255198604390000001264401984281305274_);fill:#6A3834;" cx="217.9" cy="248.5" r="27.5"/>
	</g>
	<g>
		<defs>
			<rect id="SVGID_00000033327981206751914530000001539193064481705876_" x="0" y="0" width="272.4" height="292.5"/>
		</defs>
		<clipPath id="SVGID_00000183954224495116788640000005387682288206184105_">
			<use xlink:href="#SVGID_00000033327981206751914530000001539193064481705876_"  style="overflow:visible;"/>
		</clipPath>
		<path style="clip-path:url(#SVGID_00000183954224495116788640000005387682288206184105_);fill:#D0F4A5;" d="M213.6,232.2l-0.3,0.2
			c0,0-0.7,0.9-0.7,1.8c0,0.6,0.4,1.2,1.3,1.3c0.4,0.1,1.2,0.1,2.2,0.1c2.5,0,4.1,0,4.8,0l-7.2,27.5c-0.1,0.3-0.1,0.6-0.1,0.7
			c0,0.8,0.5,1.1,1.6,1.1c0.9,0,1.8-0.1,2.3-1.3l7.2-29.3c0,0-0.4-2.1-2.1-2.1c-0.7,0-1.3,0-2,0L213.6,232.2L213.6,232.2z"/>
	</g>
	<g>
		<defs>
			<rect id="SVGID_00000067217523045809867240000016656987446764907957_" x="0" y="0" width="272.4" height="292.5"/>
		</defs>
		<clipPath id="SVGID_00000142142077562834219440000015805482371073363111_">
			<use xlink:href="#SVGID_00000067217523045809867240000016656987446764907957_"  style="overflow:visible;"/>
		</clipPath>
		
			<circle style="clip-path:url(#SVGID_00000142142077562834219440000015805482371073363111_);fill:#6A3834;" cx="707.9" cy="248.5" r="27.5"/>
	</g>
	<g>
		<defs>
			<rect id="SVGID_00000140703407140426758440000011105891907907892352_" x="0" y="0" width="272.4" height="292.5"/>
		</defs>
		<clipPath id="SVGID_00000031199930025391818110000010733880510075010453_">
			<use xlink:href="#SVGID_00000140703407140426758440000011105891907907892352_"  style="overflow:visible;"/>
		</clipPath>
		<path style="clip-path:url(#SVGID_00000031199930025391818110000010733880510075010453_);fill:#D0F4A5;" d="M702.3,258.8
			c0,2.2,0.7,5.9,5.6,5.9c6.1,0,6.8-6.1,6.8-13.4v-8c0-5.9-0.6-11.8-5.6-11.8c-7.1,0-7.4,6-7.4,11.3c0,6.7,2.4,9.2,6.3,9.2
			c0.9,0,1.9-0.1,2.9-0.6v0.8c0,2,0,10-3,10c-0.3,0-2.1,0-2.1-3.6v-0.8c0,0-1.3-1.2-2.2-1.2C702.4,256.7,702.3,258.1,702.3,258.8z
			 M708.2,249.3c-2.6,0-2.7-3.4-2.7-7.8c0-2,0.3-7.3,2.9-7.3c1.7,0,2.6,4.2,2.6,11.2c0,0.9,0,1.7,0,2.7
			C710.3,248.8,709.3,249.3,708.2,249.3z"/>
	</g>
</g>
</svg>
