<?xml version="1.0" encoding="utf-8"?>
<!-- Generator: Adobe Illustrator 26.0.3, SVG Export Plug-In . SVG Version: 6.00 Build 0)  -->
<svg version="1.1" id="Layer_1" xmlns="http://www.w3.org/2000/svg" xmlns:xlink="http://www.w3.org/1999/xlink" x="0px" y="0px"
	 viewBox="0 0 272.4 292.5" style="enable-background:new 0 0 272.4 292.5;" xml:space="preserve">
<style type="text/css">
	.st0{clip-path:url(#SVGID_00000005972377928208063850000016406970881485035939_);fill:none;stroke:#6A3834;stroke-width:2.5;}
	.st1{clip-path:url(#SVGID_00000103950383495223667950000018265560687809005227_);fill:none;stroke:#6A3834;stroke-width:2.5;}
	.st2{clip-path:url(#SVGID_00000139977495057848503700000016863619158632290495_);fill:none;stroke:#6A3834;stroke-width:2.5;}
	.st3{clip-path:url(#SVGID_00000056425107465406384880000002240107886776516740_);fill:none;stroke:#6A3834;stroke-width:2.5;}
	.st4{clip-path:url(#SVGID_00000133517792173977037110000007751084861875177367_);fill:none;stroke:#6A3834;stroke-width:2.5;}
	.st5{clip-path:url(#SVGID_00000011753960710208933100000014686012475987837859_);fill:none;stroke:#6A3834;stroke-width:2.5;}
	.st6{clip-path:url(#SVGID_00000140723989119040595970000000140115304611318966_);fill:none;stroke:#6A3834;stroke-width:2.5;}
	.st7{clip-path:url(#SVGID_00000074415475921679956050000010844912251373462713_);fill:none;stroke:#6A3834;stroke-width:2.5;}
	.st8{clip-path:url(#SVGID_00000078017700593934468680000015972689956489798585_);fill:#6A3834;}
	.st9{clip-path:url(#SVGID_00000054957186504146042070000002417865304239520933_);fill:#6A3834;}
	.st10{clip-path:url(#SVGID_00000098925400810013545480000005163523088084737453_);fill:#6A3834;}
	.st11{clip-path:url(#SVGID_00000160166633459269052250000003766090636759702408_);fill:#6A3834;}
	.st12{clip-path:url(#SVGID_00000129910303281316859610000016993805343130180519_);fill:#6A3834;}
	.st13{clip-path:url(#SVGID_00000058553114139191052780000016680896587307665552_);fill:#6A3834;}
	.st14{clip-path:url(#SVGID_00000088851915997790386240000017374013357335607961_);fill:#6A3834;}
	.st15{clip-path:url(#SVGID_00000169527154656504201050000015060165045047584170_);fill:#6A3834;}
	.st16{clip-path:url(#SVGID_00000010994556819525989100000010220263696324503983_);fill:#6A3834;}
	.st17{clip-path:url(#SVGID_00000017499636487327065350000017740226715261523617_);fill:#6A3834;}
	.st18{clip-path:url(#SVGID_00000126297237664033017420000014910357568692960176_);fill:#D0F4A5;}
	.st19{clip-path:url(#SVGID_00000099663815597044632370000011881636598331271850_);fill:#6A3834;}
	.st20{clip-path:url(#SVGID_00000160158281920886831440000000947521524290801304_);fill:#D0F4A5;}
	.st21{clip-path:url(#SVGID_00000088824671983759322150000007028425783714683295_);fill:#6A3834;}
	.st22{clip-path:url(#SVGID_00000118393440775019410630000000702766341999494555_);fill:#D0F4A5;}
	.st23{clip-path:url(#SVGID_00000002371182350453685620000001725112949744575887_);fill:#6A3834;}
	.st24{clip-path:url(#SVGID_00000109004193621671352340000009264810690961613742_);fill:#D0F4A5;}
	.st25{clip-path:url(#SVGID_00000125562798687492970710000009875216337105179013_);fill:#6A3834;}
	.st26{clip-path:url(#SVGID_00000003819804741267000300000009800024562182802339_);fill:#D0F4A5;}
	.st27{clip-path:url(#SVGID_00000073683178874292837470000005242774605319861400_);fill:#6A3834;}
	.st28{clip-path:url(#SVGID_00000080900111258265134140000018412927054859951007_);fill:#D0F4A5;}
	.st29{clip-path:url(#SVGID_00000048496785784113548840000015580488047545061505_);fill:#6A3834;}
	.st30{clip-path:url(#SVGID_00000180356990471403928040000016842120790249442486_);fill:#D0F4A5;}
	.st31{clip-path:url(#SVGID_00000021817940439154418970000000440645164935651214_);fill:#6A3834;}
	.st32{clip-path:url(#SVGID_00000054258234968081655460000006203778145128826528_);fill:#D0F4A5;}
	.st33{clip-path:url(#SVGID_00000072242552174823696560000014030821754910996352_);fill:#6A3834;}
	.st34{clip-path:url(#SVGID_00000103979117172288062150000014597652970932371595_);fill:#D0F4A5;}
</style>
<g>
	<g>
		<defs>
			<rect id="SVGID_1_" width="272.4" height="292.5"/>
		</defs>
		<clipPath id="SVGID_00000013900379658006849030000007689597922724099003_">
			<use xlink:href="#SVGID_1_"  style="overflow:visible;"/>
		</clipPath>
	</g>
	<g>
		<defs>
			<rect id="SVGID_00000111912956856627486990000006384803952560737935_" width="272.4" height="292.5"/>
		</defs>
		<clipPath id="SVGID_00000082356752320306494060000005456347606045973901_">
			<use xlink:href="#SVGID_00000111912956856627486990000006384803952560737935_"  style="overflow:visible;"/>
		</clipPath>
		
			<path style="clip-path:url(#SVGID_00000082356752320306494060000005456347606045973901_);fill:none;stroke:#6A3834;stroke-width:2.5;" d="
			M137.2,250c110.8,0,85.5-184,190-184"/>
	</g>
	<g>
		<defs>
			<rect id="SVGID_00000016789285368946727620000009882043206975194532_" width="272.4" height="292.5"/>
		</defs>
		<clipPath id="SVGID_00000093166198683417946000000017248026778871496870_">
			<use xlink:href="#SVGID_00000016789285368946727620000009882043206975194532_"  style="overflow:visible;"/>
		</clipPath>
		
			<path style="clip-path:url(#SVGID_00000093166198683417946000000017248026778871496870_);fill:none;stroke:#6A3834;stroke-width:2.5;" d="
			M627.2,250c110.8,0,85.5-184,190-184"/>
	</g>
	<g>
		<defs>
			<rect id="SVGID_00000000926357905090403800000006107807913430621598_" width="272.4" height="292.5"/>
		</defs>
		<clipPath id="SVGID_00000076590291342151978490000017185833406637893812_">
			<use xlink:href="#SVGID_00000000926357905090403800000006107807913430621598_"  style="overflow:visible;"/>
		</clipPath>
		
			<path style="clip-path:url(#SVGID_00000076590291342151978490000017185833406637893812_);fill:none;stroke:#6A3834;stroke-width:2.5;" d="
			M1117.2,250c110.8,0,85.5-184,190-184"/>
	</g>
	<g>
		<defs>
			<rect id="SVGID_00000034800666775544730190000012939181730574849442_" width="272.4" height="292.5"/>
		</defs>
		<clipPath id="SVGID_00000083809881576086595630000009660913079050379937_">
			<use xlink:href="#SVGID_00000034800666775544730190000012939181730574849442_"  style="overflow:visible;"/>
		</clipPath>
		
			<path style="clip-path:url(#SVGID_00000083809881576086595630000009660913079050379937_);fill:none;stroke:#6A3834;stroke-width:2.5;" d="
			M1062.2,250c-110.8,0-85.5-184-190-184"/>
	</g>
	<g>
		<defs>
			<rect id="SVGID_00000083075715149331268170000001322556176920444032_" width="272.4" height="292.5"/>
		</defs>
		<clipPath id="SVGID_00000146496693627787630060000011877898634121792944_">
			<use xlink:href="#SVGID_00000083075715149331268170000001322556176920444032_"  style="overflow:visible;"/>
		</clipPath>
		
			<path style="clip-path:url(#SVGID_00000146496693627787630060000011877898634121792944_);fill:none;stroke:#6A3834;stroke-width:2.5;" d="
			M572.2,250c-110.8,0-85.5-184-190-184"/>
	</g>
	<g>
		<defs>
			<rect id="SVGID_00000093135622629669989360000003937602053365633460_" width="272.4" height="292.5"/>
		</defs>
		<clipPath id="SVGID_00000015337472220212932120000015910840497622686364_">
			<use xlink:href="#SVGID_00000093135622629669989360000003937602053365633460_"  style="overflow:visible;"/>
		</clipPath>
		
			<path style="clip-path:url(#SVGID_00000015337472220212932120000015910840497622686364_);fill:none;stroke:#6A3834;stroke-width:2.5;" d="
			M1607.2,250c110.8,0,85.5-184,190-184"/>
	</g>
	<g>
		<defs>
			<rect id="SVGID_00000090273715572333394650000014591092354089043613_" width="272.4" height="292.5"/>
		</defs>
		<clipPath id="SVGID_00000047770745129250480390000016313670157926891172_">
			<use xlink:href="#SVGID_00000090273715572333394650000014591092354089043613_"  style="overflow:visible;"/>
		</clipPath>
		
			<path style="clip-path:url(#SVGID_00000047770745129250480390000016313670157926891172_);fill:none;stroke:#6A3834;stroke-width:2.5;" d="
			M2042.2,250c-110.8,0-85.5-184-190-184"/>
	</g>
	<g>
		<defs>
			<rect id="SVGID_00000176737660168293500510000016496596150555097232_" width="272.4" height="292.5"/>
		</defs>
		<clipPath id="SVGID_00000034074149636492782750000003184855075542451608_">
			<use xlink:href="#SVGID_00000176737660168293500510000016496596150555097232_"  style="overflow:visible;"/>
		</clipPath>
		
			<path style="clip-path:url(#SVGID_00000034074149636492782750000003184855075542451608_);fill:none;stroke:#6A3834;stroke-width:2.5;" d="
			M1552.2,250c-110.8,0-85.5-184-190-184"/>
	</g>
	<g>
		<defs>
			<rect id="SVGID_00000140012092022613822810000009791718751334845858_" width="272.4" height="292.5"/>
		</defs>
		<clipPath id="SVGID_00000183936930645521367000000008875142296823401891_">
			<use xlink:href="#SVGID_00000140012092022613822810000009791718751334845858_"  style="overflow:visible;"/>
		</clipPath>
		<path style="clip-path:url(#SVGID_00000183936930645521367000000008875142296823401891_);fill:#6A3834;" d="M157.6,103.1
			c0.3,4.7,2.3,8.6,5.6,11.8c2.3,2.2,5.1,4,7.7,6c0.4,0.3,0.9,0.4,1.4,0.4c4.8-0.1,9.5-0.8,13.8-3c6.9-3.4,10.3-9.2,11.3-16.5
			c0.2-1.3,0.3-2.6,0.3-4c0-1,0.4-1.4,1.3-1.8c0.7-0.2,1.3-0.7,1.7-1.3c0.5-0.9,0-1.8-0.7-2.5c-4-4.3-8.5-7.9-14-10.2
			c-0.2-0.1-0.4-0.2-0.5-0.3c0.3-1.1,0.9-2.1,1.6-3c0.8-0.9,1.7-1.6,2.7-2.1c2-0.9,4-1.6,6.1-2.3c1.4-0.5,2-1.2,1.8-2.4
			c-0.3-1.1-1.3-1.6-2.7-1.2c-2,0.5-3.9,1.2-5.8,2c-3.7,1.7-5.4,3.5-7.4,7.8c-2.2-0.3-4.5-0.8-6.7-0.8c-3.5-0.1-6.9,0-10.4,0
			c-1.8,0.1-2.7,1.4-1.8,2.9c1.3,2.2,0.8,3.7-0.6,5.7C159.3,92.7,157.3,97.5,157.6,103.1z M195.8,93.4c-2.8,0.9-5.4,0.8-7.8-1.3
			c-0.5-0.5-1.6-0.8-2.1-0.6c-0.6,0.2-0.9,1.2-1.3,1.9c-0.1,0.3-0.1,0.6-0.1,0.9c-0.5,3.9-3.4,7.3-6.9,8c-2.1-3.6-3.1-7.2-1-11.2
			c0.2-0.3,0.3-0.6,0.4-1c0.1-0.2,0.1-0.5,0.1-0.8s-0.1-0.5-0.3-0.7c-0.1-0.2-0.3-0.4-0.6-0.5c-0.2-0.1-0.5-0.2-0.7-0.2
			c-0.7-0.1-1.4-0.1-2.2-0.2c-2.7-0.4-4.5-1.9-5.8-4.3C176.7,81.6,191.5,86.8,195.8,93.4z M166.7,88.8c0.8,0.6,1.7,1.1,2.6,1.6
			c0.9,0.5,1.9,0.7,3,1.1c-1.6,5.6,0.3,10,2.8,14c0.5,0.9,1.3,1.2,2.3,0.9c4.9-1.5,8.6-4.3,10.2-9.4c0-0.2,0.2-0.3,0.1-0.2l6.5,1.1
			c-0.1,0.9-0.2,2-0.3,3.1c-0.9,7.9-5.3,13.1-13,15.3c-1.1,0.3-2.4,0.5-3.5,0.8c-3.4,1-6.4,0.2-8.9-2.3c-0.5-0.5-1.1-0.9-1.7-1.4
			C159.5,106.5,159.4,95.8,166.7,88.8L166.7,88.8z M213.7,122.4c-1.3-6.6-9.4-9.4-14.7-4.6c-2.7,2.5-5.6,4.8-8.5,7.1l-8.9,7.5
			c-2.5-3.2-5.8-3.9-9.5-3.9c-6.5,0.1-13,0.1-19.5,0c-1,0-2-0.4-2.8-0.9c-2.6-1.8-5.4-3.1-8.5-3.3c-11.3-0.8-21.1,2.7-29,10.8
			c-3.4,3.4-6.3,7.4-9.4,11.1c-0.5,0.6-0.9,0.9-1.7,0.7c-1.7-0.3-3.2,0.4-4.4,1.7c-0.8,0.9-1.6,1.8-2.5,2.6
			c-0.3,0.3-0.7,0.5-1.2,0.5c-0.8-0.1-1.6,0-2.4,0.2c-0.8,0.3-1.5,0.7-2,1.3c-1.6,1.6-3.1,3.2-4.7,4.7c-0.6,0.5-1,1.2-1.3,1.9
			s-0.4,1.5-0.4,2.2c0,6.9,0,13.8,0,20.7c0,3.4,1.7,5,5.1,5c9.3,0,18.6,0,27.9,0c3.8,0,6-2.3,8.1-4.9c0.3-0.4,0.4-0.8,0.5-1.2
			s0.1-0.9,0-1.3c-0.4-1.7,0.3-2.7,1.4-3.7c0.5-0.4,0.9-0.9,1.3-1.4c0.5-0.6,0.9-1.3,1.1-2.1s0.2-1.6,0-2.4
			c-0.2-0.8,0.1-1.2,0.5-1.7c1.9-1.9,3.9-3.8,5.7-5.7c1.3-1.4,2.7-1.9,4.6-1.9c12.3,0,24.6,0,36.9,0c3.7,0,6.7-1.2,9.3-3.9
			c8.2-8.5,16.5-16.9,24.9-25.3c2-2,3.7-4,4.4-6.8v-2.8C213.8,122.6,213.7,122.5,213.7,122.4z M118.7,181.6
			c-1.3,1.4-2.9,1.9-4.8,1.8c-8.6-0.1-17.1,0-25.7,0h-1.6v-4c0-5.6,0-11.2,0-16.8c0-0.7,0.3-1.3,0.8-1.9c1.3-1.4,2.7-2.7,4-4
			c0.7-0.7,1.1-0.8,1.9-0.1c8.5,7.6,16.9,15.2,25.4,22.8C119.8,180.3,119.7,180.5,118.7,181.6z M122.7,172.9
			c-0.7,0.7-1.3,1.4-2.1,2.2l-23.2-20.8c0.9-1,1.7-1.9,2.6-2.8c0.6-0.7,1.1-0.1,1.5,0.3l11.9,10.7c3.1,2.7,6.1,5.5,9.2,8.2
			C123.5,171.5,123.5,172.1,122.7,172.9z M207.9,127.6c-4,4-7.9,8.1-11.9,12.1c-4.9,4.9-9.8,9.9-14.6,14.9c-0.7,0.8-1.6,1.4-2.7,1.9
			c-1,0.4-2.1,0.6-3.2,0.6c-12.3,0-24.7,0-37,0c-3.2,0-5.7,1-7.9,3.3c-2,2.1-4.1,4.1-6.2,6.3l-18.9-17c5.5-6.5,10.1-13.8,18.2-17.7
			c5.4-2.6,11-3.8,16.9-3.3c2.3,0.2,4.5,1,6.4,2.5c1.7,1.3,3.5,1.8,5.6,1.8c6.9,0,13.7,0,20.6,0c0.7,0,1.5,0,2.2,0.2
			c1,0.3,1.9,0.9,2.5,1.7c0.6,0.9,0.9,1.9,0.8,3c-0.2,2.2-2,3.8-4.4,3.9c-3.8,0.1-7.6,0-11.4,0c-4.1,0-8.1,0-12.2,0
			c-1.6,0-2.6,0.8-2.6,2.2c0,1.3,1,2.2,2.6,2.2c7.9,0,15.8,0,23.7,0c4.8,0,8.4-3.4,8.8-8.2c0-0.4,0.1-0.8,0.3-1.1
			c0.2-0.4,0.4-0.7,0.8-0.9c6-5,11.9-10,18-15c2.8-2.3,6.6-1,7.3,2.5C209.7,125,209.1,126.4,207.9,127.6z M107.9,108.9
			c5.8,3.8,12.2,6.1,19.2,5.9c6.6-0.1,12-4,13.9-9.9c0.2-0.6,0.4-1.3,0.6-1.9v-3.4c-1.3-5.8-5.3-9-10.5-11.2c-1-0.4-2-0.9-3-1.2
			c-5-1.9-8.7-5.2-11.2-9.9c-1.1-2.1-2.4-4.1-3.9-6c-2.2-2.9-5.2-5-8.9-5.4c-6.3-0.7-12.3,3.8-13.9,10.3c-1,4-0.4,7.9,0.9,11.7
			C94.2,97.1,100.1,103.8,107.9,108.9L107.9,108.9z M110.9,81.2c0.1-1.3,0.6-2.5,0.9-3.7l0.6-0.1c3.3,7.6,9.1,12.3,17,14.7
			c-1.2,1.3-2.8,2-4.5,2.1C117.9,95,110.5,88.1,110.9,81.2L110.9,81.2z M94.4,77c1.1-3.8,4.5-6.7,8.1-6.9c3-0.2,5.2,1.5,7.2,3.5
			c-6.2,7.4-1.9,18,6,22.4c4.4,2.5,9,3.3,13.7,1.1c1.4-0.7,2.6-1.8,3.9-2.7c5.4,3.1,5.7,10,0.5,14c-2.9,2.3-6.4,2.8-9.9,2.2
			c-14.5-2.7-24.1-11.1-29.2-24.8C93.7,83,93.5,79.9,94.4,77L94.4,77z M132.9,70.4c3,5.2,7.8,8,13.6,9.1c7.4,1.3,13.9-1.1,19.7-5.6
			c5-3.8,8.6-8.7,9.9-15c0.3-1.5,0.4-3,0.6-4.6c-0.1-4.1-1.3-8-3.4-11.5c-4-6.3-12.9-6.4-17-0.1c-1.5,2.3-2.7,4.7-4,7
			c-0.5,1-1.3,1.9-2.2,2.6c-0.9,0.7-2,1.1-3.2,1.2c-2.2,0.3-4.5,0.8-6.7,1.2C132.7,56.1,129.1,63.9,132.9,70.4L132.9,70.4z
			 M155.8,50.9c1.3,2.9,0.2,5.8-2.4,7.4c-2.3,1.4-4.9,1-6.6-1C151,56.8,153.9,54.6,155.8,50.9L155.8,50.9z M139.5,58.7
			c0.7-0.3,1.5-0.3,2.2-0.5s1.1,0,1.5,0.6c2.8,4.1,8.2,5.2,12.3,2.6c4.3-2.7,6-8.4,3.5-12.6c-1-1.6-0.7-2.7,0.2-3.9
			c0.1-0.2,0.2-0.4,0.3-0.5c2.7-3.7,8-3.6,10.5,0.3c1.8,2.7,2.7,5.9,2.8,9.1c0.1,5.7-2.1,10.4-6,14.4c-4.5,4.8-10.1,7.4-15.6,7.9
			c-6.4,0-12.2-2.9-14.8-7.1C133.8,65.1,135.3,60.2,139.5,58.7L139.5,58.7z"/>
	</g>
	<g>
		<defs>
			<rect id="SVGID_00000129922240077922676360000009454684138170811040_" width="272.4" height="292.5"/>
		</defs>
		<clipPath id="SVGID_00000025444446193063243690000013475879608174857612_">
			<use xlink:href="#SVGID_00000129922240077922676360000009454684138170811040_"  style="overflow:visible;"/>
		</clipPath>
		<path style="clip-path:url(#SVGID_00000025444446193063243690000013475879608174857612_);fill:#6A3834;" d="M331.9,150.5
			c0.4,0,0.8,0,1.1,0c2,0,3.1-1.1,2.5-2.6c-0.4-1-1.3-1.2-2.3-1.2c-1.1,0-2.2,0-2.7,1.2c-0.1,0.3-0.2,0.6-0.2,0.8s0.1,0.6,0.2,0.8
			c0.1,0.3,0.3,0.5,0.6,0.6C331.3,150.3,331.6,150.4,331.9,150.5z M333.4,264.6c-2.1,0-2.9,0.4-3,1.7c-0.1,1.4,0.8,2.1,2.7,2.1
			c1.8,0,2.7-0.7,2.7-2C335.6,265.3,334.8,264.6,333.4,264.6L333.4,264.6z M346.1,264.6c-0.6,0-1.2,0-1.8,0c-0.6,0-1.1,0-1.7,0
			c-1.1,0.1-1.8,0.7-1.9,1.7c-0.1,1.1,0.5,1.9,1.5,2c1.4,0.2,2.7,0.1,4.1,0c1-0.1,1.6-1,1.5-2.1
			C347.8,265.2,347.1,264.7,346.1,264.6L346.1,264.6z M367.2,150.5c0.6,0,1.1,0,1.7,0s1.2,0,1.8,0c0.2,0,0.5,0,0.7-0.1
			s0.4-0.2,0.6-0.4s0.3-0.4,0.4-0.6c0.1-0.2,0.1-0.5,0.1-0.7s0-0.5,0-0.7c-0.1-0.2-0.2-0.4-0.3-0.6c-0.2-0.2-0.3-0.3-0.6-0.4
			c-0.2-0.1-0.4-0.2-0.7-0.2c-1.3-0.1-2.6-0.1-4,0c-1.1,0.1-1.6,0.9-1.6,2C365.4,149.8,366.1,150.4,367.2,150.5z M354.9,150.5
			c0.6,0,1.1,0,1.7,0s1.2,0,1.8,0c1.1-0.1,1.8-0.7,1.8-1.8c0.1-1.1-0.5-1.9-1.6-2c-1.3-0.1-2.6-0.1-4,0c-0.2,0-0.5,0.1-0.7,0.2
			c-0.2,0.1-0.4,0.3-0.6,0.5s-0.3,0.4-0.3,0.6c-0.1,0.2-0.1,0.5,0,0.7C353.1,149.8,353.8,150.4,354.9,150.5L354.9,150.5z
			 M342.6,150.5c0.6,0,1.1,0,1.7,0s1.3,0,1.9,0c0.5,0,0.9-0.2,1.2-0.5c0.3-0.3,0.5-0.8,0.5-1.2c0.1-1.1-0.5-1.9-1.5-2
			c-1.3-0.1-2.6-0.1-4,0c-1.1,0.1-1.7,0.9-1.6,2C340.8,149.8,341.5,150.4,342.6,150.5L342.6,150.5z M403.7,179.3c0-0.4,0-0.9,0-1.3
			c0-0.4-0.2-0.8-0.5-1.1s-0.7-0.5-1.2-0.5c-1-0.1-1.8,0.4-2,1.4c-0.1,0.5-0.1,1.1-0.1,1.7c0,29.4,0,58.9,0,88.3v1.6H383v-9.3h1.6
			c1.5,0,2.9,0,4.4,0c1.1-0.1,1.7-0.8,1.7-1.9c0-0.5-0.1-0.9-0.4-1.3c-0.3-0.3-0.7-0.6-1.2-0.6c-0.5-0.1-0.9-0.1-1.4-0.1
			c-1.5,0-3.1,0-4.7,0V252c0.1-0.1,0.2-0.1,0.3-0.1c0.9,0,1.7,0,2.6,0c1.4,0,2.3-0.8,2.2-1.9c0-1.1-0.9-1.9-2.3-1.9
			c-0.9,0-1.9,0-2.8,0v-4.7c1.8,0,3.5,0,5.2,0c1.6,0,2.5-0.8,2.5-2s-0.9-1.9-2.4-1.9c-1.7,0-3.5,0-5.3,0V235c1,0,1.9,0,2.7,0
			c1.4,0,2.3-0.7,2.3-1.8s-0.9-2-2.3-2c-0.9,0-1.8,0-2.7,0v-4.7c2,0,3.9,0.1,5.7-0.1c0.4-0.1,0.7-0.2,1-0.5c0.3-0.2,0.5-0.5,0.7-0.9
			c0.2-0.5-0.2-1.5-0.6-2c-0.3-0.4-1.1-0.4-1.7-0.5c-1.7-0.1-3.5,0-5.2,0v-4.7h1.5c0.5,0,1,0,1.5,0c1.2-0.1,2-0.9,2.1-1.9
			c0-1.1-0.8-1.9-2.1-1.9c-1,0-1.9,0-3,0v-4.5c1.6,0,3.2,0,4.8,0c0.6,0,1.1,0,1.6-0.2c0.4-0.1,0.8-0.4,1-0.8
			c0.2-0.4,0.3-0.8,0.2-1.2c0-0.5-0.2-0.9-0.6-1.2c-0.3-0.3-0.8-0.5-1.3-0.4c-1.9,0-3.8,0-5.8,0v-4.8c1,0,1.9,0,2.9,0
			c1.4,0,2.3-0.8,2.3-1.9c0-1.1-0.9-1.9-2.3-1.9c-0.9,0-1.9,0-2.8,0v-4.5c1.8,0,3.6,0,5.3,0c1.5,0,2.4-0.8,2.4-2s-0.9-1.9-2.4-1.9
			c-1.7,0-3.5,0-5.3,0V184h1.5c0.5,0,1,0,1.5,0c1.3-0.1,2.1-0.9,2.1-2s-0.9-1.8-2.2-1.9c-1,0-1.9,0-2.9,0v-4.5c2,0,3.9,0.1,5.7-0.1
			c0.4-0.1,0.7-0.2,1-0.4s0.5-0.5,0.7-0.8c0.2-0.5,0.1-1.4-0.3-1.8c-0.4-0.4-1.2-0.7-1.8-0.7c-1.8-0.1-3.6,0-5.4,0v-4.7h1.5
			c0.5,0,0.9,0,1.4,0c1.3-0.1,2.2-0.9,2.2-2c-0.1-1.1-0.9-1.8-2.2-1.8c-1,0-1.9,0-2.9,0v-4.5c1.7,0,3.2,0,4.7,0c0.5,0,0.9,0,1.4-0.1
			s0.9-0.3,1.1-0.7c0.3-0.4,0.4-0.8,0.4-1.3s-0.2-0.9-0.6-1.2c-0.3-0.3-0.8-0.5-1.2-0.5c-1.9,0-3.8,0-5.8,0v-9.3h16.8v1.6
			c0,7.2,0,14.3,0,21.5c0,1.6,0.8,2.5,2,2.4c1.2,0,1.8-0.9,1.8-2.5c0-8.2,0-16.4,0-24.6c0-1.7-0.6-2.5-2.2-2.5c-6.7,0-13.5,0-20.2,0
			c-1.4,0-2.1,0.7-2.2,2.1c0,0.5,0,0.9,0,1.4c0.1,0.8-0.1,1.4-0.9,1.9c-0.2,0.2-0.4,0.4-0.5,0.6c-0.1,0.3-0.2,0.5-0.2,0.8
			s0.1,0.6,0.2,0.8s0.3,0.5,0.6,0.6c0.8,0.5,0.8,1.1,0.8,1.8c0,10.6,0,21.3,0,31.9v79.3c0,0.8,0.1,1.5-0.9,2.1c-0.9,0.6-1,2.2,0,2.7
			s0.9,1.4,0.9,2.2c-0.1,1.3,0,2.5,1.2,3.3h22.1c1.2-0.6,1.4-1.7,1.4-2.9C403.7,240.1,403.7,209.7,403.7,179.3L403.7,179.3z
			 M334.7,209.4c-0.4-0.2-0.8-0.4-1.2-0.4c-0.4,0-0.8,0.1-1.1,0.3s-0.6,0.5-0.8,0.8c-1.9,2.9-2.6,5.9-2.2,9.1c0.2,1.5,0.6,3,1,4.5
			c0.6,2.2,0.1,4-1.3,5.6c-0.5,0.6-1,1.2-1.5,1.8l-0.1,0.1l-0.5,0.6c-2.2,2.5-3.3,5.7-3.3,9c0,0.1,0,0.2,0,0.4c0,0.4,0,0.8,0.1,1.3
			c0.2,1.4,1.3,2.3,2.5,2.1c1.3-0.2,2.1-1.2,1.9-2.6c-0.3-3.1,0.6-5.8,2.8-8.1c0.3-0.3,0.7-0.8,1-1.1l0.3-0.4
			c1.4-1.6,2.8-3.6,2.7-5.9c-0.1-2.1-0.4-4.2-0.9-6.2c-0.7-2.9-0.3-5.4,1.2-7.7c0.2-0.3,0.3-0.6,0.4-0.9s0.1-0.6,0-0.9
			c-0.1-0.3-0.2-0.5-0.3-0.8C335.2,209.7,335,209.5,334.7,209.4L334.7,209.4z M358.3,264.6c-1.1,0-2.2,0-3.3,0c-0.5,0-1,0.2-1.3,0.5
			c-0.4,0.3-0.6,0.8-0.6,1.3c-0.1,1,0.7,1.9,1.9,2c0.5,0.1,1.1,0,1.7,0s1.2,0,1.8,0c0.5,0,1-0.2,1.3-0.6s0.5-0.9,0.5-1.3
			c0-0.2,0-0.5-0.1-0.7s-0.2-0.4-0.4-0.6c-0.2-0.2-0.4-0.3-0.6-0.4C358.8,264.6,358.5,264.6,358.3,264.6L358.3,264.6z M370.6,264.6
			c-0.6,0-1.1,0-1.7,0s-1.2,0-1.8,0c-1.1,0.1-1.7,0.7-1.9,1.7c0,0.2,0,0.5,0.1,0.7s0.2,0.5,0.3,0.7c0.2,0.2,0.4,0.3,0.6,0.5
			c0.2,0.1,0.5,0.2,0.7,0.2c1.3,0.1,2.6,0.1,3.8,0c0.2,0,0.5-0.1,0.7-0.2s0.4-0.3,0.6-0.4s0.3-0.4,0.3-0.6c0.1-0.2,0.1-0.5,0-0.7
			c0-0.2,0-0.5-0.1-0.7s-0.2-0.4-0.4-0.6c-0.2-0.2-0.4-0.3-0.6-0.4C371.1,264.6,370.9,264.6,370.6,264.6L370.6,264.6z M338.7,191.3
			c-2.4-0.9-2.3-3-2.3-3.7c0-0.6,0-1.1,0.1-1.7l0,0c0-1,0.1-2,0.1-3c-0.1-4.9-4.1-9.3-9-9.9c-1.3-0.2-2.4,0.6-2.6,1.8
			c-0.1,0.6,0,1.2,0.4,1.7c0.3,0.5,0.9,0.8,1.5,0.9c3.6,0.8,5.4,3,5.3,6.7c0,0.3,0,0.7,0,1v1.3H332c0,0.6,0,1.2,0,1.8
			c0.2,3.5,2.1,6.3,5,7.1c0.4,0.1,0.8,0.1,1.3,0c0.4-0.1,0.8-0.3,1.1-0.7c0.3-0.3,0.5-0.7,0.6-1.1c0.1-0.4,0-0.9-0.1-1.3
			c-0.1-0.2-0.2-0.4-0.4-0.6C339.2,191.5,338.9,191.4,338.7,191.3L338.7,191.3z M359,212.1c0.1-0.7,0.1-1.4,0.2-2.1v-7.5
			c-0.1-0.6-0.1-1.1-0.2-1.7v-0.1c-0.1-1.3-0.3-2.7-0.4-4.1c-1.4-11.5-4.8-20.9-10.4-28.6c-4-5.5-8.4-9.2-13.6-11.2
			c-1.3-0.5-2.6-0.8-3.9-1.1c-0.6-0.1-1.3-0.3-1.9-0.4l-0.5-0.1h-0.2H325h-0.1c-0.2,0.1-0.4,0.1-0.6,0.1c-8.5,1.3-14.4,6-17.7,14.1
			c-0.1,0.3-0.2,0.5-0.3,0.8l-0.2,0.5c-0.9,2.2-1.1,4.7-0.8,7c0.1,0.5,0.1,0.9,0.1,1.4c0.4,3.8,1.8,7.4,4.1,10.4
			c4.6,6.3,5.5,16.1,4.7,20.8c0,0.7-0.3,5.1-2,8.7c-0.7,1.7-1.5,3.2-2.4,4.8c-2.3,3.4-3.7,6.5-4.4,9.9v0.2
			c-0.1,2.7-0.4,8.9,2.7,13.9c0.3,0.4,0.6,0.8,0.9,1.2c0.1,0.1,0.2,0.2,0.2,0.3l0.1,0.1c5.8,8.4,17.1,11.5,26.9,7.3
			c6-2.5,10.7-7,14.6-13.7c4.1-7.2,6.6-15.5,7.8-26.1C358.7,215.2,358.9,213.6,359,212.1L359,212.1z M349.5,235.4
			c-2.6,6.3-5.8,10.8-9.9,14c-4,3.1-8.2,4.7-12.4,4.7c-2.1,0-4.1-0.4-6-1c-2.4-0.8-4.6-2.2-6.4-4s-3.2-4-4-6.5
			c-0.9-2.5-1.1-5.2-0.8-7.8c0.3-2.6,1.2-5.1,2.7-7.3c7.3-11.1,8.3-23.2,3.1-36c-0.7-1.7-1.7-3.3-2.8-4.9l-0.3-0.5
			c-1.5-2.3-2.4-4.9-2.7-7.6c-0.3-2.7,0.1-5.5,1.1-8s2.5-4.8,4.5-6.6s4.4-3.1,7.1-3.8c4.8-1.3,9.5-0.3,14.2,2.8
			c4.7,3.2,8.6,7.8,11.7,14.2c3.2,6.6,5.2,13.7,5.9,21.9c0.2,2.1,0.3,4.1,0.4,6.1v0.1c0,0.9,0.1,1.8,0.1,2.7v0.1
			C354.3,219.3,352.7,227.8,349.5,235.4L349.5,235.4z"/>
	</g>
	<g>
		<defs>
			<rect id="SVGID_00000169542706941580386900000004999497350194139277_" width="272.4" height="292.5"/>
		</defs>
		<clipPath id="SVGID_00000151521719287587146510000015619505374013207217_">
			<use xlink:href="#SVGID_00000169542706941580386900000004999497350194139277_"  style="overflow:visible;"/>
		</clipPath>
		<path style="clip-path:url(#SVGID_00000151521719287587146510000015619505374013207217_);fill:#6A3834;" d="M607.4,162.1
			c-2.5-0.2-4.9-1-7.1-2.3c-1.3-0.7-2.5-0.5-3.1,0.6s-0.2,2.2,1.1,3c2.7,1.6,5.6,2.5,8.7,2.7c1.7,0.1,2.6-0.5,2.7-1.8
			C609.9,163.1,609.1,162.2,607.4,162.1z M637.2,157.6c-0.8,0.5-1.4,0.7-1.8,1.2c-1.8,1.8-4,3.3-6.4,4.2c-1.4,0.5-2,1.6-1.5,2.8
			s1.6,1.6,2.9,1.1c3.1-1.1,5.8-2.9,8.1-5.3c0.6-0.7,1-1.5,0.5-2.3C638.5,158.6,637.8,158.1,637.2,157.6L637.2,157.6z M662.6,169.5
			h-18.7c2.5-2.7,5.1-5.4,7.3-8.2c2.5-3.2,2.9-6.9,1.2-10.7s-4.7-5.8-8.8-6.2c-3.9-0.3-7.1,1.3-9.4,4.4c-0.3,0.4-0.6,0.8-1,1.5
			c-0.1-1.3-0.1-2.4-0.2-3.5c-0.4-2.7-1.6-5.3-3.3-7.4c-4-5-9.6-8.4-15.9-9.8c-4.8-1.1-9.6-2.3-14.4-3.4c-1.8-0.4-3.1,0.5-2.8,2.3
			c1,6.1,2,12.2,3.1,18.2c0.3,1.8,1.2,3.5,1.9,5.6c-0.8-0.7-1.5-1.2-2.1-1.8c-3.5-3.1-7.4-3.9-11.7-2s-6.3,5.4-6.3,10
			c0,0.2,0,0.4,0,0.8l-4.4,0.4c0.9-2.8,1.8-5.6,2.5-8.4c0.3-1.3,0.3-2.7,0.4-4.1c0.1-1.9-0.8-2.6-2.7-2.5c-4,0.2-8,1.3-11.5,3.3
			c-0.1,0.1-0.3,0.2-0.5,0.2c-0.1,0-0.2,0-0.3,0c0.1-1.8,0.2-3.6,0.3-5.4c0.1-1.1-0.1-2.1-1.2-2.6c-1.1-0.5-2,0.1-2.7,0.8
			c-4,4.1-8,8.2-12,12.4c-4.2,4.3-5.7,9.4-4.3,15.3c0.1,0.2,0.1,0.4,0.2,0.8h-9.7c-1.8,0.1-2.3,0.7-2.3,2.6c0,3,0,5.9,0,8.9
			c0,1.2,0.3,2.1,1.3,2.7h9.3c0.8-0.7,1.5-1.4,1-2.6c-0.5-1.2-1.5-1.3-2.6-1.2c-1.7,0-3.3,0-5.2,0v-6.4H661v6.4H553.2
			c-0.4,0-0.9-0.1-1.3,0c-0.6,0.3-1.5,0.6-1.6,1.2c-0.2,0.6,0.2,1.4,0.4,2.1c0.1,0.2,0.3,0.4,0.5,0.5h113.6v-13.1
			c-0.3-0.3-0.6-0.6-1-0.8C663.5,169.6,663,169.5,662.6,169.5L662.6,169.5z M601.1,130.7c4.7,1.2,9.2,2.1,13.6,3.4
			c4.8,1.4,8.7,4.1,11.8,8c2,2.5,2.9,5.4,2.4,8.5c-0.7,3.8-1.7,6-5.4,6.6c-0.7,0.1-1.4,0-2-0.4c-2.3-1.6-5.1-2.3-7.9-1.9
			c-1.4,0.2-2.7,0.2-4.1,0.1c-0.3,0-0.6-0.1-0.8-0.2c-0.3-0.1-0.5-0.3-0.7-0.5c-1.2-1.7-2.3-3.5-3.2-5.4c-1.7-3.5-2-7.3-2.6-11.1
			C601.8,135.5,601.5,133.2,601.1,130.7z M564.7,154.1c0-0.3,0.2-0.5,0.4-0.7c3.1-2.5,6.8-4,10.7-4.5c-0.3,4.2-1.8,7.8-4.2,11.1
			c-0.1,0.1-0.3,0.2-0.5,0.2c-2.2,0.2-4.4,0.4-6.8,0.6C564.4,158.4,564.5,156.2,564.7,154.1L564.7,154.1z M572.4,169.2
			c-0.2,0.1-0.4,0.2-0.6,0.3h-21.7c-0.2-0.1-0.4-0.2-0.5-0.4s-0.2-0.4-0.3-0.6c-1.4-4.4-0.6-8.3,2.5-11.7c2-2.2,4.1-4.3,6.2-6.5
			c0.9-0.9,1.8-1.7,2.7-2.6c0,0.5,0,0.9,0,1.3c-0.3,4.5-0.6,9-0.8,13.5c-0.1,1.9,0.7,2.7,2.6,2.6c2.5-0.2,5-0.4,7.6-0.7l7.6-0.7
			C575.8,165.7,574.1,167.5,572.4,169.2L572.4,169.2z M577.9,169.5l5.5-5.1l6.4,5.1H577.9z M611.9,169.5h-12.3h-0.1
			c-4.2-1.6-8.1-3.7-11.6-6.5c-1-0.9-1.8-2.1-2.1-3.4c-0.3-1.3-0.2-2.7,0.3-3.9c0.5-1.3,1.4-2.3,2.5-3s2.5-1.1,3.8-1
			c1.8,0.1,3.2,0.9,4.5,2.1c4.9,4.4,10.6,6.1,17.1,5.2c0.8,0,1.6,0,2.4,0l0.2,0.3C613.2,161.8,611.6,165.2,611.9,169.5L611.9,169.5z
			 M635.7,169.5h-19.4c-0.7-3.8,1.6-7.2,5.2-7.7c6.9-0.9,12.2-4.4,15.9-10.3c0.5-0.7,1.1-1.4,1.8-1.9s1.5-0.9,2.4-1
			c0.9-0.2,1.7-0.2,2.6,0c0.9,0.2,1.7,0.5,2.4,1c3.1,2.1,3.7,6.2,1.4,9.3c-3,4.1-6.7,7.5-11,10.1
			C636.5,169.2,636.1,169.4,635.7,169.5L635.7,169.5z M576.9,106.4c0.2,0.1,0.5,0.1,0.7,0c0.2,0,0.5-0.1,0.7-0.3
			c0.2-0.1,0.4-0.3,0.5-0.5s0.2-0.4,0.3-0.7c0.2-0.9,0.4-1.8,0.6-2.7c0.2-1.2-0.8-2.2-2.4-2.2c-0.3,0.3-1,0.7-1.3,1.3
			c-0.3,1-0.6,2-0.6,3C575.3,105.4,575.8,106.1,576.9,106.4z M573.6,122.3c0.4,0.1,0.9,0.1,1.3-0.1c0.4-0.2,0.7-0.6,0.9-1
			c0.2-0.6,0.3-1.1,0.4-1.7c0.1-1.4-0.5-2.3-1.6-2.4c-0.5-0.1-1,0-1.4,0.3s-0.7,0.7-0.8,1.1c-0.2,0.6-0.3,1.2-0.4,1.9
			c-0.1,0.5,0.1,0.9,0.3,1.3C572.8,122,573.2,122.2,573.6,122.3L573.6,122.3z M579,97.9c1.3,0,2.2-1.4,2.2-3.4c0-0.5-0.2-1-0.6-1.4
			c-0.4-0.4-0.9-0.6-1.4-0.6c-1.3,0-2.2,1.4-2.2,3.4c0,0.3,0,0.5,0.1,0.7s0.2,0.5,0.4,0.6c0.2,0.2,0.4,0.3,0.6,0.4
			C578.5,97.9,578.8,97.9,579,97.9L579,97.9z M575.2,114.9c1.1,0.2,1.9-0.3,2.2-1.3c0.2-0.9,0.4-1.8,0.6-2.7
			c0.1-1.3-0.5-2.2-1.6-2.3c-0.5-0.1-1,0-1.4,0.3s-0.7,0.7-0.8,1.2c-0.2,0.9-0.4,1.7-0.5,2.6c-0.1,0.5,0,1,0.3,1.4
			C574.2,114.5,574.7,114.8,575.2,114.9L575.2,114.9z M616.8,145.7c1,1.4,1.8,2.9,2.8,4.3c0.4,0.5,0.9,0.9,1.4,1.3
			c1.9,0,3-1.5,2.4-2.7c-1.9-3.8-4.4-7.3-7.6-10.1c-0.8-0.8-2.1-0.6-2.8,0.3c-0.7,0.8-0.7,1.9,0.1,2.8
			C614.3,143,615.7,144.3,616.8,145.7L616.8,145.7z M623.4,117.1c-1.1,0.2-1.6,0.9-1.6,2.2c0.1,0.6,0.2,1.2,0.4,1.8
			c0.1,0.4,0.4,0.8,0.8,1c0.4,0.2,0.9,0.3,1.3,0.2c0.5-0.1,0.9-0.3,1.1-0.7c0.3-0.4,0.4-0.8,0.4-1.3c0-0.7-0.2-1.4-0.4-2
			c-0.1-0.4-0.4-0.8-0.8-1.1C624.3,117.1,623.9,117,623.4,117.1L623.4,117.1z M619.9,100.1c-1.1,0.2-1.7,1-1.5,2c0.1,1,0.3,2,0.6,3
			c0.1,0.2,0.1,0.4,0.3,0.6c0.1,0.2,0.3,0.3,0.5,0.5c0.2,0.1,0.4,0.2,0.6,0.2c0.2,0,0.5,0,0.7,0c1.1-0.2,1.6-0.9,1.6-2.2
			c-0.2-1-0.4-2-0.7-2.9c-0.1-0.2-0.2-0.4-0.3-0.6s-0.3-0.3-0.5-0.4s-0.4-0.2-0.6-0.2C620.4,100,620.1,100,619.9,100.1L619.9,100.1z
			 M623.8,110.1c-0.3-0.7-1.1-1.2-1.4-1.6c-1.6,0.1-2.4,0.9-2.3,2.1c0.1,1,0.3,2,0.6,3s1.1,1.5,2.2,1.3c0.5-0.1,0.9-0.4,1.2-0.8
			s0.4-0.9,0.3-1.4C624.3,111.8,624.2,110.9,623.8,110.1L623.8,110.1z M662.6,38c-5.2,0-10.4,0-15.6,0c-1.5,0-2.2,0.7-2.2,2.2
			c0,0.8,0,1.5,0,2.4h-1.5c-6.4,0-12.9,0-19.3,0c-0.5,0-0.9,0-1.4,0.1c-0.4,0.1-0.8,0.4-1,0.7c-0.2,0.4-0.3,0.8-0.3,1.2
			s0.2,0.8,0.5,1.2s0.7,0.5,1.1,0.6c0.4,0,0.9,0.1,1.3,0h20.5v12.8H608c-2,0-2.6,0.6-2.6,2.6c0,1.9,0,3.7,0,5.6h-12.8
			c0-4,0-8,0-11.9c0-5.5,3.6-9.1,9.1-9.1c4.1,0,8.1,0,12.2,0c1.4,0,2.3-0.8,2.2-1.9c0-1.1-0.9-1.9-2.2-1.9c-4.5,0-9-0.1-13.5,0
			c-6,0.2-10.9,4.6-11.5,10.6c-0.4,4.2-0.2,8.5-0.2,12.7c0,0.5,0,1,0,1.4c-0.1,0-0.3,0.1-0.4,0.1h-4.2c-1.9,0-2.6,0.6-2.6,2.5
			c0,5.2,0,10.4,0,15.6c0,1.8,0.7,2.4,2.4,2.4c10.1,0,20.1,0,30.2,0c1.7,0,2.4-0.7,2.4-2.4c0-5.2,0-10.4,0-15.6
			c0-1.9-0.7-2.5-2.6-2.5c-1.5,0-3.1,0-4.6,0v-4.3h35.5c0,0.7,0,1.3,0,1.8c0,2.2,0.6,2.7,2.7,2.7c4.8,0,9.7,0,14.5,0
			c1.2,0,2.1-0.3,2.7-1.3v-27C664.3,38.6,663.7,38,662.6,38L662.6,38z M612.6,71.6v12.6h-27.1V71.6H612.6z M660.9,63.9h-12.1v-22
			h12.1V63.9z M604.6,92.6c-1.4,0.1-1.9,1.3-1.7,3.3c0.2,1.4,1,2.2,2.1,2.1c1.2-0.1,1.8-1,1.7-2.4C606.7,93.5,605.9,92.5,604.6,92.6
			L604.6,92.6z M618.3,92.6c-0.5,0.1-0.9,0.3-1.1,0.7c-0.3,0.4-0.4,0.8-0.3,1.3c0.1,0.7,0.2,1.4,0.4,2c0.1,0.4,0.4,0.8,0.8,1.1
			c0.4,0.2,0.9,0.3,1.3,0.2c1.1-0.2,1.6-0.9,1.6-2.2c-0.1-0.6-0.2-1.3-0.5-1.9c-0.1-0.4-0.4-0.8-0.9-1
			C619.2,92.6,618.8,92.5,618.3,92.6L618.3,92.6z M589.8,110.2c-0.2,0.8-0.2,1.7-0.3,2.5c0,1.2,0.6,2.1,1.7,2.2
			c1.1,0.1,1.9-0.4,2.1-1.5c0.2-1,0.3-1.9,0.3-2.9c0-0.5-0.2-0.9-0.5-1.3c-0.3-0.3-0.8-0.6-1.2-0.6c-0.5,0-0.9,0.1-1.3,0.4
			C590.2,109.3,589.9,109.7,589.8,110.2L589.8,110.2z M590.6,102.2c-0.1,0.7-0.2,1.4-0.2,2.2c0,0.5,0.1,1,0.4,1.4
			c0.3,0.4,0.8,0.6,1.3,0.7c0.2,0,0.5,0,0.7-0.1s0.5-0.2,0.7-0.3c0.2-0.2,0.4-0.3,0.5-0.6c0.1-0.2,0.2-0.5,0.2-0.7
			c0.1-0.8,0.2-1.5,0.3-2.3c0-1.5-0.6-2.4-1.8-2.5C591.5,100,590.7,100.8,590.6,102.2L590.6,102.2z M588.8,120.6
			c0,0.2,0,0.5,0.1,0.7s0.2,0.4,0.4,0.6s0.4,0.3,0.6,0.4c0.2,0.1,0.5,0.1,0.7,0.1c1.1,0,1.8-0.6,2-1.6c0.1-0.5,0.1-1,0.2-1.7
			c0-0.5-0.1-0.9-0.4-1.3s-0.7-0.6-1.2-0.7c-0.2-0.1-0.4-0.1-0.7,0c-0.2,0-0.4,0.1-0.6,0.2c-0.2,0.1-0.4,0.3-0.5,0.4
			c-0.1,0.2-0.2,0.4-0.3,0.6C588.8,119,588.7,119.8,588.8,120.6L588.8,120.6z M595,96.3c0.1-0.3,0.1-0.6,0.1-0.9
			c0.1-1.8-0.6-2.8-1.8-2.8s-1.9,0.8-2.1,2.3c0,0.3-0.1,0.7-0.1,1c0,1.1,0.7,1.9,1.7,2.1C594,98.1,594.8,97.4,595,96.3L595,96.3z
			 M606.2,108.5c-0.2,0-0.5,0.1-0.7,0.2s-0.4,0.3-0.6,0.4c-0.2,0.2-0.3,0.4-0.4,0.6c-0.1,0.2-0.1,0.5-0.1,0.7c0,0.9,0.1,1.8,0.3,2.7
			c0,0.5,0.3,1,0.7,1.3s0.9,0.5,1.4,0.5c1.1-0.1,1.8-0.9,1.8-2.2c-0.1-0.8-0.1-1.7-0.3-2.6c-0.1-0.5-0.3-0.9-0.7-1.2
			C607.2,108.6,606.7,108.5,606.2,108.5L606.2,108.5z M607,117c-1.1,0.1-1.7,0.8-1.7,1.9c0,0.6,0.1,1.1,0.2,1.7
			c0.2,1.2,1,1.9,2.1,1.8c1-0.1,1.7-0.9,1.7-2.2c0-0.5-0.1-1.1-0.2-1.6C608.8,117.5,608.1,116.9,607,117L607,117z M605.7,100.1
			c-1.3-0.2-2.2,0.9-2.1,2.7c0.1,0.8,0.2,1.5,0.3,2.3c0.1,0.3,0.2,0.5,0.3,0.7c0.2,0.2,0.4,0.4,0.6,0.5c0.2,0.1,0.5,0.2,0.8,0.2
			s0.5,0,0.8-0.1c2-0.9,1.1-2.6,1-4.1C607.4,101.1,606.9,100.3,605.7,100.1L605.7,100.1z"/>
	</g>
	<g>
		<defs>
			<rect id="SVGID_00000158019775016444778160000006864993924461033606_" width="272.4" height="292.5"/>
		</defs>
		<clipPath id="SVGID_00000022522104972267675970000004256873379478726324_">
			<use xlink:href="#SVGID_00000158019775016444778160000006864993924461033606_"  style="overflow:visible;"/>
		</clipPath>
		<path style="clip-path:url(#SVGID_00000022522104972267675970000004256873379478726324_);fill:#6A3834;" d="M818.1,260.4
			c-1.1,0-1.9,0.9-1.9,2.3c0,1.5,0,2.9,0,4.4s0,2.8,0,4.2c0,1.4,0.8,2.2,2,2.2c1.1,0,1.8-0.8,1.9-2.2c0-2.9,0-5.7,0-8.6
			C820,261.2,819.2,260.4,818.1,260.4z M870,156.3c1.1,0,1.8-0.6,1.9-1.7c0-0.3,0.1-0.7,0.1-1c0-3,0-6.1,0-9.1
			c0-1.1-0.2-2.1-1.2-2.8h-1.5c-0.4,0.6-1,1.1-1,1.6c-0.1,3.8-0.1,7.5,0,11.3C868.2,155.7,869,156.3,870,156.3z M843.2,240.2
			c17.7,0.7,32.7-13.5,33.5-31.6c0.7-17.7-13.5-32.8-31.5-33.5c-17.8-0.7-32.9,13.5-33.6,31.6C810.8,224.4,825,239.5,843.2,240.2z
			 M842.1,234.9c0,0.4,0,0.7-0.1,1.3c-6.4-0.4-11.9-2.8-16.9-7c0.8-0.8,1.5-1.4,2.2-2.1c4.3-4.3,8.5-8.5,12.8-12.8
			c0.3-0.3,1-0.6,1.3-0.5s0.6,0.8,0.6,1.3C842.2,221.7,842.1,228.3,842.1,234.9L842.1,234.9z M846.1,236.2c0-0.5-0.1-1-0.1-1.4
			c0-6.6,0-13.1,0-19.7c0-0.5,0.4-1,0.6-1.5c0.5,0.2,1.1,0.3,1.4,0.6c4.7,4.6,9.4,9.3,14,14c0.3,0.3,0.5,0.6,0.9,0.9
			C858,233.4,852.5,235.7,846.1,236.2L846.1,236.2z M865.7,226.4c-0.4-0.3-0.6-0.6-0.9-0.8c-4.7-4.7-9.4-9.4-14.1-14.1
			c-0.3-0.3-0.7-1-0.5-1.3c0.1-0.3,0.8-0.6,1.3-0.6c6.7,0,13.4,0,20,0c0.3,0,0.7,0,1.2,0.1C872.3,216,869.9,221.5,865.7,226.4
			L865.7,226.4z M865.7,188.7c4.2,4.9,6.5,10.4,7,16.9h-1.5c-6.5,0-12.9,0-19.4,0c-0.5,0-1.1-0.4-1.6-0.6c0.2-0.5,0.3-1.1,0.7-1.4
			c4.6-4.7,9.2-9.3,13.9-13.9C865,189.4,865.3,189.1,865.7,188.7L865.7,188.7z M846,179.7c0-0.2,0-0.3,0.1-0.7
			c6.4,0.5,11.9,2.8,16.8,6.9c-0.2,0.2-0.4,0.5-0.6,0.7c-4.8,4.8-9.6,9.6-14.5,14.4c-0.2,0.2-0.4,0.3-0.6,0.3
			c-0.2,0.1-0.4,0.1-0.7,0.1c-0.3-0.1-0.6-0.7-0.6-1C846,193.5,846,186.6,846,179.7L846,179.7z M844.1,204.8c0.5,0,1.1,0.2,1.5,0.5
			s0.8,0.7,1,1.2s0.3,1.1,0.1,1.6c-0.1,0.5-0.4,1-0.8,1.4c-0.4,0.4-0.9,0.6-1.4,0.7c-0.5,0.1-1.1,0-1.6-0.2s-0.9-0.6-1.2-1
			c-0.3-0.5-0.4-1-0.4-1.5c0-0.7,0.3-1.4,0.8-1.9C842.7,205.1,843.3,204.9,844.1,204.8L844.1,204.8z M842.1,179c0,0.6,0.1,1,0.1,1.5
			c0,6.5,0,13,0,19.5c0,0.5-0.2,1.1-0.6,1.5c-0.7,0.6-1.1-0.2-1.5-0.6c-4.6-4.6-9.2-9.1-13.7-13.7c-0.4-0.4-0.8-0.7-1.3-1
			C830.1,181.8,835.6,179.4,842.1,179L842.1,179z M822.5,188.7c1.7,1.8,3.4,3.4,5,5c3.4,3.4,6.7,6.7,10.1,10.1
			c0.2,0.2,0.3,0.4,0.3,0.6c0.1,0.2,0.1,0.4,0.1,0.7c-0.1,0.3-0.7,0.6-1,0.6c-6.9,0-13.8,0-20.7,0c-0.2,0-0.3,0-0.7-0.1
			C815.9,199.2,818.3,193.7,822.5,188.7z M816.9,209.5c6.6,0,13.1,0,19.7,0c0.5,0,1,0.4,1.5,0.6c-0.2,0.5-0.3,1.1-0.7,1.4
			c-4.6,4.7-9.2,9.3-13.9,13.9c-0.3,0.3-0.6,0.6-1,0.9c-4.1-4.7-6.6-10.6-7-16.8C816,209.6,816.4,209.5,816.9,209.5L816.9,209.5z
			 M872.9,178.5c-0.5-0.6-0.8-1.3-0.8-2c-0.1-4.2,0-8.5,0-12.7c0-1.5-0.7-2.2-1.9-2.3c-1.2,0-1.9,0.8-1.9,2.2c0,1.5,0,3,0,4.5
			c0,2,0,4,0,6.2c-1.3-0.8-2.3-1.5-3.4-2.1c-0.8-0.4-1.1-1-1.1-1.9c0-8.7,0-17.3,0-26c0-1.2-0.3-2.1-1.3-2.7h-1.3
			c-1,0.7-1.3,1.6-1.3,2.7c0.1,3.7,0,7.4,0,11.2c-1.2-0.3-2.4-0.4-3.6-0.3c-1.2,0.1-2.4,0.5-3.4,1.1c0.7-3-0.1-5.3-2.3-7.1
			c-1-0.8-2.2-1.4-3.4-1.8c-1.2-0.4-2.5-0.5-3.8-0.4c-5.6,0.4-8.5,3.8-8,9.2c-2.2-1.1-4.4-1.5-6.9-0.7v-2.1c0-3,0-6.1,0-9.1
			c0-1.2-0.3-2.1-1.3-2.7h-1.3c-1.1,0.6-1.3,1.5-1.3,2.7c0,8.6,0,17.3,0,25.9c0,0.9-0.2,1.5-1.1,1.9c-1.1,0.6-2.1,1.3-3.4,2.1v-1.6
			c0-9.4,0-18.7,0-28.1c0-1.2-0.2-2.2-1.2-2.9h-1.6c-1,0.7-1.2,1.7-1.2,2.9c0,10.5,0,21.1,0,31.6c0,0.9-0.3,1.7-1,2.4
			c-2,2.3-3.8,4.6-5.6,7c-0.2,0.2-0.3,0.4-0.3,0.7c-0.1,0.3-0.1,0.5,0,0.8c0,0.3,0.2,0.5,0.3,0.7c0.2,0.2,0.3,0.4,0.6,0.5
			c0.9,0.5,1.9,0.3,2.6-0.6c0.2-0.2,0.3-0.5,0.5-0.7c9.1-12.7,21.4-18.2,36.8-16c20.4,2.9,34.5,23.2,30.4,43.3
			c-4,20.1-22.4,32.8-42.6,29.6c-17-2.7-30.5-18.1-30.8-35.4c-0.1-4.4,0.5-8.7,1.9-12.9c0.3-0.9,0.4-1.9-0.5-2.4
			c-0.5-0.3-1.5-0.5-2-0.2c-0.5,0.2-1,1-1.2,1.7c-4.7,15.8-1.4,29.7,10,41.7c0.3,0.3,0.5,0.6,0.7,1s0.2,0.8,0.2,1.2
			c0,4.5,0,9.1,0,13.6c0,0.5,0,1,0.1,1.5c0.2,1,0.9,1.4,1.9,1.4c0.4,0,0.8-0.1,1.1-0.4c0.3-0.3,0.5-0.6,0.6-1
			c0.1-0.5,0.1-0.9,0.1-1.4c0-3.4,0-6.8,0-10.2c0-0.4,0-0.9,0.1-1.4c1.2,0.8,2.2,1.5,3.3,2.1c0.8,0.4,1.1,1,1.1,1.9
			c0,8.6,0,17.1,0,25.7c0,0.4,0,0.9,0,1.3c0,0.3,0.1,0.5,0.3,0.8s0.3,0.4,0.6,0.6c0.2,0.2,0.5,0.2,0.8,0.3c0.3,0,0.6,0,0.8-0.1
			c0.7-0.2,1.4-0.2,2.2-0.1c4.5,1.1,8.5-3.1,7.3-7.5c-0.9-3.4-3.9-4.9-8-4.2v-16.1c10.4,4.1,20.9,4.1,31.3,0v16.1
			c-0.4-0.1-0.7-0.2-1-0.2c-1.2-0.2-2.5-0.1-3.6,0.5c-1.1,0.5-2.1,1.4-2.7,2.5c-0.6,1-0.9,2.2-0.8,3.4c0.1,1.2,0.5,2.4,1.3,3.3
			c1.5,2,4.1,2.8,6.7,2.1c0.5-0.1,1-0.1,1.5,0.1c0.9,0.3,1.7,0.2,2.2-0.6c0.3-0.6,0.5-1.3,0.5-1.9c0-8.7,0-17.4,0-26.1
			c0-0.5,0.2-1.2,0.5-1.4c1.2-0.9,2.5-1.6,4-2.5v29.7c0,2.1,0.6,3,2,3c1.3,0,1.9-0.9,1.9-2.9c0-10.6,0-21.2,0-31.8
			c0-0.7,0.3-1.5,0.8-2C889,220.4,889.1,194.8,872.9,178.5L872.9,178.5z M834.4,167.7c-2.9,0-6-3.1-6.1-5.9c0-1.8,0.9-2.7,2.7-2.6
			c2.9,0.1,5.9,3.2,5.9,6.1C836.9,166.8,836,167.7,834.4,167.7L834.4,167.7z M847.6,163.7c-0.1,1,0,1.9,0,3H841
			c-0.3-1.9-0.7-3.8-1-5.8c2.7,1,5.7,1,8.4-0.1C848.1,161.9,847.7,162.8,847.6,163.7L847.6,163.7z M848.3,156.3
			c-1,0.9-2.5,1.4-4.1,1.4L844,158c-1.3-0.6-2.8-1-4-1.8c-1.5-1-1.4-2.7-0.1-3.8c2.1-1.9,6.3-1.9,8.3,0
			C849.5,153.7,849.5,155.1,848.3,156.3L848.3,156.3z M853.7,167.7c-1.5,0-2.4-1-2.4-2.4c-0.1-3,3.1-6.2,6.1-6.2
			c1.6,0,2.5,1,2.5,2.6C859.8,164.7,856.5,167.8,853.7,167.7L853.7,167.7z M830.6,265.1c0.3,0,0.6,0.1,0.8,0.2
			c0.3,0.1,0.5,0.3,0.7,0.5s0.4,0.4,0.5,0.7c0.1,0.3,0.2,0.6,0.2,0.8c0,0.6-0.2,1.1-0.6,1.6c-0.4,0.4-1,0.7-1.5,0.7
			c-0.3,0-0.6-0.1-0.9-0.2c-0.3-0.1-0.5-0.3-0.7-0.5s-0.4-0.5-0.5-0.7c-0.1-0.3-0.2-0.6-0.1-0.9c0-0.3,0.1-0.6,0.2-0.8
			c0.1-0.3,0.3-0.5,0.5-0.7s0.4-0.4,0.7-0.5C830,265.2,830.3,265.1,830.6,265.1L830.6,265.1z M857.6,269.6c-0.3,0-0.6-0.1-0.9-0.2
			c-0.3-0.1-0.5-0.3-0.7-0.5s-0.4-0.5-0.5-0.8s-0.1-0.6-0.1-0.9c0-0.6,0.3-1.1,0.7-1.5s1-0.6,1.6-0.6s1.1,0.3,1.5,0.7
			c0.4,0.4,0.6,1,0.6,1.6s-0.3,1.1-0.7,1.5C858.7,269.3,858.2,269.6,857.6,269.6L857.6,269.6z M844.1,252.7c-1.2,0-2.4,0.3-3.4,1
			s-1.8,1.6-2.3,2.7c-0.5,1.1-0.6,2.3-0.4,3.5c0.2,1.2,0.8,2.3,1.7,3.1c0.9,0.9,1.9,1.4,3.1,1.7c1.2,0.2,2.4,0.1,3.5-0.4
			s2.1-1.3,2.7-2.3c0.7-1,1-2.2,1-3.4c0-1.6-0.7-3.1-1.8-4.3C847.3,253.3,845.7,252.7,844.1,252.7L844.1,252.7z M844.2,261
			c-0.4,0-0.9-0.1-1.2-0.3c-0.4-0.2-0.7-0.6-0.8-1c-0.2-0.4-0.2-0.9-0.2-1.3c0.1-0.4,0.3-0.8,0.6-1.2s0.7-0.5,1.1-0.6
			c0.4-0.1,0.9-0.1,1.3,0.1c0.4,0.2,0.8,0.4,1,0.8c0.3,0.4,0.4,0.8,0.4,1.2c0,0.6-0.2,1.1-0.6,1.6C845.3,260.7,844.7,261,844.2,261
			L844.2,261z"/>
	</g>
	<g>
		<defs>
			<rect id="SVGID_00000002380800315472770140000016602054980299475084_" width="272.4" height="292.5"/>
		</defs>
		<clipPath id="SVGID_00000015319981363357756240000014067928667071901061_">
			<use xlink:href="#SVGID_00000002380800315472770140000016602054980299475084_"  style="overflow:visible;"/>
		</clipPath>
		<path style="clip-path:url(#SVGID_00000015319981363357756240000014067928667071901061_);fill:#6A3834;" d="M1117.8,138.6
			c0.4,0,0.8-0.1,1.2-0.3c0.3-0.2,0.6-0.6,0.8-0.9c0.1-0.4,0.2-0.8,0.1-1.2s-0.3-0.8-0.6-1.1c-0.3-0.3-0.7-0.5-1.1-0.6
			s-0.8,0-1.2,0.1c-0.4,0.2-0.7,0.4-0.9,0.8c-0.2,0.3-0.3,0.7-0.3,1.2s0.2,1.1,0.6,1.4C1116.8,138.4,1117.3,138.6,1117.8,138.6z
			 M1107.5,132.5c0.4,0,0.8-0.1,1.2-0.3s0.6-0.5,0.8-0.9c0.2-0.4,0.2-0.8,0.1-1.2s-0.3-0.8-0.6-1.1c-0.3-0.3-0.6-0.5-1-0.6
			s-0.8,0-1.2,0.1c-0.4,0.2-0.7,0.4-0.9,0.8c-0.2,0.3-0.3,0.7-0.3,1.1c0,0.5,0.2,1.1,0.6,1.5C1106.4,132.2,1107,132.5,1107.5,132.5
			L1107.5,132.5z M1128.2,128.3c0.4,0,0.8-0.1,1.1-0.4c0.3-0.2,0.6-0.6,0.7-0.9c0.1-0.4,0.2-0.8,0.1-1.2c-0.1-0.4-0.3-0.8-0.6-1
			c-0.3-0.3-0.7-0.5-1.1-0.5c-0.4-0.1-0.8,0-1.2,0.2c-0.4,0.2-0.7,0.4-0.9,0.8c-0.2,0.3-0.3,0.8-0.3,1.2c0,0.5,0.2,1.1,0.6,1.4
			C1127.1,128.2,1127.7,128.4,1128.2,128.3L1128.2,128.3z M1095.1,132.5c0.4,0,0.8-0.1,1.2-0.3c0.4-0.2,0.6-0.5,0.8-0.9
			c0.2-0.4,0.2-0.8,0.2-1.2c-0.1-0.4-0.2-0.8-0.5-1.1s-0.6-0.5-1-0.6s-0.8-0.1-1.2,0.1s-0.7,0.4-0.9,0.7c-0.2,0.3-0.4,0.7-0.4,1.1
			c0,0.5,0.2,1.1,0.5,1.5C1094,132.2,1094.6,132.5,1095.1,132.5L1095.1,132.5z M1148.1,116c-2.8,0-5.7,0-8.5,0c-0.4,0-0.7,0-1.2-0.1
			c0-2.5,0-4.8,0-7.2c-0.1-3.3,0-6.7-0.4-10c-1-7.8-4.5-14.4-10-19.9c-0.6-0.6-0.7-1.1-0.3-1.8c0.6-1.2,1.2-2.4,1.9-3.5
			c2.2-3.4,4.8-6.6,7.9-9.3c0.8-0.7,1.2-1.5,0.8-2.5c-0.4-1-1.2-1.4-2.3-1.3c-4.6,0.1-9,0.8-13.3,2.6c-0.5,0.2-1,0.4-1.4,0.6
			c2-3.6,4.7-6.8,7.7-9.5c0.8-0.7,1.5-1.5,1-2.7c-0.4-1.2-1.5-1.4-2.6-1.4c-4.8,0.1-9.5,1-13.8,3c-0.5-1.9-0.9-3.7-1.5-5.5
			c-1.2-3.7-3.3-6.7-6.6-9c-1.5-1-2.8-1-4.3,0c-3.8,2.6-5.9,6.3-7.1,10.7c-0.3,1.2-0.6,2.5-0.9,3.8c-4.6-2.2-9.4-3-14.3-3
			c-1,0-1.8,0.3-2.2,1.3c-0.4,1,0,1.7,0.7,2.4c0.9,0.9,1.9,1.7,2.7,2.6c1.9,2.2,3.8,4.6,5.7,6.8l-0.3,0.3c-0.4-0.1-0.7-0.3-1-0.4
			c-4.4-2-9.1-2.7-13.9-2.8c-0.4,0-0.9,0.1-1.2,0.3c-0.4,0.2-0.6,0.6-0.8,1c-0.4,0.9-0.1,1.7,0.6,2.3c0.3,0.3,0.6,0.6,0.9,0.9
			c3.7,3.5,6.9,7.4,9.1,12c0.4,0.8,0.3,1.3-0.4,1.9c-3.4,3.3-6.1,7.3-7.9,11.8c-1.7,4.1-2.5,8.5-2.5,13l-7.5,2.9
			c0.5-4,1-8.1,2.9-11.8c0.3-0.5,0.6-1.2,0.4-1.7c-0.3-0.7-0.8-1.3-1.5-1.7c-0.2-0.1-0.4-0.1-0.7-0.1c-0.2,0-0.5,0-0.7,0.1
			s-0.4,0.2-0.6,0.4c-0.2,0.2-0.3,0.4-0.4,0.6c-0.9,2.3-1.9,4.6-2.5,6.9c-0.7,2.6-1,5.3-1.4,8.1c-0.2-0.1-0.5-0.1-0.7-0.2
			c-0.4-0.2-0.7-0.4-1.1-0.6c-6.1-3.7-12.4-4-18.5-0.1c-7.2,4.6-9.5,11.6-8.9,19.8c0.2,2.8,0.8,5.5,1.1,8.3
			c0.8,6.3,2.6,12.4,5.9,17.9c4.6,7.6,12.9,10.8,21,7.7c1.8-0.7,3.8-0.7,5.5,0.1c6.3,2.4,12.1,1,17.1-3.3c0.7-0.6,1.2-0.7,2-0.3
			c8.1,3.7,16.6,5.4,25.4,4.5c16.7-1.6,29.8-9.4,39.2-23.3c3.9-5.6,6-12.2,6.2-19C1150.8,116.7,1150.1,116,1148.1,116L1148.1,116z
			 M1138.1,120.2c-2.4,10.5-8.6,18.1-17.6,23.4c-11.6,6.9-25.1,6.6-35.2,1.5c2.2-8.2,3.8-16.4,3.6-25h49.2V120.2z M1095.1,106.1
			l8.2-9l8,8.7l-7.7,8.5L1095.1,106.1z M1098.7,116c-3.2,0-6.8,0-10.4,0c-0.3,0-0.7-0.4-0.8-0.7c-0.2-0.4-0.5-0.9-0.6-1.4l5.1-5.4
			L1098.7,116z M1115.1,108.4l6.8,7.6h-13.8L1115.1,108.4z M1107.1,94.3l8-8.6l8.1,8.8l-8,8.6L1107.1,94.3z M1115.1,80.2l-6.2-6.8
			c3,0.4,6.4,1.6,9.5,3.4L1115.1,80.2z M1111.4,83.2l-7.9,8.5l-8-8.8l7.8-8.5L1111.4,83.2z M1091.8,80.3l-3.3-3.6
			c3-1.7,6.2-2.8,9.6-3.4L1091.8,80.3z M1091.8,85.7l8,8.7l-8.1,8.7l-7.9-8.7C1086.2,91.8,1088.9,88.9,1091.8,85.7L1091.8,85.7z
			 M1088.6,105.5l-4.3,4.5c-3-3.3-6.5-5.4-10.5-6.1l6.2-6.8L1088.6,105.5z M1131.2,115.9c0.9-1,1.9-2,3.1-3.3v3.3H1131.2z
			 M1133.2,108l-6.6,6.3c-2.8-3-5.4-5.9-7.9-8.7l7.9-8.4c0.9,0.9,1.7,1.6,2.4,2.3c1.4,1.3,2.8,2.7,4.2,4
			C1134.8,105,1134.8,106.4,1133.2,108L1133.2,108z M1132.2,92.3l1.7,5.7l-0.4,0.2l-3.4-3.9L1132.2,92.3z M1130.1,88.1l-3.3,3.5
			l-8.2-8.9l3.4-3.6C1125.3,81.6,1128,84.6,1130.1,88.1L1130.1,88.1z M1127.9,65.7c0.9-0.2,1.8-0.4,2.6-0.6l-6.8,10
			c-1.6-0.9-3.4-1.9-5.2-2.9c-1-0.6-0.4-1.1,0.1-1.6C1121.3,68.1,1124.4,66.6,1127.9,65.7L1127.9,65.7z M1122.6,54.7
			c-4.1,4.8-7.4,9.5-8.5,15.5l-5.3-1.1c-0.2,0-0.4-0.1-0.6-0.1c-2.1-0.3-2.9-2.1-1.8-3.9C1110,59.2,1115.5,56,1122.6,54.7
			L1122.6,54.7z M1101.2,44.3c2.2-2.5,2.2-2.5,4.3,0c2.7,3.1,3.5,6.9,4,10.9c0,0.1,0,0.3-0.1,0.4c-0.1,0.1-0.1,0.2-0.2,0.3
			c-1.9,2-3.9,3.9-5.8,5.7c-1.8-1.8-3.7-3.7-5.6-5.6c-0.3-0.2-0.4-0.6-0.5-0.9C1097.7,51.2,1098.5,47.3,1101.2,44.3L1101.2,44.3z
			 M1084.3,54.9c8.2,0.9,15.3,6.6,17.7,13.6l-9.3,1.6C1091.6,64.3,1088.2,59.5,1084.3,54.9L1084.3,54.9z M1076.3,65.1
			c3.6,0.5,7,1.9,9.9,3.9c0.7,0.5,1.4,1.1,2.1,1.7c0.5,0.5,0.6,1.1-0.2,1.5c-1.7,0.9-3.4,1.9-5,2.8L1076.3,65.1z M1084.7,79.2
			c1.2,1.4,2.5,2.7,3.5,3.9l-8,8.6l-3.3-3.7C1078.9,84.5,1081.5,81.6,1084.7,79.2L1084.7,79.2z M1074.6,92l2.1,2.3l-3.6,3.8
			l-0.2-0.1C1073.5,96.2,1074,94.3,1074.6,92z M1078.1,150.4c-2.6,4.4-6.6,6.9-11.9,6.8c-1.6-0.1-3.1-0.4-4.6-1.1
			c-1.1-0.5-2.3-0.8-3.5-0.8s-2.4,0.3-3.5,0.8c-4,1.7-8,1.5-11.8-0.9c-2.3-1.4-4-3.4-5.3-5.8c-2.9-5.3-4.3-11-5.1-17
			c-0.3-2.2-0.7-4.3-0.9-6.5c-0.5-6.2,1-11.7,6.2-15.6c4.5-3.3,10.2-3.3,14.9-0.3c1.1,0.7,2.4,1.2,3.8,1.9c-0.1,1.2-0.2,2.5-0.2,4.1
			c-1-0.5-1.9-0.9-2.7-1.5c-1.2-0.7-2.2-0.7-3,0.2c-0.7,0.9-0.6,2.2,0.5,3.1c3.7,3.1,11,3.1,14.6,0c1-0.9,1.2-2,0.5-3
			c-0.7-0.9-1.8-1-3-0.3c-0.8,0.5-1.7,0.9-2.8,1.5c0.1-1.6,0.2-2.8,0.3-4c0-0.1,0-0.2,0.1-0.3c0-0.1,0.1-0.2,0.2-0.2
			c1.8-0.9,3.5-1.8,5.3-2.6c7.9-3.3,15.9,1.7,18.1,9.4c1,3.4,0.9,6.8,0.3,10.2c-0.9,4.6-1.5,9.3-2.7,13.8
			C1080.9,145.1,1079.6,147.8,1078.1,150.4L1078.1,150.4z M1141.6,134.7c-8.5,13.2-20.6,20.6-36.2,22.2c-7.8,0.8-15.4-0.6-22.6-3.6
			c-0.4-0.2-0.8-0.3-1.2-0.6l2-3.7c12.2,5.4,24.3,5.5,36.3-0.4c11.8-5.9,19.7-15.2,22.5-28.4h4.2
			C1146.2,125.4,1144.5,130.4,1141.6,134.7L1141.6,134.7z M1101.4,144.8c0.4,0,0.8-0.1,1.1-0.4c0.3-0.2,0.6-0.6,0.8-0.9
			c0.2-0.4,0.2-0.8,0.1-1.2s-0.3-0.8-0.6-1c-0.3-0.3-0.7-0.5-1.1-0.5c-0.4-0.1-0.8,0-1.2,0.1c-0.4,0.2-0.7,0.4-0.9,0.8
			c-0.2,0.3-0.3,0.7-0.3,1.2s0.2,1.1,0.6,1.4S1100.8,144.8,1101.4,144.8L1101.4,144.8z"/>
	</g>
	<g>
		<defs>
			<rect id="SVGID_00000083074608172204534150000009546675662115665800_" width="272.4" height="292.5"/>
		</defs>
		<clipPath id="SVGID_00000148659365381769899970000013280517639133294518_">
			<use xlink:href="#SVGID_00000083074608172204534150000009546675662115665800_"  style="overflow:visible;"/>
		</clipPath>
		<path style="clip-path:url(#SVGID_00000148659365381769899970000013280517639133294518_);fill:#6A3834;" d="M1404.6,178.3h-37V213
			h6.4c-1.3,1.7-2.6,3.2-3.7,4.8c-0.6,0.9-1.2,1.2-2.2,1.2c-8.9,0-17.7,0-26.6,0h-1.6v-12h-4.2v11.9h-19.2V207h-4.2v12h-31.8v20.9
			c-4.8-1.9-8.6-1.2-11.3,2.2c-1.1,1.4-1.8,3.2-1.9,5s0.4,3.6,1.4,5.1c2.4,3.7,5.9,4.5,11.6,2.9v3.7H1264v14.6h11.8
			c-0.1-1.3-0.1-2.6-0.2-4.1h100.6v4.1h11.8v-14.7h-16.2c-0.7-2.5-0.5-3,1.4-4.3c4.1-2.7,8.3-5.4,12.4-8c0.5-0.4,1.1-0.6,1.7-0.7
			c8.9-0.9,15.3-6.9,16.8-15.8c0-0.2,0.1-0.3,0.2-0.5V225c-0.2-0.8-0.4-1.7-0.6-2.5c-0.9-3.4-2.7-6.4-5.3-8.8
			c-0.3-0.3-0.5-0.6-0.6-1h6.5v-34.4H1404.6z M1279.8,249.5c-0.5,1.6-2.4,2.7-4.2,2.5c-1.1-0.1-2-0.6-2.8-1.4s-1.2-1.8-1.3-2.8
			c-0.1-1.1,0.2-2.1,0.8-3c0.6-0.9,1.5-1.5,2.6-1.8c1.9-0.5,4.3,0.4,5,2.4h-3.8v4.1H1279.8z M1271.6,269.2h-3.2V263h3.2V269.2z
			 M1284.8,223.2h82.7v35.4h-82.7V223.2z M1380.7,263h3.2v6.3h-3.2V263z M1376.4,263v2h-100.5v-2H1376.4z M1371.8,250.6v-11.5
			c2.3,2.7,5.3,4.7,8.7,5.8L1371.8,250.6z M1400.5,226.9c0,1.9-0.3,3.8-1,5.6s-1.7,3.4-3.1,4.8c-1.3,1.4-2.9,2.5-4.7,3.3
			c-1.8,0.8-3.6,1.2-5.5,1.2c-7.6,0.2-14.4-6.3-14.6-13.9c-0.1-1.9,0.3-3.8,1-5.6s1.7-3.4,3-4.8c1.3-1.4,2.9-2.5,4.7-3.3
			c1.8-0.8,3.6-1.2,5.5-1.2C1393.5,212.8,1400.3,219.2,1400.5,226.9L1400.5,226.9z M1400.4,208.7h-28.6v-26.3h28.6V208.7z
			 M1289.1,174.9c6.3,6.2,12.5,12.5,18.7,18.7c0.3,0.3,0.6,0.6,0.7,1c0.2,0.4,0.2,0.8,0.2,1.2c-0.1,2.5,0,5,0,7.5h34.7
			c0-2.5,0-4.9,0-7.2c0-0.5,0-1,0.2-1.4c0.2-0.5,0.5-0.9,0.8-1.2c6.2-6.2,12.4-12.4,18.6-18.6c0.3-0.3,0.6-0.7,0.8-1.1
			c0.2-0.4,0.3-0.9,0.2-1.3c-0.1-4.2,0-8.3,0-12.5v-4h-76c0,0.5-0.1,1-0.1,1.5c0,4.9,0,9.9,0,14.8c0,0.5,0,0.9,0.2,1.4
			C1288.5,174.2,1288.8,174.6,1289.1,174.9L1289.1,174.9z M1339.3,199.3H1313v-3.4h26.3V199.3z M1292.4,160.3h67.6
			c0,0.5,0.1,1,0.1,1.4c0,3.1,0.1,6.2,0,9.3c0,0.7-0.3,1.5-0.8,2c-5.9,6-11.8,11.9-17.8,17.8c-0.5,0.5-1.2,0.8-1.9,0.8
			c-8.9,0.1-17.8,0.1-26.7,0c-0.6,0-1.1-0.2-1.6-0.5c-5.2-5.1-10.4-10.3-15.5-15.5c-0.1-0.1-0.2-0.3-0.2-0.4h30.6v-4.1h-33.7
			L1292.4,160.3L1292.4,160.3z M1380.9,206.3c1.2,0,2.4-0.4,3.4-1.1c1-0.7,1.8-1.6,2.2-2.8c0.4-1.1,0.6-2.3,0.3-3.5
			c-0.2-1.2-0.8-2.3-1.7-3.1c-0.9-0.8-1.9-1.4-3.1-1.6c-1.2-0.2-2.4-0.1-3.5,0.4s-2,1.3-2.7,2.3s-1,2.2-1,3.4c0,1.6,0.7,3.2,1.8,4.3
			S1379.2,206.3,1380.9,206.3L1380.9,206.3z M1380.8,198.2c0.5,0,1,0.2,1.4,0.6c0.4,0.4,0.6,0.9,0.6,1.4s-0.2,1-0.6,1.4
			s-0.9,0.6-1.4,0.6s-1-0.2-1.4-0.6c-0.4-0.4-0.6-0.9-0.6-1.4s0.2-1,0.6-1.4C1379.8,198.4,1380.3,198.2,1380.8,198.2L1380.8,198.2z
			 M1333.2,216.5V206h-14.1v10.6L1333.2,216.5z M1323.2,210.1h5.9v2.4h-5.9V210.1z M1343,162.8h-23.6v3.9h23.6V162.8z M1327.5,152.4
			h3.9v-4h-3.9V152.4z M1338.1,152.4v-4h-3.7v4H1338.1z M1309.4,151.6c-0.1-1.9,0-3.9,2.2-5.1c2.2-1.1,3.9,0.3,5.8,1.3
			c1.1-3.3,2.6-6.3,5.4-8.2c2.9-2,6.1-2.9,9.6-2.2c7.8,1.7,10.8,7,10.9,14.2l7.5,2.4l2.3-2.9c-0.8-0.5-1.4-0.9-2.1-1.3
			c-0.9-0.4-1.7-0.8-2.7-1.1c-0.8-0.2-1.1-0.6-1.2-1.4c-1.2-7.1-6.6-12.7-13.5-14c-3.4-0.7-6.9-0.2-10.1,1.2s-5.8,3.8-7.6,6.7
			c-0.2,0.3-0.4,0.6-0.7,0.7c-0.3,0.2-0.7,0.2-1,0.1c-3.9-0.3-6.9,1.6-8.4,5.3c-0.3,0.5-0.7,0.9-1.2,1.1c-1.8,0.8-3.6,1.6-5.6,2.4
			l2.4,3.1L1309.4,151.6z M1349.9,162.8h-3.9v3.9h3.9V162.8z M1356.7,162.7h-3.9v4h3.9V162.7z M1320.6,152.4h3.9v-3.9h-3.9V152.4z
			 M1359,238.2h4v-4h-4V238.2z M1340.7,235.9c-1.3,0-2.6,0.6-3.5,1.5c-0.9,1-1.4,2.2-1.4,3.6c0,1.3,0.5,2.6,1.4,3.6
			c0.9,0.9,2.2,1.5,3.5,1.5c0.7,0,1.4-0.1,2-0.4c0.6-0.2,1.2-0.6,1.7-1.1s0.9-1,1.1-1.7c0.3-0.6,0.4-1.3,0.4-2s-0.1-1.4-0.4-2
			s-0.6-1.2-1.1-1.7s-1.1-0.8-1.7-1.1C1342,236,1341.4,235.8,1340.7,235.9L1340.7,235.9z M1340.8,241.8c-0.3,0-0.7-0.5-1-0.8
			c0.3-0.3,0.6-0.9,1-1c0.3-0.1,0.7,0.4,1.3,0.9C1341.5,241.4,1341.2,241.8,1340.8,241.8L1340.8,241.8z M1397.4,185h-4v3.9h4V185z
			 M1340.3,229.5c-9.7,0.8-19.4,2.1-29.1,3.3c-1.6,0.2-3.3,0.4-4.8,1c-3.4,1.5-5,5-4.4,8.7c0.6,3.4,3.4,6,7.4,6.5
			c10,1.2,20,2.3,30.1,3.4c6.9,0.8,12.7-4.3,12.9-11.3C1352.4,234.4,1346.9,228.9,1340.3,229.5L1340.3,229.5z M1309.9,244.9
			c-0.8,0-1.6-0.2-2.2-0.6c-0.7-0.4-1.2-1-1.5-1.7s-0.4-1.5-0.3-2.3s0.5-1.5,1-2c0.5-0.6,1.2-0.9,2-1.1c0.8-0.2,1.6-0.1,2.3,0.2
			c0.7,0.3,1.3,0.8,1.8,1.4c0.4,0.6,0.7,1.4,0.7,2.2c0,1-0.4,2-1.1,2.8C1312,244.4,1311,244.8,1309.9,244.9L1309.9,244.9z
			 M1316.8,245.7c0.4-1.6,1-3.1,1-4.7c0-1.6-0.6-3.1-1-4.7l14.1-1.6c-2.4,4.3-2.4,8.4,0.1,12.7L1316.8,245.7z M1340.8,248.4
			c-4.1,0.1-7.5-3.4-7.6-7.5c0-4.1,3.5-7.6,7.5-7.5c2,0,3.8,0.8,5.2,2.2c1.4,1.4,2.1,3.3,2.1,5.2c0,2-0.8,3.8-2.1,5.2
			C1344.6,247.6,1342.8,248.4,1340.8,248.4L1340.8,248.4z M1390.5,184.9h-3.9v3.9h3.9V184.9z M1391.3,224.9l4.2-3.8l-3.3-3.4
			c-1.3,1.4-2.6,2.9-4.2,4.7v-6.2h-4.1v5.9l-0.4,0.2l-3.6-4.1l-3.6,2.9c1.5,1.4,2.9,2.7,4.6,4.2h-6.1v4.2h5.8l0.1,0.3l-4.3,3.9
			l3.4,3.2l4.2-4.5v6.1h4.2v-5.9l0.4-0.2l3.8,4.1l3.3-2.9l-4.5-4.2h6.1v-4.2h-5.8C1391.4,225.1,1391.4,225,1391.3,224.9
			L1391.3,224.9z M1359,254h3.9v-12.8h-3.9V254z M1289.8,256.1h3.9v-3.9h-3.9V256.1z M1296.6,256.1h3.9v-3.9h-3.9V256.1z
			 M1363,227.4h-3.9v4h3.9V227.4z M1383.7,184.9h-9v3.9h9V184.9z M1307.9,242.9h3.9v-4h-3.9V242.9z M1303.5,256h3.7v-3.9h-3.7V256z"
			/>
	</g>
	<g>
		<defs>
			<rect id="SVGID_00000049207740882331603870000006268407008657006513_" width="272.4" height="292.5"/>
		</defs>
		<clipPath id="SVGID_00000112590515902423213110000002717054380807654819_">
			<use xlink:href="#SVGID_00000049207740882331603870000006268407008657006513_"  style="overflow:visible;"/>
		</clipPath>
		<path style="clip-path:url(#SVGID_00000112590515902423213110000002717054380807654819_);fill:#6A3834;" d="M1530.4,110
			c0,0.5,0.2,0.9,0.5,1.2c0.3,0.3,0.8,0.5,1.2,0.5c1,0.1,1.9-0.4,2-1.5c0.1-1.5,0.1-3,0-4.5c-0.1-1-0.9-1.5-1.9-1.5
			c-0.2,0-0.4,0-0.7,0.1c-0.2,0.1-0.4,0.2-0.6,0.4c-0.2,0.2-0.3,0.3-0.4,0.6c-0.1,0.2-0.1,0.4-0.1,0.7c-0.1,0.6,0,1.3,0,1.9
			C1530.4,108.6,1530.3,109.3,1530.4,110z M1531.2,70.7c0.8,0,1.6-0.1,2.3-0.5c0.7-0.3,1.4-0.8,2-1.3c0.6-0.6,1-1.2,1.3-2
			c0.3-0.7,0.5-1.5,0.5-2.3c0-0.8-0.2-1.6-0.5-2.3s-0.8-1.4-1.3-2c-0.6-0.6-1.2-1-2-1.3c-0.7-0.3-1.5-0.5-2.3-0.4
			c-0.8,0-1.6,0.2-2.3,0.5c-0.7,0.3-1.4,0.8-2,1.3c-0.6,0.6-1,1.2-1.3,2c-0.3,0.7-0.5,1.5-0.5,2.3c0,1.6,0.7,3.1,1.8,4.3
			C1528.1,70.1,1529.6,70.8,1531.2,70.7L1531.2,70.7z M1531.3,62.5c0.6,0,1.1,0.3,1.5,0.7s0.6,1,0.7,1.5c0,0.6-0.2,1.1-0.7,1.5
			c-0.4,0.4-1,0.6-1.6,0.6c-0.3,0-0.6,0-0.8-0.1c-0.3-0.1-0.5-0.3-0.7-0.5s-0.4-0.4-0.5-0.7c-0.1-0.3-0.2-0.5-0.2-0.8s0-0.6,0.2-0.9
			c0.1-0.3,0.3-0.5,0.5-0.7s0.5-0.4,0.7-0.5C1530.7,62.5,1531,62.5,1531.3,62.5z M1522.1,105.8c-0.1,1.5-0.1,3,0,4.5
			c0.1,1,1,1.5,2,1.5c0.5,0,0.9-0.2,1.2-0.5c0.3-0.3,0.5-0.8,0.5-1.2c0.1-0.6,0-1.3,0-1.9s0.1-1.4,0-2.1c0-0.2-0.1-0.5-0.1-0.7
			c-0.1-0.2-0.2-0.4-0.4-0.6c-0.2-0.2-0.3-0.3-0.6-0.4c-0.2-0.1-0.4-0.1-0.7-0.1C1523,104.3,1522.2,104.8,1522.1,105.8z M1577,84.5
			c3.8,0.1,7.6-3.8,7.4-7.6c0-1.1-0.5-2.2-1.2-3s-1.7-1.4-2.8-1.6c-3.9-0.7-8.2,3-8.2,7.1C1572.3,82.3,1574.3,84.4,1577,84.5
			L1577,84.5z M1579.4,76.2c0.9,0,1.2,0.5,1.1,1.3c-0.2,1.4-1.7,2.9-3.1,3.1c-0.8,0.1-1.3-0.2-1.3-1.1
			C1576.1,78,1577.9,76.2,1579.4,76.2L1579.4,76.2z M1644.2,103.7c-0.9-2.9-2.7-5.4-5.2-7.3c-2.4-1.8-5.4-2.8-8.4-2.8
			c-1.7,0-3.4,0-5.3,0v-1.5c0-5.5,0-11,0-16.5c0-1.5-0.9-2.4-2.1-2.3c-1.1,0.1-1.7,1-1.7,2.5c0,5.4,0,10.7,0,16.1v1.6H1601V63.3
			h20.5c0,0.9,0,1.9,0,2.8c0,1.3,0.8,2.1,1.9,2.1s1.9-0.8,1.9-2.1c0-4.3,0-8.6,0-12.9c0-1.5-0.7-2.2-2.2-2.2c-7.9,0-15.8,0-23.8,0
			c-1.6,0-2.2,0.7-2.2,2.3c0,2.9,0,5.7,0,8.6c0,10,0,20,0,30v1.6h-4.6V54c0-2.5-0.4-3-3-3h-22.2c-2.5,0-3,0.5-3,3v39.5h-12.7V76.1
			h5.2c2.6,0,3-0.5,3-3c0-10.8,0-21.5,0-32.3c0-1.2-0.2-2.2-1.2-2.9h-28.8c-0.2,0.2-0.6,0.4-0.7,0.7c-0.2,0.7-0.5,1.6-0.2,2
			c0.2,0.3,0.5,0.6,0.9,0.7c0.3,0.2,0.7,0.3,1.1,0.3c5.1,0.1,10.1,0,15.2,0h1.5v76.6h-30.3V41.9c1.2,0,2.3,0,3.5,0
			c1.1,0,2.1-0.1,2.6-1.2c0.5-1.2-0.2-1.9-1-2.6h-7.7c-1.1,0.6-1.3,1.6-1.3,2.8c0,35,0,70.1,0,105.1v20.8c0,2.3,0.5,2.8,2.9,2.8h6
			c2.8,0,3.2-0.4,3.2-3.1c0-14.1,0-28.3,0-42.4v-1.7h71.6c0.5,0,0.9,0,1.4,0c0.4,0,0.8-0.2,1.2-0.5c0.3-0.3,0.5-0.7,0.5-1.2
			c0.1-0.4,0-0.9-0.3-1.2c-0.2-0.4-0.6-0.6-1-0.7c-0.5-0.1-1.1-0.2-1.7-0.2c-14.7,0-29.5,0-44.2,0h-1.5v-4.4h77.9c0.5,0,0.9,0,1.4,0
			c1.5-0.1,2.9-0.7,3.9-1.7c1.1-1,1.7-2.4,1.9-3.8c0.1-1.4-0.2-2.8-1-3.9s-1.9-2-3.2-2.4c-0.9-0.2-1.8-0.3-2.8-0.3
			c-25.5,0-50.9,0-76.4,0h-1.7v-4.5h78.1c0.4,0,0.9,0,1.3,0c2.7,0.1,5.3,1.3,7.2,3.2c1.9,1.9,3,4.5,3,7.2c0,1.4-0.2,2.7-0.7,4
			s-1.3,2.4-2.2,3.4c-1,1-2.1,1.8-3.4,2.3s-2.6,0.8-4,0.8c-7.6,0.1-15.1,0-22.6,0c-1.9,0-2.8,0.6-2.8,1.9s0.9,2,2.7,2
			c2.5,0,5,0,7.5,0c0.4,0,0.7,0,1.2,0.1v1.7c0,14.3,0,28.6,0,42.9c0,2,0.6,2.6,2.6,2.6c2.2,0,4.4,0,6.6,0c2.5,0,3-0.5,3-3
			c0-14.2,0-28.4,0-42.7v-1.6c0.8,0,1.3,0,1.9,0c3,0,6-1,8.4-2.8s4.2-4.3,5.1-7.2c0.3-0.8,0.5-1.7,0.7-2.6v-3.6
			C1644.7,105.4,1644.5,104.5,1644.2,103.7L1644.2,103.7z M1601,54.9h20.4v4.3H1601V54.9z M1521.4,165.8h-4.2v-43.3h4.2V165.8z
			 M1551.4,42h4.3v30.3h-4.3V42z M1552.8,105.8h76.8c0.4,0,0.9,0,1.3,0.1c0.5,0.1,0.9,0.3,1.2,0.7c0.3,0.4,0.5,0.8,0.5,1.3
			c0.1,0.5,0,0.9-0.3,1.3c-0.2,0.4-0.6,0.7-1,0.8c-0.6,0.2-1.2,0.3-1.8,0.3c-25.6,0-51.2,0-76.8,0h-1.4v-4.4
			C1551.9,105.8,1552.4,105.8,1552.8,105.8z M1568.1,55h20.4v4.2h-20.4V55z M1588.5,93.5h-20.4V63.3h20.4V93.5z M1624.9,165.7h-4.3
			v-43.2h4.3V165.7z M1605.2,80.2c0.1,1.2,0.7,2.3,1.6,3.1c0.9,0.8,2.1,1.2,3.3,1.2c3.6,0,7.2-3.6,7.2-7.2c0.1-1.2-0.3-2.4-1.1-3.3
			c-0.8-0.9-1.8-1.5-3-1.6C1609.1,71.7,1604.7,76,1605.2,80.2L1605.2,80.2z M1609.8,80.6c-0.2-0.2-0.7-0.6-0.7-1.1
			c-0.2-1.5,1.8-3.5,3.3-3.3c0.2,0.1,0.5,0.2,0.7,0.4c0.2,0.2,0.3,0.4,0.4,0.7C1613.5,78.7,1611.6,80.6,1609.8,80.6L1609.8,80.6z
			 M1538.7,109.9c0,0.5,0.2,1,0.6,1.3s0.8,0.5,1.3,0.5c1.1-0.1,1.8-0.7,1.9-1.8c0.1-1.3,0.1-2.6,0-4c-0.1-1.1-0.8-1.7-1.9-1.7
			c-0.2,0-0.5,0-0.7,0.1s-0.4,0.2-0.6,0.4c-0.2,0.2-0.3,0.4-0.4,0.6s-0.2,0.5-0.2,0.7c0,0.6,0,1.2,0,1.8
			C1538.7,108.6,1538.6,109.3,1538.7,109.9L1538.7,109.9z"/>
	</g>
	<g>
		<defs>
			<rect id="SVGID_00000065792686102076404360000013055259427055818116_" width="272.4" height="292.5"/>
		</defs>
		<clipPath id="SVGID_00000040571649797157352240000004071879086757674897_">
			<use xlink:href="#SVGID_00000065792686102076404360000013055259427055818116_"  style="overflow:visible;"/>
		</clipPath>
		<path style="clip-path:url(#SVGID_00000040571649797157352240000004071879086757674897_);fill:#6A3834;" d="M1785.8,248.5
			c-1.2,0-2.4,0.4-3.4,1c-1,0.7-1.8,1.6-2.2,2.7c-0.4,1.1-0.6,2.3-0.3,3.5c0.2,1.2,0.8,2.3,1.7,3.1c0.9,0.8,1.9,1.4,3.1,1.7
			c1.2,0.2,2.4,0.1,3.5-0.3c1.1-0.5,2.1-1.2,2.7-2.2c0.7-1,1-2.2,1-3.4c0-0.8-0.1-1.6-0.4-2.3s-0.8-1.4-1.3-2c-0.6-0.6-1.2-1-2-1.3
			C1787.4,248.7,1786.6,248.5,1785.8,248.5L1785.8,248.5z M1785.9,256.8c-0.3,0-0.6,0-0.9-0.1s-0.5-0.3-0.7-0.5
			c-0.2-0.2-0.4-0.5-0.5-0.7c-0.1-0.3-0.2-0.6-0.2-0.9c0-0.6,0.3-1.1,0.7-1.5c0.4-0.4,1-0.6,1.5-0.6c0.6,0,1.1,0.2,1.5,0.6
			c0.4,0.4,0.7,0.9,0.7,1.5c0,0.3,0,0.6-0.1,0.8c-0.1,0.3-0.3,0.5-0.5,0.7s-0.4,0.4-0.7,0.5C1786.5,256.7,1786.2,256.8,1785.9,256.8
			L1785.9,256.8z M1798.6,224.1c8.7-0.2,17.2-8.8,17.1-17.6c0-6.8-5.3-11.5-12.1-10.6c-7.6,1-14.2,7-15.8,14.5
			C1786.2,218.1,1791.1,224.2,1798.6,224.1L1798.6,224.1z M1804.8,199.7c4.3-0.1,7.1,2.7,7.1,7c0,6.6-6.9,13.5-13.4,13.6
			c-4.4,0.1-7.2-2.8-7.1-7.1C1791.5,206.6,1798.3,199.8,1804.8,199.7L1804.8,199.7z M1860.1,260.7c1.2,0,2.4-0.4,3.4-1
			c1-0.7,1.8-1.6,2.2-2.7c0.5-1.1,0.6-2.3,0.3-3.5c-0.2-1.2-0.8-2.3-1.7-3.1c-0.8-0.9-1.9-1.4-3.1-1.7c-1.2-0.2-2.4-0.1-3.5,0.3
			c-1.1,0.5-2.1,1.2-2.7,2.2c-0.7,1-1,2.2-1,3.4c0,0.8,0.1,1.6,0.4,2.3s0.7,1.4,1.3,2c0.6,0.6,1.2,1,2,1.3
			S1859.3,260.7,1860.1,260.7L1860.1,260.7z M1860.1,252.4c0.6,0,1.1,0.2,1.5,0.7c0.4,0.4,0.7,1,0.7,1.5c0,0.3-0.1,0.6-0.2,0.8
			c-0.1,0.3-0.3,0.5-0.5,0.7s-0.4,0.4-0.7,0.5c-0.3,0.1-0.5,0.2-0.8,0.2s-0.6,0-0.8-0.1c-0.3-0.1-0.5-0.2-0.7-0.4
			c-0.2-0.2-0.4-0.4-0.5-0.7s-0.2-0.5-0.2-0.8s0-0.6,0.1-0.9c0.1-0.3,0.3-0.5,0.5-0.8c0.2-0.2,0.5-0.4,0.7-0.5
			C1859.5,252.5,1859.8,252.4,1860.1,252.4L1860.1,252.4z M1801.6,233.7c4.7,0,9.3-1.4,13.2-4s7-6.3,8.8-10.6s2.3-9.1,1.4-13.7
			c-0.9-4.6-3.2-8.8-6.5-12.2c-3.3-3.3-7.5-5.6-12.1-6.5s-9.4-0.5-13.7,1.3c-4.3,1.8-8.1,4.8-10.7,8.7s-4,8.5-4,13.2
			c0,6.3,2.5,12.3,6.9,16.7C1789.3,231.1,1795.3,233.6,1801.6,233.7L1801.6,233.7z M1801.7,190.1c3.9,0,7.8,1.2,11,3.4
			c3.3,2.2,5.8,5.3,7.3,8.9s1.9,7.6,1.1,11.5s-2.7,7.4-5.5,10.2s-6.3,4.6-10.2,5.4c-3.9,0.8-7.8,0.3-11.5-1.2
			c-3.6-1.5-6.7-4.1-8.9-7.4c-2.2-3.3-3.3-7.1-3.3-11.1c0-2.6,0.5-5.2,1.5-7.6c1-2.4,2.5-4.6,4.3-6.4c1.8-1.8,4.1-3.3,6.5-4.3
			C1796.5,190.6,1799.1,190.1,1801.7,190.1L1801.7,190.1z M1851.3,224.7c-1,0.1-1.7,0.8-1.6,1.9c0,1.1,0.8,1.8,1.9,1.8
			c0.9,0,1.7,0,2.6,0c0.8,0,1.8,0,2.7,0c0.2,0,0.5,0,0.7-0.1s0.4-0.2,0.6-0.4s0.3-0.4,0.4-0.6c0.1-0.2,0.1-0.5,0.1-0.7
			c0.1-1.1-0.5-1.9-1.6-2C1855.1,224.6,1853.2,224.6,1851.3,224.7z M1797.2,215.4c0.8,0.7,1.8,0.6,2.5-0.2c0.5-0.6,0.8-1.5,1.3-2.2
			c0.4-0.5,0.8-1.1,1.3-1.3c1.4-0.5,2.5-1.3,3.2-2.7c0.4-0.8,0.8-1.6,1.1-2.4c0.6-1.3-0.4-2.7-2-2.7c-1.3,0.2-1.9,1.3-2.3,2.6
			c-0.1,0.4-0.3,0.7-0.6,1c-0.3,0.3-0.6,0.5-1,0.6c-0.7,0.2-1.3,0.6-1.9,1c-0.5,0.5-1,1.1-1.2,1.8c-0.3,0.6-0.5,1.2-0.8,1.8
			C1796.3,213.9,1796.4,214.7,1797.2,215.4L1797.2,215.4z M1887.3,228.1c1.2,0.4,2-0.3,2.5-1.2v-26.7c-0.1-0.1-0.2-0.1-0.2-0.2
			c-2.1-8.6-7.3-12.7-16.1-12.7h-28.4c0-4.4,0-8.6,0-12.8c0-2.2-0.6-2.8-2.8-2.8c-17.5,0-35.1,0-52.6,0c-0.4,0-0.9,0-1.3,0.1
			c-1,0.3-1.6,0.9-1.5,1.9c0,1.1,0.7,1.6,1.7,1.8c0.4,0,0.9,0.1,1.3,0h51.2v68.8c-0.1,0-0.2,0.1-0.3,0.1c-12.8,0-25.6,0-38.4,0
			c-0.3,0-0.5-0.1-0.7-0.2c-0.2-0.1-0.4-0.3-0.6-0.5c-7.9-10.4-22.6-10.4-30.5,0c-0.2,0.3-0.5,0.7-0.8,0.7c-2.6,0.1-5.1,0-7.6,0
			v-68.9h1.5c5.3,0,10.5,0,15.8,0c0.4,0,0.8-0.1,1.1-0.3c0.4-0.2,0.7-0.4,0.9-0.7c1-1.3-0.2-2.9-2.1-2.9c-6.2,0-12.5,0-18.8,0
			c-1.8,0-2.4,0.7-2.4,2.5c0,26.6,0,53.2,0,79.8c0,1.9,0.6,2.5,2.6,2.5c2.1,0,4.2,0,6.2,0c1.7,11.2,10.6,16.8,18.4,16.9
			c4.2,0.1,8.2-1.2,11.5-3.7c4.4-3.3,6.9-7.7,7.7-13.2h22.4c0.4,0,0.8,0,1.2,0c1.1-0.1,1.9-0.8,1.9-1.8c0-0.5-0.2-1-0.5-1.3
			c-0.3-0.4-0.8-0.6-1.3-0.6c-0.4,0-0.8,0-1.2,0h-22.5c-0.3-1.6-0.6-3-1-4.3h38.6c-0.3,1.5-0.7,2.9-1,4.3c-1.3,0-2.5,0-3.8,0
			c-1.4,0-2.2,0.7-2.2,1.9s0.8,1.9,2.2,1.9c1.3,0,2.5,0,3.8,0c1.7,11.2,10.7,16.8,18.4,16.9c4.2,0.1,8.2-1.2,11.5-3.7
			c4.4-3.3,6.9-7.7,7.6-13.2c2.9,0,5.6,0,8.4,0c1.2,0,2-0.3,2.5-1.4v-20.6c-0.7-0.8-1.4-1.6-2.6-1.1s-1.3,1.5-1.3,2.5
			c0,2.7,0,5.4,0,8.2c-0.2,0.1-0.5,0.1-0.7,0.1c-2.8,0-5.7,0-8.5,0c-0.2,0-0.5-0.1-0.7-0.2c-0.2-0.1-0.4-0.2-0.6-0.4
			c-7.2-10.1-22-10.6-29.9-1.1c-0.1,0.1-0.3,0.2-0.4,0.3V191h1.4c9.2,0,18.3,0,27.5,0c7.3,0,11.8,4.6,11.8,11.9c0,7.6,0,15.2,0,22.7
			C1886,226.8,1886.2,227.8,1887.3,228.1L1887.3,228.1z M1767,252.6h-4.9v-4.2h5.9C1767.7,249.7,1767.4,251.1,1767,252.6L1767,252.6
			z M1785.7,269.6c-3.9-0.1-7.6-1.8-10.3-4.6c-2.7-2.8-4.2-6.5-4.2-10.4s1.6-7.6,4.3-10.4c2.7-2.8,6.4-4.4,10.3-4.5
			c8.2,0,15,6.8,14.9,15c0,4-1.7,7.7-4.5,10.5C1793.5,268,1789.7,269.6,1785.7,269.6L1785.7,269.6z M1885.9,248.3v4.3h-7l-1-4.3
			H1885.9z M1860.1,239.7c2.9,0,5.8,0.9,8.3,2.5s4.4,4,5.5,6.7s1.4,5.7,0.9,8.6c-0.6,2.9-2,5.6-4.1,7.7s-4.7,3.5-7.6,4.1
			s-5.9,0.3-8.6-0.8c-2.7-1.1-5.1-3-6.7-5.5c-1.7-2.5-2.5-5.3-2.6-8.3c0-4,1.6-7.8,4.4-10.6C1852.3,241.3,1856.1,239.7,1860.1,239.7
			L1860.1,239.7z M1878.9,220.2c2,0,2.6-0.7,2.6-2.6c0-4.8,0-9.6,0-14.4c0-4.7-3-7.6-7.7-7.6c-7.2,0-14.4,0-21.6,0
			c-2.1,0-2.6,0.6-2.6,2.7c0,6.4,0,12.9,0,19.3c0,2.1,0.6,2.7,2.7,2.7c4.4,0,8.8,0,13.2,0C1870,220.2,1874.5,220.2,1878.9,220.2
			L1878.9,220.2z M1853.5,199.4h1.3c6.3,0,12.6,0,18.9,0c2.8,0,4,1.2,4,4c0,3.9,0,7.8,0,11.7c0,0.4,0,0.7-0.1,1.2h-24.1
			L1853.5,199.4L1853.5,199.4z"/>
	</g>
	<g>
		<defs>
			<rect id="SVGID_00000140006031953338678960000007115292044172570025_" width="272.4" height="292.5"/>
		</defs>
		<clipPath id="SVGID_00000109019969112995930320000017662279307891948694_">
			<use xlink:href="#SVGID_00000140006031953338678960000007115292044172570025_"  style="overflow:visible;"/>
		</clipPath>
		<path style="clip-path:url(#SVGID_00000109019969112995930320000017662279307891948694_);fill:#6A3834;" d="M2076.7,119.5
			c5.2-6.5,1.1-14.6-5.3-16.3c-2.2-0.6-4.3-1.2-6.4-1.8c-1.1-0.3-2.1-0.8-2.9-1.6c-0.8-0.8-1.4-1.7-1.8-2.8
			c-0.8-2.1-1.6-4.1-2.5-6.2c-3.1-7.5-11.9-8.9-17.2-2.8c-5.9,6.8-6.9,17.1-2.4,25.1c4,7.2,10,11.8,18,13.8c1.4,0.3,2.9,0.4,4.1,0.5
			C2067,127.1,2072.5,124.7,2076.7,119.5z M2065.4,123c-5.2,1.5-10.1,0.6-14.6-2.1c-7-4.1-11.2-10.1-11.8-17.2
			c0.1-5.8,1.4-9.9,4.5-13.4c3.3-3.8,8.8-2.9,10.7,1.7c0.8,2,1.7,3.9,2.4,6c1.4,4,4.2,6.2,8.2,7.2c2.1,0.5,4.2,1.1,6.3,1.8
			c4.3,1.6,5.6,6.6,2.8,10.2C2071.7,120.1,2068.7,122.1,2065.4,123L2065.4,123z M2115.9,46.2h-54.6c0-2,0-3.9,0-5.8
			c0-1.7-0.8-2.4-2.4-2.4c-8,0-15.9,0-23.9,0c-1.7,0-2.4,0.7-2.5,2.4c0,1.9,0,3.8,0,5.8c-3.2,0-6.3,0-9.4,0c-2.3,0-2.9,0.6-2.9,3
			v109.3c0,2.4,0.6,3,3,3h92.8c2.4,0,3-0.6,3-2.9V49.2C2118.9,46.8,2118.4,46.2,2115.9,46.2z M2110,50.4c-1.9,1.3-3.5,2.4-5.2,3.4
			c-0.1,0-0.2,0.1-0.3,0c-0.1,0-0.2,0-0.3-0.1c-1.6-1.1-3.2-2.1-5.1-3.4L2110,50.4L2110,50.4z M2053.2,42.2h4v4h-4V42.2z M2045,42.2
			h4v4h-4V42.2z M2036.7,42.2h4v4h-4V42.2z M2024.4,50.5h65.7v15c-5.7,2.6-12,3.8-18.2,3.3c-4.9-0.4-9.6-1.8-14-3.9
			c-10.7-5.1-21.6-5.6-32.7-1.5c-0.2,0.1-0.5,0.1-0.8,0.2L2024.4,50.5L2024.4,50.5z M2090.1,157.3h-65.8v-1.4c0-28.8,0-57.6,0-86.4
			c0-1.1,0.3-1.5,1.3-1.9c10.2-4.1,20.2-3.9,30.1,0.8c6.4,3,13,4.8,20.1,4.6c4.3-0.1,8.6-0.9,12.7-2.4c0.5-0.2,1-0.3,1.6-0.5
			L2090.1,157.3z M2094.3,52.2c1.4,0.9,2.7,1.7,3.9,2.6c1.4,1,3.3,1.7,4.1,3c0.7,1.3,0.2,3.3,0.2,4.9c0,28.6,0,57.2,0,85.8
			c0,1.2-0.4,1.9-1.4,2.6c-2.2,1.4-4.4,2.9-6.8,4.5V52.2z M2099.2,157.2c1.8-1.2,3.4-2.3,5-3.3c0.1-0.1,0.3-0.1,0.4-0.1
			c0.2,0,0.3,0,0.5,0.1c1.6,1,3.1,2.1,4.9,3.3H2099.2z M2114.8,155.5c-2.7-1.8-5.2-3.5-7.8-5.2c-0.2-0.2-0.3-0.5-0.4-0.7
			c0-0.3,0-0.7,0-1c0-29.8,0-59.6,0-89.3c0-1.2,0.4-1.8,1.4-2.4c2.3-1.4,4.5-3,6.8-4.5V155.5z M2081.5,138.8c-2.6,0-5.2,0-7.9,0
			c-2.6,0-5.2,0-7.8,0c-1.7,0-2.4,0.8-2.4,2.4c0,2.5,0,5,0,7.5c0,1.7,0.8,2.4,2.4,2.4c5.2,0,10.4,0,15.7,0c1.7,0,2.4-0.8,2.4-2.4
			c0-2.5,0-5,0-7.5C2083.9,139.6,2083.2,138.8,2081.5,138.8L2081.5,138.8z M2079.8,147h-12.2v-4h12.2V147z M2046.5,147.1
			c-4.5,0-9,0-13.5,0c-1.5,0-2.5,0.7-2.5,2c0,1.2,0.9,2.1,2.5,2.1c2.2,0,4.5,0,6.7,0s4.5,0,6.8,0c1.5,0,2.5-0.8,2.5-2
			S2048.1,147.1,2046.5,147.1L2046.5,147.1z M2046.5,138.8c-4.5,0-9.1,0-13.6,0c-1.5,0-2.4,0.8-2.4,2.1c0,1.2,0.9,2,2.5,2
			c2.2,0,4.5,0,6.7,0s4.5,0,6.8,0c1.6,0,2.6-0.8,2.5-2.1C2049,139.5,2048,138.8,2046.5,138.8L2046.5,138.8z M2047.4,94.2
			c-0.9-0.7-2-0.4-2.8,0.8c-1.8,2.7-2.6,5.6-2.7,9.5c0.1,0.7,0.2,2.1,0.5,3.4c0.2,1.4,1.1,1.9,2.2,1.7c1-0.2,1.5-1.1,1.4-2.4
			c-0.1-2-0.3-4,0-6c0.2-1.5,1-2.9,1.7-4.2C2048.3,95.8,2048.3,94.8,2047.4,94.2L2047.4,94.2z"/>
	</g>
	<g>
		<defs>
			<rect id="SVGID_00000021094422657906574910000006503611640971062946_" width="272.4" height="292.5"/>
		</defs>
		<clipPath id="SVGID_00000032637983932316252630000018149407561784766100_">
			<use xlink:href="#SVGID_00000021094422657906574910000006503611640971062946_"  style="overflow:visible;"/>
		</clipPath>
		
			<circle style="clip-path:url(#SVGID_00000032637983932316252630000018149407561784766100_);fill:#6A3834;" cx="109.7" cy="248.5" r="27.5"/>
	</g>
	<g>
		<defs>
			<rect id="SVGID_00000088811396910141928430000014462135829450076076_" width="272.4" height="292.5"/>
		</defs>
		<clipPath id="SVGID_00000020358748871819231640000013141183528603696553_">
			<use xlink:href="#SVGID_00000088811396910141928430000014462135829450076076_"  style="overflow:visible;"/>
		</clipPath>
		<path style="clip-path:url(#SVGID_00000020358748871819231640000013141183528603696553_);fill:#D0F4A5;" d="M113.7,231.9
			c-0.3-0.2-0.9-0.4-1.2-0.4c-1.2,0-2.1,1-2.1,1l-6.7,13.1c-0.2,0.5-0.4,1-0.4,1.4c0,1.2,1.2,1.3,2,1.3c0.1,0,0.2,0,0.3,0
			c0.6-0.4,4.9-8.8,5.1-9.3c0,0.2-1,19.5-1,24.3c0,0.2,0,0.4,0,0.6c0.1,0.8,0.3,1.2,1.2,1.2c1.2,0,2.6-1.1,2.6-1.1s0.5-19.4,0.5-28
			C114,233.5,113.9,232.1,113.7,231.9z"/>
	</g>
	<g>
		<defs>
			<rect id="SVGID_00000008139243074684207420000017566207741710806960_" width="272.4" height="292.5"/>
		</defs>
		<clipPath id="SVGID_00000054225924832190891450000009129908613524906119_">
			<use xlink:href="#SVGID_00000008139243074684207420000017566207741710806960_"  style="overflow:visible;"/>
		</clipPath>
		
			<circle style="clip-path:url(#SVGID_00000054225924832190891450000009129908613524906119_);fill:#6A3834;" cx="354.7" cy="65.5" r="27.5"/>
	</g>
	<g>
		<defs>
			<rect id="SVGID_00000105389828368535769270000007591691178381543068_" width="272.4" height="292.5"/>
		</defs>
		<clipPath id="SVGID_00000062156660979024148740000015596951242380259215_">
			<use xlink:href="#SVGID_00000105389828368535769270000007591691178381543068_"  style="overflow:visible;"/>
		</clipPath>
		<path style="clip-path:url(#SVGID_00000062156660979024148740000015596951242380259215_);fill:#D0F4A5;" d="M349.2,57.9
			c0.3,0.4,0.8,0.6,1.2,0.6c2,0,1.9-2.2,1.9-2.2c0.2-4,1.6-4.5,2.3-4.5c1.6,0,2.1,1.7,2.1,3.4c0,3.5-1.8,8.6-5.1,15
			c-1.1,2-4.3,7.3-4.3,9.3c0.1,1.3,1.2,2.2,2.3,2.2c0.3,0,1.9,0,3.2,0c2.2,0,4.8-0.1,6.1-0.1c0.8,0,1.7-0.5,1.7-1.8
			c0-1.2-0.7-1.5-1.8-1.5h-0.4c-0.6,0-1.9,0-6.7,0l4.3-8.9c1-1.8,4.4-8.5,4.4-14.2c0-5.3-3.4-6.5-5.4-6.5c-5.3,0-6.1,4.3-6.1,7
			C348.9,56.6,349.1,57.7,349.2,57.9z"/>
	</g>
	<g>
		<defs>
			<rect id="SVGID_00000152231335252305248170000017184918358656608938_" width="272.4" height="292.5"/>
		</defs>
		<clipPath id="SVGID_00000178187261753761663280000017191372321185452721_">
			<use xlink:href="#SVGID_00000152231335252305248170000017184918358656608938_"  style="overflow:visible;"/>
		</clipPath>
		
			<circle style="clip-path:url(#SVGID_00000178187261753761663280000017191372321185452721_);fill:#6A3834;" cx="844.7" cy="65.5" r="27.5"/>
	</g>
	<g>
		<defs>
			<rect id="SVGID_00000170251205534081444640000016937391373993423524_" width="272.4" height="292.5"/>
		</defs>
		<clipPath id="SVGID_00000008861266618284221510000011021623226072577959_">
			<use xlink:href="#SVGID_00000170251205534081444640000016937391373993423524_"  style="overflow:visible;"/>
		</clipPath>
		<path style="clip-path:url(#SVGID_00000008861266618284221510000011021623226072577959_);fill:#D0F4A5;" d="M845.4,52.9l0.8-2.4
			c-0.2-1.1-0.9-1.6-2-1.6c-0.2,0-0.3,0-0.9,0.1c-0.5,1.3-3.2,8.5-6.6,18.6l-0.2,1.1c0,2,0.7,2,2.8,2h2.4c1.3,0,2.8,0,3.9,0
			c-0.1,3.7-0.2,6.9-0.2,10.5c0.2,1.1,0.7,1.1,1.2,1.1c2.1,0,2.2-1.3,2.3-2.8c0-2.9,0.2-6,0.2-8.9h1.2c1.1,0,1.7-0.1,2.2-0.7
			c0.3-0.4,0.5-0.8,0.5-1.2c0-1-0.8-1.2-1.5-1.2h-2.2V57.3c-0.5-0.2-0.8-0.3-1-0.3c-1.1,0-1.9,0.5-2.2,1.9c-0.4,2.1-0.4,3.9-0.5,5.7
			c0,0.9,0,1.8,0,2.7h-5.5C841.5,64.4,843.6,57.9,845.4,52.9z"/>
	</g>
	<g>
		<defs>
			<rect id="SVGID_00000166665784485070599720000002929117883776640951_" width="272.4" height="292.5"/>
		</defs>
		<clipPath id="SVGID_00000130627865439856116110000017330109866153341846_">
			<use xlink:href="#SVGID_00000166665784485070599720000002929117883776640951_"  style="overflow:visible;"/>
		</clipPath>
		
			<circle style="clip-path:url(#SVGID_00000130627865439856116110000017330109866153341846_);fill:#6A3834;" cx="1334.7" cy="65.5" r="27.5"/>
	</g>
	<g>
		<defs>
			<rect id="SVGID_00000036246089750691178680000011871340949284714175_" width="272.4" height="292.5"/>
		</defs>
		<clipPath id="SVGID_00000139975518534632435130000001679512462441083307_">
			<use xlink:href="#SVGID_00000036246089750691178680000011871340949284714175_"  style="overflow:visible;"/>
		</clipPath>
		<path style="clip-path:url(#SVGID_00000139975518534632435130000001679512462441083307_);fill:#D0F4A5;" d="M1341.1,54.5
			c0-2.2-0.8-6-5.5-6c-6.2,0-6.9,6.1-6.9,13.4v8c0,5.9,0.6,11.8,5.6,11.8c7.1,0,7.4-6,7.4-11.3c0-6.8-2.4-9.2-6.3-9.2
			c-0.9,0-1.9,0.1-3,0.6V61c0-2,0.3-9.6,3.2-10c0,0,1.9,0.3,1.9,3.6v0.8c0,0,1.3,1.2,2.3,1.2C1340.9,56.5,1341.1,55.2,1341.1,54.5z
			 M1335.2,64c2.6,0.2,2.6,3.4,2.6,7.8c0,2-0.3,7.3-2.9,7.3c-1.7,0-2.7-4.2-2.7-11.2c0-0.8,0-1.7,0-2.7
			C1333.1,64.6,1334,64,1335.2,64z"/>
	</g>
	<g>
		<defs>
			<rect id="SVGID_00000021094614196659432260000016337478221842397836_" width="272.4" height="292.5"/>
		</defs>
		<clipPath id="SVGID_00000085937746273499130750000001391832146405610420_">
			<use xlink:href="#SVGID_00000021094614196659432260000016337478221842397836_"  style="overflow:visible;"/>
		</clipPath>
		
			<circle style="clip-path:url(#SVGID_00000085937746273499130750000001391832146405610420_);fill:#6A3834;" cx="1824.7" cy="65.5" r="27.5"/>
	</g>
	<g>
		<defs>
			<rect id="SVGID_00000003079153541868964920000001870667845377651073_" width="272.4" height="292.5"/>
		</defs>
		<clipPath id="SVGID_00000035501156469963122640000010026705818569347768_">
			<use xlink:href="#SVGID_00000003079153541868964920000001870667845377651073_"  style="overflow:visible;"/>
		</clipPath>
		<path style="clip-path:url(#SVGID_00000035501156469963122640000010026705818569347768_);fill:#D0F4A5;" d="M1825.8,48.6
			c-4.1,0-6.7,2.6-6.7,8c0,3.6,0.8,5.8,2.3,7c-2,1.6-2.8,4.4-2.8,7.4c0,5.6,0.6,10.9,5.9,10.9c7.2,0,7.2-6.1,7.2-11.8
			c0-2.6-0.9-5-2.5-6.5c1.7-1.1,2.4-3.4,2.4-7.2C1831.7,51.9,1829.9,48.6,1825.8,48.6z M1828,56v1.5c-0.1,1.3-0.6,4.6-2.6,4.6
			c-1.4,0-2.4-1.5-2.4-5.9c0-3.8,1.2-5,2.8-5C1827.6,51.2,1828,53.9,1828,56z M1824.9,79.2c-2.2,0-2.4-4.8-2.4-8.8
			c0-4.2,1.3-5.5,2.8-5.5c2.3,0,2.7,3.6,2.7,6C1828,76.6,1826.9,79.2,1824.9,79.2z"/>
	</g>
	<g>
		<defs>
			<rect id="SVGID_00000098216306114423112360000007931380814698229898_" width="272.4" height="292.5"/>
		</defs>
		<clipPath id="SVGID_00000173864594180782441270000011064114679577455238_">
			<use xlink:href="#SVGID_00000098216306114423112360000007931380814698229898_"  style="overflow:visible;"/>
		</clipPath>
		
			<circle style="clip-path:url(#SVGID_00000173864594180782441270000011064114679577455238_);fill:#6A3834;" cx="599.7" cy="248.5" r="27.5"/>
	</g>
	<g>
		<defs>
			<rect id="SVGID_00000046300141930815122460000014250137815713798812_" width="272.4" height="292.5"/>
		</defs>
		<clipPath id="SVGID_00000177471920958019988390000006905558547761247654_">
			<use xlink:href="#SVGID_00000046300141930815122460000014250137815713798812_"  style="overflow:visible;"/>
		</clipPath>
		<path style="clip-path:url(#SVGID_00000177471920958019988390000006905558547761247654_);fill:#D0F4A5;" d="M594.5,238.5
			c0.2,0.3,0.5,0.4,0.9,0.4c0.6,0,2.3-0.6,2.3-1.5c0-1.2,0.4-3.5,2-3.5c1.3,0,1.8,2.1,1.8,3.9c0,5.3-1.4,6.2-2.2,6.7
			c-0.2,0-0.5,0-0.8,0c-1,0-1.9,0-1.9,1.6c0,0.9,0.3,1.4,1.3,1.4c3.3,0,4,3.1,4,6.1v0.9c0,3.2-0.5,7.8-2.8,7.8
			c-1.8,0-1.8-1.7-1.8-3.2c0-1.2,0-2.4-0.7-2.9c-0.3-0.3-0.7-0.4-1.1-0.4c-1.2,0-2.1,1.1-2.1,1.1c0,6.2,1.5,8.1,5.9,8.1
			c5.4,0,6.5-4.8,6.5-12.5c0-4.4-1.9-6-3.2-6.6c1.8-1.2,2.6-4.3,2.6-7.2c0-3.4-0.7-7.6-5.1-7.6c-4.7,0-5.7,3.5-5.7,5.5
			C594.3,237.6,594.5,238.3,594.5,238.5z"/>
	</g>
	<g>
		<defs>
			<rect id="SVGID_00000003099739755035770730000008216718612122084780_" width="272.4" height="292.5"/>
		</defs>
		<clipPath id="SVGID_00000114073862955967608680000007715869373141176483_">
			<use xlink:href="#SVGID_00000003099739755035770730000008216718612122084780_"  style="overflow:visible;"/>
		</clipPath>
		
			<circle style="clip-path:url(#SVGID_00000114073862955967608680000007715869373141176483_);fill:#6A3834;" cx="1089.7" cy="248.5" r="27.5"/>
	</g>
	<g>
		<defs>
			<rect id="SVGID_00000003069881681208313520000013070137215661447347_" width="272.4" height="292.5"/>
		</defs>
		<clipPath id="SVGID_00000057115061152227714010000006928638264858637994_">
			<use xlink:href="#SVGID_00000003069881681208313520000013070137215661447347_"  style="overflow:visible;"/>
		</clipPath>
		<path style="clip-path:url(#SVGID_00000057115061152227714010000006928638264858637994_);fill:#D0F4A5;" d="M1086.7,245.3h0.9
			c4.6,0,4.9,1.7,4.9,7.1v2.9c0,3.6-0.2,6.9-2.8,6.9c-2.1,0-2.6-1.9-2.6-3.6c0-2.6,0-3-1.6-3c-1.5,0-1.8,1.5-1.8,1.5
			c0.1,4.3,0.7,7.9,5.8,7.9c6.4,0,6.6-4.8,6.6-13.9c0-6.6-2.9-7.7-3.8-8.2c-1.1-0.5-2.4-0.8-3.3-0.8h-0.8v-6.9
			c0,0.1,1.7,0.1,3.7,0.1h1.8c0.6,0,1.5-0.8,1.5-1.7c0-1.8-2.7-1.7-3.8-1.7c-3,0-5.4,0.1-6,0.4c-0.6,0.3-0.6,1.5-0.6,1.5l0.1,9.7
			C1085.1,245.2,1085.9,245.3,1086.7,245.3z"/>
	</g>
	<g>
		<defs>
			<rect id="SVGID_00000003100239128398482110000006319540158327519650_" width="272.4" height="292.5"/>
		</defs>
		<clipPath id="SVGID_00000163074041623530212220000004077019270737016500_">
			<use xlink:href="#SVGID_00000003100239128398482110000006319540158327519650_"  style="overflow:visible;"/>
		</clipPath>
		
			<circle style="clip-path:url(#SVGID_00000163074041623530212220000004077019270737016500_);fill:#6A3834;" cx="1579.7" cy="248.5" r="27.5"/>
	</g>
	<g>
		<defs>
			<rect id="SVGID_00000119113567419916221880000015136042139306298288_" width="272.4" height="292.5"/>
		</defs>
		<clipPath id="SVGID_00000095339047692346734850000007537013009620545932_">
			<use xlink:href="#SVGID_00000119113567419916221880000015136042139306298288_"  style="overflow:visible;"/>
		</clipPath>
		<path style="clip-path:url(#SVGID_00000095339047692346734850000007537013009620545932_);fill:#D0F4A5;" d="M1575.4,232.2
			l-0.3,0.2c0,0-0.7,0.9-0.7,1.8c0,0.6,0.4,1.2,1.3,1.3c0.4,0.1,1.2,0.1,2.2,0.1c2.5,0,4.1,0,4.8,0l-7.2,27.5
			c-0.1,0.3-0.1,0.6-0.1,0.7c0,0.8,0.5,1.1,1.6,1.1c0.9,0,1.8-0.1,2.3-1.3l7.2-29.3c0,0-0.4-2.1-2.1-2.1c-0.7,0-1.3,0-2,0
			L1575.4,232.2L1575.4,232.2z"/>
	</g>
	<g>
		<defs>
			<rect id="SVGID_00000071545817506518412230000007508395499387471264_" width="272.4" height="292.5"/>
		</defs>
		<clipPath id="SVGID_00000154420914925759938350000016729184790372284819_">
			<use xlink:href="#SVGID_00000071545817506518412230000007508395499387471264_"  style="overflow:visible;"/>
		</clipPath>
		
			<circle style="clip-path:url(#SVGID_00000154420914925759938350000016729184790372284819_);fill:#6A3834;" cx="2069.7" cy="248.5" r="27.5"/>
	</g>
	<g>
		<defs>
			<rect id="SVGID_00000029766155621514095820000008857299332820234887_" width="272.4" height="292.5"/>
		</defs>
		<clipPath id="SVGID_00000143587089429755373940000005599659130481510559_">
			<use xlink:href="#SVGID_00000029766155621514095820000008857299332820234887_"  style="overflow:visible;"/>
		</clipPath>
		<path style="clip-path:url(#SVGID_00000143587089429755373940000005599659130481510559_);fill:#D0F4A5;" d="M2064.1,258.8
			c0,2.2,0.7,5.9,5.6,5.9c6.1,0,6.8-6.1,6.8-13.4v-8c0-5.9-0.6-11.8-5.6-11.8c-7.1,0-7.4,6-7.4,11.3c0,6.7,2.4,9.2,6.3,9.2
			c0.9,0,1.9-0.1,2.9-0.6v0.8c0,2,0,10-3,10c-0.3,0-2.1,0-2.1-3.6v-0.8c0,0-1.3-1.2-2.2-1.2C2064.3,256.7,2064.1,258.1,2064.1,258.8
			z M2070.1,249.3c-2.6,0-2.7-3.4-2.7-7.8c0-2,0.3-7.3,2.9-7.3c1.7,0,2.6,4.2,2.6,11.2c0,0.9,0,1.7,0,2.7
			C2072.1,248.8,2071.1,249.3,2070.1,249.3z"/>
	</g>
</g>
</svg>
