<svg width="27" height="52" viewBox="0 0 27 52" fill="none" xmlns="http://www.w3.org/2000/svg">
<path d="M9.25 52V6.268L16.724 13.372H0.37V0.199996H26.714V52H9.25Z" fill="white"/>
<path d="M9.25 52H8.25V53H9.25V52ZM9.25 6.268L9.93894 5.54318L8.25 3.93785V6.268H9.25ZM16.724 13.372V14.372H19.2276L17.4129 12.6472L16.724 13.372ZM0.37 13.372H-0.63V14.372H0.37V13.372ZM0.37 0.199996V-0.800004H-0.63V0.199996H0.37ZM26.714 0.199996H27.714V-0.800004H26.714V0.199996ZM26.714 52V53H27.714V52H26.714ZM10.25 52V6.268H8.25V52H10.25ZM8.56106 6.99282L16.0351 14.0968L17.4129 12.6472L9.93894 5.54318L8.56106 6.99282ZM16.724 12.372H0.37V14.372H16.724V12.372ZM1.37 13.372V0.199996H-0.63V13.372H1.37ZM0.37 1.2H26.714V-0.800004H0.37V1.2ZM25.714 0.199996V52H27.714V0.199996H25.714ZM26.714 51H9.25V53H26.714V51Z" fill="black"/>
</svg>
